# Pyramida Building Blueprint OBJ
# id: sawmill
# display_name: Sawmill
# source_format: pyramida-building v2
# units: 1 OBJ unit = 1 Pyramida World Unit = 1 Blender metre
mtllib sawmill.mtl

o post_sw
# kind: log
# resource: log
# sub_unit: [0, 0, 0]
usemtl wood
v -0.400000 0.020000 -0.300000
v -0.313397 0.020000 -0.350000
v -0.313397 0.020000 -0.450000
v -0.400000 0.020000 -0.500000
v -0.486603 0.020000 -0.450000
v -0.486603 0.020000 -0.350000
v -0.400000 0.700000 -0.320000
v -0.330718 0.700000 -0.360000
v -0.330718 0.700000 -0.440000
v -0.400000 0.700000 -0.480000
v -0.469282 0.700000 -0.440000
v -0.469282 0.700000 -0.360000
v -0.400000 0.020000 -0.400000
v -0.400000 0.700000 -0.400000
f 1 7 8
f 1 8 2
f 13 2 1
f 14 7 8
f 2 8 9
f 2 9 3
f 13 3 2
f 14 8 9
f 3 9 10
f 3 10 4
f 13 4 3
f 14 9 10
f 4 10 11
f 4 11 5
f 13 5 4
f 14 10 11
f 5 11 12
f 5 12 6
f 13 6 5
f 14 11 12
f 6 12 7
f 6 7 1
f 13 1 6
f 14 12 7

o post_se
# kind: log
# resource: log
# sub_unit: [1, 0, 0]
usemtl wood
v 0.400000 0.020000 -0.300000
v 0.486603 0.020000 -0.350000
v 0.486603 0.020000 -0.450000
v 0.400000 0.020000 -0.500000
v 0.313397 0.020000 -0.450000
v 0.313397 0.020000 -0.350000
v 0.400000 0.700000 -0.320000
v 0.469282 0.700000 -0.360000
v 0.469282 0.700000 -0.440000
v 0.400000 0.700000 -0.480000
v 0.330718 0.700000 -0.440000
v 0.330718 0.700000 -0.360000
v 0.400000 0.020000 -0.400000
v 0.400000 0.700000 -0.400000
f 15 21 22
f 15 22 16
f 27 16 15
f 28 21 22
f 16 22 23
f 16 23 17
f 27 17 16
f 28 22 23
f 17 23 24
f 17 24 18
f 27 18 17
f 28 23 24
f 18 24 25
f 18 25 19
f 27 19 18
f 28 24 25
f 19 25 26
f 19 26 20
f 27 20 19
f 28 25 26
f 20 26 21
f 20 21 15
f 27 15 20
f 28 26 21

o post_nw
# kind: log
# resource: log
# sub_unit: [0, 0, 1]
usemtl wood
v -0.400000 0.020000 0.500000
v -0.313397 0.020000 0.450000
v -0.313397 0.020000 0.350000
v -0.400000 0.020000 0.300000
v -0.486603 0.020000 0.350000
v -0.486603 0.020000 0.450000
v -0.400000 0.700000 0.480000
v -0.330718 0.700000 0.440000
v -0.330718 0.700000 0.360000
v -0.400000 0.700000 0.320000
v -0.469282 0.700000 0.360000
v -0.469282 0.700000 0.440000
v -0.400000 0.020000 0.400000
v -0.400000 0.700000 0.400000
f 29 35 36
f 29 36 30
f 41 30 29
f 42 35 36
f 30 36 37
f 30 37 31
f 41 31 30
f 42 36 37
f 31 37 38
f 31 38 32
f 41 32 31
f 42 37 38
f 32 38 39
f 32 39 33
f 41 33 32
f 42 38 39
f 33 39 40
f 33 40 34
f 41 34 33
f 42 39 40
f 34 40 35
f 34 35 29
f 41 29 34
f 42 40 35

o post_ne
# kind: log
# resource: log
# sub_unit: [1, 0, 1]
usemtl wood
v 0.400000 0.020000 0.500000
v 0.486603 0.020000 0.450000
v 0.486603 0.020000 0.350000
v 0.400000 0.020000 0.300000
v 0.313397 0.020000 0.350000
v 0.313397 0.020000 0.450000
v 0.400000 0.700000 0.480000
v 0.469282 0.700000 0.440000
v 0.469282 0.700000 0.360000
v 0.400000 0.700000 0.320000
v 0.330718 0.700000 0.360000
v 0.330718 0.700000 0.440000
v 0.400000 0.020000 0.400000
v 0.400000 0.700000 0.400000
f 43 49 50
f 43 50 44
f 55 44 43
f 56 49 50
f 44 50 51
f 44 51 45
f 55 45 44
f 56 50 51
f 45 51 52
f 45 52 46
f 55 46 45
f 56 51 52
f 46 52 53
f 46 53 47
f 55 47 46
f 56 52 53
f 47 53 54
f 47 54 48
f 55 48 47
f 56 53 54
f 48 54 49
f 48 49 43
f 55 43 48
f 56 54 49

o beam_s
# kind: log
# resource: log
# sub_unit: [0, 1, 0]
usemtl wood
v -0.430000 0.700000 -0.480000
v -0.430000 0.769282 -0.440000
v -0.430000 0.769282 -0.360000
v -0.430000 0.700000 -0.320000
v -0.430000 0.630718 -0.360000
v -0.430000 0.630718 -0.440000
v 0.430000 0.700000 -0.480000
v 0.430000 0.769282 -0.440000
v 0.430000 0.769282 -0.360000
v 0.430000 0.700000 -0.320000
v 0.430000 0.630718 -0.360000
v 0.430000 0.630718 -0.440000
v -0.430000 0.700000 -0.400000
v 0.430000 0.700000 -0.400000
f 57 63 64
f 57 64 58
f 69 58 57
f 70 63 64
f 58 64 65
f 58 65 59
f 69 59 58
f 70 64 65
f 59 65 66
f 59 66 60
f 69 60 59
f 70 65 66
f 60 66 67
f 60 67 61
f 69 61 60
f 70 66 67
f 61 67 68
f 61 68 62
f 69 62 61
f 70 67 68
f 62 68 63
f 62 63 57
f 69 57 62
f 70 68 63

o beam_n
# kind: log
# resource: log
# sub_unit: [0, 1, 1]
usemtl wood
v -0.430000 0.700000 0.320000
v -0.430000 0.769282 0.360000
v -0.430000 0.769282 0.440000
v -0.430000 0.700000 0.480000
v -0.430000 0.630718 0.440000
v -0.430000 0.630718 0.360000
v 0.430000 0.700000 0.320000
v 0.430000 0.769282 0.360000
v 0.430000 0.769282 0.440000
v 0.430000 0.700000 0.480000
v 0.430000 0.630718 0.440000
v 0.430000 0.630718 0.360000
v -0.430000 0.700000 0.400000
v 0.430000 0.700000 0.400000
f 71 77 78
f 71 78 72
f 83 72 71
f 84 77 78
f 72 78 79
f 72 79 73
f 83 73 72
f 84 78 79
f 73 79 80
f 73 80 74
f 83 74 73
f 84 79 80
f 74 80 81
f 74 81 75
f 83 75 74
f 84 80 81
f 75 81 82
f 75 82 76
f 83 76 75
f 84 81 82
f 76 82 77
f 76 77 71
f 83 71 76
f 84 82 77

o beam_w
# kind: log
# resource: log
# sub_unit: [0, 1, 0]
usemtl wood
v -0.320000 0.700000 -0.430000
v -0.360000 0.769282 -0.430000
v -0.440000 0.769282 -0.430000
v -0.480000 0.700000 -0.430000
v -0.440000 0.630718 -0.430000
v -0.360000 0.630718 -0.430000
v -0.320000 0.700000 0.430000
v -0.360000 0.769282 0.430000
v -0.440000 0.769282 0.430000
v -0.480000 0.700000 0.430000
v -0.440000 0.630718 0.430000
v -0.360000 0.630718 0.430000
v -0.400000 0.700000 -0.430000
v -0.400000 0.700000 0.430000
f 85 91 92
f 85 92 86
f 97 86 85
f 98 91 92
f 86 92 93
f 86 93 87
f 97 87 86
f 98 92 93
f 87 93 94
f 87 94 88
f 97 88 87
f 98 93 94
f 88 94 95
f 88 95 89
f 97 89 88
f 98 94 95
f 89 95 96
f 89 96 90
f 97 90 89
f 98 95 96
f 90 96 91
f 90 91 85
f 97 85 90
f 98 96 91

o beam_e
# kind: log
# resource: log
# sub_unit: [1, 1, 0]
usemtl wood
v 0.480000 0.700000 -0.430000
v 0.440000 0.769282 -0.430000
v 0.360000 0.769282 -0.430000
v 0.320000 0.700000 -0.430000
v 0.360000 0.630718 -0.430000
v 0.440000 0.630718 -0.430000
v 0.480000 0.700000 0.430000
v 0.440000 0.769282 0.430000
v 0.360000 0.769282 0.430000
v 0.320000 0.700000 0.430000
v 0.360000 0.630718 0.430000
v 0.440000 0.630718 0.430000
v 0.400000 0.700000 -0.430000
v 0.400000 0.700000 0.430000
f 99 105 106
f 99 106 100
f 111 100 99
f 112 105 106
f 100 106 107
f 100 107 101
f 111 101 100
f 112 106 107
f 101 107 108
f 101 108 102
f 111 102 101
f 112 107 108
f 102 108 109
f 102 109 103
f 111 103 102
f 112 108 109
f 103 109 110
f 103 110 104
f 111 104 103
f 112 109 110
f 104 110 105
f 104 105 99
f 111 99 104
f 112 110 105

o roof_w
# kind: log
# resource: log
# sub_unit: [0, 1, 1]
usemtl wood
v -0.400000 0.720000 -0.080000
v -0.435645 0.779409 -0.040000
v -0.435645 0.779409 0.040000
v -0.400000 0.720000 0.080000
v -0.364355 0.660591 0.040000
v -0.364355 0.660591 -0.040000
v 0.000000 0.960000 -0.070000
v -0.031190 1.011983 -0.035000
v -0.031190 1.011983 0.035000
v -0.000000 0.960000 0.070000
v 0.031190 0.908017 0.035000
v 0.031190 0.908017 -0.035000
v -0.400000 0.720000 0.000000
v 0.000000 0.960000 0.000000
f 113 119 120
f 113 120 114
f 125 114 113
f 126 119 120
f 114 120 121
f 114 121 115
f 125 115 114
f 126 120 121
f 115 121 122
f 115 122 116
f 125 116 115
f 126 121 122
f 116 122 123
f 116 123 117
f 125 117 116
f 126 122 123
f 117 123 124
f 117 124 118
f 125 118 117
f 126 123 124
f 118 124 119
f 118 119 113
f 125 113 118
f 126 124 119

o roof_e
# kind: log
# resource: log
# sub_unit: [1, 1, 1]
usemtl wood
v 0.000000 0.960000 -0.070000
v 0.031190 1.011983 -0.035000
v 0.031190 1.011983 0.035000
v 0.000000 0.960000 0.070000
v -0.031190 0.908017 0.035000
v -0.031190 0.908017 -0.035000
v 0.400000 0.720000 -0.080000
v 0.435645 0.779409 -0.040000
v 0.435645 0.779409 0.040000
v 0.400000 0.720000 0.080000
v 0.364355 0.660591 0.040000
v 0.364355 0.660591 -0.040000
v 0.000000 0.960000 0.000000
v 0.400000 0.720000 0.000000
f 127 133 134
f 127 134 128
f 139 128 127
f 140 133 134
f 128 134 135
f 128 135 129
f 139 129 128
f 140 134 135
f 129 135 136
f 129 136 130
f 139 130 129
f 140 135 136
f 130 136 137
f 130 137 131
f 139 131 130
f 140 136 137
f 131 137 138
f 131 138 132
f 139 132 131
f 140 137 138
f 132 138 133
f 132 133 127
f 139 127 132
f 140 138 133
