# Pyramida Support construction-site placement anchors
# Edit the four named quadrant objects in Blender; their centres drive placement diagnostics.
# units: 1 OBJ unit = 1 Pyramida World Unit = 1 Blender metre

o placement_quadrant_01
v -0.490000 0.052500 -0.010000
v -0.010000 0.052500 -0.490000
v -0.010000 0.052500 -0.010000
v -0.490000 0.052500 -0.490000
v -0.490000 0.027500 -0.010000
v -0.010000 0.027500 -0.490000
v -0.010000 0.027500 -0.010000
v -0.490000 0.027500 -0.490000
v -0.010000 0.052500 -0.010000
v -0.490000 0.052500 -0.490000
v -0.010000 0.052500 -0.490000
v -0.490000 0.052500 -0.010000
v -0.010000 0.027500 -0.010000
v -0.490000 0.027500 -0.490000
v -0.010000 0.027500 -0.490000
v -0.490000 0.027500 -0.010000
v -0.010000 0.052500 -0.010000
v -0.490000 0.027500 -0.010000
v -0.490000 0.052500 -0.010000
v -0.010000 0.027500 -0.010000
v -0.010000 0.052500 -0.490000
v -0.490000 0.027500 -0.490000
v -0.490000 0.052500 -0.490000
v -0.010000 0.027500 -0.490000
f 1 3 5
f 3 7 5
f 2 4 6
f 4 8 6
f 9 11 13
f 11 15 13
f 10 12 14
f 12 16 14
f 17 19 21
f 19 23 21
f 18 20 22
f 20 24 22

o placement_quadrant_02
v 0.010000 0.052500 -0.010000
v 0.490000 0.052500 -0.490000
v 0.490000 0.052500 -0.010000
v 0.010000 0.052500 -0.490000
v 0.010000 0.027500 -0.010000
v 0.490000 0.027500 -0.490000
v 0.490000 0.027500 -0.010000
v 0.010000 0.027500 -0.490000
v 0.490000 0.052500 -0.010000
v 0.010000 0.052500 -0.490000
v 0.490000 0.052500 -0.490000
v 0.010000 0.052500 -0.010000
v 0.490000 0.027500 -0.010000
v 0.010000 0.027500 -0.490000
v 0.490000 0.027500 -0.490000
v 0.010000 0.027500 -0.010000
v 0.490000 0.052500 -0.010000
v 0.010000 0.027500 -0.010000
v 0.010000 0.052500 -0.010000
v 0.490000 0.027500 -0.010000
v 0.490000 0.052500 -0.490000
v 0.010000 0.027500 -0.490000
v 0.010000 0.052500 -0.490000
v 0.490000 0.027500 -0.490000
f 25 27 29
f 27 31 29
f 26 28 30
f 28 32 30
f 33 35 37
f 35 39 37
f 34 36 38
f 36 40 38
f 41 43 45
f 43 47 45
f 42 44 46
f 44 48 46

o placement_quadrant_03
v 0.010000 0.052500 0.490000
v 0.490000 0.052500 0.010000
v 0.490000 0.052500 0.490000
v 0.010000 0.052500 0.010000
v 0.010000 0.027500 0.490000
v 0.490000 0.027500 0.010000
v 0.490000 0.027500 0.490000
v 0.010000 0.027500 0.010000
v 0.490000 0.052500 0.490000
v 0.010000 0.052500 0.010000
v 0.490000 0.052500 0.010000
v 0.010000 0.052500 0.490000
v 0.490000 0.027500 0.490000
v 0.010000 0.027500 0.010000
v 0.490000 0.027500 0.010000
v 0.010000 0.027500 0.490000
v 0.490000 0.052500 0.490000
v 0.010000 0.027500 0.490000
v 0.010000 0.052500 0.490000
v 0.490000 0.027500 0.490000
v 0.490000 0.052500 0.010000
v 0.010000 0.027500 0.010000
v 0.010000 0.052500 0.010000
v 0.490000 0.027500 0.010000
f 49 51 53
f 51 55 53
f 50 52 54
f 52 56 54
f 57 59 61
f 59 63 61
f 58 60 62
f 60 64 62
f 65 67 69
f 67 71 69
f 66 68 70
f 68 72 70

o placement_quadrant_04
v -0.490000 0.052500 0.490000
v -0.010000 0.052500 0.010000
v -0.010000 0.052500 0.490000
v -0.490000 0.052500 0.010000
v -0.490000 0.027500 0.490000
v -0.010000 0.027500 0.010000
v -0.010000 0.027500 0.490000
v -0.490000 0.027500 0.010000
v -0.010000 0.052500 0.490000
v -0.490000 0.052500 0.010000
v -0.010000 0.052500 0.010000
v -0.490000 0.052500 0.490000
v -0.010000 0.027500 0.490000
v -0.490000 0.027500 0.010000
v -0.010000 0.027500 0.010000
v -0.490000 0.027500 0.490000
v -0.010000 0.052500 0.490000
v -0.490000 0.027500 0.490000
v -0.490000 0.052500 0.490000
v -0.010000 0.027500 0.490000
v -0.010000 0.052500 0.010000
v -0.490000 0.027500 0.010000
v -0.490000 0.052500 0.010000
v -0.010000 0.027500 0.010000
f 73 75 77
f 75 79 77
f 74 76 78
f 76 80 78
f 81 83 85
f 83 87 85
f 82 84 86
f 84 88 86
f 89 91 93
f 91 95 93
f 90 92 94
f 92 96 94

o assignment_branch_01
v -0.558833 0.108191 -0.481051
v -0.640937 0.438929 -0.595682
v -0.597452 0.451336 -0.597452
v -0.558833 0.108191 -0.481051
v -0.597452 0.451336 -0.597452
v -0.484093 0.129515 -0.484093
v -0.519942 0.108191 -0.519942
v -0.484093 0.129515 -0.484093
v -0.558833 0.108191 -0.481051
v -0.618309 0.438929 -0.618309
v -0.640937 0.438929 -0.595682
v -0.597452 0.451336 -0.597452
v -0.484093 0.129515 -0.484093
v -0.597452 0.451336 -0.597452
v -0.595682 0.438929 -0.640937
v -0.484093 0.129515 -0.484093
v -0.595682 0.438929 -0.640937
v -0.481051 0.108191 -0.558833
v -0.519942 0.108191 -0.519942
v -0.481051 0.108191 -0.558833
v -0.484093 0.129515 -0.484093
v -0.618309 0.438929 -0.618309
v -0.597452 0.451336 -0.597452
v -0.595682 0.438929 -0.640937
v -0.481051 0.108191 -0.558833
v -0.595682 0.438929 -0.640937
v -0.639167 0.426523 -0.639167
v -0.481051 0.108191 -0.558833
v -0.639167 0.426523 -0.639167
v -0.555791 0.086867 -0.555791
v -0.519942 0.108191 -0.519942
v -0.555791 0.086867 -0.555791
v -0.481051 0.108191 -0.558833
v -0.618309 0.438929 -0.618309
v -0.595682 0.438929 -0.640937
v -0.639167 0.426523 -0.639167
v -0.555791 0.086867 -0.555791
v -0.639167 0.426523 -0.639167
v -0.640937 0.438929 -0.595682
v -0.555791 0.086867 -0.555791
v -0.640937 0.438929 -0.595682
v -0.558833 0.108191 -0.481051
v -0.519942 0.108191 -0.519942
v -0.558833 0.108191 -0.481051
v -0.555791 0.086867 -0.555791
v -0.618309 0.438929 -0.618309
v -0.639167 0.426523 -0.639167
v -0.640937 0.438929 -0.595682
f 97 98 99
f 100 101 102
f 103 104 105
f 106 107 108
f 109 110 111
f 112 113 114
f 115 116 117
f 118 119 120
f 121 122 123
f 124 125 126
f 127 128 129
f 130 131 132
f 133 134 135
f 136 137 138
f 139 140 141
f 142 143 144

o assignment_branch_02
v 0.481051 0.108191 -0.558833
v 0.595682 0.438929 -0.640937
v 0.597452 0.451336 -0.597452
v 0.481051 0.108191 -0.558833
v 0.597452 0.451336 -0.597452
v 0.484093 0.129515 -0.484093
v 0.519942 0.108191 -0.519942
v 0.484093 0.129515 -0.484093
v 0.481051 0.108191 -0.558833
v 0.618309 0.438929 -0.618309
v 0.595682 0.438929 -0.640937
v 0.597452 0.451336 -0.597452
v 0.484093 0.129515 -0.484093
v 0.597452 0.451336 -0.597452
v 0.640937 0.438929 -0.595682
v 0.484093 0.129515 -0.484093
v 0.640937 0.438929 -0.595682
v 0.558833 0.108191 -0.481051
v 0.519942 0.108191 -0.519942
v 0.558833 0.108191 -0.481051
v 0.484093 0.129515 -0.484093
v 0.618309 0.438929 -0.618309
v 0.597452 0.451336 -0.597452
v 0.640937 0.438929 -0.595682
v 0.558833 0.108191 -0.481051
v 0.640937 0.438929 -0.595682
v 0.639167 0.426523 -0.639167
v 0.558833 0.108191 -0.481051
v 0.639167 0.426523 -0.639167
v 0.555791 0.086867 -0.555791
v 0.519942 0.108191 -0.519942
v 0.555791 0.086867 -0.555791
v 0.558833 0.108191 -0.481051
v 0.618309 0.438929 -0.618309
v 0.640937 0.438929 -0.595682
v 0.639167 0.426523 -0.639167
v 0.555791 0.086867 -0.555791
v 0.639167 0.426523 -0.639167
v 0.595682 0.438929 -0.640937
v 0.555791 0.086867 -0.555791
v 0.595682 0.438929 -0.640937
v 0.481051 0.108191 -0.558833
v 0.519942 0.108191 -0.519942
v 0.481051 0.108191 -0.558833
v 0.555791 0.086867 -0.555791
v 0.618309 0.438929 -0.618309
v 0.639167 0.426523 -0.639167
v 0.595682 0.438929 -0.640937
f 145 146 147
f 148 149 150
f 151 152 153
f 154 155 156
f 157 158 159
f 160 161 162
f 163 164 165
f 166 167 168
f 169 170 171
f 172 173 174
f 175 176 177
f 178 179 180
f 181 182 183
f 184 185 186
f 187 188 189
f 190 191 192

o assignment_branch_03
v 0.558833 0.108191 0.481051
v 0.640937 0.438929 0.595682
v 0.597452 0.451336 0.597452
v 0.558833 0.108191 0.481051
v 0.597452 0.451336 0.597452
v 0.484093 0.129515 0.484093
v 0.519942 0.108191 0.519942
v 0.484093 0.129515 0.484093
v 0.558833 0.108191 0.481051
v 0.618309 0.438929 0.618309
v 0.640937 0.438929 0.595682
v 0.597452 0.451336 0.597452
v 0.484093 0.129515 0.484093
v 0.597452 0.451336 0.597452
v 0.595682 0.438929 0.640937
v 0.484093 0.129515 0.484093
v 0.595682 0.438929 0.640937
v 0.481051 0.108191 0.558833
v 0.519942 0.108191 0.519942
v 0.481051 0.108191 0.558833
v 0.484093 0.129515 0.484093
v 0.618309 0.438929 0.618309
v 0.597452 0.451336 0.597452
v 0.595682 0.438929 0.640937
v 0.481051 0.108191 0.558833
v 0.595682 0.438929 0.640937
v 0.639167 0.426523 0.639167
v 0.481051 0.108191 0.558833
v 0.639167 0.426523 0.639167
v 0.555791 0.086867 0.555791
v 0.519942 0.108191 0.519942
v 0.555791 0.086867 0.555791
v 0.481051 0.108191 0.558833
v 0.618309 0.438929 0.618309
v 0.595682 0.438929 0.640937
v 0.639167 0.426523 0.639167
v 0.555791 0.086867 0.555791
v 0.639167 0.426523 0.639167
v 0.640937 0.438929 0.595682
v 0.555791 0.086867 0.555791
v 0.640937 0.438929 0.595682
v 0.558833 0.108191 0.481051
v 0.519942 0.108191 0.519942
v 0.558833 0.108191 0.481051
v 0.555791 0.086867 0.555791
v 0.618309 0.438929 0.618309
v 0.639167 0.426523 0.639167
v 0.640937 0.438929 0.595682
f 193 194 195
f 196 197 198
f 199 200 201
f 202 203 204
f 205 206 207
f 208 209 210
f 211 212 213
f 214 215 216
f 217 218 219
f 220 221 222
f 223 224 225
f 226 227 228
f 229 230 231
f 232 233 234
f 235 236 237
f 238 239 240

o assignment_branch_04
v -0.481051 0.108191 0.558833
v -0.595682 0.438929 0.640937
v -0.597452 0.451336 0.597452
v -0.481051 0.108191 0.558833
v -0.597452 0.451336 0.597452
v -0.484093 0.129515 0.484093
v -0.519942 0.108191 0.519942
v -0.484093 0.129515 0.484093
v -0.481051 0.108191 0.558833
v -0.618309 0.438929 0.618309
v -0.595682 0.438929 0.640937
v -0.597452 0.451336 0.597452
v -0.484093 0.129515 0.484093
v -0.597452 0.451336 0.597452
v -0.640937 0.438929 0.595682
v -0.484093 0.129515 0.484093
v -0.640937 0.438929 0.595682
v -0.558833 0.108191 0.481051
v -0.519942 0.108191 0.519942
v -0.558833 0.108191 0.481051
v -0.484093 0.129515 0.484093
v -0.618309 0.438929 0.618309
v -0.597452 0.451336 0.597452
v -0.640937 0.438929 0.595682
v -0.558833 0.108191 0.481051
v -0.640937 0.438929 0.595682
v -0.639167 0.426523 0.639167
v -0.558833 0.108191 0.481051
v -0.639167 0.426523 0.639167
v -0.555791 0.086867 0.555791
v -0.519942 0.108191 0.519942
v -0.555791 0.086867 0.555791
v -0.558833 0.108191 0.481051
v -0.618309 0.438929 0.618309
v -0.640937 0.438929 0.595682
v -0.639167 0.426523 0.639167
v -0.555791 0.086867 0.555791
v -0.639167 0.426523 0.639167
v -0.595682 0.438929 0.640937
v -0.555791 0.086867 0.555791
v -0.595682 0.438929 0.640937
v -0.481051 0.108191 0.558833
v -0.519942 0.108191 0.519942
v -0.481051 0.108191 0.558833
v -0.555791 0.086867 0.555791
v -0.618309 0.438929 0.618309
v -0.639167 0.426523 0.639167
v -0.595682 0.438929 0.640937
f 241 242 243
f 244 245 246
f 247 248 249
f 250 251 252
f 253 254 255
f 256 257 258
f 259 260 261
f 262 263 264
f 265 266 267
f 268 269 270
f 271 272 273
f 274 275 276
f 277 278 279
f 280 281 282
f 283 284 285
f 286 287 288
