# Pyramida editable prop source
# units: 1 OBJ unit = 1 Pyramida World Unit = 1 Blender metre

o BushLobe_0
v -0.033460 0.677718 -0.140460
v -0.033460 0.677718 -0.140460
v -0.033460 0.677718 -0.140460
v -0.033460 0.677718 -0.140460
v -0.033460 0.677718 -0.140460
v -0.033460 0.677718 -0.140460
v -0.033460 0.677718 -0.140460
v -0.033460 0.677718 -0.140460
v -0.033460 0.677718 -0.140460
v -0.033460 0.617039 0.059518
v 0.107946 0.617039 0.000946
v 0.166518 0.617039 -0.140460
v 0.107946 0.617039 -0.281866
v -0.033460 0.617039 -0.340438
v -0.174866 0.617039 -0.281866
v -0.233438 0.617039 -0.140460
v -0.174866 0.617039 0.000946
v -0.033460 0.617039 0.059518
v -0.033460 0.458180 0.183111
v 0.195339 0.458180 0.088339
v 0.290111 0.458180 -0.140460
v 0.195339 0.458180 -0.369259
v -0.033460 0.458180 -0.464031
v -0.262259 0.458180 -0.369259
v -0.357031 0.458180 -0.140460
v -0.262259 0.458180 0.088339
v -0.033460 0.458180 0.183111
v -0.033460 0.261820 0.183111
v 0.195339 0.261820 0.088339
v 0.290111 0.261820 -0.140460
v 0.195339 0.261820 -0.369259
v -0.033460 0.261820 -0.464031
v -0.262259 0.261820 -0.369259
v -0.357031 0.261820 -0.140460
v -0.262259 0.261820 0.088339
v -0.033460 0.261820 0.183111
v -0.033460 0.102961 0.059518
v 0.107946 0.102961 0.000946
v 0.166518 0.102961 -0.140460
v 0.107946 0.102961 -0.281866
v -0.033460 0.102961 -0.340438
v -0.174866 0.102961 -0.281866
v -0.233438 0.102961 -0.140460
v -0.174866 0.102961 0.000946
v -0.033460 0.102961 0.059518
v -0.033460 0.042282 -0.140460
v -0.033460 0.042282 -0.140460
v -0.033460 0.042282 -0.140460
v -0.033460 0.042282 -0.140460
v -0.033460 0.042282 -0.140460
v -0.033460 0.042282 -0.140460
v -0.033460 0.042282 -0.140460
v -0.033460 0.042282 -0.140460
v -0.033460 0.042282 -0.140460
f 1 2 10
f 2 11 10
f 2 3 11
f 3 12 11
f 3 4 12
f 4 13 12
f 4 5 13
f 5 14 13
f 5 6 14
f 6 15 14
f 6 7 15
f 7 16 15
f 7 8 16
f 8 17 16
f 8 9 17
f 9 18 17
f 10 11 19
f 11 20 19
f 11 12 20
f 12 21 20
f 12 13 21
f 13 22 21
f 13 14 22
f 14 23 22
f 14 15 23
f 15 24 23
f 15 16 24
f 16 25 24
f 16 17 25
f 17 26 25
f 17 18 26
f 18 27 26
f 19 20 28
f 20 29 28
f 20 21 29
f 21 30 29
f 21 22 30
f 22 31 30
f 22 23 31
f 23 32 31
f 23 24 32
f 24 33 32
f 24 25 33
f 25 34 33
f 25 26 34
f 26 35 34
f 26 27 35
f 27 36 35
f 28 29 37
f 29 38 37
f 29 30 38
f 30 39 38
f 30 31 39
f 31 40 39
f 31 32 40
f 32 41 40
f 32 33 41
f 33 42 41
f 33 34 42
f 34 43 42
f 34 35 43
f 35 44 43
f 35 36 44
f 36 45 44
f 37 38 46
f 38 47 46
f 38 39 47
f 39 48 47
f 39 40 48
f 40 49 48
f 40 41 49
f 41 50 49
f 41 42 50
f 42 51 50
f 42 43 51
f 43 52 51
f 43 44 52
f 44 53 52
f 44 45 53
f 45 54 53

o BushLobe_1
v -0.307052 0.635922 0.067764
v -0.307052 0.635922 0.067764
v -0.307052 0.635922 0.067764
v -0.307052 0.635922 0.067764
v -0.307052 0.635922 0.067764
v -0.307052 0.635922 0.067764
v -0.307052 0.635922 0.067764
v -0.307052 0.635922 0.067764
v -0.307052 0.635922 0.067764
v -0.307052 0.573676 0.272702
v -0.162139 0.573676 0.212677
v -0.102114 0.573676 0.067764
v -0.162139 0.573676 -0.077149
v -0.307052 0.573676 -0.137174
v -0.451965 0.573676 -0.077149
v -0.511990 0.573676 0.067764
v -0.451965 0.573676 0.212677
v -0.307052 0.573676 0.272702
v -0.307052 0.410715 0.399360
v -0.072578 0.410715 0.302238
v 0.024544 0.410715 0.067764
v -0.072578 0.410715 -0.166710
v -0.307052 0.410715 -0.263832
v -0.541526 0.410715 -0.166710
v -0.638648 0.410715 0.067764
v -0.541526 0.410715 0.302238
v -0.307052 0.410715 0.399360
v -0.307052 0.209285 0.399360
v -0.072578 0.209285 0.302238
v 0.024544 0.209285 0.067764
v -0.072578 0.209285 -0.166710
v -0.307052 0.209285 -0.263832
v -0.541526 0.209285 -0.166710
v -0.638648 0.209285 0.067764
v -0.541526 0.209285 0.302238
v -0.307052 0.209285 0.399360
v -0.307052 0.046324 0.272702
v -0.162139 0.046324 0.212677
v -0.102114 0.046324 0.067764
v -0.162139 0.046324 -0.077149
v -0.307052 0.046324 -0.137174
v -0.451965 0.046324 -0.077149
v -0.511990 0.046324 0.067764
v -0.451965 0.046324 0.212677
v -0.307052 0.046324 0.272702
v -0.307052 -0.015922 0.067764
v -0.307052 -0.015922 0.067764
v -0.307052 -0.015922 0.067764
v -0.307052 -0.015922 0.067764
v -0.307052 -0.015922 0.067764
v -0.307052 -0.015922 0.067764
v -0.307052 -0.015922 0.067764
v -0.307052 -0.015922 0.067764
v -0.307052 -0.015922 0.067764
f 55 56 64
f 56 65 64
f 56 57 65
f 57 66 65
f 57 58 66
f 58 67 66
f 58 59 67
f 59 68 67
f 59 60 68
f 60 69 68
f 60 61 69
f 61 70 69
f 61 62 70
f 62 71 70
f 62 63 71
f 63 72 71
f 64 65 73
f 65 74 73
f 65 66 74
f 66 75 74
f 66 67 75
f 67 76 75
f 67 68 76
f 68 77 76
f 68 69 77
f 69 78 77
f 69 70 78
f 70 79 78
f 70 71 79
f 71 80 79
f 71 72 80
f 72 81 80
f 73 74 82
f 74 83 82
f 74 75 83
f 75 84 83
f 75 76 84
f 76 85 84
f 76 77 85
f 77 86 85
f 77 78 86
f 78 87 86
f 78 79 87
f 79 88 87
f 79 80 88
f 80 89 88
f 80 81 89
f 81 90 89
f 82 83 91
f 83 92 91
f 83 84 92
f 84 93 92
f 84 85 93
f 85 94 93
f 85 86 94
f 86 95 94
f 86 87 95
f 87 96 95
f 87 88 96
f 88 97 96
f 88 89 97
f 89 98 97
f 89 90 98
f 90 99 98
f 91 92 100
f 92 101 100
f 92 93 101
f 93 102 101
f 93 94 102
f 94 103 102
f 94 95 103
f 95 104 103
f 95 96 104
f 96 105 104
f 96 97 105
f 97 106 105
f 97 98 106
f 98 107 106
f 98 99 107
f 99 108 107

o BushLobe_2
v 0.289356 0.654126 0.104172
v 0.289356 0.654126 0.104172
v 0.289356 0.654126 0.104172
v 0.289356 0.654126 0.104172
v 0.289356 0.654126 0.104172
v 0.289356 0.654126 0.104172
v 0.289356 0.654126 0.104172
v 0.289356 0.654126 0.104172
v 0.289356 0.654126 0.104172
v 0.289356 0.590314 0.314070
v 0.437776 0.590314 0.252592
v 0.499254 0.590314 0.104172
v 0.437776 0.590314 -0.044248
v 0.289356 0.590314 -0.105726
v 0.140936 0.590314 -0.044248
v 0.079458 0.590314 0.104172
v 0.140936 0.590314 0.252592
v 0.289356 0.590314 0.314070
v 0.289356 0.423251 0.443794
v 0.529505 0.423251 0.344321
v 0.628978 0.423251 0.104172
v 0.529505 0.423251 -0.135977
v 0.289356 0.423251 -0.235450
v 0.049207 0.423251 -0.135977
v -0.050266 0.423251 0.104172
v 0.049207 0.423251 0.344321
v 0.289356 0.423251 0.443794
v 0.289356 0.216749 0.443794
v 0.529505 0.216749 0.344321
v 0.628978 0.216749 0.104172
v 0.529505 0.216749 -0.135977
v 0.289356 0.216749 -0.235450
v 0.049207 0.216749 -0.135977
v -0.050266 0.216749 0.104172
v 0.049207 0.216749 0.344321
v 0.289356 0.216749 0.443794
v 0.289356 0.049686 0.314070
v 0.437776 0.049686 0.252592
v 0.499254 0.049686 0.104172
v 0.437776 0.049686 -0.044248
v 0.289356 0.049686 -0.105726
v 0.140936 0.049686 -0.044248
v 0.079458 0.049686 0.104172
v 0.140936 0.049686 0.252592
v 0.289356 0.049686 0.314070
v 0.289356 -0.014126 0.104172
v 0.289356 -0.014126 0.104172
v 0.289356 -0.014126 0.104172
v 0.289356 -0.014126 0.104172
v 0.289356 -0.014126 0.104172
v 0.289356 -0.014126 0.104172
v 0.289356 -0.014126 0.104172
v 0.289356 -0.014126 0.104172
v 0.289356 -0.014126 0.104172
f 109 110 118
f 110 119 118
f 110 111 119
f 111 120 119
f 111 112 120
f 112 121 120
f 112 113 121
f 113 122 121
f 113 114 122
f 114 123 122
f 114 115 123
f 115 124 123
f 115 116 124
f 116 125 124
f 116 117 125
f 117 126 125
f 118 119 127
f 119 128 127
f 119 120 128
f 120 129 128
f 120 121 129
f 121 130 129
f 121 122 130
f 122 131 130
f 122 123 131
f 123 132 131
f 123 124 132
f 124 133 132
f 124 125 133
f 125 134 133
f 125 126 134
f 126 135 134
f 127 128 136
f 128 137 136
f 128 129 137
f 129 138 137
f 129 130 138
f 130 139 138
f 130 131 139
f 131 140 139
f 131 132 140
f 132 141 140
f 132 133 141
f 133 142 141
f 133 134 142
f 134 143 142
f 134 135 143
f 135 144 143
f 136 137 145
f 137 146 145
f 137 138 146
f 138 147 146
f 138 139 147
f 139 148 147
f 139 140 148
f 140 149 148
f 140 141 149
f 141 150 149
f 141 142 150
f 142 151 150
f 142 143 151
f 143 152 151
f 143 144 152
f 144 153 152
f 145 146 154
f 146 155 154
f 146 147 155
f 147 156 155
f 147 148 156
f 148 157 156
f 148 149 157
f 149 158 157
f 149 150 158
f 150 159 158
f 150 151 159
f 151 160 159
f 151 152 160
f 152 161 160
f 152 153 161
f 153 162 161

o BatchedBerryDots_01
v 0.052500 -0.052500 0.000000
v -0.052500 -0.052500 0.000000
v 0.052500 0.052500 0.000000
v -0.052500 0.052500 0.000000
f 163 164 165
f 164 166 165

o BatchedBerryDots_02
v 0.052500 -0.052500 0.000000
v -0.052500 -0.052500 0.000000
v 0.052500 0.052500 0.000000
v -0.052500 0.052500 0.000000
f 167 168 169
f 168 170 169

o BatchedBerryDots_03
v 0.052500 -0.052500 0.000000
v -0.052500 -0.052500 0.000000
v 0.052500 0.052500 0.000000
v -0.052500 0.052500 0.000000
f 171 172 173
f 172 174 173

o BatchedBerryDots_04
v 0.052500 -0.052500 0.000000
v -0.052500 -0.052500 0.000000
v 0.052500 0.052500 0.000000
v -0.052500 0.052500 0.000000
f 175 176 177
f 176 178 177

o BatchedBerryDots_05
v 0.052500 -0.052500 0.000000
v -0.052500 -0.052500 0.000000
v 0.052500 0.052500 0.000000
v -0.052500 0.052500 0.000000
f 179 180 181
f 180 182 181

o BatchedBerryDots_06
v 0.052500 -0.052500 0.000000
v -0.052500 -0.052500 0.000000
v 0.052500 0.052500 0.000000
v -0.052500 0.052500 0.000000
f 183 184 185
f 184 186 185

o BatchedBerryDots_07
v 0.052500 -0.052500 0.000000
v -0.052500 -0.052500 0.000000
v 0.052500 0.052500 0.000000
v -0.052500 0.052500 0.000000
f 187 188 189
f 188 190 189

o BatchedBerryDots_08
v 0.052500 -0.052500 0.000000
v -0.052500 -0.052500 0.000000
v 0.052500 0.052500 0.000000
v -0.052500 0.052500 0.000000
f 191 192 193
f 192 194 193

o BatchedBerryDots_09
v 0.052500 -0.052500 0.000000
v -0.052500 -0.052500 0.000000
v 0.052500 0.052500 0.000000
v -0.052500 0.052500 0.000000
f 195 196 197
f 196 198 197

o BatchedBerryDots_10
v 0.052500 -0.052500 0.000000
v -0.052500 -0.052500 0.000000
v 0.052500 0.052500 0.000000
v -0.052500 0.052500 0.000000
f 199 200 201
f 200 202 201
