# Pyramida editable prop source
# units: 1 OBJ unit = 1 Pyramida World Unit = 1 Blender metre

o CactusTrunk
v 0.000000 1.420000 0.140000
v 0.121244 1.420000 0.070000
v 0.121244 1.420000 -0.070000
v 0.000000 1.420000 -0.140000
v -0.121244 1.420000 -0.070000
v -0.121244 1.420000 0.070000
v 0.000000 1.420000 0.140000
v 0.000000 0.710000 0.155000
v 0.134234 0.710000 0.077500
v 0.134234 0.710000 -0.077500
v 0.000000 0.710000 -0.155000
v -0.134234 0.710000 -0.077500
v -0.134234 0.710000 0.077500
v 0.000000 0.710000 0.155000
v 0.000000 0.000000 0.170000
v 0.147224 0.000000 0.085000
v 0.147224 0.000000 -0.085000
v 0.000000 0.000000 -0.170000
v -0.147224 0.000000 -0.085000
v -0.147224 0.000000 0.085000
v 0.000000 0.000000 0.170000
v 0.000000 1.420000 0.000000
v 0.000000 1.420000 0.140000
v 0.121244 1.420000 0.070000
v 0.121244 1.420000 -0.070000
v 0.000000 1.420000 -0.140000
v -0.121244 1.420000 -0.070000
v -0.121244 1.420000 0.070000
v 0.000000 1.420000 0.140000
v 0.000000 0.000000 0.000000
v 0.000000 0.000000 0.170000
v 0.147224 0.000000 0.085000
v 0.147224 0.000000 -0.085000
v 0.000000 0.000000 -0.170000
v -0.147224 0.000000 -0.085000
v -0.147224 0.000000 0.085000
v 0.000000 0.000000 0.170000
f 1 2 8
f 2 9 8
f 2 3 9
f 3 10 9
f 3 4 10
f 4 11 10
f 4 5 11
f 5 12 11
f 5 6 12
f 6 13 12
f 6 7 13
f 7 14 13
f 8 9 15
f 9 16 15
f 9 10 16
f 10 17 16
f 10 11 17
f 11 18 17
f 11 12 18
f 12 19 18
f 12 13 19
f 13 20 19
f 13 14 20
f 14 21 20
f 22 24 23
f 22 25 24
f 22 26 25
f 22 27 26
f 22 28 27
f 22 29 28
f 30 31 32
f 30 32 33
f 30 33 34
f 30 34 35
f 30 35 36
f 30 36 37

o CactusArmHorizontal_1
v -0.340000 0.680000 0.075000
v -0.340000 0.744952 0.037500
v -0.340000 0.744952 -0.037500
v -0.340000 0.680000 -0.075000
v -0.340000 0.615048 -0.037500
v -0.340000 0.615048 0.037500
v -0.340000 0.680000 0.075000
v -0.272000 0.680000 0.078000
v -0.272000 0.747550 0.039000
v -0.272000 0.747550 -0.039000
v -0.272000 0.680000 -0.078000
v -0.272000 0.612450 -0.039000
v -0.272000 0.612450 0.039000
v -0.272000 0.680000 0.078000
v -0.204000 0.680000 0.081000
v -0.204000 0.750148 0.040500
v -0.204000 0.750148 -0.040500
v -0.204000 0.680000 -0.081000
v -0.204000 0.609852 -0.040500
v -0.204000 0.609852 0.040500
v -0.204000 0.680000 0.081000
v -0.136000 0.680000 0.084000
v -0.136000 0.752746 0.042000
v -0.136000 0.752746 -0.042000
v -0.136000 0.680000 -0.084000
v -0.136000 0.607254 -0.042000
v -0.136000 0.607254 0.042000
v -0.136000 0.680000 0.084000
v -0.068000 0.680000 0.087000
v -0.068000 0.755344 0.043500
v -0.068000 0.755344 -0.043500
v -0.068000 0.680000 -0.087000
v -0.068000 0.604656 -0.043500
v -0.068000 0.604656 0.043500
v -0.068000 0.680000 0.087000
v 0.000000 0.680000 0.090000
v 0.000000 0.757942 0.045000
v 0.000000 0.757942 -0.045000
v 0.000000 0.680000 -0.090000
v 0.000000 0.602058 -0.045000
v 0.000000 0.602058 0.045000
v 0.000000 0.680000 0.090000
v -0.340000 0.680000 0.000000
v -0.340000 0.680000 0.075000
v -0.340000 0.744952 0.037500
v -0.340000 0.744952 -0.037500
v -0.340000 0.680000 -0.075000
v -0.340000 0.615048 -0.037500
v -0.340000 0.615048 0.037500
v -0.340000 0.680000 0.075000
v 0.000000 0.680000 0.000000
v 0.000000 0.680000 0.090000
v 0.000000 0.757942 0.045000
v 0.000000 0.757942 -0.045000
v 0.000000 0.680000 -0.090000
v 0.000000 0.602058 -0.045000
v 0.000000 0.602058 0.045000
v 0.000000 0.680000 0.090000
f 38 39 45
f 39 46 45
f 39 40 46
f 40 47 46
f 40 41 47
f 41 48 47
f 41 42 48
f 42 49 48
f 42 43 49
f 43 50 49
f 43 44 50
f 44 51 50
f 45 46 52
f 46 53 52
f 46 47 53
f 47 54 53
f 47 48 54
f 48 55 54
f 48 49 55
f 49 56 55
f 49 50 56
f 50 57 56
f 50 51 57
f 51 58 57
f 52 53 59
f 53 60 59
f 53 54 60
f 54 61 60
f 54 55 61
f 55 62 61
f 55 56 62
f 56 63 62
f 56 57 63
f 57 64 63
f 57 58 64
f 58 65 64
f 59 60 66
f 60 67 66
f 60 61 67
f 61 68 67
f 61 62 68
f 62 69 68
f 62 63 69
f 63 70 69
f 63 64 70
f 64 71 70
f 64 65 71
f 65 72 71
f 66 67 73
f 67 74 73
f 67 68 74
f 68 75 74
f 68 69 75
f 69 76 75
f 69 70 76
f 70 77 76
f 70 71 77
f 71 78 77
f 71 72 78
f 72 79 78
f 80 82 81
f 80 83 82
f 80 84 83
f 80 85 84
f 80 86 85
f 80 87 86
f 88 89 90
f 88 90 91
f 88 91 92
f 88 92 93
f 88 93 94
f 88 94 95

o CactusArmUpright_1
v -0.330000 1.040000 0.065000
v -0.273708 1.040000 0.032500
v -0.273708 1.040000 -0.032500
v -0.330000 1.040000 -0.065000
v -0.386292 1.040000 -0.032500
v -0.386292 1.040000 0.032500
v -0.330000 1.040000 0.065000
v -0.330000 0.964000 0.068000
v -0.271110 0.964000 0.034000
v -0.271110 0.964000 -0.034000
v -0.330000 0.964000 -0.068000
v -0.388890 0.964000 -0.034000
v -0.388890 0.964000 0.034000
v -0.330000 0.964000 0.068000
v -0.330000 0.888000 0.071000
v -0.268512 0.888000 0.035500
v -0.268512 0.888000 -0.035500
v -0.330000 0.888000 -0.071000
v -0.391488 0.888000 -0.035500
v -0.391488 0.888000 0.035500
v -0.330000 0.888000 0.071000
v -0.330000 0.812000 0.074000
v -0.265914 0.812000 0.037000
v -0.265914 0.812000 -0.037000
v -0.330000 0.812000 -0.074000
v -0.394086 0.812000 -0.037000
v -0.394086 0.812000 0.037000
v -0.330000 0.812000 0.074000
v -0.330000 0.736000 0.077000
v -0.263316 0.736000 0.038500
v -0.263316 0.736000 -0.038500
v -0.330000 0.736000 -0.077000
v -0.396684 0.736000 -0.038500
v -0.396684 0.736000 0.038500
v -0.330000 0.736000 0.077000
v -0.330000 0.660000 0.080000
v -0.260718 0.660000 0.040000
v -0.260718 0.660000 -0.040000
v -0.330000 0.660000 -0.080000
v -0.399282 0.660000 -0.040000
v -0.399282 0.660000 0.040000
v -0.330000 0.660000 0.080000
v -0.330000 1.040000 0.000000
v -0.330000 1.040000 0.065000
v -0.273708 1.040000 0.032500
v -0.273708 1.040000 -0.032500
v -0.330000 1.040000 -0.065000
v -0.386292 1.040000 -0.032500
v -0.386292 1.040000 0.032500
v -0.330000 1.040000 0.065000
v -0.330000 0.660000 0.000000
v -0.330000 0.660000 0.080000
v -0.260718 0.660000 0.040000
v -0.260718 0.660000 -0.040000
v -0.330000 0.660000 -0.080000
v -0.399282 0.660000 -0.040000
v -0.399282 0.660000 0.040000
v -0.330000 0.660000 0.080000
f 96 97 103
f 97 104 103
f 97 98 104
f 98 105 104
f 98 99 105
f 99 106 105
f 99 100 106
f 100 107 106
f 100 101 107
f 101 108 107
f 101 102 108
f 102 109 108
f 103 104 110
f 104 111 110
f 104 105 111
f 105 112 111
f 105 106 112
f 106 113 112
f 106 107 113
f 107 114 113
f 107 108 114
f 108 115 114
f 108 109 115
f 109 116 115
f 110 111 117
f 111 118 117
f 111 112 118
f 112 119 118
f 112 113 119
f 113 120 119
f 113 114 120
f 114 121 120
f 114 115 121
f 115 122 121
f 115 116 122
f 116 123 122
f 117 118 124
f 118 125 124
f 118 119 125
f 119 126 125
f 119 120 126
f 120 127 126
f 120 121 127
f 121 128 127
f 121 122 128
f 122 129 128
f 122 123 129
f 123 130 129
f 124 125 131
f 125 132 131
f 125 126 132
f 126 133 132
f 126 127 133
f 127 134 133
f 127 128 134
f 128 135 134
f 128 129 135
f 129 136 135
f 129 130 136
f 130 137 136
f 138 140 139
f 138 141 140
f 138 142 141
f 138 143 142
f 138 144 143
f 138 145 144
f 146 147 148
f 146 148 149
f 146 149 150
f 146 150 151
f 146 151 152
f 146 152 153

o CactusArmHorizontal_2
v 0.000000 0.840000 0.075000
v 0.000000 0.904952 0.037500
v 0.000000 0.904952 -0.037500
v 0.000000 0.840000 -0.075000
v 0.000000 0.775048 -0.037500
v 0.000000 0.775048 0.037500
v 0.000000 0.840000 0.075000
v 0.068000 0.840000 0.078000
v 0.068000 0.907550 0.039000
v 0.068000 0.907550 -0.039000
v 0.068000 0.840000 -0.078000
v 0.068000 0.772450 -0.039000
v 0.068000 0.772450 0.039000
v 0.068000 0.840000 0.078000
v 0.136000 0.840000 0.081000
v 0.136000 0.910148 0.040500
v 0.136000 0.910148 -0.040500
v 0.136000 0.840000 -0.081000
v 0.136000 0.769852 -0.040500
v 0.136000 0.769852 0.040500
v 0.136000 0.840000 0.081000
v 0.204000 0.840000 0.084000
v 0.204000 0.912746 0.042000
v 0.204000 0.912746 -0.042000
v 0.204000 0.840000 -0.084000
v 0.204000 0.767254 -0.042000
v 0.204000 0.767254 0.042000
v 0.204000 0.840000 0.084000
v 0.272000 0.840000 0.087000
v 0.272000 0.915344 0.043500
v 0.272000 0.915344 -0.043500
v 0.272000 0.840000 -0.087000
v 0.272000 0.764656 -0.043500
v 0.272000 0.764656 0.043500
v 0.272000 0.840000 0.087000
v 0.340000 0.840000 0.090000
v 0.340000 0.917942 0.045000
v 0.340000 0.917942 -0.045000
v 0.340000 0.840000 -0.090000
v 0.340000 0.762058 -0.045000
v 0.340000 0.762058 0.045000
v 0.340000 0.840000 0.090000
v 0.000000 0.840000 0.000000
v 0.000000 0.840000 0.075000
v 0.000000 0.904952 0.037500
v 0.000000 0.904952 -0.037500
v 0.000000 0.840000 -0.075000
v 0.000000 0.775048 -0.037500
v 0.000000 0.775048 0.037500
v 0.000000 0.840000 0.075000
v 0.340000 0.840000 0.000000
v 0.340000 0.840000 0.090000
v 0.340000 0.917942 0.045000
v 0.340000 0.917942 -0.045000
v 0.340000 0.840000 -0.090000
v 0.340000 0.762058 -0.045000
v 0.340000 0.762058 0.045000
v 0.340000 0.840000 0.090000
f 154 155 161
f 155 162 161
f 155 156 162
f 156 163 162
f 156 157 163
f 157 164 163
f 157 158 164
f 158 165 164
f 158 159 165
f 159 166 165
f 159 160 166
f 160 167 166
f 161 162 168
f 162 169 168
f 162 163 169
f 163 170 169
f 163 164 170
f 164 171 170
f 164 165 171
f 165 172 171
f 165 166 172
f 166 173 172
f 166 167 173
f 167 174 173
f 168 169 175
f 169 176 175
f 169 170 176
f 170 177 176
f 170 171 177
f 171 178 177
f 171 172 178
f 172 179 178
f 172 173 179
f 173 180 179
f 173 174 180
f 174 181 180
f 175 176 182
f 176 183 182
f 176 177 183
f 177 184 183
f 177 178 184
f 178 185 184
f 178 179 185
f 179 186 185
f 179 180 186
f 180 187 186
f 180 181 187
f 181 188 187
f 182 183 189
f 183 190 189
f 183 184 190
f 184 191 190
f 184 185 191
f 185 192 191
f 185 186 192
f 186 193 192
f 186 187 193
f 187 194 193
f 187 188 194
f 188 195 194
f 196 198 197
f 196 199 198
f 196 200 199
f 196 201 200
f 196 202 201
f 196 203 202
f 204 205 206
f 204 206 207
f 204 207 208
f 204 208 209
f 204 209 210
f 204 210 211

o CactusArmUpright_2
v 0.330000 1.200000 0.065000
v 0.386292 1.200000 0.032500
v 0.386292 1.200000 -0.032500
v 0.330000 1.200000 -0.065000
v 0.273708 1.200000 -0.032500
v 0.273708 1.200000 0.032500
v 0.330000 1.200000 0.065000
v 0.330000 1.124000 0.068000
v 0.388890 1.124000 0.034000
v 0.388890 1.124000 -0.034000
v 0.330000 1.124000 -0.068000
v 0.271110 1.124000 -0.034000
v 0.271110 1.124000 0.034000
v 0.330000 1.124000 0.068000
v 0.330000 1.048000 0.071000
v 0.391488 1.048000 0.035500
v 0.391488 1.048000 -0.035500
v 0.330000 1.048000 -0.071000
v 0.268512 1.048000 -0.035500
v 0.268512 1.048000 0.035500
v 0.330000 1.048000 0.071000
v 0.330000 0.972000 0.074000
v 0.394086 0.972000 0.037000
v 0.394086 0.972000 -0.037000
v 0.330000 0.972000 -0.074000
v 0.265914 0.972000 -0.037000
v 0.265914 0.972000 0.037000
v 0.330000 0.972000 0.074000
v 0.330000 0.896000 0.077000
v 0.396684 0.896000 0.038500
v 0.396684 0.896000 -0.038500
v 0.330000 0.896000 -0.077000
v 0.263316 0.896000 -0.038500
v 0.263316 0.896000 0.038500
v 0.330000 0.896000 0.077000
v 0.330000 0.820000 0.080000
v 0.399282 0.820000 0.040000
v 0.399282 0.820000 -0.040000
v 0.330000 0.820000 -0.080000
v 0.260718 0.820000 -0.040000
v 0.260718 0.820000 0.040000
v 0.330000 0.820000 0.080000
v 0.330000 1.200000 0.000000
v 0.330000 1.200000 0.065000
v 0.386292 1.200000 0.032500
v 0.386292 1.200000 -0.032500
v 0.330000 1.200000 -0.065000
v 0.273708 1.200000 -0.032500
v 0.273708 1.200000 0.032500
v 0.330000 1.200000 0.065000
v 0.330000 0.820000 0.000000
v 0.330000 0.820000 0.080000
v 0.399282 0.820000 0.040000
v 0.399282 0.820000 -0.040000
v 0.330000 0.820000 -0.080000
v 0.260718 0.820000 -0.040000
v 0.260718 0.820000 0.040000
v 0.330000 0.820000 0.080000
f 212 213 219
f 213 220 219
f 213 214 220
f 214 221 220
f 214 215 221
f 215 222 221
f 215 216 222
f 216 223 222
f 216 217 223
f 217 224 223
f 217 218 224
f 218 225 224
f 219 220 226
f 220 227 226
f 220 221 227
f 221 228 227
f 221 222 228
f 222 229 228
f 222 223 229
f 223 230 229
f 223 224 230
f 224 231 230
f 224 225 231
f 225 232 231
f 226 227 233
f 227 234 233
f 227 228 234
f 228 235 234
f 228 229 235
f 229 236 235
f 229 230 236
f 230 237 236
f 230 231 237
f 231 238 237
f 231 232 238
f 232 239 238
f 233 234 240
f 234 241 240
f 234 235 241
f 235 242 241
f 235 236 242
f 236 243 242
f 236 237 243
f 237 244 243
f 237 238 244
f 238 245 244
f 238 239 245
f 239 246 245
f 240 241 247
f 241 248 247
f 241 242 248
f 242 249 248
f 242 243 249
f 243 250 249
f 243 244 250
f 244 251 250
f 244 245 251
f 245 252 251
f 245 246 252
f 246 253 252
f 254 256 255
f 254 257 256
f 254 258 257
f 254 259 258
f 254 260 259
f 254 261 260
f 262 263 264
f 262 264 265
f 262 265 266
f 262 266 267
f 262 267 268
f 262 268 269
