# Pyramida editable prop source
# units: 1 OBJ unit = 1 Pyramida World Unit = 1 Blender metre

o TreeTrunk
v 0.060915 0.074267 0.097204
v 0.240727 0.020593 -0.015561
v 0.243186 0.043997 -0.040019
v 0.060915 0.074267 0.097204
v 0.243186 0.043997 -0.040019
v 0.071674 0.176661 -0.009800
v 0.043645 0.075529 -0.006358
v 0.060915 0.074267 0.097204
v 0.071674 0.176661 -0.009800
v 0.236780 0.020882 -0.039232
v 0.243186 0.043997 -0.040019
v 0.240727 0.020593 -0.015561
v 0.071674 0.176661 -0.009800
v 0.243186 0.043997 -0.040019
v 0.232832 0.021170 -0.062903
v 0.071674 0.176661 -0.009800
v 0.232832 0.021170 -0.062903
v 0.026374 0.076791 -0.109920
v 0.043645 0.075529 -0.006358
v 0.071674 0.176661 -0.009800
v 0.026374 0.076791 -0.109920
v 0.236780 0.020882 -0.039232
v 0.232832 0.021170 -0.062903
v 0.243186 0.043997 -0.040019
v 0.026374 0.076791 -0.109920
v 0.232832 0.021170 -0.062903
v 0.230373 -0.002234 -0.038445
v 0.026374 0.076791 -0.109920
v 0.230373 -0.002234 -0.038445
v 0.015616 -0.025602 -0.002916
v 0.043645 0.075529 -0.006358
v 0.026374 0.076791 -0.109920
v 0.015616 -0.025602 -0.002916
v 0.236780 0.020882 -0.039232
v 0.230373 -0.002234 -0.038445
v 0.232832 0.021170 -0.062903
v 0.015616 -0.025602 -0.002916
v 0.230373 -0.002234 -0.038445
v 0.240727 0.020593 -0.015561
v 0.015616 -0.025602 -0.002916
v 0.240727 0.020593 -0.015561
v 0.060915 0.074267 0.097204
v 0.043645 0.075529 -0.006358
v 0.015616 -0.025602 -0.002916
v 0.060915 0.074267 0.097204
v 0.236780 0.020882 -0.039232
v 0.240727 0.020593 -0.015561
v 0.230373 -0.002234 -0.038445
v -0.114844 0.073938 -0.004371
v -0.140026 0.013395 0.233235
v -0.121236 0.036631 0.249329
v -0.114844 0.073938 -0.004371
v -0.121236 0.036631 0.249329
v -0.032634 0.175594 0.066039
v -0.020398 0.074235 0.041509
v -0.114844 0.073938 -0.004371
v -0.032634 0.175594 0.066039
v -0.118439 0.013463 0.243722
v -0.121236 0.036631 0.249329
v -0.140026 0.013395 0.233235
v -0.032634 0.175594 0.066039
v -0.121236 0.036631 0.249329
v -0.096851 0.013531 0.254209
v -0.032634 0.175594 0.066039
v -0.096851 0.013531 0.254209
v 0.074047 0.074533 0.087389
v -0.020398 0.074235 0.041509
v -0.032634 0.175594 0.066039
v 0.074047 0.074533 0.087389
v -0.118439 0.013463 0.243722
v -0.096851 0.013531 0.254209
v -0.121236 0.036631 0.249329
v 0.074047 0.074533 0.087389
v -0.096851 0.013531 0.254209
v -0.115642 -0.009705 0.238115
v 0.074047 0.074533 0.087389
v -0.115642 -0.009705 0.238115
v -0.008163 -0.027123 0.016979
v -0.020398 0.074235 0.041509
v 0.074047 0.074533 0.087389
v -0.008163 -0.027123 0.016979
v -0.118439 0.013463 0.243722
v -0.115642 -0.009705 0.238115
v -0.096851 0.013531 0.254209
v -0.008163 -0.027123 0.016979
v -0.115642 -0.009705 0.238115
v -0.140026 0.013395 0.233235
v -0.008163 -0.027123 0.016979
v -0.140026 0.013395 0.233235
v -0.114844 0.073938 -0.004371
v -0.020398 0.074235 0.041509
v -0.008163 -0.027123 0.016979
v -0.114844 0.073938 -0.004371
v -0.118439 0.013463 0.243722
v -0.140026 0.013395 0.233235
v -0.115642 -0.009705 0.238115
v 0.069710 0.076928 -0.088868
v -0.123869 0.020590 -0.275400
v -0.147651 0.043685 -0.268117
v 0.069710 0.076928 -0.088868
v -0.147651 0.043685 -0.268117
v -0.034335 0.177969 -0.057005
v -0.022365 0.075322 -0.038425
v 0.069710 0.076928 -0.088868
v -0.034335 0.177969 -0.057005
v -0.144915 0.020222 -0.263870
v -0.147651 0.043685 -0.268117
v -0.123869 0.020590 -0.275400
v -0.034335 0.177969 -0.057005
v -0.147651 0.043685 -0.268117
v -0.165961 0.019855 -0.252340
v -0.034335 0.177969 -0.057005
v -0.165961 0.019855 -0.252340
v -0.114440 0.073715 0.012019
v -0.022365 0.075322 -0.038425
v -0.034335 0.177969 -0.057005
v -0.114440 0.073715 0.012019
v -0.144915 0.020222 -0.263870
v -0.165961 0.019855 -0.252340
v -0.147651 0.043685 -0.268117
v -0.114440 0.073715 0.012019
v -0.165961 0.019855 -0.252340
v -0.142179 -0.003240 -0.259623
v -0.114440 0.073715 0.012019
v -0.142179 -0.003240 -0.259623
v -0.010395 -0.027326 -0.019844
v -0.022365 0.075322 -0.038425
v -0.114440 0.073715 0.012019
v -0.010395 -0.027326 -0.019844
v -0.144915 0.020222 -0.263870
v -0.142179 -0.003240 -0.259623
v -0.165961 0.019855 -0.252340
v -0.010395 -0.027326 -0.019844
v -0.142179 -0.003240 -0.259623
v -0.123869 0.020590 -0.275400
v -0.010395 -0.027326 -0.019844
v -0.123869 0.020590 -0.275400
v 0.069710 0.076928 -0.088868
v -0.022365 0.075322 -0.038425
v -0.010395 -0.027326 -0.019844
v 0.069710 0.076928 -0.088868
v -0.144915 0.020222 -0.263870
v -0.123869 0.020590 -0.275400
v -0.142179 -0.003240 -0.259623
v -0.000087 0.010983 -0.159623
v 0.018155 1.008411 -0.062603
v 0.132198 1.001827 0.002871
v -0.000087 0.010983 -0.159623
v 0.132198 1.001827 0.002871
v 0.138498 0.002982 -0.080059
v 0.000000 0.000000 0.000000
v -0.000087 0.010983 -0.159623
v 0.138498 0.002982 -0.080059
v 0.018226 0.999373 0.068753
v 0.132198 1.001827 0.002871
v 0.018155 1.008411 -0.062603
v 0.138498 0.002982 -0.080059
v 0.132198 1.001827 0.002871
v 0.132270 0.992789 0.134227
v 0.138498 0.002982 -0.080059
v 0.132270 0.992789 0.134227
v 0.138584 -0.008001 0.079563
v 0.000000 0.000000 0.000000
v 0.138498 0.002982 -0.080059
v 0.138584 -0.008001 0.079563
v 0.018226 0.999373 0.068753
v 0.132270 0.992789 0.134227
v 0.132198 1.001827 0.002871
v 0.138584 -0.008001 0.079563
v 0.132270 0.992789 0.134227
v 0.018297 0.990335 0.200109
v 0.138584 -0.008001 0.079563
v 0.018297 0.990335 0.200109
v 0.000087 -0.010983 0.159623
v 0.000000 0.000000 0.000000
v 0.138584 -0.008001 0.079563
v 0.000087 -0.010983 0.159623
v 0.018226 0.999373 0.068753
v 0.018297 0.990335 0.200109
v 0.132270 0.992789 0.134227
v 0.000087 -0.010983 0.159623
v 0.018297 0.990335 0.200109
v -0.095746 0.996919 0.134635
v 0.000087 -0.010983 0.159623
v -0.095746 0.996919 0.134635
v -0.138498 -0.002982 0.080059
v 0.000000 0.000000 0.000000
v 0.000087 -0.010983 0.159623
v -0.138498 -0.002982 0.080059
v 0.018226 0.999373 0.068753
v -0.095746 0.996919 0.134635
v 0.018297 0.990335 0.200109
v -0.138498 -0.002982 0.080059
v -0.095746 0.996919 0.134635
v -0.095817 1.005957 0.003279
v -0.138498 -0.002982 0.080059
v -0.095817 1.005957 0.003279
v -0.138584 0.008001 -0.079563
v 0.000000 0.000000 0.000000
v -0.138498 -0.002982 0.080059
v -0.138584 0.008001 -0.079563
v 0.018226 0.999373 0.068753
v -0.095817 1.005957 0.003279
v -0.095746 0.996919 0.134635
v -0.138584 0.008001 -0.079563
v -0.095817 1.005957 0.003279
v 0.018155 1.008411 -0.062603
v -0.138584 0.008001 -0.079563
v 0.018155 1.008411 -0.062603
v -0.000087 0.010983 -0.159623
v 0.000000 0.000000 0.000000
v -0.138584 0.008001 -0.079563
v -0.000087 0.010983 -0.159623
v 0.018226 0.999373 0.068753
v 0.018155 1.008411 -0.062603
v -0.095817 1.005957 0.003279
v -0.029101 0.534254 -0.019657
v -0.374610 0.746577 0.268041
v -0.348057 0.772388 0.284851
v -0.029101 0.534254 -0.019657
v -0.348057 0.772388 0.284851
v 0.034121 0.595707 0.020366
v 0.009736 0.533857 0.036727
v -0.029101 0.534254 -0.019657
v 0.034121 0.595707 0.020366
v -0.358299 0.746411 0.291722
v -0.348057 0.772388 0.284851
v -0.374610 0.746577 0.268041
v 0.034121 0.595707 0.020366
v -0.348057 0.772388 0.284851
v -0.341987 0.746244 0.315404
v 0.034121 0.595707 0.020366
v -0.341987 0.746244 0.315404
v 0.048573 0.533461 0.093112
v 0.009736 0.533857 0.036727
v 0.034121 0.595707 0.020366
v 0.048573 0.533461 0.093112
v -0.358299 0.746411 0.291722
v -0.341987 0.746244 0.315404
v -0.348057 0.772388 0.284851
v 0.048573 0.533461 0.093112
v -0.341987 0.746244 0.315404
v -0.368540 0.720434 0.298594
v 0.048573 0.533461 0.093112
v -0.368540 0.720434 0.298594
v -0.014648 0.472007 0.053088
v 0.009736 0.533857 0.036727
v 0.048573 0.533461 0.093112
v -0.014648 0.472007 0.053088
v -0.358299 0.746411 0.291722
v -0.368540 0.720434 0.298594
v -0.341987 0.746244 0.315404
v -0.014648 0.472007 0.053088
v -0.368540 0.720434 0.298594
v -0.374610 0.746577 0.268041
v -0.014648 0.472007 0.053088
v -0.374610 0.746577 0.268041
v -0.029101 0.534254 -0.019657
v 0.009736 0.533857 0.036727
v -0.014648 0.472007 0.053088
v -0.029101 0.534254 -0.019657
v -0.358299 0.746411 0.291722
v -0.374610 0.746577 0.268041
v -0.368540 0.720434 0.298594
v -0.309257 0.699993 0.230439
v -0.319204 0.781785 0.400565
v -0.309690 0.789953 0.398385
v -0.309257 0.699993 0.230439
v -0.309690 0.789953 0.398385
v -0.275961 0.728576 0.222808
v -0.278315 0.700217 0.236305
v -0.309257 0.699993 0.230439
v -0.275961 0.728576 0.222808
v -0.310362 0.781849 0.402242
v -0.309690 0.789953 0.398385
v -0.319204 0.781785 0.400565
v -0.275961 0.728576 0.222808
v -0.309690 0.789953 0.398385
v -0.301520 0.781913 0.403918
v -0.275961 0.728576 0.222808
v -0.301520 0.781913 0.403918
v -0.247372 0.700441 0.242170
v -0.278315 0.700217 0.236305
v -0.275961 0.728576 0.222808
v -0.247372 0.700441 0.242170
v -0.310362 0.781849 0.402242
v -0.301520 0.781913 0.403918
v -0.309690 0.789953 0.398385
v -0.247372 0.700441 0.242170
v -0.301520 0.781913 0.403918
v -0.311034 0.773745 0.406098
v -0.247372 0.700441 0.242170
v -0.311034 0.773745 0.406098
v -0.280668 0.671858 0.249801
v -0.278315 0.700217 0.236305
v -0.247372 0.700441 0.242170
v -0.280668 0.671858 0.249801
v -0.310362 0.781849 0.402242
v -0.311034 0.773745 0.406098
v -0.301520 0.781913 0.403918
v -0.280668 0.671858 0.249801
v -0.311034 0.773745 0.406098
v -0.319204 0.781785 0.400565
v -0.280668 0.671858 0.249801
v -0.319204 0.781785 0.400565
v -0.309257 0.699993 0.230439
v -0.278315 0.700217 0.236305
v -0.280668 0.671858 0.249801
v -0.309257 0.699993 0.230439
v -0.310362 0.781849 0.402242
v -0.319204 0.781785 0.400565
v -0.311034 0.773745 0.406098
v -0.194773 0.638428 0.141192
v -0.310619 0.740351 0.305729
v -0.301164 0.748353 0.308660
v -0.194773 0.638428 0.141192
v -0.301164 0.748353 0.308660
v -0.161688 0.666428 0.151447
v -0.171229 0.638371 0.162110
v -0.194773 0.638428 0.141192
v -0.161688 0.666428 0.151447
v -0.303890 0.740335 0.311707
v -0.301164 0.748353 0.308660
v -0.310619 0.740351 0.305729
v -0.161688 0.666428 0.151447
v -0.301164 0.748353 0.308660
v -0.297162 0.740319 0.317684
v -0.161688 0.666428 0.151447
v -0.297162 0.740319 0.317684
v -0.147684 0.638314 0.183028
v -0.171229 0.638371 0.162110
v -0.161688 0.666428 0.151447
v -0.147684 0.638314 0.183028
v -0.303890 0.740335 0.311707
v -0.297162 0.740319 0.317684
v -0.301164 0.748353 0.308660
v -0.147684 0.638314 0.183028
v -0.297162 0.740319 0.317684
v -0.306617 0.732317 0.314754
v -0.147684 0.638314 0.183028
v -0.306617 0.732317 0.314754
v -0.180770 0.610314 0.172772
v -0.171229 0.638371 0.162110
v -0.147684 0.638314 0.183028
v -0.180770 0.610314 0.172772
v -0.303890 0.740335 0.311707
v -0.306617 0.732317 0.314754
v -0.297162 0.740319 0.317684
v -0.180770 0.610314 0.172772
v -0.306617 0.732317 0.314754
v -0.310619 0.740351 0.305729
v -0.180770 0.610314 0.172772
v -0.310619 0.740351 0.305729
v -0.194773 0.638428 0.141192
v -0.171229 0.638371 0.162110
v -0.180770 0.610314 0.172772
v -0.194773 0.638428 0.141192
v -0.303890 0.740335 0.311707
v -0.310619 0.740351 0.305729
v -0.306617 0.732317 0.314754
v -0.213478 0.657626 0.154786
v -0.426043 0.780698 0.246692
v -0.419262 0.788541 0.254076
v -0.213478 0.657626 0.154786
v -0.419262 0.788541 0.254076
v -0.189749 0.685069 0.180625
v -0.204010 0.657304 0.184823
v -0.213478 0.657626 0.154786
v -0.189749 0.685069 0.180625
v -0.423337 0.780606 0.255275
v -0.419262 0.788541 0.254076
v -0.426043 0.780698 0.246692
v -0.189749 0.685069 0.180625
v -0.419262 0.788541 0.254076
v -0.420632 0.780514 0.263858
v -0.189749 0.685069 0.180625
v -0.420632 0.780514 0.263858
v -0.194543 0.656982 0.214859
v -0.204010 0.657304 0.184823
v -0.189749 0.685069 0.180625
v -0.194543 0.656982 0.214859
v -0.423337 0.780606 0.255275
v -0.420632 0.780514 0.263858
v -0.419262 0.788541 0.254076
v -0.194543 0.656982 0.214859
v -0.420632 0.780514 0.263858
v -0.427413 0.772672 0.256475
v -0.194543 0.656982 0.214859
v -0.427413 0.772672 0.256475
v -0.218272 0.629538 0.189020
v -0.204010 0.657304 0.184823
v -0.194543 0.656982 0.214859
v -0.218272 0.629538 0.189020
v -0.423337 0.780606 0.255275
v -0.427413 0.772672 0.256475
v -0.420632 0.780514 0.263858
v -0.218272 0.629538 0.189020
v -0.427413 0.772672 0.256475
v -0.426043 0.780698 0.246692
v -0.218272 0.629538 0.189020
v -0.426043 0.780698 0.246692
v -0.213478 0.657626 0.154786
v -0.204010 0.657304 0.184823
v -0.218272 0.629538 0.189020
v -0.213478 0.657626 0.154786
v -0.423337 0.780606 0.255275
v -0.426043 0.780698 0.246692
v -0.427413 0.772672 0.256475
v 0.064012 0.642741 -0.000018
v -0.288745 0.901318 -0.349724
v -0.302426 0.926312 -0.320708
v 0.064012 0.642741 -0.000018
v -0.302426 0.926312 -0.320708
v 0.031438 0.702250 0.069068
v 0.011701 0.641614 0.044141
v 0.064012 0.642741 -0.000018
v 0.031438 0.702250 0.069068
v -0.310716 0.900845 -0.331177
v -0.302426 0.926312 -0.320708
v -0.288745 0.901318 -0.349724
v 0.031438 0.702250 0.069068
v -0.302426 0.926312 -0.320708
v -0.332686 0.900371 -0.312630
v 0.031438 0.702250 0.069068
v -0.332686 0.900371 -0.312630
v -0.040609 0.640487 0.088300
v 0.011701 0.641614 0.044141
v 0.031438 0.702250 0.069068
v -0.040609 0.640487 0.088300
v -0.310716 0.900845 -0.331177
v -0.332686 0.900371 -0.312630
v -0.302426 0.926312 -0.320708
v -0.040609 0.640487 0.088300
v -0.332686 0.900371 -0.312630
v -0.319005 0.875377 -0.341646
v -0.040609 0.640487 0.088300
v -0.319005 0.875377 -0.341646
v -0.008035 0.580977 0.019214
v 0.011701 0.641614 0.044141
v -0.040609 0.640487 0.088300
v -0.008035 0.580977 0.019214
v -0.310716 0.900845 -0.331177
v -0.319005 0.875377 -0.341646
v -0.332686 0.900371 -0.312630
v -0.008035 0.580977 0.019214
v -0.319005 0.875377 -0.341646
v -0.288745 0.901318 -0.349724
v -0.008035 0.580977 0.019214
v -0.288745 0.901318 -0.349724
v 0.064012 0.642741 -0.000018
v 0.011701 0.641614 0.044141
v -0.008035 0.580977 0.019214
v 0.064012 0.642741 -0.000018
v -0.310716 0.900845 -0.331177
v -0.288745 0.901318 -0.349724
v -0.319005 0.875377 -0.341646
v -0.173066 0.815508 -0.202999
v -0.178444 0.874774 -0.333174
v -0.187937 0.882868 -0.330652
v -0.173066 0.815508 -0.202999
v -0.187937 0.882868 -0.330652
v -0.206288 0.843833 -0.194174
v -0.204270 0.815259 -0.207266
v -0.173066 0.815508 -0.202999
v -0.206288 0.843833 -0.194174
v -0.187361 0.874703 -0.334394
v -0.187937 0.882868 -0.330652
v -0.178444 0.874774 -0.333174
v -0.206288 0.843833 -0.194174
v -0.187937 0.882868 -0.330652
v -0.196277 0.874632 -0.335613
v -0.206288 0.843833 -0.194174
v -0.196277 0.874632 -0.335613
v -0.235473 0.815011 -0.211533
v -0.204270 0.815259 -0.207266
v -0.206288 0.843833 -0.194174
v -0.235473 0.815011 -0.211533
v -0.187361 0.874703 -0.334394
v -0.196277 0.874632 -0.335613
v -0.187937 0.882868 -0.330652
v -0.235473 0.815011 -0.211533
v -0.196277 0.874632 -0.335613
v -0.186784 0.866538 -0.338135
v -0.235473 0.815011 -0.211533
v -0.186784 0.866538 -0.338135
v -0.202252 0.786686 -0.220358
v -0.204270 0.815259 -0.207266
v -0.235473 0.815011 -0.211533
v -0.202252 0.786686 -0.220358
v -0.187361 0.874703 -0.334394
v -0.186784 0.866538 -0.338135
v -0.196277 0.874632 -0.335613
v -0.202252 0.786686 -0.220358
v -0.186784 0.866538 -0.338135
v -0.178444 0.874774 -0.333174
v -0.202252 0.786686 -0.220358
v -0.178444 0.874774 -0.333174
v -0.173066 0.815508 -0.202999
v -0.204270 0.815259 -0.207266
v -0.202252 0.786686 -0.220358
v -0.173066 0.815508 -0.202999
v -0.187361 0.874703 -0.334394
v -0.178444 0.874774 -0.333174
v -0.186784 0.866538 -0.338135
v -0.234705 0.838768 -0.272141
v -0.393607 0.915371 -0.239916
v -0.389225 0.923367 -0.231035
v -0.234705 0.838768 -0.272141
v -0.389225 0.923367 -0.231035
v -0.219372 0.866747 -0.241062
v -0.232988 0.838350 -0.240696
v -0.234705 0.838768 -0.272141
v -0.219372 0.866747 -0.241062
v -0.393116 0.915252 -0.230930
v -0.389225 0.923367 -0.231035
v -0.393607 0.915371 -0.239916
v -0.219372 0.866747 -0.241062
v -0.389225 0.923367 -0.231035
v -0.392626 0.915133 -0.221945
v -0.219372 0.866747 -0.241062
v -0.392626 0.915133 -0.221945
v -0.231271 0.837932 -0.209251
v -0.232988 0.838350 -0.240696
v -0.219372 0.866747 -0.241062
v -0.231271 0.837932 -0.209251
v -0.393116 0.915252 -0.230930
v -0.392626 0.915133 -0.221945
v -0.389225 0.923367 -0.231035
v -0.231271 0.837932 -0.209251
v -0.392626 0.915133 -0.221945
v -0.397007 0.907137 -0.230826
v -0.231271 0.837932 -0.209251
v -0.397007 0.907137 -0.230826
v -0.246603 0.809953 -0.240330
v -0.232988 0.838350 -0.240696
v -0.231271 0.837932 -0.209251
v -0.246603 0.809953 -0.240330
v -0.393116 0.915252 -0.230930
v -0.397007 0.907137 -0.230826
v -0.392626 0.915133 -0.221945
v -0.246603 0.809953 -0.240330
v -0.397007 0.907137 -0.230826
v -0.393607 0.915371 -0.239916
v -0.246603 0.809953 -0.240330
v -0.393607 0.915371 -0.239916
v -0.234705 0.838768 -0.272141
v -0.232988 0.838350 -0.240696
v -0.246603 0.809953 -0.240330
v -0.234705 0.838768 -0.272141
v -0.393116 0.915252 -0.230930
v -0.393607 0.915371 -0.239916
v -0.397007 0.907137 -0.230826
v 0.062742 0.749194 0.099295
v 0.261225 0.889446 -0.161165
v 0.232724 0.915927 -0.173009
v 0.062742 0.749194 0.099295
v 0.232724 0.915927 -0.173009
v -0.005118 0.812243 0.071095
v 0.013667 0.749370 0.051554
v 0.062742 0.749194 0.099295
v -0.005118 0.812243 0.071095
v 0.240613 0.889520 -0.181216
v 0.232724 0.915927 -0.173009
v 0.261225 0.889446 -0.161165
v -0.005118 0.812243 0.071095
v 0.232724 0.915927 -0.173009
v 0.220001 0.889594 -0.201268
v -0.005118 0.812243 0.071095
v 0.220001 0.889594 -0.201268
v -0.035409 0.749546 0.003812
v 0.013667 0.749370 0.051554
v -0.005118 0.812243 0.071095
v -0.035409 0.749546 0.003812
v 0.240613 0.889520 -0.181216
v 0.220001 0.889594 -0.201268
v 0.232724 0.915927 -0.173009
v -0.035409 0.749546 0.003812
v 0.220001 0.889594 -0.201268
v 0.248502 0.863114 -0.189424
v -0.035409 0.749546 0.003812
v 0.248502 0.863114 -0.189424
v 0.032451 0.686497 0.032013
v 0.013667 0.749370 0.051554
v -0.035409 0.749546 0.003812
v 0.032451 0.686497 0.032013
v 0.240613 0.889520 -0.181216
v 0.248502 0.863114 -0.189424
v 0.220001 0.889594 -0.201268
v 0.032451 0.686497 0.032013
v 0.248502 0.863114 -0.189424
v 0.261225 0.889446 -0.161165
v 0.032451 0.686497 0.032013
v 0.261225 0.889446 -0.161165
v 0.062742 0.749194 0.099295
v 0.013667 0.749370 0.051554
v 0.032451 0.686497 0.032013
v 0.062742 0.749194 0.099295
v 0.240613 0.889520 -0.181216
v 0.261225 0.889446 -0.161165
v 0.248502 0.863114 -0.189424
v 0.159019 0.827276 -0.052940
v 0.320512 0.951744 -0.201818
v 0.311568 0.959613 -0.206301
v 0.159019 0.827276 -0.052940
v 0.311568 0.959613 -0.206301
v 0.127721 0.854811 -0.068629
v 0.140082 0.827438 -0.078106
v 0.159019 0.827276 -0.052940
v 0.127721 0.854811 -0.068629
v 0.315101 0.951791 -0.209009
v 0.311568 0.959613 -0.206301
v 0.320512 0.951744 -0.201818
v 0.127721 0.854811 -0.068629
v 0.311568 0.959613 -0.206301
v 0.309689 0.951837 -0.216200
v 0.127721 0.854811 -0.068629
v 0.309689 0.951837 -0.216200
v 0.121145 0.827599 -0.103271
v 0.140082 0.827438 -0.078106
v 0.127721 0.854811 -0.068629
v 0.121145 0.827599 -0.103271
v 0.315101 0.951791 -0.209009
v 0.309689 0.951837 -0.216200
v 0.311568 0.959613 -0.206301
v 0.121145 0.827599 -0.103271
v 0.309689 0.951837 -0.216200
v 0.318633 0.943968 -0.211717
v 0.121145 0.827599 -0.103271
v 0.318633 0.943968 -0.211717
v 0.152443 0.800064 -0.087583
v 0.140082 0.827438 -0.078106
v 0.121145 0.827599 -0.103271
v 0.152443 0.800064 -0.087583
v 0.315101 0.951791 -0.209009
v 0.318633 0.943968 -0.211717
v 0.309689 0.951837 -0.216200
v 0.152443 0.800064 -0.087583
v 0.318633 0.943968 -0.211717
v 0.320512 0.951744 -0.201818
v 0.152443 0.800064 -0.087583
v 0.320512 0.951744 -0.201818
v 0.159019 0.827276 -0.052940
v 0.140082 0.827438 -0.078106
v 0.152443 0.800064 -0.087583
v 0.159019 0.827276 -0.052940
v 0.315101 0.951791 -0.209009
v 0.320512 0.951744 -0.201818
v 0.318633 0.943968 -0.211717
v 0.163629 0.839521 -0.067524
v 0.281053 0.893048 -0.101957
v 0.276492 0.901393 -0.110417
v 0.163629 0.839521 -0.067524
v 0.276492 0.901393 -0.110417
v 0.147669 0.868723 -0.097127
v 0.160297 0.839921 -0.098839
v 0.163629 0.839521 -0.067524
v 0.147669 0.868723 -0.097127
v 0.280101 0.893163 -0.110906
v 0.276492 0.901393 -0.110417
v 0.281053 0.893048 -0.101957
v 0.147669 0.868723 -0.097127
v 0.276492 0.901393 -0.110417
v 0.279149 0.893277 -0.119855
v 0.147669 0.868723 -0.097127
v 0.279149 0.893277 -0.119855
v 0.156965 0.840321 -0.130154
v 0.160297 0.839921 -0.098839
v 0.147669 0.868723 -0.097127
v 0.156965 0.840321 -0.130154
v 0.280101 0.893163 -0.110906
v 0.279149 0.893277 -0.119855
v 0.276492 0.901393 -0.110417
v 0.156965 0.840321 -0.130154
v 0.279149 0.893277 -0.119855
v 0.283709 0.884932 -0.111395
v 0.156965 0.840321 -0.130154
v 0.283709 0.884932 -0.111395
v 0.172924 0.811119 -0.100551
v 0.160297 0.839921 -0.098839
v 0.156965 0.840321 -0.130154
v 0.172924 0.811119 -0.100551
v 0.280101 0.893163 -0.110906
v 0.283709 0.884932 -0.111395
v 0.279149 0.893277 -0.119855
v 0.172924 0.811119 -0.100551
v 0.283709 0.884932 -0.111395
v 0.281053 0.893048 -0.101957
v 0.172924 0.811119 -0.100551
v 0.281053 0.893048 -0.101957
v 0.163629 0.839521 -0.067524
v 0.160297 0.839921 -0.098839
v 0.172924 0.811119 -0.100551
v 0.163629 0.839521 -0.067524
v 0.280101 0.893163 -0.110906
v 0.281053 0.893048 -0.101957
v 0.283709 0.884932 -0.111395
f 1 2 3
f 4 5 6
f 7 8 9
f 10 11 12
f 13 14 15
f 16 17 18
f 19 20 21
f 22 23 24
f 25 26 27
f 28 29 30
f 31 32 33
f 34 35 36
f 37 38 39
f 40 41 42
f 43 44 45
f 46 47 48
f 49 50 51
f 52 53 54
f 55 56 57
f 58 59 60
f 61 62 63
f 64 65 66
f 67 68 69
f 70 71 72
f 73 74 75
f 76 77 78
f 79 80 81
f 82 83 84
f 85 86 87
f 88 89 90
f 91 92 93
f 94 95 96
f 97 98 99
f 100 101 102
f 103 104 105
f 106 107 108
f 109 110 111
f 112 113 114
f 115 116 117
f 118 119 120
f 121 122 123
f 124 125 126
f 127 128 129
f 130 131 132
f 133 134 135
f 136 137 138
f 139 140 141
f 142 143 144
f 145 146 147
f 148 149 150
f 151 152 153
f 154 155 156
f 157 158 159
f 160 161 162
f 163 164 165
f 166 167 168
f 169 170 171
f 172 173 174
f 175 176 177
f 178 179 180
f 181 182 183
f 184 185 186
f 187 188 189
f 190 191 192
f 193 194 195
f 196 197 198
f 199 200 201
f 202 203 204
f 205 206 207
f 208 209 210
f 211 212 213
f 214 215 216
f 217 218 219
f 220 221 222
f 223 224 225
f 226 227 228
f 229 230 231
f 232 233 234
f 235 236 237
f 238 239 240
f 241 242 243
f 244 245 246
f 247 248 249
f 250 251 252
f 253 254 255
f 256 257 258
f 259 260 261
f 262 263 264
f 265 266 267
f 268 269 270
f 271 272 273
f 274 275 276
f 277 278 279
f 280 281 282
f 283 284 285
f 286 287 288
f 289 290 291
f 292 293 294
f 295 296 297
f 298 299 300
f 301 302 303
f 304 305 306
f 307 308 309
f 310 311 312
f 313 314 315
f 316 317 318
f 319 320 321
f 322 323 324
f 325 326 327
f 328 329 330
f 331 332 333
f 334 335 336
f 337 338 339
f 340 341 342
f 343 344 345
f 346 347 348
f 349 350 351
f 352 353 354
f 355 356 357
f 358 359 360
f 361 362 363
f 364 365 366
f 367 368 369
f 370 371 372
f 373 374 375
f 376 377 378
f 379 380 381
f 382 383 384
f 385 386 387
f 388 389 390
f 391 392 393
f 394 395 396
f 397 398 399
f 400 401 402
f 403 404 405
f 406 407 408
f 409 410 411
f 412 413 414
f 415 416 417
f 418 419 420
f 421 422 423
f 424 425 426
f 427 428 429
f 430 431 432
f 433 434 435
f 436 437 438
f 439 440 441
f 442 443 444
f 445 446 447
f 448 449 450
f 451 452 453
f 454 455 456
f 457 458 459
f 460 461 462
f 463 464 465
f 466 467 468
f 469 470 471
f 472 473 474
f 475 476 477
f 478 479 480
f 481 482 483
f 484 485 486
f 487 488 489
f 490 491 492
f 493 494 495
f 496 497 498
f 499 500 501
f 502 503 504
f 505 506 507
f 508 509 510
f 511 512 513
f 514 515 516
f 517 518 519
f 520 521 522
f 523 524 525
f 526 527 528
f 529 530 531
f 532 533 534
f 535 536 537
f 538 539 540
f 541 542 543
f 544 545 546
f 547 548 549
f 550 551 552
f 553 554 555
f 556 557 558
f 559 560 561
f 562 563 564
f 565 566 567
f 568 569 570
f 571 572 573
f 574 575 576
f 577 578 579
f 580 581 582
f 583 584 585
f 586 587 588
f 589 590 591
f 592 593 594
f 595 596 597
f 598 599 600
f 601 602 603
f 604 605 606
f 607 608 609
f 610 611 612
f 613 614 615
f 616 617 618
f 619 620 621
f 622 623 624
f 625 626 627
f 628 629 630
f 631 632 633
f 634 635 636
f 637 638 639
f 640 641 642
f 643 644 645
f 646 647 648
f 649 650 651
f 652 653 654
f 655 656 657
f 658 659 660
f 661 662 663
f 664 665 666
f 667 668 669
f 670 671 672
f 673 674 675
f 676 677 678
f 679 680 681
f 682 683 684
f 685 686 687
f 688 689 690
f 691 692 693
f 694 695 696
