# Pyramida editable prop source
# units: 1 OBJ unit = 1 Pyramida World Unit = 1 Blender metre

o TreeTrunk
v 0.061556 0.074391 0.096705
v 0.238128 0.020873 -0.016977
v 0.240448 0.044247 -0.041478
v 0.061556 0.074391 0.096705
v 0.240448 0.044247 -0.041478
v 0.071707 0.176653 -0.010484
v 0.043495 0.075585 -0.006723
v 0.061556 0.074391 0.096705
v 0.071707 0.176653 -0.010484
v 0.234000 0.021146 -0.040618
v 0.240448 0.044247 -0.041478
v 0.238128 0.020873 -0.016977
v 0.071707 0.176653 -0.010484
v 0.240448 0.044247 -0.041478
v 0.229872 0.021419 -0.064259
v 0.071707 0.176653 -0.010484
v 0.229872 0.021419 -0.064259
v 0.025434 0.076778 -0.110151
v 0.043495 0.075585 -0.006723
v 0.071707 0.176653 -0.010484
v 0.025434 0.076778 -0.110151
v 0.234000 0.021146 -0.040618
v 0.229872 0.021419 -0.064259
v 0.240448 0.044247 -0.041478
v 0.025434 0.076778 -0.110151
v 0.229872 0.021419 -0.064259
v 0.227551 -0.001955 -0.039758
v 0.025434 0.076778 -0.110151
v 0.227551 -0.001955 -0.039758
v 0.015282 -0.025484 -0.002963
v 0.043495 0.075585 -0.006723
v 0.025434 0.076778 -0.110151
v 0.015282 -0.025484 -0.002963
v 0.234000 0.021146 -0.040618
v 0.227551 -0.001955 -0.039758
v 0.229872 0.021419 -0.064259
v 0.015282 -0.025484 -0.002963
v 0.227551 -0.001955 -0.039758
v 0.238128 0.020873 -0.016977
v 0.015282 -0.025484 -0.002963
v 0.238128 0.020873 -0.016977
v 0.061556 0.074391 0.096705
v 0.043495 0.075585 -0.006723
v 0.015282 -0.025484 -0.002963
v 0.061556 0.074391 0.096705
v 0.234000 0.021146 -0.040618
v 0.238128 0.020873 -0.016977
v 0.227551 -0.001955 -0.039758
v -0.114972 0.073783 -0.003527
v -0.137195 0.013354 0.232049
v -0.118339 0.036606 0.248044
v -0.114972 0.073783 -0.003527
v -0.118339 0.036606 0.248044
v -0.032478 0.175507 0.066451
v -0.020180 0.074227 0.041631
v -0.114972 0.073783 -0.003527
v -0.032478 0.175507 0.066451
v -0.115528 0.013456 0.242371
v -0.118339 0.036606 0.248044
v -0.137195 0.013354 0.232049
v -0.032478 0.175507 0.066451
v -0.118339 0.036606 0.248044
v -0.093861 0.013557 0.252693
v -0.032478 0.175507 0.066451
v -0.093861 0.013557 0.252693
v 0.074612 0.074670 0.086790
v -0.020180 0.074227 0.041631
v -0.032478 0.175507 0.066451
v 0.074612 0.074670 0.086790
v -0.115528 0.013456 0.242371
v -0.093861 0.013557 0.252693
v -0.118339 0.036606 0.248044
v 0.074612 0.074670 0.086790
v -0.093861 0.013557 0.252693
v -0.112717 -0.009694 0.236698
v 0.074612 0.074670 0.086790
v -0.112717 -0.009694 0.236698
v -0.007882 -0.027054 0.016811
v -0.020180 0.074227 0.041631
v 0.074612 0.074670 0.086790
v -0.007882 -0.027054 0.016811
v -0.115528 0.013456 0.242371
v -0.112717 -0.009694 0.236698
v -0.093861 0.013557 0.252693
v -0.007882 -0.027054 0.016811
v -0.112717 -0.009694 0.236698
v -0.137195 0.013354 0.232049
v -0.007882 -0.027054 0.016811
v -0.137195 0.013354 0.232049
v -0.114972 0.073783 -0.003527
v -0.020180 0.074227 0.041631
v -0.007882 -0.027054 0.016811
v -0.114972 0.073783 -0.003527
v -0.115528 0.013456 0.242371
v -0.137195 0.013354 0.232049
v -0.112717 -0.009694 0.236698
v 0.068928 0.076981 -0.089431
v -0.124782 0.020287 -0.272288
v -0.148562 0.043343 -0.264877
v 0.068928 0.076981 -0.089431
v -0.148562 0.043343 -0.264877
v -0.035109 0.177852 -0.057005
v -0.022758 0.075275 -0.038286
v 0.068928 0.076981 -0.089431
v -0.035109 0.177852 -0.057005
v -0.145739 0.019897 -0.260598
v -0.148562 0.043343 -0.264877
v -0.124782 0.020287 -0.272288
v -0.035109 0.177852 -0.057005
v -0.148562 0.043343 -0.264877
v -0.166695 0.019507 -0.248908
v -0.035109 0.177852 -0.057005
v -0.166695 0.019507 -0.248908
v -0.114444 0.073569 0.012859
v -0.022758 0.075275 -0.038286
v -0.035109 0.177852 -0.057005
v -0.114444 0.073569 0.012859
v -0.145739 0.019897 -0.260598
v -0.166695 0.019507 -0.248908
v -0.148562 0.043343 -0.264877
v -0.114444 0.073569 0.012859
v -0.166695 0.019507 -0.248908
v -0.142916 -0.003549 -0.256319
v -0.114444 0.073569 0.012859
v -0.142916 -0.003549 -0.256319
v -0.010407 -0.027302 -0.019566
v -0.022758 0.075275 -0.038286
v -0.114444 0.073569 0.012859
v -0.010407 -0.027302 -0.019566
v -0.145739 0.019897 -0.260598
v -0.142916 -0.003549 -0.256319
v -0.166695 0.019507 -0.248908
v -0.010407 -0.027302 -0.019566
v -0.142916 -0.003549 -0.256319
v -0.124782 0.020287 -0.272288
v -0.010407 -0.027302 -0.019566
v -0.124782 0.020287 -0.272288
v 0.068928 0.076981 -0.089431
v -0.022758 0.075275 -0.038286
v -0.010407 -0.027302 -0.019566
v 0.068928 0.076981 -0.089431
v -0.145739 0.019897 -0.260598
v -0.124782 0.020287 -0.272288
v -0.142916 -0.003549 -0.256319
v -0.000093 0.010530 -0.159653
v 0.014439 1.008091 -0.065470
v 0.128492 1.002114 0.000046
v -0.000093 0.010530 -0.159653
v 0.128492 1.002114 0.000046
v 0.138503 0.003267 -0.080039
v 0.000000 0.000000 0.000000
v -0.000093 0.010530 -0.159653
v 0.138503 0.003267 -0.080039
v 0.138503 0.003267 -0.080039
v 0.128492 1.002114 0.000046
v 0.128569 0.993448 0.131427
v 0.138503 0.003267 -0.080039
v 0.128569 0.993448 0.131427
v 0.138596 -0.007264 0.079614
v 0.000000 0.000000 0.000000
v 0.138503 0.003267 -0.080039
v 0.138596 -0.007264 0.079614
v 0.138596 -0.007264 0.079614
v 0.128569 0.993448 0.131427
v 0.014592 0.990760 0.197293
v 0.138596 -0.007264 0.079614
v 0.014592 0.990760 0.197293
v 0.000093 -0.010530 0.159653
v 0.000000 0.000000 0.000000
v 0.138596 -0.007264 0.079614
v 0.000093 -0.010530 0.159653
v 0.000093 -0.010530 0.159653
v 0.014592 0.990760 0.197293
v -0.099460 0.996737 0.131777
v 0.000093 -0.010530 0.159653
v -0.099460 0.996737 0.131777
v -0.138503 -0.003267 0.080039
v 0.000000 0.000000 0.000000
v 0.000093 -0.010530 0.159653
v -0.138503 -0.003267 0.080039
v -0.138503 -0.003267 0.080039
v -0.099460 0.996737 0.131777
v -0.099537 1.005403 0.000396
v -0.138503 -0.003267 0.080039
v -0.099537 1.005403 0.000396
v -0.138596 0.007264 -0.079614
v 0.000000 0.000000 0.000000
v -0.138503 -0.003267 0.080039
v -0.138596 0.007264 -0.079614
v -0.138596 0.007264 -0.079614
v -0.099537 1.005403 0.000396
v 0.014439 1.008091 -0.065470
v -0.138596 0.007264 -0.079614
v 0.014439 1.008091 -0.065470
v -0.000093 0.010530 -0.159653
v 0.000000 0.000000 0.000000
v -0.138596 0.007264 -0.079614
v -0.000093 0.010530 -0.159653
v 0.014585 0.995004 -0.065681
v 0.059556 1.997059 -0.070979
v 0.148928 1.994783 -0.019160
v 0.014585 0.995004 -0.065681
v 0.148928 1.994783 -0.019160
v 0.128462 0.992103 0.000347
v 0.059502 2.000530 0.032296
v 0.148928 1.994783 -0.019160
v 0.059556 1.997059 -0.070979
v 0.128462 0.992103 0.000347
v 0.148928 1.994783 -0.019160
v 0.148874 1.998253 0.084115
v 0.128462 0.992103 0.000347
v 0.148874 1.998253 0.084115
v 0.128393 0.996525 0.131939
v 0.059502 2.000530 0.032296
v 0.148874 1.998253 0.084115
v 0.148928 1.994783 -0.019160
v 0.128393 0.996525 0.131939
v 0.148874 1.998253 0.084115
v 0.059448 2.004000 0.135571
v 0.128393 0.996525 0.131939
v 0.059448 2.004000 0.135571
v 0.014447 1.003847 0.197504
v 0.059502 2.000530 0.032296
v 0.059448 2.004000 0.135571
v 0.148874 1.998253 0.084115
v 0.014447 1.003847 0.197504
v 0.059448 2.004000 0.135571
v -0.029924 2.006276 0.083752
v 0.014447 1.003847 0.197504
v -0.029924 2.006276 0.083752
v -0.099430 1.006747 0.131476
v 0.059502 2.000530 0.032296
v -0.029924 2.006276 0.083752
v 0.059448 2.004000 0.135571
v -0.099430 1.006747 0.131476
v -0.029924 2.006276 0.083752
v -0.029870 2.002805 -0.019523
v -0.099430 1.006747 0.131476
v -0.029870 2.002805 -0.019523
v -0.099362 1.002326 -0.000116
v 0.059502 2.000530 0.032296
v -0.029870 2.002805 -0.019523
v -0.029924 2.006276 0.083752
v -0.099362 1.002326 -0.000116
v -0.029870 2.002805 -0.019523
v 0.059556 1.997059 -0.070979
v -0.099362 1.002326 -0.000116
v 0.059556 1.997059 -0.070979
v 0.014585 0.995004 -0.065681
v 0.059502 2.000530 0.032296
v 0.059556 1.997059 -0.070979
v -0.029870 2.002805 -0.019523
v 0.059939 1.605434 -0.003297
v -0.401106 1.846308 -0.138664
v -0.399637 1.865518 -0.114384
v 0.059939 1.605434 -0.003297
v -0.399637 1.865518 -0.114384
v 0.063435 1.651172 0.054513
v 0.041709 1.604573 0.045591
v 0.059939 1.605434 -0.003297
v 0.063435 1.651172 0.054513
v -0.408762 1.845946 -0.118131
v -0.399637 1.865518 -0.114384
v -0.401106 1.846308 -0.138664
v 0.063435 1.651172 0.054513
v -0.399637 1.865518 -0.114384
v -0.416419 1.845585 -0.097598
v 0.063435 1.651172 0.054513
v -0.416419 1.845585 -0.097598
v 0.023480 1.603712 0.094479
v 0.041709 1.604573 0.045591
v 0.063435 1.651172 0.054513
v 0.023480 1.603712 0.094479
v -0.408762 1.845946 -0.118131
v -0.416419 1.845585 -0.097598
v -0.399637 1.865518 -0.114384
v 0.023480 1.603712 0.094479
v -0.416419 1.845585 -0.097598
v -0.417887 1.826375 -0.121878
v 0.023480 1.603712 0.094479
v -0.417887 1.826375 -0.121878
v 0.019983 1.557974 0.036669
v 0.041709 1.604573 0.045591
v 0.023480 1.603712 0.094479
v 0.019983 1.557974 0.036669
v -0.408762 1.845946 -0.118131
v -0.417887 1.826375 -0.121878
v -0.416419 1.845585 -0.097598
v 0.019983 1.557974 0.036669
v -0.417887 1.826375 -0.121878
v -0.401106 1.846308 -0.138664
v 0.019983 1.557974 0.036669
v -0.401106 1.846308 -0.138664
v 0.059939 1.605434 -0.003297
v 0.041709 1.604573 0.045591
v 0.019983 1.557974 0.036669
v 0.059939 1.605434 -0.003297
v -0.408762 1.845946 -0.118131
v -0.401106 1.846308 -0.138664
v -0.417887 1.826375 -0.121878
v -0.208870 1.747726 -0.069288
v -0.395001 1.876490 -0.209204
v -0.397726 1.884199 -0.199449
v -0.208870 1.747726 -0.069288
v -0.397726 1.884199 -0.199449
v -0.216139 1.768286 -0.043271
v -0.224674 1.747307 -0.051225
v -0.208870 1.747726 -0.069288
v -0.216139 1.768286 -0.043271
v -0.400926 1.876333 -0.202431
v -0.397726 1.884199 -0.199449
v -0.395001 1.876490 -0.209204
v -0.216139 1.768286 -0.043271
v -0.397726 1.884199 -0.199449
v -0.406851 1.876177 -0.195659
v -0.216139 1.768286 -0.043271
v -0.406851 1.876177 -0.195659
v -0.240477 1.746888 -0.033161
v -0.224674 1.747307 -0.051225
v -0.216139 1.768286 -0.043271
v -0.240477 1.746888 -0.033161
v -0.400926 1.876333 -0.202431
v -0.406851 1.876177 -0.195659
v -0.397726 1.884199 -0.199449
v -0.240477 1.746888 -0.033161
v -0.406851 1.876177 -0.195659
v -0.404126 1.868468 -0.205413
v -0.240477 1.746888 -0.033161
v -0.404126 1.868468 -0.205413
v -0.233208 1.726328 -0.059178
v -0.224674 1.747307 -0.051225
v -0.240477 1.746888 -0.033161
v -0.233208 1.726328 -0.059178
v -0.400926 1.876333 -0.202431
v -0.404126 1.868468 -0.205413
v -0.406851 1.876177 -0.195659
v -0.233208 1.726328 -0.059178
v -0.404126 1.868468 -0.205413
v -0.395001 1.876490 -0.209204
v -0.233208 1.726328 -0.059178
v -0.395001 1.876490 -0.209204
v -0.208870 1.747726 -0.069288
v -0.224674 1.747307 -0.051225
v -0.233208 1.726328 -0.059178
v -0.208870 1.747726 -0.069288
v -0.400926 1.876333 -0.202431
v -0.395001 1.876490 -0.209204
v -0.404126 1.868468 -0.205413
v -0.241961 1.769160 -0.073195
v -0.297772 1.830190 -0.194054
v -0.305283 1.838222 -0.187647
v -0.241961 1.769160 -0.073195
v -0.305283 1.838222 -0.187647
v -0.261996 1.790583 -0.056105
v -0.264798 1.768807 -0.065808
v -0.241961 1.769160 -0.073195
v -0.261996 1.790583 -0.056105
v -0.306334 1.830058 -0.191285
v -0.305283 1.838222 -0.187647
v -0.297772 1.830190 -0.194054
v -0.261996 1.790583 -0.056105
v -0.305283 1.838222 -0.187647
v -0.314896 1.829925 -0.188515
v -0.261996 1.790583 -0.056105
v -0.314896 1.829925 -0.188515
v -0.287635 1.768454 -0.058420
v -0.264798 1.768807 -0.065808
v -0.261996 1.790583 -0.056105
v -0.287635 1.768454 -0.058420
v -0.306334 1.830058 -0.191285
v -0.314896 1.829925 -0.188515
v -0.305283 1.838222 -0.187647
v -0.287635 1.768454 -0.058420
v -0.314896 1.829925 -0.188515
v -0.307385 1.821893 -0.194922
v -0.287635 1.768454 -0.058420
v -0.307385 1.821893 -0.194922
v -0.267600 1.747030 -0.075510
v -0.264798 1.768807 -0.065808
v -0.287635 1.768454 -0.058420
v -0.267600 1.747030 -0.075510
v -0.306334 1.830058 -0.191285
v -0.307385 1.821893 -0.194922
v -0.314896 1.829925 -0.188515
v -0.267600 1.747030 -0.075510
v -0.307385 1.821893 -0.194922
v -0.297772 1.830190 -0.194054
v -0.267600 1.747030 -0.075510
v -0.297772 1.830190 -0.194054
v -0.241961 1.769160 -0.073195
v -0.264798 1.768807 -0.065808
v -0.267600 1.747030 -0.075510
v -0.241961 1.769160 -0.073195
v -0.306334 1.830058 -0.191285
v -0.297772 1.830190 -0.194054
v -0.307385 1.821893 -0.194922
v -0.316500 1.790461 -0.101418
v -0.453126 1.868814 -0.008488
v -0.445366 1.876879 -0.002427
v -0.316500 1.790461 -0.101418
v -0.445366 1.876879 -0.002427
v -0.295804 1.811972 -0.085252
v -0.304922 1.790306 -0.080391
v -0.316500 1.790461 -0.101418
v -0.295804 1.811972 -0.085252
v -0.448785 1.868756 -0.000604
v -0.445366 1.876879 -0.002427
v -0.453126 1.868814 -0.008488
v -0.295804 1.811972 -0.085252
v -0.445366 1.876879 -0.002427
v -0.444444 1.868698 0.007280
v -0.295804 1.811972 -0.085252
v -0.444444 1.868698 0.007280
v -0.293345 1.790151 -0.059363
v -0.304922 1.790306 -0.080391
v -0.295804 1.811972 -0.085252
v -0.293345 1.790151 -0.059363
v -0.448785 1.868756 -0.000604
v -0.444444 1.868698 0.007280
v -0.445366 1.876879 -0.002427
v -0.293345 1.790151 -0.059363
v -0.444444 1.868698 0.007280
v -0.452204 1.860632 0.001218
v -0.293345 1.790151 -0.059363
v -0.452204 1.860632 0.001218
v -0.314041 1.768640 -0.075530
v -0.304922 1.790306 -0.080391
v -0.293345 1.790151 -0.059363
v -0.314041 1.768640 -0.075530
v -0.448785 1.868756 -0.000604
v -0.452204 1.860632 0.001218
v -0.444444 1.868698 0.007280
v -0.314041 1.768640 -0.075530
v -0.452204 1.860632 0.001218
v -0.453126 1.868814 -0.008488
v -0.314041 1.768640 -0.075530
v -0.453126 1.868814 -0.008488
v -0.316500 1.790461 -0.101418
v -0.304922 1.790306 -0.080391
v -0.314041 1.768640 -0.075530
v -0.316500 1.790461 -0.101418
v -0.448785 1.868756 -0.000604
v -0.453126 1.868814 -0.008488
v -0.452204 1.860632 0.001218
v 0.097001 1.712895 0.055331
v 0.201925 1.842671 -0.462545
v 0.179247 1.863791 -0.463129
v 0.097001 1.712895 0.055331
v 0.179247 1.863791 -0.463129
v 0.043005 1.763182 0.053943
v 0.046560 1.712516 0.041967
v 0.097001 1.712895 0.055331
v 0.043005 1.763182 0.053943
v 0.180740 1.842512 -0.468159
v 0.179247 1.863791 -0.463129
v 0.201925 1.842671 -0.462545
v 0.043005 1.763182 0.053943
v 0.179247 1.863791 -0.463129
v 0.159554 1.842352 -0.473772
v 0.043005 1.763182 0.053943
v 0.159554 1.842352 -0.473772
v -0.003882 1.712136 0.028602
v 0.046560 1.712516 0.041967
v 0.043005 1.763182 0.053943
v -0.003882 1.712136 0.028602
v 0.180740 1.842512 -0.468159
v 0.159554 1.842352 -0.473772
v 0.179247 1.863791 -0.463129
v -0.003882 1.712136 0.028602
v 0.159554 1.842352 -0.473772
v 0.182232 1.821232 -0.473189
v -0.003882 1.712136 0.028602
v 0.182232 1.821232 -0.473189
v 0.050114 1.661850 0.029990
v 0.046560 1.712516 0.041967
v -0.003882 1.712136 0.028602
v 0.050114 1.661850 0.029990
v 0.180740 1.842512 -0.468159
v 0.182232 1.821232 -0.473189
v 0.159554 1.842352 -0.473772
v 0.050114 1.661850 0.029990
v 0.182232 1.821232 -0.473189
v 0.201925 1.842671 -0.462545
v 0.050114 1.661850 0.029990
v 0.201925 1.842671 -0.462545
v 0.097001 1.712895 0.055331
v 0.046560 1.712516 0.041967
v 0.050114 1.661850 0.029990
v 0.097001 1.712895 0.055331
v 0.180740 1.842512 -0.468159
v 0.201925 1.842671 -0.462545
v 0.182232 1.821232 -0.473189
v 0.134724 1.775007 -0.203627
v 0.106575 1.879488 -0.394613
v 0.097766 1.887285 -0.389756
v 0.134724 1.775007 -0.203627
v 0.097766 1.887285 -0.389756
v 0.111228 1.795805 -0.190672
v 0.110767 1.774722 -0.202138
v 0.134724 1.775007 -0.203627
v 0.111228 1.795805 -0.190672
v 0.097593 1.879381 -0.394055
v 0.097766 1.887285 -0.389756
v 0.106575 1.879488 -0.394613
v 0.111228 1.795805 -0.190672
v 0.097766 1.887285 -0.389756
v 0.088611 1.879273 -0.393497
v 0.111228 1.795805 -0.190672
v 0.088611 1.879273 -0.393497
v 0.086811 1.774436 -0.200650
v 0.110767 1.774722 -0.202138
v 0.111228 1.795805 -0.190672
v 0.086811 1.774436 -0.200650
v 0.097593 1.879381 -0.394055
v 0.088611 1.879273 -0.393497
v 0.097766 1.887285 -0.389756
v 0.086811 1.774436 -0.200650
v 0.088611 1.879273 -0.393497
v 0.097420 1.871476 -0.398354
v 0.086811 1.774436 -0.200650
v 0.097420 1.871476 -0.398354
v 0.110307 1.753638 -0.213604
v 0.110767 1.774722 -0.202138
v 0.086811 1.774436 -0.200650
v 0.110307 1.753638 -0.213604
v 0.097593 1.879381 -0.394055
v 0.097420 1.871476 -0.398354
v 0.088611 1.879273 -0.393497
v 0.110307 1.753638 -0.213604
v 0.097420 1.871476 -0.398354
v 0.106575 1.879488 -0.394613
v 0.110307 1.753638 -0.213604
v 0.106575 1.879488 -0.394613
v 0.134724 1.775007 -0.203627
v 0.110767 1.774722 -0.202138
v 0.110307 1.753638 -0.213604
v 0.134724 1.775007 -0.203627
v 0.097593 1.879381 -0.394055
v 0.106575 1.879488 -0.394613
v 0.097420 1.871476 -0.398354
v 0.144044 1.786389 -0.236555
v 0.232236 1.913439 -0.440894
v 0.222162 1.921216 -0.441067
v 0.144044 1.786389 -0.236555
v 0.222162 1.921216 -0.441067
v 0.117176 1.807132 -0.237016
v 0.122719 1.786300 -0.247576
v 0.144044 1.786389 -0.236555
v 0.117176 1.807132 -0.237016
v 0.224240 1.913406 -0.445026
v 0.222162 1.921216 -0.441067
v 0.232236 1.913439 -0.440894
v 0.117176 1.807132 -0.237016
v 0.222162 1.921216 -0.441067
v 0.216245 1.913373 -0.449158
v 0.117176 1.807132 -0.237016
v 0.216245 1.913373 -0.449158
v 0.101395 1.786212 -0.258597
v 0.122719 1.786300 -0.247576
v 0.117176 1.807132 -0.237016
v 0.101395 1.786212 -0.258597
v 0.224240 1.913406 -0.445026
v 0.216245 1.913373 -0.449158
v 0.222162 1.921216 -0.441067
v 0.101395 1.786212 -0.258597
v 0.216245 1.913373 -0.449158
v 0.226319 1.905595 -0.448986
v 0.101395 1.786212 -0.258597
v 0.226319 1.905595 -0.448986
v 0.128263 1.765469 -0.258136
v 0.122719 1.786300 -0.247576
v 0.101395 1.786212 -0.258597
v 0.128263 1.765469 -0.258136
v 0.224240 1.913406 -0.445026
v 0.226319 1.905595 -0.448986
v 0.216245 1.913373 -0.449158
v 0.128263 1.765469 -0.258136
v 0.226319 1.905595 -0.448986
v 0.232236 1.913439 -0.440894
v 0.128263 1.765469 -0.258136
v 0.232236 1.913439 -0.440894
v 0.144044 1.786389 -0.236555
v 0.122719 1.786300 -0.247576
v 0.128263 1.765469 -0.258136
v 0.144044 1.786389 -0.236555
v 0.224240 1.913406 -0.445026
v 0.232236 1.913439 -0.440894
v 0.226319 1.905595 -0.448986
v 0.043086 1.819673 0.089851
v 0.402521 1.982402 0.119763
v 0.397069 2.002706 0.096988
v 0.043086 1.819673 0.089851
v 0.397069 2.002706 0.096988
v 0.030105 1.868017 0.035625
v 0.051410 1.820459 0.038342
v 0.043086 1.819673 0.089851
v 0.030105 1.868017 0.035625
v 0.406017 1.982732 0.098129
v 0.397069 2.002706 0.096988
v 0.402521 1.982402 0.119763
v 0.030105 1.868017 0.035625
v 0.397069 2.002706 0.096988
v 0.409514 1.983062 0.076495
v 0.030105 1.868017 0.035625
v 0.409514 1.983062 0.076495
v 0.059735 1.821245 -0.013167
v 0.051410 1.820459 0.038342
v 0.030105 1.868017 0.035625
v 0.059735 1.821245 -0.013167
v 0.406017 1.982732 0.098129
v 0.409514 1.983062 0.076495
v 0.397069 2.002706 0.096988
v 0.059735 1.821245 -0.013167
v 0.409514 1.983062 0.076495
v 0.414966 1.962757 0.099270
v 0.059735 1.821245 -0.013167
v 0.414966 1.962757 0.099270
v 0.072716 1.772900 0.041059
v 0.051410 1.820459 0.038342
v 0.059735 1.821245 -0.013167
v 0.072716 1.772900 0.041059
v 0.406017 1.982732 0.098129
v 0.414966 1.962757 0.099270
v 0.409514 1.983062 0.076495
v 0.072716 1.772900 0.041059
v 0.414966 1.962757 0.099270
v 0.402521 1.982402 0.119763
v 0.072716 1.772900 0.041059
v 0.402521 1.982402 0.119763
v 0.043086 1.819673 0.089851
v 0.051410 1.820459 0.038342
v 0.072716 1.772900 0.041059
v 0.043086 1.819673 0.089851
v 0.406017 1.982732 0.098129
v 0.402521 1.982402 0.119763
v 0.414966 1.962757 0.099270
v 0.333787 1.941456 0.098884
v 0.424817 2.019642 -0.025917
v 0.415386 2.027670 -0.028848
v 0.333787 1.941456 0.098884
v 0.415386 2.027670 -0.028848
v 0.308632 1.962869 0.091065
v 0.315854 1.941472 0.082928
v 0.333787 1.941456 0.098884
v 0.308632 1.962869 0.091065
v 0.418093 2.019648 -0.031899
v 0.415386 2.027670 -0.028848
v 0.424817 2.019642 -0.025917
v 0.308632 1.962869 0.091065
v 0.415386 2.027670 -0.028848
v 0.411370 2.019654 -0.037882
v 0.308632 1.962869 0.091065
v 0.411370 2.019654 -0.037882
v 0.297920 1.941488 0.066971
v 0.315854 1.941472 0.082928
v 0.308632 1.962869 0.091065
v 0.297920 1.941488 0.066971
v 0.418093 2.019648 -0.031899
v 0.411370 2.019654 -0.037882
v 0.415386 2.027670 -0.028848
v 0.297920 1.941488 0.066971
v 0.411370 2.019654 -0.037882
v 0.420801 2.011625 -0.034950
v 0.297920 1.941488 0.066971
v 0.420801 2.011625 -0.034950
v 0.323075 1.920075 0.074790
v 0.315854 1.941472 0.082928
v 0.297920 1.941488 0.066971
v 0.323075 1.920075 0.074790
v 0.418093 2.019648 -0.031899
v 0.420801 2.011625 -0.034950
v 0.411370 2.019654 -0.037882
v 0.323075 1.920075 0.074790
v 0.420801 2.011625 -0.034950
v 0.424817 2.019642 -0.025917
v 0.323075 1.920075 0.074790
v 0.424817 2.019642 -0.025917
v 0.333787 1.941456 0.098884
v 0.315854 1.941472 0.082928
v 0.323075 1.920075 0.074790
v 0.333787 1.941456 0.098884
v 0.418093 2.019648 -0.031899
v 0.424817 2.019642 -0.025917
v 0.420801 2.011625 -0.034950
v 0.219874 1.894027 0.088430
v 0.391309 1.993447 0.019796
v 0.384557 2.001455 0.012564
v 0.219874 1.894027 0.088430
v 0.384557 2.001455 0.012564
v 0.201867 1.915383 0.069140
v 0.212675 1.894256 0.065532
v 0.219874 1.894027 0.088430
v 0.201867 1.915383 0.069140
v 0.388609 1.993533 0.011211
v 0.384557 2.001455 0.012564
v 0.391309 1.993447 0.019796
v 0.201867 1.915383 0.069140
v 0.384557 2.001455 0.012564
v 0.385910 1.993619 0.002626
v 0.201867 1.915383 0.069140
v 0.385910 1.993619 0.002626
v 0.205476 1.894484 0.042633
v 0.212675 1.894256 0.065532
v 0.201867 1.915383 0.069140
v 0.205476 1.894484 0.042633
v 0.388609 1.993533 0.011211
v 0.385910 1.993619 0.002626
v 0.384557 2.001455 0.012564
v 0.205476 1.894484 0.042633
v 0.385910 1.993619 0.002626
v 0.392662 1.985612 0.009858
v 0.205476 1.894484 0.042633
v 0.392662 1.985612 0.009858
v 0.223483 1.873128 0.061923
v 0.212675 1.894256 0.065532
v 0.205476 1.894484 0.042633
v 0.223483 1.873128 0.061923
v 0.388609 1.993533 0.011211
v 0.392662 1.985612 0.009858
v 0.385910 1.993619 0.002626
v 0.223483 1.873128 0.061923
v 0.392662 1.985612 0.009858
v 0.391309 1.993447 0.019796
v 0.223483 1.873128 0.061923
v 0.391309 1.993447 0.019796
v 0.219874 1.894027 0.088430
v 0.212675 1.894256 0.065532
v 0.223483 1.873128 0.061923
v 0.219874 1.894027 0.088430
v 0.388609 1.993533 0.011211
v 0.391309 1.993447 0.019796
v 0.392662 1.985612 0.009858
f 1 2 3
f 4 5 6
f 7 8 9
f 10 11 12
f 13 14 15
f 16 17 18
f 19 20 21
f 22 23 24
f 25 26 27
f 28 29 30
f 31 32 33
f 34 35 36
f 37 38 39
f 40 41 42
f 43 44 45
f 46 47 48
f 49 50 51
f 52 53 54
f 55 56 57
f 58 59 60
f 61 62 63
f 64 65 66
f 67 68 69
f 70 71 72
f 73 74 75
f 76 77 78
f 79 80 81
f 82 83 84
f 85 86 87
f 88 89 90
f 91 92 93
f 94 95 96
f 97 98 99
f 100 101 102
f 103 104 105
f 106 107 108
f 109 110 111
f 112 113 114
f 115 116 117
f 118 119 120
f 121 122 123
f 124 125 126
f 127 128 129
f 130 131 132
f 133 134 135
f 136 137 138
f 139 140 141
f 142 143 144
f 145 146 147
f 148 149 150
f 151 152 153
f 154 155 156
f 157 158 159
f 160 161 162
f 163 164 165
f 166 167 168
f 169 170 171
f 172 173 174
f 175 176 177
f 178 179 180
f 181 182 183
f 184 185 186
f 187 188 189
f 190 191 192
f 193 194 195
f 196 197 198
f 199 200 201
f 202 203 204
f 205 206 207
f 208 209 210
f 211 212 213
f 214 215 216
f 217 218 219
f 220 221 222
f 223 224 225
f 226 227 228
f 229 230 231
f 232 233 234
f 235 236 237
f 238 239 240
f 241 242 243
f 244 245 246
f 247 248 249
f 250 251 252
f 253 254 255
f 256 257 258
f 259 260 261
f 262 263 264
f 265 266 267
f 268 269 270
f 271 272 273
f 274 275 276
f 277 278 279
f 280 281 282
f 283 284 285
f 286 287 288
f 289 290 291
f 292 293 294
f 295 296 297
f 298 299 300
f 301 302 303
f 304 305 306
f 307 308 309
f 310 311 312
f 313 314 315
f 316 317 318
f 319 320 321
f 322 323 324
f 325 326 327
f 328 329 330
f 331 332 333
f 334 335 336
f 337 338 339
f 340 341 342
f 343 344 345
f 346 347 348
f 349 350 351
f 352 353 354
f 355 356 357
f 358 359 360
f 361 362 363
f 364 365 366
f 367 368 369
f 370 371 372
f 373 374 375
f 376 377 378
f 379 380 381
f 382 383 384
f 385 386 387
f 388 389 390
f 391 392 393
f 394 395 396
f 397 398 399
f 400 401 402
f 403 404 405
f 406 407 408
f 409 410 411
f 412 413 414
f 415 416 417
f 418 419 420
f 421 422 423
f 424 425 426
f 427 428 429
f 430 431 432
f 433 434 435
f 436 437 438
f 439 440 441
f 442 443 444
f 445 446 447
f 448 449 450
f 451 452 453
f 454 455 456
f 457 458 459
f 460 461 462
f 463 464 465
f 466 467 468
f 469 470 471
f 472 473 474
f 475 476 477
f 478 479 480
f 481 482 483
f 484 485 486
f 487 488 489
f 490 491 492
f 493 494 495
f 496 497 498
f 499 500 501
f 502 503 504
f 505 506 507
f 508 509 510
f 511 512 513
f 514 515 516
f 517 518 519
f 520 521 522
f 523 524 525
f 526 527 528
f 529 530 531
f 532 533 534
f 535 536 537
f 538 539 540
f 541 542 543
f 544 545 546
f 547 548 549
f 550 551 552
f 553 554 555
f 556 557 558
f 559 560 561
f 562 563 564
f 565 566 567
f 568 569 570
f 571 572 573
f 574 575 576
f 577 578 579
f 580 581 582
f 583 584 585
f 586 587 588
f 589 590 591
f 592 593 594
f 595 596 597
f 598 599 600
f 601 602 603
f 604 605 606
f 607 608 609
f 610 611 612
f 613 614 615
f 616 617 618
f 619 620 621
f 622 623 624
f 625 626 627
f 628 629 630
f 631 632 633
f 634 635 636
f 637 638 639
f 640 641 642
f 643 644 645
f 646 647 648
f 649 650 651
f 652 653 654
f 655 656 657
f 658 659 660
f 661 662 663
f 664 665 666
f 667 668 669
f 670 671 672
f 673 674 675
f 676 677 678
f 679 680 681
f 682 683 684
f 685 686 687
f 688 689 690
f 691 692 693
f 694 695 696
f 697 698 699
f 700 701 702
f 703 704 705
f 706 707 708
f 709 710 711
f 712 713 714
f 715 716 717
f 718 719 720
f 721 722 723
f 724 725 726
f 727 728 729
f 730 731 732
