# Pyramida editable prop source
# units: 1 OBJ unit = 1 Pyramida World Unit = 1 Blender metre

o TreeTrunk
v 0.061556 0.074391 0.096705
v 0.238128 0.020872 -0.016977
v 0.240448 0.044247 -0.041478
v 0.061556 0.074391 0.096705
v 0.240448 0.044247 -0.041478
v 0.071707 0.176653 -0.010484
v 0.043495 0.075584 -0.006723
v 0.061556 0.074391 0.096705
v 0.071707 0.176653 -0.010484
v 0.234000 0.021145 -0.040618
v 0.240448 0.044247 -0.041478
v 0.238128 0.020872 -0.016977
v 0.071707 0.176653 -0.010484
v 0.240448 0.044247 -0.041478
v 0.229872 0.021418 -0.064259
v 0.071707 0.176653 -0.010484
v 0.229872 0.021418 -0.064259
v 0.025434 0.076778 -0.110151
v 0.043495 0.075584 -0.006723
v 0.071707 0.176653 -0.010484
v 0.025434 0.076778 -0.110151
v 0.234000 0.021145 -0.040618
v 0.229872 0.021418 -0.064259
v 0.240448 0.044247 -0.041478
v 0.025434 0.076778 -0.110151
v 0.229872 0.021418 -0.064259
v 0.227551 -0.001956 -0.039758
v 0.025434 0.076778 -0.110151
v 0.227551 -0.001956 -0.039758
v 0.015282 -0.025484 -0.002963
v 0.043495 0.075584 -0.006723
v 0.025434 0.076778 -0.110151
v 0.015282 -0.025484 -0.002963
v 0.234000 0.021145 -0.040618
v 0.227551 -0.001956 -0.039758
v 0.229872 0.021418 -0.064259
v 0.015282 -0.025484 -0.002963
v 0.227551 -0.001956 -0.039758
v 0.238128 0.020872 -0.016977
v 0.015282 -0.025484 -0.002963
v 0.238128 0.020872 -0.016977
v 0.061556 0.074391 0.096705
v 0.043495 0.075584 -0.006723
v 0.015282 -0.025484 -0.002963
v 0.061556 0.074391 0.096705
v 0.234000 0.021145 -0.040618
v 0.238128 0.020872 -0.016977
v 0.227551 -0.001956 -0.039758
v -0.114972 0.073784 -0.003527
v -0.137195 0.013355 0.232049
v -0.118339 0.036606 0.248044
v -0.114972 0.073784 -0.003527
v -0.118339 0.036606 0.248044
v -0.032477 0.175507 0.066451
v -0.020180 0.074227 0.041631
v -0.114972 0.073784 -0.003527
v -0.032477 0.175507 0.066451
v -0.115528 0.013456 0.242371
v -0.118339 0.036606 0.248044
v -0.137195 0.013355 0.232049
v -0.032477 0.175507 0.066451
v -0.118339 0.036606 0.248044
v -0.093861 0.013557 0.252693
v -0.032477 0.175507 0.066451
v -0.093861 0.013557 0.252693
v 0.074612 0.074669 0.086790
v -0.020180 0.074227 0.041631
v -0.032477 0.175507 0.066451
v 0.074612 0.074669 0.086790
v -0.115528 0.013456 0.242371
v -0.093861 0.013557 0.252693
v -0.118339 0.036606 0.248044
v 0.074612 0.074669 0.086790
v -0.093861 0.013557 0.252693
v -0.112717 -0.009694 0.236698
v 0.074612 0.074669 0.086790
v -0.112717 -0.009694 0.236698
v -0.007882 -0.027054 0.016811
v -0.020180 0.074227 0.041631
v 0.074612 0.074669 0.086790
v -0.007882 -0.027054 0.016811
v -0.115528 0.013456 0.242371
v -0.112717 -0.009694 0.236698
v -0.093861 0.013557 0.252693
v -0.007882 -0.027054 0.016811
v -0.112717 -0.009694 0.236698
v -0.137195 0.013355 0.232049
v -0.007882 -0.027054 0.016811
v -0.137195 0.013355 0.232049
v -0.114972 0.073784 -0.003527
v -0.020180 0.074227 0.041631
v -0.007882 -0.027054 0.016811
v -0.114972 0.073784 -0.003527
v -0.115528 0.013456 0.242371
v -0.137195 0.013355 0.232049
v -0.112717 -0.009694 0.236698
v 0.068928 0.076981 -0.089430
v -0.124782 0.020288 -0.272288
v -0.148562 0.043344 -0.264876
v 0.068928 0.076981 -0.089430
v -0.148562 0.043344 -0.264876
v -0.035108 0.177852 -0.057005
v -0.022757 0.075275 -0.038286
v 0.068928 0.076981 -0.089430
v -0.035108 0.177852 -0.057005
v -0.145739 0.019898 -0.260598
v -0.148562 0.043344 -0.264876
v -0.124782 0.020288 -0.272288
v -0.035108 0.177852 -0.057005
v -0.148562 0.043344 -0.264876
v -0.166695 0.019508 -0.248908
v -0.035108 0.177852 -0.057005
v -0.166695 0.019508 -0.248908
v -0.114443 0.073569 0.012859
v -0.022757 0.075275 -0.038286
v -0.035108 0.177852 -0.057005
v -0.114443 0.073569 0.012859
v -0.145739 0.019898 -0.260598
v -0.166695 0.019508 -0.248908
v -0.148562 0.043344 -0.264876
v -0.114443 0.073569 0.012859
v -0.166695 0.019508 -0.248908
v -0.142916 -0.003548 -0.256319
v -0.114443 0.073569 0.012859
v -0.142916 -0.003548 -0.256319
v -0.010407 -0.027302 -0.019566
v -0.022757 0.075275 -0.038286
v -0.114443 0.073569 0.012859
v -0.010407 -0.027302 -0.019566
v -0.145739 0.019898 -0.260598
v -0.142916 -0.003548 -0.256319
v -0.166695 0.019508 -0.248908
v -0.010407 -0.027302 -0.019566
v -0.142916 -0.003548 -0.256319
v -0.124782 0.020288 -0.272288
v -0.010407 -0.027302 -0.019566
v -0.124782 0.020288 -0.272288
v 0.068928 0.076981 -0.089430
v -0.022757 0.075275 -0.038286
v -0.010407 -0.027302 -0.019566
v 0.068928 0.076981 -0.089430
v -0.145739 0.019898 -0.260598
v -0.124782 0.020288 -0.272288
v -0.142916 -0.003548 -0.256319
v -0.000093 0.010531 -0.159653
v 0.014443 1.008091 -0.065468
v 0.128496 1.002113 0.000047
v -0.000093 0.010531 -0.159653
v 0.128496 1.002113 0.000047
v 0.138503 0.003266 -0.080039
v 0.000000 0.000000 0.000000
v -0.000093 0.010531 -0.159653
v 0.138503 0.003266 -0.080039
v 0.138503 0.003266 -0.080039
v 0.128496 1.002113 0.000047
v 0.128573 0.993447 0.131429
v 0.138503 0.003266 -0.080039
v 0.128573 0.993447 0.131429
v 0.138596 -0.007264 0.079614
v 0.000000 0.000000 0.000000
v 0.138503 0.003266 -0.080039
v 0.138596 -0.007264 0.079614
v 0.138596 -0.007264 0.079614
v 0.128573 0.993447 0.131429
v 0.014596 0.990759 0.197294
v 0.138596 -0.007264 0.079614
v 0.014596 0.990759 0.197294
v 0.000093 -0.010531 0.159653
v 0.000000 0.000000 0.000000
v 0.138596 -0.007264 0.079614
v 0.000093 -0.010531 0.159653
v 0.000093 -0.010531 0.159653
v 0.014596 0.990759 0.197294
v -0.099457 0.996737 0.131778
v 0.000093 -0.010531 0.159653
v -0.099457 0.996737 0.131778
v -0.138503 -0.003266 0.080039
v 0.000000 0.000000 0.000000
v 0.000093 -0.010531 0.159653
v -0.138503 -0.003266 0.080039
v -0.138503 -0.003266 0.080039
v -0.099457 0.996737 0.131778
v -0.099533 1.005403 0.000397
v -0.138503 -0.003266 0.080039
v -0.099533 1.005403 0.000397
v -0.138596 0.007264 -0.079614
v 0.000000 0.000000 0.000000
v -0.138503 -0.003266 0.080039
v -0.138596 0.007264 -0.079614
v -0.138596 0.007264 -0.079614
v -0.099533 1.005403 0.000397
v 0.014443 1.008091 -0.065468
v -0.138596 0.007264 -0.079614
v 0.014443 1.008091 -0.065468
v -0.000093 0.010531 -0.159653
v 0.000000 0.000000 0.000000
v -0.138596 0.007264 -0.079614
v -0.000093 0.010531 -0.159653
v 0.014588 0.995004 -0.065679
v 0.059564 1.997059 -0.070977
v 0.148936 1.994783 -0.019158
v 0.014588 0.995004 -0.065679
v 0.148936 1.994783 -0.019158
v 0.128466 0.992103 0.000348
v 0.128466 0.992103 0.000348
v 0.148936 1.994783 -0.019158
v 0.148882 1.998253 0.084117
v 0.128466 0.992103 0.000348
v 0.148882 1.998253 0.084117
v 0.128397 0.996525 0.131940
v 0.128397 0.996525 0.131940
v 0.148882 1.998253 0.084117
v 0.059456 2.003999 0.135573
v 0.128397 0.996525 0.131940
v 0.059456 2.003999 0.135573
v 0.014451 1.003847 0.197505
v 0.014451 1.003847 0.197505
v 0.059456 2.003999 0.135573
v -0.029917 2.006276 0.083754
v 0.014451 1.003847 0.197505
v -0.029917 2.006276 0.083754
v -0.099426 1.006747 0.131478
v -0.099426 1.006747 0.131478
v -0.029917 2.006276 0.083754
v -0.029863 2.002806 -0.019521
v -0.099426 1.006747 0.131478
v -0.029863 2.002806 -0.019521
v -0.099358 1.002326 -0.000114
v -0.099358 1.002326 -0.000114
v -0.029863 2.002806 -0.019521
v 0.059564 1.997059 -0.070977
v -0.099358 1.002326 -0.000114
v 0.059564 1.997059 -0.070977
v 0.014588 0.995004 -0.065679
v 0.059529 2.000204 -0.071034
v 0.004978 2.999883 -0.045861
v 0.069827 3.003540 -0.008361
v 0.059529 2.000204 -0.071034
v 0.069827 3.003540 -0.008361
v 0.148875 2.005243 -0.019367
v 0.004965 3.000119 0.029138
v 0.069827 3.003540 -0.008361
v 0.004978 2.999883 -0.045861
v 0.148875 2.005243 -0.019367
v 0.069827 3.003540 -0.008361
v 0.069813 3.003777 0.066639
v 0.148875 2.005243 -0.019367
v 0.069813 3.003777 0.066639
v 0.148856 2.005568 0.083966
v 0.004965 3.000119 0.029138
v 0.069813 3.003777 0.066639
v 0.069827 3.003540 -0.008361
v 0.148856 2.005568 0.083966
v 0.069813 3.003777 0.066639
v 0.004951 3.000356 0.104138
v 0.148856 2.005568 0.083966
v 0.004951 3.000356 0.104138
v 0.059491 2.000855 0.135631
v 0.004965 3.000119 0.029138
v 0.004951 3.000356 0.104138
v 0.069813 3.003777 0.066639
v 0.059491 2.000855 0.135631
v 0.004951 3.000356 0.104138
v -0.059898 2.996698 0.066637
v 0.059491 2.000855 0.135631
v -0.059898 2.996698 0.066637
v -0.029856 1.995816 0.083964
v 0.004965 3.000119 0.029138
v -0.059898 2.996698 0.066637
v 0.004951 3.000356 0.104138
v -0.029856 1.995816 0.083964
v -0.059898 2.996698 0.066637
v -0.059884 2.996462 -0.008362
v -0.029856 1.995816 0.083964
v -0.059884 2.996462 -0.008362
v -0.029837 1.995491 -0.019369
v 0.004965 3.000119 0.029138
v -0.059884 2.996462 -0.008362
v -0.059898 2.996698 0.066637
v -0.029837 1.995491 -0.019369
v -0.059884 2.996462 -0.008362
v 0.004978 2.999883 -0.045861
v -0.029837 1.995491 -0.019369
v 0.004978 2.999883 -0.045861
v 0.059529 2.000204 -0.071034
v 0.004965 3.000119 0.029138
v 0.004978 2.999883 -0.045861
v -0.059884 2.996462 -0.008362
v 0.058644 2.684273 0.025241
v -0.032526 2.801722 -0.481489
v -0.047554 2.816570 -0.475994
v 0.058644 2.684273 0.025241
v -0.047554 2.816570 -0.475994
v 0.022864 2.719624 0.038326
v 0.022225 2.683803 0.030138
v 0.058644 2.684273 0.025241
v 0.022864 2.719624 0.038326
v -0.047822 2.801525 -0.479432
v -0.047554 2.816570 -0.475994
v -0.032526 2.801722 -0.481489
v 0.022864 2.719624 0.038326
v -0.047554 2.816570 -0.475994
v -0.063119 2.801327 -0.477375
v 0.022864 2.719624 0.038326
v -0.063119 2.801327 -0.477375
v -0.014194 2.683333 0.035036
v 0.022225 2.683803 0.030138
v 0.022864 2.719624 0.038326
v -0.014194 2.683333 0.035036
v -0.047822 2.801525 -0.479432
v -0.063119 2.801327 -0.477375
v -0.047554 2.816570 -0.475994
v -0.014194 2.683333 0.035036
v -0.063119 2.801327 -0.477375
v -0.048091 2.786480 -0.482871
v -0.014194 2.683333 0.035036
v -0.048091 2.786480 -0.482871
v 0.021586 2.647982 0.021951
v 0.022225 2.683803 0.030138
v -0.014194 2.683333 0.035036
v 0.021586 2.647982 0.021951
v -0.047822 2.801525 -0.479432
v -0.048091 2.786480 -0.482871
v -0.063119 2.801327 -0.477375
v 0.021586 2.647982 0.021951
v -0.048091 2.786480 -0.482871
v -0.032526 2.801722 -0.481489
v 0.021586 2.647982 0.021951
v -0.032526 2.801722 -0.481489
v 0.058644 2.684273 0.025241
v 0.022225 2.683803 0.030138
v 0.021586 2.647982 0.021951
v 0.058644 2.684273 0.025241
v -0.047822 2.801525 -0.479432
v -0.032526 2.801722 -0.481489
v -0.048091 2.786480 -0.482871
v -0.022234 2.776781 -0.384143
v -0.159326 2.861948 -0.483951
v -0.161969 2.869827 -0.474310
v -0.022234 2.776781 -0.384143
v -0.161969 2.869827 -0.474310
v -0.027198 2.791581 -0.366036
v -0.032924 2.776486 -0.371051
v -0.022234 2.776781 -0.384143
v -0.027198 2.791581 -0.366036
v -0.165017 2.861791 -0.476980
v -0.161969 2.869827 -0.474310
v -0.159326 2.861948 -0.483951
v -0.027198 2.791581 -0.366036
v -0.161969 2.869827 -0.474310
v -0.170708 2.861634 -0.470010
v -0.027198 2.791581 -0.366036
v -0.170708 2.861634 -0.470010
v -0.043614 2.776191 -0.357958
v -0.032924 2.776486 -0.371051
v -0.027198 2.791581 -0.366036
v -0.043614 2.776191 -0.357958
v -0.165017 2.861791 -0.476980
v -0.170708 2.861634 -0.470010
v -0.161969 2.869827 -0.474310
v -0.043614 2.776191 -0.357958
v -0.170708 2.861634 -0.470010
v -0.168066 2.853755 -0.479650
v -0.043614 2.776191 -0.357958
v -0.168066 2.853755 -0.479650
v -0.038650 2.761392 -0.376066
v -0.032924 2.776486 -0.371051
v -0.043614 2.776191 -0.357958
v -0.038650 2.761392 -0.376066
v -0.165017 2.861791 -0.476980
v -0.168066 2.853755 -0.479650
v -0.170708 2.861634 -0.470010
v -0.038650 2.761392 -0.376066
v -0.168066 2.853755 -0.479650
v -0.159326 2.861948 -0.483951
v -0.038650 2.761392 -0.376066
v -0.159326 2.861948 -0.483951
v -0.022234 2.776781 -0.384143
v -0.032924 2.776486 -0.371051
v -0.038650 2.761392 -0.376066
v -0.022234 2.776781 -0.384143
v -0.165017 2.861791 -0.476980
v -0.159326 2.861948 -0.483951
v -0.168066 2.853755 -0.479650
v 0.003354 2.742487 -0.228530
v -0.073204 2.850555 -0.412273
v -0.080316 2.858324 -0.405127
v 0.003354 2.742487 -0.228530
v -0.080316 2.858324 -0.405127
v -0.010005 2.757080 -0.215108
v -0.012542 2.742233 -0.222783
v 0.003354 2.742487 -0.228530
v -0.010005 2.757080 -0.215108
v -0.081667 2.850420 -0.409213
v -0.080316 2.858324 -0.405127
v -0.073204 2.850555 -0.412273
v -0.010005 2.757080 -0.215108
v -0.080316 2.858324 -0.405127
v -0.090130 2.850285 -0.406154
v -0.010005 2.757080 -0.215108
v -0.090130 2.850285 -0.406154
v -0.028439 2.741980 -0.217036
v -0.012542 2.742233 -0.222783
v -0.010005 2.757080 -0.215108
v -0.028439 2.741980 -0.217036
v -0.081667 2.850420 -0.409213
v -0.090130 2.850285 -0.406154
v -0.080316 2.858324 -0.405127
v -0.028439 2.741980 -0.217036
v -0.090130 2.850285 -0.406154
v -0.083018 2.842515 -0.413299
v -0.028439 2.741980 -0.217036
v -0.083018 2.842515 -0.413299
v -0.015080 2.727386 -0.230458
v -0.012542 2.742233 -0.222783
v -0.028439 2.741980 -0.217036
v -0.015080 2.727386 -0.230458
v -0.081667 2.850420 -0.409213
v -0.083018 2.842515 -0.413299
v -0.090130 2.850285 -0.406154
v -0.015080 2.727386 -0.230458
v -0.083018 2.842515 -0.413299
v -0.073204 2.850555 -0.412273
v -0.015080 2.727386 -0.230458
v -0.073204 2.850555 -0.412273
v 0.003354 2.742487 -0.228530
v -0.012542 2.742233 -0.222783
v -0.015080 2.727386 -0.230458
v 0.003354 2.742487 -0.228530
v -0.081667 2.850420 -0.409213
v -0.073204 2.850555 -0.412273
v -0.083018 2.842515 -0.413299
v 0.024788 2.791195 0.065562
v 0.356192 2.945339 -0.032909
v 0.346562 2.959599 -0.046341
v 0.024788 2.791195 0.065562
v 0.346562 2.959599 -0.046341
v 0.001858 2.825145 0.033582
v 0.016344 2.791583 0.029798
v 0.024788 2.791195 0.065562
v 0.001858 2.825145 0.033582
v 0.352646 2.945503 -0.047930
v 0.346562 2.959599 -0.046341
v 0.356192 2.945339 -0.032909
v 0.001858 2.825145 0.033582
v 0.346562 2.959599 -0.046341
v 0.349099 2.945666 -0.062952
v 0.001858 2.825145 0.033582
v 0.349099 2.945666 -0.062952
v 0.007900 2.791971 -0.005967
v 0.016344 2.791583 0.029798
v 0.001858 2.825145 0.033582
v 0.007900 2.791971 -0.005967
v 0.352646 2.945503 -0.047930
v 0.349099 2.945666 -0.062952
v 0.346562 2.959599 -0.046341
v 0.007900 2.791971 -0.005967
v 0.349099 2.945666 -0.062952
v 0.358730 2.931407 -0.049520
v 0.007900 2.791971 -0.005967
v 0.358730 2.931407 -0.049520
v 0.030830 2.758021 0.026013
v 0.016344 2.791583 0.029798
v 0.007900 2.791971 -0.005967
v 0.030830 2.758021 0.026013
v 0.352646 2.945503 -0.047930
v 0.358730 2.931407 -0.049520
v 0.349099 2.945666 -0.062952
v 0.030830 2.758021 0.026013
v 0.358730 2.931407 -0.049520
v 0.356192 2.945339 -0.032909
v 0.030830 2.758021 0.026013
v 0.356192 2.945339 -0.032909
v 0.024788 2.791195 0.065562
v 0.016344 2.791583 0.029798
v 0.030830 2.758021 0.026013
v 0.024788 2.791195 0.065562
v 0.352646 2.945503 -0.047930
v 0.356192 2.945339 -0.032909
v 0.358730 2.931407 -0.049520
v 0.233173 2.895105 -0.009004
v 0.342567 2.953968 0.062767
v 0.344833 2.962332 0.053445
v 0.233173 2.895105 -0.009004
v 0.344833 2.962332 0.053445
v 0.237428 2.910816 -0.026514
v 0.243175 2.895400 -0.022629
v 0.233173 2.895105 -0.009004
v 0.237428 2.910816 -0.026514
v 0.347892 2.954125 0.055513
v 0.344833 2.962332 0.053445
v 0.342567 2.953968 0.062767
v 0.237428 2.910816 -0.026514
v 0.344833 2.962332 0.053445
v 0.353217 2.954282 0.048259
v 0.237428 2.910816 -0.026514
v 0.353217 2.954282 0.048259
v 0.253177 2.895694 -0.036254
v 0.243175 2.895400 -0.022629
v 0.237428 2.910816 -0.026514
v 0.253177 2.895694 -0.036254
v 0.347892 2.954125 0.055513
v 0.353217 2.954282 0.048259
v 0.344833 2.962332 0.053445
v 0.253177 2.895694 -0.036254
v 0.353217 2.954282 0.048259
v 0.350951 2.945917 0.057582
v 0.253177 2.895694 -0.036254
v 0.350951 2.945917 0.057582
v 0.248921 2.879983 -0.018744
v 0.243175 2.895400 -0.022629
v 0.253177 2.895694 -0.036254
v 0.248921 2.879983 -0.018744
v 0.347892 2.954125 0.055513
v 0.350951 2.945917 0.057582
v 0.353217 2.954282 0.048259
v 0.248921 2.879983 -0.018744
v 0.350951 2.945917 0.057582
v 0.342567 2.953968 0.062767
v 0.248921 2.879983 -0.018744
v 0.342567 2.953968 0.062767
v 0.233173 2.895105 -0.009004
v 0.243175 2.895400 -0.022629
v 0.248921 2.879983 -0.018744
v 0.233173 2.895105 -0.009004
v 0.347892 2.954125 0.055513
v 0.342567 2.953968 0.062767
v 0.350951 2.945917 0.057582
v 0.288403 2.909181 -0.022306
v 0.349445 2.991567 -0.170231
v 0.339515 2.999528 -0.170376
v 0.288403 2.909181 -0.022306
v 0.339515 2.999528 -0.170376
v 0.269751 2.924134 -0.022579
v 0.273130 2.909110 -0.029552
v 0.288403 2.909181 -0.022306
v 0.269751 2.924134 -0.022579
v 0.341314 2.991529 -0.174089
v 0.339515 2.999528 -0.170376
v 0.349445 2.991567 -0.170231
v 0.269751 2.924134 -0.022579
v 0.339515 2.999528 -0.170376
v 0.333183 2.991491 -0.177947
v 0.269751 2.924134 -0.022579
v 0.333183 2.991491 -0.177947
v 0.257857 2.909038 -0.036798
v 0.273130 2.909110 -0.029552
v 0.269751 2.924134 -0.022579
v 0.257857 2.909038 -0.036798
v 0.341314 2.991529 -0.174089
v 0.333183 2.991491 -0.177947
v 0.339515 2.999528 -0.170376
v 0.257857 2.909038 -0.036798
v 0.333183 2.991491 -0.177947
v 0.343113 2.983531 -0.177802
v 0.257857 2.909038 -0.036798
v 0.343113 2.983531 -0.177802
v 0.276509 2.894085 -0.036526
v 0.273130 2.909110 -0.029552
v 0.257857 2.909038 -0.036798
v 0.276509 2.894085 -0.036526
v 0.341314 2.991529 -0.174089
v 0.343113 2.983531 -0.177802
v 0.333183 2.991491 -0.177947
v 0.276509 2.894085 -0.036526
v 0.343113 2.983531 -0.177802
v 0.349445 2.991567 -0.170231
v 0.276509 2.894085 -0.036526
v 0.349445 2.991567 -0.170231
v 0.288403 2.909181 -0.022306
v 0.273130 2.909110 -0.029552
v 0.276509 2.894085 -0.036526
v 0.288403 2.909181 -0.022306
v 0.341314 2.991529 -0.174089
v 0.349445 2.991567 -0.170231
v 0.343113 2.983531 -0.177802
v 0.000797 2.438959 0.042830
v 0.148307 2.622224 0.415668
v 0.160628 2.636491 0.404662
v 0.000797 2.438959 0.042830
v 0.160628 2.636491 0.404662
v 0.030133 2.472929 0.016627
v 0.035556 2.439506 0.030911
v 0.000797 2.438959 0.042830
v 0.030133 2.472929 0.016627
v 0.162905 2.622453 0.410662
v 0.160628 2.636491 0.404662
v 0.148307 2.622224 0.415668
v 0.030133 2.472929 0.016627
v 0.160628 2.636491 0.404662
v 0.177504 2.622683 0.405655
v 0.030133 2.472929 0.016627
v 0.177504 2.622683 0.405655
v 0.070315 2.440052 0.018991
v 0.035556 2.439506 0.030911
v 0.030133 2.472929 0.016627
v 0.070315 2.440052 0.018991
v 0.162905 2.622453 0.410662
v 0.177504 2.622683 0.405655
v 0.160628 2.636491 0.404662
v 0.070315 2.440052 0.018991
v 0.177504 2.622683 0.405655
v 0.165183 2.608415 0.416661
v 0.070315 2.440052 0.018991
v 0.165183 2.608415 0.416661
v 0.040979 2.406082 0.045194
v 0.035556 2.439506 0.030911
v 0.070315 2.440052 0.018991
v 0.040979 2.406082 0.045194
v 0.162905 2.622453 0.410662
v 0.165183 2.608415 0.416661
v 0.177504 2.622683 0.405655
v 0.040979 2.406082 0.045194
v 0.165183 2.608415 0.416661
v 0.148307 2.622224 0.415668
v 0.040979 2.406082 0.045194
v 0.148307 2.622224 0.415668
v 0.000797 2.438959 0.042830
v 0.035556 2.439506 0.030911
v 0.040979 2.406082 0.045194
v 0.000797 2.438959 0.042830
v 0.162905 2.622453 0.410662
v 0.148307 2.622224 0.415668
v 0.165183 2.608415 0.416661
v 0.090365 2.542042 0.246699
v 0.129658 2.661426 0.466848
v 0.137831 2.669482 0.461343
v 0.090365 2.542042 0.246699
v 0.137831 2.669482 0.461343
v 0.105717 2.557173 0.236360
v 0.107084 2.542261 0.244203
v 0.090365 2.542042 0.246699
v 0.105717 2.557173 0.236360
v 0.138559 2.661542 0.465519
v 0.137831 2.669482 0.461343
v 0.129658 2.661426 0.466848
v 0.105717 2.557173 0.236360
v 0.137831 2.669482 0.461343
v 0.147459 2.661659 0.464190
v 0.105717 2.557173 0.236360
v 0.147459 2.661659 0.464190
v 0.123802 2.542480 0.241707
v 0.107084 2.542261 0.244203
v 0.105717 2.557173 0.236360
v 0.123802 2.542480 0.241707
v 0.138559 2.661542 0.465519
v 0.147459 2.661659 0.464190
v 0.137831 2.669482 0.461343
v 0.123802 2.542480 0.241707
v 0.147459 2.661659 0.464190
v 0.139286 2.653603 0.469694
v 0.123802 2.542480 0.241707
v 0.139286 2.653603 0.469694
v 0.108450 2.527348 0.252046
v 0.107084 2.542261 0.244203
v 0.123802 2.542480 0.241707
v 0.108450 2.527348 0.252046
v 0.138559 2.661542 0.465519
v 0.139286 2.653603 0.469694
v 0.147459 2.661659 0.464190
v 0.108450 2.527348 0.252046
v 0.139286 2.653603 0.469694
v 0.129658 2.661426 0.466848
v 0.108450 2.527348 0.252046
v 0.129658 2.661426 0.466848
v 0.090365 2.542042 0.246699
v 0.107084 2.542261 0.244203
v 0.108450 2.527348 0.252046
v 0.090365 2.542042 0.246699
v 0.138559 2.661542 0.465519
v 0.129658 2.661426 0.466848
v 0.139286 2.653603 0.469694
v 0.102797 2.558470 0.271587
v 0.062826 2.609440 0.388641
v 0.072415 2.617806 0.388880
v 0.102797 2.558470 0.271587
v 0.072415 2.617806 0.388880
v 0.120809 2.574183 0.272037
v 0.118427 2.558556 0.278028
v 0.102797 2.558470 0.271587
v 0.120809 2.574183 0.272037
v 0.071147 2.609486 0.392070
v 0.072415 2.617806 0.388880
v 0.062826 2.609440 0.388641
v 0.120809 2.574183 0.272037
v 0.072415 2.617806 0.388880
v 0.079468 2.609533 0.395499
v 0.120809 2.574183 0.272037
v 0.079468 2.609533 0.395499
v 0.134056 2.558643 0.284469
v 0.118427 2.558556 0.278028
v 0.120809 2.574183 0.272037
v 0.134056 2.558643 0.284469
v 0.071147 2.609486 0.392070
v 0.079468 2.609533 0.395499
v 0.072415 2.617806 0.388880
v 0.134056 2.558643 0.284469
v 0.079468 2.609533 0.395499
v 0.069879 2.601167 0.395260
v 0.134056 2.558643 0.284469
v 0.069879 2.601167 0.395260
v 0.116044 2.542929 0.284019
v 0.118427 2.558556 0.278028
v 0.134056 2.558643 0.284469
v 0.116044 2.542929 0.284019
v 0.071147 2.609486 0.392070
v 0.069879 2.601167 0.395260
v 0.079468 2.609533 0.395499
v 0.116044 2.542929 0.284019
v 0.069879 2.601167 0.395260
v 0.062826 2.609440 0.388641
v 0.116044 2.542929 0.284019
v 0.062826 2.609440 0.388641
v 0.102797 2.558470 0.271587
v 0.118427 2.558556 0.278028
v 0.116044 2.542929 0.284019
v 0.102797 2.558470 0.271587
v 0.071147 2.609486 0.392070
v 0.062826 2.609440 0.388641
v 0.069879 2.601167 0.395260
v 0.126404 2.574591 0.328418
v 0.277141 2.650033 0.352168
v 0.275001 2.658240 0.342678
v 0.126404 2.574591 0.328418
v 0.275001 2.658240 0.342678
v 0.122385 2.590006 0.310591
v 0.129770 2.574852 0.311853
v 0.126404 2.574591 0.328418
v 0.122385 2.590006 0.310591
v 0.278933 2.650172 0.343350
v 0.275001 2.658240 0.342678
v 0.277141 2.650033 0.352168
v 0.122385 2.590006 0.310591
v 0.275001 2.658240 0.342678
v 0.280725 2.650311 0.334531
v 0.122385 2.590006 0.310591
v 0.280725 2.650311 0.334531
v 0.133136 2.575112 0.295289
v 0.129770 2.574852 0.311853
v 0.122385 2.590006 0.310591
v 0.133136 2.575112 0.295289
v 0.278933 2.650172 0.343350
v 0.280725 2.650311 0.334531
v 0.275001 2.658240 0.342678
v 0.133136 2.575112 0.295289
v 0.280725 2.650311 0.334531
v 0.282865 2.642104 0.344022
v 0.133136 2.575112 0.295289
v 0.282865 2.642104 0.344022
v 0.137156 2.559698 0.313116
v 0.129770 2.574852 0.311853
v 0.133136 2.575112 0.295289
v 0.137156 2.559698 0.313116
v 0.278933 2.650172 0.343350
v 0.282865 2.642104 0.344022
v 0.280725 2.650311 0.334531
v 0.137156 2.559698 0.313116
v 0.282865 2.642104 0.344022
v 0.277141 2.650033 0.352168
v 0.137156 2.559698 0.313116
v 0.277141 2.650033 0.352168
v 0.126404 2.574591 0.328418
v 0.129770 2.574852 0.311853
v 0.137156 2.559698 0.313116
v 0.126404 2.574591 0.328418
v 0.278933 2.650172 0.343350
v 0.277141 2.650033 0.352168
v 0.282865 2.642104 0.344022
v 0.014405 2.547566 -0.002857
v -0.388879 2.764433 0.206623
v -0.376365 2.778239 0.217993
v 0.014405 2.547566 -0.002857
v -0.376365 2.778239 0.217993
v 0.044201 2.580438 0.024213
v 0.029675 2.547285 0.030570
v 0.014405 2.547566 -0.002857
v 0.044201 2.580438 0.024213
v -0.382466 2.764315 0.220662
v -0.376365 2.778239 0.217993
v -0.388879 2.764433 0.206623
v 0.044201 2.580438 0.024213
v -0.376365 2.778239 0.217993
v -0.376053 2.764197 0.234702
v 0.044201 2.580438 0.024213
v -0.376053 2.764197 0.234702
v 0.044944 2.547004 0.063996
v 0.029675 2.547285 0.030570
v 0.044201 2.580438 0.024213
v 0.044944 2.547004 0.063996
v -0.382466 2.764315 0.220662
v -0.376053 2.764197 0.234702
v -0.376365 2.778239 0.217993
v 0.044944 2.547004 0.063996
v -0.376053 2.764197 0.234702
v -0.388567 2.750391 0.223332
v 0.044944 2.547004 0.063996
v -0.388567 2.750391 0.223332
v 0.015148 2.514132 0.036927
v 0.029675 2.547285 0.030570
v 0.044944 2.547004 0.063996
v 0.015148 2.514132 0.036927
v -0.382466 2.764315 0.220662
v -0.388567 2.750391 0.223332
v -0.376053 2.764197 0.234702
v 0.015148 2.514132 0.036927
v -0.388567 2.750391 0.223332
v -0.388879 2.764433 0.206623
v 0.015148 2.514132 0.036927
v -0.388879 2.764433 0.206623
v 0.014405 2.547566 -0.002857
v 0.029675 2.547285 0.030570
v 0.015148 2.514132 0.036927
v 0.014405 2.547566 -0.002857
v -0.382466 2.764315 0.220662
v -0.388879 2.764433 0.206623
v -0.388567 2.750391 0.223332
v -0.168854 2.644683 0.105773
v -0.273405 2.736652 0.258794
v -0.263805 2.744720 0.260970
v -0.168854 2.644683 0.105773
v -0.263805 2.744720 0.260970
v -0.150821 2.659838 0.109860
v -0.155311 2.644697 0.115891
v -0.168854 2.644683 0.105773
v -0.150821 2.659838 0.109860
v -0.266195 2.736659 0.264181
v -0.263805 2.744720 0.260970
v -0.273405 2.736652 0.258794
v -0.150821 2.659838 0.109860
v -0.263805 2.744720 0.260970
v -0.258985 2.736666 0.269567
v -0.150821 2.659838 0.109860
v -0.258985 2.736666 0.269567
v -0.141769 2.644711 0.126009
v -0.155311 2.644697 0.115891
v -0.150821 2.659838 0.109860
v -0.141769 2.644711 0.126009
v -0.266195 2.736659 0.264181
v -0.258985 2.736666 0.269567
v -0.263805 2.744720 0.260970
v -0.141769 2.644711 0.126009
v -0.258985 2.736666 0.269567
v -0.268586 2.728598 0.267392
v -0.141769 2.644711 0.126009
v -0.268586 2.728598 0.267392
v -0.159802 2.629557 0.121923
v -0.155311 2.644697 0.115891
v -0.141769 2.644711 0.126009
v -0.159802 2.629557 0.121923
v -0.266195 2.736659 0.264181
v -0.268586 2.728598 0.267392
v -0.258985 2.736666 0.269567
v -0.159802 2.629557 0.121923
v -0.268586 2.728598 0.267392
v -0.273405 2.736652 0.258794
v -0.159802 2.629557 0.121923
v -0.273405 2.736652 0.258794
v -0.168854 2.644683 0.105773
v -0.155311 2.644697 0.115891
v -0.159802 2.629557 0.121923
v -0.168854 2.644683 0.105773
v -0.266195 2.736659 0.264181
v -0.273405 2.736652 0.258794
v -0.268586 2.728598 0.267392
v -0.198450 2.664168 0.117189
v -0.394646 2.777065 0.207411
v -0.387338 2.784964 0.214208
v -0.198450 2.664168 0.117189
v -0.387338 2.784964 0.214208
v -0.184723 2.679004 0.129956
v -0.192022 2.664028 0.132823
v -0.198450 2.664168 0.117189
v -0.184723 2.679004 0.129956
v -0.391224 2.776991 0.215735
v -0.387338 2.784964 0.214208
v -0.394646 2.777065 0.207411
v -0.184723 2.679004 0.129956
v -0.387338 2.784964 0.214208
v -0.387801 2.776917 0.224058
v -0.184723 2.679004 0.129956
v -0.387801 2.776917 0.224058
v -0.185593 2.663889 0.148458
v -0.192022 2.664028 0.132823
v -0.184723 2.679004 0.129956
v -0.185593 2.663889 0.148458
v -0.391224 2.776991 0.215735
v -0.387801 2.776917 0.224058
v -0.387338 2.784964 0.214208
v -0.185593 2.663889 0.148458
v -0.387801 2.776917 0.224058
v -0.395110 2.769018 0.217261
v -0.185593 2.663889 0.148458
v -0.395110 2.769018 0.217261
v -0.199321 2.649052 0.135691
v -0.192022 2.664028 0.132823
v -0.185593 2.663889 0.148458
v -0.199321 2.649052 0.135691
v -0.391224 2.776991 0.215735
v -0.395110 2.769018 0.217261
v -0.387801 2.776917 0.224058
v -0.199321 2.649052 0.135691
v -0.395110 2.769018 0.217261
v -0.394646 2.777065 0.207411
v -0.199321 2.649052 0.135691
v -0.394646 2.777065 0.207411
v -0.198450 2.664168 0.117189
v -0.192022 2.664028 0.132823
v -0.199321 2.649052 0.135691
v -0.198450 2.664168 0.117189
v -0.391224 2.776991 0.215735
v -0.394646 2.777065 0.207411
v -0.395110 2.769018 0.217261
v -0.226222 2.683613 0.133040
v -0.469672 2.728654 0.105165
v -0.469413 2.737369 0.114438
v -0.226222 2.683613 0.133040
v -0.469413 2.737369 0.114438
v -0.225737 2.699982 0.150457
v -0.228732 2.683360 0.149755
v -0.226222 2.683613 0.133040
v -0.225737 2.699982 0.150457
v -0.471008 2.728519 0.114064
v -0.469413 2.737369 0.114438
v -0.469672 2.728654 0.105165
v -0.225737 2.699982 0.150457
v -0.469413 2.737369 0.114438
v -0.472344 2.728384 0.122964
v -0.225737 2.699982 0.150457
v -0.472344 2.728384 0.122964
v -0.231242 2.683107 0.166471
v -0.228732 2.683360 0.149755
v -0.225737 2.699982 0.150457
v -0.231242 2.683107 0.166471
v -0.471008 2.728519 0.114064
v -0.472344 2.728384 0.122964
v -0.469413 2.737369 0.114438
v -0.231242 2.683107 0.166471
v -0.472344 2.728384 0.122964
v -0.472602 2.719669 0.113691
v -0.231242 2.683107 0.166471
v -0.472602 2.719669 0.113691
v -0.231727 2.666737 0.149054
v -0.228732 2.683360 0.149755
v -0.231242 2.683107 0.166471
v -0.231727 2.666737 0.149054
v -0.471008 2.728519 0.114064
v -0.472602 2.719669 0.113691
v -0.472344 2.728384 0.122964
v -0.231727 2.666737 0.149054
v -0.472602 2.719669 0.113691
v -0.469672 2.728654 0.105165
v -0.231727 2.666737 0.149054
v -0.469672 2.728654 0.105165
v -0.226222 2.683613 0.133040
v -0.228732 2.683360 0.149755
v -0.231727 2.666737 0.149054
v -0.226222 2.683613 0.133040
v -0.471008 2.728519 0.114064
v -0.469672 2.728654 0.105165
v -0.472602 2.719669 0.113691
f 1 2 3
f 4 5 6
f 7 8 9
f 10 11 12
f 13 14 15
f 16 17 18
f 19 20 21
f 22 23 24
f 25 26 27
f 28 29 30
f 31 32 33
f 34 35 36
f 37 38 39
f 40 41 42
f 43 44 45
f 46 47 48
f 49 50 51
f 52 53 54
f 55 56 57
f 58 59 60
f 61 62 63
f 64 65 66
f 67 68 69
f 70 71 72
f 73 74 75
f 76 77 78
f 79 80 81
f 82 83 84
f 85 86 87
f 88 89 90
f 91 92 93
f 94 95 96
f 97 98 99
f 100 101 102
f 103 104 105
f 106 107 108
f 109 110 111
f 112 113 114
f 115 116 117
f 118 119 120
f 121 122 123
f 124 125 126
f 127 128 129
f 130 131 132
f 133 134 135
f 136 137 138
f 139 140 141
f 142 143 144
f 145 146 147
f 148 149 150
f 151 152 153
f 154 155 156
f 157 158 159
f 160 161 162
f 163 164 165
f 166 167 168
f 169 170 171
f 172 173 174
f 175 176 177
f 178 179 180
f 181 182 183
f 184 185 186
f 187 188 189
f 190 191 192
f 193 194 195
f 196 197 198
f 199 200 201
f 202 203 204
f 205 206 207
f 208 209 210
f 211 212 213
f 214 215 216
f 217 218 219
f 220 221 222
f 223 224 225
f 226 227 228
f 229 230 231
f 232 233 234
f 235 236 237
f 238 239 240
f 241 242 243
f 244 245 246
f 247 248 249
f 250 251 252
f 253 254 255
f 256 257 258
f 259 260 261
f 262 263 264
f 265 266 267
f 268 269 270
f 271 272 273
f 274 275 276
f 277 278 279
f 280 281 282
f 283 284 285
f 286 287 288
f 289 290 291
f 292 293 294
f 295 296 297
f 298 299 300
f 301 302 303
f 304 305 306
f 307 308 309
f 310 311 312
f 313 314 315
f 316 317 318
f 319 320 321
f 322 323 324
f 325 326 327
f 328 329 330
f 331 332 333
f 334 335 336
f 337 338 339
f 340 341 342
f 343 344 345
f 346 347 348
f 349 350 351
f 352 353 354
f 355 356 357
f 358 359 360
f 361 362 363
f 364 365 366
f 367 368 369
f 370 371 372
f 373 374 375
f 376 377 378
f 379 380 381
f 382 383 384
f 385 386 387
f 388 389 390
f 391 392 393
f 394 395 396
f 397 398 399
f 400 401 402
f 403 404 405
f 406 407 408
f 409 410 411
f 412 413 414
f 415 416 417
f 418 419 420
f 421 422 423
f 424 425 426
f 427 428 429
f 430 431 432
f 433 434 435
f 436 437 438
f 439 440 441
f 442 443 444
f 445 446 447
f 448 449 450
f 451 452 453
f 454 455 456
f 457 458 459
f 460 461 462
f 463 464 465
f 466 467 468
f 469 470 471
f 472 473 474
f 475 476 477
f 478 479 480
f 481 482 483
f 484 485 486
f 487 488 489
f 490 491 492
f 493 494 495
f 496 497 498
f 499 500 501
f 502 503 504
f 505 506 507
f 508 509 510
f 511 512 513
f 514 515 516
f 517 518 519
f 520 521 522
f 523 524 525
f 526 527 528
f 529 530 531
f 532 533 534
f 535 536 537
f 538 539 540
f 541 542 543
f 544 545 546
f 547 548 549
f 550 551 552
f 553 554 555
f 556 557 558
f 559 560 561
f 562 563 564
f 565 566 567
f 568 569 570
f 571 572 573
f 574 575 576
f 577 578 579
f 580 581 582
f 583 584 585
f 586 587 588
f 589 590 591
f 592 593 594
f 595 596 597
f 598 599 600
f 601 602 603
f 604 605 606
f 607 608 609
f 610 611 612
f 613 614 615
f 616 617 618
f 619 620 621
f 622 623 624
f 625 626 627
f 628 629 630
f 631 632 633
f 634 635 636
f 637 638 639
f 640 641 642
f 643 644 645
f 646 647 648
f 649 650 651
f 652 653 654
f 655 656 657
f 658 659 660
f 661 662 663
f 664 665 666
f 667 668 669
f 670 671 672
f 673 674 675
f 676 677 678
f 679 680 681
f 682 683 684
f 685 686 687
f 688 689 690
f 691 692 693
f 694 695 696
f 697 698 699
f 700 701 702
f 703 704 705
f 706 707 708
f 709 710 711
f 712 713 714
f 715 716 717
f 718 719 720
f 721 722 723
f 724 725 726
f 727 728 729
f 730 731 732
f 733 734 735
f 736 737 738
f 739 740 741
f 742 743 744
f 745 746 747
f 748 749 750
f 751 752 753
f 754 755 756
f 757 758 759
f 760 761 762
f 763 764 765
f 766 767 768
f 769 770 771
f 772 773 774
f 775 776 777
f 778 779 780
f 781 782 783
f 784 785 786
f 787 788 789
f 790 791 792
f 793 794 795
f 796 797 798
f 799 800 801
f 802 803 804
f 805 806 807
f 808 809 810
f 811 812 813
f 814 815 816
f 817 818 819
f 820 821 822
f 823 824 825
f 826 827 828
f 829 830 831
f 832 833 834
f 835 836 837
f 838 839 840
f 841 842 843
f 844 845 846
f 847 848 849
f 850 851 852
f 853 854 855
f 856 857 858
f 859 860 861
f 862 863 864
f 865 866 867
f 868 869 870
f 871 872 873
f 874 875 876
f 877 878 879
f 880 881 882
f 883 884 885
f 886 887 888
f 889 890 891
f 892 893 894
f 895 896 897
f 898 899 900
f 901 902 903
f 904 905 906
f 907 908 909
f 910 911 912
f 913 914 915
f 916 917 918
f 919 920 921
f 922 923 924
f 925 926 927
f 928 929 930
f 931 932 933
f 934 935 936
f 937 938 939
f 940 941 942
f 943 944 945
f 946 947 948
f 949 950 951
f 952 953 954
f 955 956 957
f 958 959 960
