# Pyramida editable prop source
# units: 1 OBJ unit = 1 Pyramida World Unit = 1 Blender metre

o TreeTrunk
v 0.060915 0.074267 0.097204
v 0.240727 0.020593 -0.015561
v 0.243186 0.043997 -0.040019
v 0.060915 0.074267 0.097204
v 0.243186 0.043997 -0.040019
v 0.071674 0.176661 -0.009800
v 0.043645 0.075529 -0.006358
v 0.060915 0.074267 0.097204
v 0.071674 0.176661 -0.009800
v 0.236780 0.020882 -0.039232
v 0.243186 0.043997 -0.040019
v 0.240727 0.020593 -0.015561
v 0.071674 0.176661 -0.009800
v 0.243186 0.043997 -0.040019
v 0.232832 0.021170 -0.062903
v 0.071674 0.176661 -0.009800
v 0.232832 0.021170 -0.062903
v 0.026374 0.076791 -0.109920
v 0.043645 0.075529 -0.006358
v 0.071674 0.176661 -0.009800
v 0.026374 0.076791 -0.109920
v 0.236780 0.020882 -0.039232
v 0.232832 0.021170 -0.062903
v 0.243186 0.043997 -0.040019
v 0.026374 0.076791 -0.109920
v 0.232832 0.021170 -0.062903
v 0.230373 -0.002234 -0.038445
v 0.026374 0.076791 -0.109920
v 0.230373 -0.002234 -0.038445
v 0.015616 -0.025602 -0.002916
v 0.043645 0.075529 -0.006358
v 0.026374 0.076791 -0.109920
v 0.015616 -0.025602 -0.002916
v 0.236780 0.020882 -0.039232
v 0.230373 -0.002234 -0.038445
v 0.232832 0.021170 -0.062903
v 0.015616 -0.025602 -0.002916
v 0.230373 -0.002234 -0.038445
v 0.240727 0.020593 -0.015561
v 0.015616 -0.025602 -0.002916
v 0.240727 0.020593 -0.015561
v 0.060915 0.074267 0.097204
v 0.043645 0.075529 -0.006358
v 0.015616 -0.025602 -0.002916
v 0.060915 0.074267 0.097204
v 0.236780 0.020882 -0.039232
v 0.240727 0.020593 -0.015561
v 0.230373 -0.002234 -0.038445
v -0.114844 0.073938 -0.004371
v -0.140026 0.013395 0.233235
v -0.121236 0.036631 0.249329
v -0.114844 0.073938 -0.004371
v -0.121236 0.036631 0.249329
v -0.032634 0.175594 0.066039
v -0.020398 0.074235 0.041509
v -0.114844 0.073938 -0.004371
v -0.032634 0.175594 0.066039
v -0.118439 0.013463 0.243722
v -0.121236 0.036631 0.249329
v -0.140026 0.013395 0.233235
v -0.032634 0.175594 0.066039
v -0.121236 0.036631 0.249329
v -0.096851 0.013531 0.254209
v -0.032634 0.175594 0.066039
v -0.096851 0.013531 0.254209
v 0.074047 0.074533 0.087389
v -0.020398 0.074235 0.041509
v -0.032634 0.175594 0.066039
v 0.074047 0.074533 0.087389
v -0.118439 0.013463 0.243722
v -0.096851 0.013531 0.254209
v -0.121236 0.036631 0.249329
v 0.074047 0.074533 0.087389
v -0.096851 0.013531 0.254209
v -0.115642 -0.009705 0.238115
v 0.074047 0.074533 0.087389
v -0.115642 -0.009705 0.238115
v -0.008163 -0.027123 0.016979
v -0.020398 0.074235 0.041509
v 0.074047 0.074533 0.087389
v -0.008163 -0.027123 0.016979
v -0.118439 0.013463 0.243722
v -0.115642 -0.009705 0.238115
v -0.096851 0.013531 0.254209
v -0.008163 -0.027123 0.016979
v -0.115642 -0.009705 0.238115
v -0.140026 0.013395 0.233235
v -0.008163 -0.027123 0.016979
v -0.140026 0.013395 0.233235
v -0.114844 0.073938 -0.004371
v -0.020398 0.074235 0.041509
v -0.008163 -0.027123 0.016979
v -0.114844 0.073938 -0.004371
v -0.118439 0.013463 0.243722
v -0.140026 0.013395 0.233235
v -0.115642 -0.009705 0.238115
v 0.069710 0.076928 -0.088868
v -0.123869 0.020590 -0.275400
v -0.147651 0.043685 -0.268117
v 0.069710 0.076928 -0.088868
v -0.147651 0.043685 -0.268117
v -0.034335 0.177969 -0.057005
v -0.022365 0.075322 -0.038425
v 0.069710 0.076928 -0.088868
v -0.034335 0.177969 -0.057005
v -0.144915 0.020222 -0.263870
v -0.147651 0.043685 -0.268117
v -0.123869 0.020590 -0.275400
v -0.034335 0.177969 -0.057005
v -0.147651 0.043685 -0.268117
v -0.165961 0.019855 -0.252340
v -0.034335 0.177969 -0.057005
v -0.165961 0.019855 -0.252340
v -0.114440 0.073715 0.012019
v -0.022365 0.075322 -0.038425
v -0.034335 0.177969 -0.057005
v -0.114440 0.073715 0.012019
v -0.144915 0.020222 -0.263870
v -0.165961 0.019855 -0.252340
v -0.147651 0.043685 -0.268117
v -0.114440 0.073715 0.012019
v -0.165961 0.019855 -0.252340
v -0.142179 -0.003240 -0.259623
v -0.114440 0.073715 0.012019
v -0.142179 -0.003240 -0.259623
v -0.010395 -0.027326 -0.019844
v -0.022365 0.075322 -0.038425
v -0.114440 0.073715 0.012019
v -0.010395 -0.027326 -0.019844
v -0.144915 0.020222 -0.263870
v -0.142179 -0.003240 -0.259623
v -0.165961 0.019855 -0.252340
v -0.010395 -0.027326 -0.019844
v -0.142179 -0.003240 -0.259623
v -0.123869 0.020590 -0.275400
v -0.010395 -0.027326 -0.019844
v -0.123869 0.020590 -0.275400
v 0.069710 0.076928 -0.088868
v -0.022365 0.075322 -0.038425
v -0.010395 -0.027326 -0.019844
v 0.069710 0.076928 -0.088868
v -0.144915 0.020222 -0.263870
v -0.123869 0.020590 -0.275400
v -0.142179 -0.003240 -0.259623
v -0.000087 0.010983 -0.159623
v 0.018155 1.008411 -0.062603
v 0.132198 1.001827 0.002871
v -0.000087 0.010983 -0.159623
v 0.132198 1.001827 0.002871
v 0.138498 0.002982 -0.080059
v 0.000000 0.000000 0.000000
v -0.000087 0.010983 -0.159623
v 0.138498 0.002982 -0.080059
v 0.138498 0.002982 -0.080059
v 0.132198 1.001827 0.002871
v 0.132270 0.992789 0.134227
v 0.138498 0.002982 -0.080059
v 0.132270 0.992789 0.134227
v 0.138584 -0.008001 0.079563
v 0.000000 0.000000 0.000000
v 0.138498 0.002982 -0.080059
v 0.138584 -0.008001 0.079563
v 0.138584 -0.008001 0.079563
v 0.132270 0.992789 0.134227
v 0.018297 0.990335 0.200109
v 0.138584 -0.008001 0.079563
v 0.018297 0.990335 0.200109
v 0.000087 -0.010983 0.159623
v 0.000000 0.000000 0.000000
v 0.138584 -0.008001 0.079563
v 0.000087 -0.010983 0.159623
v 0.000087 -0.010983 0.159623
v 0.018297 0.990335 0.200109
v -0.095746 0.996919 0.134635
v 0.000087 -0.010983 0.159623
v -0.095746 0.996919 0.134635
v -0.138498 -0.002982 0.080059
v 0.000000 0.000000 0.000000
v 0.000087 -0.010983 0.159623
v -0.138498 -0.002982 0.080059
v -0.138498 -0.002982 0.080059
v -0.095746 0.996919 0.134635
v -0.095817 1.005957 0.003279
v -0.138498 -0.002982 0.080059
v -0.095817 1.005957 0.003279
v -0.138584 0.008001 -0.079563
v 0.000000 0.000000 0.000000
v -0.138498 -0.002982 0.080059
v -0.138584 0.008001 -0.079563
v -0.138584 0.008001 -0.079563
v -0.095817 1.005957 0.003279
v 0.018155 1.008411 -0.062603
v -0.138584 0.008001 -0.079563
v 0.018155 1.008411 -0.062603
v -0.000087 0.010983 -0.159623
v 0.000000 0.000000 0.000000
v -0.138584 0.008001 -0.079563
v -0.000087 0.010983 -0.159623
v 0.018284 0.995325 -0.062851
v 0.066968 1.997246 -0.065306
v 0.156329 1.994492 -0.013490
v 0.018284 0.995325 -0.062851
v 0.156329 1.994492 -0.013490
v 0.132147 0.991815 0.003171
v 0.066923 2.000424 0.037979
v 0.156329 1.994492 -0.013490
v 0.066968 1.997246 -0.065306
v 0.132147 0.991815 0.003171
v 0.156329 1.994492 -0.013490
v 0.156284 1.997670 0.089794
v 0.132147 0.991815 0.003171
v 0.156284 1.997670 0.089794
v 0.132089 0.995864 0.134776
v 0.066923 2.000424 0.037979
v 0.156284 1.997670 0.089794
v 0.156329 1.994492 -0.013490
v 0.132089 0.995864 0.134776
v 0.156284 1.997670 0.089794
v 0.066877 2.003601 0.141263
v 0.132089 0.995864 0.134776
v 0.066877 2.003601 0.141263
v 0.018168 1.003422 0.200357
v 0.066923 2.000424 0.037979
v 0.066877 2.003601 0.141263
v 0.156284 1.997670 0.089794
v 0.018168 1.003422 0.200357
v 0.066877 2.003601 0.141263
v -0.022484 2.006355 0.089448
v 0.018168 1.003422 0.200357
v -0.022484 2.006355 0.089448
v -0.095695 1.006931 0.134335
v 0.066923 2.000424 0.037979
v -0.022484 2.006355 0.089448
v 0.066877 2.003601 0.141263
v -0.095695 1.006931 0.134335
v -0.022484 2.006355 0.089448
v -0.022438 2.003178 -0.013836
v -0.095695 1.006931 0.134335
v -0.022438 2.003178 -0.013836
v -0.095637 1.002882 0.002731
v 0.066923 2.000424 0.037979
v -0.022438 2.003178 -0.013836
v -0.022484 2.006355 0.089448
v -0.095637 1.002882 0.002731
v -0.022438 2.003178 -0.013836
v 0.066968 1.997246 -0.065306
v -0.095637 1.002882 0.002731
v 0.066968 1.997246 -0.065306
v 0.018284 0.995325 -0.062851
v 0.066923 2.000424 0.037979
v 0.066968 1.997246 -0.065306
v -0.022438 2.003178 -0.013836
v 0.072042 1.614161 0.003527
v -0.372583 1.859636 -0.187504
v -0.373952 1.878792 -0.163175
v 0.072042 1.614161 0.003527
v -0.373952 1.878792 -0.163175
v 0.068783 1.659770 0.061453
v 0.048090 1.613283 0.049880
v 0.072042 1.614161 0.003527
v 0.068783 1.659770 0.061453
v -0.382643 1.859267 -0.168036
v -0.373952 1.878792 -0.163175
v -0.372583 1.859636 -0.187504
v 0.068783 1.659770 0.061453
v -0.373952 1.878792 -0.163175
v -0.392703 1.858899 -0.148567
v 0.068783 1.659770 0.061453
v -0.392703 1.858899 -0.148567
v 0.024138 1.612406 0.096234
v 0.048090 1.613283 0.049880
v 0.068783 1.659770 0.061453
v 0.024138 1.612406 0.096234
v -0.382643 1.859267 -0.168036
v -0.392703 1.858899 -0.148567
v -0.373952 1.878792 -0.163175
v 0.024138 1.612406 0.096234
v -0.392703 1.858899 -0.148567
v -0.391334 1.839743 -0.172896
v 0.024138 1.612406 0.096234
v -0.391334 1.839743 -0.172896
v 0.027397 1.566797 0.038308
v 0.048090 1.613283 0.049880
v 0.024138 1.612406 0.096234
v 0.027397 1.566797 0.038308
v -0.382643 1.859267 -0.168036
v -0.391334 1.839743 -0.172896
v -0.392703 1.858899 -0.148567
v 0.027397 1.566797 0.038308
v -0.391334 1.839743 -0.172896
v -0.372583 1.859636 -0.187504
v 0.027397 1.566797 0.038308
v -0.372583 1.859636 -0.187504
v 0.072042 1.614161 0.003527
v 0.048090 1.613283 0.049880
v 0.027397 1.566797 0.038308
v 0.072042 1.614161 0.003527
v -0.382643 1.859267 -0.168036
v -0.372583 1.859636 -0.187504
v -0.391334 1.839743 -0.172896
v -0.191206 1.760923 -0.095806
v -0.353184 1.892339 -0.265807
v -0.357433 1.900035 -0.256603
v -0.191206 1.760923 -0.095806
v -0.357433 1.900035 -0.256603
v -0.202540 1.781450 -0.071258
v -0.209747 1.760529 -0.080564
v -0.191206 1.760923 -0.095806
v -0.202540 1.781450 -0.071258
v -0.360135 1.892191 -0.260093
v -0.357433 1.900035 -0.256603
v -0.353184 1.892339 -0.265807
v -0.202540 1.781450 -0.071258
v -0.357433 1.900035 -0.256603
v -0.367086 1.892044 -0.254378
v -0.202540 1.781450 -0.071258
v -0.367086 1.892044 -0.254378
v -0.228287 1.760136 -0.065322
v -0.209747 1.760529 -0.080564
v -0.202540 1.781450 -0.071258
v -0.228287 1.760136 -0.065322
v -0.360135 1.892191 -0.260093
v -0.367086 1.892044 -0.254378
v -0.357433 1.900035 -0.256603
v -0.228287 1.760136 -0.065322
v -0.367086 1.892044 -0.254378
v -0.362837 1.884348 -0.263582
v -0.228287 1.760136 -0.065322
v -0.362837 1.884348 -0.263582
v -0.216953 1.739609 -0.089870
v -0.209747 1.760529 -0.080564
v -0.228287 1.760136 -0.065322
v -0.216953 1.739609 -0.089870
v -0.360135 1.892191 -0.260093
v -0.362837 1.884348 -0.263582
v -0.367086 1.892044 -0.254378
v -0.216953 1.739609 -0.089870
v -0.362837 1.884348 -0.263582
v -0.353184 1.892339 -0.265807
v -0.216953 1.739609 -0.089870
v -0.353184 1.892339 -0.265807
v -0.191206 1.760923 -0.095806
v -0.209747 1.760529 -0.080564
v -0.216953 1.739609 -0.089870
v -0.191206 1.760923 -0.095806
v -0.360135 1.892191 -0.260093
v -0.353184 1.892339 -0.265807
v -0.362837 1.884348 -0.263582
v -0.224376 1.782723 -0.103536
v -0.259903 1.845919 -0.234169
v -0.268329 1.853953 -0.229025
v -0.224376 1.782723 -0.103536
v -0.268329 1.853953 -0.229025
v -0.246848 1.804151 -0.089815
v -0.248113 1.782439 -0.099974
v -0.224376 1.782723 -0.103536
v -0.246848 1.804151 -0.089815
v -0.268803 1.845813 -0.232834
v -0.268329 1.853953 -0.229025
v -0.259903 1.845919 -0.234169
v -0.246848 1.804151 -0.089815
v -0.268329 1.853953 -0.229025
v -0.277703 1.845707 -0.231499
v -0.246848 1.804151 -0.089815
v -0.277703 1.845707 -0.231499
v -0.271850 1.782156 -0.096413
v -0.248113 1.782439 -0.099974
v -0.246848 1.804151 -0.089815
v -0.271850 1.782156 -0.096413
v -0.268803 1.845813 -0.232834
v -0.277703 1.845707 -0.231499
v -0.268329 1.853953 -0.229025
v -0.271850 1.782156 -0.096413
v -0.277703 1.845707 -0.231499
v -0.269277 1.837673 -0.236643
v -0.271850 1.782156 -0.096413
v -0.269277 1.837673 -0.236643
v -0.249378 1.760728 -0.110134
v -0.248113 1.782439 -0.099974
v -0.271850 1.782156 -0.096413
v -0.249378 1.760728 -0.110134
v -0.268803 1.845813 -0.232834
v -0.269277 1.837673 -0.236643
v -0.277703 1.845707 -0.231499
v -0.249378 1.760728 -0.110134
v -0.269277 1.837673 -0.236643
v -0.259903 1.845919 -0.234169
v -0.249378 1.760728 -0.110134
v -0.259903 1.845919 -0.234169
v -0.224376 1.782723 -0.103536
v -0.248113 1.782439 -0.099974
v -0.249378 1.760728 -0.110134
v -0.224376 1.782723 -0.103536
v -0.268803 1.845813 -0.232834
v -0.259903 1.845919 -0.234169
v -0.269277 1.837673 -0.236643
v -0.294470 1.804584 -0.142019
v -0.446529 1.884948 -0.071592
v -0.439818 1.892966 -0.064334
v -0.294470 1.804584 -0.142019
v -0.439818 1.892966 -0.064334
v -0.276571 1.825967 -0.122659
v -0.286479 1.804350 -0.119385
v -0.294470 1.804584 -0.142019
v -0.276571 1.825967 -0.122659
v -0.443533 1.884861 -0.063106
v -0.439818 1.892966 -0.064334
v -0.446529 1.884948 -0.071592
v -0.276571 1.825967 -0.122659
v -0.439818 1.892966 -0.064334
v -0.440537 1.884773 -0.054620
v -0.276571 1.825967 -0.122659
v -0.440537 1.884773 -0.054620
v -0.278488 1.804116 -0.096751
v -0.286479 1.804350 -0.119385
v -0.276571 1.825967 -0.122659
v -0.278488 1.804116 -0.096751
v -0.443533 1.884861 -0.063106
v -0.440537 1.884773 -0.054620
v -0.439818 1.892966 -0.064334
v -0.278488 1.804116 -0.096751
v -0.440537 1.884773 -0.054620
v -0.447248 1.876756 -0.061878
v -0.278488 1.804116 -0.096751
v -0.447248 1.876756 -0.061878
v -0.296387 1.782733 -0.116110
v -0.286479 1.804350 -0.119385
v -0.278488 1.804116 -0.096751
v -0.296387 1.782733 -0.116110
v -0.443533 1.884861 -0.063106
v -0.447248 1.876756 -0.061878
v -0.440537 1.884773 -0.054620
v -0.296387 1.782733 -0.116110
v -0.447248 1.876756 -0.061878
v -0.446529 1.884948 -0.071592
v -0.296387 1.782733 -0.116110
v -0.446529 1.884948 -0.071592
v -0.294470 1.804584 -0.142019
v -0.286479 1.804350 -0.119385
v -0.296387 1.782733 -0.116110
v -0.294470 1.804584 -0.142019
v -0.443533 1.884861 -0.063106
v -0.446529 1.884948 -0.071592
v -0.447248 1.876756 -0.061878
v 0.101821 1.721432 0.065868
v 0.188479 1.851138 -0.234970
v 0.164923 1.871280 -0.235276
v 0.101821 1.721432 0.065868
v 0.164923 1.871280 -0.235276
v 0.045733 1.769389 0.065138
v 0.053341 1.721221 0.046562
v 0.101821 1.721432 0.065868
v 0.045733 1.769389 0.065138
v 0.168118 1.851049 -0.243078
v 0.164923 1.871280 -0.235276
v 0.188479 1.851138 -0.234970
v 0.045733 1.769389 0.065138
v 0.164923 1.871280 -0.235276
v 0.147756 1.850961 -0.251187
v 0.045733 1.769389 0.065138
v 0.147756 1.850961 -0.251187
v 0.004861 1.721009 0.027256
v 0.053341 1.721221 0.046562
v 0.045733 1.769389 0.065138
v 0.004861 1.721009 0.027256
v 0.168118 1.851049 -0.243078
v 0.147756 1.850961 -0.251187
v 0.164923 1.871280 -0.235276
v 0.004861 1.721009 0.027256
v 0.147756 1.850961 -0.251187
v 0.171313 1.830819 -0.250880
v 0.004861 1.721009 0.027256
v 0.171313 1.830819 -0.250880
v 0.060948 1.673053 0.027986
v 0.053341 1.721221 0.046562
v 0.004861 1.721009 0.027256
v 0.060948 1.673053 0.027986
v 0.168118 1.851049 -0.243078
v 0.171313 1.830819 -0.250880
v 0.147756 1.850961 -0.251187
v 0.060948 1.673053 0.027986
v 0.171313 1.830819 -0.250880
v 0.188479 1.851138 -0.234970
v 0.060948 1.673053 0.027986
v 0.188479 1.851138 -0.234970
v 0.101821 1.721432 0.065868
v 0.053341 1.721221 0.046562
v 0.060948 1.673053 0.027986
v 0.101821 1.721432 0.065868
v 0.168118 1.851049 -0.243078
v 0.188479 1.851138 -0.234970
v 0.171313 1.830819 -0.250880
v 0.132976 1.784491 -0.091698
v 0.136945 1.891168 -0.286918
v 0.127485 1.898982 -0.283532
v 0.132976 1.784491 -0.091698
v 0.127485 1.898982 -0.283532
v 0.107747 1.805331 -0.082668
v 0.109097 1.784289 -0.094139
v 0.132976 1.784491 -0.091698
v 0.107747 1.805331 -0.082668
v 0.127992 1.891092 -0.287833
v 0.127485 1.898982 -0.283532
v 0.136945 1.891168 -0.286918
v 0.107747 1.805331 -0.082668
v 0.127485 1.898982 -0.283532
v 0.119039 1.891016 -0.288748
v 0.107747 1.805331 -0.082668
v 0.119039 1.891016 -0.288748
v 0.085218 1.784087 -0.096579
v 0.109097 1.784289 -0.094139
v 0.107747 1.805331 -0.082668
v 0.085218 1.784087 -0.096579
v 0.127992 1.891092 -0.287833
v 0.119039 1.891016 -0.288748
v 0.127485 1.898982 -0.283532
v 0.085218 1.784087 -0.096579
v 0.119039 1.891016 -0.288748
v 0.128498 1.883203 -0.292134
v 0.085218 1.784087 -0.096579
v 0.128498 1.883203 -0.292134
v 0.110447 1.763246 -0.105610
v 0.109097 1.784289 -0.094139
v 0.085218 1.784087 -0.096579
v 0.110447 1.763246 -0.105610
v 0.127992 1.891092 -0.287833
v 0.128498 1.883203 -0.292134
v 0.119039 1.891016 -0.288748
v 0.110447 1.763246 -0.105610
v 0.128498 1.883203 -0.292134
v 0.136945 1.891168 -0.286918
v 0.110447 1.763246 -0.105610
v 0.136945 1.891168 -0.286918
v 0.132976 1.784491 -0.091698
v 0.109097 1.784289 -0.094139
v 0.110447 1.763246 -0.105610
v 0.132976 1.784491 -0.091698
v 0.127992 1.891092 -0.287833
v 0.136945 1.891168 -0.286918
v 0.128498 1.883203 -0.292134
v 0.138561 1.795844 -0.105585
v 0.260796 1.924700 -0.294463
v 0.250905 1.932508 -0.296252
v 0.138561 1.795844 -0.105585
v 0.250905 1.932508 -0.296252
v 0.112181 1.816671 -0.110355
v 0.119320 1.795853 -0.119938
v 0.138561 1.795844 -0.105585
v 0.112181 1.816671 -0.110355
v 0.253582 1.924703 -0.299844
v 0.250905 1.932508 -0.296252
v 0.260796 1.924700 -0.294463
v 0.112181 1.816671 -0.110355
v 0.250905 1.932508 -0.296252
v 0.246368 1.924706 -0.305226
v 0.112181 1.816671 -0.110355
v 0.246368 1.924706 -0.305226
v 0.100080 1.795861 -0.134290
v 0.119320 1.795853 -0.119938
v 0.112181 1.816671 -0.110355
v 0.100080 1.795861 -0.134290
v 0.253582 1.924703 -0.299844
v 0.246368 1.924706 -0.305226
v 0.250905 1.932508 -0.296252
v 0.100080 1.795861 -0.134290
v 0.246368 1.924706 -0.305226
v 0.256258 1.916897 -0.303437
v 0.100080 1.795861 -0.134290
v 0.256258 1.916897 -0.303437
v 0.126459 1.775034 -0.129520
v 0.119320 1.795853 -0.119938
v 0.100080 1.795861 -0.134290
v 0.126459 1.775034 -0.129520
v 0.253582 1.924703 -0.299844
v 0.256258 1.916897 -0.303437
v 0.246368 1.924706 -0.305226
v 0.126459 1.775034 -0.129520
v 0.256258 1.916897 -0.303437
v 0.260796 1.924700 -0.294463
v 0.126459 1.775034 -0.129520
v 0.260796 1.924700 -0.294463
v 0.138561 1.795844 -0.105585
v 0.119320 1.795853 -0.119938
v 0.126459 1.775034 -0.129520
v 0.138561 1.795844 -0.105585
v 0.253582 1.924703 -0.299844
v 0.260796 1.924700 -0.294463
v 0.256258 1.916897 -0.303437
v 0.044159 1.828322 0.093385
v 0.401886 1.993025 0.167595
v 0.399203 2.013353 0.144352
v 0.044159 1.828322 0.093385
v 0.399203 2.013353 0.144352
v 0.037770 1.876724 0.038044
v 0.058591 1.829158 0.043244
v 0.044159 1.828322 0.093385
v 0.037770 1.876724 0.038044
v 0.407948 1.993376 0.146536
v 0.399203 2.013353 0.144352
v 0.401886 1.993025 0.167595
v 0.037770 1.876724 0.038044
v 0.399203 2.013353 0.144352
v 0.414009 1.993727 0.125477
v 0.037770 1.876724 0.038044
v 0.414009 1.993727 0.125477
v 0.073023 1.829994 -0.006897
v 0.058591 1.829158 0.043244
v 0.037770 1.876724 0.038044
v 0.073023 1.829994 -0.006897
v 0.407948 1.993376 0.146536
v 0.414009 1.993727 0.125477
v 0.399203 2.013353 0.144352
v 0.073023 1.829994 -0.006897
v 0.414009 1.993727 0.125477
v 0.416693 1.973398 0.148720
v 0.073023 1.829994 -0.006897
v 0.416693 1.973398 0.148720
v 0.079413 1.781592 0.048444
v 0.058591 1.829158 0.043244
v 0.073023 1.829994 -0.006897
v 0.079413 1.781592 0.048444
v 0.407948 1.993376 0.146536
v 0.416693 1.973398 0.148720
v 0.414009 1.993727 0.125477
v 0.079413 1.781592 0.048444
v 0.416693 1.973398 0.148720
v 0.401886 1.993025 0.167595
v 0.079413 1.781592 0.048444
v 0.401886 1.993025 0.167595
v 0.044159 1.828322 0.093385
v 0.058591 1.829158 0.043244
v 0.079413 1.781592 0.048444
v 0.044159 1.828322 0.093385
v 0.407948 1.993376 0.146536
v 0.401886 1.993025 0.167595
v 0.416693 1.973398 0.148720
v 0.336744 1.952703 0.139691
v 0.449088 2.032542 0.030063
v 0.440271 2.040599 0.025663
v 0.336744 1.952703 0.139691
v 0.440271 2.040599 0.025663
v 0.313229 1.974193 0.127958
v 0.321655 1.952813 0.121022
v 0.336744 1.952703 0.139691
v 0.313229 1.974193 0.127958
v 0.443430 2.032583 0.023063
v 0.440271 2.040599 0.025663
v 0.449088 2.032542 0.030063
v 0.313229 1.974193 0.127958
v 0.440271 2.040599 0.025663
v 0.437773 2.032624 0.016064
v 0.313229 1.974193 0.127958
v 0.437773 2.032624 0.016064
v 0.306566 1.952922 0.102354
v 0.321655 1.952813 0.121022
v 0.313229 1.974193 0.127958
v 0.306566 1.952922 0.102354
v 0.443430 2.032583 0.023063
v 0.437773 2.032624 0.016064
v 0.440271 2.040599 0.025663
v 0.306566 1.952922 0.102354
v 0.437773 2.032624 0.016064
v 0.446589 2.024566 0.020463
v 0.306566 1.952922 0.102354
v 0.446589 2.024566 0.020463
v 0.330081 1.931433 0.114087
v 0.321655 1.952813 0.121022
v 0.306566 1.952922 0.102354
v 0.330081 1.931433 0.114087
v 0.443430 2.032583 0.023063
v 0.446589 2.024566 0.020463
v 0.437773 2.032624 0.016064
v 0.330081 1.931433 0.114087
v 0.446589 2.024566 0.020463
v 0.449088 2.032542 0.030063
v 0.330081 1.931433 0.114087
v 0.449088 2.032542 0.030063
v 0.336744 1.952703 0.139691
v 0.321655 1.952813 0.121022
v 0.330081 1.931433 0.114087
v 0.336744 1.952703 0.139691
v 0.443430 2.032583 0.023063
v 0.449088 2.032542 0.030063
v 0.446589 2.024566 0.020463
v 0.223369 1.904736 0.114733
v 0.406471 2.005405 0.074901
v 0.401003 2.013442 0.066685
v 0.223369 1.904736 0.114733
v 0.401003 2.013442 0.066685
v 0.208784 1.926171 0.092820
v 0.220004 1.905031 0.090968
v 0.223369 1.904736 0.114733
v 0.208784 1.926171 0.092820
v 0.405210 2.005516 0.065990
v 0.401003 2.013442 0.066685
v 0.406471 2.005405 0.074901
v 0.208784 1.926171 0.092820
v 0.401003 2.013442 0.066685
v 0.403948 2.005627 0.057080
v 0.208784 1.926171 0.092820
v 0.403948 2.005627 0.057080
v 0.216639 1.905326 0.067202
v 0.220004 1.905031 0.090968
v 0.208784 1.926171 0.092820
v 0.216639 1.905326 0.067202
v 0.405210 2.005516 0.065990
v 0.403948 2.005627 0.057080
v 0.401003 2.013442 0.066685
v 0.216639 1.905326 0.067202
v 0.403948 2.005627 0.057080
v 0.409416 1.997590 0.065296
v 0.216639 1.905326 0.067202
v 0.409416 1.997590 0.065296
v 0.231224 1.883891 0.089116
v 0.220004 1.905031 0.090968
v 0.216639 1.905326 0.067202
v 0.231224 1.883891 0.089116
v 0.405210 2.005516 0.065990
v 0.409416 1.997590 0.065296
v 0.403948 2.005627 0.057080
v 0.231224 1.883891 0.089116
v 0.409416 1.997590 0.065296
v 0.406471 2.005405 0.074901
v 0.231224 1.883891 0.089116
v 0.406471 2.005405 0.074901
v 0.223369 1.904736 0.114733
v 0.220004 1.905031 0.090968
v 0.231224 1.883891 0.089116
v 0.223369 1.904736 0.114733
v 0.405210 2.005516 0.065990
v 0.406471 2.005405 0.074901
v 0.409416 1.997590 0.065296
f 1 2 3
f 4 5 6
f 7 8 9
f 10 11 12
f 13 14 15
f 16 17 18
f 19 20 21
f 22 23 24
f 25 26 27
f 28 29 30
f 31 32 33
f 34 35 36
f 37 38 39
f 40 41 42
f 43 44 45
f 46 47 48
f 49 50 51
f 52 53 54
f 55 56 57
f 58 59 60
f 61 62 63
f 64 65 66
f 67 68 69
f 70 71 72
f 73 74 75
f 76 77 78
f 79 80 81
f 82 83 84
f 85 86 87
f 88 89 90
f 91 92 93
f 94 95 96
f 97 98 99
f 100 101 102
f 103 104 105
f 106 107 108
f 109 110 111
f 112 113 114
f 115 116 117
f 118 119 120
f 121 122 123
f 124 125 126
f 127 128 129
f 130 131 132
f 133 134 135
f 136 137 138
f 139 140 141
f 142 143 144
f 145 146 147
f 148 149 150
f 151 152 153
f 154 155 156
f 157 158 159
f 160 161 162
f 163 164 165
f 166 167 168
f 169 170 171
f 172 173 174
f 175 176 177
f 178 179 180
f 181 182 183
f 184 185 186
f 187 188 189
f 190 191 192
f 193 194 195
f 196 197 198
f 199 200 201
f 202 203 204
f 205 206 207
f 208 209 210
f 211 212 213
f 214 215 216
f 217 218 219
f 220 221 222
f 223 224 225
f 226 227 228
f 229 230 231
f 232 233 234
f 235 236 237
f 238 239 240
f 241 242 243
f 244 245 246
f 247 248 249
f 250 251 252
f 253 254 255
f 256 257 258
f 259 260 261
f 262 263 264
f 265 266 267
f 268 269 270
f 271 272 273
f 274 275 276
f 277 278 279
f 280 281 282
f 283 284 285
f 286 287 288
f 289 290 291
f 292 293 294
f 295 296 297
f 298 299 300
f 301 302 303
f 304 305 306
f 307 308 309
f 310 311 312
f 313 314 315
f 316 317 318
f 319 320 321
f 322 323 324
f 325 326 327
f 328 329 330
f 331 332 333
f 334 335 336
f 337 338 339
f 340 341 342
f 343 344 345
f 346 347 348
f 349 350 351
f 352 353 354
f 355 356 357
f 358 359 360
f 361 362 363
f 364 365 366
f 367 368 369
f 370 371 372
f 373 374 375
f 376 377 378
f 379 380 381
f 382 383 384
f 385 386 387
f 388 389 390
f 391 392 393
f 394 395 396
f 397 398 399
f 400 401 402
f 403 404 405
f 406 407 408
f 409 410 411
f 412 413 414
f 415 416 417
f 418 419 420
f 421 422 423
f 424 425 426
f 427 428 429
f 430 431 432
f 433 434 435
f 436 437 438
f 439 440 441
f 442 443 444
f 445 446 447
f 448 449 450
f 451 452 453
f 454 455 456
f 457 458 459
f 460 461 462
f 463 464 465
f 466 467 468
f 469 470 471
f 472 473 474
f 475 476 477
f 478 479 480
f 481 482 483
f 484 485 486
f 487 488 489
f 490 491 492
f 493 494 495
f 496 497 498
f 499 500 501
f 502 503 504
f 505 506 507
f 508 509 510
f 511 512 513
f 514 515 516
f 517 518 519
f 520 521 522
f 523 524 525
f 526 527 528
f 529 530 531
f 532 533 534
f 535 536 537
f 538 539 540
f 541 542 543
f 544 545 546
f 547 548 549
f 550 551 552
f 553 554 555
f 556 557 558
f 559 560 561
f 562 563 564
f 565 566 567
f 568 569 570
f 571 572 573
f 574 575 576
f 577 578 579
f 580 581 582
f 583 584 585
f 586 587 588
f 589 590 591
f 592 593 594
f 595 596 597
f 598 599 600
f 601 602 603
f 604 605 606
f 607 608 609
f 610 611 612
f 613 614 615
f 616 617 618
f 619 620 621
f 622 623 624
f 625 626 627
f 628 629 630
f 631 632 633
f 634 635 636
f 637 638 639
f 640 641 642
f 643 644 645
f 646 647 648
f 649 650 651
f 652 653 654
f 655 656 657
f 658 659 660
f 661 662 663
f 664 665 666
f 667 668 669
f 670 671 672
f 673 674 675
f 676 677 678
f 679 680 681
f 682 683 684
f 685 686 687
f 688 689 690
f 691 692 693
f 694 695 696
f 697 698 699
f 700 701 702
f 703 704 705
f 706 707 708
f 709 710 711
f 712 713 714
f 715 716 717
f 718 719 720
f 721 722 723
f 724 725 726
f 727 728 729
f 730 731 732
