# Pyramida editable prop source
# units: 1 OBJ unit = 1 Pyramida World Unit = 1 Blender metre

o TreeTrunk
v 0.060916 0.074267 0.097204
v 0.240727 0.020592 -0.015561
v 0.243186 0.043996 -0.040019
v 0.060916 0.074267 0.097204
v 0.243186 0.043996 -0.040019
v 0.071675 0.176660 -0.009800
v 0.043645 0.075529 -0.006358
v 0.060916 0.074267 0.097204
v 0.071675 0.176660 -0.009800
v 0.236780 0.020881 -0.039232
v 0.243186 0.043996 -0.040019
v 0.240727 0.020592 -0.015561
v 0.071675 0.176660 -0.009800
v 0.243186 0.043996 -0.040019
v 0.232832 0.021169 -0.062903
v 0.071675 0.176660 -0.009800
v 0.232832 0.021169 -0.062903
v 0.026375 0.076791 -0.109920
v 0.043645 0.075529 -0.006358
v 0.071675 0.176660 -0.009800
v 0.026375 0.076791 -0.109920
v 0.236780 0.020881 -0.039232
v 0.232832 0.021169 -0.062903
v 0.243186 0.043996 -0.040019
v 0.026375 0.076791 -0.109920
v 0.232832 0.021169 -0.062903
v 0.230373 -0.002235 -0.038445
v 0.026375 0.076791 -0.109920
v 0.230373 -0.002235 -0.038445
v 0.015615 -0.025602 -0.002916
v 0.043645 0.075529 -0.006358
v 0.026375 0.076791 -0.109920
v 0.015615 -0.025602 -0.002916
v 0.236780 0.020881 -0.039232
v 0.230373 -0.002235 -0.038445
v 0.232832 0.021169 -0.062903
v 0.015615 -0.025602 -0.002916
v 0.230373 -0.002235 -0.038445
v 0.240727 0.020592 -0.015561
v 0.015615 -0.025602 -0.002916
v 0.240727 0.020592 -0.015561
v 0.060916 0.074267 0.097204
v 0.043645 0.075529 -0.006358
v 0.015615 -0.025602 -0.002916
v 0.060916 0.074267 0.097204
v 0.236780 0.020881 -0.039232
v 0.240727 0.020592 -0.015561
v 0.230373 -0.002235 -0.038445
v -0.114843 0.073939 -0.004371
v -0.140026 0.013395 0.233235
v -0.121235 0.036631 0.249329
v -0.114843 0.073939 -0.004371
v -0.121235 0.036631 0.249329
v -0.032633 0.175594 0.066039
v -0.020398 0.074235 0.041509
v -0.114843 0.073939 -0.004371
v -0.032633 0.175594 0.066039
v -0.118439 0.013463 0.243722
v -0.121235 0.036631 0.249329
v -0.140026 0.013395 0.233235
v -0.032633 0.175594 0.066039
v -0.121235 0.036631 0.249329
v -0.096851 0.013531 0.254209
v -0.032633 0.175594 0.066039
v -0.096851 0.013531 0.254209
v 0.074047 0.074532 0.087389
v -0.020398 0.074235 0.041509
v -0.032633 0.175594 0.066039
v 0.074047 0.074532 0.087389
v -0.118439 0.013463 0.243722
v -0.096851 0.013531 0.254209
v -0.121235 0.036631 0.249329
v 0.074047 0.074532 0.087389
v -0.096851 0.013531 0.254209
v -0.115642 -0.009705 0.238115
v 0.074047 0.074532 0.087389
v -0.115642 -0.009705 0.238115
v -0.008163 -0.027123 0.016979
v -0.020398 0.074235 0.041509
v 0.074047 0.074532 0.087389
v -0.008163 -0.027123 0.016979
v -0.118439 0.013463 0.243722
v -0.115642 -0.009705 0.238115
v -0.096851 0.013531 0.254209
v -0.008163 -0.027123 0.016979
v -0.115642 -0.009705 0.238115
v -0.140026 0.013395 0.233235
v -0.008163 -0.027123 0.016979
v -0.140026 0.013395 0.233235
v -0.114843 0.073939 -0.004371
v -0.020398 0.074235 0.041509
v -0.008163 -0.027123 0.016979
v -0.114843 0.073939 -0.004371
v -0.118439 0.013463 0.243722
v -0.140026 0.013395 0.233235
v -0.115642 -0.009705 0.238115
v 0.069710 0.076928 -0.088868
v -0.123869 0.020590 -0.275400
v -0.147651 0.043685 -0.268117
v 0.069710 0.076928 -0.088868
v -0.147651 0.043685 -0.268117
v -0.034334 0.177969 -0.057005
v -0.022365 0.075322 -0.038425
v 0.069710 0.076928 -0.088868
v -0.034334 0.177969 -0.057005
v -0.144915 0.020223 -0.263870
v -0.147651 0.043685 -0.268117
v -0.123869 0.020590 -0.275400
v -0.034334 0.177969 -0.057005
v -0.147651 0.043685 -0.268117
v -0.165960 0.019856 -0.252340
v -0.034334 0.177969 -0.057005
v -0.165960 0.019856 -0.252340
v -0.114440 0.073716 0.012019
v -0.022365 0.075322 -0.038425
v -0.034334 0.177969 -0.057005
v -0.114440 0.073716 0.012019
v -0.144915 0.020223 -0.263870
v -0.165960 0.019856 -0.252340
v -0.147651 0.043685 -0.268117
v -0.114440 0.073716 0.012019
v -0.165960 0.019856 -0.252340
v -0.142179 -0.003239 -0.259623
v -0.114440 0.073716 0.012019
v -0.142179 -0.003239 -0.259623
v -0.010395 -0.027326 -0.019844
v -0.022365 0.075322 -0.038425
v -0.114440 0.073716 0.012019
v -0.010395 -0.027326 -0.019844
v -0.144915 0.020223 -0.263870
v -0.142179 -0.003239 -0.259623
v -0.165960 0.019856 -0.252340
v -0.010395 -0.027326 -0.019844
v -0.142179 -0.003239 -0.259623
v -0.123869 0.020590 -0.275400
v -0.010395 -0.027326 -0.019844
v -0.123869 0.020590 -0.275400
v 0.069710 0.076928 -0.088868
v -0.022365 0.075322 -0.038425
v -0.010395 -0.027326 -0.019844
v 0.069710 0.076928 -0.088868
v -0.144915 0.020223 -0.263870
v -0.123869 0.020590 -0.275400
v -0.142179 -0.003239 -0.259623
v -0.000087 0.010983 -0.159623
v 0.018158 1.008411 -0.062602
v 0.132202 1.001827 0.002872
v -0.000087 0.010983 -0.159623
v 0.132202 1.001827 0.002872
v 0.138498 0.002981 -0.080059
v 0.000000 0.000000 0.000000
v -0.000087 0.010983 -0.159623
v 0.138498 0.002981 -0.080059
v 0.138498 0.002981 -0.080059
v 0.132202 1.001827 0.002872
v 0.132273 0.992788 0.134228
v 0.138498 0.002981 -0.080059
v 0.132273 0.992788 0.134228
v 0.138584 -0.008002 0.079563
v 0.000000 0.000000 0.000000
v 0.138498 0.002981 -0.080059
v 0.138584 -0.008002 0.079563
v 0.138584 -0.008002 0.079563
v 0.132273 0.992788 0.134228
v 0.018301 0.990335 0.200110
v 0.138584 -0.008002 0.079563
v 0.018301 0.990335 0.200110
v 0.000087 -0.010983 0.159623
v 0.000000 0.000000 0.000000
v 0.138584 -0.008002 0.079563
v 0.000087 -0.010983 0.159623
v 0.000087 -0.010983 0.159623
v 0.018301 0.990335 0.200110
v -0.095743 0.996920 0.134636
v 0.000087 -0.010983 0.159623
v -0.095743 0.996920 0.134636
v -0.138498 -0.002981 0.080059
v 0.000000 0.000000 0.000000
v 0.000087 -0.010983 0.159623
v -0.138498 -0.002981 0.080059
v -0.138498 -0.002981 0.080059
v -0.095743 0.996920 0.134636
v -0.095814 1.005958 0.003280
v -0.138498 -0.002981 0.080059
v -0.095814 1.005958 0.003280
v -0.138584 0.008002 -0.079563
v 0.000000 0.000000 0.000000
v -0.138498 -0.002981 0.080059
v -0.138584 0.008002 -0.079563
v -0.138584 0.008002 -0.079563
v -0.095814 1.005958 0.003280
v 0.018158 1.008411 -0.062602
v -0.138584 0.008002 -0.079563
v 0.018158 1.008411 -0.062602
v -0.000087 0.010983 -0.159623
v 0.000000 0.000000 0.000000
v -0.138584 0.008002 -0.079563
v -0.000087 0.010983 -0.159623
v 0.018287 0.995325 -0.062851
v 0.066975 1.997246 -0.065304
v 0.156336 1.994492 -0.013489
v 0.018287 0.995325 -0.062851
v 0.156336 1.994492 -0.013489
v 0.132151 0.991815 0.003172
v 0.132151 0.991815 0.003172
v 0.156336 1.994492 -0.013489
v 0.156290 1.997669 0.089795
v 0.132151 0.991815 0.003172
v 0.156290 1.997669 0.089795
v 0.132093 0.995863 0.134776
v 0.132093 0.995863 0.134776
v 0.156290 1.997669 0.089795
v 0.066884 2.003601 0.141265
v 0.132093 0.995863 0.134776
v 0.066884 2.003601 0.141265
v 0.018172 1.003422 0.200358
v 0.018172 1.003422 0.200358
v 0.066884 2.003601 0.141265
v -0.022477 2.006355 0.089449
v 0.018172 1.003422 0.200358
v -0.022477 2.006355 0.089449
v -0.095692 1.006931 0.134336
v -0.095692 1.006931 0.134336
v -0.022477 2.006355 0.089449
v -0.022432 2.003178 -0.013835
v -0.095692 1.006931 0.134336
v -0.022432 2.003178 -0.013835
v -0.095634 1.002883 0.002731
v -0.095634 1.002883 0.002731
v -0.022432 2.003178 -0.013835
v 0.066975 1.997246 -0.065304
v -0.095634 1.002883 0.002731
v 0.066975 1.997246 -0.065304
v 0.018287 0.995325 -0.062851
v 0.066944 2.000391 -0.065353
v 0.016104 3.000047 -0.037338
v 0.080967 3.003358 0.000170
v 0.066944 2.000391 -0.065353
v 0.080967 3.003358 0.000170
v 0.156310 2.004952 -0.013676
v 0.016093 3.000070 0.037662
v 0.080967 3.003358 0.000170
v 0.016104 3.000047 -0.037338
v 0.156310 2.004952 -0.013676
v 0.080967 3.003358 0.000170
v 0.080956 3.003381 0.075170
v 0.156310 2.004952 -0.013676
v 0.080956 3.003381 0.075170
v 0.156296 2.004985 0.089658
v 0.016093 3.000070 0.037662
v 0.080956 3.003381 0.075170
v 0.080967 3.003358 0.000170
v 0.156296 2.004985 0.089658
v 0.080956 3.003381 0.075170
v 0.016083 3.000094 0.112662
v 0.156296 2.004985 0.089658
v 0.016083 3.000094 0.112662
v 0.066915 2.000456 0.141313
v 0.016093 3.000070 0.037662
v 0.016083 3.000094 0.112662
v 0.080956 3.003381 0.075170
v 0.066915 2.000456 0.141313
v 0.016083 3.000094 0.112662
v -0.048780 2.996783 0.075154
v 0.066915 2.000456 0.141313
v -0.048780 2.996783 0.075154
v -0.022452 1.995894 0.089636
v 0.016093 3.000070 0.037662
v -0.048780 2.996783 0.075154
v 0.016083 3.000094 0.112662
v -0.022452 1.995894 0.089636
v -0.048780 2.996783 0.075154
v -0.048770 2.996760 0.000154
v -0.022452 1.995894 0.089636
v -0.048770 2.996760 0.000154
v -0.022437 1.995862 -0.013698
v 0.016093 3.000070 0.037662
v -0.048770 2.996760 0.000154
v -0.048780 2.996783 0.075154
v -0.022437 1.995862 -0.013698
v -0.048770 2.996760 0.000154
v 0.016104 3.000047 -0.037338
v -0.022437 1.995862 -0.013698
v 0.016104 3.000047 -0.037338
v 0.066944 2.000391 -0.065353
v 0.016093 3.000070 0.037662
v 0.016104 3.000047 -0.037338
v -0.048770 2.996760 0.000154
v 0.068478 2.692888 0.037257
v 0.038849 2.814449 -0.480691
v 0.023314 2.829319 -0.476948
v 0.068478 2.692888 0.037257
v 0.023314 2.829319 -0.476948
v 0.031489 2.728293 0.046170
v 0.031734 2.692519 0.037760
v 0.068478 2.692888 0.037257
v 0.031489 2.728293 0.046170
v 0.023416 2.814294 -0.480480
v 0.023314 2.829319 -0.476948
v 0.038849 2.814449 -0.480691
v 0.031489 2.728293 0.046170
v 0.023314 2.829319 -0.476948
v 0.007984 2.814139 -0.480269
v 0.031489 2.728293 0.046170
v 0.007984 2.814139 -0.480269
v -0.005011 2.692150 0.038263
v 0.031734 2.692519 0.037760
v 0.031489 2.728293 0.046170
v -0.005011 2.692150 0.038263
v 0.023416 2.814294 -0.480480
v 0.007984 2.814139 -0.480269
v 0.023314 2.829319 -0.476948
v -0.005011 2.692150 0.038263
v 0.007984 2.814139 -0.480269
v 0.023519 2.799269 -0.484012
v -0.005011 2.692150 0.038263
v 0.023519 2.799269 -0.484012
v 0.031978 2.656745 0.029350
v 0.031734 2.692519 0.037760
v -0.005011 2.692150 0.038263
v 0.031978 2.656745 0.029350
v 0.023416 2.814294 -0.480480
v 0.023519 2.799269 -0.484012
v 0.007984 2.814139 -0.480269
v 0.031978 2.656745 0.029350
v 0.023519 2.799269 -0.484012
v 0.038849 2.814449 -0.480691
v 0.031978 2.656745 0.029350
v 0.038849 2.814449 -0.480691
v 0.068478 2.692888 0.037257
v 0.031734 2.692519 0.037760
v 0.031978 2.656745 0.029350
v 0.068478 2.692888 0.037257
v 0.023416 2.814294 -0.480480
v 0.038849 2.814449 -0.480691
v 0.023519 2.799269 -0.484012
v 0.037809 2.789557 -0.385188
v -0.082539 2.877125 -0.507665
v -0.086682 2.884987 -0.498554
v 0.037809 2.789557 -0.385188
v -0.086682 2.884987 -0.498554
v 0.030027 2.804325 -0.368074
v 0.025125 2.789277 -0.374016
v 0.037809 2.789557 -0.385188
v 0.030027 2.804325 -0.368074
v -0.089292 2.876976 -0.501717
v -0.086682 2.884987 -0.498554
v -0.082539 2.877125 -0.507665
v 0.030027 2.804325 -0.368074
v -0.086682 2.884987 -0.498554
v -0.096045 2.876827 -0.495769
v 0.030027 2.804325 -0.368074
v -0.096045 2.876827 -0.495769
v 0.012441 2.788997 -0.362843
v 0.025125 2.789277 -0.374016
v 0.030027 2.804325 -0.368074
v 0.012441 2.788997 -0.362843
v -0.089292 2.876976 -0.501717
v -0.096045 2.876827 -0.495769
v -0.086682 2.884987 -0.498554
v 0.012441 2.788997 -0.362843
v -0.096045 2.876827 -0.495769
v -0.091902 2.868964 -0.504881
v 0.012441 2.788997 -0.362843
v -0.091902 2.868964 -0.504881
v 0.020223 2.774229 -0.379958
v 0.025125 2.789277 -0.374016
v 0.012441 2.788997 -0.362843
v 0.020223 2.774229 -0.379958
v -0.089292 2.876976 -0.501717
v -0.091902 2.868964 -0.504881
v -0.096045 2.876827 -0.495769
v 0.020223 2.774229 -0.379958
v -0.091902 2.868964 -0.504881
v -0.082539 2.877125 -0.507665
v 0.020223 2.774229 -0.379958
v -0.082539 2.877125 -0.507665
v 0.037809 2.789557 -0.385188
v 0.025125 2.789277 -0.374016
v 0.020223 2.774229 -0.379958
v 0.037809 2.789557 -0.385188
v -0.089292 2.876976 -0.501717
v -0.082539 2.877125 -0.507665
v -0.091902 2.868964 -0.504881
v 0.044167 2.754051 -0.226301
v -0.001499 2.864471 -0.422236
v -0.009654 2.872246 -0.416317
v 0.044167 2.754051 -0.226301
v -0.009654 2.872246 -0.416317
v 0.028849 2.768656 -0.215182
v 0.027545 2.753845 -0.223226
v 0.044167 2.754051 -0.226301
v 0.028849 2.768656 -0.215182
v -0.010348 2.864361 -0.420599
v -0.009654 2.872246 -0.416317
v -0.001499 2.864471 -0.422236
v 0.028849 2.768656 -0.215182
v -0.009654 2.872246 -0.416317
v -0.019197 2.864251 -0.418961
v 0.028849 2.768656 -0.215182
v -0.019197 2.864251 -0.418961
v 0.010923 2.753639 -0.220150
v 0.027545 2.753845 -0.223226
v 0.028849 2.768656 -0.215182
v 0.010923 2.753639 -0.220150
v -0.010348 2.864361 -0.420599
v -0.019197 2.864251 -0.418961
v -0.009654 2.872246 -0.416317
v 0.010923 2.753639 -0.220150
v -0.019197 2.864251 -0.418961
v -0.011043 2.856475 -0.424881
v 0.010923 2.753639 -0.220150
v -0.011043 2.856475 -0.424881
v 0.026241 2.739033 -0.231269
v 0.027545 2.753845 -0.223226
v 0.010923 2.753639 -0.220150
v 0.026241 2.739033 -0.231269
v -0.010348 2.864361 -0.420599
v -0.011043 2.856475 -0.424881
v -0.019197 2.864251 -0.418961
v 0.026241 2.739033 -0.231269
v -0.011043 2.856475 -0.424881
v -0.001499 2.864471 -0.422236
v 0.026241 2.739033 -0.231269
v -0.001499 2.864471 -0.422236
v 0.044167 2.754051 -0.226301
v 0.027545 2.753845 -0.223226
v 0.026241 2.739033 -0.231269
v 0.044167 2.754051 -0.226301
v -0.010348 2.864361 -0.420599
v -0.001499 2.864471 -0.422236
v -0.011043 2.856475 -0.424881
v 0.030354 2.799840 0.074243
v 0.375731 2.956251 0.015992
v 0.367775 2.970539 0.001534
v 0.030354 2.799840 0.074243
v 0.367775 2.970539 0.001534
v 0.011410 2.833859 0.039820
v 0.026252 2.800305 0.037726
v 0.030354 2.799840 0.074243
v 0.011410 2.833859 0.039820
v 0.374009 2.956446 0.000655
v 0.367775 2.970539 0.001534
v 0.375731 2.956251 0.015992
v 0.011410 2.833859 0.039820
v 0.367775 2.970539 0.001534
v 0.372286 2.956641 -0.014683
v 0.011410 2.833859 0.039820
v 0.372286 2.956641 -0.014683
v 0.022151 2.800770 0.001208
v 0.026252 2.800305 0.037726
v 0.011410 2.833859 0.039820
v 0.022151 2.800770 0.001208
v 0.374009 2.956446 0.000655
v 0.372286 2.956641 -0.014683
v 0.367775 2.970539 0.001534
v 0.022151 2.800770 0.001208
v 0.372286 2.956641 -0.014683
v 0.380242 2.942353 -0.000225
v 0.022151 2.800770 0.001208
v 0.380242 2.942353 -0.000225
v 0.041095 2.766751 0.035632
v 0.026252 2.800305 0.037726
v 0.022151 2.800770 0.001208
v 0.041095 2.766751 0.035632
v 0.374009 2.956446 0.000655
v 0.380242 2.942353 -0.000225
v 0.372286 2.956641 -0.014683
v 0.041095 2.766751 0.035632
v 0.380242 2.942353 -0.000225
v 0.375731 2.956251 0.015992
v 0.041095 2.766751 0.035632
v 0.375731 2.956251 0.015992
v 0.030354 2.799840 0.074243
v 0.026252 2.800305 0.037726
v 0.041095 2.766751 0.035632
v 0.030354 2.799840 0.074243
v 0.374009 2.956446 0.000655
v 0.375731 2.956251 0.015992
v 0.380242 2.942353 -0.000225
v 0.251241 2.906471 0.024263
v 0.349368 2.966521 0.114859
v 0.353131 2.974880 0.106028
v 0.251241 2.906471 0.024263
v 0.353131 2.974880 0.106028
v 0.258308 2.922171 0.007676
v 0.263333 2.906753 0.012453
v 0.251241 2.906471 0.024263
v 0.258308 2.922171 0.007676
v 0.355806 2.966671 0.108571
v 0.353131 2.974880 0.106028
v 0.349368 2.966521 0.114859
v 0.258308 2.922171 0.007676
v 0.353131 2.974880 0.106028
v 0.362244 2.966822 0.102284
v 0.258308 2.922171 0.007676
v 0.362244 2.966822 0.102284
v 0.275425 2.907036 0.000643
v 0.263333 2.906753 0.012453
v 0.258308 2.922171 0.007676
v 0.275425 2.907036 0.000643
v 0.355806 2.966671 0.108571
v 0.362244 2.966822 0.102284
v 0.353131 2.974880 0.106028
v 0.275425 2.907036 0.000643
v 0.362244 2.966822 0.102284
v 0.358482 2.958463 0.111114
v 0.275425 2.907036 0.000643
v 0.358482 2.958463 0.111114
v 0.268358 2.891335 0.017229
v 0.263333 2.906753 0.012453
v 0.275425 2.907036 0.000643
v 0.268358 2.891335 0.017229
v 0.355806 2.966671 0.108571
v 0.358482 2.958463 0.111114
v 0.362244 2.966822 0.102284
v 0.268358 2.891335 0.017229
v 0.358482 2.958463 0.111114
v 0.349368 2.966521 0.114859
v 0.268358 2.891335 0.017229
v 0.349368 2.966521 0.114859
v 0.251241 2.906471 0.024263
v 0.263333 2.906753 0.012453
v 0.268358 2.891335 0.017229
v 0.251241 2.906471 0.024263
v 0.355806 2.966671 0.108571
v 0.349368 2.966521 0.114859
v 0.358482 2.958463 0.111114
v 0.308195 2.920664 0.018792
v 0.394224 3.004854 -0.119013
v 0.384466 3.012841 -0.120742
v 0.308195 2.920664 0.018792
v 0.384466 3.012841 -0.120742
v 0.289865 2.935666 0.015544
v 0.294308 2.920661 0.009151
v 0.308195 2.920664 0.018792
v 0.289865 2.935666 0.015544
v 0.386831 3.004852 -0.124146
v 0.384466 3.012841 -0.120742
v 0.394224 3.004854 -0.119013
v 0.289865 2.935666 0.015544
v 0.384466 3.012841 -0.120742
v 0.379438 3.004850 -0.129278
v 0.289865 2.935666 0.015544
v 0.379438 3.004850 -0.129278
v 0.280422 2.920657 -0.000490
v 0.294308 2.920661 0.009151
v 0.289865 2.935666 0.015544
v 0.280422 2.920657 -0.000490
v 0.386831 3.004852 -0.124146
v 0.379438 3.004850 -0.129278
v 0.384466 3.012841 -0.120742
v 0.280422 2.920657 -0.000490
v 0.379438 3.004850 -0.129278
v 0.389197 2.996863 -0.127550
v 0.280422 2.920657 -0.000490
v 0.389197 2.996863 -0.127550
v 0.298751 2.905655 0.002757
v 0.294308 2.920661 0.009151
v 0.280422 2.920657 -0.000490
v 0.298751 2.905655 0.002757
v 0.386831 3.004852 -0.124146
v 0.389197 2.996863 -0.127550
v 0.379438 3.004850 -0.129278
v 0.298751 2.905655 0.002757
v 0.389197 2.996863 -0.127550
v 0.394224 3.004854 -0.119013
v 0.298751 2.905655 0.002757
v 0.394224 3.004854 -0.119013
v 0.308195 2.920664 0.018792
v 0.294308 2.920661 0.009151
v 0.298751 2.905655 0.002757
v 0.308195 2.920664 0.018792
v 0.386831 3.004852 -0.124146
v 0.394224 3.004854 -0.119013
v 0.389197 2.996863 -0.127550
v 0.008221 2.447747 0.045510
v 0.111399 2.633046 0.437800
v 0.124981 2.647278 0.428343
v 0.008221 2.447747 0.045510
v 0.124981 2.647278 0.428343
v 0.040560 2.481633 0.022995
v 0.044158 2.448207 0.037838
v 0.008221 2.447747 0.045510
v 0.040560 2.481633 0.022995
v 0.126492 2.633239 0.434577
v 0.124981 2.647278 0.428343
v 0.111399 2.633046 0.437800
v 0.040560 2.481633 0.022995
v 0.124981 2.647278 0.428343
v 0.141586 2.633433 0.431355
v 0.040560 2.481633 0.022995
v 0.141586 2.633433 0.431355
v 0.080095 2.448668 0.030165
v 0.044158 2.448207 0.037838
v 0.040560 2.481633 0.022995
v 0.080095 2.448668 0.030165
v 0.126492 2.633239 0.434577
v 0.141586 2.633433 0.431355
v 0.124981 2.647278 0.428343
v 0.080095 2.448668 0.030165
v 0.141586 2.633433 0.431355
v 0.128003 2.619200 0.440811
v 0.080095 2.448668 0.030165
v 0.128003 2.619200 0.440811
v 0.047755 2.414781 0.052680
v 0.044158 2.448207 0.037838
v 0.080095 2.448668 0.030165
v 0.047755 2.414781 0.052680
v 0.126492 2.633239 0.434577
v 0.128003 2.619200 0.440811
v 0.141586 2.633433 0.431355
v 0.047755 2.414781 0.052680
v 0.128003 2.619200 0.440811
v 0.111399 2.633046 0.437800
v 0.047755 2.414781 0.052680
v 0.111399 2.633046 0.437800
v 0.008221 2.447747 0.045510
v 0.044158 2.448207 0.037838
v 0.047755 2.414781 0.052680
v 0.008221 2.447747 0.045510
v 0.126492 2.633239 0.434577
v 0.111399 2.633046 0.437800
v 0.128003 2.619200 0.440811
v 0.074097 2.553313 0.263286
v 0.077278 2.673846 0.489681
v 0.086266 2.681877 0.485593
v 0.074097 2.553313 0.263286
v 0.086266 2.681877 0.485593
v 0.090981 2.568398 0.255607
v 0.091000 2.553476 0.263552
v 0.074097 2.553313 0.263286
v 0.090981 2.568398 0.255607
v 0.086276 2.673933 0.489823
v 0.086266 2.681877 0.485593
v 0.077278 2.673846 0.489681
v 0.090981 2.568398 0.255607
v 0.086266 2.681877 0.485593
v 0.095275 2.674019 0.489965
v 0.090981 2.568398 0.255607
v 0.095275 2.674019 0.489965
v 0.107902 2.553639 0.263818
v 0.091000 2.553476 0.263552
v 0.090981 2.568398 0.255607
v 0.107902 2.553639 0.263818
v 0.086276 2.673933 0.489823
v 0.095275 2.674019 0.489965
v 0.086266 2.681877 0.485593
v 0.107902 2.553639 0.263818
v 0.095275 2.674019 0.489965
v 0.086286 2.665988 0.494052
v 0.107902 2.553639 0.263818
v 0.086286 2.665988 0.494052
v 0.091019 2.538554 0.271496
v 0.091000 2.553476 0.263552
v 0.107902 2.553639 0.263818
v 0.091019 2.538554 0.271496
v 0.086276 2.673933 0.489823
v 0.086286 2.665988 0.494052
v 0.095275 2.674019 0.489965
v 0.091019 2.538554 0.271496
v 0.086286 2.665988 0.494052
v 0.077278 2.673846 0.489681
v 0.091019 2.538554 0.271496
v 0.077278 2.673846 0.489681
v 0.074097 2.553313 0.263286
v 0.091000 2.553476 0.263552
v 0.091019 2.538554 0.271496
v 0.074097 2.553313 0.263286
v 0.086276 2.673933 0.489823
v 0.077278 2.673846 0.489681
v 0.086286 2.665988 0.494052
v 0.083964 2.569938 0.289985
v 0.024272 2.622521 0.401202
v 0.033740 2.630837 0.402992
v 0.083964 2.569938 0.289985
v 0.033740 2.630837 0.402992
v 0.101748 2.585558 0.293347
v 0.098333 2.569957 0.298890
v 0.083964 2.569938 0.289985
v 0.101748 2.585558 0.293347
v 0.031922 2.622531 0.405943
v 0.033740 2.630837 0.402992
v 0.024272 2.622521 0.401202
v 0.101748 2.585558 0.293347
v 0.033740 2.630837 0.402992
v 0.039572 2.622541 0.410684
v 0.101748 2.585558 0.293347
v 0.039572 2.622541 0.410684
v 0.112703 2.569976 0.307795
v 0.098333 2.569957 0.298890
v 0.101748 2.585558 0.293347
v 0.112703 2.569976 0.307795
v 0.031922 2.622531 0.405943
v 0.039572 2.622541 0.410684
v 0.033740 2.630837 0.402992
v 0.112703 2.569976 0.307795
v 0.039572 2.622541 0.410684
v 0.030103 2.614226 0.408894
v 0.112703 2.569976 0.307795
v 0.030103 2.614226 0.408894
v 0.094918 2.554356 0.304433
v 0.098333 2.569957 0.298890
v 0.112703 2.569976 0.307795
v 0.094918 2.554356 0.304433
v 0.031922 2.622531 0.405943
v 0.030103 2.614226 0.408894
v 0.039572 2.622541 0.410684
v 0.094918 2.554356 0.304433
v 0.030103 2.614226 0.408894
v 0.024272 2.622521 0.401202
v 0.094918 2.554356 0.304433
v 0.024272 2.622521 0.401202
v 0.083964 2.569938 0.289985
v 0.098333 2.569957 0.298890
v 0.094918 2.554356 0.304433
v 0.083964 2.569938 0.289985
v 0.031922 2.622531 0.405943
v 0.024272 2.622521 0.401202
v 0.030103 2.614226 0.408894
v 0.099642 2.586161 0.350021
v 0.247033 2.662744 0.399134
v 0.246477 2.670964 0.389432
v 0.099642 2.586161 0.350021
v 0.246477 2.670964 0.389432
v 0.098598 2.601601 0.331799
v 0.105667 2.586438 0.334228
v 0.099642 2.586161 0.350021
v 0.098598 2.601601 0.331799
v 0.250241 2.662892 0.390726
v 0.246477 2.670964 0.389432
v 0.247033 2.662744 0.399134
v 0.098598 2.601601 0.331799
v 0.246477 2.670964 0.389432
v 0.253448 2.663040 0.382318
v 0.098598 2.601601 0.331799
v 0.253448 2.663040 0.382318
v 0.111692 2.586716 0.318436
v 0.105667 2.586438 0.334228
v 0.098598 2.601601 0.331799
v 0.111692 2.586716 0.318436
v 0.250241 2.662892 0.390726
v 0.253448 2.663040 0.382318
v 0.246477 2.670964 0.389432
v 0.111692 2.586716 0.318436
v 0.253448 2.663040 0.382318
v 0.254004 2.654819 0.392020
v 0.111692 2.586716 0.318436
v 0.254004 2.654819 0.392020
v 0.112736 2.571276 0.336658
v 0.105667 2.586438 0.334228
v 0.111692 2.586716 0.318436
v 0.112736 2.571276 0.336658
v 0.250241 2.662892 0.390726
v 0.254004 2.654819 0.392020
v 0.253448 2.663040 0.382318
v 0.112736 2.571276 0.336658
v 0.254004 2.654819 0.392020
v 0.247033 2.662744 0.399134
v 0.112736 2.571276 0.336658
v 0.247033 2.662744 0.399134
v 0.099642 2.586161 0.350021
v 0.105667 2.586438 0.334228
v 0.112736 2.571276 0.336658
v 0.099642 2.586161 0.350021
v 0.250241 2.662892 0.390726
v 0.247033 2.662744 0.399134
v 0.254004 2.654819 0.392020
v 0.027518 2.556368 0.002790
v -0.401373 2.777122 0.164201
v -0.390249 2.790863 0.177004
v 0.027518 2.556368 0.002790
v -0.390249 2.790863 0.177004
v 0.054004 2.589086 0.033272
v 0.038676 2.555993 0.037803
v 0.027518 2.556368 0.002790
v 0.054004 2.589086 0.033272
v -0.396686 2.776964 0.178907
v -0.390249 2.790863 0.177004
v -0.401373 2.777122 0.164201
v 0.054004 2.589086 0.033272
v -0.390249 2.790863 0.177004
v -0.392000 2.776807 0.193612
v 0.054004 2.589086 0.033272
v -0.392000 2.776807 0.193612
v 0.049834 2.555619 0.072816
v 0.038676 2.555993 0.037803
v 0.054004 2.589086 0.033272
v 0.049834 2.555619 0.072816
v -0.396686 2.776964 0.178907
v -0.392000 2.776807 0.193612
v -0.390249 2.790863 0.177004
v 0.049834 2.555619 0.072816
v -0.392000 2.776807 0.193612
v -0.403124 2.763066 0.180810
v 0.049834 2.555619 0.072816
v -0.403124 2.763066 0.180810
v 0.023349 2.522901 0.042334
v 0.038676 2.555993 0.037803
v 0.049834 2.555619 0.072816
v 0.023349 2.522901 0.042334
v -0.396686 2.776964 0.178907
v -0.403124 2.763066 0.180810
v -0.392000 2.776807 0.193612
v 0.023349 2.522901 0.042334
v -0.403124 2.763066 0.180810
v -0.401373 2.777122 0.164201
v 0.023349 2.522901 0.042334
v -0.401373 2.777122 0.164201
v 0.027518 2.556368 0.002790
v 0.038676 2.555993 0.037803
v 0.023349 2.522901 0.042334
v 0.027518 2.556368 0.002790
v -0.396686 2.776964 0.178907
v -0.401373 2.777122 0.164201
v -0.403124 2.763066 0.180810
v -0.171603 2.656831 0.089969
v -0.301227 2.750582 0.225839
v -0.292073 2.758604 0.229561
v -0.171603 2.656831 0.089969
v -0.292073 2.758604 0.229561
v -0.154408 2.671899 0.096959
v -0.159893 2.656778 0.102161
v -0.171603 2.656831 0.089969
v -0.154408 2.671899 0.096959
v -0.294992 2.750553 0.232330
v -0.292073 2.758604 0.229561
v -0.301227 2.750582 0.225839
v -0.154408 2.671899 0.096959
v -0.292073 2.758604 0.229561
v -0.288758 2.750525 0.238821
v -0.154408 2.671899 0.096959
v -0.288758 2.750525 0.238821
v -0.148182 2.656725 0.114353
v -0.159893 2.656778 0.102161
v -0.154408 2.671899 0.096959
v -0.148182 2.656725 0.114353
v -0.294992 2.750553 0.232330
v -0.288758 2.750525 0.238821
v -0.292073 2.758604 0.229561
v -0.148182 2.656725 0.114353
v -0.288758 2.750525 0.238821
v -0.297912 2.742503 0.235099
v -0.148182 2.656725 0.114353
v -0.297912 2.742503 0.235099
v -0.165377 2.641657 0.107362
v -0.159893 2.656778 0.102161
v -0.148182 2.656725 0.114353
v -0.165377 2.641657 0.107362
v -0.294992 2.750553 0.232330
v -0.297912 2.742503 0.235099
v -0.288758 2.750525 0.238821
v -0.165377 2.641657 0.107362
v -0.297912 2.742503 0.235099
v -0.301227 2.750582 0.225839
v -0.165377 2.641657 0.107362
v -0.301227 2.750582 0.225839
v -0.171603 2.656831 0.089969
v -0.159893 2.656778 0.102161
v -0.165377 2.641657 0.107362
v -0.171603 2.656831 0.089969
v -0.294992 2.750553 0.232330
v -0.301227 2.750582 0.225839
v -0.297912 2.742503 0.235099
v -0.202462 2.676651 0.098256
v -0.412816 2.791783 0.156102
v -0.406678 2.799638 0.164017
v -0.202462 2.676651 0.098256
v -0.406678 2.799638 0.164017
v -0.190934 2.691405 0.113121
v -0.198671 2.676461 0.114729
v -0.202462 2.676651 0.098256
v -0.190934 2.691405 0.113121
v -0.410798 2.791682 0.164873
v -0.406678 2.799638 0.164017
v -0.412816 2.791783 0.156102
v -0.190934 2.691405 0.113121
v -0.406678 2.799638 0.164017
v -0.408779 2.791580 0.173643
v -0.190934 2.691405 0.113121
v -0.408779 2.791580 0.173643
v -0.194881 2.676270 0.131202
v -0.198671 2.676461 0.114729
v -0.190934 2.691405 0.113121
v -0.194881 2.676270 0.131202
v -0.410798 2.791682 0.164873
v -0.408779 2.791580 0.173643
v -0.406678 2.799638 0.164017
v -0.194881 2.676270 0.131202
v -0.408779 2.791580 0.173643
v -0.414917 2.783726 0.165728
v -0.194881 2.676270 0.131202
v -0.414917 2.783726 0.165728
v -0.206409 2.661516 0.116337
v -0.198671 2.676461 0.114729
v -0.194881 2.676270 0.131202
v -0.206409 2.661516 0.116337
v -0.410798 2.791682 0.164873
v -0.414917 2.783726 0.165728
v -0.408779 2.791580 0.173643
v -0.206409 2.661516 0.116337
v -0.414917 2.783726 0.165728
v -0.412816 2.791783 0.156102
v -0.206409 2.661516 0.116337
v -0.412816 2.791783 0.156102
v -0.202462 2.676651 0.098256
v -0.198671 2.676461 0.114729
v -0.206409 2.661516 0.116337
v -0.202462 2.676651 0.098256
v -0.410798 2.791682 0.164873
v -0.412816 2.791783 0.156102
v -0.414917 2.783726 0.165728
v -0.232246 2.696417 0.111216
v -0.470114 2.744093 0.043358
v -0.471303 2.752783 0.052582
v -0.232246 2.696417 0.111216
v -0.471303 2.752783 0.052582
v -0.234479 2.712738 0.128541
v -0.237450 2.696143 0.127297
v -0.232246 2.696417 0.111216
v -0.234479 2.712738 0.128541
v -0.472885 2.743947 0.051920
v -0.471303 2.752783 0.052582
v -0.470114 2.744093 0.043358
v -0.234479 2.712738 0.128541
v -0.471303 2.752783 0.052582
v -0.475656 2.743802 0.060482
v -0.234479 2.712738 0.128541
v -0.475656 2.743802 0.060482
v -0.242654 2.695869 0.143379
v -0.237450 2.696143 0.127297
v -0.234479 2.712738 0.128541
v -0.242654 2.695869 0.143379
v -0.472885 2.743947 0.051920
v -0.475656 2.743802 0.060482
v -0.471303 2.752783 0.052582
v -0.242654 2.695869 0.143379
v -0.475656 2.743802 0.060482
v -0.474467 2.735112 0.051258
v -0.242654 2.695869 0.143379
v -0.474467 2.735112 0.051258
v -0.240421 2.679548 0.126053
v -0.237450 2.696143 0.127297
v -0.242654 2.695869 0.143379
v -0.240421 2.679548 0.126053
v -0.472885 2.743947 0.051920
v -0.474467 2.735112 0.051258
v -0.475656 2.743802 0.060482
v -0.240421 2.679548 0.126053
v -0.474467 2.735112 0.051258
v -0.470114 2.744093 0.043358
v -0.240421 2.679548 0.126053
v -0.470114 2.744093 0.043358
v -0.232246 2.696417 0.111216
v -0.237450 2.696143 0.127297
v -0.240421 2.679548 0.126053
v -0.232246 2.696417 0.111216
v -0.472885 2.743947 0.051920
v -0.470114 2.744093 0.043358
v -0.474467 2.735112 0.051258
f 1 2 3
f 4 5 6
f 7 8 9
f 10 11 12
f 13 14 15
f 16 17 18
f 19 20 21
f 22 23 24
f 25 26 27
f 28 29 30
f 31 32 33
f 34 35 36
f 37 38 39
f 40 41 42
f 43 44 45
f 46 47 48
f 49 50 51
f 52 53 54
f 55 56 57
f 58 59 60
f 61 62 63
f 64 65 66
f 67 68 69
f 70 71 72
f 73 74 75
f 76 77 78
f 79 80 81
f 82 83 84
f 85 86 87
f 88 89 90
f 91 92 93
f 94 95 96
f 97 98 99
f 100 101 102
f 103 104 105
f 106 107 108
f 109 110 111
f 112 113 114
f 115 116 117
f 118 119 120
f 121 122 123
f 124 125 126
f 127 128 129
f 130 131 132
f 133 134 135
f 136 137 138
f 139 140 141
f 142 143 144
f 145 146 147
f 148 149 150
f 151 152 153
f 154 155 156
f 157 158 159
f 160 161 162
f 163 164 165
f 166 167 168
f 169 170 171
f 172 173 174
f 175 176 177
f 178 179 180
f 181 182 183
f 184 185 186
f 187 188 189
f 190 191 192
f 193 194 195
f 196 197 198
f 199 200 201
f 202 203 204
f 205 206 207
f 208 209 210
f 211 212 213
f 214 215 216
f 217 218 219
f 220 221 222
f 223 224 225
f 226 227 228
f 229 230 231
f 232 233 234
f 235 236 237
f 238 239 240
f 241 242 243
f 244 245 246
f 247 248 249
f 250 251 252
f 253 254 255
f 256 257 258
f 259 260 261
f 262 263 264
f 265 266 267
f 268 269 270
f 271 272 273
f 274 275 276
f 277 278 279
f 280 281 282
f 283 284 285
f 286 287 288
f 289 290 291
f 292 293 294
f 295 296 297
f 298 299 300
f 301 302 303
f 304 305 306
f 307 308 309
f 310 311 312
f 313 314 315
f 316 317 318
f 319 320 321
f 322 323 324
f 325 326 327
f 328 329 330
f 331 332 333
f 334 335 336
f 337 338 339
f 340 341 342
f 343 344 345
f 346 347 348
f 349 350 351
f 352 353 354
f 355 356 357
f 358 359 360
f 361 362 363
f 364 365 366
f 367 368 369
f 370 371 372
f 373 374 375
f 376 377 378
f 379 380 381
f 382 383 384
f 385 386 387
f 388 389 390
f 391 392 393
f 394 395 396
f 397 398 399
f 400 401 402
f 403 404 405
f 406 407 408
f 409 410 411
f 412 413 414
f 415 416 417
f 418 419 420
f 421 422 423
f 424 425 426
f 427 428 429
f 430 431 432
f 433 434 435
f 436 437 438
f 439 440 441
f 442 443 444
f 445 446 447
f 448 449 450
f 451 452 453
f 454 455 456
f 457 458 459
f 460 461 462
f 463 464 465
f 466 467 468
f 469 470 471
f 472 473 474
f 475 476 477
f 478 479 480
f 481 482 483
f 484 485 486
f 487 488 489
f 490 491 492
f 493 494 495
f 496 497 498
f 499 500 501
f 502 503 504
f 505 506 507
f 508 509 510
f 511 512 513
f 514 515 516
f 517 518 519
f 520 521 522
f 523 524 525
f 526 527 528
f 529 530 531
f 532 533 534
f 535 536 537
f 538 539 540
f 541 542 543
f 544 545 546
f 547 548 549
f 550 551 552
f 553 554 555
f 556 557 558
f 559 560 561
f 562 563 564
f 565 566 567
f 568 569 570
f 571 572 573
f 574 575 576
f 577 578 579
f 580 581 582
f 583 584 585
f 586 587 588
f 589 590 591
f 592 593 594
f 595 596 597
f 598 599 600
f 601 602 603
f 604 605 606
f 607 608 609
f 610 611 612
f 613 614 615
f 616 617 618
f 619 620 621
f 622 623 624
f 625 626 627
f 628 629 630
f 631 632 633
f 634 635 636
f 637 638 639
f 640 641 642
f 643 644 645
f 646 647 648
f 649 650 651
f 652 653 654
f 655 656 657
f 658 659 660
f 661 662 663
f 664 665 666
f 667 668 669
f 670 671 672
f 673 674 675
f 676 677 678
f 679 680 681
f 682 683 684
f 685 686 687
f 688 689 690
f 691 692 693
f 694 695 696
f 697 698 699
f 700 701 702
f 703 704 705
f 706 707 708
f 709 710 711
f 712 713 714
f 715 716 717
f 718 719 720
f 721 722 723
f 724 725 726
f 727 728 729
f 730 731 732
f 733 734 735
f 736 737 738
f 739 740 741
f 742 743 744
f 745 746 747
f 748 749 750
f 751 752 753
f 754 755 756
f 757 758 759
f 760 761 762
f 763 764 765
f 766 767 768
f 769 770 771
f 772 773 774
f 775 776 777
f 778 779 780
f 781 782 783
f 784 785 786
f 787 788 789
f 790 791 792
f 793 794 795
f 796 797 798
f 799 800 801
f 802 803 804
f 805 806 807
f 808 809 810
f 811 812 813
f 814 815 816
f 817 818 819
f 820 821 822
f 823 824 825
f 826 827 828
f 829 830 831
f 832 833 834
f 835 836 837
f 838 839 840
f 841 842 843
f 844 845 846
f 847 848 849
f 850 851 852
f 853 854 855
f 856 857 858
f 859 860 861
f 862 863 864
f 865 866 867
f 868 869 870
f 871 872 873
f 874 875 876
f 877 878 879
f 880 881 882
f 883 884 885
f 886 887 888
f 889 890 891
f 892 893 894
f 895 896 897
f 898 899 900
f 901 902 903
f 904 905 906
f 907 908 909
f 910 911 912
f 913 914 915
f 916 917 918
f 919 920 921
f 922 923 924
f 925 926 927
f 928 929 930
f 931 932 933
f 934 935 936
f 937 938 939
f 940 941 942
f 943 944 945
f 946 947 948
f 949 950 951
f 952 953 954
f 955 956 957
f 958 959 960
