# Pyramida editable prop source
# units: 1 OBJ unit = 1 Pyramida World Unit = 1 Blender metre

o TreeTrunk
v 0.043071 0.075684 0.105317
v 0.303392 0.012997 0.033224
v 0.309712 0.035998 0.009079
v 0.043071 0.075684 0.105317
v 0.309712 0.035998 0.009079
v 0.070720 0.176314 -0.000320
v 0.046321 0.074190 0.000378
v 0.043071 0.075684 0.105317
v 0.070720 0.176314 -0.000320
v 0.304135 0.012656 0.009238
v 0.309712 0.035998 0.009079
v 0.303392 0.012997 0.033224
v 0.070720 0.176314 -0.000320
v 0.309712 0.035998 0.009079
v 0.304878 0.012314 -0.014748
v 0.070720 0.176314 -0.000320
v 0.304878 0.012314 -0.014748
v 0.049571 0.072697 -0.104561
v 0.046321 0.074190 0.000378
v 0.070720 0.176314 -0.000320
v 0.049571 0.072697 -0.104561
v 0.304135 0.012656 0.009238
v 0.304878 0.012314 -0.014748
v 0.309712 0.035998 0.009079
v 0.049571 0.072697 -0.104561
v 0.304878 0.012314 -0.014748
v 0.298558 -0.010687 0.009398
v 0.049571 0.072697 -0.104561
v 0.298558 -0.010687 0.009398
v 0.021922 -0.027933 0.001077
v 0.046321 0.074190 0.000378
v 0.049571 0.072697 -0.104561
v 0.021922 -0.027933 0.001077
v 0.304135 0.012656 0.009238
v 0.298558 -0.010687 0.009398
v 0.304878 0.012314 -0.014748
v 0.021922 -0.027933 0.001077
v 0.298558 -0.010687 0.009398
v 0.303392 0.012997 0.033224
v 0.021922 -0.027933 0.001077
v 0.303392 0.012997 0.033224
v 0.043071 0.075684 0.105317
v 0.046321 0.074190 0.000378
v 0.021922 -0.027933 0.001077
v 0.043071 0.075684 0.105317
v 0.304135 0.012656 0.009238
v 0.303392 0.012997 0.033224
v 0.298558 -0.010687 0.009398
v -0.109501 0.076600 -0.028585
v -0.220744 0.025423 0.251796
v -0.203992 0.048920 0.269665
v -0.109501 0.076600 -0.028585
v -0.203992 0.048920 0.269665
v -0.036212 0.179398 0.049590
v -0.025819 0.075960 0.034834
v -0.109501 0.076600 -0.028585
v -0.036212 0.179398 0.049590
v -0.201617 0.025277 0.266292
v -0.203992 0.048920 0.269665
v -0.220744 0.025423 0.251796
v -0.036212 0.179398 0.049590
v -0.203992 0.048920 0.269665
v -0.182490 0.025131 0.280787
v -0.036212 0.179398 0.049590
v -0.182490 0.025131 0.280787
v 0.057863 0.075321 0.098252
v -0.025819 0.075960 0.034834
v -0.036212 0.179398 0.049590
v 0.057863 0.075321 0.098252
v -0.201617 0.025277 0.266292
v -0.182490 0.025131 0.280787
v -0.203992 0.048920 0.269665
v 0.057863 0.075321 0.098252
v -0.182490 0.025131 0.280787
v -0.199241 0.001634 0.262919
v 0.057863 0.075321 0.098252
v -0.199241 0.001634 0.262919
v -0.015426 -0.027477 0.020078
v -0.025819 0.075960 0.034834
v 0.057863 0.075321 0.098252
v -0.015426 -0.027477 0.020078
v -0.201617 0.025277 0.266292
v -0.199241 0.001634 0.262919
v -0.182490 0.025131 0.280787
v -0.015426 -0.027477 0.020078
v -0.199241 0.001634 0.262919
v -0.220744 0.025423 0.251796
v -0.015426 -0.027477 0.020078
v -0.220744 0.025423 0.251796
v -0.109501 0.076600 -0.028585
v -0.025819 0.075960 0.034834
v -0.015426 -0.027477 0.020078
v -0.109501 0.076600 -0.028585
v -0.201617 0.025277 0.266292
v -0.220744 0.025423 0.251796
v -0.199241 0.001634 0.262919
v 0.052133 0.072667 -0.103328
v -0.133654 0.017747 -0.194723
v -0.155984 0.041279 -0.184742
v 0.052133 0.072667 -0.103328
v -0.155984 0.041279 -0.184742
v -0.045561 0.175618 -0.059658
v -0.027812 0.075037 -0.035297
v 0.052133 0.072667 -0.103328
v -0.045561 0.175618 -0.059658
v -0.151927 0.018289 -0.179173
v -0.155984 0.041279 -0.184742
v -0.133654 0.017747 -0.194723
v -0.045561 0.175618 -0.059658
v -0.155984 0.041279 -0.184742
v -0.170200 0.018831 -0.163624
v -0.045561 0.175618 -0.059658
v -0.170200 0.018831 -0.163624
v -0.107758 0.077407 0.032733
v -0.027812 0.075037 -0.035297
v -0.045561 0.175618 -0.059658
v -0.107758 0.077407 0.032733
v -0.151927 0.018289 -0.179173
v -0.170200 0.018831 -0.163624
v -0.155984 0.041279 -0.184742
v -0.107758 0.077407 0.032733
v -0.170200 0.018831 -0.163624
v -0.147870 -0.004701 -0.173605
v -0.107758 0.077407 0.032733
v -0.147870 -0.004701 -0.173605
v -0.010064 -0.025544 -0.010937
v -0.027812 0.075037 -0.035297
v -0.107758 0.077407 0.032733
v -0.010064 -0.025544 -0.010937
v -0.151927 0.018289 -0.179173
v -0.147870 -0.004701 -0.173605
v -0.170200 0.018831 -0.163624
v -0.010064 -0.025544 -0.010937
v -0.147870 -0.004701 -0.173605
v -0.133654 0.017747 -0.194723
v -0.010064 -0.025544 -0.010937
v -0.133654 0.017747 -0.194723
v 0.052133 0.072667 -0.103328
v -0.027812 0.075037 -0.035297
v -0.010064 -0.025544 -0.010937
v 0.052133 0.072667 -0.103328
v -0.151927 0.018289 -0.179173
v -0.133654 0.017747 -0.194723
v -0.147870 -0.004701 -0.173605
v -0.000033 -0.003999 -0.159950
v -0.020177 0.996985 -0.156632
v 0.093840 1.000925 -0.090900
v -0.000033 -0.003999 -0.159950
v 0.093840 1.000925 -0.090900
v 0.138520 0.000789 -0.080073
v 0.000000 0.000000 0.000000
v -0.000033 -0.003999 -0.159950
v 0.138520 0.000789 -0.080073
v -0.020150 1.000276 -0.025006
v 0.093840 1.000925 -0.090900
v -0.020177 0.996985 -0.156632
v 0.138520 0.000789 -0.080073
v 0.093840 1.000925 -0.090900
v 0.093867 1.004216 0.040726
v 0.138520 0.000789 -0.080073
v 0.093867 1.004216 0.040726
v 0.138552 0.004788 0.079877
v 0.000000 0.000000 0.000000
v 0.138520 0.000789 -0.080073
v 0.138552 0.004788 0.079877
v -0.020150 1.000276 -0.025006
v 0.093867 1.004216 0.040726
v 0.093840 1.000925 -0.090900
v 0.138552 0.004788 0.079877
v 0.093867 1.004216 0.040726
v -0.020123 1.003567 0.106619
v 0.138552 0.004788 0.079877
v -0.020123 1.003567 0.106619
v 0.000033 0.003999 0.159950
v 0.000000 0.000000 0.000000
v 0.138552 0.004788 0.079877
v 0.000033 0.003999 0.159950
v -0.020150 1.000276 -0.025006
v -0.020123 1.003567 0.106619
v 0.093867 1.004216 0.040726
v 0.000033 0.003999 0.159950
v -0.020123 1.003567 0.106619
v -0.134140 0.999627 0.040887
v 0.000033 0.003999 0.159950
v -0.134140 0.999627 0.040887
v -0.138520 -0.000789 0.080073
v 0.000000 0.000000 0.000000
v 0.000033 0.003999 0.159950
v -0.138520 -0.000789 0.080073
v -0.020150 1.000276 -0.025006
v -0.134140 0.999627 0.040887
v -0.020123 1.003567 0.106619
v -0.138520 -0.000789 0.080073
v -0.134140 0.999627 0.040887
v -0.134167 0.996336 -0.090738
v -0.138520 -0.000789 0.080073
v -0.134167 0.996336 -0.090738
v -0.138552 -0.004788 -0.079877
v 0.000000 0.000000 0.000000
v -0.138520 -0.000789 0.080073
v -0.138552 -0.004788 -0.079877
v -0.020150 1.000276 -0.025006
v -0.134167 0.996336 -0.090738
v -0.134140 0.999627 0.040887
v -0.138552 -0.004788 -0.079877
v -0.134167 0.996336 -0.090738
v -0.020177 0.996985 -0.156632
v -0.138552 -0.004788 -0.079877
v -0.020177 0.996985 -0.156632
v -0.000033 -0.003999 -0.159950
v 0.000000 0.000000 0.000000
v -0.138552 -0.004788 -0.079877
v -0.000033 -0.003999 -0.159950
v -0.020150 1.000276 -0.025006
v -0.020177 0.996985 -0.156632
v -0.134167 0.996336 -0.090738
v 0.026816 0.760012 0.034972
v 0.266656 0.890624 -0.202554
v 0.240739 0.917427 -0.218793
v 0.026816 0.760012 0.034972
v 0.240739 0.917427 -0.218793
v -0.034892 0.823828 -0.003692
v -0.015311 0.760032 -0.019000
v 0.026816 0.760012 0.034972
v -0.034892 0.823828 -0.003692
v 0.248963 0.890633 -0.225222
v 0.240739 0.917427 -0.218793
v 0.266656 0.890624 -0.202554
v -0.034892 0.823828 -0.003692
v 0.240739 0.917427 -0.218793
v 0.231270 0.890641 -0.247891
v -0.034892 0.823828 -0.003692
v 0.231270 0.890641 -0.247891
v -0.057437 0.760052 -0.072973
v -0.015311 0.760032 -0.019000
v -0.034892 0.823828 -0.003692
v -0.057437 0.760052 -0.072973
v 0.248963 0.890633 -0.225222
v 0.231270 0.890641 -0.247891
v 0.240739 0.917427 -0.218793
v -0.057437 0.760052 -0.072973
v 0.231270 0.890641 -0.247891
v 0.257187 0.863838 -0.231652
v -0.057437 0.760052 -0.072973
v 0.257187 0.863838 -0.231652
v 0.004271 0.696236 -0.034308
v -0.015311 0.760032 -0.019000
v -0.057437 0.760052 -0.072973
v 0.004271 0.696236 -0.034308
v 0.248963 0.890633 -0.225222
v 0.257187 0.863838 -0.231652
v 0.231270 0.890641 -0.247891
v 0.004271 0.696236 -0.034308
v 0.257187 0.863838 -0.231652
v 0.266656 0.890624 -0.202554
v 0.004271 0.696236 -0.034308
v 0.266656 0.890624 -0.202554
v 0.026816 0.760012 0.034972
v -0.015311 0.760032 -0.019000
v 0.004271 0.696236 -0.034308
v 0.026816 0.760012 0.034972
v 0.248963 0.890633 -0.225222
v 0.266656 0.890624 -0.202554
v 0.257187 0.863838 -0.231652
v 0.150112 0.837193 -0.110527
v 0.365506 0.960427 -0.205352
v 0.358710 0.968322 -0.212665
v 0.150112 0.837193 -0.110527
v 0.358710 0.968322 -0.212665
v 0.126329 0.864821 -0.136117
v 0.140353 0.836959 -0.140470
v 0.150112 0.837193 -0.110527
v 0.126329 0.864821 -0.136117
v 0.362718 0.960360 -0.213909
v 0.358710 0.968322 -0.212665
v 0.365506 0.960427 -0.205352
v 0.126329 0.864821 -0.136117
v 0.358710 0.968322 -0.212665
v 0.359929 0.960293 -0.222466
v 0.126329 0.864821 -0.136117
v 0.359929 0.960293 -0.222466
v 0.130593 0.836725 -0.170414
v 0.140353 0.836959 -0.140470
v 0.126329 0.864821 -0.136117
v 0.130593 0.836725 -0.170414
v 0.362718 0.960360 -0.213909
v 0.359929 0.960293 -0.222466
v 0.358710 0.968322 -0.212665
v 0.130593 0.836725 -0.170414
v 0.359929 0.960293 -0.222466
v 0.366725 0.952398 -0.215153
v 0.130593 0.836725 -0.170414
v 0.366725 0.952398 -0.215153
v 0.154377 0.809097 -0.144823
v 0.140353 0.836959 -0.140470
v 0.130593 0.836725 -0.170414
v 0.154377 0.809097 -0.144823
v 0.362718 0.960360 -0.213909
v 0.366725 0.952398 -0.215153
v 0.359929 0.960293 -0.222466
v 0.154377 0.809097 -0.144823
v 0.366725 0.952398 -0.215153
v 0.365506 0.960427 -0.205352
v 0.154377 0.809097 -0.144823
v 0.365506 0.960427 -0.205352
v 0.150112 0.837193 -0.110527
v 0.140353 0.836959 -0.140470
v 0.154377 0.809097 -0.144823
v 0.150112 0.837193 -0.110527
v 0.362718 0.960360 -0.213909
v 0.365506 0.960427 -0.205352
v 0.366725 0.952398 -0.215153
v 0.156897 0.849138 -0.128136
v 0.291593 0.906281 -0.121539
v 0.290135 0.914382 -0.131247
v 0.156897 0.849138 -0.128136
v 0.290135 0.914382 -0.131247
v 0.151794 0.877486 -0.162109
v 0.163892 0.848592 -0.158839
v 0.156897 0.849138 -0.128136
v 0.151794 0.877486 -0.162109
v 0.293592 0.906125 -0.130313
v 0.290135 0.914382 -0.131247
v 0.291593 0.906281 -0.121539
v 0.151794 0.877486 -0.162109
v 0.290135 0.914382 -0.131247
v 0.295591 0.905969 -0.139087
v 0.151794 0.877486 -0.162109
v 0.295591 0.905969 -0.139087
v 0.170887 0.848046 -0.189542
v 0.163892 0.848592 -0.158839
v 0.151794 0.877486 -0.162109
v 0.170887 0.848046 -0.189542
v 0.293592 0.906125 -0.130313
v 0.295591 0.905969 -0.139087
v 0.290135 0.914382 -0.131247
v 0.170887 0.848046 -0.189542
v 0.295591 0.905969 -0.139087
v 0.297049 0.897868 -0.129378
v 0.170887 0.848046 -0.189542
v 0.297049 0.897868 -0.129378
v 0.175990 0.819698 -0.155569
v 0.163892 0.848592 -0.158839
v 0.170887 0.848046 -0.189542
v 0.175990 0.819698 -0.155569
v 0.293592 0.906125 -0.130313
v 0.297049 0.897868 -0.129378
v 0.295591 0.905969 -0.139087
v 0.175990 0.819698 -0.155569
v 0.297049 0.897868 -0.129378
v 0.291593 0.906281 -0.121539
v 0.175990 0.819698 -0.155569
v 0.291593 0.906281 -0.121539
v 0.156897 0.849138 -0.128136
v 0.163892 0.848592 -0.158839
v 0.175990 0.819698 -0.155569
v 0.156897 0.849138 -0.128136
v 0.293592 0.906125 -0.130313
v 0.291593 0.906281 -0.121539
v 0.297049 0.897868 -0.129378
v -0.057760 0.409251 0.037034
v 0.238888 0.582995 0.285029
v 0.251911 0.608520 0.256172
v -0.057760 0.409251 0.037034
v 0.251911 0.608520 0.256172
v -0.026752 0.470024 -0.031671
v -0.008213 0.407713 -0.010193
v -0.057760 0.409251 0.037034
v -0.026752 0.470024 -0.031671
v 0.259698 0.582349 0.265193
v 0.251911 0.608520 0.256172
v 0.238888 0.582995 0.285029
v -0.026752 0.470024 -0.031671
v 0.251911 0.608520 0.256172
v 0.280508 0.581703 0.245358
v -0.026752 0.470024 -0.031671
v 0.280508 0.581703 0.245358
v 0.041334 0.406175 -0.057420
v -0.008213 0.407713 -0.010193
v -0.026752 0.470024 -0.031671
v 0.041334 0.406175 -0.057420
v 0.259698 0.582349 0.265193
v 0.280508 0.581703 0.245358
v 0.251911 0.608520 0.256172
v 0.041334 0.406175 -0.057420
v 0.280508 0.581703 0.245358
v 0.267484 0.556179 0.274215
v 0.041334 0.406175 -0.057420
v 0.267484 0.556179 0.274215
v 0.010326 0.345402 0.011286
v -0.008213 0.407713 -0.010193
v 0.041334 0.406175 -0.057420
v 0.010326 0.345402 0.011286
v 0.259698 0.582349 0.265193
v 0.267484 0.556179 0.274215
v 0.280508 0.581703 0.245358
v 0.010326 0.345402 0.011286
v 0.267484 0.556179 0.274215
v 0.238888 0.582995 0.285029
v 0.010326 0.345402 0.011286
v 0.238888 0.582995 0.285029
v -0.057760 0.409251 0.037034
v -0.008213 0.407713 -0.010193
v 0.010326 0.345402 0.011286
v -0.057760 0.409251 0.037034
v 0.259698 0.582349 0.265193
v 0.238888 0.582995 0.285029
v 0.267484 0.556179 0.274215
v 0.104989 0.491517 0.148961
v 0.288670 0.590803 0.215669
v 0.289189 0.598621 0.205638
v 0.104989 0.491517 0.148961
v 0.289189 0.598621 0.205638
v 0.106807 0.518873 0.113859
v 0.119367 0.490875 0.120947
v 0.104989 0.491517 0.148961
v 0.106807 0.518873 0.113859
v 0.292779 0.590620 0.207664
v 0.289189 0.598621 0.205638
v 0.288670 0.590803 0.215669
v 0.106807 0.518873 0.113859
v 0.289189 0.598621 0.205638
v 0.296887 0.590436 0.199658
v 0.106807 0.518873 0.113859
v 0.296887 0.590436 0.199658
v 0.133745 0.490233 0.092933
v 0.119367 0.490875 0.120947
v 0.106807 0.518873 0.113859
v 0.133745 0.490233 0.092933
v 0.292779 0.590620 0.207664
v 0.296887 0.590436 0.199658
v 0.289189 0.598621 0.205638
v 0.133745 0.490233 0.092933
v 0.296887 0.590436 0.199658
v 0.296368 0.582619 0.209689
v 0.133745 0.490233 0.092933
v 0.296368 0.582619 0.209689
v 0.131927 0.462876 0.128035
v 0.119367 0.490875 0.120947
v 0.133745 0.490233 0.092933
v 0.131927 0.462876 0.128035
v 0.292779 0.590620 0.207664
v 0.296368 0.582619 0.209689
v 0.296887 0.590436 0.199658
v 0.131927 0.462876 0.128035
v 0.296368 0.582619 0.209689
v 0.288670 0.590803 0.215669
v 0.131927 0.462876 0.128035
v 0.288670 0.590803 0.215669
v 0.104989 0.491517 0.148961
v 0.119367 0.490875 0.120947
v 0.131927 0.462876 0.128035
v 0.104989 0.491517 0.148961
v 0.292779 0.590620 0.207664
v 0.288670 0.590803 0.215669
v 0.296368 0.582619 0.209689
v 0.116509 0.507139 0.162131
v 0.255960 0.629818 0.338108
v 0.261445 0.637492 0.329563
v 0.116509 0.507139 0.162131
v 0.261445 0.637492 0.329563
v 0.135703 0.533993 0.132226
v 0.143230 0.506430 0.145476
v 0.116509 0.507139 0.162131
v 0.135703 0.533993 0.132226
v 0.263596 0.629615 0.333349
v 0.261445 0.637492 0.329563
v 0.255960 0.629818 0.338108
v 0.135703 0.533993 0.132226
v 0.261445 0.637492 0.329563
v 0.271232 0.629413 0.328589
v 0.135703 0.533993 0.132226
v 0.271232 0.629413 0.328589
v 0.169951 0.505721 0.128821
v 0.143230 0.506430 0.145476
v 0.135703 0.533993 0.132226
v 0.169951 0.505721 0.128821
v 0.263596 0.629615 0.333349
v 0.271232 0.629413 0.328589
v 0.261445 0.637492 0.329563
v 0.169951 0.505721 0.128821
v 0.271232 0.629413 0.328589
v 0.265747 0.621739 0.337135
v 0.169951 0.505721 0.128821
v 0.265747 0.621739 0.337135
v 0.150757 0.478867 0.158726
v 0.143230 0.506430 0.145476
v 0.169951 0.505721 0.128821
v 0.150757 0.478867 0.158726
v 0.263596 0.629615 0.333349
v 0.265747 0.621739 0.337135
v 0.271232 0.629413 0.328589
v 0.150757 0.478867 0.158726
v 0.265747 0.621739 0.337135
v 0.255960 0.629818 0.338108
v 0.150757 0.478867 0.158726
v 0.255960 0.629818 0.338108
v 0.116509 0.507139 0.162131
v 0.143230 0.506430 0.145476
v 0.150757 0.478867 0.158726
v 0.116509 0.507139 0.162131
v 0.263596 0.629615 0.333349
v 0.255960 0.629818 0.338108
v 0.265747 0.621739 0.337135
v -0.062244 0.515889 -0.057592
v -0.312449 0.738424 0.295088
v -0.281951 0.763828 0.303933
v -0.062244 0.515889 -0.057592
v -0.281951 0.763828 0.303933
v 0.010373 0.576376 -0.036532
v -0.010386 0.515566 -0.012889
v -0.062244 0.515889 -0.057592
v 0.010373 0.576376 -0.036532
v -0.290669 0.738288 0.313863
v -0.281951 0.763828 0.303933
v -0.312449 0.738424 0.295088
v 0.010373 0.576376 -0.036532
v -0.281951 0.763828 0.303933
v -0.268889 0.738153 0.332638
v 0.010373 0.576376 -0.036532
v -0.268889 0.738153 0.332638
v 0.041472 0.515244 0.031814
v -0.010386 0.515566 -0.012889
v 0.010373 0.576376 -0.036532
v 0.041472 0.515244 0.031814
v -0.290669 0.738288 0.313863
v -0.268889 0.738153 0.332638
v -0.281951 0.763828 0.303933
v 0.041472 0.515244 0.031814
v -0.268889 0.738153 0.332638
v -0.299388 0.712748 0.323793
v 0.041472 0.515244 0.031814
v -0.299388 0.712748 0.323793
v -0.031144 0.454757 0.010754
v -0.010386 0.515566 -0.012889
v 0.041472 0.515244 0.031814
v -0.031144 0.454757 0.010754
v -0.290669 0.738288 0.313863
v -0.299388 0.712748 0.323793
v -0.268889 0.738153 0.332638
v -0.031144 0.454757 0.010754
v -0.299388 0.712748 0.323793
v -0.312449 0.738424 0.295088
v -0.031144 0.454757 0.010754
v -0.312449 0.738424 0.295088
v -0.062244 0.515889 -0.057592
v -0.010386 0.515566 -0.012889
v -0.031144 0.454757 0.010754
v -0.062244 0.515889 -0.057592
v -0.290669 0.738288 0.313863
v -0.312449 0.738424 0.295088
v -0.299388 0.712748 0.323793
v -0.248773 0.681812 0.239525
v -0.179404 0.757422 0.378805
v -0.171867 0.765294 0.372231
v -0.248773 0.681812 0.239525
v -0.171867 0.765294 0.372231
v -0.222397 0.709360 0.216520
v -0.218753 0.681142 0.230024
v -0.248773 0.681812 0.239525
v -0.222397 0.709360 0.216520
v -0.170825 0.757230 0.376090
v -0.171867 0.765294 0.372231
v -0.179404 0.757422 0.378805
v -0.222397 0.709360 0.216520
v -0.171867 0.765294 0.372231
v -0.162247 0.757039 0.373375
v -0.222397 0.709360 0.216520
v -0.162247 0.757039 0.373375
v -0.188734 0.680471 0.220523
v -0.218753 0.681142 0.230024
v -0.222397 0.709360 0.216520
v -0.188734 0.680471 0.220523
v -0.170825 0.757230 0.376090
v -0.162247 0.757039 0.373375
v -0.171867 0.765294 0.372231
v -0.188734 0.680471 0.220523
v -0.162247 0.757039 0.373375
v -0.169784 0.749166 0.379949
v -0.188734 0.680471 0.220523
v -0.169784 0.749166 0.379949
v -0.215110 0.652923 0.243528
v -0.218753 0.681142 0.230024
v -0.188734 0.680471 0.220523
v -0.215110 0.652923 0.243528
v -0.170825 0.757230 0.376090
v -0.169784 0.749166 0.379949
v -0.162247 0.757039 0.373375
v -0.215110 0.652923 0.243528
v -0.169784 0.749166 0.379949
v -0.179404 0.757422 0.378805
v -0.215110 0.652923 0.243528
v -0.179404 0.757422 0.378805
v -0.248773 0.681812 0.239525
v -0.218753 0.681142 0.230024
v -0.215110 0.652923 0.243528
v -0.248773 0.681812 0.239525
v -0.170825 0.757230 0.376090
v -0.179404 0.757422 0.378805
v -0.169784 0.749166 0.379949
v -0.167844 0.616790 0.127690
v -0.186775 0.715697 0.311334
v -0.176919 0.723479 0.309262
v -0.167844 0.616790 0.127690
v -0.176919 0.723479 0.309262
v -0.133353 0.644022 0.120437
v -0.137201 0.616337 0.134951
v -0.167844 0.616790 0.127690
v -0.133353 0.644022 0.120437
v -0.178019 0.715568 0.313409
v -0.176919 0.723479 0.309262
v -0.186775 0.715697 0.311334
v -0.133353 0.644022 0.120437
v -0.176919 0.723479 0.309262
v -0.169262 0.715439 0.315484
v -0.133353 0.644022 0.120437
v -0.169262 0.715439 0.315484
v -0.106558 0.615885 0.142211
v -0.137201 0.616337 0.134951
v -0.133353 0.644022 0.120437
v -0.106558 0.615885 0.142211
v -0.178019 0.715568 0.313409
v -0.169262 0.715439 0.315484
v -0.176919 0.723479 0.309262
v -0.106558 0.615885 0.142211
v -0.169262 0.715439 0.315484
v -0.179118 0.707656 0.317557
v -0.106558 0.615885 0.142211
v -0.179118 0.707656 0.317557
v -0.141048 0.588652 0.149465
v -0.137201 0.616337 0.134951
v -0.106558 0.615885 0.142211
v -0.141048 0.588652 0.149465
v -0.178019 0.715568 0.313409
v -0.179118 0.707656 0.317557
v -0.169262 0.715439 0.315484
v -0.141048 0.588652 0.149465
v -0.179118 0.707656 0.317557
v -0.186775 0.715697 0.311334
v -0.141048 0.588652 0.149465
v -0.186775 0.715697 0.311334
v -0.167844 0.616790 0.127690
v -0.137201 0.616337 0.134951
v -0.141048 0.588652 0.149465
v -0.167844 0.616790 0.127690
v -0.178019 0.715568 0.313409
v -0.186775 0.715697 0.311334
v -0.179118 0.707656 0.317557
v -0.184739 0.636282 0.142093
v -0.316553 0.758113 0.310420
v -0.306961 0.765890 0.313505
v -0.184739 0.636282 0.142093
v -0.306961 0.765890 0.313505
v -0.151174 0.663496 0.152889
v -0.162166 0.636176 0.164055
v -0.184739 0.636282 0.142093
v -0.151174 0.663496 0.152889
v -0.310102 0.758083 0.316696
v -0.306961 0.765890 0.313505
v -0.316553 0.758113 0.310420
v -0.151174 0.663496 0.152889
v -0.306961 0.765890 0.313505
v -0.303652 0.758053 0.322972
v -0.151174 0.663496 0.152889
v -0.303652 0.758053 0.322972
v -0.139593 0.636070 0.186017
v -0.162166 0.636176 0.164055
v -0.151174 0.663496 0.152889
v -0.139593 0.636070 0.186017
v -0.310102 0.758083 0.316696
v -0.303652 0.758053 0.322972
v -0.306961 0.765890 0.313505
v -0.139593 0.636070 0.186017
v -0.303652 0.758053 0.322972
v -0.313244 0.750276 0.319887
v -0.139593 0.636070 0.186017
v -0.313244 0.750276 0.319887
v -0.173158 0.608855 0.175221
v -0.162166 0.636176 0.164055
v -0.139593 0.636070 0.186017
v -0.173158 0.608855 0.175221
v -0.310102 0.758083 0.316696
v -0.313244 0.750276 0.319887
v -0.303652 0.758053 0.322972
v -0.173158 0.608855 0.175221
v -0.313244 0.750276 0.319887
v -0.316553 0.758113 0.310420
v -0.173158 0.608855 0.175221
v -0.316553 0.758113 0.310420
v -0.184739 0.636282 0.142093
v -0.162166 0.636176 0.164055
v -0.173158 0.608855 0.175221
v -0.184739 0.636282 0.142093
v -0.310102 0.758083 0.316696
v -0.316553 0.758113 0.310420
v -0.313244 0.750276 0.319887
v 0.026839 0.621945 -0.071561
v -0.389600 0.876726 -0.322803
v -0.394925 0.902816 -0.292066
v 0.026839 0.621945 -0.071561
v -0.394925 0.902816 -0.292066
v 0.014161 0.684063 0.001623
v -0.012559 0.623420 -0.015585
v 0.026839 0.621945 -0.071561
v 0.014161 0.684063 0.001623
v -0.406147 0.877345 -0.299293
v -0.394925 0.902816 -0.292066
v -0.389600 0.876726 -0.322803
v 0.014161 0.684063 0.001623
v -0.394925 0.902816 -0.292066
v -0.422694 0.877965 -0.275783
v 0.014161 0.684063 0.001623
v -0.422694 0.877965 -0.275783
v -0.051956 0.624895 0.040391
v -0.012559 0.623420 -0.015585
v 0.014161 0.684063 0.001623
v -0.051956 0.624895 0.040391
v -0.406147 0.877345 -0.299293
v -0.422694 0.877965 -0.275783
v -0.394925 0.902816 -0.292066
v -0.051956 0.624895 0.040391
v -0.422694 0.877965 -0.275783
v -0.417370 0.851875 -0.306521
v -0.051956 0.624895 0.040391
v -0.417370 0.851875 -0.306521
v -0.039279 0.562777 -0.032793
v -0.012559 0.623420 -0.015585
v -0.051956 0.624895 0.040391
v -0.039279 0.562777 -0.032793
v -0.406147 0.877345 -0.299293
v -0.417370 0.851875 -0.306521
v -0.422694 0.877965 -0.275783
v -0.039279 0.562777 -0.032793
v -0.417370 0.851875 -0.306521
v -0.389600 0.876726 -0.322803
v -0.039279 0.562777 -0.032793
v -0.389600 0.876726 -0.322803
v 0.026839 0.621945 -0.071561
v -0.012559 0.623420 -0.015585
v -0.039279 0.562777 -0.032793
v 0.026839 0.621945 -0.071561
v -0.406147 0.877345 -0.299293
v -0.389600 0.876726 -0.322803
v -0.417370 0.851875 -0.306521
v -0.231263 0.782863 -0.205523
v -0.337583 0.829953 -0.428419
v -0.345244 0.838989 -0.423764
v -0.231263 0.782863 -0.205523
v -0.345244 0.838989 -0.423764
v -0.258072 0.814481 -0.189234
v -0.260754 0.783544 -0.194490
v -0.231263 0.782863 -0.205523
v -0.258072 0.814481 -0.189234
v -0.346010 0.830148 -0.425266
v -0.345244 0.838989 -0.423764
v -0.337583 0.829953 -0.428419
v -0.258072 0.814481 -0.189234
v -0.345244 0.838989 -0.423764
v -0.354438 0.830343 -0.422113
v -0.258072 0.814481 -0.189234
v -0.354438 0.830343 -0.422113
v -0.290245 0.784226 -0.183458
v -0.260754 0.783544 -0.194490
v -0.258072 0.814481 -0.189234
v -0.290245 0.784226 -0.183458
v -0.346010 0.830148 -0.425266
v -0.354438 0.830343 -0.422113
v -0.345244 0.838989 -0.423764
v -0.290245 0.784226 -0.183458
v -0.354438 0.830343 -0.422113
v -0.346777 0.821307 -0.426768
v -0.290245 0.784226 -0.183458
v -0.346777 0.821307 -0.426768
v -0.263436 0.752608 -0.199747
v -0.260754 0.783544 -0.194490
v -0.290245 0.784226 -0.183458
v -0.263436 0.752608 -0.199747
v -0.346010 0.830148 -0.425266
v -0.346777 0.821307 -0.426768
v -0.354438 0.830343 -0.422113
v -0.263436 0.752608 -0.199747
v -0.346777 0.821307 -0.426768
v -0.337583 0.829953 -0.428419
v -0.263436 0.752608 -0.199747
v -0.337583 0.829953 -0.428419
v -0.231263 0.782863 -0.205523
v -0.260754 0.783544 -0.194490
v -0.263436 0.752608 -0.199747
v -0.231263 0.782863 -0.205523
v -0.346010 0.830148 -0.425266
v -0.337583 0.829953 -0.428419
v -0.346777 0.821307 -0.426768
v -0.264836 0.805682 -0.214086
v -0.259413 0.872876 -0.362850
v -0.268812 0.881208 -0.360790
v -0.264836 0.805682 -0.214086
v -0.268812 0.881208 -0.360790
v -0.297727 0.834838 -0.206878
v -0.295812 0.806162 -0.219761
v -0.264836 0.805682 -0.214086
v -0.297727 0.834838 -0.206878
v -0.268265 0.873013 -0.364471
v -0.268812 0.881208 -0.360790
v -0.259413 0.872876 -0.362850
v -0.297727 0.834838 -0.206878
v -0.268812 0.881208 -0.360790
v -0.277116 0.873151 -0.366093
v -0.297727 0.834838 -0.206878
v -0.277116 0.873151 -0.366093
v -0.326787 0.806642 -0.225436
v -0.295812 0.806162 -0.219761
v -0.297727 0.834838 -0.206878
v -0.326787 0.806642 -0.225436
v -0.268265 0.873013 -0.364471
v -0.277116 0.873151 -0.366093
v -0.268812 0.881208 -0.360790
v -0.326787 0.806642 -0.225436
v -0.277116 0.873151 -0.366093
v -0.267717 0.864819 -0.368153
v -0.326787 0.806642 -0.225436
v -0.267717 0.864819 -0.368153
v -0.293896 0.777487 -0.232643
v -0.295812 0.806162 -0.219761
v -0.326787 0.806642 -0.225436
v -0.293896 0.777487 -0.232643
v -0.268265 0.873013 -0.364471
v -0.267717 0.864819 -0.368153
v -0.277116 0.873151 -0.366093
v -0.293896 0.777487 -0.232643
v -0.267717 0.864819 -0.368153
v -0.259413 0.872876 -0.362850
v -0.293896 0.777487 -0.232643
v -0.259413 0.872876 -0.362850
v -0.264836 0.805682 -0.214086
v -0.295812 0.806162 -0.219761
v -0.293896 0.777487 -0.232643
v -0.264836 0.805682 -0.214086
v -0.268265 0.873013 -0.364471
v -0.259413 0.872876 -0.362850
v -0.267717 0.864819 -0.368153
f 1 2 3
f 4 5 6
f 7 8 9
f 10 11 12
f 13 14 15
f 16 17 18
f 19 20 21
f 22 23 24
f 25 26 27
f 28 29 30
f 31 32 33
f 34 35 36
f 37 38 39
f 40 41 42
f 43 44 45
f 46 47 48
f 49 50 51
f 52 53 54
f 55 56 57
f 58 59 60
f 61 62 63
f 64 65 66
f 67 68 69
f 70 71 72
f 73 74 75
f 76 77 78
f 79 80 81
f 82 83 84
f 85 86 87
f 88 89 90
f 91 92 93
f 94 95 96
f 97 98 99
f 100 101 102
f 103 104 105
f 106 107 108
f 109 110 111
f 112 113 114
f 115 116 117
f 118 119 120
f 121 122 123
f 124 125 126
f 127 128 129
f 130 131 132
f 133 134 135
f 136 137 138
f 139 140 141
f 142 143 144
f 145 146 147
f 148 149 150
f 151 152 153
f 154 155 156
f 157 158 159
f 160 161 162
f 163 164 165
f 166 167 168
f 169 170 171
f 172 173 174
f 175 176 177
f 178 179 180
f 181 182 183
f 184 185 186
f 187 188 189
f 190 191 192
f 193 194 195
f 196 197 198
f 199 200 201
f 202 203 204
f 205 206 207
f 208 209 210
f 211 212 213
f 214 215 216
f 217 218 219
f 220 221 222
f 223 224 225
f 226 227 228
f 229 230 231
f 232 233 234
f 235 236 237
f 238 239 240
f 241 242 243
f 244 245 246
f 247 248 249
f 250 251 252
f 253 254 255
f 256 257 258
f 259 260 261
f 262 263 264
f 265 266 267
f 268 269 270
f 271 272 273
f 274 275 276
f 277 278 279
f 280 281 282
f 283 284 285
f 286 287 288
f 289 290 291
f 292 293 294
f 295 296 297
f 298 299 300
f 301 302 303
f 304 305 306
f 307 308 309
f 310 311 312
f 313 314 315
f 316 317 318
f 319 320 321
f 322 323 324
f 325 326 327
f 328 329 330
f 331 332 333
f 334 335 336
f 337 338 339
f 340 341 342
f 343 344 345
f 346 347 348
f 349 350 351
f 352 353 354
f 355 356 357
f 358 359 360
f 361 362 363
f 364 365 366
f 367 368 369
f 370 371 372
f 373 374 375
f 376 377 378
f 379 380 381
f 382 383 384
f 385 386 387
f 388 389 390
f 391 392 393
f 394 395 396
f 397 398 399
f 400 401 402
f 403 404 405
f 406 407 408
f 409 410 411
f 412 413 414
f 415 416 417
f 418 419 420
f 421 422 423
f 424 425 426
f 427 428 429
f 430 431 432
f 433 434 435
f 436 437 438
f 439 440 441
f 442 443 444
f 445 446 447
f 448 449 450
f 451 452 453
f 454 455 456
f 457 458 459
f 460 461 462
f 463 464 465
f 466 467 468
f 469 470 471
f 472 473 474
f 475 476 477
f 478 479 480
f 481 482 483
f 484 485 486
f 487 488 489
f 490 491 492
f 493 494 495
f 496 497 498
f 499 500 501
f 502 503 504
f 505 506 507
f 508 509 510
f 511 512 513
f 514 515 516
f 517 518 519
f 520 521 522
f 523 524 525
f 526 527 528
f 529 530 531
f 532 533 534
f 535 536 537
f 538 539 540
f 541 542 543
f 544 545 546
f 547 548 549
f 550 551 552
f 553 554 555
f 556 557 558
f 559 560 561
f 562 563 564
f 565 566 567
f 568 569 570
f 571 572 573
f 574 575 576
f 577 578 579
f 580 581 582
f 583 584 585
f 586 587 588
f 589 590 591
f 592 593 594
f 595 596 597
f 598 599 600
f 601 602 603
f 604 605 606
f 607 608 609
f 610 611 612
f 613 614 615
f 616 617 618
f 619 620 621
f 622 623 624
f 625 626 627
f 628 629 630
f 631 632 633
f 634 635 636
f 637 638 639
f 640 641 642
f 643 644 645
f 646 647 648
f 649 650 651
f 652 653 654
f 655 656 657
f 658 659 660
f 661 662 663
f 664 665 666
f 667 668 669
f 670 671 672
f 673 674 675
f 676 677 678
f 679 680 681
f 682 683 684
f 685 686 687
f 688 689 690
f 691 692 693
f 694 695 696
f 697 698 699
f 700 701 702
f 703 704 705
f 706 707 708
f 709 710 711
f 712 713 714
f 715 716 717
f 718 719 720
f 721 722 723
f 724 725 726
f 727 728 729
f 730 731 732
f 733 734 735
f 736 737 738
f 739 740 741
f 742 743 744
f 745 746 747
f 748 749 750
f 751 752 753
f 754 755 756
f 757 758 759
f 760 761 762
f 763 764 765
f 766 767 768
f 769 770 771
f 772 773 774
f 775 776 777
f 778 779 780
f 781 782 783
f 784 785 786
f 787 788 789
f 790 791 792
f 793 794 795
f 796 797 798
f 799 800 801
f 802 803 804
f 805 806 807
f 808 809 810
f 811 812 813
f 814 815 816
f 817 818 819
f 820 821 822
f 823 824 825
f 826 827 828
f 829 830 831
f 832 833 834
f 835 836 837
f 838 839 840
