# Pyramida editable prop source
# units: 1 OBJ unit = 1 Pyramida World Unit = 1 Blender metre

o TreeTrunk
v 0.043071 0.075684 0.105317
v 0.303392 0.012997 0.033224
v 0.309712 0.035998 0.009079
v 0.043071 0.075684 0.105317
v 0.309712 0.035998 0.009079
v 0.070720 0.176314 -0.000320
v 0.046321 0.074190 0.000378
v 0.043071 0.075684 0.105317
v 0.070720 0.176314 -0.000320
v 0.304135 0.012656 0.009238
v 0.309712 0.035998 0.009079
v 0.303392 0.012997 0.033224
v 0.070720 0.176314 -0.000320
v 0.309712 0.035998 0.009079
v 0.304878 0.012314 -0.014748
v 0.070720 0.176314 -0.000320
v 0.304878 0.012314 -0.014748
v 0.049571 0.072697 -0.104561
v 0.046321 0.074190 0.000378
v 0.070720 0.176314 -0.000320
v 0.049571 0.072697 -0.104561
v 0.304135 0.012656 0.009238
v 0.304878 0.012314 -0.014748
v 0.309712 0.035998 0.009079
v 0.049571 0.072697 -0.104561
v 0.304878 0.012314 -0.014748
v 0.298558 -0.010687 0.009398
v 0.049571 0.072697 -0.104561
v 0.298558 -0.010687 0.009398
v 0.021922 -0.027933 0.001077
v 0.046321 0.074190 0.000378
v 0.049571 0.072697 -0.104561
v 0.021922 -0.027933 0.001077
v 0.304135 0.012656 0.009238
v 0.298558 -0.010687 0.009398
v 0.304878 0.012314 -0.014748
v 0.021922 -0.027933 0.001077
v 0.298558 -0.010687 0.009398
v 0.303392 0.012997 0.033224
v 0.021922 -0.027933 0.001077
v 0.303392 0.012997 0.033224
v 0.043071 0.075684 0.105317
v 0.046321 0.074190 0.000378
v 0.021922 -0.027933 0.001077
v 0.043071 0.075684 0.105317
v 0.304135 0.012656 0.009238
v 0.303392 0.012997 0.033224
v 0.298558 -0.010687 0.009398
v -0.109501 0.076600 -0.028585
v -0.220744 0.025423 0.251796
v -0.203992 0.048920 0.269665
v -0.109501 0.076600 -0.028585
v -0.203992 0.048920 0.269665
v -0.036212 0.179398 0.049590
v -0.025819 0.075960 0.034834
v -0.109501 0.076600 -0.028585
v -0.036212 0.179398 0.049590
v -0.201617 0.025277 0.266292
v -0.203992 0.048920 0.269665
v -0.220744 0.025423 0.251796
v -0.036212 0.179398 0.049590
v -0.203992 0.048920 0.269665
v -0.182490 0.025131 0.280787
v -0.036212 0.179398 0.049590
v -0.182490 0.025131 0.280787
v 0.057863 0.075321 0.098252
v -0.025819 0.075960 0.034834
v -0.036212 0.179398 0.049590
v 0.057863 0.075321 0.098252
v -0.201617 0.025277 0.266292
v -0.182490 0.025131 0.280787
v -0.203992 0.048920 0.269665
v 0.057863 0.075321 0.098252
v -0.182490 0.025131 0.280787
v -0.199241 0.001634 0.262919
v 0.057863 0.075321 0.098252
v -0.199241 0.001634 0.262919
v -0.015426 -0.027477 0.020078
v -0.025819 0.075960 0.034834
v 0.057863 0.075321 0.098252
v -0.015426 -0.027477 0.020078
v -0.201617 0.025277 0.266292
v -0.199241 0.001634 0.262919
v -0.182490 0.025131 0.280787
v -0.015426 -0.027477 0.020078
v -0.199241 0.001634 0.262919
v -0.220744 0.025423 0.251796
v -0.015426 -0.027477 0.020078
v -0.220744 0.025423 0.251796
v -0.109501 0.076600 -0.028585
v -0.025819 0.075960 0.034834
v -0.015426 -0.027477 0.020078
v -0.109501 0.076600 -0.028585
v -0.201617 0.025277 0.266292
v -0.220744 0.025423 0.251796
v -0.199241 0.001634 0.262919
v 0.052133 0.072667 -0.103328
v -0.133654 0.017747 -0.194723
v -0.155984 0.041279 -0.184742
v 0.052133 0.072667 -0.103328
v -0.155984 0.041279 -0.184742
v -0.045561 0.175618 -0.059658
v -0.027812 0.075037 -0.035297
v 0.052133 0.072667 -0.103328
v -0.045561 0.175618 -0.059658
v -0.151927 0.018289 -0.179173
v -0.155984 0.041279 -0.184742
v -0.133654 0.017747 -0.194723
v -0.045561 0.175618 -0.059658
v -0.155984 0.041279 -0.184742
v -0.170200 0.018831 -0.163624
v -0.045561 0.175618 -0.059658
v -0.170200 0.018831 -0.163624
v -0.107758 0.077407 0.032733
v -0.027812 0.075037 -0.035297
v -0.045561 0.175618 -0.059658
v -0.107758 0.077407 0.032733
v -0.151927 0.018289 -0.179173
v -0.170200 0.018831 -0.163624
v -0.155984 0.041279 -0.184742
v -0.107758 0.077407 0.032733
v -0.170200 0.018831 -0.163624
v -0.147870 -0.004701 -0.173605
v -0.107758 0.077407 0.032733
v -0.147870 -0.004701 -0.173605
v -0.010064 -0.025544 -0.010937
v -0.027812 0.075037 -0.035297
v -0.107758 0.077407 0.032733
v -0.010064 -0.025544 -0.010937
v -0.151927 0.018289 -0.179173
v -0.147870 -0.004701 -0.173605
v -0.170200 0.018831 -0.163624
v -0.010064 -0.025544 -0.010937
v -0.147870 -0.004701 -0.173605
v -0.133654 0.017747 -0.194723
v -0.010064 -0.025544 -0.010937
v -0.133654 0.017747 -0.194723
v 0.052133 0.072667 -0.103328
v -0.027812 0.075037 -0.035297
v -0.010064 -0.025544 -0.010937
v 0.052133 0.072667 -0.103328
v -0.151927 0.018289 -0.179173
v -0.133654 0.017747 -0.194723
v -0.147870 -0.004701 -0.173605
v -0.000033 -0.003999 -0.159950
v -0.020177 0.996985 -0.156632
v 0.093840 1.000925 -0.090900
v -0.000033 -0.003999 -0.159950
v 0.093840 1.000925 -0.090900
v 0.138520 0.000789 -0.080073
v 0.000000 0.000000 0.000000
v -0.000033 -0.003999 -0.159950
v 0.138520 0.000789 -0.080073
v 0.138520 0.000789 -0.080073
v 0.093840 1.000925 -0.090900
v 0.093867 1.004216 0.040726
v 0.138520 0.000789 -0.080073
v 0.093867 1.004216 0.040726
v 0.138552 0.004788 0.079877
v 0.000000 0.000000 0.000000
v 0.138520 0.000789 -0.080073
v 0.138552 0.004788 0.079877
v 0.138552 0.004788 0.079877
v 0.093867 1.004216 0.040726
v -0.020123 1.003567 0.106619
v 0.138552 0.004788 0.079877
v -0.020123 1.003567 0.106619
v 0.000033 0.003999 0.159950
v 0.000000 0.000000 0.000000
v 0.138552 0.004788 0.079877
v 0.000033 0.003999 0.159950
v 0.000033 0.003999 0.159950
v -0.020123 1.003567 0.106619
v -0.134140 0.999627 0.040887
v 0.000033 0.003999 0.159950
v -0.134140 0.999627 0.040887
v -0.138520 -0.000789 0.080073
v 0.000000 0.000000 0.000000
v 0.000033 0.003999 0.159950
v -0.138520 -0.000789 0.080073
v -0.138520 -0.000789 0.080073
v -0.134140 0.999627 0.040887
v -0.134167 0.996336 -0.090738
v -0.138520 -0.000789 0.080073
v -0.134167 0.996336 -0.090738
v -0.138552 -0.004788 -0.079877
v 0.000000 0.000000 0.000000
v -0.138520 -0.000789 0.080073
v -0.138552 -0.004788 -0.079877
v -0.138552 -0.004788 -0.079877
v -0.134167 0.996336 -0.090738
v -0.020177 0.996985 -0.156632
v -0.138552 -0.004788 -0.079877
v -0.020177 0.996985 -0.156632
v -0.000033 -0.003999 -0.159950
v 0.000000 0.000000 0.000000
v -0.138552 -0.004788 -0.079877
v -0.000033 -0.003999 -0.159950
v -0.020105 1.000996 -0.156671
v -0.009798 2.000986 -0.122868
v 0.079669 1.999780 -0.071176
v -0.020105 1.000996 -0.156671
v 0.079669 1.999780 -0.071176
v 0.093893 0.999460 -0.090806
v -0.009833 2.000421 -0.019536
v 0.079669 1.999780 -0.071176
v -0.009798 2.000986 -0.122868
v 0.093893 0.999460 -0.090806
v 0.079669 1.999780 -0.071176
v 0.079633 1.999215 0.032156
v 0.093893 0.999460 -0.090806
v 0.079633 1.999215 0.032156
v 0.093848 0.998740 0.040859
v -0.009833 2.000421 -0.019536
v 0.079633 1.999215 0.032156
v 0.079669 1.999780 -0.071176
v 0.093848 0.998740 0.040859
v 0.079633 1.999215 0.032156
v -0.009869 1.999856 0.083796
v 0.093848 0.998740 0.040859
v -0.009869 1.999856 0.083796
v -0.020196 0.999557 0.106659
v -0.009833 2.000421 -0.019536
v -0.009869 1.999856 0.083796
v 0.079633 1.999215 0.032156
v -0.020196 0.999557 0.106659
v -0.009869 1.999856 0.083796
v -0.099336 2.001062 0.032104
v -0.020196 0.999557 0.106659
v -0.099336 2.001062 0.032104
v -0.134193 1.001093 0.040793
v -0.009833 2.000421 -0.019536
v -0.099336 2.001062 0.032104
v -0.009869 1.999856 0.083796
v -0.134193 1.001093 0.040793
v -0.099336 2.001062 0.032104
v -0.099300 2.001626 -0.071227
v -0.134193 1.001093 0.040793
v -0.099300 2.001626 -0.071227
v -0.134148 1.001812 -0.090871
v -0.009833 2.000421 -0.019536
v -0.099300 2.001626 -0.071227
v -0.099336 2.001062 0.032104
v -0.134148 1.001812 -0.090871
v -0.099300 2.001626 -0.071227
v -0.009798 2.000986 -0.122868
v -0.134148 1.001812 -0.090871
v -0.009798 2.000986 -0.122868
v -0.020105 1.000996 -0.156671
v -0.009833 2.000421 -0.019536
v -0.009798 2.000986 -0.122868
v -0.099300 2.001626 -0.071227
v -0.032607 1.840326 0.027294
v 0.320916 2.001292 0.147137
v 0.321955 2.020954 0.123199
v -0.032607 1.840326 0.027294
v 0.321955 2.020954 0.123199
v -0.030135 1.887142 -0.029700
v -0.011495 1.839294 -0.020417
v -0.032607 1.840326 0.027294
v -0.030135 1.887142 -0.029700
v 0.329783 2.000858 0.127098
v 0.321955 2.020954 0.123199
v 0.320916 2.001292 0.147137
v -0.030135 1.887142 -0.029700
v 0.321955 2.020954 0.123199
v 0.338650 2.000424 0.107059
v -0.030135 1.887142 -0.029700
v 0.338650 2.000424 0.107059
v 0.009616 1.838261 -0.068128
v -0.011495 1.839294 -0.020417
v -0.030135 1.887142 -0.029700
v 0.009616 1.838261 -0.068128
v 0.329783 2.000858 0.127098
v 0.338650 2.000424 0.107059
v 0.321955 2.020954 0.123199
v 0.009616 1.838261 -0.068128
v 0.338650 2.000424 0.107059
v 0.337612 1.980761 0.130997
v 0.009616 1.838261 -0.068128
v 0.337612 1.980761 0.130997
v 0.007144 1.791445 -0.011134
v -0.011495 1.839294 -0.020417
v 0.009616 1.838261 -0.068128
v 0.007144 1.791445 -0.011134
v 0.329783 2.000858 0.127098
v 0.337612 1.980761 0.130997
v 0.338650 2.000424 0.107059
v 0.007144 1.791445 -0.011134
v 0.337612 1.980761 0.130997
v 0.320916 2.001292 0.147137
v 0.007144 1.791445 -0.011134
v 0.320916 2.001292 0.147137
v -0.032607 1.840326 0.027294
v -0.011495 1.839294 -0.020417
v 0.007144 1.791445 -0.011134
v -0.032607 1.840326 0.027294
v 0.329783 2.000858 0.127098
v 0.320916 2.001292 0.147137
v 0.337612 1.980761 0.130997
v 0.264630 1.966280 0.117932
v 0.419301 2.047299 0.044971
v 0.412562 2.055364 0.037791
v 0.264630 1.966280 0.117932
v 0.412562 2.055364 0.037791
v 0.246658 1.987791 0.098782
v 0.256405 1.966120 0.095381
v 0.264630 1.966280 0.117932
v 0.246658 1.987791 0.098782
v 0.416217 2.047239 0.036516
v 0.412562 2.055364 0.037791
v 0.419301 2.047299 0.044971
v 0.246658 1.987791 0.098782
v 0.412562 2.055364 0.037791
v 0.413133 2.047179 0.028061
v 0.246658 1.987791 0.098782
v 0.413133 2.047179 0.028061
v 0.248180 1.965959 0.072830
v 0.256405 1.966120 0.095381
v 0.246658 1.987791 0.098782
v 0.248180 1.965959 0.072830
v 0.416217 2.047239 0.036516
v 0.413133 2.047179 0.028061
v 0.412562 2.055364 0.037791
v 0.248180 1.965959 0.072830
v 0.413133 2.047179 0.028061
v 0.419872 2.039114 0.035241
v 0.248180 1.965959 0.072830
v 0.419872 2.039114 0.035241
v 0.266152 1.944449 0.091980
v 0.256405 1.966120 0.095381
v 0.248180 1.965959 0.072830
v 0.266152 1.944449 0.091980
v 0.416217 2.047239 0.036516
v 0.419872 2.039114 0.035241
v 0.413133 2.047179 0.028061
v 0.266152 1.944449 0.091980
v 0.419872 2.039114 0.035241
v 0.419301 2.047299 0.044971
v 0.266152 1.944449 0.091980
v 0.419301 2.047299 0.044971
v 0.264630 1.966280 0.117932
v 0.256405 1.966120 0.095381
v 0.266152 1.944449 0.091980
v 0.264630 1.966280 0.117932
v 0.416217 2.047239 0.036516
v 0.419301 2.047299 0.044971
v 0.419872 2.039114 0.035241
v 0.152587 1.919514 0.076031
v 0.352717 2.022105 0.097344
v 0.350402 2.029961 0.087601
v 0.152587 1.919514 0.076031
v 0.350402 2.029961 0.087601
v 0.146414 1.940466 0.050045
v 0.157104 1.919110 0.052459
v 0.152587 1.919514 0.076031
v 0.146414 1.940466 0.050045
v 0.354410 2.021954 0.088506
v 0.350402 2.029961 0.087601
v 0.352717 2.022105 0.097344
v 0.146414 1.940466 0.050045
v 0.350402 2.029961 0.087601
v 0.356104 2.021803 0.079669
v 0.146414 1.940466 0.050045
v 0.356104 2.021803 0.079669
v 0.161622 1.918706 0.028887
v 0.157104 1.919110 0.052459
v 0.146414 1.940466 0.050045
v 0.161622 1.918706 0.028887
v 0.354410 2.021954 0.088506
v 0.356104 2.021803 0.079669
v 0.350402 2.029961 0.087601
v 0.161622 1.918706 0.028887
v 0.356104 2.021803 0.079669
v 0.358419 2.013947 0.089412
v 0.161622 1.918706 0.028887
v 0.358419 2.013947 0.089412
v 0.167795 1.897754 0.054873
v 0.157104 1.919110 0.052459
v 0.161622 1.918706 0.028887
v 0.167795 1.897754 0.054873
v 0.354410 2.021954 0.088506
v 0.358419 2.013947 0.089412
v 0.356104 2.021803 0.079669
v 0.167795 1.897754 0.054873
v 0.358419 2.013947 0.089412
v 0.352717 2.022105 0.097344
v 0.167795 1.897754 0.054873
v 0.352717 2.022105 0.097344
v 0.152587 1.919514 0.076031
v 0.157104 1.919110 0.052459
v 0.167795 1.897754 0.054873
v 0.152587 1.919514 0.076031
v 0.354410 2.021954 0.088506
v 0.352717 2.022105 0.097344
v 0.358419 2.013947 0.089412
v -0.064679 1.487689 -0.038698
v -0.164294 1.698253 0.368292
v -0.140148 1.717534 0.365856
v -0.064679 1.487689 -0.038698
v -0.140148 1.717534 0.365856
v -0.007189 1.533596 -0.044497
v -0.015129 1.487021 -0.022344
v -0.064679 1.487689 -0.038698
v -0.007189 1.533596 -0.044497
v -0.143483 1.697973 0.375161
v -0.140148 1.717534 0.365856
v -0.164294 1.698253 0.368292
v -0.007189 1.533596 -0.044497
v -0.140148 1.717534 0.365856
v -0.122672 1.697692 0.382029
v -0.007189 1.533596 -0.044497
v -0.122672 1.697692 0.382029
v 0.034421 1.486352 -0.005990
v -0.015129 1.487021 -0.022344
v -0.007189 1.533596 -0.044497
v 0.034421 1.486352 -0.005990
v -0.143483 1.697973 0.375161
v -0.122672 1.697692 0.382029
v -0.140148 1.717534 0.365856
v 0.034421 1.486352 -0.005990
v -0.122672 1.697692 0.382029
v -0.146818 1.678411 0.384465
v 0.034421 1.486352 -0.005990
v -0.146818 1.678411 0.384465
v -0.023069 1.440445 -0.000191
v -0.015129 1.487021 -0.022344
v 0.034421 1.486352 -0.005990
v -0.023069 1.440445 -0.000191
v -0.143483 1.697973 0.375161
v -0.146818 1.678411 0.384465
v -0.122672 1.697692 0.382029
v -0.023069 1.440445 -0.000191
v -0.146818 1.678411 0.384465
v -0.164294 1.698253 0.368292
v -0.023069 1.440445 -0.000191
v -0.164294 1.698253 0.368292
v -0.064679 1.487689 -0.038698
v -0.015129 1.487021 -0.022344
v -0.023069 1.440445 -0.000191
v -0.064679 1.487689 -0.038698
v -0.143483 1.697973 0.375161
v -0.164294 1.698253 0.368292
v -0.146818 1.678411 0.384465
v -0.110778 1.628682 0.222748
v -0.223455 1.689656 0.286474
v -0.216413 1.697841 0.293213
v -0.110778 1.628682 0.222748
v -0.216413 1.697841 0.293213
v -0.091996 1.650511 0.240724
v -0.101405 1.628816 0.244846
v -0.110778 1.628682 0.222748
v -0.091996 1.650511 0.240724
v -0.219941 1.689706 0.294759
v -0.216413 1.697841 0.293213
v -0.223455 1.689656 0.286474
v -0.091996 1.650511 0.240724
v -0.216413 1.697841 0.293213
v -0.216427 1.689756 0.303044
v -0.091996 1.650511 0.240724
v -0.216427 1.689756 0.303044
v -0.092031 1.628949 0.266944
v -0.101405 1.628816 0.244846
v -0.091996 1.650511 0.240724
v -0.092031 1.628949 0.266944
v -0.219941 1.689706 0.294759
v -0.216427 1.689756 0.303044
v -0.216413 1.697841 0.293213
v -0.092031 1.628949 0.266944
v -0.216427 1.689756 0.303044
v -0.223469 1.681572 0.296304
v -0.092031 1.628949 0.266944
v -0.223469 1.681572 0.296304
v -0.110814 1.607121 0.248968
v -0.101405 1.628816 0.244846
v -0.092031 1.628949 0.266944
v -0.110814 1.607121 0.248968
v -0.219941 1.689706 0.294759
v -0.223469 1.681572 0.296304
v -0.216427 1.689756 0.303044
v -0.110814 1.607121 0.248968
v -0.223469 1.681572 0.296304
v -0.223455 1.689656 0.286474
v -0.110814 1.607121 0.248968
v -0.223455 1.689656 0.286474
v -0.110778 1.628682 0.222748
v -0.101405 1.628816 0.244846
v -0.110814 1.607121 0.248968
v -0.110778 1.628682 0.222748
v -0.219941 1.689706 0.294759
v -0.223455 1.689656 0.286474
v -0.223469 1.681572 0.296304
v -0.132760 1.648147 0.293632
v -0.029455 1.727155 0.417333
v -0.024061 1.735015 0.408900
v -0.132760 1.648147 0.293632
v -0.024061 1.735015 0.408900
v -0.118373 1.669112 0.271139
v -0.112838 1.647606 0.280252
v -0.132760 1.648147 0.293632
v -0.118373 1.669112 0.271139
v -0.021985 1.726952 0.412316
v -0.024061 1.735015 0.408900
v -0.029455 1.727155 0.417333
v -0.118373 1.669112 0.271139
v -0.024061 1.735015 0.408900
v -0.014516 1.726748 0.407300
v -0.118373 1.669112 0.271139
v -0.014516 1.726748 0.407300
v -0.092915 1.647064 0.266873
v -0.112838 1.647606 0.280252
v -0.118373 1.669112 0.271139
v -0.092915 1.647064 0.266873
v -0.021985 1.726952 0.412316
v -0.014516 1.726748 0.407300
v -0.024061 1.735015 0.408900
v -0.092915 1.647064 0.266873
v -0.014516 1.726748 0.407300
v -0.019910 1.718888 0.415733
v -0.092915 1.647064 0.266873
v -0.019910 1.718888 0.415733
v -0.107302 1.626099 0.289365
v -0.112838 1.647606 0.280252
v -0.092915 1.647064 0.266873
v -0.107302 1.626099 0.289365
v -0.021985 1.726952 0.412316
v -0.019910 1.718888 0.415733
v -0.014516 1.726748 0.407300
v -0.107302 1.626099 0.289365
v -0.019910 1.718888 0.415733
v -0.029455 1.727155 0.417333
v -0.107302 1.626099 0.289365
v -0.029455 1.727155 0.417333
v -0.132760 1.648147 0.293632
v -0.112838 1.647606 0.280252
v -0.107302 1.626099 0.289365
v -0.132760 1.648147 0.293632
v -0.021985 1.726952 0.412316
v -0.029455 1.727155 0.417333
v -0.019910 1.718888 0.415733
v -0.099458 1.586675 0.165844
v -0.072671 1.689046 0.354276
v -0.063761 1.696791 0.349519
v -0.099458 1.586675 0.165844
v -0.063761 1.696791 0.349519
v -0.075693 1.607330 0.153156
v -0.075491 1.586226 0.164592
v -0.099458 1.586675 0.165844
v -0.075693 1.607330 0.153156
v -0.063685 1.688878 0.353807
v -0.063761 1.696791 0.349519
v -0.072671 1.689046 0.354276
v -0.075693 1.607330 0.153156
v -0.063761 1.696791 0.349519
v -0.054699 1.688710 0.353337
v -0.075693 1.607330 0.153156
v -0.054699 1.688710 0.353337
v -0.051523 1.585777 0.163340
v -0.075491 1.586226 0.164592
v -0.075693 1.607330 0.153156
v -0.051523 1.585777 0.163340
v -0.063685 1.688878 0.353807
v -0.054699 1.688710 0.353337
v -0.063761 1.696791 0.349519
v -0.051523 1.585777 0.163340
v -0.054699 1.688710 0.353337
v -0.063609 1.680966 0.358094
v -0.051523 1.585777 0.163340
v -0.063609 1.680966 0.358094
v -0.075288 1.565122 0.176029
v -0.075491 1.586226 0.164592
v -0.051523 1.585777 0.163340
v -0.075288 1.565122 0.176029
v -0.063685 1.688878 0.353807
v -0.063609 1.680966 0.358094
v -0.054699 1.688710 0.353337
v -0.075288 1.565122 0.176029
v -0.063609 1.680966 0.358094
v -0.072671 1.689046 0.354276
v -0.075288 1.565122 0.176029
v -0.072671 1.689046 0.354276
v -0.099458 1.586675 0.165844
v -0.075491 1.586226 0.164592
v -0.075288 1.565122 0.176029
v -0.099458 1.586675 0.165844
v -0.063685 1.688878 0.353807
v -0.072671 1.689046 0.354276
v -0.063609 1.680966 0.358094
v -0.002603 1.593958 -0.072666
v -0.466487 1.841969 -0.150032
v -0.461235 1.861733 -0.126740
v -0.002603 1.593958 -0.072666
v -0.461235 1.861733 -0.126740
v 0.009902 1.641016 -0.017209
v -0.014017 1.594860 -0.021754
v -0.002603 1.593958 -0.072666
v 0.009902 1.641016 -0.017209
v -0.471281 1.842348 -0.128649
v -0.461235 1.861733 -0.126740
v -0.466487 1.841969 -0.150032
v 0.009902 1.641016 -0.017209
v -0.461235 1.861733 -0.126740
v -0.476075 1.842727 -0.107266
v 0.009902 1.641016 -0.017209
v -0.476075 1.842727 -0.107266
v -0.025430 1.595762 0.029158
v -0.014017 1.594860 -0.021754
v 0.009902 1.641016 -0.017209
v -0.025430 1.595762 0.029158
v -0.471281 1.842348 -0.128649
v -0.476075 1.842727 -0.107266
v -0.461235 1.861733 -0.126740
v -0.025430 1.595762 0.029158
v -0.476075 1.842727 -0.107266
v -0.481327 1.822962 -0.130558
v -0.025430 1.595762 0.029158
v -0.481327 1.822962 -0.130558
v -0.037936 1.548705 -0.026299
v -0.014017 1.594860 -0.021754
v -0.025430 1.595762 0.029158
v -0.037936 1.548705 -0.026299
v -0.471281 1.842348 -0.128649
v -0.481327 1.822962 -0.130558
v -0.476075 1.842727 -0.107266
v -0.037936 1.548705 -0.026299
v -0.481327 1.822962 -0.130558
v -0.466487 1.841969 -0.150032
v -0.037936 1.548705 -0.026299
v -0.466487 1.841969 -0.150032
v -0.002603 1.593958 -0.072666
v -0.014017 1.594860 -0.021754
v -0.037936 1.548705 -0.026299
v -0.002603 1.593958 -0.072666
v -0.471281 1.842348 -0.128649
v -0.466487 1.841969 -0.150032
v -0.481327 1.822962 -0.130558
v -0.260691 1.732824 -0.103755
v -0.468985 1.856971 -0.175451
v -0.468250 1.864987 -0.165591
v -0.260691 1.732824 -0.103755
v -0.468250 1.864987 -0.165591
v -0.258730 1.754202 -0.077458
v -0.269786 1.733291 -0.081545
v -0.260691 1.732824 -0.103755
v -0.258730 1.754202 -0.077458
v -0.472395 1.857147 -0.167124
v -0.468250 1.864987 -0.165591
v -0.468985 1.856971 -0.175451
v -0.258730 1.754202 -0.077458
v -0.468250 1.864987 -0.165591
v -0.475805 1.857322 -0.158797
v -0.258730 1.754202 -0.077458
v -0.475805 1.857322 -0.158797
v -0.278881 1.733759 -0.059336
v -0.269786 1.733291 -0.081545
v -0.258730 1.754202 -0.077458
v -0.278881 1.733759 -0.059336
v -0.472395 1.857147 -0.167124
v -0.475805 1.857322 -0.158797
v -0.468250 1.864987 -0.165591
v -0.278881 1.733759 -0.059336
v -0.475805 1.857322 -0.158797
v -0.476540 1.849306 -0.168656
v -0.278881 1.733759 -0.059336
v -0.476540 1.849306 -0.168656
v -0.280842 1.712381 -0.085633
v -0.269786 1.733291 -0.081545
v -0.278881 1.733759 -0.059336
v -0.280842 1.712381 -0.085633
v -0.472395 1.857147 -0.167124
v -0.476540 1.849306 -0.168656
v -0.475805 1.857322 -0.158797
v -0.280842 1.712381 -0.085633
v -0.476540 1.849306 -0.168656
v -0.468985 1.856971 -0.175451
v -0.280842 1.712381 -0.085633
v -0.468985 1.856971 -0.175451
v -0.260691 1.732824 -0.103755
v -0.269786 1.733291 -0.081545
v -0.280842 1.712381 -0.085633
v -0.260691 1.732824 -0.103755
v -0.472395 1.857147 -0.167124
v -0.468985 1.856971 -0.175451
v -0.476540 1.849306 -0.168656
v -0.291308 1.754793 -0.105454
v -0.375386 1.807534 -0.194658
v -0.380306 1.816002 -0.186529
v -0.291308 1.754793 -0.105454
v -0.380306 1.816002 -0.186529
v -0.304428 1.777379 -0.083771
v -0.310515 1.755336 -0.091067
v -0.291308 1.754793 -0.105454
v -0.304428 1.777379 -0.083771
v -0.382588 1.807737 -0.189264
v -0.380306 1.816002 -0.186529
v -0.375386 1.807534 -0.194658
v -0.304428 1.777379 -0.083771
v -0.380306 1.816002 -0.186529
v -0.389789 1.807941 -0.183870
v -0.304428 1.777379 -0.083771
v -0.389789 1.807941 -0.183870
v -0.329723 1.755878 -0.076680
v -0.310515 1.755336 -0.091067
v -0.304428 1.777379 -0.083771
v -0.329723 1.755878 -0.076680
v -0.382588 1.807737 -0.189264
v -0.389789 1.807941 -0.183870
v -0.380306 1.816002 -0.186529
v -0.329723 1.755878 -0.076680
v -0.389789 1.807941 -0.183870
v -0.384870 1.799472 -0.191999
v -0.329723 1.755878 -0.076680
v -0.384870 1.799472 -0.191999
v -0.316603 1.733292 -0.098362
v -0.310515 1.755336 -0.091067
v -0.329723 1.755878 -0.076680
v -0.316603 1.733292 -0.098362
v -0.382588 1.807737 -0.189264
v -0.384870 1.799472 -0.191999
v -0.389789 1.807941 -0.183870
v -0.316603 1.733292 -0.098362
v -0.384870 1.799472 -0.191999
v -0.375386 1.807534 -0.194658
v -0.316603 1.733292 -0.098362
v -0.375386 1.807534 -0.194658
v -0.291308 1.754793 -0.105454
v -0.310515 1.755336 -0.091067
v -0.316603 1.733292 -0.098362
v -0.291308 1.754793 -0.105454
v -0.382588 1.807737 -0.189264
v -0.375386 1.807534 -0.194658
v -0.384870 1.799472 -0.191999
v -0.369009 1.777479 -0.116732
v -0.458952 1.854312 0.005020
v -0.449515 1.862291 0.008066
v -0.369009 1.777479 -0.116732
v -0.449515 1.862291 0.008066
v -0.343838 1.798758 -0.108607
v -0.351245 1.777380 -0.100588
v -0.369009 1.777479 -0.116732
v -0.343838 1.798758 -0.108607
v -0.452292 1.854275 0.011073
v -0.449515 1.862291 0.008066
v -0.458952 1.854312 0.005020
v -0.343838 1.798758 -0.108607
v -0.449515 1.862291 0.008066
v -0.445631 1.854238 0.017126
v -0.343838 1.798758 -0.108607
v -0.445631 1.854238 0.017126
v -0.333480 1.777281 -0.084444
v -0.351245 1.777380 -0.100588
v -0.343838 1.798758 -0.108607
v -0.333480 1.777281 -0.084444
v -0.452292 1.854275 0.011073
v -0.445631 1.854238 0.017126
v -0.449515 1.862291 0.008066
v -0.333480 1.777281 -0.084444
v -0.445631 1.854238 0.017126
v -0.455069 1.846260 0.014080
v -0.333480 1.777281 -0.084444
v -0.455069 1.846260 0.014080
v -0.358652 1.756001 -0.092569
v -0.351245 1.777380 -0.100588
v -0.333480 1.777281 -0.084444
v -0.358652 1.756001 -0.092569
v -0.452292 1.854275 0.011073
v -0.455069 1.846260 0.014080
v -0.445631 1.854238 0.017126
v -0.358652 1.756001 -0.092569
v -0.455069 1.846260 0.014080
v -0.458952 1.854312 0.005020
v -0.358652 1.756001 -0.092569
v -0.458952 1.854312 0.005020
v -0.369009 1.777479 -0.116732
v -0.351245 1.777380 -0.100588
v -0.358652 1.756001 -0.092569
v -0.369009 1.777479 -0.116732
v -0.452292 1.854275 0.011073
v -0.458952 1.854312 0.005020
v -0.455069 1.846260 0.014080
v 0.038879 1.701855 -0.014774
v 0.075087 1.812182 -0.540796
v 0.053135 1.833989 -0.538995
v 0.038879 1.701855 -0.014774
v 0.053135 1.833989 -0.538995
v -0.013389 1.753776 -0.010485
v -0.012904 1.702700 -0.021164
v 0.038879 1.701855 -0.014774
v -0.013389 1.753776 -0.010485
v 0.053338 1.812537 -0.543480
v 0.053135 1.833989 -0.538995
v 0.075087 1.812182 -0.540796
v -0.013389 1.753776 -0.010485
v 0.053135 1.833989 -0.538995
v 0.031589 1.812892 -0.546164
v -0.013389 1.753776 -0.010485
v 0.031589 1.812892 -0.546164
v -0.064688 1.703545 -0.027554
v -0.012904 1.702700 -0.021164
v -0.013389 1.753776 -0.010485
v -0.064688 1.703545 -0.027554
v 0.053338 1.812537 -0.543480
v 0.031589 1.812892 -0.546164
v 0.053135 1.833989 -0.538995
v -0.064688 1.703545 -0.027554
v 0.031589 1.812892 -0.546164
v 0.053541 1.791085 -0.547965
v -0.064688 1.703545 -0.027554
v 0.053541 1.791085 -0.547965
v -0.012420 1.651623 -0.031844
v -0.012904 1.702700 -0.021164
v -0.064688 1.703545 -0.027554
v -0.012420 1.651623 -0.031844
v 0.053338 1.812537 -0.543480
v 0.053541 1.791085 -0.547965
v 0.031589 1.812892 -0.546164
v -0.012420 1.651623 -0.031844
v 0.053541 1.791085 -0.547965
v 0.075087 1.812182 -0.540796
v -0.012420 1.651623 -0.031844
v 0.075087 1.812182 -0.540796
v 0.038879 1.701855 -0.014774
v -0.012904 1.702700 -0.021164
v -0.012420 1.651623 -0.031844
v 0.038879 1.701855 -0.014774
v 0.053338 1.812537 -0.543480
v 0.075087 1.812182 -0.540796
v 0.053541 1.791085 -0.547965
v 0.038852 1.751220 -0.263560
v -0.043145 1.845097 -0.427985
v -0.049735 1.853308 -0.420833
v 0.038852 1.751220 -0.263560
v -0.049735 1.853308 -0.420833
v 0.021276 1.773119 -0.244482
v 0.016674 1.751745 -0.254391
v 0.038852 1.751220 -0.263560
v 0.021276 1.773119 -0.244482
v -0.051461 1.845294 -0.424548
v -0.049735 1.853308 -0.420833
v -0.043145 1.845097 -0.427985
v 0.021276 1.773119 -0.244482
v -0.049735 1.853308 -0.420833
v -0.059776 1.845491 -0.421110
v 0.021276 1.773119 -0.244482
v -0.059776 1.845491 -0.421110
v -0.005504 1.752270 -0.245222
v 0.016674 1.751745 -0.254391
v 0.021276 1.773119 -0.244482
v -0.005504 1.752270 -0.245222
v -0.051461 1.845294 -0.424548
v -0.059776 1.845491 -0.421110
v -0.049735 1.853308 -0.420833
v -0.005504 1.752270 -0.245222
v -0.059776 1.845491 -0.421110
v -0.053186 1.837280 -0.428263
v -0.005504 1.752270 -0.245222
v -0.053186 1.837280 -0.428263
v 0.012072 1.730371 -0.264299
v 0.016674 1.751745 -0.254391
v -0.005504 1.752270 -0.245222
v 0.012072 1.730371 -0.264299
v -0.051461 1.845294 -0.424548
v -0.053186 1.837280 -0.428263
v -0.059776 1.845491 -0.421110
v 0.012072 1.730371 -0.264299
v -0.053186 1.837280 -0.428263
v -0.043145 1.845097 -0.427985
v 0.012072 1.730371 -0.264299
v -0.043145 1.845097 -0.427985
v 0.038852 1.751220 -0.263560
v 0.016674 1.751745 -0.254391
v 0.012072 1.730371 -0.264299
v 0.038852 1.751220 -0.263560
v -0.051461 1.845294 -0.424548
v -0.043145 1.845097 -0.427985
v -0.053186 1.837280 -0.428263
v 0.046317 1.761149 -0.297395
v 0.064763 1.873632 -0.512064
v 0.055375 1.881752 -0.509245
v 0.046317 1.761149 -0.297395
v 0.055375 1.881752 -0.509245
v 0.021279 1.782805 -0.289877
v 0.022575 1.761528 -0.300914
v 0.046317 1.761149 -0.297395
v 0.021279 1.782805 -0.289877
v 0.055861 1.873774 -0.513383
v 0.055375 1.881752 -0.509245
v 0.064763 1.873632 -0.512064
v 0.021279 1.782805 -0.289877
v 0.055375 1.881752 -0.509245
v 0.046959 1.873916 -0.514702
v 0.021279 1.782805 -0.289877
v 0.046959 1.873916 -0.514702
v -0.001167 1.761908 -0.304433
v 0.022575 1.761528 -0.300914
v 0.021279 1.782805 -0.289877
v -0.001167 1.761908 -0.304433
v 0.055861 1.873774 -0.513383
v 0.046959 1.873916 -0.514702
v 0.055375 1.881752 -0.509245
v -0.001167 1.761908 -0.304433
v 0.046959 1.873916 -0.514702
v 0.056347 1.865797 -0.517521
v -0.001167 1.761908 -0.304433
v 0.056347 1.865797 -0.517521
v 0.023871 1.740251 -0.311952
v 0.022575 1.761528 -0.300914
v -0.001167 1.761908 -0.304433
v 0.023871 1.740251 -0.311952
v 0.055861 1.873774 -0.513383
v 0.056347 1.865797 -0.517521
v 0.046959 1.873916 -0.514702
v 0.023871 1.740251 -0.311952
v 0.056347 1.865797 -0.517521
v 0.064763 1.873632 -0.512064
v 0.023871 1.740251 -0.311952
v 0.064763 1.873632 -0.512064
v 0.046317 1.761149 -0.297395
v 0.022575 1.761528 -0.300914
v 0.023871 1.740251 -0.311952
v 0.046317 1.761149 -0.297395
v 0.055861 1.873774 -0.513383
v 0.064763 1.873632 -0.512064
v 0.056347 1.865797 -0.517521
f 1 2 3
f 4 5 6
f 7 8 9
f 10 11 12
f 13 14 15
f 16 17 18
f 19 20 21
f 22 23 24
f 25 26 27
f 28 29 30
f 31 32 33
f 34 35 36
f 37 38 39
f 40 41 42
f 43 44 45
f 46 47 48
f 49 50 51
f 52 53 54
f 55 56 57
f 58 59 60
f 61 62 63
f 64 65 66
f 67 68 69
f 70 71 72
f 73 74 75
f 76 77 78
f 79 80 81
f 82 83 84
f 85 86 87
f 88 89 90
f 91 92 93
f 94 95 96
f 97 98 99
f 100 101 102
f 103 104 105
f 106 107 108
f 109 110 111
f 112 113 114
f 115 116 117
f 118 119 120
f 121 122 123
f 124 125 126
f 127 128 129
f 130 131 132
f 133 134 135
f 136 137 138
f 139 140 141
f 142 143 144
f 145 146 147
f 148 149 150
f 151 152 153
f 154 155 156
f 157 158 159
f 160 161 162
f 163 164 165
f 166 167 168
f 169 170 171
f 172 173 174
f 175 176 177
f 178 179 180
f 181 182 183
f 184 185 186
f 187 188 189
f 190 191 192
f 193 194 195
f 196 197 198
f 199 200 201
f 202 203 204
f 205 206 207
f 208 209 210
f 211 212 213
f 214 215 216
f 217 218 219
f 220 221 222
f 223 224 225
f 226 227 228
f 229 230 231
f 232 233 234
f 235 236 237
f 238 239 240
f 241 242 243
f 244 245 246
f 247 248 249
f 250 251 252
f 253 254 255
f 256 257 258
f 259 260 261
f 262 263 264
f 265 266 267
f 268 269 270
f 271 272 273
f 274 275 276
f 277 278 279
f 280 281 282
f 283 284 285
f 286 287 288
f 289 290 291
f 292 293 294
f 295 296 297
f 298 299 300
f 301 302 303
f 304 305 306
f 307 308 309
f 310 311 312
f 313 314 315
f 316 317 318
f 319 320 321
f 322 323 324
f 325 326 327
f 328 329 330
f 331 332 333
f 334 335 336
f 337 338 339
f 340 341 342
f 343 344 345
f 346 347 348
f 349 350 351
f 352 353 354
f 355 356 357
f 358 359 360
f 361 362 363
f 364 365 366
f 367 368 369
f 370 371 372
f 373 374 375
f 376 377 378
f 379 380 381
f 382 383 384
f 385 386 387
f 388 389 390
f 391 392 393
f 394 395 396
f 397 398 399
f 400 401 402
f 403 404 405
f 406 407 408
f 409 410 411
f 412 413 414
f 415 416 417
f 418 419 420
f 421 422 423
f 424 425 426
f 427 428 429
f 430 431 432
f 433 434 435
f 436 437 438
f 439 440 441
f 442 443 444
f 445 446 447
f 448 449 450
f 451 452 453
f 454 455 456
f 457 458 459
f 460 461 462
f 463 464 465
f 466 467 468
f 469 470 471
f 472 473 474
f 475 476 477
f 478 479 480
f 481 482 483
f 484 485 486
f 487 488 489
f 490 491 492
f 493 494 495
f 496 497 498
f 499 500 501
f 502 503 504
f 505 506 507
f 508 509 510
f 511 512 513
f 514 515 516
f 517 518 519
f 520 521 522
f 523 524 525
f 526 527 528
f 529 530 531
f 532 533 534
f 535 536 537
f 538 539 540
f 541 542 543
f 544 545 546
f 547 548 549
f 550 551 552
f 553 554 555
f 556 557 558
f 559 560 561
f 562 563 564
f 565 566 567
f 568 569 570
f 571 572 573
f 574 575 576
f 577 578 579
f 580 581 582
f 583 584 585
f 586 587 588
f 589 590 591
f 592 593 594
f 595 596 597
f 598 599 600
f 601 602 603
f 604 605 606
f 607 608 609
f 610 611 612
f 613 614 615
f 616 617 618
f 619 620 621
f 622 623 624
f 625 626 627
f 628 629 630
f 631 632 633
f 634 635 636
f 637 638 639
f 640 641 642
f 643 644 645
f 646 647 648
f 649 650 651
f 652 653 654
f 655 656 657
f 658 659 660
f 661 662 663
f 664 665 666
f 667 668 669
f 670 671 672
f 673 674 675
f 676 677 678
f 679 680 681
f 682 683 684
f 685 686 687
f 688 689 690
f 691 692 693
f 694 695 696
f 697 698 699
f 700 701 702
f 703 704 705
f 706 707 708
f 709 710 711
f 712 713 714
f 715 716 717
f 718 719 720
f 721 722 723
f 724 725 726
f 727 728 729
f 730 731 732
f 733 734 735
f 736 737 738
f 739 740 741
f 742 743 744
f 745 746 747
f 748 749 750
f 751 752 753
f 754 755 756
f 757 758 759
f 760 761 762
f 763 764 765
f 766 767 768
f 769 770 771
f 772 773 774
f 775 776 777
f 778 779 780
f 781 782 783
f 784 785 786
f 787 788 789
f 790 791 792
f 793 794 795
f 796 797 798
f 799 800 801
f 802 803 804
f 805 806 807
f 808 809 810
f 811 812 813
f 814 815 816
f 817 818 819
f 820 821 822
f 823 824 825
f 826 827 828
f 829 830 831
f 832 833 834
f 835 836 837
f 838 839 840
f 841 842 843
f 844 845 846
f 847 848 849
f 850 851 852
f 853 854 855
f 856 857 858
f 859 860 861
f 862 863 864
f 865 866 867
f 868 869 870
f 871 872 873
f 874 875 876
f 877 878 879
f 880 881 882
f 883 884 885
f 886 887 888
f 889 890 891
f 892 893 894
f 895 896 897
f 898 899 900
f 901 902 903
f 904 905 906
f 907 908 909
f 910 911 912
f 913 914 915
f 916 917 918
f 919 920 921
f 922 923 924
