# Pyramida editable prop source
# units: 1 OBJ unit = 1 Pyramida World Unit = 1 Blender metre

o TreeTrunk
v 0.043071 0.075684 0.105317
v 0.303392 0.012997 0.033224
v 0.309712 0.035998 0.009079
v 0.043071 0.075684 0.105317
v 0.309712 0.035998 0.009079
v 0.070720 0.176314 -0.000320
v 0.046321 0.074190 0.000378
v 0.043071 0.075684 0.105317
v 0.070720 0.176314 -0.000320
v 0.304135 0.012656 0.009238
v 0.309712 0.035998 0.009079
v 0.303392 0.012997 0.033224
v 0.070720 0.176314 -0.000320
v 0.309712 0.035998 0.009079
v 0.304878 0.012314 -0.014748
v 0.070720 0.176314 -0.000320
v 0.304878 0.012314 -0.014748
v 0.049571 0.072696 -0.104561
v 0.046321 0.074190 0.000378
v 0.070720 0.176314 -0.000320
v 0.049571 0.072696 -0.104561
v 0.304135 0.012656 0.009238
v 0.304878 0.012314 -0.014748
v 0.309712 0.035998 0.009079
v 0.049571 0.072696 -0.104561
v 0.304878 0.012314 -0.014748
v 0.298558 -0.010687 0.009398
v 0.049571 0.072696 -0.104561
v 0.298558 -0.010687 0.009398
v 0.021922 -0.027933 0.001077
v 0.046321 0.074190 0.000378
v 0.049571 0.072696 -0.104561
v 0.021922 -0.027933 0.001077
v 0.304135 0.012656 0.009238
v 0.298558 -0.010687 0.009398
v 0.304878 0.012314 -0.014748
v 0.021922 -0.027933 0.001077
v 0.298558 -0.010687 0.009398
v 0.303392 0.012997 0.033224
v 0.021922 -0.027933 0.001077
v 0.303392 0.012997 0.033224
v 0.043071 0.075684 0.105317
v 0.046321 0.074190 0.000378
v 0.021922 -0.027933 0.001077
v 0.043071 0.075684 0.105317
v 0.304135 0.012656 0.009238
v 0.303392 0.012997 0.033224
v 0.298558 -0.010687 0.009398
v -0.109501 0.076600 -0.028585
v -0.220744 0.025423 0.251796
v -0.203992 0.048920 0.269665
v -0.109501 0.076600 -0.028585
v -0.203992 0.048920 0.269665
v -0.036212 0.179398 0.049590
v -0.025819 0.075960 0.034834
v -0.109501 0.076600 -0.028585
v -0.036212 0.179398 0.049590
v -0.201617 0.025277 0.266292
v -0.203992 0.048920 0.269665
v -0.220744 0.025423 0.251796
v -0.036212 0.179398 0.049590
v -0.203992 0.048920 0.269665
v -0.182490 0.025131 0.280787
v -0.036212 0.179398 0.049590
v -0.182490 0.025131 0.280787
v 0.057863 0.075321 0.098252
v -0.025819 0.075960 0.034834
v -0.036212 0.179398 0.049590
v 0.057863 0.075321 0.098252
v -0.201617 0.025277 0.266292
v -0.182490 0.025131 0.280787
v -0.203992 0.048920 0.269665
v 0.057863 0.075321 0.098252
v -0.182490 0.025131 0.280787
v -0.199241 0.001634 0.262919
v 0.057863 0.075321 0.098252
v -0.199241 0.001634 0.262919
v -0.015426 -0.027477 0.020078
v -0.025819 0.075960 0.034834
v 0.057863 0.075321 0.098252
v -0.015426 -0.027477 0.020078
v -0.201617 0.025277 0.266292
v -0.199241 0.001634 0.262919
v -0.182490 0.025131 0.280787
v -0.015426 -0.027477 0.020078
v -0.199241 0.001634 0.262919
v -0.220744 0.025423 0.251796
v -0.015426 -0.027477 0.020078
v -0.220744 0.025423 0.251796
v -0.109501 0.076600 -0.028585
v -0.025819 0.075960 0.034834
v -0.015426 -0.027477 0.020078
v -0.109501 0.076600 -0.028585
v -0.201617 0.025277 0.266292
v -0.220744 0.025423 0.251796
v -0.199241 0.001634 0.262919
v 0.052133 0.072667 -0.103328
v -0.133654 0.017747 -0.194723
v -0.155984 0.041279 -0.184742
v 0.052133 0.072667 -0.103328
v -0.155984 0.041279 -0.184742
v -0.045561 0.175618 -0.059658
v -0.027812 0.075037 -0.035298
v 0.052133 0.072667 -0.103328
v -0.045561 0.175618 -0.059658
v -0.151927 0.018289 -0.179173
v -0.155984 0.041279 -0.184742
v -0.133654 0.017747 -0.194723
v -0.045561 0.175618 -0.059658
v -0.155984 0.041279 -0.184742
v -0.170200 0.018831 -0.163624
v -0.045561 0.175618 -0.059658
v -0.170200 0.018831 -0.163624
v -0.107758 0.077407 0.032733
v -0.027812 0.075037 -0.035298
v -0.045561 0.175618 -0.059658
v -0.107758 0.077407 0.032733
v -0.151927 0.018289 -0.179173
v -0.170200 0.018831 -0.163624
v -0.155984 0.041279 -0.184742
v -0.107758 0.077407 0.032733
v -0.170200 0.018831 -0.163624
v -0.147870 -0.004701 -0.173605
v -0.107758 0.077407 0.032733
v -0.147870 -0.004701 -0.173605
v -0.010064 -0.025544 -0.010937
v -0.027812 0.075037 -0.035298
v -0.107758 0.077407 0.032733
v -0.010064 -0.025544 -0.010937
v -0.151927 0.018289 -0.179173
v -0.147870 -0.004701 -0.173605
v -0.170200 0.018831 -0.163624
v -0.010064 -0.025544 -0.010937
v -0.147870 -0.004701 -0.173605
v -0.133654 0.017747 -0.194723
v -0.010064 -0.025544 -0.010937
v -0.133654 0.017747 -0.194723
v 0.052133 0.072667 -0.103328
v -0.027812 0.075037 -0.035298
v -0.010064 -0.025544 -0.010937
v 0.052133 0.072667 -0.103328
v -0.151927 0.018289 -0.179173
v -0.133654 0.017747 -0.194723
v -0.147870 -0.004701 -0.173605
v -0.000033 -0.003999 -0.159950
v -0.020177 0.996985 -0.156632
v 0.093840 1.000925 -0.090900
v -0.000033 -0.003999 -0.159950
v 0.093840 1.000925 -0.090900
v 0.138520 0.000789 -0.080073
v 0.000000 0.000000 0.000000
v -0.000033 -0.003999 -0.159950
v 0.138520 0.000789 -0.080073
v 0.138520 0.000789 -0.080073
v 0.093840 1.000925 -0.090900
v 0.093867 1.004216 0.040726
v 0.138520 0.000789 -0.080073
v 0.093867 1.004216 0.040726
v 0.138552 0.004788 0.079877
v 0.000000 0.000000 0.000000
v 0.138520 0.000789 -0.080073
v 0.138552 0.004788 0.079877
v 0.138552 0.004788 0.079877
v 0.093867 1.004216 0.040726
v -0.020123 1.003567 0.106619
v 0.138552 0.004788 0.079877
v -0.020123 1.003567 0.106619
v 0.000033 0.003999 0.159950
v 0.000000 0.000000 0.000000
v 0.138552 0.004788 0.079877
v 0.000033 0.003999 0.159950
v 0.000033 0.003999 0.159950
v -0.020123 1.003567 0.106619
v -0.134140 0.999627 0.040887
v 0.000033 0.003999 0.159950
v -0.134140 0.999627 0.040887
v -0.138520 -0.000789 0.080073
v 0.000000 0.000000 0.000000
v 0.000033 0.003999 0.159950
v -0.138520 -0.000789 0.080073
v -0.138520 -0.000789 0.080073
v -0.134140 0.999627 0.040887
v -0.134167 0.996336 -0.090739
v -0.138520 -0.000789 0.080073
v -0.134167 0.996336 -0.090739
v -0.138552 -0.004788 -0.079877
v 0.000000 0.000000 0.000000
v -0.138520 -0.000789 0.080073
v -0.138552 -0.004788 -0.079877
v -0.138552 -0.004788 -0.079877
v -0.134167 0.996336 -0.090739
v -0.020177 0.996985 -0.156632
v -0.138552 -0.004788 -0.079877
v -0.020177 0.996985 -0.156632
v -0.000033 -0.003999 -0.159950
v 0.000000 0.000000 0.000000
v -0.138552 -0.004788 -0.079877
v -0.000033 -0.003999 -0.159950
v -0.020105 1.000996 -0.156671
v -0.009798 2.000986 -0.122868
v 0.079669 1.999780 -0.071177
v -0.020105 1.000996 -0.156671
v 0.079669 1.999780 -0.071177
v 0.093893 0.999460 -0.090806
v 0.093893 0.999460 -0.090806
v 0.079669 1.999780 -0.071177
v 0.079633 1.999215 0.032155
v 0.093893 0.999460 -0.090806
v 0.079633 1.999215 0.032155
v 0.093848 0.998740 0.040859
v 0.093848 0.998740 0.040859
v 0.079633 1.999215 0.032155
v -0.009869 1.999856 0.083795
v 0.093848 0.998740 0.040859
v -0.009869 1.999856 0.083795
v -0.020196 0.999557 0.106658
v -0.020196 0.999557 0.106658
v -0.009869 1.999856 0.083795
v -0.099336 2.001062 0.032104
v -0.020196 0.999557 0.106658
v -0.099336 2.001062 0.032104
v -0.134193 1.001093 0.040793
v -0.134193 1.001093 0.040793
v -0.099336 2.001062 0.032104
v -0.099300 2.001626 -0.071228
v -0.134193 1.001093 0.040793
v -0.099300 2.001626 -0.071228
v -0.134148 1.001812 -0.090872
v -0.134148 1.001812 -0.090872
v -0.099300 2.001626 -0.071228
v -0.009798 2.000986 -0.122868
v -0.134148 1.001812 -0.090872
v -0.009798 2.000986 -0.122868
v -0.020105 1.000996 -0.156671
v -0.009741 2.004129 -0.122803
v 0.031017 3.003125 -0.058542
v 0.095882 2.999134 -0.021103
v -0.009741 2.004129 -0.122803
v 0.095882 2.999134 -0.021103
v 0.079628 1.998630 -0.071221
v 0.030951 3.000434 0.016410
v 0.095882 2.999134 -0.021103
v 0.031017 3.003125 -0.058542
v 0.079628 1.998630 -0.071221
v 0.095882 2.999134 -0.021103
v 0.095815 2.996443 0.053849
v 0.079628 1.998630 -0.071221
v 0.095815 2.996443 0.053849
v 0.079536 1.994922 0.032046
v 0.030951 3.000434 0.016410
v 0.095815 2.996443 0.053849
v 0.095882 2.999134 -0.021103
v 0.079536 1.994922 0.032046
v 0.095815 2.996443 0.053849
v 0.030884 2.997743 0.091362
v 0.079536 1.994922 0.032046
v 0.030884 2.997743 0.091362
v -0.009926 1.996713 0.083730
v 0.030951 3.000434 0.016410
v 0.030884 2.997743 0.091362
v 0.095815 2.996443 0.053849
v -0.009926 1.996713 0.083730
v 0.030884 2.997743 0.091362
v -0.033981 3.001733 0.053923
v -0.009926 1.996713 0.083730
v -0.033981 3.001733 0.053923
v -0.099294 2.002212 0.032148
v 0.030951 3.000434 0.016410
v -0.033981 3.001733 0.053923
v 0.030884 2.997743 0.091362
v -0.099294 2.002212 0.032148
v -0.033981 3.001733 0.053923
v -0.033914 3.004425 -0.021029
v -0.099294 2.002212 0.032148
v -0.033914 3.004425 -0.021029
v -0.099202 2.005920 -0.071119
v 0.030951 3.000434 0.016410
v -0.033914 3.004425 -0.021029
v -0.033981 3.001733 0.053923
v -0.099202 2.005920 -0.071119
v -0.033914 3.004425 -0.021029
v 0.031017 3.003125 -0.058542
v -0.099202 2.005920 -0.071119
v 0.031017 3.003125 -0.058542
v -0.009741 2.004129 -0.122803
v 0.030951 3.000434 0.016410
v 0.031017 3.003125 -0.058542
v -0.033914 3.004425 -0.021029
v -0.027801 2.459048 -0.000363
v 0.027132 2.656765 0.402083
v 0.042284 2.670337 0.394165
v -0.027801 2.459048 -0.000363
v 0.042284 2.670337 0.394165
v 0.008275 2.491362 -0.019216
v 0.008843 2.458351 -0.003076
v -0.027801 2.459048 -0.000363
v 0.008275 2.491362 -0.019216
v 0.042522 2.656472 0.400944
v 0.042284 2.670337 0.394165
v 0.027132 2.656765 0.402083
v 0.008275 2.491362 -0.019216
v 0.042284 2.670337 0.394165
v 0.057912 2.656180 0.399804
v 0.008275 2.491362 -0.019216
v 0.057912 2.656180 0.399804
v 0.045486 2.457654 -0.005789
v 0.008843 2.458351 -0.003076
v 0.008275 2.491362 -0.019216
v 0.045486 2.457654 -0.005789
v 0.042522 2.656472 0.400944
v 0.057912 2.656180 0.399804
v 0.042284 2.670337 0.394165
v 0.045486 2.457654 -0.005789
v 0.057912 2.656180 0.399804
v 0.042761 2.642608 0.407723
v 0.045486 2.457654 -0.005789
v 0.042761 2.642608 0.407723
v 0.009410 2.425339 0.013065
v 0.008843 2.458351 -0.003076
v 0.045486 2.457654 -0.005789
v 0.009410 2.425339 0.013065
v 0.042522 2.656472 0.400944
v 0.042761 2.642608 0.407723
v 0.057912 2.656180 0.399804
v 0.009410 2.425339 0.013065
v 0.042761 2.642608 0.407723
v 0.027132 2.656765 0.402083
v 0.009410 2.425339 0.013065
v 0.027132 2.656765 0.402083
v -0.027801 2.459048 -0.000363
v 0.008843 2.458351 -0.003076
v 0.009410 2.425339 0.013065
v -0.027801 2.459048 -0.000363
v 0.042522 2.656472 0.400944
v 0.027132 2.656765 0.402083
v 0.042761 2.642608 0.407723
v 0.013178 2.577613 0.233977
v -0.056810 2.713143 0.456450
v -0.046719 2.720810 0.455274
v 0.013178 2.577613 0.233977
v -0.046719 2.720810 0.455274
v 0.032133 2.592015 0.231767
v 0.029081 2.577405 0.239707
v 0.013178 2.577613 0.233977
v 0.032133 2.592015 0.231767
v -0.048344 2.713032 0.459501
v -0.046719 2.720810 0.455274
v -0.056810 2.713143 0.456450
v 0.032133 2.592015 0.231767
v -0.046719 2.720810 0.455274
v -0.039877 2.712922 0.462552
v 0.032133 2.592015 0.231767
v -0.039877 2.712922 0.462552
v 0.044984 2.577197 0.245437
v 0.029081 2.577405 0.239707
v 0.032133 2.592015 0.231767
v 0.044984 2.577197 0.245437
v -0.048344 2.713032 0.459501
v -0.039877 2.712922 0.462552
v -0.046719 2.720810 0.455274
v 0.044984 2.577197 0.245437
v -0.039877 2.712922 0.462552
v -0.049969 2.705255 0.463728
v 0.044984 2.577197 0.245437
v -0.049969 2.705255 0.463728
v 0.026029 2.562796 0.247647
v 0.029081 2.577405 0.239707
v 0.044984 2.577197 0.245437
v 0.026029 2.562796 0.247647
v -0.048344 2.713032 0.459501
v -0.049969 2.705255 0.463728
v -0.039877 2.712922 0.462552
v 0.026029 2.562796 0.247647
v -0.049969 2.705255 0.463728
v -0.056810 2.713143 0.456450
v 0.026029 2.562796 0.247647
v -0.056810 2.713143 0.456450
v 0.013178 2.577613 0.233977
v 0.029081 2.577405 0.239707
v 0.026029 2.562796 0.247647
v 0.013178 2.577613 0.233977
v -0.048344 2.713032 0.459501
v -0.056810 2.713143 0.456450
v -0.049969 2.705255 0.463728
v 0.021374 2.595066 0.262612
v -0.077723 2.660396 0.354010
v -0.068976 2.668485 0.358490
v 0.021374 2.595066 0.262612
v -0.068976 2.668485 0.358490
v 0.037803 2.610260 0.271027
v 0.032081 2.595053 0.275694
v 0.021374 2.595066 0.262612
v 0.037803 2.610260 0.271027
v -0.072022 2.660389 0.360974
v -0.068976 2.668485 0.358490
v -0.077723 2.660396 0.354010
v 0.037803 2.610260 0.271027
v -0.068976 2.668485 0.358490
v -0.066322 2.660382 0.367939
v 0.037803 2.610260 0.271027
v -0.066322 2.660382 0.367939
v 0.042789 2.595039 0.288775
v 0.032081 2.595053 0.275694
v 0.037803 2.610260 0.271027
v 0.042789 2.595039 0.288775
v -0.072022 2.660389 0.360974
v -0.066322 2.660382 0.367939
v -0.068976 2.668485 0.358490
v 0.042789 2.595039 0.288775
v -0.066322 2.660382 0.367939
v -0.075068 2.652293 0.363459
v 0.042789 2.595039 0.288775
v -0.075068 2.652293 0.363459
v 0.026360 2.579845 0.280361
v 0.032081 2.595053 0.275694
v 0.042789 2.595039 0.288775
v 0.026360 2.579845 0.280361
v -0.072022 2.660389 0.360974
v -0.075068 2.652293 0.363459
v -0.066322 2.660382 0.367939
v 0.026360 2.579845 0.280361
v -0.075068 2.652293 0.363459
v -0.077723 2.660396 0.354010
v 0.026360 2.579845 0.280361
v -0.077723 2.660396 0.354010
v 0.021374 2.595066 0.262612
v 0.032081 2.595053 0.275694
v 0.026360 2.579845 0.280361
v 0.021374 2.595066 0.262612
v -0.072022 2.660389 0.360974
v -0.077723 2.660396 0.354010
v -0.075068 2.652293 0.363459
v 0.024265 2.613072 0.324667
v 0.158737 2.695408 0.424017
v 0.161544 2.703275 0.414414
v 0.024265 2.613072 0.324667
v 0.161544 2.703275 0.414414
v 0.029537 2.627850 0.306629
v 0.035081 2.612700 0.311681
v 0.024265 2.613072 0.324667
v 0.029537 2.627850 0.306629
v 0.164495 2.695209 0.417104
v 0.161544 2.703275 0.414414
v 0.158737 2.695408 0.424017
v 0.029537 2.627850 0.306629
v 0.161544 2.703275 0.414414
v 0.170254 2.695011 0.410190
v 0.029537 2.627850 0.306629
v 0.170254 2.695011 0.410190
v 0.045898 2.612327 0.298694
v 0.035081 2.612700 0.311681
v 0.029537 2.627850 0.306629
v 0.045898 2.612327 0.298694
v 0.164495 2.695209 0.417104
v 0.170254 2.695011 0.410190
v 0.161544 2.703275 0.414414
v 0.045898 2.612327 0.298694
v 0.170254 2.695011 0.410190
v 0.167447 2.687144 0.419793
v 0.045898 2.612327 0.298694
v 0.167447 2.687144 0.419793
v 0.040625 2.597550 0.316732
v 0.035081 2.612700 0.311681
v 0.045898 2.612327 0.298694
v 0.040625 2.597550 0.316732
v 0.164495 2.695209 0.417104
v 0.167447 2.687144 0.419793
v 0.170254 2.695011 0.410190
v 0.040625 2.597550 0.316732
v 0.167447 2.687144 0.419793
v 0.158737 2.695408 0.424017
v 0.040625 2.597550 0.316732
v 0.158737 2.695408 0.424017
v 0.024265 2.613072 0.324667
v 0.035081 2.612700 0.311681
v 0.040625 2.597550 0.316732
v 0.024265 2.613072 0.324667
v 0.164495 2.695209 0.417104
v 0.158737 2.695408 0.424017
v 0.167447 2.687144 0.419793
v 0.006945 2.565794 -0.035405
v -0.437768 2.805835 0.061017
v -0.428053 2.819646 0.074850
v 0.006945 2.565794 -0.035405
v -0.428053 2.819646 0.074850
v 0.030075 2.598679 -0.002470
v 0.013240 2.566176 0.000800
v 0.006945 2.565794 -0.035405
v 0.030075 2.598679 -0.002470
v -0.435124 2.805995 0.076224
v -0.428053 2.819646 0.074850
v -0.437768 2.805835 0.061017
v 0.030075 2.598679 -0.002470
v -0.428053 2.819646 0.074850
v -0.432480 2.806155 0.091430
v 0.030075 2.598679 -0.002470
v -0.432480 2.806155 0.091430
v 0.019535 2.566558 0.037005
v 0.013240 2.566176 0.000800
v 0.030075 2.598679 -0.002470
v 0.019535 2.566558 0.037005
v -0.435124 2.805995 0.076224
v -0.432480 2.806155 0.091430
v -0.428053 2.819646 0.074850
v 0.019535 2.566558 0.037005
v -0.432480 2.806155 0.091430
v -0.442195 2.792343 0.077597
v 0.019535 2.566558 0.037005
v -0.442195 2.792343 0.077597
v -0.003595 2.533673 0.004070
v 0.013240 2.566176 0.000800
v 0.019535 2.566558 0.037005
v -0.003595 2.533673 0.004070
v -0.435124 2.805995 0.076224
v -0.442195 2.792343 0.077597
v -0.432480 2.806155 0.091430
v -0.003595 2.533673 0.004070
v -0.442195 2.792343 0.077597
v -0.437768 2.805835 0.061017
v -0.003595 2.533673 0.004070
v -0.437768 2.805835 0.061017
v 0.006945 2.565794 -0.035405
v 0.013240 2.566176 0.000800
v -0.003595 2.533673 0.004070
v 0.006945 2.565794 -0.035405
v -0.435124 2.805995 0.076224
v -0.437768 2.805835 0.061017
v -0.442195 2.792343 0.077597
v -0.212732 2.683149 0.022285
v -0.386084 2.791983 0.111024
v -0.378323 2.799881 0.117299
v -0.212732 2.683149 0.022285
v -0.378323 2.799881 0.117299
v -0.198154 2.697986 0.034072
v -0.205605 2.683231 0.037614
v -0.212732 2.683149 0.022285
v -0.198154 2.697986 0.034072
v -0.382289 2.792026 0.119184
v -0.378323 2.799881 0.117299
v -0.386084 2.791983 0.111024
v -0.198154 2.697986 0.034072
v -0.378323 2.799881 0.117299
v -0.378495 2.792070 0.127345
v -0.198154 2.697986 0.034072
v -0.378495 2.792070 0.127345
v -0.198478 2.683312 0.052943
v -0.205605 2.683231 0.037614
v -0.198154 2.697986 0.034072
v -0.198478 2.683312 0.052943
v -0.382289 2.792026 0.119184
v -0.378495 2.792070 0.127345
v -0.378323 2.799881 0.117299
v -0.198478 2.683312 0.052943
v -0.378495 2.792070 0.127345
v -0.386256 2.784170 0.121070
v -0.198478 2.683312 0.052943
v -0.386256 2.784170 0.121070
v -0.213055 2.668475 0.041156
v -0.205605 2.683231 0.037614
v -0.198478 2.683312 0.052943
v -0.213055 2.668475 0.041156
v -0.382289 2.792026 0.119184
v -0.386256 2.784170 0.121070
v -0.378495 2.792070 0.127345
v -0.213055 2.668475 0.041156
v -0.386256 2.784170 0.121070
v -0.386084 2.791983 0.111024
v -0.213055 2.668475 0.041156
v -0.386084 2.791983 0.111024
v -0.212732 2.683149 0.022285
v -0.205605 2.683231 0.037614
v -0.213055 2.668475 0.041156
v -0.212732 2.683149 0.022285
v -0.382289 2.792026 0.119184
v -0.386084 2.791983 0.111024
v -0.386256 2.784170 0.121070
v -0.243789 2.704330 0.027520
v -0.468519 2.833737 0.010037
v -0.464984 2.841681 0.019331
v -0.243789 2.704330 0.027520
v -0.464984 2.841681 0.019331
v -0.237150 2.719253 0.044979
v -0.245541 2.704592 0.044332
v -0.243789 2.704330 0.027520
v -0.237150 2.719253 0.044979
v -0.469452 2.833876 0.018987
v -0.464984 2.841681 0.019331
v -0.468519 2.833737 0.010037
v -0.237150 2.719253 0.044979
v -0.464984 2.841681 0.019331
v -0.470384 2.834015 0.027938
v -0.237150 2.719253 0.044979
v -0.470384 2.834015 0.027938
v -0.247293 2.704853 0.061144
v -0.245541 2.704592 0.044332
v -0.237150 2.719253 0.044979
v -0.247293 2.704853 0.061144
v -0.469452 2.833876 0.018987
v -0.470384 2.834015 0.027938
v -0.464984 2.841681 0.019331
v -0.247293 2.704853 0.061144
v -0.470384 2.834015 0.027938
v -0.473919 2.826071 0.018643
v -0.247293 2.704853 0.061144
v -0.473919 2.826071 0.018643
v -0.253933 2.689931 0.043686
v -0.245541 2.704592 0.044332
v -0.247293 2.704853 0.061144
v -0.253933 2.689931 0.043686
v -0.469452 2.833876 0.018987
v -0.473919 2.826071 0.018643
v -0.470384 2.834015 0.027938
v -0.253933 2.689931 0.043686
v -0.473919 2.826071 0.018643
v -0.468519 2.833737 0.010037
v -0.253933 2.689931 0.043686
v -0.468519 2.833737 0.010037
v -0.243789 2.704330 0.027520
v -0.245541 2.704592 0.044332
v -0.253933 2.689931 0.043686
v -0.243789 2.704330 0.027520
v -0.469452 2.833876 0.018987
v -0.468519 2.833737 0.010037
v -0.473919 2.826071 0.018643
v -0.275344 2.725585 0.037525
v -0.381401 2.783191 -0.033623
v -0.383731 2.791591 -0.024348
v -0.275344 2.725585 0.037525
v -0.383731 2.791591 -0.024348
v -0.279721 2.741363 0.054945
v -0.285478 2.725953 0.051050
v -0.275344 2.725585 0.037525
v -0.279721 2.741363 0.054945
v -0.386796 2.783387 -0.026422
v -0.383731 2.791591 -0.024348
v -0.381401 2.783191 -0.033623
v -0.279721 2.741363 0.054945
v -0.383731 2.791591 -0.024348
v -0.392191 2.783582 -0.019221
v -0.279721 2.741363 0.054945
v -0.392191 2.783582 -0.019221
v -0.295612 2.726320 0.064576
v -0.285478 2.725953 0.051050
v -0.279721 2.741363 0.054945
v -0.295612 2.726320 0.064576
v -0.386796 2.783387 -0.026422
v -0.392191 2.783582 -0.019221
v -0.383731 2.791591 -0.024348
v -0.295612 2.726320 0.064576
v -0.392191 2.783582 -0.019221
v -0.389861 2.775183 -0.028495
v -0.295612 2.726320 0.064576
v -0.389861 2.775183 -0.028495
v -0.291235 2.710543 0.047155
v -0.285478 2.725953 0.051050
v -0.295612 2.726320 0.064576
v -0.291235 2.710543 0.047155
v -0.386796 2.783387 -0.026422
v -0.389861 2.775183 -0.028495
v -0.392191 2.783582 -0.019221
v -0.291235 2.710543 0.047155
v -0.389861 2.775183 -0.028495
v -0.381401 2.783191 -0.033623
v -0.291235 2.710543 0.047155
v -0.381401 2.783191 -0.033623
v -0.275344 2.725585 0.037525
v -0.285478 2.725953 0.051050
v -0.291235 2.710543 0.047155
v -0.275344 2.725585 0.037525
v -0.386796 2.783387 -0.026422
v -0.381401 2.783191 -0.033623
v -0.389861 2.775183 -0.028495
v 0.053049 2.673230 -0.005123
v -0.101894 2.777514 -0.493319
v -0.115642 2.792961 -0.486329
v 0.053049 2.673230 -0.005123
v -0.115642 2.792961 -0.486329
v 0.020315 2.710010 0.011518
v 0.017638 2.674002 0.004676
v 0.053049 2.673230 -0.005123
v 0.020315 2.710010 0.011518
v -0.116767 2.777838 -0.489203
v -0.115642 2.792961 -0.486329
v -0.101894 2.777514 -0.493319
v 0.020315 2.710010 0.011518
v -0.115642 2.792961 -0.486329
v -0.131640 2.778162 -0.485087
v 0.020315 2.710010 0.011518
v -0.131640 2.778162 -0.485087
v -0.017774 2.674773 0.014475
v 0.017638 2.674002 0.004676
v 0.020315 2.710010 0.011518
v -0.017774 2.674773 0.014475
v -0.116767 2.777838 -0.489203
v -0.131640 2.778162 -0.485087
v -0.115642 2.792961 -0.486329
v -0.017774 2.674773 0.014475
v -0.131640 2.778162 -0.485087
v -0.117892 2.762714 -0.492077
v -0.017774 2.674773 0.014475
v -0.117892 2.762714 -0.492077
v 0.014960 2.637994 -0.002166
v 0.017638 2.674002 0.004676
v -0.017774 2.674773 0.014475
v 0.014960 2.637994 -0.002166
v -0.116767 2.777838 -0.489203
v -0.117892 2.762714 -0.492077
v -0.131640 2.778162 -0.485087
v 0.014960 2.637994 -0.002166
v -0.117892 2.762714 -0.492077
v -0.101894 2.777514 -0.493319
v 0.014960 2.637994 -0.002166
v -0.101894 2.777514 -0.493319
v 0.053049 2.673230 -0.005123
v 0.017638 2.674002 0.004676
v 0.014960 2.637994 -0.002166
v 0.053049 2.673230 -0.005123
v -0.116767 2.777838 -0.489203
v -0.101894 2.777514 -0.493319
v -0.117892 2.762714 -0.492077
v -0.078011 2.752107 -0.384207
v -0.227841 2.831910 -0.432880
v -0.227101 2.840110 -0.423174
v -0.078011 2.752107 -0.384207
v -0.227101 2.840110 -0.423174
v -0.076621 2.767510 -0.365976
v -0.083880 2.752430 -0.368357
v -0.078011 2.752107 -0.384207
v -0.076621 2.767510 -0.365976
v -0.230965 2.832082 -0.424442
v -0.227101 2.840110 -0.423174
v -0.227841 2.831910 -0.432880
v -0.076621 2.767510 -0.365976
v -0.227101 2.840110 -0.423174
v -0.234090 2.832253 -0.416003
v -0.076621 2.767510 -0.365976
v -0.234090 2.832253 -0.416003
v -0.089749 2.752753 -0.352507
v -0.083880 2.752430 -0.368357
v -0.076621 2.767510 -0.365976
v -0.089749 2.752753 -0.352507
v -0.230965 2.832082 -0.424442
v -0.234090 2.832253 -0.416003
v -0.227101 2.840110 -0.423174
v -0.089749 2.752753 -0.352507
v -0.234090 2.832253 -0.416003
v -0.234830 2.824053 -0.425709
v -0.089749 2.752753 -0.352507
v -0.234830 2.824053 -0.425709
v -0.091138 2.737350 -0.370738
v -0.083880 2.752430 -0.368357
v -0.089749 2.752753 -0.352507
v -0.091138 2.737350 -0.370738
v -0.230965 2.832082 -0.424442
v -0.234830 2.824053 -0.425709
v -0.234090 2.832253 -0.416003
v -0.091138 2.737350 -0.370738
v -0.234830 2.824053 -0.425709
v -0.227841 2.831910 -0.432880
v -0.091138 2.737350 -0.370738
v -0.227841 2.831910 -0.432880
v -0.078011 2.752107 -0.384207
v -0.083880 2.752430 -0.368357
v -0.091138 2.737350 -0.370738
v -0.078011 2.752107 -0.384207
v -0.230965 2.832082 -0.424442
v -0.227841 2.831910 -0.432880
v -0.234830 2.824053 -0.425709
v -0.031599 2.721836 -0.235241
v -0.154265 2.820952 -0.378841
v -0.158520 2.829124 -0.370060
v -0.031599 2.721836 -0.235241
v -0.158520 2.829124 -0.370060
v -0.039592 2.737186 -0.218748
v -0.044773 2.722217 -0.224655
v -0.031599 2.721836 -0.235241
v -0.039592 2.737186 -0.218748
v -0.161278 2.821155 -0.373205
v -0.158520 2.829124 -0.370060
v -0.154265 2.820952 -0.378841
v -0.039592 2.737186 -0.218748
v -0.158520 2.829124 -0.370060
v -0.168292 2.821358 -0.367569
v -0.039592 2.737186 -0.218748
v -0.168292 2.821358 -0.367569
v -0.057947 2.722600 -0.214068
v -0.044773 2.722217 -0.224655
v -0.039592 2.737186 -0.218748
v -0.057947 2.722600 -0.214068
v -0.161278 2.821155 -0.373205
v -0.168292 2.821358 -0.367569
v -0.158520 2.829124 -0.370060
v -0.057947 2.722600 -0.214068
v -0.168292 2.821358 -0.367569
v -0.164036 2.813186 -0.376349
v -0.057947 2.722600 -0.214068
v -0.164036 2.813186 -0.376349
v -0.049953 2.707249 -0.230561
v -0.044773 2.722217 -0.224655
v -0.057947 2.722600 -0.214068
v -0.049953 2.707249 -0.230561
v -0.161278 2.821155 -0.373205
v -0.164036 2.813186 -0.376349
v -0.168292 2.821358 -0.367569
v -0.049953 2.707249 -0.230561
v -0.164036 2.813186 -0.376349
v -0.154265 2.820952 -0.378841
v -0.049953 2.707249 -0.230561
v -0.154265 2.820952 -0.378841
v -0.031599 2.721836 -0.235241
v -0.044773 2.722217 -0.224655
v -0.049953 2.707249 -0.230561
v -0.031599 2.721836 -0.235241
v -0.161278 2.821155 -0.373205
v -0.154265 2.820952 -0.378841
v -0.164036 2.813186 -0.376349
f 1 2 3
f 4 5 6
f 7 8 9
f 10 11 12
f 13 14 15
f 16 17 18
f 19 20 21
f 22 23 24
f 25 26 27
f 28 29 30
f 31 32 33
f 34 35 36
f 37 38 39
f 40 41 42
f 43 44 45
f 46 47 48
f 49 50 51
f 52 53 54
f 55 56 57
f 58 59 60
f 61 62 63
f 64 65 66
f 67 68 69
f 70 71 72
f 73 74 75
f 76 77 78
f 79 80 81
f 82 83 84
f 85 86 87
f 88 89 90
f 91 92 93
f 94 95 96
f 97 98 99
f 100 101 102
f 103 104 105
f 106 107 108
f 109 110 111
f 112 113 114
f 115 116 117
f 118 119 120
f 121 122 123
f 124 125 126
f 127 128 129
f 130 131 132
f 133 134 135
f 136 137 138
f 139 140 141
f 142 143 144
f 145 146 147
f 148 149 150
f 151 152 153
f 154 155 156
f 157 158 159
f 160 161 162
f 163 164 165
f 166 167 168
f 169 170 171
f 172 173 174
f 175 176 177
f 178 179 180
f 181 182 183
f 184 185 186
f 187 188 189
f 190 191 192
f 193 194 195
f 196 197 198
f 199 200 201
f 202 203 204
f 205 206 207
f 208 209 210
f 211 212 213
f 214 215 216
f 217 218 219
f 220 221 222
f 223 224 225
f 226 227 228
f 229 230 231
f 232 233 234
f 235 236 237
f 238 239 240
f 241 242 243
f 244 245 246
f 247 248 249
f 250 251 252
f 253 254 255
f 256 257 258
f 259 260 261
f 262 263 264
f 265 266 267
f 268 269 270
f 271 272 273
f 274 275 276
f 277 278 279
f 280 281 282
f 283 284 285
f 286 287 288
f 289 290 291
f 292 293 294
f 295 296 297
f 298 299 300
f 301 302 303
f 304 305 306
f 307 308 309
f 310 311 312
f 313 314 315
f 316 317 318
f 319 320 321
f 322 323 324
f 325 326 327
f 328 329 330
f 331 332 333
f 334 335 336
f 337 338 339
f 340 341 342
f 343 344 345
f 346 347 348
f 349 350 351
f 352 353 354
f 355 356 357
f 358 359 360
f 361 362 363
f 364 365 366
f 367 368 369
f 370 371 372
f 373 374 375
f 376 377 378
f 379 380 381
f 382 383 384
f 385 386 387
f 388 389 390
f 391 392 393
f 394 395 396
f 397 398 399
f 400 401 402
f 403 404 405
f 406 407 408
f 409 410 411
f 412 413 414
f 415 416 417
f 418 419 420
f 421 422 423
f 424 425 426
f 427 428 429
f 430 431 432
f 433 434 435
f 436 437 438
f 439 440 441
f 442 443 444
f 445 446 447
f 448 449 450
f 451 452 453
f 454 455 456
f 457 458 459
f 460 461 462
f 463 464 465
f 466 467 468
f 469 470 471
f 472 473 474
f 475 476 477
f 478 479 480
f 481 482 483
f 484 485 486
f 487 488 489
f 490 491 492
f 493 494 495
f 496 497 498
f 499 500 501
f 502 503 504
f 505 506 507
f 508 509 510
f 511 512 513
f 514 515 516
f 517 518 519
f 520 521 522
f 523 524 525
f 526 527 528
f 529 530 531
f 532 533 534
f 535 536 537
f 538 539 540
f 541 542 543
f 544 545 546
f 547 548 549
f 550 551 552
f 553 554 555
f 556 557 558
f 559 560 561
f 562 563 564
f 565 566 567
f 568 569 570
f 571 572 573
f 574 575 576
f 577 578 579
f 580 581 582
f 583 584 585
f 586 587 588
f 589 590 591
f 592 593 594
f 595 596 597
f 598 599 600
f 601 602 603
f 604 605 606
f 607 608 609
f 610 611 612
f 613 614 615
f 616 617 618
f 619 620 621
f 622 623 624
f 625 626 627
f 628 629 630
f 631 632 633
f 634 635 636
f 637 638 639
f 640 641 642
f 643 644 645
f 646 647 648
f 649 650 651
f 652 653 654
f 655 656 657
f 658 659 660
f 661 662 663
f 664 665 666
f 667 668 669
f 670 671 672
f 673 674 675
f 676 677 678
f 679 680 681
f 682 683 684
f 685 686 687
f 688 689 690
f 691 692 693
f 694 695 696
f 697 698 699
f 700 701 702
f 703 704 705
f 706 707 708
f 709 710 711
f 712 713 714
f 715 716 717
f 718 719 720
f 721 722 723
f 724 725 726
f 727 728 729
f 730 731 732
f 733 734 735
f 736 737 738
f 739 740 741
f 742 743 744
f 745 746 747
f 748 749 750
f 751 752 753
f 754 755 756
f 757 758 759
f 760 761 762
f 763 764 765
f 766 767 768
f 769 770 771
f 772 773 774
f 775 776 777
f 778 779 780
f 781 782 783
f 784 785 786
f 787 788 789
f 790 791 792
f 793 794 795
f 796 797 798
f 799 800 801
f 802 803 804
f 805 806 807
f 808 809 810
f 811 812 813
f 814 815 816
