# Pyramida editable prop source
# units: 1 OBJ unit = 1 Pyramida World Unit = 1 Blender metre

o Limestone
v 0.267982 3.000000 -0.265010
v -0.267982 3.000000 0.265010
v -0.267982 3.000000 -0.265010
v 0.267982 3.000000 0.265010
v 0.267982 0.000000 -0.265010
v -0.267982 0.000000 0.265010
v -0.267982 0.000000 -0.265010
v 0.267982 0.000000 0.265010
v -0.267982 3.000000 -0.265010
v 0.267982 3.000000 0.265010
v -0.267982 3.000000 0.265010
v 0.267982 3.000000 -0.265010
v -0.267982 0.000000 -0.265010
v 0.267982 0.000000 0.265010
v -0.267982 0.000000 0.265010
v 0.267982 0.000000 -0.265010
v -0.267982 3.000000 -0.265010
v 0.267982 0.000000 -0.265010
v 0.267982 3.000000 -0.265010
v -0.267982 0.000000 -0.265010
v -0.267982 3.000000 0.265010
v 0.267982 0.000000 0.265010
v 0.267982 3.000000 0.265010
v -0.267982 0.000000 0.265010
f 1 3 5
f 3 7 5
f 2 4 6
f 4 8 6
f 9 11 13
f 11 15 13
f 10 12 14
f 12 16 14
f 17 19 21
f 19 23 21
f 18 20 22
f 20 24 22
