# Pyramida editable prop source
# units: 1 OBJ unit = 1 Pyramida World Unit = 1 Blender metre

o LooseLog
v -0.460000 0.145000 0.145000
v 0.460000 0.145000 0.105000
v 0.460000 0.235933 0.052500
v -0.460000 0.145000 0.145000
v 0.460000 0.235933 0.052500
v -0.460000 0.270574 0.072500
v -0.460000 0.145000 0.000000
v -0.460000 0.145000 0.145000
v -0.460000 0.270574 0.072500
v 0.460000 0.145000 0.000000
v 0.460000 0.235933 0.052500
v 0.460000 0.145000 0.105000
v -0.460000 0.270574 0.072500
v 0.460000 0.235933 0.052500
v 0.460000 0.235933 -0.052500
v -0.460000 0.270574 0.072500
v 0.460000 0.235933 -0.052500
v -0.460000 0.270574 -0.072500
v -0.460000 0.145000 0.000000
v -0.460000 0.270574 0.072500
v -0.460000 0.270574 -0.072500
v 0.460000 0.145000 0.000000
v 0.460000 0.235933 -0.052500
v 0.460000 0.235933 0.052500
v -0.460000 0.270574 -0.072500
v 0.460000 0.235933 -0.052500
v 0.460000 0.145000 -0.105000
v -0.460000 0.270574 -0.072500
v 0.460000 0.145000 -0.105000
v -0.460000 0.145000 -0.145000
v -0.460000 0.145000 0.000000
v -0.460000 0.270574 -0.072500
v -0.460000 0.145000 -0.145000
v 0.460000 0.145000 0.000000
v 0.460000 0.145000 -0.105000
v 0.460000 0.235933 -0.052500
v -0.460000 0.145000 -0.145000
v 0.460000 0.145000 -0.105000
v 0.460000 0.054067 -0.052500
v -0.460000 0.145000 -0.145000
v 0.460000 0.054067 -0.052500
v -0.460000 0.019426 -0.072500
v -0.460000 0.145000 0.000000
v -0.460000 0.145000 -0.145000
v -0.460000 0.019426 -0.072500
v 0.460000 0.145000 0.000000
v 0.460000 0.054067 -0.052500
v 0.460000 0.145000 -0.105000
v -0.460000 0.019426 -0.072500
v 0.460000 0.054067 -0.052500
v 0.460000 0.054067 0.052500
v -0.460000 0.019426 -0.072500
v 0.460000 0.054067 0.052500
v -0.460000 0.019426 0.072500
v -0.460000 0.145000 0.000000
v -0.460000 0.019426 -0.072500
v -0.460000 0.019426 0.072500
v 0.460000 0.145000 0.000000
v 0.460000 0.054067 0.052500
v 0.460000 0.054067 -0.052500
v -0.460000 0.019426 0.072500
v 0.460000 0.054067 0.052500
v 0.460000 0.145000 0.105000
v -0.460000 0.019426 0.072500
v 0.460000 0.145000 0.105000
v -0.460000 0.145000 0.145000
v -0.460000 0.145000 0.000000
v -0.460000 0.019426 0.072500
v -0.460000 0.145000 0.145000
v 0.460000 0.145000 0.000000
v 0.460000 0.145000 0.105000
v 0.460000 0.054067 0.052500
f 1 2 3
f 4 5 6
f 7 8 9
f 10 11 12
f 13 14 15
f 16 17 18
f 19 20 21
f 22 23 24
f 25 26 27
f 28 29 30
f 31 32 33
f 34 35 36
f 37 38 39
f 40 41 42
f 43 44 45
f 46 47 48
f 49 50 51
f 52 53 54
f 55 56 57
f 58 59 60
f 61 62 63
f 64 65 66
f 67 68 69
f 70 71 72
