# Pyramida editable prop source
# units: 1 OBJ unit = 1 Pyramida World Unit = 1 Blender metre

o PalmTrunk
v 0.061556 0.074391 0.096705
v 0.238128 0.020872 -0.016977
v 0.240448 0.044247 -0.041478
v 0.061556 0.074391 0.096705
v 0.240448 0.044247 -0.041478
v 0.071707 0.176653 -0.010484
v 0.043495 0.075584 -0.006723
v 0.061556 0.074391 0.096705
v 0.071707 0.176653 -0.010484
v 0.234000 0.021145 -0.040618
v 0.240448 0.044247 -0.041478
v 0.238128 0.020872 -0.016977
v 0.071707 0.176653 -0.010484
v 0.240448 0.044247 -0.041478
v 0.229872 0.021418 -0.064259
v 0.071707 0.176653 -0.010484
v 0.229872 0.021418 -0.064259
v 0.025434 0.076778 -0.110151
v 0.043495 0.075584 -0.006723
v 0.071707 0.176653 -0.010484
v 0.025434 0.076778 -0.110151
v 0.234000 0.021145 -0.040618
v 0.229872 0.021418 -0.064259
v 0.240448 0.044247 -0.041478
v 0.025434 0.076778 -0.110151
v 0.229872 0.021418 -0.064259
v 0.227551 -0.001956 -0.039758
v 0.025434 0.076778 -0.110151
v 0.227551 -0.001956 -0.039758
v 0.015282 -0.025484 -0.002963
v 0.043495 0.075584 -0.006723
v 0.025434 0.076778 -0.110151
v 0.015282 -0.025484 -0.002963
v 0.234000 0.021145 -0.040618
v 0.227551 -0.001956 -0.039758
v 0.229872 0.021418 -0.064259
v 0.015282 -0.025484 -0.002963
v 0.227551 -0.001956 -0.039758
v 0.238128 0.020872 -0.016977
v 0.015282 -0.025484 -0.002963
v 0.238128 0.020872 -0.016977
v 0.061556 0.074391 0.096705
v 0.043495 0.075584 -0.006723
v 0.015282 -0.025484 -0.002963
v 0.061556 0.074391 0.096705
v 0.234000 0.021145 -0.040618
v 0.238128 0.020872 -0.016977
v 0.227551 -0.001956 -0.039758
v -0.114972 0.073784 -0.003527
v -0.137195 0.013355 0.232049
v -0.118339 0.036606 0.248044
v -0.114972 0.073784 -0.003527
v -0.118339 0.036606 0.248044
v -0.032477 0.175507 0.066451
v -0.020180 0.074227 0.041631
v -0.114972 0.073784 -0.003527
v -0.032477 0.175507 0.066451
v -0.115528 0.013456 0.242371
v -0.118339 0.036606 0.248044
v -0.137195 0.013355 0.232049
v -0.032477 0.175507 0.066451
v -0.118339 0.036606 0.248044
v -0.093861 0.013557 0.252693
v -0.032477 0.175507 0.066451
v -0.093861 0.013557 0.252693
v 0.074612 0.074669 0.086790
v -0.020180 0.074227 0.041631
v -0.032477 0.175507 0.066451
v 0.074612 0.074669 0.086790
v -0.115528 0.013456 0.242371
v -0.093861 0.013557 0.252693
v -0.118339 0.036606 0.248044
v 0.074612 0.074669 0.086790
v -0.093861 0.013557 0.252693
v -0.112717 -0.009694 0.236698
v 0.074612 0.074669 0.086790
v -0.112717 -0.009694 0.236698
v -0.007882 -0.027054 0.016811
v -0.020180 0.074227 0.041631
v 0.074612 0.074669 0.086790
v -0.007882 -0.027054 0.016811
v -0.115528 0.013456 0.242371
v -0.112717 -0.009694 0.236698
v -0.093861 0.013557 0.252693
v -0.007882 -0.027054 0.016811
v -0.112717 -0.009694 0.236698
v -0.137195 0.013355 0.232049
v -0.007882 -0.027054 0.016811
v -0.137195 0.013355 0.232049
v -0.114972 0.073784 -0.003527
v -0.020180 0.074227 0.041631
v -0.007882 -0.027054 0.016811
v -0.114972 0.073784 -0.003527
v -0.115528 0.013456 0.242371
v -0.137195 0.013355 0.232049
v -0.112717 -0.009694 0.236698
v 0.068928 0.076981 -0.089430
v -0.124782 0.020288 -0.272288
v -0.148562 0.043344 -0.264876
v 0.068928 0.076981 -0.089430
v -0.148562 0.043344 -0.264876
v -0.035108 0.177852 -0.057005
v -0.022757 0.075275 -0.038286
v 0.068928 0.076981 -0.089430
v -0.035108 0.177852 -0.057005
v -0.145739 0.019898 -0.260598
v -0.148562 0.043344 -0.264876
v -0.124782 0.020288 -0.272288
v -0.035108 0.177852 -0.057005
v -0.148562 0.043344 -0.264876
v -0.166695 0.019508 -0.248908
v -0.035108 0.177852 -0.057005
v -0.166695 0.019508 -0.248908
v -0.114443 0.073569 0.012859
v -0.022757 0.075275 -0.038286
v -0.035108 0.177852 -0.057005
v -0.114443 0.073569 0.012859
v -0.145739 0.019898 -0.260598
v -0.166695 0.019508 -0.248908
v -0.148562 0.043344 -0.264876
v -0.114443 0.073569 0.012859
v -0.166695 0.019508 -0.248908
v -0.142916 -0.003548 -0.256319
v -0.114443 0.073569 0.012859
v -0.142916 -0.003548 -0.256319
v -0.010407 -0.027302 -0.019566
v -0.022757 0.075275 -0.038286
v -0.114443 0.073569 0.012859
v -0.010407 -0.027302 -0.019566
v -0.145739 0.019898 -0.260598
v -0.142916 -0.003548 -0.256319
v -0.166695 0.019508 -0.248908
v -0.010407 -0.027302 -0.019566
v -0.142916 -0.003548 -0.256319
v -0.124782 0.020288 -0.272288
v -0.010407 -0.027302 -0.019566
v -0.124782 0.020288 -0.272288
v 0.068928 0.076981 -0.089430
v -0.022757 0.075275 -0.038286
v -0.010407 -0.027302 -0.019566
v 0.068928 0.076981 -0.089430
v -0.145739 0.019898 -0.260598
v -0.124782 0.020288 -0.272288
v -0.142916 -0.003548 -0.256319
v 0.000107 -0.007650 -0.149805
v -0.037989 0.994044 -0.175951
v 0.070142 1.001342 -0.113665
v 0.000107 -0.007650 -0.149805
v 0.070142 1.001342 -0.113665
v 0.129864 0.001108 -0.075061
v 0.000000 0.000000 0.000000
v 0.000107 -0.007650 -0.149805
v 0.129864 0.001108 -0.075061
v 0.129864 0.001108 -0.075061
v 0.070142 1.001342 -0.113665
v 0.070052 1.007717 0.011173
v 0.129864 0.001108 -0.075061
v 0.070052 1.007717 0.011173
v 0.129756 0.008758 0.074743
v 0.000000 0.000000 0.000000
v 0.129864 0.001108 -0.075061
v 0.129756 0.008758 0.074743
v 0.129756 0.008758 0.074743
v 0.070052 1.007717 0.011173
v -0.038167 1.006794 0.073724
v 0.129756 0.008758 0.074743
v -0.038167 1.006794 0.073724
v -0.000107 0.007650 0.149805
v 0.000000 0.000000 0.000000
v 0.129756 0.008758 0.074743
v -0.000107 0.007650 0.149805
v -0.000107 0.007650 0.149805
v -0.038167 1.006794 0.073724
v -0.146298 0.999496 0.011438
v -0.000107 0.007650 0.149805
v -0.146298 0.999496 0.011438
v -0.129864 -0.001108 0.075061
v 0.000000 0.000000 0.000000
v -0.000107 0.007650 0.149805
v -0.129864 -0.001108 0.075061
v -0.129864 -0.001108 0.075061
v -0.146298 0.999496 0.011438
v -0.146208 0.993121 -0.113400
v -0.129864 -0.001108 0.075061
v -0.146208 0.993121 -0.113400
v -0.129756 -0.008758 -0.074743
v 0.000000 0.000000 0.000000
v -0.129864 -0.001108 0.075061
v -0.129756 -0.008758 -0.074743
v -0.129756 -0.008758 -0.074743
v -0.146208 0.993121 -0.113400
v -0.037989 0.994044 -0.175951
v -0.129756 -0.008758 -0.074743
v -0.037989 0.994044 -0.175951
v 0.000107 -0.007650 -0.149805
v 0.000000 0.000000 0.000000
v -0.129756 -0.008758 -0.074743
v 0.000107 -0.007650 -0.149805
v -0.037957 0.991183 -0.175772
v -0.085698 1.993653 -0.225020
v 0.000758 2.001456 -0.175377
v -0.037957 0.991183 -0.175772
v 0.000758 2.001456 -0.175377
v 0.070114 1.000937 -0.113718
v 0.070114 1.000937 -0.113718
v 0.000758 2.001456 -0.175377
v 0.000662 2.008844 -0.075650
v 0.070114 1.000937 -0.113718
v 0.000662 2.008844 -0.075650
v 0.069992 1.010173 0.010940
v 0.069992 1.010173 0.010940
v 0.000662 2.008844 -0.075650
v -0.085892 2.008430 -0.025566
v 0.069992 1.010173 0.010940
v -0.085892 2.008430 -0.025566
v -0.038199 1.009654 0.073545
v -0.038199 1.009654 0.073545
v -0.085892 2.008430 -0.025566
v -0.172348 2.000627 -0.075209
v -0.038199 1.009654 0.073545
v -0.172348 2.000627 -0.075209
v -0.146269 0.999900 0.011491
v -0.146269 0.999900 0.011491
v -0.172348 2.000627 -0.075209
v -0.172251 1.993238 -0.174936
v -0.146269 0.999900 0.011491
v -0.172251 1.993238 -0.174936
v -0.146148 0.990665 -0.113167
v -0.146148 0.990665 -0.113167
v -0.172251 1.993238 -0.174936
v -0.085698 1.993653 -0.225020
v -0.146148 0.990665 -0.113167
v -0.085698 1.993653 -0.225020
v -0.037957 0.991183 -0.175772
v -0.085673 1.991377 -0.224825
v -0.143059 2.994620 -0.297188
v -0.078259 3.001933 -0.260142
v -0.085673 1.991377 -0.224825
v -0.078259 3.001933 -0.260142
v 0.000728 2.001128 -0.175431
v -0.143151 3.001868 -0.222539
v -0.078259 3.001933 -0.260142
v -0.143059 2.994620 -0.297188
v 0.000728 2.001128 -0.175431
v -0.078259 3.001933 -0.260142
v -0.078350 3.009181 -0.185493
v 0.000728 2.001128 -0.175431
v -0.078350 3.009181 -0.185493
v 0.000606 2.010792 -0.075899
v -0.143151 3.001868 -0.222539
v -0.078350 3.009181 -0.185493
v -0.078259 3.001933 -0.260142
v 0.000606 2.010792 -0.075899
v -0.078350 3.009181 -0.185493
v -0.143242 3.009115 -0.147890
v 0.000606 2.010792 -0.075899
v -0.143242 3.009115 -0.147890
v -0.085917 2.010705 -0.025761
v -0.143151 3.001868 -0.222539
v -0.143242 3.009115 -0.147890
v -0.078350 3.009181 -0.185493
v -0.085917 2.010705 -0.025761
v -0.143242 3.009115 -0.147890
v -0.208043 3.001803 -0.184936
v -0.085917 2.010705 -0.025761
v -0.208043 3.001803 -0.184936
v -0.172318 2.000954 -0.075155
v -0.143151 3.001868 -0.222539
v -0.208043 3.001803 -0.184936
v -0.143242 3.009115 -0.147890
v -0.172318 2.000954 -0.075155
v -0.208043 3.001803 -0.184936
v -0.207951 2.994554 -0.259584
v -0.172318 2.000954 -0.075155
v -0.207951 2.994554 -0.259584
v -0.172196 1.991290 -0.174687
v -0.143151 3.001868 -0.222539
v -0.207951 2.994554 -0.259584
v -0.208043 3.001803 -0.184936
v -0.172196 1.991290 -0.174687
v -0.207951 2.994554 -0.259584
v -0.143059 2.994620 -0.297188
v -0.172196 1.991290 -0.174687
v -0.143059 2.994620 -0.297188
v -0.085673 1.991377 -0.224825
v -0.143151 3.001868 -0.222539
v -0.143059 2.994620 -0.297188
v -0.207951 2.994554 -0.259584
f 1 2 3
f 4 5 6
f 7 8 9
f 10 11 12
f 13 14 15
f 16 17 18
f 19 20 21
f 22 23 24
f 25 26 27
f 28 29 30
f 31 32 33
f 34 35 36
f 37 38 39
f 40 41 42
f 43 44 45
f 46 47 48
f 49 50 51
f 52 53 54
f 55 56 57
f 58 59 60
f 61 62 63
f 64 65 66
f 67 68 69
f 70 71 72
f 73 74 75
f 76 77 78
f 79 80 81
f 82 83 84
f 85 86 87
f 88 89 90
f 91 92 93
f 94 95 96
f 97 98 99
f 100 101 102
f 103 104 105
f 106 107 108
f 109 110 111
f 112 113 114
f 115 116 117
f 118 119 120
f 121 122 123
f 124 125 126
f 127 128 129
f 130 131 132
f 133 134 135
f 136 137 138
f 139 140 141
f 142 143 144
f 145 146 147
f 148 149 150
f 151 152 153
f 154 155 156
f 157 158 159
f 160 161 162
f 163 164 165
f 166 167 168
f 169 170 171
f 172 173 174
f 175 176 177
f 178 179 180
f 181 182 183
f 184 185 186
f 187 188 189
f 190 191 192
f 193 194 195
f 196 197 198
f 199 200 201
f 202 203 204
f 205 206 207
f 208 209 210
f 211 212 213
f 214 215 216
f 217 218 219
f 220 221 222
f 223 224 225
f 226 227 228
f 229 230 231
f 232 233 234
f 235 236 237
f 238 239 240
f 241 242 243
f 244 245 246
f 247 248 249
f 250 251 252
f 253 254 255
f 256 257 258
f 259 260 261
f 262 263 264
f 265 266 267
f 268 269 270
f 271 272 273
f 274 275 276
f 277 278 279
f 280 281 282
f 283 284 285
f 286 287 288

o PalmLightLeaves
v -0.145627 3.058801 -0.206909
v -0.016724 3.082518 -0.065227
v 0.011868 3.085942 -0.295831
v -0.145627 3.058801 -0.206909
v 0.011868 3.085942 -0.295831
v -0.141942 3.059242 -0.236628
v -0.145627 3.058801 -0.206909
v 0.011868 3.085942 -0.295831
v -0.016724 3.082518 -0.065227
v -0.145627 3.058801 -0.206909
v -0.141942 3.059242 -0.236628
v 0.011868 3.085942 -0.295831
v -0.016724 3.082518 -0.065227
v 0.118420 3.071319 0.028832
v 0.162404 3.076586 -0.325926
v -0.016724 3.082518 -0.065227
v 0.162404 3.076586 -0.325926
v 0.011868 3.085942 -0.295831
v -0.016724 3.082518 -0.065227
v 0.162404 3.076586 -0.325926
v 0.118420 3.071319 0.028832
v -0.016724 3.082518 -0.065227
v 0.011868 3.085942 -0.295831
v 0.162404 3.076586 -0.325926
v 0.118420 3.071319 0.028832
v 0.263508 3.017313 0.046019
v 0.307492 3.022580 -0.308739
v 0.118420 3.071319 0.028832
v 0.307492 3.022580 -0.308739
v 0.162404 3.076586 -0.325926
v 0.118420 3.071319 0.028832
v 0.307492 3.022580 -0.308739
v 0.263508 3.017313 0.046019
v 0.118420 3.071319 0.028832
v 0.162404 3.076586 -0.325926
v 0.307492 3.022580 -0.308739
v 0.263508 3.017313 0.046019
v 0.418541 2.920500 -0.013667
v 0.447132 2.923924 -0.244271
v 0.263508 3.017313 0.046019
v 0.447132 2.923924 -0.244271
v 0.307492 3.022580 -0.308739
v 0.263508 3.017313 0.046019
v 0.447132 2.923924 -0.244271
v 0.418541 2.920500 -0.013667
v 0.263508 3.017313 0.046019
v 0.307492 3.022580 -0.308739
v 0.447132 2.923924 -0.244271
v 0.418541 2.920500 -0.013667
v 0.579814 2.788772 -0.120976
v 0.583499 2.789213 -0.150695
v 0.418541 2.920500 -0.013667
v 0.583499 2.789213 -0.150695
v 0.447132 2.923924 -0.244271
v 0.418541 2.920500 -0.013667
v 0.583499 2.789213 -0.150695
v 0.579814 2.788772 -0.120976
v 0.418541 2.920500 -0.013667
v 0.447132 2.923924 -0.244271
v 0.583499 2.789213 -0.150695
v -0.158067 3.075172 -0.214177
v -0.224764 3.094408 -0.005343
v -0.005941 3.098376 -0.119723
v -0.158067 3.075172 -0.214177
v -0.005941 3.098376 -0.119723
v -0.129866 3.075683 -0.228918
v -0.158067 3.075172 -0.214177
v -0.005941 3.098376 -0.119723
v -0.224764 3.094408 -0.005343
v -0.158067 3.075172 -0.214177
v -0.129866 3.075683 -0.228918
v -0.005941 3.098376 -0.119723
v -0.224764 3.094408 -0.005343
v -0.238396 3.076170 0.175459
v 0.098238 3.082274 -0.000502
v -0.224764 3.094408 -0.005343
v 0.098238 3.082274 -0.000502
v -0.005941 3.098376 -0.119723
v -0.224764 3.094408 -0.005343
v 0.098238 3.082274 -0.000502
v -0.238396 3.076170 0.175459
v -0.224764 3.094408 -0.005343
v -0.005941 3.098376 -0.119723
v 0.098238 3.082274 -0.000502
v -0.238396 3.076170 0.175459
v -0.166339 3.012725 0.311111
v 0.170295 3.018829 0.135150
v -0.238396 3.076170 0.175459
v 0.170295 3.018829 0.135150
v 0.098238 3.082274 -0.000502
v -0.238396 3.076170 0.175459
v 0.170295 3.018829 0.135150
v -0.166339 3.012725 0.311111
v -0.238396 3.076170 0.175459
v 0.098238 3.082274 -0.000502
v 0.170295 3.018829 0.135150
v -0.166339 3.012725 0.311111
v -0.008592 2.904072 0.401615
v 0.210230 2.908040 0.287234
v -0.166339 3.012725 0.311111
v 0.210230 2.908040 0.287234
v 0.170295 3.018829 0.135150
v -0.166339 3.012725 0.311111
v 0.210230 2.908040 0.287234
v -0.008592 2.904072 0.401615
v -0.166339 3.012725 0.311111
v 0.170295 3.018829 0.135150
v 0.210230 2.908040 0.287234
v -0.008592 2.904072 0.401615
v 0.202219 2.757946 0.464086
v 0.230419 2.758457 0.449345
v -0.008592 2.904072 0.401615
v 0.230419 2.758457 0.449345
v 0.210230 2.908040 0.287234
v -0.008592 2.904072 0.401615
v 0.230419 2.758457 0.449345
v 0.202219 2.757946 0.464086
v -0.008592 2.904072 0.401615
v 0.210230 2.908040 0.287234
v 0.230419 2.758457 0.449345
v -0.155091 3.091884 -0.234140
v -0.331362 3.110715 -0.189843
v -0.161543 3.109919 0.009006
v -0.155091 3.091884 -0.234140
v -0.161543 3.109919 0.009006
v -0.133206 3.091782 -0.208513
v -0.155091 3.091884 -0.234140
v -0.161543 3.109919 0.009006
v -0.331362 3.110715 -0.189843
v -0.155091 3.091884 -0.234140
v -0.133206 3.091782 -0.208513
v -0.161543 3.109919 0.009006
v -0.331362 3.110715 -0.189843
v -0.487122 3.088212 -0.122620
v -0.225875 3.086987 0.183287
v -0.331362 3.110715 -0.189843
v -0.225875 3.086987 0.183287
v -0.161543 3.109919 0.009006
v -0.331362 3.110715 -0.189843
v -0.225875 3.086987 0.183287
v -0.487122 3.088212 -0.122620
v -0.331362 3.110715 -0.189843
v -0.161543 3.109919 0.009006
v -0.225875 3.086987 0.183287
v -0.487122 3.088212 -0.122620
v -0.609884 3.015992 -0.018070
v -0.348637 3.014767 0.287837
v -0.487122 3.088212 -0.122620
v -0.348637 3.014767 0.287837
v -0.225875 3.086987 0.183287
v -0.487122 3.088212 -0.122620
v -0.348637 3.014767 0.287837
v -0.609884 3.015992 -0.018070
v -0.487122 3.088212 -0.122620
v -0.225875 3.086987 0.183287
v -0.348637 3.014767 0.287837
v -0.609884 3.015992 -0.018070
v -0.699648 2.894056 0.123808
v -0.529829 2.893260 0.322658
v -0.609884 3.015992 -0.018070
v -0.529829 2.893260 0.322658
v -0.348637 3.014767 0.287837
v -0.609884 3.015992 -0.018070
v -0.529829 2.893260 0.322658
v -0.699648 2.894056 0.123808
v -0.609884 3.015992 -0.018070
v -0.348637 3.014767 0.287837
v -0.529829 2.893260 0.322658
v -0.699648 2.894056 0.123808
v -0.768901 2.730785 0.288613
v -0.747015 2.730683 0.314239
v -0.699648 2.894056 0.123808
v -0.747015 2.730683 0.314239
v -0.529829 2.893260 0.322658
v -0.699648 2.894056 0.123808
v -0.747015 2.730683 0.314239
v -0.768901 2.730785 0.288613
v -0.699648 2.894056 0.123808
v -0.529829 2.893260 0.322658
v -0.747015 2.730683 0.314239
v -0.136110 3.108479 -0.232171
v -0.222944 3.135780 -0.401914
v -0.350516 3.132052 -0.230182
v -0.136110 3.108479 -0.232171
v -0.350516 3.132052 -0.230182
v -0.152551 3.107998 -0.210040
v -0.136110 3.108479 -0.232171
v -0.350516 3.132052 -0.230182
v -0.222944 3.135780 -0.401914
v -0.136110 3.108479 -0.232171
v -0.152551 3.107998 -0.210040
v -0.350516 3.132052 -0.230182
v -0.222944 3.135780 -0.401914
v -0.328767 3.130463 -0.546048
v -0.525022 3.124727 -0.281857
v -0.222944 3.135780 -0.401914
v -0.525022 3.124727 -0.281857
v -0.350516 3.132052 -0.230182
v -0.222944 3.135780 -0.401914
v -0.525022 3.124727 -0.281857
v -0.328767 3.130463 -0.546048
v -0.222944 3.135780 -0.401914
v -0.350516 3.132052 -0.230182
v -0.525022 3.124727 -0.281857
v -0.328767 3.130463 -0.546048
v -0.465443 3.083854 -0.648590
v -0.661698 3.078118 -0.384399
v -0.328767 3.130463 -0.546048
v -0.661698 3.078118 -0.384399
v -0.525022 3.124727 -0.281857
v -0.328767 3.130463 -0.546048
v -0.661698 3.078118 -0.384399
v -0.465443 3.083854 -0.648590
v -0.328767 3.130463 -0.546048
v -0.525022 3.124727 -0.281857
v -0.661698 3.078118 -0.384399
v -0.465443 3.083854 -0.648590
v -0.632971 2.995952 -0.709541
v -0.760544 2.992224 -0.537808
v -0.465443 3.083854 -0.648590
v -0.760544 2.992224 -0.537808
v -0.661698 3.078118 -0.384399
v -0.465443 3.083854 -0.648590
v -0.760544 2.992224 -0.537808
v -0.632971 2.995952 -0.709541
v -0.465443 3.083854 -0.648590
v -0.661698 3.078118 -0.384399
v -0.760544 2.992224 -0.537808
v -0.632971 2.995952 -0.709541
v -0.819489 2.875432 -0.744882
v -0.835930 2.874952 -0.722750
v -0.632971 2.995952 -0.709541
v -0.835930 2.874952 -0.722750
v -0.760544 2.992224 -0.537808
v -0.632971 2.995952 -0.709541
v -0.835930 2.874952 -0.722750
v -0.819489 2.875432 -0.744882
v -0.632971 2.995952 -0.709541
v -0.760544 2.992224 -0.537808
v -0.835930 2.874952 -0.722750
v -0.131031 3.124714 -0.214963
v 0.032601 3.152234 -0.299173
v -0.176618 3.151152 -0.391071
v -0.131031 3.124714 -0.214963
v -0.176618 3.151152 -0.391071
v -0.157994 3.124574 -0.226806
v -0.131031 3.124714 -0.214963
v -0.176618 3.151152 -0.391071
v 0.032601 3.152234 -0.299173
v -0.131031 3.124714 -0.214963
v -0.157994 3.124574 -0.226806
v -0.176618 3.151152 -0.391071
v 0.032601 3.152234 -0.299173
v 0.156025 3.144679 -0.401684
v -0.165835 3.143014 -0.543059
v 0.032601 3.152234 -0.299173
v -0.165835 3.143014 -0.543059
v -0.176618 3.151152 -0.391071
v 0.032601 3.152234 -0.299173
v -0.165835 3.143014 -0.543059
v 0.156025 3.144679 -0.401684
v 0.032601 3.152234 -0.299173
v -0.176618 3.151152 -0.391071
v -0.165835 3.143014 -0.543059
v 0.156025 3.144679 -0.401684
v 0.214245 3.093594 -0.533628
v -0.107615 3.091929 -0.675003
v 0.156025 3.144679 -0.401684
v -0.107615 3.091929 -0.675003
v -0.165835 3.143014 -0.543059
v 0.156025 3.144679 -0.401684
v -0.107615 3.091929 -0.675003
v 0.214245 3.093594 -0.533628
v 0.156025 3.144679 -0.401684
v -0.165835 3.143014 -0.543059
v -0.107615 3.091929 -0.675003
v 0.214245 3.093594 -0.533628
v 0.207260 2.998980 -0.695005
v -0.001959 2.997898 -0.786903
v 0.214245 3.093594 -0.533628
v -0.001959 2.997898 -0.786903
v -0.107615 3.091929 -0.675003
v 0.214245 3.093594 -0.533628
v -0.001959 2.997898 -0.786903
v 0.207260 2.998980 -0.695005
v 0.214245 3.093594 -0.533628
v -0.107615 3.091929 -0.675003
v -0.001959 2.997898 -0.786903
v 0.207260 2.998980 -0.695005
v 0.160067 2.869291 -0.874683
v 0.133104 2.869151 -0.886526
v 0.207260 2.998980 -0.695005
v 0.133104 2.869151 -0.886526
v -0.001959 2.997898 -0.786903
v 0.207260 2.998980 -0.695005
v 0.133104 2.869151 -0.886526
v 0.160067 2.869291 -0.874683
v 0.207260 2.998980 -0.695005
v -0.001959 2.997898 -0.786903
v 0.133104 2.869151 -0.886526
f 289 290 291
f 292 293 294
f 295 296 297
f 298 299 300
f 301 302 303
f 304 305 306
f 307 308 309
f 310 311 312
f 313 314 315
f 316 317 318
f 319 320 321
f 322 323 324
f 325 326 327
f 328 329 330
f 331 332 333
f 334 335 336
f 337 338 339
f 340 341 342
f 343 344 345
f 346 347 348
f 349 350 351
f 352 353 354
f 355 356 357
f 358 359 360
f 361 362 363
f 364 365 366
f 367 368 369
f 370 371 372
f 373 374 375
f 376 377 378
f 379 380 381
f 382 383 384
f 385 386 387
f 388 389 390
f 391 392 393
f 394 395 396
f 397 398 399
f 400 401 402
f 403 404 405
f 406 407 408
f 409 410 411
f 412 413 414
f 415 416 417
f 418 419 420
f 421 422 423
f 424 425 426
f 427 428 429
f 430 431 432
f 433 434 435
f 436 437 438
f 439 440 441
f 442 443 444
f 445 446 447
f 448 449 450
f 451 452 453
f 454 455 456
f 457 458 459
f 460 461 462
f 463 464 465
f 466 467 468
f 469 470 471
f 472 473 474
f 475 476 477
f 478 479 480
f 481 482 483
f 484 485 486
f 487 488 489
f 490 491 492
f 493 494 495
f 496 497 498
f 499 500 501
f 502 503 504
f 505 506 507
f 508 509 510
f 511 512 513
f 514 515 516
f 517 518 519
f 520 521 522
f 523 524 525
f 526 527 528
f 529 530 531
f 532 533 534
f 535 536 537
f 538 539 540
f 541 542 543
f 544 545 546
f 547 548 549
f 550 551 552
f 553 554 555
f 556 557 558
f 559 560 561
f 562 563 564
f 565 566 567
f 568 569 570
f 571 572 573
f 574 575 576
f 577 578 579
f 580 581 582
f 583 584 585
f 586 587 588

o PalmDarkLeaves
v -0.147227 3.022913 -0.209309
v -0.056575 3.040913 -0.034499
v 0.003024 3.044280 -0.235361
v -0.147227 3.022913 -0.209309
v 0.003024 3.044280 -0.235361
v -0.139546 3.023346 -0.235195
v -0.147227 3.022913 -0.209309
v 0.003024 3.044280 -0.235361
v -0.056575 3.040913 -0.034499
v -0.147227 3.022913 -0.209309
v -0.139546 3.023346 -0.235195
v 0.003024 3.044280 -0.235361
v -0.056575 3.040913 -0.034499
v 0.049952 3.014478 0.087895
v 0.141637 3.019659 -0.221108
v -0.056575 3.040913 -0.034499
v 0.141637 3.019659 -0.221108
v 0.003024 3.044280 -0.235361
v -0.056575 3.040913 -0.034499
v 0.141637 3.019659 -0.221108
v 0.049952 3.014478 0.087895
v -0.056575 3.040913 -0.034499
v 0.003024 3.044280 -0.235361
v 0.141637 3.019659 -0.221108
v 0.049952 3.014478 0.087895
v 0.181945 2.935822 0.125741
v 0.273631 2.941002 -0.183263
v 0.049952 3.014478 0.087895
v 0.273631 2.941002 -0.183263
v 0.141637 3.019659 -0.221108
v 0.049952 3.014478 0.087895
v 0.273631 2.941002 -0.183263
v 0.181945 2.935822 0.125741
v 0.049952 3.014478 0.087895
v 0.141637 3.019659 -0.221108
v 0.273631 2.941002 -0.183263
v 0.181945 2.935822 0.125741
v 0.339405 2.804943 0.079039
v 0.399004 2.808310 -0.121823
v 0.181945 2.935822 0.125741
v 0.399004 2.808310 -0.121823
v 0.273631 2.941002 -0.183263
v 0.181945 2.935822 0.125741
v 0.399004 2.808310 -0.121823
v 0.339405 2.804943 0.079039
v 0.181945 2.935822 0.125741
v 0.273631 2.941002 -0.183263
v 0.399004 2.808310 -0.121823
v 0.339405 2.804943 0.079039
v 0.512740 2.629630 -0.020081
v 0.520420 2.630064 -0.045967
v 0.339405 2.804943 0.079039
v 0.520420 2.630064 -0.045967
v 0.399004 2.808310 -0.121823
v 0.339405 2.804943 0.079039
v 0.520420 2.630064 -0.045967
v 0.512740 2.629630 -0.020081
v 0.339405 2.804943 0.079039
v 0.399004 2.808310 -0.121823
v 0.520420 2.630064 -0.045967
v -0.156914 2.984645 -0.219052
v -0.166647 3.000125 -0.065043
v 0.049878 3.003303 -0.122713
v -0.156914 2.984645 -0.219052
v 0.049878 3.003303 -0.122713
v -0.129010 2.985055 -0.226484
v -0.156914 2.984645 -0.219052
v 0.049878 3.003303 -0.122713
v -0.166647 3.000125 -0.065043
v -0.156914 2.984645 -0.219052
v -0.129010 2.985055 -0.226484
v 0.049878 3.003303 -0.122713
v -0.166647 3.000125 -0.065043
v -0.157823 2.967191 0.083512
v 0.175275 2.972080 -0.005207
v -0.166647 3.000125 -0.065043
v 0.175275 2.972080 -0.005207
v 0.049878 3.003303 -0.122713
v -0.166647 3.000125 -0.065043
v 0.175275 2.972080 -0.005207
v -0.157823 2.967191 0.083512
v -0.166647 3.000125 -0.065043
v 0.049878 3.003303 -0.122713
v 0.175275 2.972080 -0.005207
v -0.157823 2.967191 0.083512
v -0.119214 2.877682 0.223534
v 0.213883 2.882571 0.134815
v -0.157823 2.967191 0.083512
v 0.213883 2.882571 0.134815
v 0.175275 2.972080 -0.005207
v -0.157823 2.967191 0.083512
v 0.213883 2.882571 0.134815
v -0.119214 2.877682 0.223534
v -0.157823 2.967191 0.083512
v 0.175275 2.972080 -0.005207
v 0.213883 2.882571 0.134815
v -0.119214 2.877682 0.223534
v -0.050822 2.731599 0.355023
v 0.165702 2.734777 0.297353
v -0.119214 2.877682 0.223534
v 0.165702 2.734777 0.297353
v 0.213883 2.882571 0.134815
v -0.119214 2.877682 0.223534
v 0.165702 2.734777 0.297353
v -0.050822 2.731599 0.355023
v -0.119214 2.877682 0.223534
v 0.213883 2.882571 0.134815
v 0.165702 2.734777 0.297353
v -0.050822 2.731599 0.355023
v 0.036126 2.537102 0.481058
v 0.064031 2.537511 0.473626
v -0.050822 2.731599 0.355023
v 0.064031 2.537511 0.473626
v 0.165702 2.734777 0.297353
v -0.050822 2.731599 0.355023
v 0.064031 2.537511 0.473626
v 0.036126 2.537102 0.481058
v -0.050822 2.731599 0.355023
v 0.165702 2.734777 0.297353
v 0.064031 2.537511 0.473626
v -0.149492 2.996686 -0.236592
v -0.326720 3.018068 -0.249287
v -0.227397 3.016246 -0.032299
v -0.149492 2.996686 -0.236592
v -0.227397 3.016246 -0.032299
v -0.136692 2.996451 -0.208628
v -0.149492 2.996686 -0.236592
v -0.227397 3.016246 -0.032299
v -0.326720 3.018068 -0.249287
v -0.149492 2.996686 -0.236592
v -0.136692 2.996451 -0.208628
v -0.227397 3.016246 -0.032299
v -0.326720 3.018068 -0.249287
v -0.489943 3.001546 -0.232807
v -0.337147 2.998743 0.101004
v -0.326720 3.018068 -0.249287
v -0.337147 2.998743 0.101004
v -0.227397 3.016246 -0.032299
v -0.326720 3.018068 -0.249287
v -0.337147 2.998743 0.101004
v -0.489943 3.001546 -0.232807
v -0.326720 3.018068 -0.249287
v -0.227397 3.016246 -0.032299
v -0.337147 2.998743 0.101004
v -0.489943 3.001546 -0.232807
v -0.630673 2.938644 -0.168918
v -0.477877 2.935841 0.164892
v -0.489943 3.001546 -0.232807
v -0.477877 2.935841 0.164892
v -0.337147 2.998743 0.101004
v -0.489943 3.001546 -0.232807
v -0.477877 2.935841 0.164892
v -0.630673 2.938644 -0.168918
v -0.489943 3.001546 -0.232807
v -0.337147 2.998743 0.101004
v -0.477877 2.935841 0.164892
v -0.630673 2.938644 -0.168918
v -0.748909 2.829361 -0.057622
v -0.649586 2.827538 0.159366
v -0.630673 2.938644 -0.168918
v -0.649586 2.827538 0.159366
v -0.477877 2.935841 0.164892
v -0.630673 2.938644 -0.168918
v -0.649586 2.827538 0.159366
v -0.748909 2.829361 -0.057622
v -0.630673 2.938644 -0.168918
v -0.477877 2.935841 0.164892
v -0.649586 2.827538 0.159366
v -0.748909 2.829361 -0.057622
v -0.853141 2.682174 0.082850
v -0.840341 2.681939 0.110814
v -0.748909 2.829361 -0.057622
v -0.840341 2.681939 0.110814
v -0.649586 2.827538 0.159366
v -0.748909 2.829361 -0.057622
v -0.840341 2.681939 0.110814
v -0.853141 2.682174 0.082850
v -0.748909 2.829361 -0.057622
v -0.649586 2.827538 0.159366
v -0.840341 2.681939 0.110814
v -0.133046 3.008493 -0.229384
v -0.147564 3.032374 -0.418885
v -0.305491 3.029173 -0.311305
v -0.133046 3.008493 -0.229384
v -0.305491 3.029173 -0.311305
v -0.153398 3.008080 -0.215520
v -0.133046 3.008493 -0.229384
v -0.305491 3.029173 -0.311305
v -0.147564 3.032374 -0.418885
v -0.133046 3.008493 -0.229384
v -0.153398 3.008080 -0.215520
v -0.305491 3.029173 -0.311305
v -0.147564 3.032374 -0.418885
v -0.191636 3.014617 -0.588496
v -0.434588 3.009693 -0.422997
v -0.147564 3.032374 -0.418885
v -0.434588 3.009693 -0.422997
v -0.305491 3.029173 -0.311305
v -0.147564 3.032374 -0.418885
v -0.434588 3.009693 -0.422997
v -0.191636 3.014617 -0.588496
v -0.147564 3.032374 -0.418885
v -0.305491 3.029173 -0.311305
v -0.434588 3.009693 -0.422997
v -0.191636 3.014617 -0.588496
v -0.283716 2.946524 -0.725696
v -0.526669 2.941600 -0.560197
v -0.191636 3.014617 -0.588496
v -0.526669 2.941600 -0.560197
v -0.434588 3.009693 -0.422997
v -0.191636 3.014617 -0.588496
v -0.526669 2.941600 -0.560197
v -0.283716 2.946524 -0.725696
v -0.191636 3.014617 -0.588496
v -0.434588 3.009693 -0.422997
v -0.526669 2.941600 -0.560197
v -0.283716 2.946524 -0.725696
v -0.423805 2.828094 -0.830485
v -0.581732 2.824893 -0.722905
v -0.283716 2.946524 -0.725696
v -0.581732 2.824893 -0.722905
v -0.526669 2.941600 -0.560197
v -0.283716 2.946524 -0.725696
v -0.581732 2.824893 -0.722905
v -0.423805 2.828094 -0.830485
v -0.283716 2.946524 -0.725696
v -0.526669 2.941600 -0.560197
v -0.581732 2.824893 -0.722905
v -0.423805 2.828094 -0.830485
v -0.593447 2.668027 -0.915384
v -0.613800 2.667615 -0.901520
v -0.423805 2.828094 -0.830485
v -0.613800 2.667615 -0.901520
v -0.581732 2.824893 -0.722905
v -0.423805 2.828094 -0.830485
v -0.613800 2.667615 -0.901520
v -0.593447 2.668027 -0.915384
v -0.423805 2.828094 -0.830485
v -0.581732 2.824893 -0.722905
v -0.613800 2.667615 -0.901520
v -0.132151 3.020034 -0.215211
v 0.050708 3.042439 -0.258002
v -0.123112 3.041992 -0.367931
v -0.132151 3.020034 -0.215211
v -0.123112 3.041992 -0.367931
v -0.154552 3.019976 -0.229378
v -0.132151 3.020034 -0.215211
v -0.123112 3.041992 -0.367931
v 0.050708 3.042439 -0.258002
v -0.132151 3.020034 -0.215211
v -0.154552 3.019976 -0.229378
v -0.123112 3.041992 -0.367931
v 0.050708 3.042439 -0.258002
v 0.191537 3.020331 -0.328284
v -0.075865 3.019644 -0.497397
v 0.050708 3.042439 -0.258002
v -0.075865 3.019644 -0.497397
v -0.123112 3.041992 -0.367931
v 0.050708 3.042439 -0.258002
v -0.075865 3.019644 -0.497397
v 0.191537 3.020331 -0.328284
v 0.050708 3.042439 -0.258002
v -0.123112 3.041992 -0.367931
v -0.075865 3.019644 -0.497397
v 0.191537 3.020331 -0.328284
v 0.264147 2.945319 -0.442791
v -0.003255 2.944632 -0.611903
v 0.191537 3.020331 -0.328284
v -0.003255 2.944632 -0.611903
v -0.075865 3.019644 -0.497397
v 0.191537 3.020331 -0.328284
v -0.003255 2.944632 -0.611903
v 0.264147 2.945319 -0.442791
v 0.191537 3.020331 -0.328284
v -0.075865 3.019644 -0.497397
v -0.003255 2.944632 -0.611903
v 0.264147 2.945319 -0.442791
v 0.268537 2.817402 -0.601521
v 0.094717 2.816956 -0.711450
v 0.264147 2.945319 -0.442791
v 0.094717 2.816956 -0.711450
v -0.003255 2.944632 -0.611903
v 0.264147 2.945319 -0.442791
v 0.094717 2.816956 -0.711450
v 0.268537 2.817402 -0.601521
v 0.264147 2.945319 -0.442791
v -0.003255 2.944632 -0.611903
v 0.094717 2.816956 -0.711450
v 0.268537 2.817402 -0.601521
v 0.230897 2.644974 -0.787742
v 0.208496 2.644916 -0.801909
v 0.268537 2.817402 -0.601521
v 0.208496 2.644916 -0.801909
v 0.094717 2.816956 -0.711450
v 0.268537 2.817402 -0.601521
v 0.208496 2.644916 -0.801909
v 0.230897 2.644974 -0.787742
v 0.268537 2.817402 -0.601521
v 0.094717 2.816956 -0.711450
v 0.208496 2.644916 -0.801909
f 589 590 591
f 592 593 594
f 595 596 597
f 598 599 600
f 601 602 603
f 604 605 606
f 607 608 609
f 610 611 612
f 613 614 615
f 616 617 618
f 619 620 621
f 622 623 624
f 625 626 627
f 628 629 630
f 631 632 633
f 634 635 636
f 637 638 639
f 640 641 642
f 643 644 645
f 646 647 648
f 649 650 651
f 652 653 654
f 655 656 657
f 658 659 660
f 661 662 663
f 664 665 666
f 667 668 669
f 670 671 672
f 673 674 675
f 676 677 678
f 679 680 681
f 682 683 684
f 685 686 687
f 688 689 690
f 691 692 693
f 694 695 696
f 697 698 699
f 700 701 702
f 703 704 705
f 706 707 708
f 709 710 711
f 712 713 714
f 715 716 717
f 718 719 720
f 721 722 723
f 724 725 726
f 727 728 729
f 730 731 732
f 733 734 735
f 736 737 738
f 739 740 741
f 742 743 744
f 745 746 747
f 748 749 750
f 751 752 753
f 754 755 756
f 757 758 759
f 760 761 762
f 763 764 765
f 766 767 768
f 769 770 771
f 772 773 774
f 775 776 777
f 778 779 780
f 781 782 783
f 784 785 786
f 787 788 789
f 790 791 792
f 793 794 795
f 796 797 798
f 799 800 801
f 802 803 804
f 805 806 807
f 808 809 810
f 811 812 813
f 814 815 816
f 817 818 819
f 820 821 822
f 823 824 825
f 826 827 828
f 829 830 831
f 832 833 834
f 835 836 837
f 838 839 840
f 841 842 843
f 844 845 846
f 847 848 849
f 850 851 852
f 853 854 855
f 856 857 858
f 859 860 861
f 862 863 864
f 865 866 867
f 868 869 870
f 871 872 873
f 874 875 876
f 877 878 879
f 880 881 882
f 883 884 885
f 886 887 888
