# Pyramida editable prop source
# units: 1 OBJ unit = 1 Pyramida World Unit = 1 Blender metre

o PalmTrunk
v 0.043071 0.075684 0.105317
v 0.303392 0.012997 0.033224
v 0.309712 0.035998 0.009079
v 0.043071 0.075684 0.105317
v 0.309712 0.035998 0.009079
v 0.070720 0.176314 -0.000320
v 0.046321 0.074190 0.000378
v 0.043071 0.075684 0.105317
v 0.070720 0.176314 -0.000320
v 0.304135 0.012656 0.009238
v 0.309712 0.035998 0.009079
v 0.303392 0.012997 0.033224
v 0.070720 0.176314 -0.000320
v 0.309712 0.035998 0.009079
v 0.304878 0.012314 -0.014748
v 0.070720 0.176314 -0.000320
v 0.304878 0.012314 -0.014748
v 0.049571 0.072697 -0.104561
v 0.046321 0.074190 0.000378
v 0.070720 0.176314 -0.000320
v 0.049571 0.072697 -0.104561
v 0.304135 0.012656 0.009238
v 0.304878 0.012314 -0.014748
v 0.309712 0.035998 0.009079
v 0.049571 0.072697 -0.104561
v 0.304878 0.012314 -0.014748
v 0.298558 -0.010687 0.009398
v 0.049571 0.072697 -0.104561
v 0.298558 -0.010687 0.009398
v 0.021922 -0.027933 0.001077
v 0.046321 0.074190 0.000378
v 0.049571 0.072697 -0.104561
v 0.021922 -0.027933 0.001077
v 0.304135 0.012656 0.009238
v 0.298558 -0.010687 0.009398
v 0.304878 0.012314 -0.014748
v 0.021922 -0.027933 0.001077
v 0.298558 -0.010687 0.009398
v 0.303392 0.012997 0.033224
v 0.021922 -0.027933 0.001077
v 0.303392 0.012997 0.033224
v 0.043071 0.075684 0.105317
v 0.046321 0.074190 0.000378
v 0.021922 -0.027933 0.001077
v 0.043071 0.075684 0.105317
v 0.304135 0.012656 0.009238
v 0.303392 0.012997 0.033224
v 0.298558 -0.010687 0.009398
v -0.109501 0.076600 -0.028585
v -0.220744 0.025423 0.251796
v -0.203992 0.048920 0.269665
v -0.109501 0.076600 -0.028585
v -0.203992 0.048920 0.269665
v -0.036212 0.179398 0.049590
v -0.025819 0.075960 0.034834
v -0.109501 0.076600 -0.028585
v -0.036212 0.179398 0.049590
v -0.201617 0.025277 0.266292
v -0.203992 0.048920 0.269665
v -0.220744 0.025423 0.251796
v -0.036212 0.179398 0.049590
v -0.203992 0.048920 0.269665
v -0.182490 0.025131 0.280787
v -0.036212 0.179398 0.049590
v -0.182490 0.025131 0.280787
v 0.057863 0.075321 0.098252
v -0.025819 0.075960 0.034834
v -0.036212 0.179398 0.049590
v 0.057863 0.075321 0.098252
v -0.201617 0.025277 0.266292
v -0.182490 0.025131 0.280787
v -0.203992 0.048920 0.269665
v 0.057863 0.075321 0.098252
v -0.182490 0.025131 0.280787
v -0.199241 0.001634 0.262919
v 0.057863 0.075321 0.098252
v -0.199241 0.001634 0.262919
v -0.015426 -0.027477 0.020078
v -0.025819 0.075960 0.034834
v 0.057863 0.075321 0.098252
v -0.015426 -0.027477 0.020078
v -0.201617 0.025277 0.266292
v -0.199241 0.001634 0.262919
v -0.182490 0.025131 0.280787
v -0.015426 -0.027477 0.020078
v -0.199241 0.001634 0.262919
v -0.220744 0.025423 0.251796
v -0.015426 -0.027477 0.020078
v -0.220744 0.025423 0.251796
v -0.109501 0.076600 -0.028585
v -0.025819 0.075960 0.034834
v -0.015426 -0.027477 0.020078
v -0.109501 0.076600 -0.028585
v -0.201617 0.025277 0.266292
v -0.220744 0.025423 0.251796
v -0.199241 0.001634 0.262919
v 0.052133 0.072667 -0.103328
v -0.133654 0.017747 -0.194723
v -0.155984 0.041279 -0.184742
v 0.052133 0.072667 -0.103328
v -0.155984 0.041279 -0.184742
v -0.045561 0.175618 -0.059658
v -0.027812 0.075037 -0.035297
v 0.052133 0.072667 -0.103328
v -0.045561 0.175618 -0.059658
v -0.151927 0.018289 -0.179173
v -0.155984 0.041279 -0.184742
v -0.133654 0.017747 -0.194723
v -0.045561 0.175618 -0.059658
v -0.155984 0.041279 -0.184742
v -0.170200 0.018831 -0.163624
v -0.045561 0.175618 -0.059658
v -0.170200 0.018831 -0.163624
v -0.107758 0.077407 0.032733
v -0.027812 0.075037 -0.035297
v -0.045561 0.175618 -0.059658
v -0.107758 0.077407 0.032733
v -0.151927 0.018289 -0.179173
v -0.170200 0.018831 -0.163624
v -0.155984 0.041279 -0.184742
v -0.107758 0.077407 0.032733
v -0.170200 0.018831 -0.163624
v -0.147870 -0.004701 -0.173605
v -0.107758 0.077407 0.032733
v -0.147870 -0.004701 -0.173605
v -0.010064 -0.025544 -0.010937
v -0.027812 0.075037 -0.035297
v -0.107758 0.077407 0.032733
v -0.010064 -0.025544 -0.010937
v -0.151927 0.018289 -0.179173
v -0.147870 -0.004701 -0.173605
v -0.170200 0.018831 -0.163624
v -0.010064 -0.025544 -0.010937
v -0.147870 -0.004701 -0.173605
v -0.133654 0.017747 -0.194723
v -0.010064 -0.025544 -0.010937
v -0.133654 0.017747 -0.194723
v 0.052133 0.072667 -0.103328
v -0.027812 0.075037 -0.035297
v -0.010064 -0.025544 -0.010937
v 0.052133 0.072667 -0.103328
v -0.151927 0.018289 -0.179173
v -0.133654 0.017747 -0.194723
v -0.147870 -0.004701 -0.173605
v 0.000178 0.007841 -0.149795
v 0.041233 1.006767 -0.072422
v 0.149321 0.999063 -0.010111
v 0.000178 0.007841 -0.149795
v 0.149321 0.999063 -0.010111
v 0.129884 -0.001404 -0.075022
v 0.000000 0.000000 0.000000
v 0.000178 0.007841 -0.149795
v 0.129884 -0.001404 -0.075022
v 0.041085 1.000233 0.052407
v 0.149321 0.999063 -0.010111
v 0.041233 1.006767 -0.072422
v 0.129884 -0.001404 -0.075022
v 0.149321 0.999063 -0.010111
v 0.149173 0.992528 0.114718
v 0.129884 -0.001404 -0.075022
v 0.149173 0.992528 0.114718
v 0.129706 -0.009245 0.074773
v 0.000000 0.000000 0.000000
v 0.129884 -0.001404 -0.075022
v 0.129706 -0.009245 0.074773
v 0.041085 1.000233 0.052407
v 0.149173 0.992528 0.114718
v 0.149321 0.999063 -0.010111
v 0.129706 -0.009245 0.074773
v 0.149173 0.992528 0.114718
v 0.040936 0.993698 0.177236
v 0.129706 -0.009245 0.074773
v 0.040936 0.993698 0.177236
v -0.000178 -0.007841 0.149795
v 0.000000 0.000000 0.000000
v 0.129706 -0.009245 0.074773
v -0.000178 -0.007841 0.149795
v 0.041085 1.000233 0.052407
v 0.040936 0.993698 0.177236
v 0.149173 0.992528 0.114718
v -0.000178 -0.007841 0.149795
v 0.040936 0.993698 0.177236
v -0.067152 1.001403 0.114925
v -0.000178 -0.007841 0.149795
v -0.067152 1.001403 0.114925
v -0.129884 0.001404 0.075022
v 0.000000 0.000000 0.000000
v -0.000178 -0.007841 0.149795
v -0.129884 0.001404 0.075022
v 0.041085 1.000233 0.052407
v -0.067152 1.001403 0.114925
v 0.040936 0.993698 0.177236
v -0.129884 0.001404 0.075022
v -0.067152 1.001403 0.114925
v -0.067003 1.007937 -0.009904
v -0.129884 0.001404 0.075022
v -0.067003 1.007937 -0.009904
v -0.129706 0.009245 -0.074773
v 0.000000 0.000000 0.000000
v -0.129884 0.001404 0.075022
v -0.129706 0.009245 -0.074773
v 0.041085 1.000233 0.052407
v -0.067003 1.007937 -0.009904
v -0.067152 1.001403 0.114925
v -0.129706 0.009245 -0.074773
v -0.067003 1.007937 -0.009904
v 0.041233 1.006767 -0.072422
v -0.129706 0.009245 -0.074773
v 0.041233 1.006767 -0.072422
v 0.000178 0.007841 -0.149795
v 0.000000 0.000000 0.000000
v -0.129706 0.009245 -0.074773
v 0.000178 0.007841 -0.149795
v 0.041085 1.000233 0.052407
v 0.041233 1.006767 -0.072422
v -0.067003 1.007937 -0.009904
f 1 2 3
f 4 5 6
f 7 8 9
f 10 11 12
f 13 14 15
f 16 17 18
f 19 20 21
f 22 23 24
f 25 26 27
f 28 29 30
f 31 32 33
f 34 35 36
f 37 38 39
f 40 41 42
f 43 44 45
f 46 47 48
f 49 50 51
f 52 53 54
f 55 56 57
f 58 59 60
f 61 62 63
f 64 65 66
f 67 68 69
f 70 71 72
f 73 74 75
f 76 77 78
f 79 80 81
f 82 83 84
f 85 86 87
f 88 89 90
f 91 92 93
f 94 95 96
f 97 98 99
f 100 101 102
f 103 104 105
f 106 107 108
f 109 110 111
f 112 113 114
f 115 116 117
f 118 119 120
f 121 122 123
f 124 125 126
f 127 128 129
f 130 131 132
f 133 134 135
f 136 137 138
f 139 140 141
f 142 143 144
f 145 146 147
f 148 149 150
f 151 152 153
f 154 155 156
f 157 158 159
f 160 161 162
f 163 164 165
f 166 167 168
f 169 170 171
f 172 173 174
f 175 176 177
f 178 179 180
f 181 182 183
f 184 185 186
f 187 188 189
f 190 191 192
f 193 194 195
f 196 197 198
f 199 200 201
f 202 203 204
f 205 206 207
f 208 209 210
f 211 212 213
f 214 215 216

o PalmLightLeaves
v 0.043827 1.093257 0.068116
v 0.213332 1.118379 0.143545
v 0.196701 1.115074 -0.119938
v 0.043827 1.093257 0.068116
v 0.196701 1.115074 -0.119938
v 0.041684 1.092831 0.034159
v 0.043827 1.093257 0.068116
v 0.196701 1.115074 -0.119938
v 0.213332 1.118379 0.143545
v 0.043827 1.093257 0.068116
v 0.041684 1.092831 0.034159
v 0.196701 1.115074 -0.119938
v 0.213332 1.118379 0.143545
v 0.380226 1.113362 0.186499
v 0.354641 1.108278 -0.218841
v 0.213332 1.118379 0.143545
v 0.354641 1.108278 -0.218841
v 0.196701 1.115074 -0.119938
v 0.213332 1.118379 0.143545
v 0.354641 1.108278 -0.218841
v 0.380226 1.113362 0.186499
v 0.213332 1.118379 0.143545
v 0.196701 1.115074 -0.119938
v 0.354641 1.108278 -0.218841
v 0.380226 1.113362 0.186499
v 0.543077 1.069626 0.176769
v 0.517492 1.064543 -0.228571
v 0.380226 1.113362 0.186499
v 0.517492 1.064543 -0.228571
v 0.354641 1.108278 -0.218841
v 0.380226 1.113362 0.186499
v 0.517492 1.064543 -0.228571
v 0.543077 1.069626 0.176769
v 0.380226 1.113362 0.186499
v 0.354641 1.108278 -0.218841
v 0.517492 1.064543 -0.228571
v 0.543077 1.069626 0.176769
v 0.701885 0.987173 0.114353
v 0.685254 0.983868 -0.149131
v 0.543077 1.069626 0.176769
v 0.685254 0.983868 -0.149131
v 0.517492 1.064543 -0.228571
v 0.543077 1.069626 0.176769
v 0.685254 0.983868 -0.149131
v 0.701885 0.987173 0.114353
v 0.543077 1.069626 0.176769
v 0.517492 1.064543 -0.228571
v 0.685254 0.983868 -0.149131
v 0.701885 0.987173 0.114353
v 0.858081 0.874580 0.019462
v 0.855938 0.874154 -0.014494
v 0.701885 0.987173 0.114353
v 0.855938 0.874154 -0.014494
v 0.685254 0.983868 -0.149131
v 0.701885 0.987173 0.114353
v 0.855938 0.874154 -0.014494
v 0.858081 0.874580 0.019462
v 0.701885 0.987173 0.114353
v 0.685254 0.983868 -0.149131
v 0.855938 0.874154 -0.014494
v 0.029678 1.109743 0.054874
v -0.007509 1.138754 0.245439
v 0.200030 1.134177 0.183977
v 0.029678 1.109743 0.054874
v 0.200030 1.134177 0.183977
v 0.056424 1.109153 0.046953
v 0.029678 1.109743 0.054874
v 0.200030 1.134177 0.183977
v -0.007509 1.138754 0.245439
v 0.029678 1.109743 0.054874
v 0.056424 1.109153 0.046953
v 0.200030 1.134177 0.183977
v -0.007509 1.138754 0.245439
v -0.012194 1.134496 0.426652
v 0.307080 1.127455 0.332098
v -0.007509 1.138754 0.245439
v 0.307080 1.127455 0.332098
v 0.200030 1.134177 0.183977
v -0.007509 1.138754 0.245439
v 0.307080 1.127455 0.332098
v -0.012194 1.134496 0.426652
v -0.007509 1.138754 0.245439
v 0.200030 1.134177 0.183977
v 0.307080 1.127455 0.332098
v -0.012194 1.134496 0.426652
v 0.035921 1.088196 0.592568
v 0.355196 1.081154 0.498014
v -0.012194 1.134496 0.426652
v 0.355196 1.081154 0.498014
v 0.307080 1.127455 0.332098
v -0.012194 1.134496 0.426652
v 0.355196 1.081154 0.498014
v 0.035921 1.088196 0.592568
v -0.012194 1.134496 0.426652
v 0.307080 1.127455 0.332098
v 0.355196 1.081154 0.498014
v 0.035921 1.088196 0.592568
v 0.136836 0.999851 0.743188
v 0.344375 0.995274 0.681725
v 0.035921 1.088196 0.592568
v 0.344375 0.995274 0.681725
v 0.355196 1.081154 0.498014
v 0.035921 1.088196 0.592568
v 0.344375 0.995274 0.681725
v 0.136836 0.999851 0.743188
v 0.035921 1.088196 0.592568
v 0.355196 1.081154 0.498014
v 0.344375 0.995274 0.681725
v 0.136836 0.999851 0.743188
v 0.270253 0.878238 0.884455
v 0.297000 0.877648 0.876534
v 0.136836 0.999851 0.743188
v 0.297000 0.877648 0.876534
v 0.344375 0.995274 0.681725
v 0.136836 0.999851 0.743188
v 0.297000 0.877648 0.876534
v 0.270253 0.878238 0.884455
v 0.136836 0.999851 0.743188
v 0.344375 0.995274 0.681725
v 0.297000 0.877648 0.876534
v 0.034778 1.055817 0.038676
v -0.150561 1.083001 0.003552
v -0.037139 1.083713 0.204842
v 0.034778 1.055817 0.038676
v -0.037139 1.083713 0.204842
v 0.049395 1.055908 0.064617
v 0.034778 1.055817 0.038676
v -0.037139 1.083713 0.204842
v -0.150561 1.083001 0.003552
v 0.034778 1.055817 0.038676
v 0.049395 1.055908 0.064617
v -0.037139 1.083713 0.204842
v -0.150561 1.083001 0.003552
v -0.313754 1.074978 0.009343
v -0.139267 1.076072 0.319006
v -0.150561 1.083001 0.003552
v -0.139267 1.076072 0.319006
v -0.037139 1.083713 0.204842
v -0.150561 1.083001 0.003552
v -0.139267 1.076072 0.319006
v -0.313754 1.074978 0.009343
v -0.150561 1.083001 0.003552
v -0.037139 1.083713 0.204842
v -0.139267 1.076072 0.319006
v -0.313754 1.074978 0.009343
v -0.440871 1.023511 0.081152
v -0.266384 1.024605 0.390815
v -0.313754 1.074978 0.009343
v -0.266384 1.024605 0.390815
v -0.139267 1.076072 0.319006
v -0.313754 1.074978 0.009343
v -0.266384 1.024605 0.390815
v -0.440871 1.023511 0.081152
v -0.313754 1.074978 0.009343
v -0.139267 1.076072 0.319006
v -0.266384 1.024605 0.390815
v -0.440871 1.023511 0.081152
v -0.531912 0.928600 0.218978
v -0.418490 0.929311 0.420269
v -0.440871 1.023511 0.081152
v -0.418490 0.929311 0.420269
v -0.266384 1.024605 0.390815
v -0.440871 1.023511 0.081152
v -0.418490 0.929311 0.420269
v -0.531912 0.928600 0.218978
v -0.440871 1.023511 0.081152
v -0.266384 1.024605 0.390815
v -0.418490 0.929311 0.420269
v -0.531912 0.928600 0.218978
v -0.600807 0.798480 0.397719
v -0.586190 0.798572 0.423660
v -0.531912 0.928600 0.218978
v -0.586190 0.798572 0.423660
v -0.418490 0.929311 0.420269
v -0.531912 0.928600 0.218978
v -0.586190 0.798572 0.423660
v -0.600807 0.798480 0.397719
v -0.531912 0.928600 0.218978
v -0.418490 0.929311 0.420269
v -0.586190 0.798572 0.423660
v 0.049299 1.071947 0.037192
v -0.021374 1.093343 -0.167394
v -0.128726 1.098296 0.053444
v 0.049299 1.071947 0.037192
v -0.128726 1.098296 0.053444
v 0.035464 1.072586 0.065652
v 0.049299 1.071947 0.037192
v -0.128726 1.098296 0.053444
v -0.021374 1.093343 -0.167394
v 0.049299 1.071947 0.037192
v 0.035464 1.072586 0.065652
v -0.128726 1.098296 0.053444
v -0.021374 1.093343 -0.167394
v -0.118218 1.077751 -0.319033
v -0.283367 1.085371 0.020701
v -0.021374 1.093343 -0.167394
v -0.283367 1.085371 0.020701
v -0.128726 1.098296 0.053444
v -0.021374 1.093343 -0.167394
v -0.283367 1.085371 0.020701
v -0.118218 1.077751 -0.319033
v -0.021374 1.093343 -0.167394
v -0.128726 1.098296 0.053444
v -0.283367 1.085371 0.020701
v -0.118218 1.077751 -0.319033
v -0.257134 1.017575 -0.385212
v -0.422282 1.025195 -0.045477
v -0.118218 1.077751 -0.319033
v -0.422282 1.025195 -0.045477
v -0.283367 1.085371 0.020701
v -0.118218 1.077751 -0.319033
v -0.422282 1.025195 -0.045477
v -0.257134 1.017575 -0.385212
v -0.118218 1.077751 -0.319033
v -0.283367 1.085371 0.020701
v -0.422282 1.025195 -0.045477
v -0.257134 1.017575 -0.385212
v -0.438120 0.912815 -0.365930
v -0.545472 0.917768 -0.145091
v -0.257134 1.017575 -0.385212
v -0.545472 0.917768 -0.145091
v -0.422282 1.025195 -0.045477
v -0.257134 1.017575 -0.385212
v -0.545472 0.917768 -0.145091
v -0.438120 0.912815 -0.365930
v -0.257134 1.017575 -0.385212
v -0.422282 1.025195 -0.045477
v -0.545472 0.917768 -0.145091
v -0.438120 0.912815 -0.365930
v -0.645278 0.771067 -0.293701
v -0.659113 0.771705 -0.265241
v -0.438120 0.912815 -0.365930
v -0.659113 0.771705 -0.265241
v -0.545472 0.917768 -0.145091
v -0.438120 0.912815 -0.365930
v -0.659113 0.771705 -0.265241
v -0.645278 0.771067 -0.293701
v -0.438120 0.912815 -0.365930
v -0.545472 0.917768 -0.145091
v -0.659113 0.771705 -0.265241
v 0.059006 1.088428 0.054980
v 0.171778 1.105995 -0.085223
v -0.081635 1.109754 -0.143921
v 0.059006 1.088428 0.054980
v -0.081635 1.109754 -0.143921
v 0.026348 1.088912 0.047415
v 0.059006 1.088428 0.054980
v -0.081635 1.109754 -0.143921
v 0.171778 1.105995 -0.085223
v 0.059006 1.088428 0.054980
v 0.026348 1.088912 0.047415
v -0.081635 1.109754 -0.143921
v 0.171778 1.105995 -0.085223
v 0.254803 1.083017 -0.231585
v -0.135043 1.088800 -0.321885
v 0.171778 1.105995 -0.085223
v -0.135043 1.088800 -0.321885
v -0.081635 1.109754 -0.143921
v 0.171778 1.105995 -0.085223
v -0.135043 1.088800 -0.321885
v 0.254803 1.083017 -0.231585
v 0.171778 1.105995 -0.085223
v -0.081635 1.109754 -0.143921
v -0.135043 1.088800 -0.321885
v 0.254803 1.083017 -0.231585
v 0.290005 1.011436 -0.388144
v -0.099841 1.017219 -0.478444
v 0.254803 1.083017 -0.231585
v -0.099841 1.017219 -0.478444
v -0.135043 1.088800 -0.321885
v 0.254803 1.083017 -0.231585
v -0.099841 1.017219 -0.478444
v 0.290005 1.011436 -0.388144
v 0.254803 1.083017 -0.231585
v -0.135043 1.088800 -0.321885
v -0.099841 1.017219 -0.478444
v 0.290005 1.011436 -0.388144
v 0.277383 0.891253 -0.554901
v 0.023971 0.895012 -0.613599
v 0.290005 1.011436 -0.388144
v 0.023971 0.895012 -0.613599
v -0.099841 1.017219 -0.478444
v 0.290005 1.011436 -0.388144
v 0.023971 0.895012 -0.613599
v 0.277383 0.891253 -0.554901
v 0.290005 1.011436 -0.388144
v -0.099841 1.017219 -0.478444
v 0.023971 0.895012 -0.613599
v 0.277383 0.891253 -0.554901
v 0.235016 0.730524 -0.727816
v 0.202357 0.731008 -0.735381
v 0.277383 0.891253 -0.554901
v 0.202357 0.731008 -0.735381
v 0.023971 0.895012 -0.613599
v 0.277383 0.891253 -0.554901
v 0.202357 0.731008 -0.735381
v 0.235016 0.730524 -0.727816
v 0.277383 0.891253 -0.554901
v 0.023971 0.895012 -0.613599
v 0.202357 0.731008 -0.735381
f 217 218 219
f 220 221 222
f 223 224 225
f 226 227 228
f 229 230 231
f 232 233 234
f 235 236 237
f 238 239 240
f 241 242 243
f 244 245 246
f 247 248 249
f 250 251 252
f 253 254 255
f 256 257 258
f 259 260 261
f 262 263 264
f 265 266 267
f 268 269 270
f 271 272 273
f 274 275 276
f 277 278 279
f 280 281 282
f 283 284 285
f 286 287 288
f 289 290 291
f 292 293 294
f 295 296 297
f 298 299 300
f 301 302 303
f 304 305 306
f 307 308 309
f 310 311 312
f 313 314 315
f 316 317 318
f 319 320 321
f 322 323 324
f 325 326 327
f 328 329 330
f 331 332 333
f 334 335 336
f 337 338 339
f 340 341 342
f 343 344 345
f 346 347 348
f 349 350 351
f 352 353 354
f 355 356 357
f 358 359 360
f 361 362 363
f 364 365 366
f 367 368 369
f 370 371 372
f 373 374 375
f 376 377 378
f 379 380 381
f 382 383 384
f 385 386 387
f 388 389 390
f 391 392 393
f 394 395 396
f 397 398 399
f 400 401 402
f 403 404 405
f 406 407 408
f 409 410 411
f 412 413 414
f 415 416 417
f 418 419 420
f 421 422 423
f 424 425 426
f 427 428 429
f 430 431 432
f 433 434 435
f 436 437 438
f 439 440 441
f 442 443 444
f 445 446 447
f 448 449 450
f 451 452 453
f 454 455 456
f 457 458 459
f 460 461 462
f 463 464 465
f 466 467 468
f 469 470 471
f 472 473 474
f 475 476 477
f 478 479 480
f 481 482 483
f 484 485 486
f 487 488 489
f 490 491 492
f 493 494 495
f 496 497 498
f 499 500 501
f 502 503 504
f 505 506 507
f 508 509 510
f 511 512 513
f 514 515 516

o PalmDarkLeaves
v 0.037569 0.997243 0.067601
v 0.170742 1.019429 0.191813
v 0.224385 1.015248 -0.043287
v 0.037569 0.997243 0.067601
v 0.224385 1.015248 -0.043287
v 0.044483 0.996704 0.037302
v 0.037569 0.997243 0.067601
v 0.224385 1.015248 -0.043287
v 0.170742 1.019429 0.191813
v 0.037569 0.997243 0.067601
v 0.044483 0.996704 0.037302
v 0.224385 1.015248 -0.043287
v 0.170742 1.019429 0.191813
v 0.311029 1.002770 0.282350
v 0.393553 0.996337 -0.079325
v 0.170742 1.019429 0.191813
v 0.393553 0.996337 -0.079325
v 0.224385 1.015248 -0.043287
v 0.170742 1.019429 0.191813
v 0.393553 0.996337 -0.079325
v 0.311029 1.002770 0.282350
v 0.170742 1.019429 0.191813
v 0.224385 1.015248 -0.043287
v 0.393553 0.996337 -0.079325
v 0.311029 1.002770 0.282350
v 0.463104 0.938566 0.318191
v 0.545628 0.932134 -0.043484
v 0.311029 1.002770 0.282350
v 0.545628 0.932134 -0.043484
v 0.393553 0.996337 -0.079325
v 0.311029 1.002770 0.282350
v 0.545628 0.932134 -0.043484
v 0.463104 0.938566 0.318191
v 0.311029 1.002770 0.282350
v 0.393553 0.996337 -0.079325
v 0.545628 0.932134 -0.043484
v 0.463104 0.938566 0.318191
v 0.626966 0.826818 0.299336
v 0.680609 0.822636 0.064236
v 0.463104 0.938566 0.318191
v 0.680609 0.822636 0.064236
v 0.545628 0.932134 -0.043484
v 0.463104 0.938566 0.318191
v 0.680609 0.822636 0.064236
v 0.626966 0.826818 0.299336
v 0.463104 0.938566 0.318191
v 0.545628 0.932134 -0.043484
v 0.680609 0.822636 0.064236
v 0.626966 0.826818 0.299336
v 0.797942 0.676224 0.246806
v 0.804855 0.675685 0.216508
v 0.626966 0.826818 0.299336
v 0.804855 0.675685 0.216508
v 0.680609 0.822636 0.064236
v 0.626966 0.826818 0.299336
v 0.804855 0.675685 0.216508
v 0.797942 0.676224 0.246806
v 0.626966 0.826818 0.299336
v 0.680609 0.822636 0.064236
v 0.804855 0.675685 0.216508
v 0.028780 1.008905 0.051596
v -0.079137 1.033691 0.171969
v 0.114180 1.030359 0.182758
v 0.028780 1.008905 0.051596
v 0.114180 1.030359 0.182758
v 0.053694 1.008476 0.052987
v 0.028780 1.008905 0.051596
v 0.114180 1.030359 0.182758
v -0.079137 1.033691 0.171969
v 0.028780 1.008905 0.051596
v 0.053694 1.008476 0.052987
v 0.114180 1.030359 0.182758
v -0.079137 1.033691 0.171969
v -0.149117 1.016199 0.295071
v 0.148279 1.011072 0.311669
v -0.079137 1.033691 0.171969
v 0.148279 1.011072 0.311669
v 0.114180 1.030359 0.182758
v -0.079137 1.033691 0.171969
v 0.148279 1.011072 0.311669
v -0.149117 1.016199 0.295071
v -0.079137 1.033691 0.171969
v 0.114180 1.030359 0.182758
v 0.148279 1.011072 0.311669
v -0.149117 1.016199 0.295071
v -0.157402 0.947692 0.422349
v 0.139995 0.942565 0.438947
v -0.149117 1.016199 0.295071
v 0.139995 0.942565 0.438947
v 0.148279 1.011072 0.311669
v -0.149117 1.016199 0.295071
v 0.139995 0.942565 0.438947
v -0.157402 0.947692 0.422349
v -0.149117 1.016199 0.295071
v 0.148279 1.011072 0.311669
v 0.139995 0.942565 0.438947
v -0.157402 0.947692 0.422349
v -0.103990 0.828171 0.553804
v 0.089327 0.824839 0.564593
v -0.157402 0.947692 0.422349
v 0.089327 0.824839 0.564593
v 0.139995 0.942565 0.438947
v -0.157402 0.947692 0.422349
v 0.089327 0.824839 0.564593
v -0.103990 0.828171 0.553804
v -0.157402 0.947692 0.422349
v 0.139995 0.942565 0.438947
v 0.089327 0.824839 0.564593
v -0.103990 0.828171 0.553804
v -0.012642 0.666372 0.687986
v 0.012272 0.665942 0.689377
v -0.103990 0.828171 0.553804
v 0.012272 0.665942 0.689377
v 0.089327 0.824839 0.564593
v -0.103990 0.828171 0.553804
v 0.012272 0.665942 0.689377
v -0.012642 0.666372 0.687986
v -0.103990 0.828171 0.553804
v 0.089327 0.824839 0.564593
v 0.012272 0.665942 0.689377
v 0.036806 1.020319 0.039544
v -0.138108 1.041843 -0.043300
v -0.066074 1.043218 0.152034
v 0.036806 1.020319 0.039544
v -0.066074 1.043218 0.152034
v 0.046090 1.020496 0.064718
v 0.036806 1.020319 0.039544
v -0.066074 1.043218 0.152034
v -0.138108 1.041843 -0.043300
v 0.036806 1.020319 0.039544
v 0.046090 1.020496 0.064718
v -0.066074 1.043218 0.152034
v -0.138108 1.041843 -0.043300
v -0.295580 1.018730 -0.076038
v -0.184764 1.020845 0.224461
v -0.138108 1.041843 -0.043300
v -0.184764 1.020845 0.224461
v -0.066074 1.043218 0.152034
v -0.138108 1.041843 -0.043300
v -0.184764 1.020845 0.224461
v -0.295580 1.018730 -0.076038
v -0.138108 1.041843 -0.043300
v -0.066074 1.043218 0.152034
v -0.184764 1.020845 0.224461
v -0.295580 1.018730 -0.076038
v -0.424482 0.942871 -0.027969
v -0.313666 0.944986 0.272530
v -0.295580 1.018730 -0.076038
v -0.313666 0.944986 0.272530
v -0.184764 1.020845 0.224461
v -0.295580 1.018730 -0.076038
v -0.313666 0.944986 0.272530
v -0.424482 0.942871 -0.027969
v -0.295580 1.018730 -0.076038
v -0.184764 1.020845 0.224461
v -0.313666 0.944986 0.272530
v -0.424482 0.942871 -0.027969
v -0.524813 0.814266 0.100909
v -0.452779 0.815641 0.296243
v -0.424482 0.942871 -0.027969
v -0.452779 0.815641 0.296243
v -0.313666 0.944986 0.272530
v -0.424482 0.942871 -0.027969
v -0.452779 0.815641 0.296243
v -0.524813 0.814266 0.100909
v -0.424482 0.942871 -0.027969
v -0.313666 0.944986 0.272530
v -0.452779 0.815641 0.296243
v -0.524813 0.814266 0.100909
v -0.607702 0.641023 0.279892
v -0.598419 0.641200 0.305066
v -0.524813 0.814266 0.100909
v -0.598419 0.641200 0.305066
v -0.452779 0.815641 0.296243
v -0.524813 0.814266 0.100909
v -0.598419 0.641200 0.305066
v -0.607702 0.641023 0.279892
v -0.524813 0.814266 0.100909
v -0.452779 0.815641 0.296243
v -0.598419 0.641200 0.305066
v 0.049655 0.981818 0.041395
v -0.035852 0.999455 -0.084556
v -0.173904 1.004331 0.090186
v 0.049655 0.981818 0.041395
v -0.173904 1.004331 0.090186
v 0.031863 0.982447 0.063914
v 0.049655 0.981818 0.041395
v -0.173904 1.004331 0.090186
v -0.035852 0.999455 -0.084556
v 0.049655 0.981818 0.041395
v 0.031863 0.982447 0.063914
v -0.173904 1.004331 0.090186
v -0.035852 0.999455 -0.084556
v -0.132983 0.969112 -0.196233
v -0.345361 0.976612 0.072587
v -0.035852 0.999455 -0.084556
v -0.345361 0.976612 0.072587
v -0.173904 1.004331 0.090186
v -0.035852 0.999455 -0.084556
v -0.345361 0.976612 0.072587
v -0.132983 0.969112 -0.196233
v -0.035852 0.999455 -0.084556
v -0.173904 1.004331 0.090186
v -0.345361 0.976612 0.072587
v -0.132983 0.969112 -0.196233
v -0.248534 0.882698 -0.285111
v -0.460912 0.890199 -0.016291
v -0.132983 0.969112 -0.196233
v -0.460912 0.890199 -0.016291
v -0.345361 0.976612 0.072587
v -0.132983 0.969112 -0.196233
v -0.460912 0.890199 -0.016291
v -0.248534 0.882698 -0.285111
v -0.132983 0.969112 -0.196233
v -0.345361 0.976612 0.072587
v -0.460912 0.890199 -0.016291
v -0.248534 0.882698 -0.285111
v -0.382505 0.740215 -0.351191
v -0.520557 0.745091 -0.176449
v -0.248534 0.882698 -0.285111
v -0.520557 0.745091 -0.176449
v -0.460912 0.890199 -0.016291
v -0.248534 0.882698 -0.285111
v -0.520557 0.745091 -0.176449
v -0.382505 0.740215 -0.351191
v -0.248534 0.882698 -0.285111
v -0.460912 0.890199 -0.016291
v -0.520557 0.745091 -0.176449
v -0.382505 0.740215 -0.351191
v -0.528100 0.549752 -0.402997
v -0.545892 0.550380 -0.380478
v -0.382505 0.740215 -0.351191
v -0.545892 0.550380 -0.380478
v -0.520557 0.745091 -0.176449
v -0.382505 0.740215 -0.351191
v -0.545892 0.550380 -0.380478
v -0.528100 0.549752 -0.402997
v -0.382505 0.740215 -0.351191
v -0.520557 0.745091 -0.176449
v -0.545892 0.550380 -0.380478
v 0.054388 0.993708 0.059824
v 0.200801 1.005883 -0.036760
v -0.007444 1.008077 -0.150515
v 0.054388 0.993708 0.059824
v -0.007444 1.008077 -0.150515
v 0.027551 0.993991 0.045164
v 0.054388 0.993708 0.059824
v -0.007444 1.008077 -0.150515
v 0.200801 1.005883 -0.036760
v 0.054388 0.993708 0.059824
v 0.027551 0.993991 0.045164
v -0.007444 1.008077 -0.150515
v 0.200801 1.005883 -0.036760
v 0.318771 0.966613 -0.147666
v -0.001590 0.969987 -0.322663
v 0.200801 1.005883 -0.036760
v -0.001590 0.969987 -0.322663
v -0.007444 1.008077 -0.150515
v 0.200801 1.005883 -0.036760
v -0.001590 0.969987 -0.322663
v 0.318771 0.966613 -0.147666
v 0.200801 1.005883 -0.036760
v -0.007444 1.008077 -0.150515
v -0.001590 0.969987 -0.322663
v 0.318771 0.966613 -0.147666
v 0.391146 0.867754 -0.282065
v 0.070785 0.871127 -0.457063
v 0.318771 0.966613 -0.147666
v 0.070785 0.871127 -0.457063
v -0.001590 0.969987 -0.322663
v 0.318771 0.966613 -0.147666
v 0.070785 0.871127 -0.457063
v 0.391146 0.867754 -0.282065
v 0.318771 0.966613 -0.147666
v -0.001590 0.969987 -0.322663
v 0.070785 0.871127 -0.457063
v 0.391146 0.867754 -0.282065
v 0.417926 0.709304 -0.439959
v 0.209681 0.711497 -0.553713
v 0.391146 0.867754 -0.282065
v 0.209681 0.711497 -0.553713
v 0.070785 0.871127 -0.457063
v 0.391146 0.867754 -0.282065
v 0.209681 0.711497 -0.553713
v 0.417926 0.709304 -0.439959
v 0.391146 0.867754 -0.282065
v 0.070785 0.871127 -0.457063
v 0.209681 0.711497 -0.553713
v 0.417926 0.709304 -0.439959
v 0.416263 0.499409 -0.612173
v 0.389426 0.499692 -0.626833
v 0.417926 0.709304 -0.439959
v 0.389426 0.499692 -0.626833
v 0.209681 0.711497 -0.553713
v 0.417926 0.709304 -0.439959
v 0.389426 0.499692 -0.626833
v 0.416263 0.499409 -0.612173
v 0.417926 0.709304 -0.439959
v 0.209681 0.711497 -0.553713
v 0.389426 0.499692 -0.626833
f 517 518 519
f 520 521 522
f 523 524 525
f 526 527 528
f 529 530 531
f 532 533 534
f 535 536 537
f 538 539 540
f 541 542 543
f 544 545 546
f 547 548 549
f 550 551 552
f 553 554 555
f 556 557 558
f 559 560 561
f 562 563 564
f 565 566 567
f 568 569 570
f 571 572 573
f 574 575 576
f 577 578 579
f 580 581 582
f 583 584 585
f 586 587 588
f 589 590 591
f 592 593 594
f 595 596 597
f 598 599 600
f 601 602 603
f 604 605 606
f 607 608 609
f 610 611 612
f 613 614 615
f 616 617 618
f 619 620 621
f 622 623 624
f 625 626 627
f 628 629 630
f 631 632 633
f 634 635 636
f 637 638 639
f 640 641 642
f 643 644 645
f 646 647 648
f 649 650 651
f 652 653 654
f 655 656 657
f 658 659 660
f 661 662 663
f 664 665 666
f 667 668 669
f 670 671 672
f 673 674 675
f 676 677 678
f 679 680 681
f 682 683 684
f 685 686 687
f 688 689 690
f 691 692 693
f 694 695 696
f 697 698 699
f 700 701 702
f 703 704 705
f 706 707 708
f 709 710 711
f 712 713 714
f 715 716 717
f 718 719 720
f 721 722 723
f 724 725 726
f 727 728 729
f 730 731 732
f 733 734 735
f 736 737 738
f 739 740 741
f 742 743 744
f 745 746 747
f 748 749 750
f 751 752 753
f 754 755 756
f 757 758 759
f 760 761 762
f 763 764 765
f 766 767 768
f 769 770 771
f 772 773 774
f 775 776 777
f 778 779 780
f 781 782 783
f 784 785 786
f 787 788 789
f 790 791 792
f 793 794 795
f 796 797 798
f 799 800 801
f 802 803 804
f 805 806 807
f 808 809 810
f 811 812 813
f 814 815 816
