# Pyramida editable prop source
# units: 1 OBJ unit = 1 Pyramida World Unit = 1 Blender metre

o PalmTrunk
v 0.043071 0.075684 0.105317
v 0.303392 0.012997 0.033224
v 0.309712 0.035998 0.009079
v 0.043071 0.075684 0.105317
v 0.309712 0.035998 0.009079
v 0.070720 0.176314 -0.000320
v 0.046321 0.074190 0.000378
v 0.043071 0.075684 0.105317
v 0.070720 0.176314 -0.000320
v 0.304135 0.012656 0.009238
v 0.309712 0.035998 0.009079
v 0.303392 0.012997 0.033224
v 0.070720 0.176314 -0.000320
v 0.309712 0.035998 0.009079
v 0.304878 0.012314 -0.014748
v 0.070720 0.176314 -0.000320
v 0.304878 0.012314 -0.014748
v 0.049571 0.072697 -0.104561
v 0.046321 0.074190 0.000378
v 0.070720 0.176314 -0.000320
v 0.049571 0.072697 -0.104561
v 0.304135 0.012656 0.009238
v 0.304878 0.012314 -0.014748
v 0.309712 0.035998 0.009079
v 0.049571 0.072697 -0.104561
v 0.304878 0.012314 -0.014748
v 0.298558 -0.010687 0.009398
v 0.049571 0.072697 -0.104561
v 0.298558 -0.010687 0.009398
v 0.021922 -0.027933 0.001077
v 0.046321 0.074190 0.000378
v 0.049571 0.072697 -0.104561
v 0.021922 -0.027933 0.001077
v 0.304135 0.012656 0.009238
v 0.298558 -0.010687 0.009398
v 0.304878 0.012314 -0.014748
v 0.021922 -0.027933 0.001077
v 0.298558 -0.010687 0.009398
v 0.303392 0.012997 0.033224
v 0.021922 -0.027933 0.001077
v 0.303392 0.012997 0.033224
v 0.043071 0.075684 0.105317
v 0.046321 0.074190 0.000378
v 0.021922 -0.027933 0.001077
v 0.043071 0.075684 0.105317
v 0.304135 0.012656 0.009238
v 0.303392 0.012997 0.033224
v 0.298558 -0.010687 0.009398
v -0.109501 0.076600 -0.028585
v -0.220744 0.025423 0.251796
v -0.203992 0.048920 0.269665
v -0.109501 0.076600 -0.028585
v -0.203992 0.048920 0.269665
v -0.036212 0.179398 0.049590
v -0.025819 0.075960 0.034834
v -0.109501 0.076600 -0.028585
v -0.036212 0.179398 0.049590
v -0.201617 0.025277 0.266292
v -0.203992 0.048920 0.269665
v -0.220744 0.025423 0.251796
v -0.036212 0.179398 0.049590
v -0.203992 0.048920 0.269665
v -0.182490 0.025131 0.280787
v -0.036212 0.179398 0.049590
v -0.182490 0.025131 0.280787
v 0.057863 0.075321 0.098252
v -0.025819 0.075960 0.034834
v -0.036212 0.179398 0.049590
v 0.057863 0.075321 0.098252
v -0.201617 0.025277 0.266292
v -0.182490 0.025131 0.280787
v -0.203992 0.048920 0.269665
v 0.057863 0.075321 0.098252
v -0.182490 0.025131 0.280787
v -0.199241 0.001634 0.262919
v 0.057863 0.075321 0.098252
v -0.199241 0.001634 0.262919
v -0.015426 -0.027477 0.020078
v -0.025819 0.075960 0.034834
v 0.057863 0.075321 0.098252
v -0.015426 -0.027477 0.020078
v -0.201617 0.025277 0.266292
v -0.199241 0.001634 0.262919
v -0.182490 0.025131 0.280787
v -0.015426 -0.027477 0.020078
v -0.199241 0.001634 0.262919
v -0.220744 0.025423 0.251796
v -0.015426 -0.027477 0.020078
v -0.220744 0.025423 0.251796
v -0.109501 0.076600 -0.028585
v -0.025819 0.075960 0.034834
v -0.015426 -0.027477 0.020078
v -0.109501 0.076600 -0.028585
v -0.201617 0.025277 0.266292
v -0.220744 0.025423 0.251796
v -0.199241 0.001634 0.262919
v 0.052133 0.072667 -0.103328
v -0.133654 0.017747 -0.194723
v -0.155984 0.041279 -0.184742
v 0.052133 0.072667 -0.103328
v -0.155984 0.041279 -0.184742
v -0.045561 0.175618 -0.059658
v -0.027812 0.075037 -0.035297
v 0.052133 0.072667 -0.103328
v -0.045561 0.175618 -0.059658
v -0.151927 0.018289 -0.179173
v -0.155984 0.041279 -0.184742
v -0.133654 0.017747 -0.194723
v -0.045561 0.175618 -0.059658
v -0.155984 0.041279 -0.184742
v -0.170200 0.018831 -0.163624
v -0.045561 0.175618 -0.059658
v -0.170200 0.018831 -0.163624
v -0.107758 0.077407 0.032733
v -0.027812 0.075037 -0.035297
v -0.045561 0.175618 -0.059658
v -0.107758 0.077407 0.032733
v -0.151927 0.018289 -0.179173
v -0.170200 0.018831 -0.163624
v -0.155984 0.041279 -0.184742
v -0.107758 0.077407 0.032733
v -0.170200 0.018831 -0.163624
v -0.147870 -0.004701 -0.173605
v -0.107758 0.077407 0.032733
v -0.147870 -0.004701 -0.173605
v -0.010064 -0.025544 -0.010937
v -0.027812 0.075037 -0.035297
v -0.107758 0.077407 0.032733
v -0.010064 -0.025544 -0.010937
v -0.151927 0.018289 -0.179173
v -0.147870 -0.004701 -0.173605
v -0.170200 0.018831 -0.163624
v -0.010064 -0.025544 -0.010937
v -0.147870 -0.004701 -0.173605
v -0.133654 0.017747 -0.194723
v -0.010064 -0.025544 -0.010937
v -0.133654 0.017747 -0.194723
v 0.052133 0.072667 -0.103328
v -0.027812 0.075037 -0.035297
v -0.010064 -0.025544 -0.010937
v 0.052133 0.072667 -0.103328
v -0.151927 0.018289 -0.179173
v -0.133654 0.017747 -0.194723
v -0.147870 -0.004701 -0.173605
v 0.000178 0.007841 -0.149795
v 0.041233 1.006767 -0.072422
v 0.149321 0.999063 -0.010111
v 0.000178 0.007841 -0.149795
v 0.149321 0.999063 -0.010111
v 0.129884 -0.001404 -0.075022
v 0.000000 0.000000 0.000000
v 0.000178 0.007841 -0.149795
v 0.129884 -0.001404 -0.075022
v 0.129884 -0.001404 -0.075022
v 0.149321 0.999063 -0.010111
v 0.149173 0.992528 0.114718
v 0.129884 -0.001404 -0.075022
v 0.149173 0.992528 0.114718
v 0.129706 -0.009245 0.074773
v 0.000000 0.000000 0.000000
v 0.129884 -0.001404 -0.075022
v 0.129706 -0.009245 0.074773
v 0.129706 -0.009245 0.074773
v 0.149173 0.992528 0.114718
v 0.040936 0.993698 0.177236
v 0.129706 -0.009245 0.074773
v 0.040936 0.993698 0.177236
v -0.000178 -0.007841 0.149795
v 0.000000 0.000000 0.000000
v 0.129706 -0.009245 0.074773
v -0.000178 -0.007841 0.149795
v -0.000178 -0.007841 0.149795
v 0.040936 0.993698 0.177236
v -0.067152 1.001403 0.114925
v -0.000178 -0.007841 0.149795
v -0.067152 1.001403 0.114925
v -0.129884 0.001404 0.075022
v 0.000000 0.000000 0.000000
v -0.000178 -0.007841 0.149795
v -0.129884 0.001404 0.075022
v -0.129884 0.001404 0.075022
v -0.067152 1.001403 0.114925
v -0.067003 1.007937 -0.009904
v -0.129884 0.001404 0.075022
v -0.067003 1.007937 -0.009904
v -0.129706 0.009245 -0.074773
v 0.000000 0.000000 0.000000
v -0.129884 0.001404 0.075022
v -0.129706 0.009245 -0.074773
v -0.129706 0.009245 -0.074773
v -0.067003 1.007937 -0.009904
v 0.041233 1.006767 -0.072422
v -0.129706 0.009245 -0.074773
v 0.041233 1.006767 -0.072422
v 0.000178 0.007841 -0.149795
v 0.000000 0.000000 0.000000
v -0.129706 0.009245 -0.074773
v 0.000178 0.007841 -0.149795
v 0.041286 1.009693 -0.072234
v 0.090575 2.008208 0.028702
v 0.176993 2.000173 0.078375
v 0.041286 1.009693 -0.072234
v 0.176993 2.000173 0.078375
v 0.149308 0.999649 -0.010143
v 0.090415 2.000640 0.128415
v 0.176993 2.000173 0.078375
v 0.090575 2.008208 0.028702
v 0.149308 0.999649 -0.010143
v 0.176993 2.000173 0.078375
v 0.176832 1.992604 0.178088
v 0.149308 0.999649 -0.010143
v 0.176832 1.992604 0.178088
v 0.149107 0.990189 0.114499
v 0.090415 2.000640 0.128415
v 0.176832 1.992604 0.178088
v 0.176993 2.000173 0.078375
v 0.149107 0.990189 0.114499
v 0.176832 1.992604 0.178088
v 0.090254 1.993072 0.228128
v 0.149107 0.990189 0.114499
v 0.090254 1.993072 0.228128
v 0.040884 0.990773 0.177048
v 0.090415 2.000640 0.128415
v 0.090254 1.993072 0.228128
v 0.176832 1.992604 0.178088
v 0.040884 0.990773 0.177048
v 0.090254 1.993072 0.228128
v 0.003836 2.001107 0.178454
v 0.040884 0.990773 0.177048
v 0.003836 2.001107 0.178454
v -0.067138 1.000817 0.114957
v 0.090415 2.000640 0.128415
v 0.003836 2.001107 0.178454
v 0.090254 1.993072 0.228128
v -0.067138 1.000817 0.114957
v 0.003836 2.001107 0.178454
v 0.003997 2.008675 0.078741
v -0.067138 1.000817 0.114957
v 0.003997 2.008675 0.078741
v -0.066937 1.010277 -0.009685
v 0.090415 2.000640 0.128415
v 0.003997 2.008675 0.078741
v 0.003836 2.001107 0.178454
v -0.066937 1.010277 -0.009685
v 0.003997 2.008675 0.078741
v 0.090575 2.008208 0.028702
v -0.066937 1.010277 -0.009685
v 0.090575 2.008208 0.028702
v 0.041286 1.009693 -0.072234
v 0.090415 2.000640 0.128415
v 0.090575 2.008208 0.028702
v 0.003997 2.008675 0.078741
f 1 2 3
f 4 5 6
f 7 8 9
f 10 11 12
f 13 14 15
f 16 17 18
f 19 20 21
f 22 23 24
f 25 26 27
f 28 29 30
f 31 32 33
f 34 35 36
f 37 38 39
f 40 41 42
f 43 44 45
f 46 47 48
f 49 50 51
f 52 53 54
f 55 56 57
f 58 59 60
f 61 62 63
f 64 65 66
f 67 68 69
f 70 71 72
f 73 74 75
f 76 77 78
f 79 80 81
f 82 83 84
f 85 86 87
f 88 89 90
f 91 92 93
f 94 95 96
f 97 98 99
f 100 101 102
f 103 104 105
f 106 107 108
f 109 110 111
f 112 113 114
f 115 116 117
f 118 119 120
f 121 122 123
f 124 125 126
f 127 128 129
f 130 131 132
f 133 134 135
f 136 137 138
f 139 140 141
f 142 143 144
f 145 146 147
f 148 149 150
f 151 152 153
f 154 155 156
f 157 158 159
f 160 161 162
f 163 164 165
f 166 167 168
f 169 170 171
f 172 173 174
f 175 176 177
f 178 179 180
f 181 182 183
f 184 185 186
f 187 188 189
f 190 191 192
f 193 194 195
f 196 197 198
f 199 200 201
f 202 203 204
f 205 206 207
f 208 209 210
f 211 212 213
f 214 215 216
f 217 218 219
f 220 221 222
f 223 224 225
f 226 227 228
f 229 230 231
f 232 233 234
f 235 236 237
f 238 239 240
f 241 242 243
f 244 245 246
f 247 248 249
f 250 251 252

o PalmLightLeaves
v 0.093157 2.093664 0.144123
v 0.262662 2.118786 0.219553
v 0.246031 2.115482 -0.043931
v 0.093157 2.093664 0.144123
v 0.246031 2.115482 -0.043931
v 0.091014 2.093238 0.110167
v 0.093157 2.093664 0.144123
v 0.246031 2.115482 -0.043931
v 0.262662 2.118786 0.219553
v 0.093157 2.093664 0.144123
v 0.091014 2.093238 0.110167
v 0.246031 2.115482 -0.043931
v 0.262662 2.118786 0.219553
v 0.429556 2.113769 0.262507
v 0.403971 2.108685 -0.142833
v 0.262662 2.118786 0.219553
v 0.403971 2.108685 -0.142833
v 0.246031 2.115482 -0.043931
v 0.262662 2.118786 0.219553
v 0.403971 2.108685 -0.142833
v 0.429556 2.113769 0.262507
v 0.262662 2.118786 0.219553
v 0.246031 2.115482 -0.043931
v 0.403971 2.108685 -0.142833
v 0.429556 2.113769 0.262507
v 0.592407 2.070033 0.252776
v 0.566822 2.064950 -0.152564
v 0.429556 2.113769 0.262507
v 0.566822 2.064950 -0.152564
v 0.403971 2.108685 -0.142833
v 0.429556 2.113769 0.262507
v 0.566822 2.064950 -0.152564
v 0.592407 2.070033 0.252776
v 0.429556 2.113769 0.262507
v 0.403971 2.108685 -0.142833
v 0.566822 2.064950 -0.152564
v 0.592407 2.070033 0.252776
v 0.751215 1.987580 0.190361
v 0.734583 1.984275 -0.073123
v 0.592407 2.070033 0.252776
v 0.734583 1.984275 -0.073123
v 0.566822 2.064950 -0.152564
v 0.592407 2.070033 0.252776
v 0.734583 1.984275 -0.073123
v 0.751215 1.987580 0.190361
v 0.592407 2.070033 0.252776
v 0.566822 2.064950 -0.152564
v 0.734583 1.984275 -0.073123
v 0.751215 1.987580 0.190361
v 0.907411 1.874987 0.095470
v 0.905268 1.874561 0.061514
v 0.751215 1.987580 0.190361
v 0.905268 1.874561 0.061514
v 0.734583 1.984275 -0.073123
v 0.751215 1.987580 0.190361
v 0.905268 1.874561 0.061514
v 0.907411 1.874987 0.095470
v 0.751215 1.987580 0.190361
v 0.734583 1.984275 -0.073123
v 0.905268 1.874561 0.061514
v 0.079008 2.110150 0.130881
v 0.041821 2.139161 0.321447
v 0.249360 2.134584 0.259984
v 0.079008 2.110150 0.130881
v 0.249360 2.134584 0.259984
v 0.105754 2.109560 0.122960
v 0.079008 2.110150 0.130881
v 0.249360 2.134584 0.259984
v 0.041821 2.139161 0.321447
v 0.079008 2.110150 0.130881
v 0.105754 2.109560 0.122960
v 0.249360 2.134584 0.259984
v 0.041821 2.139161 0.321447
v 0.037135 2.134903 0.502659
v 0.356410 2.127862 0.408106
v 0.041821 2.139161 0.321447
v 0.356410 2.127862 0.408106
v 0.249360 2.134584 0.259984
v 0.041821 2.139161 0.321447
v 0.356410 2.127862 0.408106
v 0.037135 2.134903 0.502659
v 0.041821 2.139161 0.321447
v 0.249360 2.134584 0.259984
v 0.356410 2.127862 0.408106
v 0.037135 2.134903 0.502659
v 0.085251 2.088603 0.668575
v 0.404525 2.081561 0.574022
v 0.037135 2.134903 0.502659
v 0.404525 2.081561 0.574022
v 0.356410 2.127862 0.408106
v 0.037135 2.134903 0.502659
v 0.404525 2.081561 0.574022
v 0.085251 2.088603 0.668575
v 0.037135 2.134903 0.502659
v 0.356410 2.127862 0.408106
v 0.404525 2.081561 0.574022
v 0.085251 2.088603 0.668575
v 0.186166 2.000258 0.819196
v 0.393705 1.995681 0.757733
v 0.085251 2.088603 0.668575
v 0.393705 1.995681 0.757733
v 0.404525 2.081561 0.574022
v 0.085251 2.088603 0.668575
v 0.393705 1.995681 0.757733
v 0.186166 2.000258 0.819196
v 0.085251 2.088603 0.668575
v 0.404525 2.081561 0.574022
v 0.393705 1.995681 0.757733
v 0.186166 2.000258 0.819196
v 0.319583 1.878645 0.960463
v 0.346329 1.878055 0.952542
v 0.186166 2.000258 0.819196
v 0.346329 1.878055 0.952542
v 0.393705 1.995681 0.757733
v 0.186166 2.000258 0.819196
v 0.346329 1.878055 0.952542
v 0.319583 1.878645 0.960463
v 0.186166 2.000258 0.819196
v 0.393705 1.995681 0.757733
v 0.346329 1.878055 0.952542
v 0.084108 2.056224 0.114683
v -0.101231 2.083409 0.079559
v 0.012191 2.084120 0.280850
v 0.084108 2.056224 0.114683
v 0.012191 2.084120 0.280850
v 0.098725 2.056316 0.140624
v 0.084108 2.056224 0.114683
v 0.012191 2.084120 0.280850
v -0.101231 2.083409 0.079559
v 0.084108 2.056224 0.114683
v 0.098725 2.056316 0.140624
v 0.012191 2.084120 0.280850
v -0.101231 2.083409 0.079559
v -0.264424 2.075385 0.085350
v -0.089938 2.076479 0.395014
v -0.101231 2.083409 0.079559
v -0.089938 2.076479 0.395014
v 0.012191 2.084120 0.280850
v -0.101231 2.083409 0.079559
v -0.089938 2.076479 0.395014
v -0.264424 2.075385 0.085350
v -0.101231 2.083409 0.079559
v 0.012191 2.084120 0.280850
v -0.089938 2.076479 0.395014
v -0.264424 2.075385 0.085350
v -0.391541 2.023918 0.157159
v -0.217054 2.025012 0.466822
v -0.264424 2.075385 0.085350
v -0.217054 2.025012 0.466822
v -0.089938 2.076479 0.395014
v -0.264424 2.075385 0.085350
v -0.217054 2.025012 0.466822
v -0.391541 2.023918 0.157159
v -0.264424 2.075385 0.085350
v -0.089938 2.076479 0.395014
v -0.217054 2.025012 0.466822
v -0.391541 2.023918 0.157159
v -0.482582 1.929007 0.294985
v -0.369160 1.929718 0.496276
v -0.391541 2.023918 0.157159
v -0.369160 1.929718 0.496276
v -0.217054 2.025012 0.466822
v -0.391541 2.023918 0.157159
v -0.369160 1.929718 0.496276
v -0.482582 1.929007 0.294985
v -0.391541 2.023918 0.157159
v -0.217054 2.025012 0.466822
v -0.369160 1.929718 0.496276
v -0.482582 1.929007 0.294985
v -0.551477 1.798887 0.473727
v -0.536860 1.798979 0.499668
v -0.482582 1.929007 0.294985
v -0.536860 1.798979 0.499668
v -0.369160 1.929718 0.496276
v -0.482582 1.929007 0.294985
v -0.536860 1.798979 0.499668
v -0.551477 1.798887 0.473727
v -0.482582 1.929007 0.294985
v -0.369160 1.929718 0.496276
v -0.536860 1.798979 0.499668
v 0.098629 2.072354 0.113199
v 0.027956 2.093750 -0.091387
v -0.079396 2.098703 0.129452
v 0.098629 2.072354 0.113199
v -0.079396 2.098703 0.129452
v 0.084794 2.072993 0.141659
v 0.098629 2.072354 0.113199
v -0.079396 2.098703 0.129452
v 0.027956 2.093750 -0.091387
v 0.098629 2.072354 0.113199
v 0.084794 2.072993 0.141659
v -0.079396 2.098703 0.129452
v 0.027956 2.093750 -0.091387
v -0.068889 2.078158 -0.243026
v -0.234037 2.085778 0.096709
v 0.027956 2.093750 -0.091387
v -0.234037 2.085778 0.096709
v -0.079396 2.098703 0.129452
v 0.027956 2.093750 -0.091387
v -0.234037 2.085778 0.096709
v -0.068889 2.078158 -0.243026
v 0.027956 2.093750 -0.091387
v -0.079396 2.098703 0.129452
v -0.234037 2.085778 0.096709
v -0.068889 2.078158 -0.243026
v -0.207804 2.017982 -0.309204
v -0.372953 2.025602 0.030530
v -0.068889 2.078158 -0.243026
v -0.372953 2.025602 0.030530
v -0.234037 2.085778 0.096709
v -0.068889 2.078158 -0.243026
v -0.372953 2.025602 0.030530
v -0.207804 2.017982 -0.309204
v -0.068889 2.078158 -0.243026
v -0.234037 2.085778 0.096709
v -0.372953 2.025602 0.030530
v -0.207804 2.017982 -0.309204
v -0.388791 1.913222 -0.289922
v -0.496143 1.918175 -0.069084
v -0.207804 2.017982 -0.309204
v -0.496143 1.918175 -0.069084
v -0.372953 2.025602 0.030530
v -0.207804 2.017982 -0.309204
v -0.496143 1.918175 -0.069084
v -0.388791 1.913222 -0.289922
v -0.207804 2.017982 -0.309204
v -0.372953 2.025602 0.030530
v -0.496143 1.918175 -0.069084
v -0.388791 1.913222 -0.289922
v -0.595948 1.771474 -0.217694
v -0.609783 1.772112 -0.189233
v -0.388791 1.913222 -0.289922
v -0.609783 1.772112 -0.189233
v -0.496143 1.918175 -0.069084
v -0.388791 1.913222 -0.289922
v -0.609783 1.772112 -0.189233
v -0.595948 1.771474 -0.217694
v -0.388791 1.913222 -0.289922
v -0.496143 1.918175 -0.069084
v -0.609783 1.772112 -0.189233
v 0.108336 2.088835 0.130987
v 0.221107 2.106402 -0.009216
v -0.032305 2.110161 -0.067914
v 0.108336 2.088835 0.130987
v -0.032305 2.110161 -0.067914
v 0.075678 2.089319 0.123423
v 0.108336 2.088835 0.130987
v -0.032305 2.110161 -0.067914
v 0.221107 2.106402 -0.009216
v 0.108336 2.088835 0.130987
v 0.075678 2.089319 0.123423
v -0.032305 2.110161 -0.067914
v 0.221107 2.106402 -0.009216
v 0.304133 2.083424 -0.155577
v -0.085713 2.089207 -0.245878
v 0.221107 2.106402 -0.009216
v -0.085713 2.089207 -0.245878
v -0.032305 2.110161 -0.067914
v 0.221107 2.106402 -0.009216
v -0.085713 2.089207 -0.245878
v 0.304133 2.083424 -0.155577
v 0.221107 2.106402 -0.009216
v -0.032305 2.110161 -0.067914
v -0.085713 2.089207 -0.245878
v 0.304133 2.083424 -0.155577
v 0.339335 2.011843 -0.312137
v -0.050512 2.017626 -0.402437
v 0.304133 2.083424 -0.155577
v -0.050512 2.017626 -0.402437
v -0.085713 2.089207 -0.245878
v 0.304133 2.083424 -0.155577
v -0.050512 2.017626 -0.402437
v 0.339335 2.011843 -0.312137
v 0.304133 2.083424 -0.155577
v -0.085713 2.089207 -0.245878
v -0.050512 2.017626 -0.402437
v 0.339335 2.011843 -0.312137
v 0.326713 1.891660 -0.478893
v 0.073300 1.895419 -0.537591
v 0.339335 2.011843 -0.312137
v 0.073300 1.895419 -0.537591
v -0.050512 2.017626 -0.402437
v 0.339335 2.011843 -0.312137
v 0.073300 1.895419 -0.537591
v 0.326713 1.891660 -0.478893
v 0.339335 2.011843 -0.312137
v -0.050512 2.017626 -0.402437
v 0.073300 1.895419 -0.537591
v 0.326713 1.891660 -0.478893
v 0.284345 1.730931 -0.651809
v 0.251687 1.731416 -0.659373
v 0.326713 1.891660 -0.478893
v 0.251687 1.731416 -0.659373
v 0.073300 1.895419 -0.537591
v 0.326713 1.891660 -0.478893
v 0.251687 1.731416 -0.659373
v 0.284345 1.730931 -0.651809
v 0.326713 1.891660 -0.478893
v 0.073300 1.895419 -0.537591
v 0.251687 1.731416 -0.659373
f 253 254 255
f 256 257 258
f 259 260 261
f 262 263 264
f 265 266 267
f 268 269 270
f 271 272 273
f 274 275 276
f 277 278 279
f 280 281 282
f 283 284 285
f 286 287 288
f 289 290 291
f 292 293 294
f 295 296 297
f 298 299 300
f 301 302 303
f 304 305 306
f 307 308 309
f 310 311 312
f 313 314 315
f 316 317 318
f 319 320 321
f 322 323 324
f 325 326 327
f 328 329 330
f 331 332 333
f 334 335 336
f 337 338 339
f 340 341 342
f 343 344 345
f 346 347 348
f 349 350 351
f 352 353 354
f 355 356 357
f 358 359 360
f 361 362 363
f 364 365 366
f 367 368 369
f 370 371 372
f 373 374 375
f 376 377 378
f 379 380 381
f 382 383 384
f 385 386 387
f 388 389 390
f 391 392 393
f 394 395 396
f 397 398 399
f 400 401 402
f 403 404 405
f 406 407 408
f 409 410 411
f 412 413 414
f 415 416 417
f 418 419 420
f 421 422 423
f 424 425 426
f 427 428 429
f 430 431 432
f 433 434 435
f 436 437 438
f 439 440 441
f 442 443 444
f 445 446 447
f 448 449 450
f 451 452 453
f 454 455 456
f 457 458 459
f 460 461 462
f 463 464 465
f 466 467 468
f 469 470 471
f 472 473 474
f 475 476 477
f 478 479 480
f 481 482 483
f 484 485 486
f 487 488 489
f 490 491 492
f 493 494 495
f 496 497 498
f 499 500 501
f 502 503 504
f 505 506 507
f 508 509 510
f 511 512 513
f 514 515 516
f 517 518 519
f 520 521 522
f 523 524 525
f 526 527 528
f 529 530 531
f 532 533 534
f 535 536 537
f 538 539 540
f 541 542 543
f 544 545 546
f 547 548 549
f 550 551 552

o PalmDarkLeaves
v 0.086899 1.997650 0.143608
v 0.220072 2.019836 0.267820
v 0.273715 2.015655 0.032720
v 0.086899 1.997650 0.143608
v 0.273715 2.015655 0.032720
v 0.093813 1.997111 0.113310
v 0.086899 1.997650 0.143608
v 0.273715 2.015655 0.032720
v 0.220072 2.019836 0.267820
v 0.086899 1.997650 0.143608
v 0.093813 1.997111 0.113310
v 0.273715 2.015655 0.032720
v 0.220072 2.019836 0.267820
v 0.360359 2.003177 0.358358
v 0.442883 1.996745 -0.003317
v 0.220072 2.019836 0.267820
v 0.442883 1.996745 -0.003317
v 0.273715 2.015655 0.032720
v 0.220072 2.019836 0.267820
v 0.442883 1.996745 -0.003317
v 0.360359 2.003177 0.358358
v 0.220072 2.019836 0.267820
v 0.273715 2.015655 0.032720
v 0.442883 1.996745 -0.003317
v 0.360359 2.003177 0.358358
v 0.512434 1.938974 0.394199
v 0.594958 1.932541 0.032524
v 0.360359 2.003177 0.358358
v 0.594958 1.932541 0.032524
v 0.442883 1.996745 -0.003317
v 0.360359 2.003177 0.358358
v 0.594958 1.932541 0.032524
v 0.512434 1.938974 0.394199
v 0.360359 2.003177 0.358358
v 0.442883 1.996745 -0.003317
v 0.594958 1.932541 0.032524
v 0.512434 1.938974 0.394199
v 0.676295 1.827225 0.375343
v 0.729939 1.823043 0.140243
v 0.512434 1.938974 0.394199
v 0.729939 1.823043 0.140243
v 0.594958 1.932541 0.032524
v 0.512434 1.938974 0.394199
v 0.729939 1.823043 0.140243
v 0.676295 1.827225 0.375343
v 0.512434 1.938974 0.394199
v 0.594958 1.932541 0.032524
v 0.729939 1.823043 0.140243
v 0.676295 1.827225 0.375343
v 0.847272 1.676631 0.322814
v 0.854185 1.676092 0.292515
v 0.676295 1.827225 0.375343
v 0.854185 1.676092 0.292515
v 0.729939 1.823043 0.140243
v 0.676295 1.827225 0.375343
v 0.854185 1.676092 0.292515
v 0.847272 1.676631 0.322814
v 0.676295 1.827225 0.375343
v 0.729939 1.823043 0.140243
v 0.854185 1.676092 0.292515
v 0.078110 2.009312 0.127604
v -0.029807 2.034099 0.247977
v 0.163510 2.030766 0.258766
v 0.078110 2.009312 0.127604
v 0.163510 2.030766 0.258766
v 0.103024 2.008883 0.128994
v 0.078110 2.009312 0.127604
v 0.163510 2.030766 0.258766
v -0.029807 2.034099 0.247977
v 0.078110 2.009312 0.127604
v 0.103024 2.008883 0.128994
v 0.163510 2.030766 0.258766
v -0.029807 2.034099 0.247977
v -0.099787 2.016606 0.371079
v 0.197609 2.011479 0.387676
v -0.029807 2.034099 0.247977
v 0.197609 2.011479 0.387676
v 0.163510 2.030766 0.258766
v -0.029807 2.034099 0.247977
v 0.197609 2.011479 0.387676
v -0.099787 2.016606 0.371079
v -0.029807 2.034099 0.247977
v 0.163510 2.030766 0.258766
v 0.197609 2.011479 0.387676
v -0.099787 2.016606 0.371079
v -0.108072 1.948099 0.498357
v 0.189325 1.942972 0.514954
v -0.099787 2.016606 0.371079
v 0.189325 1.942972 0.514954
v 0.197609 2.011479 0.387676
v -0.099787 2.016606 0.371079
v 0.189325 1.942972 0.514954
v -0.108072 1.948099 0.498357
v -0.099787 2.016606 0.371079
v 0.197609 2.011479 0.387676
v 0.189325 1.942972 0.514954
v -0.108072 1.948099 0.498357
v -0.054660 1.828578 0.629811
v 0.138657 1.825246 0.640600
v -0.108072 1.948099 0.498357
v 0.138657 1.825246 0.640600
v 0.189325 1.942972 0.514954
v -0.108072 1.948099 0.498357
v 0.138657 1.825246 0.640600
v -0.054660 1.828578 0.629811
v -0.108072 1.948099 0.498357
v 0.189325 1.942972 0.514954
v 0.138657 1.825246 0.640600
v -0.054660 1.828578 0.629811
v 0.036688 1.666779 0.763994
v 0.061602 1.666349 0.765384
v -0.054660 1.828578 0.629811
v 0.061602 1.666349 0.765384
v 0.138657 1.825246 0.640600
v -0.054660 1.828578 0.629811
v 0.061602 1.666349 0.765384
v 0.036688 1.666779 0.763994
v -0.054660 1.828578 0.629811
v 0.138657 1.825246 0.640600
v 0.061602 1.666349 0.765384
v 0.086136 2.020726 0.115552
v -0.088778 2.042250 0.032707
v -0.016744 2.043626 0.228042
v 0.086136 2.020726 0.115552
v -0.016744 2.043626 0.228042
v 0.095419 2.020903 0.140725
v 0.086136 2.020726 0.115552
v -0.016744 2.043626 0.228042
v -0.088778 2.042250 0.032707
v 0.086136 2.020726 0.115552
v 0.095419 2.020903 0.140725
v -0.016744 2.043626 0.228042
v -0.088778 2.042250 0.032707
v -0.246251 2.019137 -0.000031
v -0.135434 2.021253 0.300469
v -0.088778 2.042250 0.032707
v -0.135434 2.021253 0.300469
v -0.016744 2.043626 0.228042
v -0.088778 2.042250 0.032707
v -0.135434 2.021253 0.300469
v -0.246251 2.019137 -0.000031
v -0.088778 2.042250 0.032707
v -0.016744 2.043626 0.228042
v -0.135434 2.021253 0.300469
v -0.246251 2.019137 -0.000031
v -0.375152 1.943278 0.048039
v -0.264336 1.945393 0.348538
v -0.246251 2.019137 -0.000031
v -0.264336 1.945393 0.348538
v -0.135434 2.021253 0.300469
v -0.246251 2.019137 -0.000031
v -0.264336 1.945393 0.348538
v -0.375152 1.943278 0.048039
v -0.246251 2.019137 -0.000031
v -0.135434 2.021253 0.300469
v -0.264336 1.945393 0.348538
v -0.375152 1.943278 0.048039
v -0.475483 1.814673 0.176916
v -0.403449 1.816048 0.372250
v -0.375152 1.943278 0.048039
v -0.403449 1.816048 0.372250
v -0.264336 1.945393 0.348538
v -0.375152 1.943278 0.048039
v -0.403449 1.816048 0.372250
v -0.475483 1.814673 0.176916
v -0.375152 1.943278 0.048039
v -0.264336 1.945393 0.348538
v -0.403449 1.816048 0.372250
v -0.475483 1.814673 0.176916
v -0.558373 1.641430 0.355900
v -0.549089 1.641607 0.381073
v -0.475483 1.814673 0.176916
v -0.549089 1.641607 0.381073
v -0.403449 1.816048 0.372250
v -0.475483 1.814673 0.176916
v -0.549089 1.641607 0.381073
v -0.558373 1.641430 0.355900
v -0.475483 1.814673 0.176916
v -0.403449 1.816048 0.372250
v -0.549089 1.641607 0.381073
v 0.098984 1.982225 0.117402
v 0.013478 1.999862 -0.008548
v -0.124575 2.004738 0.166194
v 0.098984 1.982225 0.117402
v -0.124575 2.004738 0.166194
v 0.081193 1.982854 0.139922
v 0.098984 1.982225 0.117402
v -0.124575 2.004738 0.166194
v 0.013478 1.999862 -0.008548
v 0.098984 1.982225 0.117402
v 0.081193 1.982854 0.139922
v -0.124575 2.004738 0.166194
v 0.013478 1.999862 -0.008548
v -0.083653 1.969519 -0.120225
v -0.296031 1.977019 0.148595
v 0.013478 1.999862 -0.008548
v -0.296031 1.977019 0.148595
v -0.124575 2.004738 0.166194
v 0.013478 1.999862 -0.008548
v -0.296031 1.977019 0.148595
v -0.083653 1.969519 -0.120225
v 0.013478 1.999862 -0.008548
v -0.124575 2.004738 0.166194
v -0.296031 1.977019 0.148595
v -0.083653 1.969519 -0.120225
v -0.199204 1.883105 -0.209104
v -0.411582 1.890606 0.059716
v -0.083653 1.969519 -0.120225
v -0.411582 1.890606 0.059716
v -0.296031 1.977019 0.148595
v -0.083653 1.969519 -0.120225
v -0.411582 1.890606 0.059716
v -0.199204 1.883105 -0.209104
v -0.083653 1.969519 -0.120225
v -0.296031 1.977019 0.148595
v -0.411582 1.890606 0.059716
v -0.199204 1.883105 -0.209104
v -0.333175 1.740623 -0.275183
v -0.471227 1.745498 -0.100442
v -0.199204 1.883105 -0.209104
v -0.471227 1.745498 -0.100442
v -0.411582 1.890606 0.059716
v -0.199204 1.883105 -0.209104
v -0.471227 1.745498 -0.100442
v -0.333175 1.740623 -0.275183
v -0.199204 1.883105 -0.209104
v -0.411582 1.890606 0.059716
v -0.471227 1.745498 -0.100442
v -0.333175 1.740623 -0.275183
v -0.478771 1.550159 -0.326990
v -0.496562 1.550787 -0.304470
v -0.333175 1.740623 -0.275183
v -0.496562 1.550787 -0.304470
v -0.471227 1.745498 -0.100442
v -0.333175 1.740623 -0.275183
v -0.496562 1.550787 -0.304470
v -0.478771 1.550159 -0.326990
v -0.333175 1.740623 -0.275183
v -0.471227 1.745498 -0.100442
v -0.496562 1.550787 -0.304470
v 0.103718 1.994115 0.135832
v 0.250131 2.006291 0.039247
v 0.041886 2.008484 -0.074507
v 0.103718 1.994115 0.135832
v 0.041886 2.008484 -0.074507
v 0.076881 1.994398 0.121172
v 0.103718 1.994115 0.135832
v 0.041886 2.008484 -0.074507
v 0.250131 2.006291 0.039247
v 0.103718 1.994115 0.135832
v 0.076881 1.994398 0.121172
v 0.041886 2.008484 -0.074507
v 0.250131 2.006291 0.039247
v 0.368101 1.967021 -0.071658
v 0.047740 1.970394 -0.246656
v 0.250131 2.006291 0.039247
v 0.047740 1.970394 -0.246656
v 0.041886 2.008484 -0.074507
v 0.250131 2.006291 0.039247
v 0.047740 1.970394 -0.246656
v 0.368101 1.967021 -0.071658
v 0.250131 2.006291 0.039247
v 0.041886 2.008484 -0.074507
v 0.047740 1.970394 -0.246656
v 0.368101 1.967021 -0.071658
v 0.440476 1.868161 -0.206057
v 0.120115 1.871535 -0.381055
v 0.368101 1.967021 -0.071658
v 0.120115 1.871535 -0.381055
v 0.047740 1.970394 -0.246656
v 0.368101 1.967021 -0.071658
v 0.120115 1.871535 -0.381055
v 0.440476 1.868161 -0.206057
v 0.368101 1.967021 -0.071658
v 0.047740 1.970394 -0.246656
v 0.120115 1.871535 -0.381055
v 0.440476 1.868161 -0.206057
v 0.467255 1.709711 -0.363951
v 0.259011 1.711904 -0.477705
v 0.440476 1.868161 -0.206057
v 0.259011 1.711904 -0.477705
v 0.120115 1.871535 -0.381055
v 0.440476 1.868161 -0.206057
v 0.259011 1.711904 -0.477705
v 0.467255 1.709711 -0.363951
v 0.440476 1.868161 -0.206057
v 0.120115 1.871535 -0.381055
v 0.259011 1.711904 -0.477705
v 0.467255 1.709711 -0.363951
v 0.465593 1.499816 -0.536165
v 0.438756 1.500099 -0.550825
v 0.467255 1.709711 -0.363951
v 0.438756 1.500099 -0.550825
v 0.259011 1.711904 -0.477705
v 0.467255 1.709711 -0.363951
v 0.438756 1.500099 -0.550825
v 0.465593 1.499816 -0.536165
v 0.467255 1.709711 -0.363951
v 0.259011 1.711904 -0.477705
v 0.438756 1.500099 -0.550825
f 553 554 555
f 556 557 558
f 559 560 561
f 562 563 564
f 565 566 567
f 568 569 570
f 571 572 573
f 574 575 576
f 577 578 579
f 580 581 582
f 583 584 585
f 586 587 588
f 589 590 591
f 592 593 594
f 595 596 597
f 598 599 600
f 601 602 603
f 604 605 606
f 607 608 609
f 610 611 612
f 613 614 615
f 616 617 618
f 619 620 621
f 622 623 624
f 625 626 627
f 628 629 630
f 631 632 633
f 634 635 636
f 637 638 639
f 640 641 642
f 643 644 645
f 646 647 648
f 649 650 651
f 652 653 654
f 655 656 657
f 658 659 660
f 661 662 663
f 664 665 666
f 667 668 669
f 670 671 672
f 673 674 675
f 676 677 678
f 679 680 681
f 682 683 684
f 685 686 687
f 688 689 690
f 691 692 693
f 694 695 696
f 697 698 699
f 700 701 702
f 703 704 705
f 706 707 708
f 709 710 711
f 712 713 714
f 715 716 717
f 718 719 720
f 721 722 723
f 724 725 726
f 727 728 729
f 730 731 732
f 733 734 735
f 736 737 738
f 739 740 741
f 742 743 744
f 745 746 747
f 748 749 750
f 751 752 753
f 754 755 756
f 757 758 759
f 760 761 762
f 763 764 765
f 766 767 768
f 769 770 771
f 772 773 774
f 775 776 777
f 778 779 780
f 781 782 783
f 784 785 786
f 787 788 789
f 790 791 792
f 793 794 795
f 796 797 798
f 799 800 801
f 802 803 804
f 805 806 807
f 808 809 810
f 811 812 813
f 814 815 816
f 817 818 819
f 820 821 822
f 823 824 825
f 826 827 828
f 829 830 831
f 832 833 834
f 835 836 837
f 838 839 840
f 841 842 843
f 844 845 846
f 847 848 849
f 850 851 852
