# Pyramida editable prop source
# units: 1 OBJ unit = 1 Pyramida World Unit = 1 Blender metre

o PalmTrunk
v 0.061556 0.074391 0.096705
v 0.238128 0.020872 -0.016977
v 0.240448 0.044247 -0.041478
v 0.061556 0.074391 0.096705
v 0.240448 0.044247 -0.041478
v 0.071707 0.176653 -0.010484
v 0.043495 0.075584 -0.006723
v 0.061556 0.074391 0.096705
v 0.071707 0.176653 -0.010484
v 0.234000 0.021145 -0.040618
v 0.240448 0.044247 -0.041478
v 0.238128 0.020872 -0.016977
v 0.071707 0.176653 -0.010484
v 0.240448 0.044247 -0.041478
v 0.229872 0.021418 -0.064259
v 0.071707 0.176653 -0.010484
v 0.229872 0.021418 -0.064259
v 0.025434 0.076778 -0.110151
v 0.043495 0.075584 -0.006723
v 0.071707 0.176653 -0.010484
v 0.025434 0.076778 -0.110151
v 0.234000 0.021145 -0.040618
v 0.229872 0.021418 -0.064259
v 0.240448 0.044247 -0.041478
v 0.025434 0.076778 -0.110151
v 0.229872 0.021418 -0.064259
v 0.227551 -0.001956 -0.039758
v 0.025434 0.076778 -0.110151
v 0.227551 -0.001956 -0.039758
v 0.015282 -0.025484 -0.002963
v 0.043495 0.075584 -0.006723
v 0.025434 0.076778 -0.110151
v 0.015282 -0.025484 -0.002963
v 0.234000 0.021145 -0.040618
v 0.227551 -0.001956 -0.039758
v 0.229872 0.021418 -0.064259
v 0.015282 -0.025484 -0.002963
v 0.227551 -0.001956 -0.039758
v 0.238128 0.020872 -0.016977
v 0.015282 -0.025484 -0.002963
v 0.238128 0.020872 -0.016977
v 0.061556 0.074391 0.096705
v 0.043495 0.075584 -0.006723
v 0.015282 -0.025484 -0.002963
v 0.061556 0.074391 0.096705
v 0.234000 0.021145 -0.040618
v 0.238128 0.020872 -0.016977
v 0.227551 -0.001956 -0.039758
v -0.114972 0.073784 -0.003527
v -0.137195 0.013355 0.232049
v -0.118339 0.036606 0.248044
v -0.114972 0.073784 -0.003527
v -0.118339 0.036606 0.248044
v -0.032477 0.175507 0.066451
v -0.020180 0.074227 0.041631
v -0.114972 0.073784 -0.003527
v -0.032477 0.175507 0.066451
v -0.115528 0.013456 0.242371
v -0.118339 0.036606 0.248044
v -0.137195 0.013355 0.232049
v -0.032477 0.175507 0.066451
v -0.118339 0.036606 0.248044
v -0.093861 0.013557 0.252693
v -0.032477 0.175507 0.066451
v -0.093861 0.013557 0.252693
v 0.074612 0.074669 0.086790
v -0.020180 0.074227 0.041631
v -0.032477 0.175507 0.066451
v 0.074612 0.074669 0.086790
v -0.115528 0.013456 0.242371
v -0.093861 0.013557 0.252693
v -0.118339 0.036606 0.248044
v 0.074612 0.074669 0.086790
v -0.093861 0.013557 0.252693
v -0.112717 -0.009694 0.236698
v 0.074612 0.074669 0.086790
v -0.112717 -0.009694 0.236698
v -0.007882 -0.027054 0.016811
v -0.020180 0.074227 0.041631
v 0.074612 0.074669 0.086790
v -0.007882 -0.027054 0.016811
v -0.115528 0.013456 0.242371
v -0.112717 -0.009694 0.236698
v -0.093861 0.013557 0.252693
v -0.007882 -0.027054 0.016811
v -0.112717 -0.009694 0.236698
v -0.137195 0.013355 0.232049
v -0.007882 -0.027054 0.016811
v -0.137195 0.013355 0.232049
v -0.114972 0.073784 -0.003527
v -0.020180 0.074227 0.041631
v -0.007882 -0.027054 0.016811
v -0.114972 0.073784 -0.003527
v -0.115528 0.013456 0.242371
v -0.137195 0.013355 0.232049
v -0.112717 -0.009694 0.236698
v 0.068928 0.076981 -0.089430
v -0.124782 0.020288 -0.272288
v -0.148562 0.043344 -0.264876
v 0.068928 0.076981 -0.089430
v -0.148562 0.043344 -0.264876
v -0.035108 0.177852 -0.057005
v -0.022757 0.075275 -0.038286
v 0.068928 0.076981 -0.089430
v -0.035108 0.177852 -0.057005
v -0.145739 0.019898 -0.260598
v -0.148562 0.043344 -0.264876
v -0.124782 0.020288 -0.272288
v -0.035108 0.177852 -0.057005
v -0.148562 0.043344 -0.264876
v -0.166695 0.019508 -0.248908
v -0.035108 0.177852 -0.057005
v -0.166695 0.019508 -0.248908
v -0.114443 0.073569 0.012859
v -0.022757 0.075275 -0.038286
v -0.035108 0.177852 -0.057005
v -0.114443 0.073569 0.012859
v -0.145739 0.019898 -0.260598
v -0.166695 0.019508 -0.248908
v -0.148562 0.043344 -0.264876
v -0.114443 0.073569 0.012859
v -0.166695 0.019508 -0.248908
v -0.142916 -0.003548 -0.256319
v -0.114443 0.073569 0.012859
v -0.142916 -0.003548 -0.256319
v -0.010407 -0.027302 -0.019566
v -0.022757 0.075275 -0.038286
v -0.114443 0.073569 0.012859
v -0.010407 -0.027302 -0.019566
v -0.145739 0.019898 -0.260598
v -0.142916 -0.003548 -0.256319
v -0.166695 0.019508 -0.248908
v -0.010407 -0.027302 -0.019566
v -0.142916 -0.003548 -0.256319
v -0.124782 0.020288 -0.272288
v -0.010407 -0.027302 -0.019566
v -0.124782 0.020288 -0.272288
v 0.068928 0.076981 -0.089430
v -0.022757 0.075275 -0.038286
v -0.010407 -0.027302 -0.019566
v 0.068928 0.076981 -0.089430
v -0.145739 0.019898 -0.260598
v -0.124782 0.020288 -0.272288
v -0.142916 -0.003548 -0.256319
v 0.000107 -0.007650 -0.149805
v -0.037989 0.994044 -0.175951
v 0.070142 1.001342 -0.113665
v 0.000107 -0.007650 -0.149805
v 0.070142 1.001342 -0.113665
v 0.129864 0.001108 -0.075061
v 0.000000 0.000000 0.000000
v 0.000107 -0.007650 -0.149805
v 0.129864 0.001108 -0.075061
v -0.038078 1.000419 -0.051113
v 0.070142 1.001342 -0.113665
v -0.037989 0.994044 -0.175951
v 0.129864 0.001108 -0.075061
v 0.070142 1.001342 -0.113665
v 0.070052 1.007717 0.011173
v 0.129864 0.001108 -0.075061
v 0.070052 1.007717 0.011173
v 0.129756 0.008758 0.074743
v 0.000000 0.000000 0.000000
v 0.129864 0.001108 -0.075061
v 0.129756 0.008758 0.074743
v -0.038078 1.000419 -0.051113
v 0.070052 1.007717 0.011173
v 0.070142 1.001342 -0.113665
v 0.129756 0.008758 0.074743
v 0.070052 1.007717 0.011173
v -0.038167 1.006794 0.073724
v 0.129756 0.008758 0.074743
v -0.038167 1.006794 0.073724
v -0.000107 0.007650 0.149805
v 0.000000 0.000000 0.000000
v 0.129756 0.008758 0.074743
v -0.000107 0.007650 0.149805
v -0.038078 1.000419 -0.051113
v -0.038167 1.006794 0.073724
v 0.070052 1.007717 0.011173
v -0.000107 0.007650 0.149805
v -0.038167 1.006794 0.073724
v -0.146298 0.999496 0.011438
v -0.000107 0.007650 0.149805
v -0.146298 0.999496 0.011438
v -0.129864 -0.001108 0.075061
v 0.000000 0.000000 0.000000
v -0.000107 0.007650 0.149805
v -0.129864 -0.001108 0.075061
v -0.038078 1.000419 -0.051113
v -0.146298 0.999496 0.011438
v -0.038167 1.006794 0.073724
v -0.129864 -0.001108 0.075061
v -0.146298 0.999496 0.011438
v -0.146208 0.993121 -0.113400
v -0.129864 -0.001108 0.075061
v -0.146208 0.993121 -0.113400
v -0.129756 -0.008758 -0.074743
v 0.000000 0.000000 0.000000
v -0.129864 -0.001108 0.075061
v -0.129756 -0.008758 -0.074743
v -0.038078 1.000419 -0.051113
v -0.146208 0.993121 -0.113400
v -0.146298 0.999496 0.011438
v -0.129756 -0.008758 -0.074743
v -0.146208 0.993121 -0.113400
v -0.037989 0.994044 -0.175951
v -0.129756 -0.008758 -0.074743
v -0.037989 0.994044 -0.175951
v 0.000107 -0.007650 -0.149805
v 0.000000 0.000000 0.000000
v -0.129756 -0.008758 -0.074743
v 0.000107 -0.007650 -0.149805
v -0.038078 1.000419 -0.051113
v -0.037989 0.994044 -0.175951
v -0.146208 0.993121 -0.113400
f 1 2 3
f 4 5 6
f 7 8 9
f 10 11 12
f 13 14 15
f 16 17 18
f 19 20 21
f 22 23 24
f 25 26 27
f 28 29 30
f 31 32 33
f 34 35 36
f 37 38 39
f 40 41 42
f 43 44 45
f 46 47 48
f 49 50 51
f 52 53 54
f 55 56 57
f 58 59 60
f 61 62 63
f 64 65 66
f 67 68 69
f 70 71 72
f 73 74 75
f 76 77 78
f 79 80 81
f 82 83 84
f 85 86 87
f 88 89 90
f 91 92 93
f 94 95 96
f 97 98 99
f 100 101 102
f 103 104 105
f 106 107 108
f 109 110 111
f 112 113 114
f 115 116 117
f 118 119 120
f 121 122 123
f 124 125 126
f 127 128 129
f 130 131 132
f 133 134 135
f 136 137 138
f 139 140 141
f 142 143 144
f 145 146 147
f 148 149 150
f 151 152 153
f 154 155 156
f 157 158 159
f 160 161 162
f 163 164 165
f 166 167 168
f 169 170 171
f 172 173 174
f 175 176 177
f 178 179 180
f 181 182 183
f 184 185 186
f 187 188 189
f 190 191 192
f 193 194 195
f 196 197 198
f 199 200 201
f 202 203 204
f 205 206 207
f 208 209 210
f 211 212 213
f 214 215 216

o PalmLightLeaves
v -0.040554 1.057352 -0.035484
v 0.088349 1.081069 0.106199
v 0.116940 1.084493 -0.124405
v -0.040554 1.057352 -0.035484
v 0.116940 1.084493 -0.124405
v -0.036869 1.057794 -0.065203
v -0.040554 1.057352 -0.035484
v 0.116940 1.084493 -0.124405
v 0.088349 1.081069 0.106199
v -0.040554 1.057352 -0.035484
v -0.036869 1.057794 -0.065203
v 0.116940 1.084493 -0.124405
v 0.088349 1.081069 0.106199
v 0.223493 1.069870 0.200257
v 0.267477 1.075137 -0.154500
v 0.088349 1.081069 0.106199
v 0.267477 1.075137 -0.154500
v 0.116940 1.084493 -0.124405
v 0.088349 1.081069 0.106199
v 0.267477 1.075137 -0.154500
v 0.223493 1.069870 0.200257
v 0.088349 1.081069 0.106199
v 0.116940 1.084493 -0.124405
v 0.267477 1.075137 -0.154500
v 0.223493 1.069870 0.200257
v 0.368581 1.015864 0.217444
v 0.412565 1.021132 -0.137314
v 0.223493 1.069870 0.200257
v 0.412565 1.021132 -0.137314
v 0.267477 1.075137 -0.154500
v 0.223493 1.069870 0.200257
v 0.412565 1.021132 -0.137314
v 0.368581 1.015864 0.217444
v 0.223493 1.069870 0.200257
v 0.267477 1.075137 -0.154500
v 0.412565 1.021132 -0.137314
v 0.368581 1.015864 0.217444
v 0.523614 0.919051 0.157758
v 0.552205 0.922475 -0.072846
v 0.368581 1.015864 0.217444
v 0.552205 0.922475 -0.072846
v 0.412565 1.021132 -0.137314
v 0.368581 1.015864 0.217444
v 0.552205 0.922475 -0.072846
v 0.523614 0.919051 0.157758
v 0.368581 1.015864 0.217444
v 0.412565 1.021132 -0.137314
v 0.552205 0.922475 -0.072846
v 0.523614 0.919051 0.157758
v 0.684887 0.787323 0.050449
v 0.688572 0.787764 0.020730
v 0.523614 0.919051 0.157758
v 0.688572 0.787764 0.020730
v 0.552205 0.922475 -0.072846
v 0.523614 0.919051 0.157758
v 0.688572 0.787764 0.020730
v 0.684887 0.787323 0.050449
v 0.523614 0.919051 0.157758
v 0.552205 0.922475 -0.072846
v 0.688572 0.787764 0.020730
v -0.052994 1.073723 -0.042752
v -0.119691 1.092958 0.166082
v 0.099132 1.096926 0.051702
v -0.052994 1.073723 -0.042752
v 0.099132 1.096926 0.051702
v -0.024793 1.074234 -0.057493
v -0.052994 1.073723 -0.042752
v 0.099132 1.096926 0.051702
v -0.119691 1.092958 0.166082
v -0.052994 1.073723 -0.042752
v -0.024793 1.074234 -0.057493
v 0.099132 1.096926 0.051702
v -0.119691 1.092958 0.166082
v -0.133323 1.074721 0.346884
v 0.203311 1.080825 0.170923
v -0.119691 1.092958 0.166082
v 0.203311 1.080825 0.170923
v 0.099132 1.096926 0.051702
v -0.119691 1.092958 0.166082
v 0.203311 1.080825 0.170923
v -0.133323 1.074721 0.346884
v -0.119691 1.092958 0.166082
v 0.099132 1.096926 0.051702
v 0.203311 1.080825 0.170923
v -0.133323 1.074721 0.346884
v -0.061266 1.011276 0.482537
v 0.275368 1.017380 0.306576
v -0.133323 1.074721 0.346884
v 0.275368 1.017380 0.306576
v 0.203311 1.080825 0.170923
v -0.133323 1.074721 0.346884
v 0.275368 1.017380 0.306576
v -0.061266 1.011276 0.482537
v -0.133323 1.074721 0.346884
v 0.203311 1.080825 0.170923
v 0.275368 1.017380 0.306576
v -0.061266 1.011276 0.482537
v 0.096480 0.902623 0.573040
v 0.315303 0.906591 0.458660
v -0.061266 1.011276 0.482537
v 0.315303 0.906591 0.458660
v 0.275368 1.017380 0.306576
v -0.061266 1.011276 0.482537
v 0.315303 0.906591 0.458660
v 0.096480 0.902623 0.573040
v -0.061266 1.011276 0.482537
v 0.275368 1.017380 0.306576
v 0.315303 0.906591 0.458660
v 0.096480 0.902623 0.573040
v 0.307291 0.756497 0.635511
v 0.335492 0.757008 0.620770
v 0.096480 0.902623 0.573040
v 0.335492 0.757008 0.620770
v 0.315303 0.906591 0.458660
v 0.096480 0.902623 0.573040
v 0.335492 0.757008 0.620770
v 0.307291 0.756497 0.635511
v 0.096480 0.902623 0.573040
v 0.315303 0.906591 0.458660
v 0.335492 0.757008 0.620770
v -0.050018 1.090435 -0.062714
v -0.226289 1.109266 -0.018418
v -0.056471 1.108470 0.180431
v -0.050018 1.090435 -0.062714
v -0.056471 1.108470 0.180431
v -0.028133 1.090333 -0.037088
v -0.050018 1.090435 -0.062714
v -0.056471 1.108470 0.180431
v -0.226289 1.109266 -0.018418
v -0.050018 1.090435 -0.062714
v -0.028133 1.090333 -0.037088
v -0.056471 1.108470 0.180431
v -0.226289 1.109266 -0.018418
v -0.382049 1.086763 0.048805
v -0.120802 1.085538 0.354712
v -0.226289 1.109266 -0.018418
v -0.120802 1.085538 0.354712
v -0.056471 1.108470 0.180431
v -0.226289 1.109266 -0.018418
v -0.120802 1.085538 0.354712
v -0.382049 1.086763 0.048805
v -0.226289 1.109266 -0.018418
v -0.056471 1.108470 0.180431
v -0.120802 1.085538 0.354712
v -0.382049 1.086763 0.048805
v -0.504811 1.014543 0.153356
v -0.243564 1.013319 0.459263
v -0.382049 1.086763 0.048805
v -0.243564 1.013319 0.459263
v -0.120802 1.085538 0.354712
v -0.382049 1.086763 0.048805
v -0.243564 1.013319 0.459263
v -0.504811 1.014543 0.153356
v -0.382049 1.086763 0.048805
v -0.120802 1.085538 0.354712
v -0.243564 1.013319 0.459263
v -0.504811 1.014543 0.153356
v -0.594575 0.892607 0.295233
v -0.424756 0.891811 0.494083
v -0.504811 1.014543 0.153356
v -0.424756 0.891811 0.494083
v -0.243564 1.013319 0.459263
v -0.504811 1.014543 0.153356
v -0.424756 0.891811 0.494083
v -0.594575 0.892607 0.295233
v -0.504811 1.014543 0.153356
v -0.243564 1.013319 0.459263
v -0.424756 0.891811 0.494083
v -0.594575 0.892607 0.295233
v -0.663828 0.729337 0.460038
v -0.641943 0.729234 0.485664
v -0.594575 0.892607 0.295233
v -0.641943 0.729234 0.485664
v -0.424756 0.891811 0.494083
v -0.594575 0.892607 0.295233
v -0.641943 0.729234 0.485664
v -0.663828 0.729337 0.460038
v -0.594575 0.892607 0.295233
v -0.424756 0.891811 0.494083
v -0.641943 0.729234 0.485664
v -0.031037 1.107030 -0.060746
v -0.117871 1.134331 -0.230489
v -0.245443 1.130603 -0.058756
v -0.031037 1.107030 -0.060746
v -0.245443 1.130603 -0.058756
v -0.047478 1.106549 -0.038614
v -0.031037 1.107030 -0.060746
v -0.245443 1.130603 -0.058756
v -0.117871 1.134331 -0.230489
v -0.031037 1.107030 -0.060746
v -0.047478 1.106549 -0.038614
v -0.245443 1.130603 -0.058756
v -0.117871 1.134331 -0.230489
v -0.223694 1.129014 -0.374623
v -0.419949 1.123278 -0.110432
v -0.117871 1.134331 -0.230489
v -0.419949 1.123278 -0.110432
v -0.245443 1.130603 -0.058756
v -0.117871 1.134331 -0.230489
v -0.419949 1.123278 -0.110432
v -0.223694 1.129014 -0.374623
v -0.117871 1.134331 -0.230489
v -0.245443 1.130603 -0.058756
v -0.419949 1.123278 -0.110432
v -0.223694 1.129014 -0.374623
v -0.360370 1.082405 -0.477165
v -0.556625 1.076669 -0.212974
v -0.223694 1.129014 -0.374623
v -0.556625 1.076669 -0.212974
v -0.419949 1.123278 -0.110432
v -0.223694 1.129014 -0.374623
v -0.556625 1.076669 -0.212974
v -0.360370 1.082405 -0.477165
v -0.223694 1.129014 -0.374623
v -0.419949 1.123278 -0.110432
v -0.556625 1.076669 -0.212974
v -0.360370 1.082405 -0.477165
v -0.527898 0.994504 -0.538116
v -0.655471 0.990775 -0.366383
v -0.360370 1.082405 -0.477165
v -0.655471 0.990775 -0.366383
v -0.556625 1.076669 -0.212974
v -0.360370 1.082405 -0.477165
v -0.655471 0.990775 -0.366383
v -0.527898 0.994504 -0.538116
v -0.360370 1.082405 -0.477165
v -0.556625 1.076669 -0.212974
v -0.655471 0.990775 -0.366383
v -0.527898 0.994504 -0.538116
v -0.714416 0.873984 -0.573457
v -0.730857 0.873503 -0.551325
v -0.527898 0.994504 -0.538116
v -0.730857 0.873503 -0.551325
v -0.655471 0.990775 -0.366383
v -0.527898 0.994504 -0.538116
v -0.730857 0.873503 -0.551325
v -0.714416 0.873984 -0.573457
v -0.527898 0.994504 -0.538116
v -0.655471 0.990775 -0.366383
v -0.730857 0.873503 -0.551325
v -0.025958 1.123265 -0.043538
v 0.137674 1.150785 -0.127748
v -0.071545 1.149703 -0.219646
v -0.025958 1.123265 -0.043538
v -0.071545 1.149703 -0.219646
v -0.052921 1.123125 -0.055381
v -0.025958 1.123265 -0.043538
v -0.071545 1.149703 -0.219646
v 0.137674 1.150785 -0.127748
v -0.025958 1.123265 -0.043538
v -0.052921 1.123125 -0.055381
v -0.071545 1.149703 -0.219646
v 0.137674 1.150785 -0.127748
v 0.261098 1.143230 -0.230259
v -0.060762 1.141565 -0.371633
v 0.137674 1.150785 -0.127748
v -0.060762 1.141565 -0.371633
v -0.071545 1.149703 -0.219646
v 0.137674 1.150785 -0.127748
v -0.060762 1.141565 -0.371633
v 0.261098 1.143230 -0.230259
v 0.137674 1.150785 -0.127748
v -0.071545 1.149703 -0.219646
v -0.060762 1.141565 -0.371633
v 0.261098 1.143230 -0.230259
v 0.319318 1.092145 -0.362203
v -0.002542 1.090480 -0.503577
v 0.261098 1.143230 -0.230259
v -0.002542 1.090480 -0.503577
v -0.060762 1.141565 -0.371633
v 0.261098 1.143230 -0.230259
v -0.002542 1.090480 -0.503577
v 0.319318 1.092145 -0.362203
v 0.261098 1.143230 -0.230259
v -0.060762 1.141565 -0.371633
v -0.002542 1.090480 -0.503577
v 0.319318 1.092145 -0.362203
v 0.312333 0.997531 -0.523580
v 0.103113 0.996449 -0.615478
v 0.319318 1.092145 -0.362203
v 0.103113 0.996449 -0.615478
v -0.002542 1.090480 -0.503577
v 0.319318 1.092145 -0.362203
v 0.103113 0.996449 -0.615478
v 0.312333 0.997531 -0.523580
v 0.319318 1.092145 -0.362203
v -0.002542 1.090480 -0.503577
v 0.103113 0.996449 -0.615478
v 0.312333 0.997531 -0.523580
v 0.265140 0.867841 -0.703258
v 0.238177 0.867702 -0.715101
v 0.312333 0.997531 -0.523580
v 0.238177 0.867702 -0.715101
v 0.103113 0.996449 -0.615478
v 0.312333 0.997531 -0.523580
v 0.238177 0.867702 -0.715101
v 0.265140 0.867841 -0.703258
v 0.312333 0.997531 -0.523580
v 0.103113 0.996449 -0.615478
v 0.238177 0.867702 -0.715101
f 217 218 219
f 220 221 222
f 223 224 225
f 226 227 228
f 229 230 231
f 232 233 234
f 235 236 237
f 238 239 240
f 241 242 243
f 244 245 246
f 247 248 249
f 250 251 252
f 253 254 255
f 256 257 258
f 259 260 261
f 262 263 264
f 265 266 267
f 268 269 270
f 271 272 273
f 274 275 276
f 277 278 279
f 280 281 282
f 283 284 285
f 286 287 288
f 289 290 291
f 292 293 294
f 295 296 297
f 298 299 300
f 301 302 303
f 304 305 306
f 307 308 309
f 310 311 312
f 313 314 315
f 316 317 318
f 319 320 321
f 322 323 324
f 325 326 327
f 328 329 330
f 331 332 333
f 334 335 336
f 337 338 339
f 340 341 342
f 343 344 345
f 346 347 348
f 349 350 351
f 352 353 354
f 355 356 357
f 358 359 360
f 361 362 363
f 364 365 366
f 367 368 369
f 370 371 372
f 373 374 375
f 376 377 378
f 379 380 381
f 382 383 384
f 385 386 387
f 388 389 390
f 391 392 393
f 394 395 396
f 397 398 399
f 400 401 402
f 403 404 405
f 406 407 408
f 409 410 411
f 412 413 414
f 415 416 417
f 418 419 420
f 421 422 423
f 424 425 426
f 427 428 429
f 430 431 432
f 433 434 435
f 436 437 438
f 439 440 441
f 442 443 444
f 445 446 447
f 448 449 450
f 451 452 453
f 454 455 456
f 457 458 459
f 460 461 462
f 463 464 465
f 466 467 468
f 469 470 471
f 472 473 474
f 475 476 477
f 478 479 480
f 481 482 483
f 484 485 486
f 487 488 489
f 490 491 492
f 493 494 495
f 496 497 498
f 499 500 501
f 502 503 504
f 505 506 507
f 508 509 510
f 511 512 513
f 514 515 516

o PalmDarkLeaves
v -0.042154 1.021463 -0.037884
v 0.048498 1.039464 0.136927
v 0.108097 1.042831 -0.063935
v -0.042154 1.021463 -0.037884
v 0.108097 1.042831 -0.063935
v -0.034473 1.021897 -0.063770
v -0.042154 1.021463 -0.037884
v 0.108097 1.042831 -0.063935
v 0.048498 1.039464 0.136927
v -0.042154 1.021463 -0.037884
v -0.034473 1.021897 -0.063770
v 0.108097 1.042831 -0.063935
v 0.048498 1.039464 0.136927
v 0.155024 1.013029 0.259320
v 0.246710 1.018210 -0.049683
v 0.048498 1.039464 0.136927
v 0.246710 1.018210 -0.049683
v 0.108097 1.042831 -0.063935
v 0.048498 1.039464 0.136927
v 0.246710 1.018210 -0.049683
v 0.155024 1.013029 0.259320
v 0.048498 1.039464 0.136927
v 0.108097 1.042831 -0.063935
v 0.246710 1.018210 -0.049683
v 0.155024 1.013029 0.259320
v 0.287018 0.934373 0.297166
v 0.378704 0.939553 -0.011837
v 0.155024 1.013029 0.259320
v 0.378704 0.939553 -0.011837
v 0.246710 1.018210 -0.049683
v 0.155024 1.013029 0.259320
v 0.378704 0.939553 -0.011837
v 0.287018 0.934373 0.297166
v 0.155024 1.013029 0.259320
v 0.246710 1.018210 -0.049683
v 0.378704 0.939553 -0.011837
v 0.287018 0.934373 0.297166
v 0.444478 0.803494 0.250464
v 0.504077 0.806861 0.049602
v 0.287018 0.934373 0.297166
v 0.504077 0.806861 0.049602
v 0.378704 0.939553 -0.011837
v 0.287018 0.934373 0.297166
v 0.504077 0.806861 0.049602
v 0.444478 0.803494 0.250464
v 0.287018 0.934373 0.297166
v 0.378704 0.939553 -0.011837
v 0.504077 0.806861 0.049602
v 0.444478 0.803494 0.250464
v 0.617812 0.628181 0.151345
v 0.625493 0.628614 0.125459
v 0.444478 0.803494 0.250464
v 0.625493 0.628614 0.125459
v 0.504077 0.806861 0.049602
v 0.444478 0.803494 0.250464
v 0.625493 0.628614 0.125459
v 0.617812 0.628181 0.151345
v 0.444478 0.803494 0.250464
v 0.504077 0.806861 0.049602
v 0.625493 0.628614 0.125459
v -0.051841 0.983196 -0.047627
v -0.061574 0.998676 0.106382
v 0.154950 1.001854 0.048712
v -0.051841 0.983196 -0.047627
v 0.154950 1.001854 0.048712
v -0.023937 0.983606 -0.055059
v -0.051841 0.983196 -0.047627
v 0.154950 1.001854 0.048712
v -0.061574 0.998676 0.106382
v -0.051841 0.983196 -0.047627
v -0.023937 0.983606 -0.055059
v 0.154950 1.001854 0.048712
v -0.061574 0.998676 0.106382
v -0.052750 0.965742 0.254937
v 0.280348 0.970631 0.166218
v -0.061574 0.998676 0.106382
v 0.280348 0.970631 0.166218
v 0.154950 1.001854 0.048712
v -0.061574 0.998676 0.106382
v 0.280348 0.970631 0.166218
v -0.052750 0.965742 0.254937
v -0.061574 0.998676 0.106382
v 0.154950 1.001854 0.048712
v 0.280348 0.970631 0.166218
v -0.052750 0.965742 0.254937
v -0.014142 0.876233 0.394959
v 0.318956 0.881122 0.306240
v -0.052750 0.965742 0.254937
v 0.318956 0.881122 0.306240
v 0.280348 0.970631 0.166218
v -0.052750 0.965742 0.254937
v 0.318956 0.881122 0.306240
v -0.014142 0.876233 0.394959
v -0.052750 0.965742 0.254937
v 0.280348 0.970631 0.166218
v 0.318956 0.881122 0.306240
v -0.014142 0.876233 0.394959
v 0.054251 0.730150 0.526448
v 0.270775 0.733328 0.468778
v -0.014142 0.876233 0.394959
v 0.270775 0.733328 0.468778
v 0.318956 0.881122 0.306240
v -0.014142 0.876233 0.394959
v 0.270775 0.733328 0.468778
v 0.054251 0.730150 0.526448
v -0.014142 0.876233 0.394959
v 0.318956 0.881122 0.306240
v 0.270775 0.733328 0.468778
v 0.054251 0.730150 0.526448
v 0.141199 0.535653 0.652483
v 0.169104 0.536063 0.645051
v 0.054251 0.730150 0.526448
v 0.169104 0.536063 0.645051
v 0.270775 0.733328 0.468778
v 0.054251 0.730150 0.526448
v 0.169104 0.536063 0.645051
v 0.141199 0.535653 0.652483
v 0.054251 0.730150 0.526448
v 0.270775 0.733328 0.468778
v 0.169104 0.536063 0.645051
v -0.044419 0.995237 -0.065167
v -0.221647 1.016619 -0.077862
v -0.122324 1.014797 0.139126
v -0.044419 0.995237 -0.065167
v -0.122324 1.014797 0.139126
v -0.031619 0.995002 -0.037203
v -0.044419 0.995237 -0.065167
v -0.122324 1.014797 0.139126
v -0.221647 1.016619 -0.077862
v -0.044419 0.995237 -0.065167
v -0.031619 0.995002 -0.037203
v -0.122324 1.014797 0.139126
v -0.221647 1.016619 -0.077862
v -0.384870 1.000098 -0.061381
v -0.232074 0.997294 0.272429
v -0.221647 1.016619 -0.077862
v -0.232074 0.997294 0.272429
v -0.122324 1.014797 0.139126
v -0.221647 1.016619 -0.077862
v -0.232074 0.997294 0.272429
v -0.384870 1.000098 -0.061381
v -0.221647 1.016619 -0.077862
v -0.122324 1.014797 0.139126
v -0.232074 0.997294 0.272429
v -0.384870 1.000098 -0.061381
v -0.525600 0.937195 0.002507
v -0.372804 0.934392 0.336318
v -0.384870 1.000098 -0.061381
v -0.372804 0.934392 0.336318
v -0.232074 0.997294 0.272429
v -0.384870 1.000098 -0.061381
v -0.372804 0.934392 0.336318
v -0.525600 0.937195 0.002507
v -0.384870 1.000098 -0.061381
v -0.232074 0.997294 0.272429
v -0.372804 0.934392 0.336318
v -0.525600 0.937195 0.002507
v -0.643836 0.827912 0.113803
v -0.544514 0.826090 0.330791
v -0.525600 0.937195 0.002507
v -0.544514 0.826090 0.330791
v -0.372804 0.934392 0.336318
v -0.525600 0.937195 0.002507
v -0.544514 0.826090 0.330791
v -0.643836 0.827912 0.113803
v -0.525600 0.937195 0.002507
v -0.372804 0.934392 0.336318
v -0.544514 0.826090 0.330791
v -0.643836 0.827912 0.113803
v -0.748068 0.680725 0.254275
v -0.735268 0.680490 0.282239
v -0.643836 0.827912 0.113803
v -0.735268 0.680490 0.282239
v -0.544514 0.826090 0.330791
v -0.643836 0.827912 0.113803
v -0.735268 0.680490 0.282239
v -0.748068 0.680725 0.254275
v -0.643836 0.827912 0.113803
v -0.544514 0.826090 0.330791
v -0.735268 0.680490 0.282239
v -0.027973 1.007044 -0.057959
v -0.042491 1.030925 -0.247459
v -0.200418 1.027724 -0.139880
v -0.027973 1.007044 -0.057959
v -0.200418 1.027724 -0.139880
v -0.048325 1.006631 -0.044095
v -0.027973 1.007044 -0.057959
v -0.200418 1.027724 -0.139880
v -0.042491 1.030925 -0.247459
v -0.027973 1.007044 -0.057959
v -0.048325 1.006631 -0.044095
v -0.200418 1.027724 -0.139880
v -0.042491 1.030925 -0.247459
v -0.086563 1.013168 -0.417070
v -0.329516 1.008244 -0.251571
v -0.042491 1.030925 -0.247459
v -0.329516 1.008244 -0.251571
v -0.200418 1.027724 -0.139880
v -0.042491 1.030925 -0.247459
v -0.329516 1.008244 -0.251571
v -0.086563 1.013168 -0.417070
v -0.042491 1.030925 -0.247459
v -0.200418 1.027724 -0.139880
v -0.329516 1.008244 -0.251571
v -0.086563 1.013168 -0.417070
v -0.178643 0.945076 -0.554270
v -0.421596 0.940151 -0.388771
v -0.086563 1.013168 -0.417070
v -0.421596 0.940151 -0.388771
v -0.329516 1.008244 -0.251571
v -0.086563 1.013168 -0.417070
v -0.421596 0.940151 -0.388771
v -0.178643 0.945076 -0.554270
v -0.086563 1.013168 -0.417070
v -0.329516 1.008244 -0.251571
v -0.421596 0.940151 -0.388771
v -0.178643 0.945076 -0.554270
v -0.318732 0.826645 -0.659059
v -0.476659 0.823444 -0.551479
v -0.178643 0.945076 -0.554270
v -0.476659 0.823444 -0.551479
v -0.421596 0.940151 -0.388771
v -0.178643 0.945076 -0.554270
v -0.476659 0.823444 -0.551479
v -0.318732 0.826645 -0.659059
v -0.178643 0.945076 -0.554270
v -0.421596 0.940151 -0.388771
v -0.476659 0.823444 -0.551479
v -0.318732 0.826645 -0.659059
v -0.488374 0.666579 -0.743959
v -0.508727 0.666166 -0.730095
v -0.318732 0.826645 -0.659059
v -0.508727 0.666166 -0.730095
v -0.476659 0.823444 -0.551479
v -0.318732 0.826645 -0.659059
v -0.508727 0.666166 -0.730095
v -0.488374 0.666579 -0.743959
v -0.318732 0.826645 -0.659059
v -0.476659 0.823444 -0.551479
v -0.508727 0.666166 -0.730095
v -0.027079 1.018585 -0.043786
v 0.155781 1.040990 -0.086577
v -0.018039 1.040543 -0.196505
v -0.027079 1.018585 -0.043786
v -0.018039 1.040543 -0.196505
v -0.049479 1.018527 -0.057953
v -0.027079 1.018585 -0.043786
v -0.018039 1.040543 -0.196505
v 0.155781 1.040990 -0.086577
v -0.027079 1.018585 -0.043786
v -0.049479 1.018527 -0.057953
v -0.018039 1.040543 -0.196505
v 0.155781 1.040990 -0.086577
v 0.296610 1.018882 -0.156859
v 0.029208 1.018195 -0.325972
v 0.155781 1.040990 -0.086577
v 0.029208 1.018195 -0.325972
v -0.018039 1.040543 -0.196505
v 0.155781 1.040990 -0.086577
v 0.029208 1.018195 -0.325972
v 0.296610 1.018882 -0.156859
v 0.155781 1.040990 -0.086577
v -0.018039 1.040543 -0.196505
v 0.029208 1.018195 -0.325972
v 0.296610 1.018882 -0.156859
v 0.369220 0.943870 -0.271365
v 0.101817 0.943183 -0.440478
v 0.296610 1.018882 -0.156859
v 0.101817 0.943183 -0.440478
v 0.029208 1.018195 -0.325972
v 0.296610 1.018882 -0.156859
v 0.101817 0.943183 -0.440478
v 0.369220 0.943870 -0.271365
v 0.296610 1.018882 -0.156859
v 0.029208 1.018195 -0.325972
v 0.101817 0.943183 -0.440478
v 0.369220 0.943870 -0.271365
v 0.373610 0.815953 -0.430096
v 0.199790 0.815507 -0.540024
v 0.369220 0.943870 -0.271365
v 0.199790 0.815507 -0.540024
v 0.101817 0.943183 -0.440478
v 0.369220 0.943870 -0.271365
v 0.199790 0.815507 -0.540024
v 0.373610 0.815953 -0.430096
v 0.369220 0.943870 -0.271365
v 0.101817 0.943183 -0.440478
v 0.199790 0.815507 -0.540024
v 0.373610 0.815953 -0.430096
v 0.335970 0.643524 -0.616317
v 0.313569 0.643467 -0.630484
v 0.373610 0.815953 -0.430096
v 0.313569 0.643467 -0.630484
v 0.199790 0.815507 -0.540024
v 0.373610 0.815953 -0.430096
v 0.313569 0.643467 -0.630484
v 0.335970 0.643524 -0.616317
v 0.373610 0.815953 -0.430096
v 0.199790 0.815507 -0.540024
v 0.313569 0.643467 -0.630484
f 517 518 519
f 520 521 522
f 523 524 525
f 526 527 528
f 529 530 531
f 532 533 534
f 535 536 537
f 538 539 540
f 541 542 543
f 544 545 546
f 547 548 549
f 550 551 552
f 553 554 555
f 556 557 558
f 559 560 561
f 562 563 564
f 565 566 567
f 568 569 570
f 571 572 573
f 574 575 576
f 577 578 579
f 580 581 582
f 583 584 585
f 586 587 588
f 589 590 591
f 592 593 594
f 595 596 597
f 598 599 600
f 601 602 603
f 604 605 606
f 607 608 609
f 610 611 612
f 613 614 615
f 616 617 618
f 619 620 621
f 622 623 624
f 625 626 627
f 628 629 630
f 631 632 633
f 634 635 636
f 637 638 639
f 640 641 642
f 643 644 645
f 646 647 648
f 649 650 651
f 652 653 654
f 655 656 657
f 658 659 660
f 661 662 663
f 664 665 666
f 667 668 669
f 670 671 672
f 673 674 675
f 676 677 678
f 679 680 681
f 682 683 684
f 685 686 687
f 688 689 690
f 691 692 693
f 694 695 696
f 697 698 699
f 700 701 702
f 703 704 705
f 706 707 708
f 709 710 711
f 712 713 714
f 715 716 717
f 718 719 720
f 721 722 723
f 724 725 726
f 727 728 729
f 730 731 732
f 733 734 735
f 736 737 738
f 739 740 741
f 742 743 744
f 745 746 747
f 748 749 750
f 751 752 753
f 754 755 756
f 757 758 759
f 760 761 762
f 763 764 765
f 766 767 768
f 769 770 771
f 772 773 774
f 775 776 777
f 778 779 780
f 781 782 783
f 784 785 786
f 787 788 789
f 790 791 792
f 793 794 795
f 796 797 798
f 799 800 801
f 802 803 804
f 805 806 807
f 808 809 810
f 811 812 813
f 814 815 816
