# Pyramida editable prop source
# units: 1 OBJ unit = 1 Pyramida World Unit = 1 Blender metre

o PalmTrunk
v 0.060916 0.074267 0.097204
v 0.240727 0.020592 -0.015561
v 0.243186 0.043996 -0.040019
v 0.060916 0.074267 0.097204
v 0.243186 0.043996 -0.040019
v 0.071675 0.176660 -0.009800
v 0.043645 0.075529 -0.006358
v 0.060916 0.074267 0.097204
v 0.071675 0.176660 -0.009800
v 0.236780 0.020881 -0.039232
v 0.243186 0.043996 -0.040019
v 0.240727 0.020592 -0.015561
v 0.071675 0.176660 -0.009800
v 0.243186 0.043996 -0.040019
v 0.232832 0.021169 -0.062903
v 0.071675 0.176660 -0.009800
v 0.232832 0.021169 -0.062903
v 0.026375 0.076791 -0.109920
v 0.043645 0.075529 -0.006358
v 0.071675 0.176660 -0.009800
v 0.026375 0.076791 -0.109920
v 0.236780 0.020881 -0.039232
v 0.232832 0.021169 -0.062903
v 0.243186 0.043996 -0.040019
v 0.026375 0.076791 -0.109920
v 0.232832 0.021169 -0.062903
v 0.230373 -0.002235 -0.038445
v 0.026375 0.076791 -0.109920
v 0.230373 -0.002235 -0.038445
v 0.015615 -0.025602 -0.002916
v 0.043645 0.075529 -0.006358
v 0.026375 0.076791 -0.109920
v 0.015615 -0.025602 -0.002916
v 0.236780 0.020881 -0.039232
v 0.230373 -0.002235 -0.038445
v 0.232832 0.021169 -0.062903
v 0.015615 -0.025602 -0.002916
v 0.230373 -0.002235 -0.038445
v 0.240727 0.020592 -0.015561
v 0.015615 -0.025602 -0.002916
v 0.240727 0.020592 -0.015561
v 0.060916 0.074267 0.097204
v 0.043645 0.075529 -0.006358
v 0.015615 -0.025602 -0.002916
v 0.060916 0.074267 0.097204
v 0.236780 0.020881 -0.039232
v 0.240727 0.020592 -0.015561
v 0.230373 -0.002235 -0.038445
v -0.114843 0.073939 -0.004371
v -0.140026 0.013395 0.233235
v -0.121235 0.036631 0.249329
v -0.114843 0.073939 -0.004371
v -0.121235 0.036631 0.249329
v -0.032633 0.175594 0.066039
v -0.020398 0.074235 0.041509
v -0.114843 0.073939 -0.004371
v -0.032633 0.175594 0.066039
v -0.118439 0.013463 0.243722
v -0.121235 0.036631 0.249329
v -0.140026 0.013395 0.233235
v -0.032633 0.175594 0.066039
v -0.121235 0.036631 0.249329
v -0.096851 0.013531 0.254209
v -0.032633 0.175594 0.066039
v -0.096851 0.013531 0.254209
v 0.074047 0.074532 0.087389
v -0.020398 0.074235 0.041509
v -0.032633 0.175594 0.066039
v 0.074047 0.074532 0.087389
v -0.118439 0.013463 0.243722
v -0.096851 0.013531 0.254209
v -0.121235 0.036631 0.249329
v 0.074047 0.074532 0.087389
v -0.096851 0.013531 0.254209
v -0.115642 -0.009705 0.238115
v 0.074047 0.074532 0.087389
v -0.115642 -0.009705 0.238115
v -0.008163 -0.027123 0.016979
v -0.020398 0.074235 0.041509
v 0.074047 0.074532 0.087389
v -0.008163 -0.027123 0.016979
v -0.118439 0.013463 0.243722
v -0.115642 -0.009705 0.238115
v -0.096851 0.013531 0.254209
v -0.008163 -0.027123 0.016979
v -0.115642 -0.009705 0.238115
v -0.140026 0.013395 0.233235
v -0.008163 -0.027123 0.016979
v -0.140026 0.013395 0.233235
v -0.114843 0.073939 -0.004371
v -0.020398 0.074235 0.041509
v -0.008163 -0.027123 0.016979
v -0.114843 0.073939 -0.004371
v -0.118439 0.013463 0.243722
v -0.140026 0.013395 0.233235
v -0.115642 -0.009705 0.238115
v 0.069710 0.076928 -0.088868
v -0.123869 0.020590 -0.275400
v -0.147651 0.043685 -0.268117
v 0.069710 0.076928 -0.088868
v -0.147651 0.043685 -0.268117
v -0.034334 0.177969 -0.057005
v -0.022365 0.075322 -0.038425
v 0.069710 0.076928 -0.088868
v -0.034334 0.177969 -0.057005
v -0.144915 0.020223 -0.263870
v -0.147651 0.043685 -0.268117
v -0.123869 0.020590 -0.275400
v -0.034334 0.177969 -0.057005
v -0.147651 0.043685 -0.268117
v -0.165960 0.019856 -0.252340
v -0.034334 0.177969 -0.057005
v -0.165960 0.019856 -0.252340
v -0.114440 0.073716 0.012019
v -0.022365 0.075322 -0.038425
v -0.034334 0.177969 -0.057005
v -0.114440 0.073716 0.012019
v -0.144915 0.020223 -0.263870
v -0.165960 0.019856 -0.252340
v -0.147651 0.043685 -0.268117
v -0.114440 0.073716 0.012019
v -0.165960 0.019856 -0.252340
v -0.142179 -0.003239 -0.259623
v -0.114440 0.073716 0.012019
v -0.142179 -0.003239 -0.259623
v -0.010395 -0.027326 -0.019844
v -0.022365 0.075322 -0.038425
v -0.114440 0.073716 0.012019
v -0.010395 -0.027326 -0.019844
v -0.144915 0.020223 -0.263870
v -0.142179 -0.003239 -0.259623
v -0.165960 0.019856 -0.252340
v -0.010395 -0.027326 -0.019844
v -0.142179 -0.003239 -0.259623
v -0.123869 0.020590 -0.275400
v -0.010395 -0.027326 -0.019844
v -0.123869 0.020590 -0.275400
v 0.069710 0.076928 -0.088868
v -0.022365 0.075322 -0.038425
v -0.010395 -0.027326 -0.019844
v 0.069710 0.076928 -0.088868
v -0.144915 0.020223 -0.263870
v -0.123869 0.020590 -0.275400
v -0.142179 -0.003239 -0.259623
v 0.000099 -0.008009 -0.149786
v -0.028843 0.993925 -0.178342
v 0.079324 1.000385 -0.116026
v 0.000099 -0.008009 -0.149786
v 0.079324 1.000385 -0.116026
v 0.129899 -0.000257 -0.075007
v 0.000000 0.000000 0.000000
v 0.000099 -0.008009 -0.149786
v 0.129899 -0.000257 -0.075007
v 0.129899 -0.000257 -0.075007
v 0.079324 1.000385 -0.116026
v 0.079241 1.007059 0.008796
v 0.129899 -0.000257 -0.075007
v 0.079241 1.007059 0.008796
v 0.129800 0.007752 0.074779
v 0.000000 0.000000 0.000000
v 0.129899 -0.000257 -0.075007
v 0.129800 0.007752 0.074779
v 0.129800 0.007752 0.074779
v 0.079241 1.007059 0.008796
v -0.029008 1.007273 0.071302
v 0.129800 0.007752 0.074779
v -0.029008 1.007273 0.071302
v -0.000099 0.008009 0.149786
v 0.000000 0.000000 0.000000
v 0.129800 0.007752 0.074779
v -0.000099 0.008009 0.149786
v -0.000099 0.008009 0.149786
v -0.029008 1.007273 0.071302
v -0.137175 1.000813 0.008986
v -0.000099 0.008009 0.149786
v -0.137175 1.000813 0.008986
v -0.129899 0.000257 0.075007
v 0.000000 0.000000 0.000000
v -0.000099 0.008009 0.149786
v -0.129899 0.000257 0.075007
v -0.129899 0.000257 0.075007
v -0.137175 1.000813 0.008986
v -0.137092 0.994139 -0.115836
v -0.129899 0.000257 0.075007
v -0.137092 0.994139 -0.115836
v -0.129800 -0.007752 -0.074779
v 0.000000 0.000000 0.000000
v -0.129899 0.000257 0.075007
v -0.129800 -0.007752 -0.074779
v -0.129800 -0.007752 -0.074779
v -0.137092 0.994139 -0.115836
v -0.028843 0.993925 -0.178342
v -0.129800 -0.007752 -0.074779
v -0.028843 0.993925 -0.178342
v 0.000099 -0.008009 -0.149786
v 0.000000 0.000000 0.000000
v -0.129800 -0.007752 -0.074779
v 0.000099 -0.008009 -0.149786
v -0.028813 0.990944 -0.178146
v -0.064570 1.993740 -0.230795
v 0.021933 2.000679 -0.181105
v -0.028813 0.990944 -0.178146
v 0.021933 2.000679 -0.181105
v 0.079315 0.999619 -0.116034
v -0.064659 2.001464 -0.131094
v 0.021933 2.000679 -0.181105
v -0.064570 1.993740 -0.230795
v 0.079315 0.999619 -0.116034
v 0.021933 2.000679 -0.181105
v 0.021843 2.008404 -0.081403
v 0.079315 0.999619 -0.116034
v 0.021843 2.008404 -0.081403
v 0.079203 1.009274 0.008593
v -0.064659 2.001464 -0.131094
v 0.021843 2.008404 -0.081403
v 0.021933 2.000679 -0.181105
v 0.079203 1.009274 0.008593
v 0.021843 2.008404 -0.081403
v -0.064749 2.009188 -0.031392
v 0.079203 1.009274 0.008593
v -0.064749 2.009188 -0.031392
v -0.029038 1.010255 0.071107
v -0.064659 2.001464 -0.131094
v -0.064749 2.009188 -0.031392
v 0.021843 2.008404 -0.081403
v -0.029038 1.010255 0.071107
v -0.064749 2.009188 -0.031392
v -0.151252 2.002249 -0.081082
v -0.029038 1.010255 0.071107
v -0.151252 2.002249 -0.081082
v -0.137166 1.001580 0.008994
v -0.064659 2.001464 -0.131094
v -0.151252 2.002249 -0.081082
v -0.064749 2.009188 -0.031392
v -0.137166 1.001580 0.008994
v -0.151252 2.002249 -0.081082
v -0.151162 1.994524 -0.180784
v -0.137166 1.001580 0.008994
v -0.151162 1.994524 -0.180784
v -0.137054 0.991925 -0.115633
v -0.064659 2.001464 -0.131094
v -0.151162 1.994524 -0.180784
v -0.151252 2.002249 -0.081082
v -0.137054 0.991925 -0.115633
v -0.151162 1.994524 -0.180784
v -0.064570 1.993740 -0.230795
v -0.137054 0.991925 -0.115633
v -0.064570 1.993740 -0.230795
v -0.028813 0.990944 -0.178146
v -0.064659 2.001464 -0.131094
v -0.064570 1.993740 -0.230795
v -0.151162 1.994524 -0.180784
f 1 2 3
f 4 5 6
f 7 8 9
f 10 11 12
f 13 14 15
f 16 17 18
f 19 20 21
f 22 23 24
f 25 26 27
f 28 29 30
f 31 32 33
f 34 35 36
f 37 38 39
f 40 41 42
f 43 44 45
f 46 47 48
f 49 50 51
f 52 53 54
f 55 56 57
f 58 59 60
f 61 62 63
f 64 65 66
f 67 68 69
f 70 71 72
f 73 74 75
f 76 77 78
f 79 80 81
f 82 83 84
f 85 86 87
f 88 89 90
f 91 92 93
f 94 95 96
f 97 98 99
f 100 101 102
f 103 104 105
f 106 107 108
f 109 110 111
f 112 113 114
f 115 116 117
f 118 119 120
f 121 122 123
f 124 125 126
f 127 128 129
f 130 131 132
f 133 134 135
f 136 137 138
f 139 140 141
f 142 143 144
f 145 146 147
f 148 149 150
f 151 152 153
f 154 155 156
f 157 158 159
f 160 161 162
f 163 164 165
f 166 167 168
f 169 170 171
f 172 173 174
f 175 176 177
f 178 179 180
f 181 182 183
f 184 185 186
f 187 188 189
f 190 191 192
f 193 194 195
f 196 197 198
f 199 200 201
f 202 203 204
f 205 206 207
f 208 209 210
f 211 212 213
f 214 215 216
f 217 218 219
f 220 221 222
f 223 224 225
f 226 227 228
f 229 230 231
f 232 233 234
f 235 236 237
f 238 239 240
f 241 242 243
f 244 245 246
f 247 248 249
f 250 251 252

o PalmLightLeaves
v -0.067197 2.059730 -0.115363
v 0.061061 2.083067 0.029863
v 0.091480 2.086570 -0.201702
v -0.067197 2.059730 -0.115363
v 0.091480 2.086570 -0.201702
v -0.063276 2.060181 -0.145206
v -0.067197 2.059730 -0.115363
v 0.091480 2.086570 -0.201702
v 0.061061 2.083067 0.029863
v -0.067197 2.059730 -0.115363
v -0.063276 2.060181 -0.145206
v 0.091480 2.086570 -0.201702
v 0.061061 2.083067 0.029863
v 0.195986 2.071287 0.126532
v 0.242782 2.076676 -0.229704
v 0.061061 2.083067 0.029863
v 0.242782 2.076676 -0.229704
v 0.091480 2.086570 -0.201702
v 0.061061 2.083067 0.029863
v 0.242782 2.076676 -0.229704
v 0.195986 2.071287 0.126532
v 0.061061 2.083067 0.029863
v 0.091480 2.086570 -0.201702
v 0.242782 2.076676 -0.229704
v 0.195986 2.071287 0.126532
v 0.341562 2.016514 0.144827
v 0.388358 2.021903 -0.211409
v 0.195986 2.071287 0.126532
v 0.388358 2.021903 -0.211409
v 0.242782 2.076676 -0.229704
v 0.195986 2.071287 0.126532
v 0.388358 2.021903 -0.211409
v 0.341562 2.016514 0.144827
v 0.195986 2.071287 0.126532
v 0.242782 2.076676 -0.229704
v 0.388358 2.021903 -0.211409
v 0.341562 2.016514 0.144827
v 0.497789 1.918748 0.084746
v 0.528207 1.922251 -0.146818
v 0.341562 2.016514 0.144827
v 0.528207 1.922251 -0.146818
v 0.388358 2.021903 -0.211409
v 0.341562 2.016514 0.144827
v 0.528207 1.922251 -0.146818
v 0.497789 1.918748 0.084746
v 0.341562 2.016514 0.144827
v 0.388358 2.021903 -0.211409
v 0.528207 1.922251 -0.146818
v 0.497789 1.918748 0.084746
v 0.660682 1.785864 -0.023890
v 0.664602 1.786315 -0.053733
v 0.497789 1.918748 0.084746
v 0.664602 1.786315 -0.053733
v 0.528207 1.922251 -0.146818
v 0.497789 1.918748 0.084746
v 0.664602 1.786315 -0.053733
v 0.660682 1.785864 -0.023890
v 0.497789 1.918748 0.084746
v 0.528207 1.922251 -0.146818
v 0.664602 1.786315 -0.053733
v -0.079620 2.076120 -0.122755
v -0.149743 2.095196 0.087368
v 0.070962 2.098941 -0.025964
v -0.079620 2.076120 -0.122755
v 0.070962 2.098941 -0.025964
v -0.051177 2.076603 -0.137360
v -0.079620 2.076120 -0.122755
v 0.070962 2.098941 -0.025964
v -0.149743 2.095196 0.087368
v -0.079620 2.076120 -0.122755
v -0.051177 2.076603 -0.137360
v 0.070962 2.098941 -0.025964
v -0.149743 2.095196 0.087368
v -0.165785 2.076526 0.269382
v 0.173744 2.082287 0.095032
v -0.149743 2.095196 0.087368
v 0.173744 2.082287 0.095032
v 0.070962 2.098941 -0.025964
v -0.149743 2.095196 0.087368
v 0.173744 2.082287 0.095032
v -0.165785 2.076526 0.269382
v -0.149743 2.095196 0.087368
v 0.070962 2.098941 -0.025964
v 0.173744 2.082287 0.095032
v -0.165785 2.076526 0.269382
v -0.094476 2.012349 0.406129
v 0.245053 2.018110 0.231779
v -0.165785 2.076526 0.269382
v 0.245053 2.018110 0.231779
v 0.173744 2.082287 0.095032
v -0.165785 2.076526 0.269382
v 0.245053 2.018110 0.231779
v -0.094476 2.012349 0.406129
v -0.165785 2.076526 0.269382
v 0.173744 2.082287 0.095032
v 0.245053 2.018110 0.231779
v -0.094476 2.012349 0.406129
v 0.064183 1.902665 0.497608
v 0.284888 1.906409 0.384275
v -0.094476 2.012349 0.406129
v 0.284888 1.906409 0.384275
v 0.245053 2.018110 0.231779
v -0.094476 2.012349 0.406129
v 0.284888 1.906409 0.384275
v 0.064183 1.902665 0.497608
v -0.094476 2.012349 0.406129
v 0.245053 2.018110 0.231779
v 0.284888 1.906409 0.384275
v 0.064183 1.902665 0.497608
v 0.276924 1.755234 0.560978
v 0.305367 1.755717 0.546372
v 0.064183 1.902665 0.497608
v 0.305367 1.755717 0.546372
v 0.284888 1.906409 0.384275
v 0.064183 1.902665 0.497608
v 0.305367 1.755717 0.546372
v 0.276924 1.755234 0.560978
v 0.064183 1.902665 0.497608
v 0.284888 1.906409 0.384275
v 0.305367 1.755717 0.546372
v -0.076459 2.092839 -0.142781
v -0.255239 2.117769 -0.101171
v -0.086102 2.116657 0.099810
v -0.076459 2.092839 -0.142781
v -0.086102 2.116657 0.099810
v -0.054661 2.092695 -0.116880
v -0.076459 2.092839 -0.142781
v -0.086102 2.116657 0.099810
v -0.255239 2.117769 -0.101171
v -0.076459 2.092839 -0.142781
v -0.054661 2.092695 -0.116880
v -0.086102 2.116657 0.099810
v -0.255239 2.117769 -0.101171
v -0.413221 2.113094 -0.035600
v -0.153023 2.111384 0.273585
v -0.255239 2.117769 -0.101171
v -0.153023 2.111384 0.273585
v -0.086102 2.116657 0.099810
v -0.255239 2.117769 -0.101171
v -0.153023 2.111384 0.273585
v -0.413221 2.113094 -0.035600
v -0.255239 2.117769 -0.101171
v -0.086102 2.116657 0.099810
v -0.153023 2.111384 0.273585
v -0.413221 2.113094 -0.035600
v -0.537648 2.070407 0.068877
v -0.277450 2.068696 0.378062
v -0.413221 2.113094 -0.035600
v -0.277450 2.068696 0.378062
v -0.153023 2.111384 0.273585
v -0.413221 2.113094 -0.035600
v -0.277450 2.068696 0.378062
v -0.537648 2.070407 0.068877
v -0.413221 2.113094 -0.035600
v -0.153023 2.111384 0.273585
v -0.277450 2.068696 0.378062
v -0.537648 2.070407 0.068877
v -0.628521 1.989707 0.212260
v -0.459384 1.988596 0.413240
v -0.537648 2.070407 0.068877
v -0.459384 1.988596 0.413240
v -0.277450 2.068696 0.378062
v -0.537648 2.070407 0.068877
v -0.459384 1.988596 0.413240
v -0.628521 1.989707 0.212260
v -0.537648 2.070407 0.068877
v -0.277450 2.068696 0.378062
v -0.459384 1.988596 0.413240
v -0.628521 1.989707 0.212260
v -0.698596 1.879403 0.379603
v -0.676799 1.879259 0.405505
v -0.628521 1.989707 0.212260
v -0.676799 1.879259 0.405505
v -0.459384 1.988596 0.413240
v -0.628521 1.989707 0.212260
v -0.676799 1.879259 0.405505
v -0.698596 1.879403 0.379603
v -0.628521 1.989707 0.212260
v -0.459384 1.988596 0.413240
v -0.676799 1.879259 0.405505
v -0.057375 2.109408 -0.140671
v -0.141962 2.136826 -0.313467
v -0.271493 2.133173 -0.141717
v -0.057375 2.109408 -0.140671
v -0.271493 2.133173 -0.141717
v -0.074068 2.108937 -0.118537
v -0.057375 2.109408 -0.140671
v -0.271493 2.133173 -0.141717
v -0.141962 2.136826 -0.313467
v -0.057375 2.109408 -0.140671
v -0.074068 2.108937 -0.118537
v -0.271493 2.133173 -0.141717
v -0.141962 2.136826 -0.313467
v -0.246347 2.131395 -0.460036
v -0.445616 2.125775 -0.195819
v -0.141962 2.136826 -0.313467
v -0.445616 2.125775 -0.195819
v -0.271493 2.133173 -0.141717
v -0.141962 2.136826 -0.313467
v -0.445616 2.125775 -0.195819
v -0.246347 2.131395 -0.460036
v -0.141962 2.136826 -0.313467
v -0.271493 2.133173 -0.141717
v -0.445616 2.125775 -0.195819
v -0.246347 2.131395 -0.460036
v -0.382882 2.084439 -0.564007
v -0.582150 2.078818 -0.299790
v -0.246347 2.131395 -0.460036
v -0.582150 2.078818 -0.299790
v -0.445616 2.125775 -0.195819
v -0.246347 2.131395 -0.460036
v -0.582150 2.078818 -0.299790
v -0.382882 2.084439 -0.564007
v -0.246347 2.131395 -0.460036
v -0.445616 2.125775 -0.195819
v -0.582150 2.078818 -0.299790
v -0.382882 2.084439 -0.564007
v -0.551566 1.995957 -0.625381
v -0.681097 1.992304 -0.453631
v -0.382882 2.084439 -0.564007
v -0.681097 1.992304 -0.453631
v -0.582150 2.078818 -0.299790
v -0.382882 2.084439 -0.564007
v -0.681097 1.992304 -0.453631
v -0.551566 1.995957 -0.625381
v -0.382882 2.084439 -0.564007
v -0.582150 2.078818 -0.299790
v -0.681097 1.992304 -0.453631
v -0.551566 1.995957 -0.625381
v -0.740049 1.874626 -0.660527
v -0.756742 1.874155 -0.638393
v -0.551566 1.995957 -0.625381
v -0.756742 1.874155 -0.638393
v -0.681097 1.992304 -0.453631
v -0.551566 1.995957 -0.625381
v -0.756742 1.874155 -0.638393
v -0.740049 1.874626 -0.660527
v -0.551566 1.995957 -0.625381
v -0.681097 1.992304 -0.453631
v -0.756742 1.874155 -0.638393
v -0.052376 2.125628 -0.123326
v 0.114496 2.152872 -0.205930
v -0.095136 2.152103 -0.299825
v -0.052376 2.125628 -0.123326
v -0.095136 2.152103 -0.299825
v -0.079392 2.125529 -0.135427
v -0.052376 2.125628 -0.123326
v -0.095136 2.152103 -0.299825
v 0.114496 2.152872 -0.205930
v -0.052376 2.125628 -0.123326
v -0.079392 2.125529 -0.135427
v -0.095136 2.152103 -0.299825
v 0.114496 2.152872 -0.205930
v 0.240364 2.144870 -0.307539
v -0.082130 2.143687 -0.451986
v 0.114496 2.152872 -0.205930
v -0.082130 2.143687 -0.451986
v -0.095136 2.152103 -0.299825
v 0.114496 2.152872 -0.205930
v -0.082130 2.143687 -0.451986
v 0.240364 2.144870 -0.307539
v 0.114496 2.152872 -0.205930
v -0.095136 2.152103 -0.299825
v -0.082130 2.143687 -0.451986
v 0.240364 2.144870 -0.307539
v 0.299757 2.093204 -0.439716
v -0.022738 2.092021 -0.584163
v 0.240364 2.144870 -0.307539
v -0.022738 2.092021 -0.584163
v -0.082130 2.143687 -0.451986
v 0.240364 2.144870 -0.307539
v -0.022738 2.092021 -0.584163
v 0.299757 2.093204 -0.439716
v 0.240364 2.144870 -0.307539
v -0.082130 2.143687 -0.451986
v -0.022738 2.092021 -0.584163
v 0.299757 2.093204 -0.439716
v 0.292673 1.997872 -0.602460
v 0.083041 1.997103 -0.696355
v 0.299757 2.093204 -0.439716
v 0.083041 1.997103 -0.696355
v -0.022738 2.092021 -0.584163
v 0.299757 2.093204 -0.439716
v 0.083041 1.997103 -0.696355
v 0.292673 1.997872 -0.602460
v 0.299757 2.093204 -0.439716
v -0.022738 2.092021 -0.584163
v 0.083041 1.997103 -0.696355
v 0.292673 1.997872 -0.602460
v 0.244586 1.867294 -0.784211
v 0.217570 1.867195 -0.796311
v 0.292673 1.997872 -0.602460
v 0.217570 1.867195 -0.796311
v 0.083041 1.997103 -0.696355
v 0.292673 1.997872 -0.602460
v 0.217570 1.867195 -0.796311
v 0.244586 1.867294 -0.784211
v 0.292673 1.997872 -0.602460
v 0.083041 1.997103 -0.696355
v 0.217570 1.867195 -0.796311
f 253 254 255
f 256 257 258
f 259 260 261
f 262 263 264
f 265 266 267
f 268 269 270
f 271 272 273
f 274 275 276
f 277 278 279
f 280 281 282
f 283 284 285
f 286 287 288
f 289 290 291
f 292 293 294
f 295 296 297
f 298 299 300
f 301 302 303
f 304 305 306
f 307 308 309
f 310 311 312
f 313 314 315
f 316 317 318
f 319 320 321
f 322 323 324
f 325 326 327
f 328 329 330
f 331 332 333
f 334 335 336
f 337 338 339
f 340 341 342
f 343 344 345
f 346 347 348
f 349 350 351
f 352 353 354
f 355 356 357
f 358 359 360
f 361 362 363
f 364 365 366
f 367 368 369
f 370 371 372
f 373 374 375
f 376 377 378
f 379 380 381
f 382 383 384
f 385 386 387
f 388 389 390
f 391 392 393
f 394 395 396
f 397 398 399
f 400 401 402
f 403 404 405
f 406 407 408
f 409 410 411
f 412 413 414
f 415 416 417
f 418 419 420
f 421 422 423
f 424 425 426
f 427 428 429
f 430 431 432
f 433 434 435
f 436 437 438
f 439 440 441
f 442 443 444
f 445 446 447
f 448 449 450
f 451 452 453
f 454 455 456
f 457 458 459
f 460 461 462
f 463 464 465
f 466 467 468
f 469 470 471
f 472 473 474
f 475 476 477
f 478 479 480
f 481 482 483
f 484 485 486
f 487 488 489
f 490 491 492
f 493 494 495
f 496 497 498
f 499 500 501
f 502 503 504
f 505 506 507
f 508 509 510
f 511 512 513
f 514 515 516
f 517 518 519
f 520 521 522
f 523 524 525
f 526 527 528
f 529 530 531
f 532 533 534
f 535 536 537
f 538 539 540
f 541 542 543
f 544 545 546
f 547 548 549
f 550 551 552

o PalmDarkLeaves
v -0.068895 2.023462 -0.117817
v 0.019557 2.041071 0.061139
v 0.081882 2.044470 -0.140135
v -0.068895 2.023462 -0.117817
v 0.081882 2.044470 -0.140135
v -0.060863 2.023900 -0.143756
v -0.068895 2.023462 -0.117817
v 0.081882 2.044470 -0.140135
v 0.019557 2.041071 0.061139
v -0.068895 2.023462 -0.117817
v -0.060863 2.023900 -0.143756
v 0.081882 2.044470 -0.140135
v 0.019557 2.041071 0.061139
v 0.124780 2.013993 0.186754
v 0.220660 2.019221 -0.122884
v 0.019557 2.041071 0.061139
v 0.220660 2.019221 -0.122884
v 0.081882 2.044470 -0.140135
v 0.019557 2.041071 0.061139
v 0.220660 2.019221 -0.122884
v 0.124780 2.013993 0.186754
v 0.019557 2.041071 0.061139
v 0.081882 2.044470 -0.140135
v 0.220660 2.019221 -0.122884
v 0.124780 2.013993 0.186754
v 0.256944 1.934451 0.226335
v 0.352824 1.939680 -0.083302
v 0.124780 2.013993 0.186754
v 0.352824 1.939680 -0.083302
v 0.220660 2.019221 -0.122884
v 0.124780 2.013993 0.186754
v 0.352824 1.939680 -0.083302
v 0.256944 1.934451 0.226335
v 0.124780 2.013993 0.186754
v 0.220660 2.019221 -0.122884
v 0.352824 1.939680 -0.083302
v 0.256944 1.934451 0.226335
v 0.416049 1.802447 0.179884
v 0.478374 1.805846 -0.021391
v 0.256944 1.934451 0.226335
v 0.478374 1.805846 -0.021391
v 0.352824 1.939680 -0.083302
v 0.256944 1.934451 0.226335
v 0.478374 1.805846 -0.021391
v 0.416049 1.802447 0.179884
v 0.256944 1.934451 0.226335
v 0.352824 1.939680 -0.083302
v 0.478374 1.805846 -0.021391
v 0.416049 1.802447 0.179884
v 0.591926 1.625754 0.080091
v 0.599958 1.626192 0.054152
v 0.416049 1.802447 0.179884
v 0.599958 1.626192 0.054152
v 0.478374 1.805846 -0.021391
v 0.416049 1.802447 0.179884
v 0.599958 1.626192 0.054152
v 0.591926 1.625754 0.080091
v 0.416049 1.802447 0.179884
v 0.478374 1.805846 -0.021391
v 0.599958 1.626192 0.054152
v -0.078570 1.985213 -0.127746
v -0.092807 2.000449 0.027618
v 0.125537 2.003369 -0.027779
v -0.078570 1.985213 -0.127746
v 0.125537 2.003369 -0.027779
v -0.050432 1.985590 -0.134885
v -0.078570 1.985213 -0.127746
v 0.125537 2.003369 -0.027779
v -0.092807 2.000449 0.027618
v -0.078570 1.985213 -0.127746
v -0.050432 1.985590 -0.134885
v 0.125537 2.003369 -0.027779
v -0.092807 2.000449 0.027618
v -0.087382 1.966987 0.177438
v 0.248516 1.971479 0.092218
v -0.092807 2.000449 0.027618
v 0.248516 1.971479 0.092218
v 0.125537 2.003369 -0.027779
v -0.092807 2.000449 0.027618
v 0.248516 1.971479 0.092218
v -0.087382 1.966987 0.177438
v -0.092807 2.000449 0.027618
v 0.125537 2.003369 -0.027779
v 0.248516 1.971479 0.092218
v -0.087382 1.966987 0.177438
v -0.050362 1.876662 0.318594
v 0.285536 1.881154 0.233373
v -0.087382 1.966987 0.177438
v 0.285536 1.881154 0.233373
v 0.248516 1.971479 0.092218
v -0.087382 1.966987 0.177438
v 0.285536 1.881154 0.233373
v -0.050362 1.876662 0.318594
v -0.087382 1.966987 0.177438
v 0.248516 1.971479 0.092218
v 0.285536 1.881154 0.233373
v -0.050362 1.876662 0.318594
v 0.018255 1.729475 0.451085
v 0.236599 1.732395 0.395689
v -0.050362 1.876662 0.318594
v 0.236599 1.732395 0.395689
v 0.285536 1.881154 0.233373
v -0.050362 1.876662 0.318594
v 0.236599 1.732395 0.395689
v 0.018255 1.729475 0.451085
v -0.050362 1.876662 0.318594
v 0.285536 1.881154 0.233373
v 0.236599 1.732395 0.395689
v 0.018255 1.729475 0.451085
v 0.106533 1.533591 0.578032
v 0.134671 1.533967 0.570893
v 0.018255 1.729475 0.451085
v 0.134671 1.533967 0.570893
v 0.236599 1.732395 0.395689
v 0.018255 1.729475 0.451085
v 0.134671 1.533967 0.570893
v 0.106533 1.533591 0.578032
v 0.018255 1.729475 0.451085
v 0.236599 1.732395 0.395689
v 0.134671 1.533967 0.570893
v -0.070882 1.997253 -0.145280
v -0.249825 2.018765 -0.162481
v -0.152597 2.016691 0.056749
v -0.070882 1.997253 -0.145280
v -0.152597 2.016691 0.056749
v -0.058352 1.996986 -0.117027
v -0.070882 1.997253 -0.145280
v -0.152597 2.016691 0.056749
v -0.249825 2.018765 -0.162481
v -0.070882 1.997253 -0.145280
v -0.058352 1.996986 -0.117027
v -0.152597 2.016691 0.056749
v -0.249825 2.018765 -0.162481
v -0.414697 2.002055 -0.149323
v -0.265123 1.998865 0.187937
v -0.249825 2.018765 -0.162481
v -0.265123 1.998865 0.187937
v -0.152597 2.016691 0.056749
v -0.249825 2.018765 -0.162481
v -0.265123 1.998865 0.187937
v -0.414697 2.002055 -0.149323
v -0.249825 2.018765 -0.162481
v -0.152597 2.016691 0.056749
v -0.265123 1.998865 0.187937
v -0.414697 2.002055 -0.149323
v -0.556951 1.938620 -0.086833
v -0.407377 1.935430 0.250426
v -0.414697 2.002055 -0.149323
v -0.407377 1.935430 0.250426
v -0.265123 1.998865 0.187937
v -0.414697 2.002055 -0.149323
v -0.407377 1.935430 0.250426
v -0.556951 1.938620 -0.086833
v -0.414697 2.002055 -0.149323
v -0.265123 1.998865 0.187937
v -0.407377 1.935430 0.250426
v -0.556951 1.938620 -0.086833
v -0.676586 1.828458 0.024987
v -0.579358 1.826385 0.244217
v -0.556951 1.938620 -0.086833
v -0.579358 1.826385 0.244217
v -0.407377 1.935430 0.250426
v -0.556951 1.938620 -0.086833
v -0.579358 1.826385 0.244217
v -0.676586 1.828458 0.024987
v -0.556951 1.938620 -0.086833
v -0.407377 1.935430 0.250426
v -0.579358 1.826385 0.244217
v -0.676586 1.828458 0.024987
v -0.782151 1.680076 0.167167
v -0.769621 1.679808 0.195419
v -0.676586 1.828458 0.024987
v -0.769621 1.679808 0.195419
v -0.579358 1.826385 0.244217
v -0.676586 1.828458 0.024987
v -0.769621 1.679808 0.195419
v -0.782151 1.680076 0.167167
v -0.676586 1.828458 0.024987
v -0.579358 1.826385 0.244217
v -0.769621 1.679808 0.195419
v -0.054411 2.009035 -0.137845
v -0.064588 2.032940 -0.329782
v -0.224768 2.029889 -0.223423
v -0.054411 2.009035 -0.137845
v -0.224768 2.029889 -0.223423
v -0.075054 2.008641 -0.124138
v -0.054411 2.009035 -0.137845
v -0.224768 2.029889 -0.223423
v -0.064588 2.032940 -0.329782
v -0.054411 2.009035 -0.137845
v -0.075054 2.008641 -0.124138
v -0.224768 2.029889 -0.223423
v -0.064588 2.032940 -0.329782
v -0.105557 2.014946 -0.501574
v -0.351976 2.010253 -0.337952
v -0.064588 2.032940 -0.329782
v -0.351976 2.010253 -0.337952
v -0.224768 2.029889 -0.223423
v -0.064588 2.032940 -0.329782
v -0.351976 2.010253 -0.337952
v -0.105557 2.014946 -0.501574
v -0.064588 2.032940 -0.329782
v -0.224768 2.029889 -0.223423
v -0.351976 2.010253 -0.337952
v -0.105557 2.014946 -0.501574
v -0.196519 1.946364 -0.640532
v -0.442937 1.941670 -0.476911
v -0.105557 2.014946 -0.501574
v -0.442937 1.941670 -0.476911
v -0.351976 2.010253 -0.337952
v -0.105557 2.014946 -0.501574
v -0.442937 1.941670 -0.476911
v -0.196519 1.946364 -0.640532
v -0.105557 2.014946 -0.501574
v -0.351976 2.010253 -0.337952
v -0.442937 1.941670 -0.476911
v -0.196519 1.946364 -0.640532
v -0.337473 1.827192 -0.746657
v -0.497653 1.824140 -0.640298
v -0.196519 1.946364 -0.640532
v -0.497653 1.824140 -0.640298
v -0.442937 1.941670 -0.476911
v -0.196519 1.946364 -0.640532
v -0.497653 1.824140 -0.640298
v -0.337473 1.827192 -0.746657
v -0.196519 1.946364 -0.640532
v -0.442937 1.941670 -0.476911
v -0.497653 1.824140 -0.640298
v -0.337473 1.827192 -0.746657
v -0.509220 1.666121 -0.832637
v -0.529863 1.665727 -0.818930
v -0.337473 1.827192 -0.746657
v -0.529863 1.665727 -0.818930
v -0.497653 1.824140 -0.640298
v -0.337473 1.827192 -0.746657
v -0.529863 1.665727 -0.818930
v -0.509220 1.666121 -0.832637
v -0.337473 1.827192 -0.746657
v -0.497653 1.824140 -0.640298
v -0.529863 1.665727 -0.818930
v -0.053668 2.020566 -0.123572
v 0.132638 2.042615 -0.163204
v -0.040865 2.042461 -0.275826
v -0.053668 2.020566 -0.123572
v -0.040865 2.042461 -0.275826
v -0.076028 2.020546 -0.138086
v -0.053668 2.020566 -0.123572
v -0.040865 2.042461 -0.275826
v 0.132638 2.042615 -0.163204
v -0.053668 2.020566 -0.123572
v -0.076028 2.020546 -0.138086
v -0.040865 2.042461 -0.275826
v 0.132638 2.042615 -0.163204
v 0.276226 2.019946 -0.231469
v 0.009311 2.019710 -0.404725
v 0.132638 2.042615 -0.163204
v 0.009311 2.019710 -0.404725
v -0.040865 2.042461 -0.275826
v 0.132638 2.042615 -0.163204
v 0.009311 2.019710 -0.404725
v 0.276226 2.019946 -0.231469
v 0.132638 2.042615 -0.163204
v -0.040865 2.042461 -0.275826
v 0.009311 2.019710 -0.404725
v 0.276226 2.019946 -0.231469
v 0.350503 1.944213 -0.345796
v 0.083588 1.943977 -0.519052
v 0.276226 2.019946 -0.231469
v 0.083588 1.943977 -0.519052
v 0.009311 2.019710 -0.404725
v 0.276226 2.019946 -0.231469
v 0.083588 1.943977 -0.519052
v 0.350503 1.944213 -0.345796
v 0.276226 2.019946 -0.231469
v 0.009311 2.019710 -0.404725
v 0.083588 1.943977 -0.519052
v 0.350503 1.944213 -0.345796
v 0.355470 1.815415 -0.506185
v 0.181966 1.815261 -0.618807
v 0.350503 1.944213 -0.345796
v 0.181966 1.815261 -0.618807
v 0.083588 1.943977 -0.519052
v 0.350503 1.944213 -0.345796
v 0.181966 1.815261 -0.618807
v 0.355470 1.815415 -0.506185
v 0.350503 1.944213 -0.345796
v 0.083588 1.943977 -0.519052
v 0.181966 1.815261 -0.618807
v 0.355470 1.815415 -0.506185
v 0.317718 1.641900 -0.695207
v 0.295358 1.641880 -0.709721
v 0.355470 1.815415 -0.506185
v 0.295358 1.641880 -0.709721
v 0.181966 1.815261 -0.618807
v 0.355470 1.815415 -0.506185
v 0.295358 1.641880 -0.709721
v 0.317718 1.641900 -0.695207
v 0.355470 1.815415 -0.506185
v 0.181966 1.815261 -0.618807
v 0.295358 1.641880 -0.709721
f 553 554 555
f 556 557 558
f 559 560 561
f 562 563 564
f 565 566 567
f 568 569 570
f 571 572 573
f 574 575 576
f 577 578 579
f 580 581 582
f 583 584 585
f 586 587 588
f 589 590 591
f 592 593 594
f 595 596 597
f 598 599 600
f 601 602 603
f 604 605 606
f 607 608 609
f 610 611 612
f 613 614 615
f 616 617 618
f 619 620 621
f 622 623 624
f 625 626 627
f 628 629 630
f 631 632 633
f 634 635 636
f 637 638 639
f 640 641 642
f 643 644 645
f 646 647 648
f 649 650 651
f 652 653 654
f 655 656 657
f 658 659 660
f 661 662 663
f 664 665 666
f 667 668 669
f 670 671 672
f 673 674 675
f 676 677 678
f 679 680 681
f 682 683 684
f 685 686 687
f 688 689 690
f 691 692 693
f 694 695 696
f 697 698 699
f 700 701 702
f 703 704 705
f 706 707 708
f 709 710 711
f 712 713 714
f 715 716 717
f 718 719 720
f 721 722 723
f 724 725 726
f 727 728 729
f 730 731 732
f 733 734 735
f 736 737 738
f 739 740 741
f 742 743 744
f 745 746 747
f 748 749 750
f 751 752 753
f 754 755 756
f 757 758 759
f 760 761 762
f 763 764 765
f 766 767 768
f 769 770 771
f 772 773 774
f 775 776 777
f 778 779 780
f 781 782 783
f 784 785 786
f 787 788 789
f 790 791 792
f 793 794 795
f 796 797 798
f 799 800 801
f 802 803 804
f 805 806 807
f 808 809 810
f 811 812 813
f 814 815 816
f 817 818 819
f 820 821 822
f 823 824 825
f 826 827 828
f 829 830 831
f 832 833 834
f 835 836 837
f 838 839 840
f 841 842 843
f 844 845 846
f 847 848 849
f 850 851 852
