# Pyramida editable prop source
# units: 1 OBJ unit = 1 Pyramida World Unit = 1 Blender metre

o PalmTrunk
v 0.043071 0.075684 0.105317
v 0.303392 0.012997 0.033224
v 0.309712 0.035998 0.009079
v 0.043071 0.075684 0.105317
v 0.309712 0.035998 0.009079
v 0.070720 0.176314 -0.000320
v 0.046321 0.074190 0.000378
v 0.043071 0.075684 0.105317
v 0.070720 0.176314 -0.000320
v 0.304135 0.012656 0.009238
v 0.309712 0.035998 0.009079
v 0.303392 0.012997 0.033224
v 0.070720 0.176314 -0.000320
v 0.309712 0.035998 0.009079
v 0.304878 0.012314 -0.014748
v 0.070720 0.176314 -0.000320
v 0.304878 0.012314 -0.014748
v 0.049571 0.072696 -0.104561
v 0.046321 0.074190 0.000378
v 0.070720 0.176314 -0.000320
v 0.049571 0.072696 -0.104561
v 0.304135 0.012656 0.009238
v 0.304878 0.012314 -0.014748
v 0.309712 0.035998 0.009079
v 0.049571 0.072696 -0.104561
v 0.304878 0.012314 -0.014748
v 0.298558 -0.010687 0.009398
v 0.049571 0.072696 -0.104561
v 0.298558 -0.010687 0.009398
v 0.021922 -0.027933 0.001077
v 0.046321 0.074190 0.000378
v 0.049571 0.072696 -0.104561
v 0.021922 -0.027933 0.001077
v 0.304135 0.012656 0.009238
v 0.298558 -0.010687 0.009398
v 0.304878 0.012314 -0.014748
v 0.021922 -0.027933 0.001077
v 0.298558 -0.010687 0.009398
v 0.303392 0.012997 0.033224
v 0.021922 -0.027933 0.001077
v 0.303392 0.012997 0.033224
v 0.043071 0.075684 0.105317
v 0.046321 0.074190 0.000378
v 0.021922 -0.027933 0.001077
v 0.043071 0.075684 0.105317
v 0.304135 0.012656 0.009238
v 0.303392 0.012997 0.033224
v 0.298558 -0.010687 0.009398
v -0.109501 0.076600 -0.028585
v -0.220744 0.025423 0.251796
v -0.203992 0.048920 0.269665
v -0.109501 0.076600 -0.028585
v -0.203992 0.048920 0.269665
v -0.036212 0.179398 0.049590
v -0.025819 0.075960 0.034834
v -0.109501 0.076600 -0.028585
v -0.036212 0.179398 0.049590
v -0.201617 0.025277 0.266292
v -0.203992 0.048920 0.269665
v -0.220744 0.025423 0.251796
v -0.036212 0.179398 0.049590
v -0.203992 0.048920 0.269665
v -0.182490 0.025131 0.280787
v -0.036212 0.179398 0.049590
v -0.182490 0.025131 0.280787
v 0.057863 0.075321 0.098252
v -0.025819 0.075960 0.034834
v -0.036212 0.179398 0.049590
v 0.057863 0.075321 0.098252
v -0.201617 0.025277 0.266292
v -0.182490 0.025131 0.280787
v -0.203992 0.048920 0.269665
v 0.057863 0.075321 0.098252
v -0.182490 0.025131 0.280787
v -0.199241 0.001634 0.262919
v 0.057863 0.075321 0.098252
v -0.199241 0.001634 0.262919
v -0.015426 -0.027477 0.020078
v -0.025819 0.075960 0.034834
v 0.057863 0.075321 0.098252
v -0.015426 -0.027477 0.020078
v -0.201617 0.025277 0.266292
v -0.199241 0.001634 0.262919
v -0.182490 0.025131 0.280787
v -0.015426 -0.027477 0.020078
v -0.199241 0.001634 0.262919
v -0.220744 0.025423 0.251796
v -0.015426 -0.027477 0.020078
v -0.220744 0.025423 0.251796
v -0.109501 0.076600 -0.028585
v -0.025819 0.075960 0.034834
v -0.015426 -0.027477 0.020078
v -0.109501 0.076600 -0.028585
v -0.201617 0.025277 0.266292
v -0.220744 0.025423 0.251796
v -0.199241 0.001634 0.262919
v 0.052133 0.072667 -0.103328
v -0.133654 0.017747 -0.194723
v -0.155984 0.041279 -0.184742
v 0.052133 0.072667 -0.103328
v -0.155984 0.041279 -0.184742
v -0.045561 0.175618 -0.059658
v -0.027812 0.075037 -0.035298
v 0.052133 0.072667 -0.103328
v -0.045561 0.175618 -0.059658
v -0.151927 0.018289 -0.179173
v -0.155984 0.041279 -0.184742
v -0.133654 0.017747 -0.194723
v -0.045561 0.175618 -0.059658
v -0.155984 0.041279 -0.184742
v -0.170200 0.018831 -0.163624
v -0.045561 0.175618 -0.059658
v -0.170200 0.018831 -0.163624
v -0.107758 0.077407 0.032733
v -0.027812 0.075037 -0.035298
v -0.045561 0.175618 -0.059658
v -0.107758 0.077407 0.032733
v -0.151927 0.018289 -0.179173
v -0.170200 0.018831 -0.163624
v -0.155984 0.041279 -0.184742
v -0.107758 0.077407 0.032733
v -0.170200 0.018831 -0.163624
v -0.147870 -0.004701 -0.173605
v -0.107758 0.077407 0.032733
v -0.147870 -0.004701 -0.173605
v -0.010064 -0.025544 -0.010937
v -0.027812 0.075037 -0.035298
v -0.107758 0.077407 0.032733
v -0.010064 -0.025544 -0.010937
v -0.151927 0.018289 -0.179173
v -0.147870 -0.004701 -0.173605
v -0.170200 0.018831 -0.163624
v -0.010064 -0.025544 -0.010937
v -0.147870 -0.004701 -0.173605
v -0.133654 0.017747 -0.194723
v -0.010064 -0.025544 -0.010937
v -0.133654 0.017747 -0.194723
v 0.052133 0.072667 -0.103328
v -0.027812 0.075037 -0.035298
v -0.010064 -0.025544 -0.010937
v 0.052133 0.072667 -0.103328
v -0.151927 0.018289 -0.179173
v -0.133654 0.017747 -0.194723
v -0.147870 -0.004701 -0.173605
v 0.000178 0.007841 -0.149795
v 0.041233 1.006767 -0.072423
v 0.149321 0.999063 -0.010112
v 0.000178 0.007841 -0.149795
v 0.149321 0.999063 -0.010112
v 0.129884 -0.001404 -0.075022
v 0.000000 0.000000 0.000000
v 0.000178 0.007841 -0.149795
v 0.129884 -0.001404 -0.075022
v 0.129884 -0.001404 -0.075022
v 0.149321 0.999063 -0.010112
v 0.149173 0.992528 0.114717
v 0.129884 -0.001404 -0.075022
v 0.149173 0.992528 0.114717
v 0.129706 -0.009245 0.074773
v 0.000000 0.000000 0.000000
v 0.129884 -0.001404 -0.075022
v 0.129706 -0.009245 0.074773
v 0.129706 -0.009245 0.074773
v 0.149173 0.992528 0.114717
v 0.040936 0.993698 0.177235
v 0.129706 -0.009245 0.074773
v 0.040936 0.993698 0.177235
v -0.000178 -0.007841 0.149795
v 0.000000 0.000000 0.000000
v 0.129706 -0.009245 0.074773
v -0.000178 -0.007841 0.149795
v -0.000178 -0.007841 0.149795
v 0.040936 0.993698 0.177235
v -0.067152 1.001403 0.114925
v -0.000178 -0.007841 0.149795
v -0.067152 1.001403 0.114925
v -0.129884 0.001404 0.075022
v 0.000000 0.000000 0.000000
v -0.000178 -0.007841 0.149795
v -0.129884 0.001404 0.075022
v -0.129884 0.001404 0.075022
v -0.067152 1.001403 0.114925
v -0.067003 1.007937 -0.009904
v -0.129884 0.001404 0.075022
v -0.067003 1.007937 -0.009904
v -0.129706 0.009245 -0.074773
v 0.000000 0.000000 0.000000
v -0.129884 0.001404 0.075022
v -0.129706 0.009245 -0.074773
v -0.129706 0.009245 -0.074773
v -0.067003 1.007937 -0.009904
v 0.041233 1.006767 -0.072423
v -0.129706 0.009245 -0.074773
v 0.041233 1.006767 -0.072423
v 0.000178 0.007841 -0.149795
v 0.000000 0.000000 0.000000
v -0.129706 0.009245 -0.074773
v 0.000178 0.007841 -0.149795
v 0.041286 1.009693 -0.072235
v 0.090575 2.008208 0.028700
v 0.176993 2.000173 0.078374
v 0.041286 1.009693 -0.072235
v 0.176993 2.000173 0.078374
v 0.149308 0.999649 -0.010143
v 0.149308 0.999649 -0.010143
v 0.176993 2.000173 0.078374
v 0.176832 1.992605 0.178087
v 0.149308 0.999649 -0.010143
v 0.176832 1.992605 0.178087
v 0.149107 0.990189 0.114498
v 0.149107 0.990189 0.114498
v 0.176832 1.992605 0.178087
v 0.090254 1.993072 0.228127
v 0.149107 0.990189 0.114498
v 0.090254 1.993072 0.228127
v 0.040884 0.990773 0.177048
v 0.040884 0.990773 0.177048
v 0.090254 1.993072 0.228127
v 0.003836 2.001107 0.178453
v 0.040884 0.990773 0.177048
v 0.003836 2.001107 0.178453
v -0.067138 1.000817 0.114956
v -0.067138 1.000817 0.114956
v 0.003836 2.001107 0.178453
v 0.003997 2.008675 0.078740
v -0.067138 1.000817 0.114956
v 0.003997 2.008675 0.078740
v -0.066937 1.010277 -0.009685
v -0.066937 1.010277 -0.009685
v 0.003997 2.008675 0.078740
v 0.090575 2.008208 0.028700
v -0.066937 1.010277 -0.009685
v 0.090575 2.008208 0.028700
v 0.041286 1.009693 -0.072235
v 0.090617 2.010535 0.028904
v 0.148141 3.008642 0.153389
v 0.212911 3.001224 0.190468
v 0.090617 2.010535 0.028904
v 0.212911 3.001224 0.190468
v 0.176977 2.000643 0.078343
v 0.147989 3.001222 0.228021
v 0.212911 3.001224 0.190468
v 0.148141 3.008642 0.153389
v 0.176977 2.000643 0.078343
v 0.212911 3.001224 0.190468
v 0.212759 2.993804 0.265100
v 0.176977 2.000643 0.078343
v 0.212759 2.993804 0.265100
v 0.176774 1.990749 0.177852
v 0.147989 3.001222 0.228021
v 0.212759 2.993804 0.265100
v 0.212911 3.001224 0.190468
v 0.176774 1.990749 0.177852
v 0.212759 2.993804 0.265100
v 0.147837 2.993801 0.302653
v 0.176774 1.990749 0.177852
v 0.147837 2.993801 0.302653
v 0.090212 1.990745 0.227923
v 0.147989 3.001222 0.228021
v 0.147837 2.993801 0.302653
v 0.212759 2.993804 0.265100
v 0.090212 1.990745 0.227923
v 0.147837 2.993801 0.302653
v 0.083068 3.001219 0.265574
v 0.090212 1.990745 0.227923
v 0.083068 3.001219 0.265574
v 0.003852 2.000637 0.178484
v 0.147989 3.001222 0.228021
v 0.083068 3.001219 0.265574
v 0.147837 2.993801 0.302653
v 0.003852 2.000637 0.178484
v 0.083068 3.001219 0.265574
v 0.083220 3.008640 0.190942
v 0.003852 2.000637 0.178484
v 0.083220 3.008640 0.190942
v 0.004055 2.010531 0.078974
v 0.147989 3.001222 0.228021
v 0.083220 3.008640 0.190942
v 0.083068 3.001219 0.265574
v 0.004055 2.010531 0.078974
v 0.083220 3.008640 0.190942
v 0.148141 3.008642 0.153389
v 0.004055 2.010531 0.078974
v 0.148141 3.008642 0.153389
v 0.090617 2.010535 0.028904
v 0.147989 3.001222 0.228021
v 0.148141 3.008642 0.153389
v 0.083220 3.008640 0.190942
f 1 2 3
f 4 5 6
f 7 8 9
f 10 11 12
f 13 14 15
f 16 17 18
f 19 20 21
f 22 23 24
f 25 26 27
f 28 29 30
f 31 32 33
f 34 35 36
f 37 38 39
f 40 41 42
f 43 44 45
f 46 47 48
f 49 50 51
f 52 53 54
f 55 56 57
f 58 59 60
f 61 62 63
f 64 65 66
f 67 68 69
f 70 71 72
f 73 74 75
f 76 77 78
f 79 80 81
f 82 83 84
f 85 86 87
f 88 89 90
f 91 92 93
f 94 95 96
f 97 98 99
f 100 101 102
f 103 104 105
f 106 107 108
f 109 110 111
f 112 113 114
f 115 116 117
f 118 119 120
f 121 122 123
f 124 125 126
f 127 128 129
f 130 131 132
f 133 134 135
f 136 137 138
f 139 140 141
f 142 143 144
f 145 146 147
f 148 149 150
f 151 152 153
f 154 155 156
f 157 158 159
f 160 161 162
f 163 164 165
f 166 167 168
f 169 170 171
f 172 173 174
f 175 176 177
f 178 179 180
f 181 182 183
f 184 185 186
f 187 188 189
f 190 191 192
f 193 194 195
f 196 197 198
f 199 200 201
f 202 203 204
f 205 206 207
f 208 209 210
f 211 212 213
f 214 215 216
f 217 218 219
f 220 221 222
f 223 224 225
f 226 227 228
f 229 230 231
f 232 233 234
f 235 236 237
f 238 239 240
f 241 242 243
f 244 245 246
f 247 248 249
f 250 251 252
f 253 254 255
f 256 257 258
f 259 260 261
f 262 263 264
f 265 266 267
f 268 269 270
f 271 272 273
f 274 275 276
f 277 278 279
f 280 281 282
f 283 284 285
f 286 287 288
