# Pyramida editable prop source
# units: 1 OBJ unit = 1 Pyramida World Unit = 1 Blender metre

o PalmTrunk
v 0.043071 0.075684 0.105317
v 0.303392 0.012997 0.033224
v 0.309712 0.035998 0.009079
v 0.043071 0.075684 0.105317
v 0.309712 0.035998 0.009079
v 0.070720 0.176314 -0.000320
v 0.046321 0.074190 0.000378
v 0.043071 0.075684 0.105317
v 0.070720 0.176314 -0.000320
v 0.304135 0.012656 0.009238
v 0.309712 0.035998 0.009079
v 0.303392 0.012997 0.033224
v 0.070720 0.176314 -0.000320
v 0.309712 0.035998 0.009079
v 0.304878 0.012314 -0.014748
v 0.070720 0.176314 -0.000320
v 0.304878 0.012314 -0.014748
v 0.049571 0.072696 -0.104561
v 0.046321 0.074190 0.000378
v 0.070720 0.176314 -0.000320
v 0.049571 0.072696 -0.104561
v 0.304135 0.012656 0.009238
v 0.304878 0.012314 -0.014748
v 0.309712 0.035998 0.009079
v 0.049571 0.072696 -0.104561
v 0.304878 0.012314 -0.014748
v 0.298558 -0.010687 0.009398
v 0.049571 0.072696 -0.104561
v 0.298558 -0.010687 0.009398
v 0.021922 -0.027933 0.001077
v 0.046321 0.074190 0.000378
v 0.049571 0.072696 -0.104561
v 0.021922 -0.027933 0.001077
v 0.304135 0.012656 0.009238
v 0.298558 -0.010687 0.009398
v 0.304878 0.012314 -0.014748
v 0.021922 -0.027933 0.001077
v 0.298558 -0.010687 0.009398
v 0.303392 0.012997 0.033224
v 0.021922 -0.027933 0.001077
v 0.303392 0.012997 0.033224
v 0.043071 0.075684 0.105317
v 0.046321 0.074190 0.000378
v 0.021922 -0.027933 0.001077
v 0.043071 0.075684 0.105317
v 0.304135 0.012656 0.009238
v 0.303392 0.012997 0.033224
v 0.298558 -0.010687 0.009398
v -0.109501 0.076600 -0.028585
v -0.220744 0.025423 0.251796
v -0.203992 0.048920 0.269665
v -0.109501 0.076600 -0.028585
v -0.203992 0.048920 0.269665
v -0.036212 0.179398 0.049590
v -0.025819 0.075960 0.034834
v -0.109501 0.076600 -0.028585
v -0.036212 0.179398 0.049590
v -0.201617 0.025277 0.266292
v -0.203992 0.048920 0.269665
v -0.220744 0.025423 0.251796
v -0.036212 0.179398 0.049590
v -0.203992 0.048920 0.269665
v -0.182490 0.025131 0.280787
v -0.036212 0.179398 0.049590
v -0.182490 0.025131 0.280787
v 0.057863 0.075321 0.098252
v -0.025819 0.075960 0.034834
v -0.036212 0.179398 0.049590
v 0.057863 0.075321 0.098252
v -0.201617 0.025277 0.266292
v -0.182490 0.025131 0.280787
v -0.203992 0.048920 0.269665
v 0.057863 0.075321 0.098252
v -0.182490 0.025131 0.280787
v -0.199241 0.001634 0.262919
v 0.057863 0.075321 0.098252
v -0.199241 0.001634 0.262919
v -0.015426 -0.027477 0.020078
v -0.025819 0.075960 0.034834
v 0.057863 0.075321 0.098252
v -0.015426 -0.027477 0.020078
v -0.201617 0.025277 0.266292
v -0.199241 0.001634 0.262919
v -0.182490 0.025131 0.280787
v -0.015426 -0.027477 0.020078
v -0.199241 0.001634 0.262919
v -0.220744 0.025423 0.251796
v -0.015426 -0.027477 0.020078
v -0.220744 0.025423 0.251796
v -0.109501 0.076600 -0.028585
v -0.025819 0.075960 0.034834
v -0.015426 -0.027477 0.020078
v -0.109501 0.076600 -0.028585
v -0.201617 0.025277 0.266292
v -0.220744 0.025423 0.251796
v -0.199241 0.001634 0.262919
v 0.052133 0.072667 -0.103328
v -0.133654 0.017747 -0.194723
v -0.155984 0.041279 -0.184742
v 0.052133 0.072667 -0.103328
v -0.155984 0.041279 -0.184742
v -0.045561 0.175618 -0.059658
v -0.027812 0.075037 -0.035298
v 0.052133 0.072667 -0.103328
v -0.045561 0.175618 -0.059658
v -0.151927 0.018289 -0.179173
v -0.155984 0.041279 -0.184742
v -0.133654 0.017747 -0.194723
v -0.045561 0.175618 -0.059658
v -0.155984 0.041279 -0.184742
v -0.170200 0.018831 -0.163624
v -0.045561 0.175618 -0.059658
v -0.170200 0.018831 -0.163624
v -0.107758 0.077407 0.032733
v -0.027812 0.075037 -0.035298
v -0.045561 0.175618 -0.059658
v -0.107758 0.077407 0.032733
v -0.151927 0.018289 -0.179173
v -0.170200 0.018831 -0.163624
v -0.155984 0.041279 -0.184742
v -0.107758 0.077407 0.032733
v -0.170200 0.018831 -0.163624
v -0.147870 -0.004701 -0.173605
v -0.107758 0.077407 0.032733
v -0.147870 -0.004701 -0.173605
v -0.010064 -0.025544 -0.010937
v -0.027812 0.075037 -0.035298
v -0.107758 0.077407 0.032733
v -0.010064 -0.025544 -0.010937
v -0.151927 0.018289 -0.179173
v -0.147870 -0.004701 -0.173605
v -0.170200 0.018831 -0.163624
v -0.010064 -0.025544 -0.010937
v -0.147870 -0.004701 -0.173605
v -0.133654 0.017747 -0.194723
v -0.010064 -0.025544 -0.010937
v -0.133654 0.017747 -0.194723
v 0.052133 0.072667 -0.103328
v -0.027812 0.075037 -0.035298
v -0.010064 -0.025544 -0.010937
v 0.052133 0.072667 -0.103328
v -0.151927 0.018289 -0.179173
v -0.133654 0.017747 -0.194723
v -0.147870 -0.004701 -0.173605
v 0.000178 0.007841 -0.149795
v 0.041233 1.006767 -0.072423
v 0.149321 0.999063 -0.010112
v 0.000178 0.007841 -0.149795
v 0.149321 0.999063 -0.010112
v 0.129884 -0.001404 -0.075022
v 0.000000 0.000000 0.000000
v 0.000178 0.007841 -0.149795
v 0.129884 -0.001404 -0.075022
v 0.129884 -0.001404 -0.075022
v 0.149321 0.999063 -0.010112
v 0.149173 0.992528 0.114717
v 0.129884 -0.001404 -0.075022
v 0.149173 0.992528 0.114717
v 0.129706 -0.009245 0.074773
v 0.000000 0.000000 0.000000
v 0.129884 -0.001404 -0.075022
v 0.129706 -0.009245 0.074773
v 0.129706 -0.009245 0.074773
v 0.149173 0.992528 0.114717
v 0.040936 0.993698 0.177235
v 0.129706 -0.009245 0.074773
v 0.040936 0.993698 0.177235
v -0.000178 -0.007841 0.149795
v 0.000000 0.000000 0.000000
v 0.129706 -0.009245 0.074773
v -0.000178 -0.007841 0.149795
v -0.000178 -0.007841 0.149795
v 0.040936 0.993698 0.177235
v -0.067152 1.001403 0.114925
v -0.000178 -0.007841 0.149795
v -0.067152 1.001403 0.114925
v -0.129884 0.001404 0.075022
v 0.000000 0.000000 0.000000
v -0.000178 -0.007841 0.149795
v -0.129884 0.001404 0.075022
v -0.129884 0.001404 0.075022
v -0.067152 1.001403 0.114925
v -0.067003 1.007937 -0.009904
v -0.129884 0.001404 0.075022
v -0.067003 1.007937 -0.009904
v -0.129706 0.009245 -0.074773
v 0.000000 0.000000 0.000000
v -0.129884 0.001404 0.075022
v -0.129706 0.009245 -0.074773
v -0.129706 0.009245 -0.074773
v -0.067003 1.007937 -0.009904
v 0.041233 1.006767 -0.072423
v -0.129706 0.009245 -0.074773
v 0.041233 1.006767 -0.072423
v 0.000178 0.007841 -0.149795
v 0.000000 0.000000 0.000000
v -0.129706 0.009245 -0.074773
v 0.000178 0.007841 -0.149795
v 0.041286 1.009693 -0.072235
v 0.090575 2.008208 0.028700
v 0.176993 2.000173 0.078374
v 0.041286 1.009693 -0.072235
v 0.176993 2.000173 0.078374
v 0.149308 0.999649 -0.010143
v 0.149308 0.999649 -0.010143
v 0.176993 2.000173 0.078374
v 0.176832 1.992605 0.178087
v 0.149308 0.999649 -0.010143
v 0.176832 1.992605 0.178087
v 0.149107 0.990189 0.114498
v 0.149107 0.990189 0.114498
v 0.176832 1.992605 0.178087
v 0.090254 1.993072 0.228127
v 0.149107 0.990189 0.114498
v 0.090254 1.993072 0.228127
v 0.040884 0.990773 0.177048
v 0.040884 0.990773 0.177048
v 0.090254 1.993072 0.228127
v 0.003836 2.001107 0.178453
v 0.040884 0.990773 0.177048
v 0.003836 2.001107 0.178453
v -0.067138 1.000817 0.114956
v -0.067138 1.000817 0.114956
v 0.003836 2.001107 0.178453
v 0.003997 2.008675 0.078740
v -0.067138 1.000817 0.114956
v 0.003997 2.008675 0.078740
v -0.066937 1.010277 -0.009685
v -0.066937 1.010277 -0.009685
v 0.003997 2.008675 0.078740
v 0.090575 2.008208 0.028700
v -0.066937 1.010277 -0.009685
v 0.090575 2.008208 0.028700
v 0.041286 1.009693 -0.072235
v 0.090617 2.010535 0.028904
v 0.148141 3.008642 0.153389
v 0.212911 3.001224 0.190468
v 0.090617 2.010535 0.028904
v 0.212911 3.001224 0.190468
v 0.176977 2.000643 0.078343
v 0.147989 3.001222 0.228021
v 0.212911 3.001224 0.190468
v 0.148141 3.008642 0.153389
v 0.176977 2.000643 0.078343
v 0.212911 3.001224 0.190468
v 0.212759 2.993804 0.265100
v 0.176977 2.000643 0.078343
v 0.212759 2.993804 0.265100
v 0.176774 1.990749 0.177852
v 0.147989 3.001222 0.228021
v 0.212759 2.993804 0.265100
v 0.212911 3.001224 0.190468
v 0.176774 1.990749 0.177852
v 0.212759 2.993804 0.265100
v 0.147837 2.993801 0.302653
v 0.176774 1.990749 0.177852
v 0.147837 2.993801 0.302653
v 0.090212 1.990745 0.227923
v 0.147989 3.001222 0.228021
v 0.147837 2.993801 0.302653
v 0.212759 2.993804 0.265100
v 0.090212 1.990745 0.227923
v 0.147837 2.993801 0.302653
v 0.083068 3.001219 0.265574
v 0.090212 1.990745 0.227923
v 0.083068 3.001219 0.265574
v 0.003852 2.000637 0.178484
v 0.147989 3.001222 0.228021
v 0.083068 3.001219 0.265574
v 0.147837 2.993801 0.302653
v 0.003852 2.000637 0.178484
v 0.083068 3.001219 0.265574
v 0.083220 3.008640 0.190942
v 0.003852 2.000637 0.178484
v 0.083220 3.008640 0.190942
v 0.004055 2.010531 0.078974
v 0.147989 3.001222 0.228021
v 0.083220 3.008640 0.190942
v 0.083068 3.001219 0.265574
v 0.004055 2.010531 0.078974
v 0.083220 3.008640 0.190942
v 0.148141 3.008642 0.153389
v 0.004055 2.010531 0.078974
v 0.148141 3.008642 0.153389
v 0.090617 2.010535 0.028904
v 0.147989 3.001222 0.228021
v 0.148141 3.008642 0.153389
v 0.083220 3.008640 0.190942
f 1 2 3
f 4 5 6
f 7 8 9
f 10 11 12
f 13 14 15
f 16 17 18
f 19 20 21
f 22 23 24
f 25 26 27
f 28 29 30
f 31 32 33
f 34 35 36
f 37 38 39
f 40 41 42
f 43 44 45
f 46 47 48
f 49 50 51
f 52 53 54
f 55 56 57
f 58 59 60
f 61 62 63
f 64 65 66
f 67 68 69
f 70 71 72
f 73 74 75
f 76 77 78
f 79 80 81
f 82 83 84
f 85 86 87
f 88 89 90
f 91 92 93
f 94 95 96
f 97 98 99
f 100 101 102
f 103 104 105
f 106 107 108
f 109 110 111
f 112 113 114
f 115 116 117
f 118 119 120
f 121 122 123
f 124 125 126
f 127 128 129
f 130 131 132
f 133 134 135
f 136 137 138
f 139 140 141
f 142 143 144
f 145 146 147
f 148 149 150
f 151 152 153
f 154 155 156
f 157 158 159
f 160 161 162
f 163 164 165
f 166 167 168
f 169 170 171
f 172 173 174
f 175 176 177
f 178 179 180
f 181 182 183
f 184 185 186
f 187 188 189
f 190 191 192
f 193 194 195
f 196 197 198
f 199 200 201
f 202 203 204
f 205 206 207
f 208 209 210
f 211 212 213
f 214 215 216
f 217 218 219
f 220 221 222
f 223 224 225
f 226 227 228
f 229 230 231
f 232 233 234
f 235 236 237
f 238 239 240
f 241 242 243
f 244 245 246
f 247 248 249
f 250 251 252
f 253 254 255
f 256 257 258
f 259 260 261
f 262 263 264
f 265 266 267
f 268 269 270
f 271 272 273
f 274 275 276
f 277 278 279
f 280 281 282
f 283 284 285
f 286 287 288

o PalmLightLeaves
v 0.150732 3.094246 0.243730
v 0.320237 3.119368 0.319159
v 0.303606 3.116063 0.055675
v 0.150732 3.094246 0.243730
v 0.303606 3.116063 0.055675
v 0.148589 3.093820 0.209773
v 0.150732 3.094246 0.243730
v 0.303606 3.116063 0.055675
v 0.320237 3.119368 0.319159
v 0.150732 3.094246 0.243730
v 0.148589 3.093820 0.209773
v 0.303606 3.116063 0.055675
v 0.320237 3.119368 0.319159
v 0.487131 3.114350 0.362113
v 0.461546 3.109267 -0.043227
v 0.320237 3.119368 0.319159
v 0.461546 3.109267 -0.043227
v 0.303606 3.116063 0.055675
v 0.320237 3.119368 0.319159
v 0.461546 3.109267 -0.043227
v 0.487131 3.114350 0.362113
v 0.320237 3.119368 0.319159
v 0.303606 3.116063 0.055675
v 0.461546 3.109267 -0.043227
v 0.487131 3.114350 0.362113
v 0.649982 3.070615 0.352383
v 0.624397 3.065531 -0.052957
v 0.487131 3.114350 0.362113
v 0.624397 3.065531 -0.052957
v 0.461546 3.109267 -0.043227
v 0.487131 3.114350 0.362113
v 0.624397 3.065531 -0.052957
v 0.649982 3.070615 0.352383
v 0.487131 3.114350 0.362113
v 0.461546 3.109267 -0.043227
v 0.624397 3.065531 -0.052957
v 0.649982 3.070615 0.352383
v 0.808789 2.988162 0.289967
v 0.792158 2.984857 0.026484
v 0.649982 3.070615 0.352383
v 0.792158 2.984857 0.026484
v 0.624397 3.065531 -0.052957
v 0.649982 3.070615 0.352383
v 0.792158 2.984857 0.026484
v 0.808789 2.988162 0.289967
v 0.649982 3.070615 0.352383
v 0.624397 3.065531 -0.052957
v 0.792158 2.984857 0.026484
v 0.808789 2.988162 0.289967
v 0.964986 2.875569 0.195076
v 0.962843 2.875143 0.161120
v 0.808789 2.988162 0.289967
v 0.962843 2.875143 0.161120
v 0.792158 2.984857 0.026484
v 0.808789 2.988162 0.289967
v 0.962843 2.875143 0.161120
v 0.964986 2.875569 0.195076
v 0.808789 2.988162 0.289967
v 0.792158 2.984857 0.026484
v 0.962843 2.875143 0.161120
v 0.136582 3.110731 0.230488
v 0.099396 3.139743 0.421053
v 0.306935 3.135166 0.359591
v 0.136582 3.110731 0.230488
v 0.306935 3.135166 0.359591
v 0.163329 3.110142 0.222567
v 0.136582 3.110731 0.230488
v 0.306935 3.135166 0.359591
v 0.099396 3.139743 0.421053
v 0.136582 3.110731 0.230488
v 0.163329 3.110142 0.222567
v 0.306935 3.135166 0.359591
v 0.099396 3.139743 0.421053
v 0.094710 3.135485 0.602265
v 0.413985 3.128444 0.507712
v 0.099396 3.139743 0.421053
v 0.413985 3.128444 0.507712
v 0.306935 3.135166 0.359591
v 0.099396 3.139743 0.421053
v 0.413985 3.128444 0.507712
v 0.094710 3.135485 0.602265
v 0.099396 3.139743 0.421053
v 0.306935 3.135166 0.359591
v 0.413985 3.128444 0.507712
v 0.094710 3.135485 0.602265
v 0.142825 3.089185 0.768182
v 0.462100 3.082143 0.673628
v 0.094710 3.135485 0.602265
v 0.462100 3.082143 0.673628
v 0.413985 3.128444 0.507712
v 0.094710 3.135485 0.602265
v 0.462100 3.082143 0.673628
v 0.142825 3.089185 0.768182
v 0.094710 3.135485 0.602265
v 0.413985 3.128444 0.507712
v 0.462100 3.082143 0.673628
v 0.142825 3.089185 0.768182
v 0.243741 3.000840 0.918802
v 0.451280 2.996263 0.857340
v 0.142825 3.089185 0.768182
v 0.451280 2.996263 0.857340
v 0.462100 3.082143 0.673628
v 0.142825 3.089185 0.768182
v 0.451280 2.996263 0.857340
v 0.243741 3.000840 0.918802
v 0.142825 3.089185 0.768182
v 0.462100 3.082143 0.673628
v 0.451280 2.996263 0.857340
v 0.243741 3.000840 0.918802
v 0.377158 2.879227 1.060069
v 0.403904 2.878637 1.052148
v 0.243741 3.000840 0.918802
v 0.403904 2.878637 1.052148
v 0.451280 2.996263 0.857340
v 0.243741 3.000840 0.918802
v 0.403904 2.878637 1.052148
v 0.377158 2.879227 1.060069
v 0.243741 3.000840 0.918802
v 0.451280 2.996263 0.857340
v 0.403904 2.878637 1.052148
v 0.141682 3.056806 0.214290
v -0.043656 3.083990 0.179166
v 0.069766 3.084702 0.380456
v 0.141682 3.056806 0.214290
v 0.069766 3.084702 0.380456
v 0.156299 3.056897 0.240231
v 0.141682 3.056806 0.214290
v 0.069766 3.084702 0.380456
v -0.043656 3.083990 0.179166
v 0.141682 3.056806 0.214290
v 0.156299 3.056897 0.240231
v 0.069766 3.084702 0.380456
v -0.043656 3.083990 0.179166
v -0.206849 3.075967 0.184957
v -0.032363 3.077061 0.494620
v -0.043656 3.083990 0.179166
v -0.032363 3.077061 0.494620
v 0.069766 3.084702 0.380456
v -0.043656 3.083990 0.179166
v -0.032363 3.077061 0.494620
v -0.206849 3.075967 0.184957
v -0.043656 3.083990 0.179166
v 0.069766 3.084702 0.380456
v -0.032363 3.077061 0.494620
v -0.206849 3.075967 0.184957
v -0.333966 3.024499 0.256766
v -0.159480 3.025594 0.566429
v -0.206849 3.075967 0.184957
v -0.159480 3.025594 0.566429
v -0.032363 3.077061 0.494620
v -0.206849 3.075967 0.184957
v -0.159480 3.025594 0.566429
v -0.333966 3.024499 0.256766
v -0.206849 3.075967 0.184957
v -0.032363 3.077061 0.494620
v -0.159480 3.025594 0.566429
v -0.333966 3.024499 0.256766
v -0.425007 2.929589 0.394592
v -0.311585 2.930300 0.595883
v -0.333966 3.024499 0.256766
v -0.311585 2.930300 0.595883
v -0.159480 3.025594 0.566429
v -0.333966 3.024499 0.256766
v -0.311585 2.930300 0.595883
v -0.425007 2.929589 0.394592
v -0.333966 3.024499 0.256766
v -0.159480 3.025594 0.566429
v -0.311585 2.930300 0.595883
v -0.425007 2.929589 0.394592
v -0.493902 2.799469 0.573333
v -0.479285 2.799561 0.599275
v -0.425007 2.929589 0.394592
v -0.479285 2.799561 0.599275
v -0.311585 2.930300 0.595883
v -0.425007 2.929589 0.394592
v -0.479285 2.799561 0.599275
v -0.493902 2.799469 0.573333
v -0.425007 2.929589 0.394592
v -0.311585 2.930300 0.595883
v -0.479285 2.799561 0.599275
v 0.156204 3.072936 0.212806
v 0.085531 3.094331 0.008220
v -0.021821 3.099285 0.229058
v 0.156204 3.072936 0.212806
v -0.021821 3.099285 0.229058
v 0.142369 3.073574 0.241266
v 0.156204 3.072936 0.212806
v -0.021821 3.099285 0.229058
v 0.085531 3.094331 0.008220
v 0.156204 3.072936 0.212806
v 0.142369 3.073574 0.241266
v -0.021821 3.099285 0.229058
v 0.085531 3.094331 0.008220
v -0.011314 3.078739 -0.143419
v -0.176462 3.086360 0.196315
v 0.085531 3.094331 0.008220
v -0.176462 3.086360 0.196315
v -0.021821 3.099285 0.229058
v 0.085531 3.094331 0.008220
v -0.176462 3.086360 0.196315
v -0.011314 3.078739 -0.143419
v 0.085531 3.094331 0.008220
v -0.021821 3.099285 0.229058
v -0.176462 3.086360 0.196315
v -0.011314 3.078739 -0.143419
v -0.150229 3.018564 -0.209598
v -0.315378 3.026184 0.130137
v -0.011314 3.078739 -0.143419
v -0.315378 3.026184 0.130137
v -0.176462 3.086360 0.196315
v -0.011314 3.078739 -0.143419
v -0.315378 3.026184 0.130137
v -0.150229 3.018564 -0.209598
v -0.011314 3.078739 -0.143419
v -0.176462 3.086360 0.196315
v -0.315378 3.026184 0.130137
v -0.150229 3.018564 -0.209598
v -0.331216 2.913803 -0.190316
v -0.438568 2.918757 0.030523
v -0.150229 3.018564 -0.209598
v -0.438568 2.918757 0.030523
v -0.315378 3.026184 0.130137
v -0.150229 3.018564 -0.209598
v -0.438568 2.918757 0.030523
v -0.331216 2.913803 -0.190316
v -0.150229 3.018564 -0.209598
v -0.315378 3.026184 0.130137
v -0.438568 2.918757 0.030523
v -0.331216 2.913803 -0.190316
v -0.538374 2.772055 -0.118087
v -0.552208 2.772694 -0.089627
v -0.331216 2.913803 -0.190316
v -0.552208 2.772694 -0.089627
v -0.438568 2.918757 0.030523
v -0.331216 2.913803 -0.190316
v -0.552208 2.772694 -0.089627
v -0.538374 2.772055 -0.118087
v -0.331216 2.913803 -0.190316
v -0.438568 2.918757 0.030523
v -0.552208 2.772694 -0.089627
v 0.165911 3.089417 0.230594
v 0.278682 3.106983 0.090391
v 0.025269 3.110743 0.031693
v 0.165911 3.089417 0.230594
v 0.025269 3.110743 0.031693
v 0.133252 3.089901 0.223029
v 0.165911 3.089417 0.230594
v 0.025269 3.110743 0.031693
v 0.278682 3.106983 0.090391
v 0.165911 3.089417 0.230594
v 0.133252 3.089901 0.223029
v 0.025269 3.110743 0.031693
v 0.278682 3.106983 0.090391
v 0.361708 3.084005 -0.055971
v -0.028139 3.089789 -0.146271
v 0.278682 3.106983 0.090391
v -0.028139 3.089789 -0.146271
v 0.025269 3.110743 0.031693
v 0.278682 3.106983 0.090391
v -0.028139 3.089789 -0.146271
v 0.361708 3.084005 -0.055971
v 0.278682 3.106983 0.090391
v 0.025269 3.110743 0.031693
v -0.028139 3.089789 -0.146271
v 0.361708 3.084005 -0.055971
v 0.396910 3.012424 -0.212530
v 0.007063 3.018208 -0.302830
v 0.361708 3.084005 -0.055971
v 0.007063 3.018208 -0.302830
v -0.028139 3.089789 -0.146271
v 0.361708 3.084005 -0.055971
v 0.007063 3.018208 -0.302830
v 0.396910 3.012424 -0.212530
v 0.361708 3.084005 -0.055971
v -0.028139 3.089789 -0.146271
v 0.007063 3.018208 -0.302830
v 0.396910 3.012424 -0.212530
v 0.384288 2.892241 -0.379287
v 0.130875 2.896000 -0.437985
v 0.396910 3.012424 -0.212530
v 0.130875 2.896000 -0.437985
v 0.007063 3.018208 -0.302830
v 0.396910 3.012424 -0.212530
v 0.130875 2.896000 -0.437985
v 0.384288 2.892241 -0.379287
v 0.396910 3.012424 -0.212530
v 0.007063 3.018208 -0.302830
v 0.130875 2.896000 -0.437985
v 0.384288 2.892241 -0.379287
v 0.341920 2.731512 -0.552202
v 0.309262 2.731997 -0.559767
v 0.384288 2.892241 -0.379287
v 0.309262 2.731997 -0.559767
v 0.130875 2.896000 -0.437985
v 0.384288 2.892241 -0.379287
v 0.309262 2.731997 -0.559767
v 0.341920 2.731512 -0.552202
v 0.384288 2.892241 -0.379287
v 0.130875 2.896000 -0.437985
v 0.309262 2.731997 -0.559767
f 289 290 291
f 292 293 294
f 295 296 297
f 298 299 300
f 301 302 303
f 304 305 306
f 307 308 309
f 310 311 312
f 313 314 315
f 316 317 318
f 319 320 321
f 322 323 324
f 325 326 327
f 328 329 330
f 331 332 333
f 334 335 336
f 337 338 339
f 340 341 342
f 343 344 345
f 346 347 348
f 349 350 351
f 352 353 354
f 355 356 357
f 358 359 360
f 361 362 363
f 364 365 366
f 367 368 369
f 370 371 372
f 373 374 375
f 376 377 378
f 379 380 381
f 382 383 384
f 385 386 387
f 388 389 390
f 391 392 393
f 394 395 396
f 397 398 399
f 400 401 402
f 403 404 405
f 406 407 408
f 409 410 411
f 412 413 414
f 415 416 417
f 418 419 420
f 421 422 423
f 424 425 426
f 427 428 429
f 430 431 432
f 433 434 435
f 436 437 438
f 439 440 441
f 442 443 444
f 445 446 447
f 448 449 450
f 451 452 453
f 454 455 456
f 457 458 459
f 460 461 462
f 463 464 465
f 466 467 468
f 469 470 471
f 472 473 474
f 475 476 477
f 478 479 480
f 481 482 483
f 484 485 486
f 487 488 489
f 490 491 492
f 493 494 495
f 496 497 498
f 499 500 501
f 502 503 504
f 505 506 507
f 508 509 510
f 511 512 513
f 514 515 516
f 517 518 519
f 520 521 522
f 523 524 525
f 526 527 528
f 529 530 531
f 532 533 534
f 535 536 537
f 538 539 540
f 541 542 543
f 544 545 546
f 547 548 549
f 550 551 552
f 553 554 555
f 556 557 558
f 559 560 561
f 562 563 564
f 565 566 567
f 568 569 570
f 571 572 573
f 574 575 576
f 577 578 579
f 580 581 582
f 583 584 585
f 586 587 588

o PalmDarkLeaves
v 0.144474 2.998232 0.243215
v 0.277647 3.020418 0.367427
v 0.331290 3.016237 0.132327
v 0.144474 2.998232 0.243215
v 0.331290 3.016237 0.132327
v 0.151387 2.997693 0.212917
v 0.144474 2.998232 0.243215
v 0.331290 3.016237 0.132327
v 0.277647 3.020418 0.367427
v 0.144474 2.998232 0.243215
v 0.151387 2.997693 0.212917
v 0.331290 3.016237 0.132327
v 0.277647 3.020418 0.367427
v 0.417934 3.003759 0.457964
v 0.500458 2.997326 0.096289
v 0.277647 3.020418 0.367427
v 0.500458 2.997326 0.096289
v 0.331290 3.016237 0.132327
v 0.277647 3.020418 0.367427
v 0.500458 2.997326 0.096289
v 0.417934 3.003759 0.457964
v 0.277647 3.020418 0.367427
v 0.331290 3.016237 0.132327
v 0.500458 2.997326 0.096289
v 0.417934 3.003759 0.457964
v 0.570009 2.939555 0.493805
v 0.652533 2.933123 0.132131
v 0.417934 3.003759 0.457964
v 0.652533 2.933123 0.132131
v 0.500458 2.997326 0.096289
v 0.417934 3.003759 0.457964
v 0.652533 2.933123 0.132131
v 0.570009 2.939555 0.493805
v 0.417934 3.003759 0.457964
v 0.500458 2.997326 0.096289
v 0.652533 2.933123 0.132131
v 0.570009 2.939555 0.493805
v 0.733870 2.827807 0.474950
v 0.787514 2.823625 0.239850
v 0.570009 2.939555 0.493805
v 0.787514 2.823625 0.239850
v 0.652533 2.933123 0.132131
v 0.570009 2.939555 0.493805
v 0.787514 2.823625 0.239850
v 0.733870 2.827807 0.474950
v 0.570009 2.939555 0.493805
v 0.652533 2.933123 0.132131
v 0.787514 2.823625 0.239850
v 0.733870 2.827807 0.474950
v 0.904847 2.677213 0.422420
v 0.911760 2.676674 0.392122
v 0.733870 2.827807 0.474950
v 0.911760 2.676674 0.392122
v 0.787514 2.823625 0.239850
v 0.733870 2.827807 0.474950
v 0.911760 2.676674 0.392122
v 0.904847 2.677213 0.422420
v 0.733870 2.827807 0.474950
v 0.787514 2.823625 0.239850
v 0.911760 2.676674 0.392122
v 0.135685 3.009894 0.227210
v 0.027768 3.034680 0.347584
v 0.221085 3.031348 0.358373
v 0.135685 3.009894 0.227210
v 0.221085 3.031348 0.358373
v 0.160598 3.009465 0.228601
v 0.135685 3.009894 0.227210
v 0.221085 3.031348 0.358373
v 0.027768 3.034680 0.347584
v 0.135685 3.009894 0.227210
v 0.160598 3.009465 0.228601
v 0.221085 3.031348 0.358373
v 0.027768 3.034680 0.347584
v -0.042213 3.017188 0.470685
v 0.255184 3.012061 0.487283
v 0.027768 3.034680 0.347584
v 0.255184 3.012061 0.487283
v 0.221085 3.031348 0.358373
v 0.027768 3.034680 0.347584
v 0.255184 3.012061 0.487283
v -0.042213 3.017188 0.470685
v 0.027768 3.034680 0.347584
v 0.221085 3.031348 0.358373
v 0.255184 3.012061 0.487283
v -0.042213 3.017188 0.470685
v -0.050497 2.948681 0.597963
v 0.246899 2.943554 0.614561
v -0.042213 3.017188 0.470685
v 0.246899 2.943554 0.614561
v 0.255184 3.012061 0.487283
v -0.042213 3.017188 0.470685
v 0.246899 2.943554 0.614561
v -0.050497 2.948681 0.597963
v -0.042213 3.017188 0.470685
v 0.255184 3.012061 0.487283
v 0.246899 2.943554 0.614561
v -0.050497 2.948681 0.597963
v 0.002915 2.829160 0.729418
v 0.196232 2.825828 0.740207
v -0.050497 2.948681 0.597963
v 0.196232 2.825828 0.740207
v 0.246899 2.943554 0.614561
v -0.050497 2.948681 0.597963
v 0.196232 2.825828 0.740207
v 0.002915 2.829160 0.729418
v -0.050497 2.948681 0.597963
v 0.246899 2.943554 0.614561
v 0.196232 2.825828 0.740207
v 0.002915 2.829160 0.729418
v 0.094263 2.667361 0.863600
v 0.119176 2.666931 0.864991
v 0.002915 2.829160 0.729418
v 0.119176 2.666931 0.864991
v 0.196232 2.825828 0.740207
v 0.002915 2.829160 0.729418
v 0.119176 2.666931 0.864991
v 0.094263 2.667361 0.863600
v 0.002915 2.829160 0.729418
v 0.196232 2.825828 0.740207
v 0.119176 2.666931 0.864991
v 0.143711 3.021308 0.215158
v -0.031203 3.042832 0.132314
v 0.040831 3.044207 0.327648
v 0.143711 3.021308 0.215158
v 0.040831 3.044207 0.327648
v 0.152994 3.021485 0.240332
v 0.143711 3.021308 0.215158
v 0.040831 3.044207 0.327648
v -0.031203 3.042832 0.132314
v 0.143711 3.021308 0.215158
v 0.152994 3.021485 0.240332
v 0.040831 3.044207 0.327648
v -0.031203 3.042832 0.132314
v -0.188676 3.019719 0.099576
v -0.077860 3.021834 0.400075
v -0.031203 3.042832 0.132314
v -0.077860 3.021834 0.400075
v 0.040831 3.044207 0.327648
v -0.031203 3.042832 0.132314
v -0.077860 3.021834 0.400075
v -0.188676 3.019719 0.099576
v -0.031203 3.042832 0.132314
v 0.040831 3.044207 0.327648
v -0.077860 3.021834 0.400075
v -0.188676 3.019719 0.099576
v -0.317578 2.943860 0.147645
v -0.206761 2.945975 0.448145
v -0.188676 3.019719 0.099576
v -0.206761 2.945975 0.448145
v -0.077860 3.021834 0.400075
v -0.188676 3.019719 0.099576
v -0.206761 2.945975 0.448145
v -0.317578 2.943860 0.147645
v -0.188676 3.019719 0.099576
v -0.077860 3.021834 0.400075
v -0.206761 2.945975 0.448145
v -0.317578 2.943860 0.147645
v -0.417908 2.815255 0.276523
v -0.345874 2.816630 0.471857
v -0.317578 2.943860 0.147645
v -0.345874 2.816630 0.471857
v -0.206761 2.945975 0.448145
v -0.317578 2.943860 0.147645
v -0.345874 2.816630 0.471857
v -0.417908 2.815255 0.276523
v -0.317578 2.943860 0.147645
v -0.206761 2.945975 0.448145
v -0.345874 2.816630 0.471857
v -0.417908 2.815255 0.276523
v -0.500798 2.642012 0.455506
v -0.491514 2.642189 0.480680
v -0.417908 2.815255 0.276523
v -0.491514 2.642189 0.480680
v -0.345874 2.816630 0.471857
v -0.417908 2.815255 0.276523
v -0.491514 2.642189 0.480680
v -0.500798 2.642012 0.455506
v -0.417908 2.815255 0.276523
v -0.345874 2.816630 0.471857
v -0.491514 2.642189 0.480680
v 0.156559 2.982807 0.217009
v 0.071052 3.000444 0.091059
v -0.067000 3.005320 0.265800
v 0.156559 2.982807 0.217009
v -0.067000 3.005320 0.265800
v 0.138768 2.983435 0.239528
v 0.156559 2.982807 0.217009
v -0.067000 3.005320 0.265800
v 0.071052 3.000444 0.091059
v 0.156559 2.982807 0.217009
v 0.138768 2.983435 0.239528
v -0.067000 3.005320 0.265800
v 0.071052 3.000444 0.091059
v -0.026079 2.970100 -0.020619
v -0.238456 2.977601 0.248201
v 0.071052 3.000444 0.091059
v -0.238456 2.977601 0.248201
v -0.067000 3.005320 0.265800
v 0.071052 3.000444 0.091059
v -0.238456 2.977601 0.248201
v -0.026079 2.970100 -0.020619
v 0.071052 3.000444 0.091059
v -0.067000 3.005320 0.265800
v -0.238456 2.977601 0.248201
v -0.026079 2.970100 -0.020619
v -0.141630 2.883687 -0.109497
v -0.354007 2.891187 0.159323
v -0.026079 2.970100 -0.020619
v -0.354007 2.891187 0.159323
v -0.238456 2.977601 0.248201
v -0.026079 2.970100 -0.020619
v -0.354007 2.891187 0.159323
v -0.141630 2.883687 -0.109497
v -0.026079 2.970100 -0.020619
v -0.238456 2.977601 0.248201
v -0.354007 2.891187 0.159323
v -0.141630 2.883687 -0.109497
v -0.275601 2.741204 -0.175577
v -0.413653 2.746080 -0.000835
v -0.141630 2.883687 -0.109497
v -0.413653 2.746080 -0.000835
v -0.354007 2.891187 0.159323
v -0.141630 2.883687 -0.109497
v -0.413653 2.746080 -0.000835
v -0.275601 2.741204 -0.175577
v -0.141630 2.883687 -0.109497
v -0.354007 2.891187 0.159323
v -0.413653 2.746080 -0.000835
v -0.275601 2.741204 -0.175577
v -0.421196 2.550740 -0.227383
v -0.438987 2.551368 -0.204863
v -0.275601 2.741204 -0.175577
v -0.438987 2.551368 -0.204863
v -0.413653 2.746080 -0.000835
v -0.275601 2.741204 -0.175577
v -0.438987 2.551368 -0.204863
v -0.421196 2.550740 -0.227383
v -0.275601 2.741204 -0.175577
v -0.413653 2.746080 -0.000835
v -0.438987 2.551368 -0.204863
v 0.161293 2.994697 0.235438
v 0.307706 3.006872 0.138854
v 0.099461 3.009065 0.025099
v 0.161293 2.994697 0.235438
v 0.099461 3.009065 0.025099
v 0.134456 2.994979 0.220778
v 0.161293 2.994697 0.235438
v 0.099461 3.009065 0.025099
v 0.307706 3.006872 0.138854
v 0.161293 2.994697 0.235438
v 0.134456 2.994979 0.220778
v 0.099461 3.009065 0.025099
v 0.307706 3.006872 0.138854
v 0.425676 2.967602 0.027949
v 0.105315 2.970975 -0.147049
v 0.307706 3.006872 0.138854
v 0.105315 2.970975 -0.147049
v 0.099461 3.009065 0.025099
v 0.307706 3.006872 0.138854
v 0.105315 2.970975 -0.147049
v 0.425676 2.967602 0.027949
v 0.307706 3.006872 0.138854
v 0.099461 3.009065 0.025099
v 0.105315 2.970975 -0.147049
v 0.425676 2.967602 0.027949
v 0.498051 2.868742 -0.106451
v 0.177690 2.872116 -0.281449
v 0.425676 2.967602 0.027949
v 0.177690 2.872116 -0.281449
v 0.105315 2.970975 -0.147049
v 0.425676 2.967602 0.027949
v 0.177690 2.872116 -0.281449
v 0.498051 2.868742 -0.106451
v 0.425676 2.967602 0.027949
v 0.105315 2.970975 -0.147049
v 0.177690 2.872116 -0.281449
v 0.498051 2.868742 -0.106451
v 0.524830 2.710293 -0.264344
v 0.316586 2.712486 -0.378099
v 0.498051 2.868742 -0.106451
v 0.316586 2.712486 -0.378099
v 0.177690 2.872116 -0.281449
v 0.498051 2.868742 -0.106451
v 0.316586 2.712486 -0.378099
v 0.524830 2.710293 -0.264344
v 0.498051 2.868742 -0.106451
v 0.177690 2.872116 -0.281449
v 0.316586 2.712486 -0.378099
v 0.524830 2.710293 -0.264344
v 0.523168 2.500397 -0.436558
v 0.496330 2.500680 -0.451218
v 0.524830 2.710293 -0.264344
v 0.496330 2.500680 -0.451218
v 0.316586 2.712486 -0.378099
v 0.524830 2.710293 -0.264344
v 0.496330 2.500680 -0.451218
v 0.523168 2.500397 -0.436558
v 0.524830 2.710293 -0.264344
v 0.316586 2.712486 -0.378099
v 0.496330 2.500680 -0.451218
f 589 590 591
f 592 593 594
f 595 596 597
f 598 599 600
f 601 602 603
f 604 605 606
f 607 608 609
f 610 611 612
f 613 614 615
f 616 617 618
f 619 620 621
f 622 623 624
f 625 626 627
f 628 629 630
f 631 632 633
f 634 635 636
f 637 638 639
f 640 641 642
f 643 644 645
f 646 647 648
f 649 650 651
f 652 653 654
f 655 656 657
f 658 659 660
f 661 662 663
f 664 665 666
f 667 668 669
f 670 671 672
f 673 674 675
f 676 677 678
f 679 680 681
f 682 683 684
f 685 686 687
f 688 689 690
f 691 692 693
f 694 695 696
f 697 698 699
f 700 701 702
f 703 704 705
f 706 707 708
f 709 710 711
f 712 713 714
f 715 716 717
f 718 719 720
f 721 722 723
f 724 725 726
f 727 728 729
f 730 731 732
f 733 734 735
f 736 737 738
f 739 740 741
f 742 743 744
f 745 746 747
f 748 749 750
f 751 752 753
f 754 755 756
f 757 758 759
f 760 761 762
f 763 764 765
f 766 767 768
f 769 770 771
f 772 773 774
f 775 776 777
f 778 779 780
f 781 782 783
f 784 785 786
f 787 788 789
f 790 791 792
f 793 794 795
f 796 797 798
f 799 800 801
f 802 803 804
f 805 806 807
f 808 809 810
f 811 812 813
f 814 815 816
f 817 818 819
f 820 821 822
f 823 824 825
f 826 827 828
f 829 830 831
f 832 833 834
f 835 836 837
f 838 839 840
f 841 842 843
f 844 845 846
f 847 848 849
f 850 851 852
f 853 854 855
f 856 857 858
f 859 860 861
f 862 863 864
f 865 866 867
f 868 869 870
f 871 872 873
f 874 875 876
f 877 878 879
f 880 881 882
f 883 884 885
f 886 887 888
