# Pyramida editable prop source
# units: 1 OBJ unit = 1 Pyramida World Unit = 1 Blender metre

o PalmTrunk
v 0.061556 0.074391 0.096705
v 0.238128 0.020872 -0.016977
v 0.240448 0.044247 -0.041478
v 0.061556 0.074391 0.096705
v 0.240448 0.044247 -0.041478
v 0.071707 0.176653 -0.010484
v 0.043495 0.075584 -0.006723
v 0.061556 0.074391 0.096705
v 0.071707 0.176653 -0.010484
v 0.234000 0.021145 -0.040618
v 0.240448 0.044247 -0.041478
v 0.238128 0.020872 -0.016977
v 0.071707 0.176653 -0.010484
v 0.240448 0.044247 -0.041478
v 0.229872 0.021418 -0.064259
v 0.071707 0.176653 -0.010484
v 0.229872 0.021418 -0.064259
v 0.025434 0.076778 -0.110151
v 0.043495 0.075584 -0.006723
v 0.071707 0.176653 -0.010484
v 0.025434 0.076778 -0.110151
v 0.234000 0.021145 -0.040618
v 0.229872 0.021418 -0.064259
v 0.240448 0.044247 -0.041478
v 0.025434 0.076778 -0.110151
v 0.229872 0.021418 -0.064259
v 0.227551 -0.001956 -0.039758
v 0.025434 0.076778 -0.110151
v 0.227551 -0.001956 -0.039758
v 0.015282 -0.025484 -0.002963
v 0.043495 0.075584 -0.006723
v 0.025434 0.076778 -0.110151
v 0.015282 -0.025484 -0.002963
v 0.234000 0.021145 -0.040618
v 0.227551 -0.001956 -0.039758
v 0.229872 0.021418 -0.064259
v 0.015282 -0.025484 -0.002963
v 0.227551 -0.001956 -0.039758
v 0.238128 0.020872 -0.016977
v 0.015282 -0.025484 -0.002963
v 0.238128 0.020872 -0.016977
v 0.061556 0.074391 0.096705
v 0.043495 0.075584 -0.006723
v 0.015282 -0.025484 -0.002963
v 0.061556 0.074391 0.096705
v 0.234000 0.021145 -0.040618
v 0.238128 0.020872 -0.016977
v 0.227551 -0.001956 -0.039758
v -0.114972 0.073784 -0.003527
v -0.137195 0.013355 0.232049
v -0.118339 0.036606 0.248044
v -0.114972 0.073784 -0.003527
v -0.118339 0.036606 0.248044
v -0.032477 0.175507 0.066451
v -0.020180 0.074227 0.041631
v -0.114972 0.073784 -0.003527
v -0.032477 0.175507 0.066451
v -0.115528 0.013456 0.242371
v -0.118339 0.036606 0.248044
v -0.137195 0.013355 0.232049
v -0.032477 0.175507 0.066451
v -0.118339 0.036606 0.248044
v -0.093861 0.013557 0.252693
v -0.032477 0.175507 0.066451
v -0.093861 0.013557 0.252693
v 0.074612 0.074669 0.086790
v -0.020180 0.074227 0.041631
v -0.032477 0.175507 0.066451
v 0.074612 0.074669 0.086790
v -0.115528 0.013456 0.242371
v -0.093861 0.013557 0.252693
v -0.118339 0.036606 0.248044
v 0.074612 0.074669 0.086790
v -0.093861 0.013557 0.252693
v -0.112717 -0.009694 0.236698
v 0.074612 0.074669 0.086790
v -0.112717 -0.009694 0.236698
v -0.007882 -0.027054 0.016811
v -0.020180 0.074227 0.041631
v 0.074612 0.074669 0.086790
v -0.007882 -0.027054 0.016811
v -0.115528 0.013456 0.242371
v -0.112717 -0.009694 0.236698
v -0.093861 0.013557 0.252693
v -0.007882 -0.027054 0.016811
v -0.112717 -0.009694 0.236698
v -0.137195 0.013355 0.232049
v -0.007882 -0.027054 0.016811
v -0.137195 0.013355 0.232049
v -0.114972 0.073784 -0.003527
v -0.020180 0.074227 0.041631
v -0.007882 -0.027054 0.016811
v -0.114972 0.073784 -0.003527
v -0.115528 0.013456 0.242371
v -0.137195 0.013355 0.232049
v -0.112717 -0.009694 0.236698
v 0.068928 0.076981 -0.089430
v -0.124782 0.020288 -0.272288
v -0.148562 0.043344 -0.264876
v 0.068928 0.076981 -0.089430
v -0.148562 0.043344 -0.264876
v -0.035108 0.177852 -0.057005
v -0.022757 0.075275 -0.038286
v 0.068928 0.076981 -0.089430
v -0.035108 0.177852 -0.057005
v -0.145739 0.019898 -0.260598
v -0.148562 0.043344 -0.264876
v -0.124782 0.020288 -0.272288
v -0.035108 0.177852 -0.057005
v -0.148562 0.043344 -0.264876
v -0.166695 0.019508 -0.248908
v -0.035108 0.177852 -0.057005
v -0.166695 0.019508 -0.248908
v -0.114443 0.073569 0.012859
v -0.022757 0.075275 -0.038286
v -0.035108 0.177852 -0.057005
v -0.114443 0.073569 0.012859
v -0.145739 0.019898 -0.260598
v -0.166695 0.019508 -0.248908
v -0.148562 0.043344 -0.264876
v -0.114443 0.073569 0.012859
v -0.166695 0.019508 -0.248908
v -0.142916 -0.003548 -0.256319
v -0.114443 0.073569 0.012859
v -0.142916 -0.003548 -0.256319
v -0.010407 -0.027302 -0.019566
v -0.022757 0.075275 -0.038286
v -0.114443 0.073569 0.012859
v -0.010407 -0.027302 -0.019566
v -0.145739 0.019898 -0.260598
v -0.142916 -0.003548 -0.256319
v -0.166695 0.019508 -0.248908
v -0.010407 -0.027302 -0.019566
v -0.142916 -0.003548 -0.256319
v -0.124782 0.020288 -0.272288
v -0.010407 -0.027302 -0.019566
v -0.124782 0.020288 -0.272288
v 0.068928 0.076981 -0.089430
v -0.022757 0.075275 -0.038286
v -0.010407 -0.027302 -0.019566
v 0.068928 0.076981 -0.089430
v -0.145739 0.019898 -0.260598
v -0.124782 0.020288 -0.272288
v -0.142916 -0.003548 -0.256319
v 0.000107 -0.007650 -0.149805
v -0.037989 0.994044 -0.175951
v 0.070142 1.001342 -0.113665
v 0.000107 -0.007650 -0.149805
v 0.070142 1.001342 -0.113665
v 0.129864 0.001108 -0.075061
v 0.000000 0.000000 0.000000
v 0.000107 -0.007650 -0.149805
v 0.129864 0.001108 -0.075061
v 0.129864 0.001108 -0.075061
v 0.070142 1.001342 -0.113665
v 0.070052 1.007717 0.011173
v 0.129864 0.001108 -0.075061
v 0.070052 1.007717 0.011173
v 0.129756 0.008758 0.074743
v 0.000000 0.000000 0.000000
v 0.129864 0.001108 -0.075061
v 0.129756 0.008758 0.074743
v 0.129756 0.008758 0.074743
v 0.070052 1.007717 0.011173
v -0.038167 1.006794 0.073724
v 0.129756 0.008758 0.074743
v -0.038167 1.006794 0.073724
v -0.000107 0.007650 0.149805
v 0.000000 0.000000 0.000000
v 0.129756 0.008758 0.074743
v -0.000107 0.007650 0.149805
v -0.000107 0.007650 0.149805
v -0.038167 1.006794 0.073724
v -0.146298 0.999496 0.011438
v -0.000107 0.007650 0.149805
v -0.146298 0.999496 0.011438
v -0.129864 -0.001108 0.075061
v 0.000000 0.000000 0.000000
v -0.000107 0.007650 0.149805
v -0.129864 -0.001108 0.075061
v -0.129864 -0.001108 0.075061
v -0.146298 0.999496 0.011438
v -0.146208 0.993121 -0.113400
v -0.129864 -0.001108 0.075061
v -0.146208 0.993121 -0.113400
v -0.129756 -0.008758 -0.074743
v 0.000000 0.000000 0.000000
v -0.129864 -0.001108 0.075061
v -0.129756 -0.008758 -0.074743
v -0.129756 -0.008758 -0.074743
v -0.146208 0.993121 -0.113400
v -0.037989 0.994044 -0.175951
v -0.129756 -0.008758 -0.074743
v -0.037989 0.994044 -0.175951
v 0.000107 -0.007650 -0.149805
v 0.000000 0.000000 0.000000
v -0.129756 -0.008758 -0.074743
v 0.000107 -0.007650 -0.149805
v -0.037957 0.991183 -0.175772
v -0.085698 1.993653 -0.225020
v 0.000758 2.001456 -0.175377
v -0.037957 0.991183 -0.175772
v 0.000758 2.001456 -0.175377
v 0.070114 1.000937 -0.113718
v -0.085795 2.001041 -0.125293
v 0.000758 2.001456 -0.175377
v -0.085698 1.993653 -0.225020
v 0.070114 1.000937 -0.113718
v 0.000758 2.001456 -0.175377
v 0.000662 2.008844 -0.075650
v 0.070114 1.000937 -0.113718
v 0.000662 2.008844 -0.075650
v 0.069992 1.010173 0.010940
v -0.085795 2.001041 -0.125293
v 0.000662 2.008844 -0.075650
v 0.000758 2.001456 -0.175377
v 0.069992 1.010173 0.010940
v 0.000662 2.008844 -0.075650
v -0.085892 2.008430 -0.025566
v 0.069992 1.010173 0.010940
v -0.085892 2.008430 -0.025566
v -0.038199 1.009654 0.073545
v -0.085795 2.001041 -0.125293
v -0.085892 2.008430 -0.025566
v 0.000662 2.008844 -0.075650
v -0.038199 1.009654 0.073545
v -0.085892 2.008430 -0.025566
v -0.172348 2.000627 -0.075209
v -0.038199 1.009654 0.073545
v -0.172348 2.000627 -0.075209
v -0.146269 0.999900 0.011491
v -0.085795 2.001041 -0.125293
v -0.172348 2.000627 -0.075209
v -0.085892 2.008430 -0.025566
v -0.146269 0.999900 0.011491
v -0.172348 2.000627 -0.075209
v -0.172251 1.993238 -0.174936
v -0.146269 0.999900 0.011491
v -0.172251 1.993238 -0.174936
v -0.146148 0.990665 -0.113167
v -0.085795 2.001041 -0.125293
v -0.172251 1.993238 -0.174936
v -0.172348 2.000627 -0.075209
v -0.146148 0.990665 -0.113167
v -0.172251 1.993238 -0.174936
v -0.085698 1.993653 -0.225020
v -0.146148 0.990665 -0.113167
v -0.085698 1.993653 -0.225020
v -0.037957 0.991183 -0.175772
v -0.085795 2.001041 -0.125293
v -0.085698 1.993653 -0.225020
v -0.172251 1.993238 -0.174936
f 1 2 3
f 4 5 6
f 7 8 9
f 10 11 12
f 13 14 15
f 16 17 18
f 19 20 21
f 22 23 24
f 25 26 27
f 28 29 30
f 31 32 33
f 34 35 36
f 37 38 39
f 40 41 42
f 43 44 45
f 46 47 48
f 49 50 51
f 52 53 54
f 55 56 57
f 58 59 60
f 61 62 63
f 64 65 66
f 67 68 69
f 70 71 72
f 73 74 75
f 76 77 78
f 79 80 81
f 82 83 84
f 85 86 87
f 88 89 90
f 91 92 93
f 94 95 96
f 97 98 99
f 100 101 102
f 103 104 105
f 106 107 108
f 109 110 111
f 112 113 114
f 115 116 117
f 118 119 120
f 121 122 123
f 124 125 126
f 127 128 129
f 130 131 132
f 133 134 135
f 136 137 138
f 139 140 141
f 142 143 144
f 145 146 147
f 148 149 150
f 151 152 153
f 154 155 156
f 157 158 159
f 160 161 162
f 163 164 165
f 166 167 168
f 169 170 171
f 172 173 174
f 175 176 177
f 178 179 180
f 181 182 183
f 184 185 186
f 187 188 189
f 190 191 192
f 193 194 195
f 196 197 198
f 199 200 201
f 202 203 204
f 205 206 207
f 208 209 210
f 211 212 213
f 214 215 216
f 217 218 219
f 220 221 222
f 223 224 225
f 226 227 228
f 229 230 231
f 232 233 234
f 235 236 237
f 238 239 240
f 241 242 243
f 244 245 246
f 247 248 249
f 250 251 252
