# Pyramida editable prop source
# units: 1 OBJ unit = 1 Pyramida World Unit = 1 Blender metre

o PalmTrunk
v 0.060916 0.074267 0.097204
v 0.240727 0.020592 -0.015561
v 0.243186 0.043996 -0.040019
v 0.060916 0.074267 0.097204
v 0.243186 0.043996 -0.040019
v 0.071675 0.176660 -0.009800
v 0.043645 0.075529 -0.006358
v 0.060916 0.074267 0.097204
v 0.071675 0.176660 -0.009800
v 0.236780 0.020881 -0.039232
v 0.243186 0.043996 -0.040019
v 0.240727 0.020592 -0.015561
v 0.071675 0.176660 -0.009800
v 0.243186 0.043996 -0.040019
v 0.232832 0.021169 -0.062903
v 0.071675 0.176660 -0.009800
v 0.232832 0.021169 -0.062903
v 0.026375 0.076791 -0.109920
v 0.043645 0.075529 -0.006358
v 0.071675 0.176660 -0.009800
v 0.026375 0.076791 -0.109920
v 0.236780 0.020881 -0.039232
v 0.232832 0.021169 -0.062903
v 0.243186 0.043996 -0.040019
v 0.026375 0.076791 -0.109920
v 0.232832 0.021169 -0.062903
v 0.230373 -0.002235 -0.038445
v 0.026375 0.076791 -0.109920
v 0.230373 -0.002235 -0.038445
v 0.015615 -0.025602 -0.002916
v 0.043645 0.075529 -0.006358
v 0.026375 0.076791 -0.109920
v 0.015615 -0.025602 -0.002916
v 0.236780 0.020881 -0.039232
v 0.230373 -0.002235 -0.038445
v 0.232832 0.021169 -0.062903
v 0.015615 -0.025602 -0.002916
v 0.230373 -0.002235 -0.038445
v 0.240727 0.020592 -0.015561
v 0.015615 -0.025602 -0.002916
v 0.240727 0.020592 -0.015561
v 0.060916 0.074267 0.097204
v 0.043645 0.075529 -0.006358
v 0.015615 -0.025602 -0.002916
v 0.060916 0.074267 0.097204
v 0.236780 0.020881 -0.039232
v 0.240727 0.020592 -0.015561
v 0.230373 -0.002235 -0.038445
v -0.114843 0.073939 -0.004371
v -0.140026 0.013395 0.233235
v -0.121235 0.036631 0.249329
v -0.114843 0.073939 -0.004371
v -0.121235 0.036631 0.249329
v -0.032633 0.175594 0.066039
v -0.020398 0.074235 0.041509
v -0.114843 0.073939 -0.004371
v -0.032633 0.175594 0.066039
v -0.118439 0.013463 0.243722
v -0.121235 0.036631 0.249329
v -0.140026 0.013395 0.233235
v -0.032633 0.175594 0.066039
v -0.121235 0.036631 0.249329
v -0.096851 0.013531 0.254209
v -0.032633 0.175594 0.066039
v -0.096851 0.013531 0.254209
v 0.074047 0.074532 0.087389
v -0.020398 0.074235 0.041509
v -0.032633 0.175594 0.066039
v 0.074047 0.074532 0.087389
v -0.118439 0.013463 0.243722
v -0.096851 0.013531 0.254209
v -0.121235 0.036631 0.249329
v 0.074047 0.074532 0.087389
v -0.096851 0.013531 0.254209
v -0.115642 -0.009705 0.238115
v 0.074047 0.074532 0.087389
v -0.115642 -0.009705 0.238115
v -0.008163 -0.027123 0.016979
v -0.020398 0.074235 0.041509
v 0.074047 0.074532 0.087389
v -0.008163 -0.027123 0.016979
v -0.118439 0.013463 0.243722
v -0.115642 -0.009705 0.238115
v -0.096851 0.013531 0.254209
v -0.008163 -0.027123 0.016979
v -0.115642 -0.009705 0.238115
v -0.140026 0.013395 0.233235
v -0.008163 -0.027123 0.016979
v -0.140026 0.013395 0.233235
v -0.114843 0.073939 -0.004371
v -0.020398 0.074235 0.041509
v -0.008163 -0.027123 0.016979
v -0.114843 0.073939 -0.004371
v -0.118439 0.013463 0.243722
v -0.140026 0.013395 0.233235
v -0.115642 -0.009705 0.238115
v 0.069710 0.076928 -0.088868
v -0.123869 0.020590 -0.275400
v -0.147651 0.043685 -0.268117
v 0.069710 0.076928 -0.088868
v -0.147651 0.043685 -0.268117
v -0.034334 0.177969 -0.057005
v -0.022365 0.075322 -0.038425
v 0.069710 0.076928 -0.088868
v -0.034334 0.177969 -0.057005
v -0.144915 0.020223 -0.263870
v -0.147651 0.043685 -0.268117
v -0.123869 0.020590 -0.275400
v -0.034334 0.177969 -0.057005
v -0.147651 0.043685 -0.268117
v -0.165960 0.019856 -0.252340
v -0.034334 0.177969 -0.057005
v -0.165960 0.019856 -0.252340
v -0.114440 0.073716 0.012019
v -0.022365 0.075322 -0.038425
v -0.034334 0.177969 -0.057005
v -0.114440 0.073716 0.012019
v -0.144915 0.020223 -0.263870
v -0.165960 0.019856 -0.252340
v -0.147651 0.043685 -0.268117
v -0.114440 0.073716 0.012019
v -0.165960 0.019856 -0.252340
v -0.142179 -0.003239 -0.259623
v -0.114440 0.073716 0.012019
v -0.142179 -0.003239 -0.259623
v -0.010395 -0.027326 -0.019844
v -0.022365 0.075322 -0.038425
v -0.114440 0.073716 0.012019
v -0.010395 -0.027326 -0.019844
v -0.144915 0.020223 -0.263870
v -0.142179 -0.003239 -0.259623
v -0.165960 0.019856 -0.252340
v -0.010395 -0.027326 -0.019844
v -0.142179 -0.003239 -0.259623
v -0.123869 0.020590 -0.275400
v -0.010395 -0.027326 -0.019844
v -0.123869 0.020590 -0.275400
v 0.069710 0.076928 -0.088868
v -0.022365 0.075322 -0.038425
v -0.010395 -0.027326 -0.019844
v 0.069710 0.076928 -0.088868
v -0.144915 0.020223 -0.263870
v -0.123869 0.020590 -0.275400
v -0.142179 -0.003239 -0.259623
v 0.000099 -0.008009 -0.149786
v -0.028843 0.993925 -0.178342
v 0.079324 1.000385 -0.116026
v 0.000099 -0.008009 -0.149786
v 0.079324 1.000385 -0.116026
v 0.129899 -0.000257 -0.075007
v 0.000000 0.000000 0.000000
v 0.000099 -0.008009 -0.149786
v 0.129899 -0.000257 -0.075007
v 0.129899 -0.000257 -0.075007
v 0.079324 1.000385 -0.116026
v 0.079241 1.007059 0.008796
v 0.129899 -0.000257 -0.075007
v 0.079241 1.007059 0.008796
v 0.129800 0.007752 0.074779
v 0.000000 0.000000 0.000000
v 0.129899 -0.000257 -0.075007
v 0.129800 0.007752 0.074779
v 0.129800 0.007752 0.074779
v 0.079241 1.007059 0.008796
v -0.029008 1.007273 0.071302
v 0.129800 0.007752 0.074779
v -0.029008 1.007273 0.071302
v -0.000099 0.008009 0.149786
v 0.000000 0.000000 0.000000
v 0.129800 0.007752 0.074779
v -0.000099 0.008009 0.149786
v -0.000099 0.008009 0.149786
v -0.029008 1.007273 0.071302
v -0.137175 1.000813 0.008986
v -0.000099 0.008009 0.149786
v -0.137175 1.000813 0.008986
v -0.129899 0.000257 0.075007
v 0.000000 0.000000 0.000000
v -0.000099 0.008009 0.149786
v -0.129899 0.000257 0.075007
v -0.129899 0.000257 0.075007
v -0.137175 1.000813 0.008986
v -0.137092 0.994139 -0.115836
v -0.129899 0.000257 0.075007
v -0.137092 0.994139 -0.115836
v -0.129800 -0.007752 -0.074779
v 0.000000 0.000000 0.000000
v -0.129899 0.000257 0.075007
v -0.129800 -0.007752 -0.074779
v -0.129800 -0.007752 -0.074779
v -0.137092 0.994139 -0.115836
v -0.028843 0.993925 -0.178342
v -0.129800 -0.007752 -0.074779
v -0.028843 0.993925 -0.178342
v 0.000099 -0.008009 -0.149786
v 0.000000 0.000000 0.000000
v -0.129800 -0.007752 -0.074779
v 0.000099 -0.008009 -0.149786
v -0.028813 0.990944 -0.178146
v -0.064570 1.993740 -0.230795
v 0.021933 2.000679 -0.181105
v -0.028813 0.990944 -0.178146
v 0.021933 2.000679 -0.181105
v 0.079315 0.999619 -0.116034
v 0.079315 0.999619 -0.116034
v 0.021933 2.000679 -0.181105
v 0.021843 2.008404 -0.081403
v 0.079315 0.999619 -0.116034
v 0.021843 2.008404 -0.081403
v 0.079203 1.009274 0.008593
v 0.079203 1.009274 0.008593
v 0.021843 2.008404 -0.081403
v -0.064749 2.009188 -0.031392
v 0.079203 1.009274 0.008593
v -0.064749 2.009188 -0.031392
v -0.029038 1.010255 0.071107
v -0.029038 1.010255 0.071107
v -0.064749 2.009188 -0.031392
v -0.151252 2.002249 -0.081082
v -0.029038 1.010255 0.071107
v -0.151252 2.002249 -0.081082
v -0.137166 1.001580 0.008994
v -0.137166 1.001580 0.008994
v -0.151252 2.002249 -0.081082
v -0.151162 1.994524 -0.180784
v -0.137166 1.001580 0.008994
v -0.151162 1.994524 -0.180784
v -0.137054 0.991925 -0.115633
v -0.137054 0.991925 -0.115633
v -0.151162 1.994524 -0.180784
v -0.064570 1.993740 -0.230795
v -0.137054 0.991925 -0.115633
v -0.064570 1.993740 -0.230795
v -0.028813 0.990944 -0.178146
v -0.064546 1.991369 -0.230583
v -0.107117 2.995023 -0.307337
v -0.042265 3.001546 -0.270233
v -0.064546 1.991369 -0.230583
v -0.042265 3.001546 -0.270233
v 0.021922 2.000066 -0.181110
v -0.107202 3.002594 -0.232721
v -0.042265 3.001546 -0.270233
v -0.107117 2.995023 -0.307337
v 0.021922 2.000066 -0.181110
v -0.042265 3.001546 -0.270233
v -0.042350 3.009117 -0.195616
v 0.021922 2.000066 -0.181110
v -0.042350 3.009117 -0.195616
v 0.021809 2.010160 -0.081621
v -0.107202 3.002594 -0.232721
v -0.042350 3.009117 -0.195616
v -0.042265 3.001546 -0.270233
v 0.021809 2.010160 -0.081621
v -0.042350 3.009117 -0.195616
v -0.107287 3.010165 -0.158104
v 0.021809 2.010160 -0.081621
v -0.107287 3.010165 -0.158104
v -0.064773 2.011559 -0.031604
v -0.107202 3.002594 -0.232721
v -0.107287 3.010165 -0.158104
v -0.042350 3.009117 -0.195616
v -0.064773 2.011559 -0.031604
v -0.107287 3.010165 -0.158104
v -0.172138 3.003643 -0.195208
v -0.064773 2.011559 -0.031604
v -0.172138 3.003643 -0.195208
v -0.151241 2.002862 -0.081077
v -0.107202 3.002594 -0.232721
v -0.172138 3.003643 -0.195208
v -0.107287 3.010165 -0.158104
v -0.151241 2.002862 -0.081077
v -0.172138 3.003643 -0.195208
v -0.172053 2.996072 -0.269825
v -0.151241 2.002862 -0.081077
v -0.172053 2.996072 -0.269825
v -0.151128 1.992768 -0.180566
v -0.107202 3.002594 -0.232721
v -0.172053 2.996072 -0.269825
v -0.172138 3.003643 -0.195208
v -0.151128 1.992768 -0.180566
v -0.172053 2.996072 -0.269825
v -0.107117 2.995023 -0.307337
v -0.151128 1.992768 -0.180566
v -0.107117 2.995023 -0.307337
v -0.064546 1.991369 -0.230583
v -0.107202 3.002594 -0.232721
v -0.107117 2.995023 -0.307337
v -0.172053 2.996072 -0.269825
f 1 2 3
f 4 5 6
f 7 8 9
f 10 11 12
f 13 14 15
f 16 17 18
f 19 20 21
f 22 23 24
f 25 26 27
f 28 29 30
f 31 32 33
f 34 35 36
f 37 38 39
f 40 41 42
f 43 44 45
f 46 47 48
f 49 50 51
f 52 53 54
f 55 56 57
f 58 59 60
f 61 62 63
f 64 65 66
f 67 68 69
f 70 71 72
f 73 74 75
f 76 77 78
f 79 80 81
f 82 83 84
f 85 86 87
f 88 89 90
f 91 92 93
f 94 95 96
f 97 98 99
f 100 101 102
f 103 104 105
f 106 107 108
f 109 110 111
f 112 113 114
f 115 116 117
f 118 119 120
f 121 122 123
f 124 125 126
f 127 128 129
f 130 131 132
f 133 134 135
f 136 137 138
f 139 140 141
f 142 143 144
f 145 146 147
f 148 149 150
f 151 152 153
f 154 155 156
f 157 158 159
f 160 161 162
f 163 164 165
f 166 167 168
f 169 170 171
f 172 173 174
f 175 176 177
f 178 179 180
f 181 182 183
f 184 185 186
f 187 188 189
f 190 191 192
f 193 194 195
f 196 197 198
f 199 200 201
f 202 203 204
f 205 206 207
f 208 209 210
f 211 212 213
f 214 215 216
f 217 218 219
f 220 221 222
f 223 224 225
f 226 227 228
f 229 230 231
f 232 233 234
f 235 236 237
f 238 239 240
f 241 242 243
f 244 245 246
f 247 248 249
f 250 251 252
f 253 254 255
f 256 257 258
f 259 260 261
f 262 263 264
f 265 266 267
f 268 269 270
f 271 272 273
f 274 275 276
f 277 278 279
f 280 281 282
f 283 284 285
f 286 287 288
