# Pyramida editable prop source
# units: 1 OBJ unit = 1 Pyramida World Unit = 1 Blender metre

o PalmTrunk
v 0.060916 0.074267 0.097204
v 0.240727 0.020592 -0.015561
v 0.243186 0.043996 -0.040019
v 0.060916 0.074267 0.097204
v 0.243186 0.043996 -0.040019
v 0.071675 0.176660 -0.009800
v 0.043645 0.075529 -0.006358
v 0.060916 0.074267 0.097204
v 0.071675 0.176660 -0.009800
v 0.236780 0.020881 -0.039232
v 0.243186 0.043996 -0.040019
v 0.240727 0.020592 -0.015561
v 0.071675 0.176660 -0.009800
v 0.243186 0.043996 -0.040019
v 0.232832 0.021169 -0.062903
v 0.071675 0.176660 -0.009800
v 0.232832 0.021169 -0.062903
v 0.026375 0.076791 -0.109920
v 0.043645 0.075529 -0.006358
v 0.071675 0.176660 -0.009800
v 0.026375 0.076791 -0.109920
v 0.236780 0.020881 -0.039232
v 0.232832 0.021169 -0.062903
v 0.243186 0.043996 -0.040019
v 0.026375 0.076791 -0.109920
v 0.232832 0.021169 -0.062903
v 0.230373 -0.002235 -0.038445
v 0.026375 0.076791 -0.109920
v 0.230373 -0.002235 -0.038445
v 0.015615 -0.025602 -0.002916
v 0.043645 0.075529 -0.006358
v 0.026375 0.076791 -0.109920
v 0.015615 -0.025602 -0.002916
v 0.236780 0.020881 -0.039232
v 0.230373 -0.002235 -0.038445
v 0.232832 0.021169 -0.062903
v 0.015615 -0.025602 -0.002916
v 0.230373 -0.002235 -0.038445
v 0.240727 0.020592 -0.015561
v 0.015615 -0.025602 -0.002916
v 0.240727 0.020592 -0.015561
v 0.060916 0.074267 0.097204
v 0.043645 0.075529 -0.006358
v 0.015615 -0.025602 -0.002916
v 0.060916 0.074267 0.097204
v 0.236780 0.020881 -0.039232
v 0.240727 0.020592 -0.015561
v 0.230373 -0.002235 -0.038445
v -0.114843 0.073939 -0.004371
v -0.140026 0.013395 0.233235
v -0.121235 0.036631 0.249329
v -0.114843 0.073939 -0.004371
v -0.121235 0.036631 0.249329
v -0.032633 0.175594 0.066039
v -0.020398 0.074235 0.041509
v -0.114843 0.073939 -0.004371
v -0.032633 0.175594 0.066039
v -0.118439 0.013463 0.243722
v -0.121235 0.036631 0.249329
v -0.140026 0.013395 0.233235
v -0.032633 0.175594 0.066039
v -0.121235 0.036631 0.249329
v -0.096851 0.013531 0.254209
v -0.032633 0.175594 0.066039
v -0.096851 0.013531 0.254209
v 0.074047 0.074532 0.087389
v -0.020398 0.074235 0.041509
v -0.032633 0.175594 0.066039
v 0.074047 0.074532 0.087389
v -0.118439 0.013463 0.243722
v -0.096851 0.013531 0.254209
v -0.121235 0.036631 0.249329
v 0.074047 0.074532 0.087389
v -0.096851 0.013531 0.254209
v -0.115642 -0.009705 0.238115
v 0.074047 0.074532 0.087389
v -0.115642 -0.009705 0.238115
v -0.008163 -0.027123 0.016979
v -0.020398 0.074235 0.041509
v 0.074047 0.074532 0.087389
v -0.008163 -0.027123 0.016979
v -0.118439 0.013463 0.243722
v -0.115642 -0.009705 0.238115
v -0.096851 0.013531 0.254209
v -0.008163 -0.027123 0.016979
v -0.115642 -0.009705 0.238115
v -0.140026 0.013395 0.233235
v -0.008163 -0.027123 0.016979
v -0.140026 0.013395 0.233235
v -0.114843 0.073939 -0.004371
v -0.020398 0.074235 0.041509
v -0.008163 -0.027123 0.016979
v -0.114843 0.073939 -0.004371
v -0.118439 0.013463 0.243722
v -0.140026 0.013395 0.233235
v -0.115642 -0.009705 0.238115
v 0.069710 0.076928 -0.088868
v -0.123869 0.020590 -0.275400
v -0.147651 0.043685 -0.268117
v 0.069710 0.076928 -0.088868
v -0.147651 0.043685 -0.268117
v -0.034334 0.177969 -0.057005
v -0.022365 0.075322 -0.038425
v 0.069710 0.076928 -0.088868
v -0.034334 0.177969 -0.057005
v -0.144915 0.020223 -0.263870
v -0.147651 0.043685 -0.268117
v -0.123869 0.020590 -0.275400
v -0.034334 0.177969 -0.057005
v -0.147651 0.043685 -0.268117
v -0.165960 0.019856 -0.252340
v -0.034334 0.177969 -0.057005
v -0.165960 0.019856 -0.252340
v -0.114440 0.073716 0.012019
v -0.022365 0.075322 -0.038425
v -0.034334 0.177969 -0.057005
v -0.114440 0.073716 0.012019
v -0.144915 0.020223 -0.263870
v -0.165960 0.019856 -0.252340
v -0.147651 0.043685 -0.268117
v -0.114440 0.073716 0.012019
v -0.165960 0.019856 -0.252340
v -0.142179 -0.003239 -0.259623
v -0.114440 0.073716 0.012019
v -0.142179 -0.003239 -0.259623
v -0.010395 -0.027326 -0.019844
v -0.022365 0.075322 -0.038425
v -0.114440 0.073716 0.012019
v -0.010395 -0.027326 -0.019844
v -0.144915 0.020223 -0.263870
v -0.142179 -0.003239 -0.259623
v -0.165960 0.019856 -0.252340
v -0.010395 -0.027326 -0.019844
v -0.142179 -0.003239 -0.259623
v -0.123869 0.020590 -0.275400
v -0.010395 -0.027326 -0.019844
v -0.123869 0.020590 -0.275400
v 0.069710 0.076928 -0.088868
v -0.022365 0.075322 -0.038425
v -0.010395 -0.027326 -0.019844
v 0.069710 0.076928 -0.088868
v -0.144915 0.020223 -0.263870
v -0.123869 0.020590 -0.275400
v -0.142179 -0.003239 -0.259623
v 0.000099 -0.008009 -0.149786
v -0.028843 0.993925 -0.178342
v 0.079324 1.000385 -0.116026
v 0.000099 -0.008009 -0.149786
v 0.079324 1.000385 -0.116026
v 0.129899 -0.000257 -0.075007
v 0.000000 0.000000 0.000000
v 0.000099 -0.008009 -0.149786
v 0.129899 -0.000257 -0.075007
v 0.129899 -0.000257 -0.075007
v 0.079324 1.000385 -0.116026
v 0.079241 1.007059 0.008796
v 0.129899 -0.000257 -0.075007
v 0.079241 1.007059 0.008796
v 0.129800 0.007752 0.074779
v 0.000000 0.000000 0.000000
v 0.129899 -0.000257 -0.075007
v 0.129800 0.007752 0.074779
v 0.129800 0.007752 0.074779
v 0.079241 1.007059 0.008796
v -0.029008 1.007273 0.071302
v 0.129800 0.007752 0.074779
v -0.029008 1.007273 0.071302
v -0.000099 0.008009 0.149786
v 0.000000 0.000000 0.000000
v 0.129800 0.007752 0.074779
v -0.000099 0.008009 0.149786
v -0.000099 0.008009 0.149786
v -0.029008 1.007273 0.071302
v -0.137175 1.000813 0.008986
v -0.000099 0.008009 0.149786
v -0.137175 1.000813 0.008986
v -0.129899 0.000257 0.075007
v 0.000000 0.000000 0.000000
v -0.000099 0.008009 0.149786
v -0.129899 0.000257 0.075007
v -0.129899 0.000257 0.075007
v -0.137175 1.000813 0.008986
v -0.137092 0.994139 -0.115836
v -0.129899 0.000257 0.075007
v -0.137092 0.994139 -0.115836
v -0.129800 -0.007752 -0.074779
v 0.000000 0.000000 0.000000
v -0.129899 0.000257 0.075007
v -0.129800 -0.007752 -0.074779
v -0.129800 -0.007752 -0.074779
v -0.137092 0.994139 -0.115836
v -0.028843 0.993925 -0.178342
v -0.129800 -0.007752 -0.074779
v -0.028843 0.993925 -0.178342
v 0.000099 -0.008009 -0.149786
v 0.000000 0.000000 0.000000
v -0.129800 -0.007752 -0.074779
v 0.000099 -0.008009 -0.149786
v -0.028813 0.990944 -0.178146
v -0.064570 1.993740 -0.230795
v 0.021933 2.000679 -0.181105
v -0.028813 0.990944 -0.178146
v 0.021933 2.000679 -0.181105
v 0.079315 0.999619 -0.116034
v 0.079315 0.999619 -0.116034
v 0.021933 2.000679 -0.181105
v 0.021843 2.008404 -0.081403
v 0.079315 0.999619 -0.116034
v 0.021843 2.008404 -0.081403
v 0.079203 1.009274 0.008593
v 0.079203 1.009274 0.008593
v 0.021843 2.008404 -0.081403
v -0.064749 2.009188 -0.031392
v 0.079203 1.009274 0.008593
v -0.064749 2.009188 -0.031392
v -0.029038 1.010255 0.071107
v -0.029038 1.010255 0.071107
v -0.064749 2.009188 -0.031392
v -0.151252 2.002249 -0.081082
v -0.029038 1.010255 0.071107
v -0.151252 2.002249 -0.081082
v -0.137166 1.001580 0.008994
v -0.137166 1.001580 0.008994
v -0.151252 2.002249 -0.081082
v -0.151162 1.994524 -0.180784
v -0.137166 1.001580 0.008994
v -0.151162 1.994524 -0.180784
v -0.137054 0.991925 -0.115633
v -0.137054 0.991925 -0.115633
v -0.151162 1.994524 -0.180784
v -0.064570 1.993740 -0.230795
v -0.137054 0.991925 -0.115633
v -0.064570 1.993740 -0.230795
v -0.028813 0.990944 -0.178146
v -0.064546 1.991369 -0.230583
v -0.107117 2.995023 -0.307337
v -0.042265 3.001546 -0.270233
v -0.064546 1.991369 -0.230583
v -0.042265 3.001546 -0.270233
v 0.021922 2.000066 -0.181110
v -0.107202 3.002594 -0.232721
v -0.042265 3.001546 -0.270233
v -0.107117 2.995023 -0.307337
v 0.021922 2.000066 -0.181110
v -0.042265 3.001546 -0.270233
v -0.042350 3.009117 -0.195616
v 0.021922 2.000066 -0.181110
v -0.042350 3.009117 -0.195616
v 0.021809 2.010160 -0.081621
v -0.107202 3.002594 -0.232721
v -0.042350 3.009117 -0.195616
v -0.042265 3.001546 -0.270233
v 0.021809 2.010160 -0.081621
v -0.042350 3.009117 -0.195616
v -0.107287 3.010165 -0.158104
v 0.021809 2.010160 -0.081621
v -0.107287 3.010165 -0.158104
v -0.064773 2.011559 -0.031604
v -0.107202 3.002594 -0.232721
v -0.107287 3.010165 -0.158104
v -0.042350 3.009117 -0.195616
v -0.064773 2.011559 -0.031604
v -0.107287 3.010165 -0.158104
v -0.172138 3.003643 -0.195208
v -0.064773 2.011559 -0.031604
v -0.172138 3.003643 -0.195208
v -0.151241 2.002862 -0.081077
v -0.107202 3.002594 -0.232721
v -0.172138 3.003643 -0.195208
v -0.107287 3.010165 -0.158104
v -0.151241 2.002862 -0.081077
v -0.172138 3.003643 -0.195208
v -0.172053 2.996072 -0.269825
v -0.151241 2.002862 -0.081077
v -0.172053 2.996072 -0.269825
v -0.151128 1.992768 -0.180566
v -0.107202 3.002594 -0.232721
v -0.172053 2.996072 -0.269825
v -0.172138 3.003643 -0.195208
v -0.151128 1.992768 -0.180566
v -0.172053 2.996072 -0.269825
v -0.107117 2.995023 -0.307337
v -0.151128 1.992768 -0.180566
v -0.107117 2.995023 -0.307337
v -0.064546 1.991369 -0.230583
v -0.107202 3.002594 -0.232721
v -0.107117 2.995023 -0.307337
v -0.172053 2.996072 -0.269825
f 1 2 3
f 4 5 6
f 7 8 9
f 10 11 12
f 13 14 15
f 16 17 18
f 19 20 21
f 22 23 24
f 25 26 27
f 28 29 30
f 31 32 33
f 34 35 36
f 37 38 39
f 40 41 42
f 43 44 45
f 46 47 48
f 49 50 51
f 52 53 54
f 55 56 57
f 58 59 60
f 61 62 63
f 64 65 66
f 67 68 69
f 70 71 72
f 73 74 75
f 76 77 78
f 79 80 81
f 82 83 84
f 85 86 87
f 88 89 90
f 91 92 93
f 94 95 96
f 97 98 99
f 100 101 102
f 103 104 105
f 106 107 108
f 109 110 111
f 112 113 114
f 115 116 117
f 118 119 120
f 121 122 123
f 124 125 126
f 127 128 129
f 130 131 132
f 133 134 135
f 136 137 138
f 139 140 141
f 142 143 144
f 145 146 147
f 148 149 150
f 151 152 153
f 154 155 156
f 157 158 159
f 160 161 162
f 163 164 165
f 166 167 168
f 169 170 171
f 172 173 174
f 175 176 177
f 178 179 180
f 181 182 183
f 184 185 186
f 187 188 189
f 190 191 192
f 193 194 195
f 196 197 198
f 199 200 201
f 202 203 204
f 205 206 207
f 208 209 210
f 211 212 213
f 214 215 216
f 217 218 219
f 220 221 222
f 223 224 225
f 226 227 228
f 229 230 231
f 232 233 234
f 235 236 237
f 238 239 240
f 241 242 243
f 244 245 246
f 247 248 249
f 250 251 252
f 253 254 255
f 256 257 258
f 259 260 261
f 262 263 264
f 265 266 267
f 268 269 270
f 271 272 273
f 274 275 276
f 277 278 279
f 280 281 282
f 283 284 285
f 286 287 288

o PalmLightLeaves
v -0.109739 3.060860 -0.216990
v 0.018519 3.084197 -0.071764
v 0.048938 3.087701 -0.303329
v -0.109739 3.060860 -0.216990
v 0.048938 3.087701 -0.303329
v -0.105819 3.061312 -0.246833
v -0.109739 3.060860 -0.216990
v 0.048938 3.087701 -0.303329
v 0.018519 3.084197 -0.071764
v -0.109739 3.060860 -0.216990
v -0.105819 3.061312 -0.246833
v 0.048938 3.087701 -0.303329
v 0.018519 3.084197 -0.071764
v 0.153444 3.072417 0.024905
v 0.200240 3.077806 -0.331331
v 0.018519 3.084197 -0.071764
v 0.200240 3.077806 -0.331331
v 0.048938 3.087701 -0.303329
v 0.018519 3.084197 -0.071764
v 0.200240 3.077806 -0.331331
v 0.153444 3.072417 0.024905
v 0.018519 3.084197 -0.071764
v 0.048938 3.087701 -0.303329
v 0.200240 3.077806 -0.331331
v 0.153444 3.072417 0.024905
v 0.299020 3.017644 0.043199
v 0.345816 3.023033 -0.313037
v 0.153444 3.072417 0.024905
v 0.345816 3.023033 -0.313037
v 0.200240 3.077806 -0.331331
v 0.153444 3.072417 0.024905
v 0.345816 3.023033 -0.313037
v 0.299020 3.017644 0.043199
v 0.153444 3.072417 0.024905
v 0.200240 3.077806 -0.331331
v 0.345816 3.023033 -0.313037
v 0.299020 3.017644 0.043199
v 0.455246 2.919878 -0.016881
v 0.485665 2.923381 -0.248446
v 0.299020 3.017644 0.043199
v 0.485665 2.923381 -0.248446
v 0.345816 3.023033 -0.313037
v 0.299020 3.017644 0.043199
v 0.485665 2.923381 -0.248446
v 0.455246 2.919878 -0.016881
v 0.299020 3.017644 0.043199
v 0.345816 3.023033 -0.313037
v 0.485665 2.923381 -0.248446
v 0.455246 2.919878 -0.016881
v 0.618140 2.786994 -0.125518
v 0.622060 2.787446 -0.155360
v 0.455246 2.919878 -0.016881
v 0.622060 2.787446 -0.155360
v 0.485665 2.923381 -0.248446
v 0.455246 2.919878 -0.016881
v 0.622060 2.787446 -0.155360
v 0.618140 2.786994 -0.125518
v 0.455246 2.919878 -0.016881
v 0.485665 2.923381 -0.248446
v 0.622060 2.787446 -0.155360
v -0.122162 3.077250 -0.224382
v -0.192285 3.096327 -0.014259
v 0.028420 3.100071 -0.127592
v -0.122162 3.077250 -0.224382
v 0.028420 3.100071 -0.127592
v -0.093719 3.077733 -0.238987
v -0.122162 3.077250 -0.224382
v 0.028420 3.100071 -0.127592
v -0.192285 3.096327 -0.014259
v -0.122162 3.077250 -0.224382
v -0.093719 3.077733 -0.238987
v 0.028420 3.100071 -0.127592
v -0.192285 3.096327 -0.014259
v -0.208327 3.077657 0.167755
v 0.131202 3.083417 -0.006595
v -0.192285 3.096327 -0.014259
v 0.131202 3.083417 -0.006595
v 0.028420 3.100071 -0.127592
v -0.192285 3.096327 -0.014259
v 0.131202 3.083417 -0.006595
v -0.208327 3.077657 0.167755
v -0.192285 3.096327 -0.014259
v 0.028420 3.100071 -0.127592
v 0.131202 3.083417 -0.006595
v -0.208327 3.077657 0.167755
v -0.137019 3.013479 0.304501
v 0.202511 3.019240 0.130152
v -0.208327 3.077657 0.167755
v 0.202511 3.019240 0.130152
v 0.131202 3.083417 -0.006595
v -0.208327 3.077657 0.167755
v 0.202511 3.019240 0.130152
v -0.137019 3.013479 0.304501
v -0.208327 3.077657 0.167755
v 0.131202 3.083417 -0.006595
v 0.202511 3.019240 0.130152
v -0.137019 3.013479 0.304501
v 0.021641 2.903795 0.395981
v 0.242346 2.907540 0.282648
v -0.137019 3.013479 0.304501
v 0.242346 2.907540 0.282648
v 0.202511 3.019240 0.130152
v -0.137019 3.013479 0.304501
v 0.242346 2.907540 0.282648
v 0.021641 2.903795 0.395981
v -0.137019 3.013479 0.304501
v 0.202511 3.019240 0.130152
v 0.242346 2.907540 0.282648
v 0.021641 2.903795 0.395981
v 0.234382 2.756365 0.459351
v 0.262825 2.756847 0.444745
v 0.021641 2.903795 0.395981
v 0.262825 2.756847 0.444745
v 0.242346 2.907540 0.282648
v 0.021641 2.903795 0.395981
v 0.262825 2.756847 0.444745
v 0.234382 2.756365 0.459351
v 0.021641 2.903795 0.395981
v 0.242346 2.907540 0.282648
v 0.262825 2.756847 0.444745
v -0.119001 3.093969 -0.244408
v -0.297781 3.118899 -0.202798
v -0.128644 3.117787 -0.001818
v -0.119001 3.093969 -0.244408
v -0.128644 3.117787 -0.001818
v -0.097204 3.093826 -0.218507
v -0.119001 3.093969 -0.244408
v -0.128644 3.117787 -0.001818
v -0.297781 3.118899 -0.202798
v -0.119001 3.093969 -0.244408
v -0.097204 3.093826 -0.218507
v -0.128644 3.117787 -0.001818
v -0.297781 3.118899 -0.202798
v -0.455763 3.114225 -0.137227
v -0.195565 3.112514 0.171958
v -0.297781 3.118899 -0.202798
v -0.195565 3.112514 0.171958
v -0.128644 3.117787 -0.001818
v -0.297781 3.118899 -0.202798
v -0.195565 3.112514 0.171958
v -0.455763 3.114225 -0.137227
v -0.297781 3.118899 -0.202798
v -0.128644 3.117787 -0.001818
v -0.195565 3.112514 0.171958
v -0.455763 3.114225 -0.137227
v -0.580190 3.071537 -0.032750
v -0.319992 3.069827 0.276435
v -0.455763 3.114225 -0.137227
v -0.319992 3.069827 0.276435
v -0.195565 3.112514 0.171958
v -0.455763 3.114225 -0.137227
v -0.319992 3.069827 0.276435
v -0.580190 3.071537 -0.032750
v -0.455763 3.114225 -0.137227
v -0.195565 3.112514 0.171958
v -0.319992 3.069827 0.276435
v -0.580190 3.071537 -0.032750
v -0.671063 2.990837 0.110633
v -0.501926 2.989726 0.311613
v -0.580190 3.071537 -0.032750
v -0.501926 2.989726 0.311613
v -0.319992 3.069827 0.276435
v -0.580190 3.071537 -0.032750
v -0.501926 2.989726 0.311613
v -0.671063 2.990837 0.110633
v -0.580190 3.071537 -0.032750
v -0.319992 3.069827 0.276435
v -0.501926 2.989726 0.311613
v -0.671063 2.990837 0.110633
v -0.741138 2.880533 0.277976
v -0.719341 2.880389 0.303877
v -0.671063 2.990837 0.110633
v -0.719341 2.880389 0.303877
v -0.501926 2.989726 0.311613
v -0.671063 2.990837 0.110633
v -0.719341 2.880389 0.303877
v -0.741138 2.880533 0.277976
v -0.671063 2.990837 0.110633
v -0.501926 2.989726 0.311613
v -0.719341 2.880389 0.303877
v -0.099918 3.110538 -0.242298
v -0.184504 3.137957 -0.415094
v -0.314035 3.134303 -0.243345
v -0.099918 3.110538 -0.242298
v -0.314035 3.134303 -0.243345
v -0.116611 3.110067 -0.220164
v -0.099918 3.110538 -0.242298
v -0.314035 3.134303 -0.243345
v -0.184504 3.137957 -0.415094
v -0.099918 3.110538 -0.242298
v -0.116611 3.110067 -0.220164
v -0.314035 3.134303 -0.243345
v -0.184504 3.137957 -0.415094
v -0.288889 3.132525 -0.561663
v -0.488158 3.126905 -0.297446
v -0.184504 3.137957 -0.415094
v -0.488158 3.126905 -0.297446
v -0.314035 3.134303 -0.243345
v -0.184504 3.137957 -0.415094
v -0.488158 3.126905 -0.297446
v -0.288889 3.132525 -0.561663
v -0.184504 3.137957 -0.415094
v -0.314035 3.134303 -0.243345
v -0.488158 3.126905 -0.297446
v -0.288889 3.132525 -0.561663
v -0.425424 3.085569 -0.665634
v -0.624693 3.079949 -0.401417
v -0.288889 3.132525 -0.561663
v -0.624693 3.079949 -0.401417
v -0.488158 3.126905 -0.297446
v -0.288889 3.132525 -0.561663
v -0.624693 3.079949 -0.401417
v -0.425424 3.085569 -0.665634
v -0.288889 3.132525 -0.561663
v -0.488158 3.126905 -0.297446
v -0.624693 3.079949 -0.401417
v -0.425424 3.085569 -0.665634
v -0.594108 2.997088 -0.727008
v -0.723639 2.993434 -0.555259
v -0.425424 3.085569 -0.665634
v -0.723639 2.993434 -0.555259
v -0.624693 3.079949 -0.401417
v -0.425424 3.085569 -0.665634
v -0.723639 2.993434 -0.555259
v -0.594108 2.997088 -0.727008
v -0.425424 3.085569 -0.665634
v -0.624693 3.079949 -0.401417
v -0.723639 2.993434 -0.555259
v -0.594108 2.997088 -0.727008
v -0.782591 2.875756 -0.762155
v -0.799284 2.875286 -0.740021
v -0.594108 2.997088 -0.727008
v -0.799284 2.875286 -0.740021
v -0.723639 2.993434 -0.555259
v -0.594108 2.997088 -0.727008
v -0.799284 2.875286 -0.740021
v -0.782591 2.875756 -0.762155
v -0.594108 2.997088 -0.727008
v -0.723639 2.993434 -0.555259
v -0.799284 2.875286 -0.740021
v -0.094918 3.126758 -0.224954
v 0.071954 3.154002 -0.307557
v -0.137678 3.153234 -0.401452
v -0.094918 3.126758 -0.224954
v -0.137678 3.153234 -0.401452
v -0.121934 3.126659 -0.237054
v -0.094918 3.126758 -0.224954
v -0.137678 3.153234 -0.401452
v 0.071954 3.154002 -0.307557
v -0.094918 3.126758 -0.224954
v -0.121934 3.126659 -0.237054
v -0.137678 3.153234 -0.401452
v 0.071954 3.154002 -0.307557
v 0.197822 3.146001 -0.409166
v -0.124672 3.144818 -0.553613
v 0.071954 3.154002 -0.307557
v -0.124672 3.144818 -0.553613
v -0.137678 3.153234 -0.401452
v 0.071954 3.154002 -0.307557
v -0.124672 3.144818 -0.553613
v 0.197822 3.146001 -0.409166
v 0.071954 3.154002 -0.307557
v -0.137678 3.153234 -0.401452
v -0.124672 3.144818 -0.553613
v 0.197822 3.146001 -0.409166
v 0.257215 3.094334 -0.541343
v -0.065280 3.093151 -0.685790
v 0.197822 3.146001 -0.409166
v -0.065280 3.093151 -0.685790
v -0.124672 3.144818 -0.553613
v 0.197822 3.146001 -0.409166
v -0.065280 3.093151 -0.685790
v 0.257215 3.094334 -0.541343
v 0.197822 3.146001 -0.409166
v -0.124672 3.144818 -0.553613
v -0.065280 3.093151 -0.685790
v 0.257215 3.094334 -0.541343
v 0.250131 2.999002 -0.704087
v 0.040499 2.998234 -0.797983
v 0.257215 3.094334 -0.541343
v 0.040499 2.998234 -0.797983
v -0.065280 3.093151 -0.685790
v 0.257215 3.094334 -0.541343
v 0.040499 2.998234 -0.797983
v 0.250131 2.999002 -0.704087
v 0.257215 3.094334 -0.541343
v -0.065280 3.093151 -0.685790
v 0.040499 2.998234 -0.797983
v 0.250131 2.999002 -0.704087
v 0.202044 2.868425 -0.885838
v 0.175028 2.868325 -0.897938
v 0.250131 2.999002 -0.704087
v 0.175028 2.868325 -0.897938
v 0.040499 2.998234 -0.797983
v 0.250131 2.999002 -0.704087
v 0.175028 2.868325 -0.897938
v 0.202044 2.868425 -0.885838
v 0.250131 2.999002 -0.704087
v 0.040499 2.998234 -0.797983
v 0.175028 2.868325 -0.897938
f 289 290 291
f 292 293 294
f 295 296 297
f 298 299 300
f 301 302 303
f 304 305 306
f 307 308 309
f 310 311 312
f 313 314 315
f 316 317 318
f 319 320 321
f 322 323 324
f 325 326 327
f 328 329 330
f 331 332 333
f 334 335 336
f 337 338 339
f 340 341 342
f 343 344 345
f 346 347 348
f 349 350 351
f 352 353 354
f 355 356 357
f 358 359 360
f 361 362 363
f 364 365 366
f 367 368 369
f 370 371 372
f 373 374 375
f 376 377 378
f 379 380 381
f 382 383 384
f 385 386 387
f 388 389 390
f 391 392 393
f 394 395 396
f 397 398 399
f 400 401 402
f 403 404 405
f 406 407 408
f 409 410 411
f 412 413 414
f 415 416 417
f 418 419 420
f 421 422 423
f 424 425 426
f 427 428 429
f 430 431 432
f 433 434 435
f 436 437 438
f 439 440 441
f 442 443 444
f 445 446 447
f 448 449 450
f 451 452 453
f 454 455 456
f 457 458 459
f 460 461 462
f 463 464 465
f 466 467 468
f 469 470 471
f 472 473 474
f 475 476 477
f 478 479 480
f 481 482 483
f 484 485 486
f 487 488 489
f 490 491 492
f 493 494 495
f 496 497 498
f 499 500 501
f 502 503 504
f 505 506 507
f 508 509 510
f 511 512 513
f 514 515 516
f 517 518 519
f 520 521 522
f 523 524 525
f 526 527 528
f 529 530 531
f 532 533 534
f 535 536 537
f 538 539 540
f 541 542 543
f 544 545 546
f 547 548 549
f 550 551 552
f 553 554 555
f 556 557 558
f 559 560 561
f 562 563 564
f 565 566 567
f 568 569 570
f 571 572 573
f 574 575 576
f 577 578 579
f 580 581 582
f 583 584 585
f 586 587 588

o PalmDarkLeaves
v -0.111437 3.024592 -0.219444
v -0.022985 3.042202 -0.040488
v 0.039339 3.045601 -0.241762
v -0.111437 3.024592 -0.219444
v 0.039339 3.045601 -0.241762
v -0.103405 3.025030 -0.245383
v -0.111437 3.024592 -0.219444
v 0.039339 3.045601 -0.241762
v -0.022985 3.042202 -0.040488
v -0.111437 3.024592 -0.219444
v -0.103405 3.025030 -0.245383
v 0.039339 3.045601 -0.241762
v -0.022985 3.042202 -0.040488
v 0.082238 3.015123 0.085126
v 0.178117 3.020352 -0.224511
v -0.022985 3.042202 -0.040488
v 0.178117 3.020352 -0.224511
v 0.039339 3.045601 -0.241762
v -0.022985 3.042202 -0.040488
v 0.178117 3.020352 -0.224511
v 0.082238 3.015123 0.085126
v -0.022985 3.042202 -0.040488
v 0.039339 3.045601 -0.241762
v 0.178117 3.020352 -0.224511
v 0.082238 3.015123 0.085126
v 0.214402 2.935582 0.124708
v 0.310281 2.940810 -0.184929
v 0.082238 3.015123 0.085126
v 0.310281 2.940810 -0.184929
v 0.178117 3.020352 -0.224511
v 0.082238 3.015123 0.085126
v 0.310281 2.940810 -0.184929
v 0.214402 2.935582 0.124708
v 0.082238 3.015123 0.085126
v 0.178117 3.020352 -0.224511
v 0.310281 2.940810 -0.184929
v 0.214402 2.935582 0.124708
v 0.373507 2.803578 0.078256
v 0.435832 2.806977 -0.123018
v 0.214402 2.935582 0.124708
v 0.435832 2.806977 -0.123018
v 0.310281 2.940810 -0.184929
v 0.214402 2.935582 0.124708
v 0.435832 2.806977 -0.123018
v 0.373507 2.803578 0.078256
v 0.214402 2.935582 0.124708
v 0.310281 2.940810 -0.184929
v 0.435832 2.806977 -0.123018
v 0.373507 2.803578 0.078256
v 0.549384 2.626885 -0.021536
v 0.557416 2.627323 -0.047475
v 0.373507 2.803578 0.078256
v 0.557416 2.627323 -0.047475
v 0.435832 2.806977 -0.123018
v 0.373507 2.803578 0.078256
v 0.557416 2.627323 -0.047475
v 0.549384 2.626885 -0.021536
v 0.373507 2.803578 0.078256
v 0.435832 2.806977 -0.123018
v 0.557416 2.627323 -0.047475
v -0.121113 2.986344 -0.229373
v -0.135349 3.001579 -0.074010
v 0.082995 3.004499 -0.129406
v -0.121113 2.986344 -0.229373
v 0.082995 3.004499 -0.129406
v -0.092974 2.986720 -0.236512
v -0.121113 2.986344 -0.229373
v 0.082995 3.004499 -0.129406
v -0.135349 3.001579 -0.074010
v -0.121113 2.986344 -0.229373
v -0.092974 2.986720 -0.236512
v 0.082995 3.004499 -0.129406
v -0.135349 3.001579 -0.074010
v -0.129924 2.968117 0.075811
v 0.205973 2.972609 -0.009409
v -0.135349 3.001579 -0.074010
v 0.205973 2.972609 -0.009409
v 0.082995 3.004499 -0.129406
v -0.135349 3.001579 -0.074010
v 0.205973 2.972609 -0.009409
v -0.129924 2.968117 0.075811
v -0.135349 3.001579 -0.074010
v 0.082995 3.004499 -0.129406
v 0.205973 2.972609 -0.009409
v -0.129924 2.968117 0.075811
v -0.092904 2.877793 0.216967
v 0.242994 2.882285 0.131746
v -0.129924 2.968117 0.075811
v 0.242994 2.882285 0.131746
v 0.205973 2.972609 -0.009409
v -0.129924 2.968117 0.075811
v 0.242994 2.882285 0.131746
v -0.092904 2.877793 0.216967
v -0.129924 2.968117 0.075811
v 0.205973 2.972609 -0.009409
v 0.242994 2.882285 0.131746
v -0.092904 2.877793 0.216967
v -0.024287 2.730605 0.349458
v 0.194057 2.733525 0.294061
v -0.092904 2.877793 0.216967
v 0.194057 2.733525 0.294061
v 0.242994 2.882285 0.131746
v -0.092904 2.877793 0.216967
v 0.194057 2.733525 0.294061
v -0.024287 2.730605 0.349458
v -0.092904 2.877793 0.216967
v 0.242994 2.882285 0.131746
v 0.194057 2.733525 0.294061
v -0.024287 2.730605 0.349458
v 0.063990 2.534721 0.476405
v 0.092129 2.535097 0.469266
v -0.024287 2.730605 0.349458
v 0.092129 2.535097 0.469266
v 0.194057 2.733525 0.294061
v -0.024287 2.730605 0.349458
v 0.092129 2.535097 0.469266
v 0.063990 2.534721 0.476405
v -0.024287 2.730605 0.349458
v 0.194057 2.733525 0.294061
v 0.092129 2.535097 0.469266
v -0.113424 2.998384 -0.246907
v -0.292367 3.019895 -0.264108
v -0.195139 3.017822 -0.044878
v -0.113424 2.998384 -0.246907
v -0.195139 3.017822 -0.044878
v -0.100894 2.998117 -0.218654
v -0.113424 2.998384 -0.246907
v -0.195139 3.017822 -0.044878
v -0.292367 3.019895 -0.264108
v -0.113424 2.998384 -0.246907
v -0.100894 2.998117 -0.218654
v -0.195139 3.017822 -0.044878
v -0.292367 3.019895 -0.264108
v -0.457239 3.003186 -0.250950
v -0.307665 2.999996 0.086310
v -0.292367 3.019895 -0.264108
v -0.307665 2.999996 0.086310
v -0.195139 3.017822 -0.044878
v -0.292367 3.019895 -0.264108
v -0.307665 2.999996 0.086310
v -0.457239 3.003186 -0.250950
v -0.292367 3.019895 -0.264108
v -0.195139 3.017822 -0.044878
v -0.307665 2.999996 0.086310
v -0.457239 3.003186 -0.250950
v -0.599493 2.939750 -0.188461
v -0.449919 2.936560 0.148799
v -0.457239 3.003186 -0.250950
v -0.449919 2.936560 0.148799
v -0.307665 2.999996 0.086310
v -0.457239 3.003186 -0.250950
v -0.449919 2.936560 0.148799
v -0.599493 2.939750 -0.188461
v -0.457239 3.003186 -0.250950
v -0.307665 2.999996 0.086310
v -0.449919 2.936560 0.148799
v -0.599493 2.939750 -0.188461
v -0.719129 2.829589 -0.076640
v -0.621901 2.827515 0.142589
v -0.599493 2.939750 -0.188461
v -0.621901 2.827515 0.142589
v -0.449919 2.936560 0.148799
v -0.599493 2.939750 -0.188461
v -0.621901 2.827515 0.142589
v -0.719129 2.829589 -0.076640
v -0.599493 2.939750 -0.188461
v -0.449919 2.936560 0.148799
v -0.621901 2.827515 0.142589
v -0.719129 2.829589 -0.076640
v -0.824693 2.681206 0.065539
v -0.812163 2.680939 0.093792
v -0.719129 2.829589 -0.076640
v -0.812163 2.680939 0.093792
v -0.621901 2.827515 0.142589
v -0.719129 2.829589 -0.076640
v -0.812163 2.680939 0.093792
v -0.824693 2.681206 0.065539
v -0.719129 2.829589 -0.076640
v -0.621901 2.827515 0.142589
v -0.812163 2.680939 0.093792
v -0.096953 3.010165 -0.239472
v -0.107130 3.034070 -0.431409
v -0.267310 3.031019 -0.325050
v -0.096953 3.010165 -0.239472
v -0.267310 3.031019 -0.325050
v -0.117596 3.009772 -0.225765
v -0.096953 3.010165 -0.239472
v -0.267310 3.031019 -0.325050
v -0.107130 3.034070 -0.431409
v -0.096953 3.010165 -0.239472
v -0.117596 3.009772 -0.225765
v -0.267310 3.031019 -0.325050
v -0.107130 3.034070 -0.431409
v -0.148099 3.016077 -0.603201
v -0.394518 3.011383 -0.439579
v -0.107130 3.034070 -0.431409
v -0.394518 3.011383 -0.439579
v -0.267310 3.031019 -0.325050
v -0.107130 3.034070 -0.431409
v -0.394518 3.011383 -0.439579
v -0.148099 3.016077 -0.603201
v -0.107130 3.034070 -0.431409
v -0.267310 3.031019 -0.325050
v -0.394518 3.011383 -0.439579
v -0.148099 3.016077 -0.603201
v -0.239061 2.947495 -0.742159
v -0.485480 2.942801 -0.578538
v -0.148099 3.016077 -0.603201
v -0.485480 2.942801 -0.578538
v -0.394518 3.011383 -0.439579
v -0.148099 3.016077 -0.603201
v -0.485480 2.942801 -0.578538
v -0.239061 2.947495 -0.742159
v -0.148099 3.016077 -0.603201
v -0.394518 3.011383 -0.439579
v -0.485480 2.942801 -0.578538
v -0.239061 2.947495 -0.742159
v -0.380016 2.828322 -0.848284
v -0.540195 2.825271 -0.741925
v -0.239061 2.947495 -0.742159
v -0.540195 2.825271 -0.741925
v -0.485480 2.942801 -0.578538
v -0.239061 2.947495 -0.742159
v -0.540195 2.825271 -0.741925
v -0.380016 2.828322 -0.848284
v -0.239061 2.947495 -0.742159
v -0.485480 2.942801 -0.578538
v -0.540195 2.825271 -0.741925
v -0.380016 2.828322 -0.848284
v -0.551762 2.667251 -0.934264
v -0.572405 2.666858 -0.920557
v -0.380016 2.828322 -0.848284
v -0.572405 2.666858 -0.920557
v -0.540195 2.825271 -0.741925
v -0.380016 2.828322 -0.848284
v -0.572405 2.666858 -0.920557
v -0.551762 2.667251 -0.934264
v -0.380016 2.828322 -0.848284
v -0.540195 2.825271 -0.741925
v -0.572405 2.666858 -0.920557
v -0.096210 3.021697 -0.225200
v 0.090096 3.043745 -0.264831
v -0.083407 3.043592 -0.377453
v -0.096210 3.021697 -0.225200
v -0.083407 3.043592 -0.377453
v -0.118570 3.021677 -0.239714
v -0.096210 3.021697 -0.225200
v -0.083407 3.043592 -0.377453
v 0.090096 3.043745 -0.264831
v -0.096210 3.021697 -0.225200
v -0.118570 3.021677 -0.239714
v -0.083407 3.043592 -0.377453
v 0.090096 3.043745 -0.264831
v 0.233683 3.021077 -0.333096
v -0.033232 3.020841 -0.506352
v 0.090096 3.043745 -0.264831
v -0.033232 3.020841 -0.506352
v -0.083407 3.043592 -0.377453
v 0.090096 3.043745 -0.264831
v -0.033232 3.020841 -0.506352
v 0.233683 3.021077 -0.333096
v 0.090096 3.043745 -0.264831
v -0.083407 3.043592 -0.377453
v -0.033232 3.020841 -0.506352
v 0.233683 3.021077 -0.333096
v 0.307961 2.945343 -0.447423
v 0.041046 2.945107 -0.620679
v 0.233683 3.021077 -0.333096
v 0.041046 2.945107 -0.620679
v -0.033232 3.020841 -0.506352
v 0.233683 3.021077 -0.333096
v 0.041046 2.945107 -0.620679
v 0.307961 2.945343 -0.447423
v 0.233683 3.021077 -0.333096
v -0.033232 3.020841 -0.506352
v 0.041046 2.945107 -0.620679
v 0.307961 2.945343 -0.447423
v 0.312928 2.816545 -0.607812
v 0.139424 2.816392 -0.720434
v 0.307961 2.945343 -0.447423
v 0.139424 2.816392 -0.720434
v 0.041046 2.945107 -0.620679
v 0.307961 2.945343 -0.447423
v 0.139424 2.816392 -0.720434
v 0.312928 2.816545 -0.607812
v 0.307961 2.945343 -0.447423
v 0.041046 2.945107 -0.620679
v 0.139424 2.816392 -0.720434
v 0.312928 2.816545 -0.607812
v 0.275176 2.643030 -0.796834
v 0.252816 2.643011 -0.811348
v 0.312928 2.816545 -0.607812
v 0.252816 2.643011 -0.811348
v 0.139424 2.816392 -0.720434
v 0.312928 2.816545 -0.607812
v 0.252816 2.643011 -0.811348
v 0.275176 2.643030 -0.796834
v 0.312928 2.816545 -0.607812
v 0.139424 2.816392 -0.720434
v 0.252816 2.643011 -0.811348
f 589 590 591
f 592 593 594
f 595 596 597
f 598 599 600
f 601 602 603
f 604 605 606
f 607 608 609
f 610 611 612
f 613 614 615
f 616 617 618
f 619 620 621
f 622 623 624
f 625 626 627
f 628 629 630
f 631 632 633
f 634 635 636
f 637 638 639
f 640 641 642
f 643 644 645
f 646 647 648
f 649 650 651
f 652 653 654
f 655 656 657
f 658 659 660
f 661 662 663
f 664 665 666
f 667 668 669
f 670 671 672
f 673 674 675
f 676 677 678
f 679 680 681
f 682 683 684
f 685 686 687
f 688 689 690
f 691 692 693
f 694 695 696
f 697 698 699
f 700 701 702
f 703 704 705
f 706 707 708
f 709 710 711
f 712 713 714
f 715 716 717
f 718 719 720
f 721 722 723
f 724 725 726
f 727 728 729
f 730 731 732
f 733 734 735
f 736 737 738
f 739 740 741
f 742 743 744
f 745 746 747
f 748 749 750
f 751 752 753
f 754 755 756
f 757 758 759
f 760 761 762
f 763 764 765
f 766 767 768
f 769 770 771
f 772 773 774
f 775 776 777
f 778 779 780
f 781 782 783
f 784 785 786
f 787 788 789
f 790 791 792
f 793 794 795
f 796 797 798
f 799 800 801
f 802 803 804
f 805 806 807
f 808 809 810
f 811 812 813
f 814 815 816
f 817 818 819
f 820 821 822
f 823 824 825
f 826 827 828
f 829 830 831
f 832 833 834
f 835 836 837
f 838 839 840
f 841 842 843
f 844 845 846
f 847 848 849
f 850 851 852
f 853 854 855
f 856 857 858
f 859 860 861
f 862 863 864
f 865 866 867
f 868 869 870
f 871 872 873
f 874 875 876
f 877 878 879
f 880 881 882
f 883 884 885
f 886 887 888
