# Pyramida editable prop source
# units: 1 OBJ unit = 1 Pyramida World Unit = 1 Blender metre

o PalmTrunk
v 0.061556 0.074391 0.096705
v 0.238128 0.020872 -0.016977
v 0.240448 0.044247 -0.041478
v 0.061556 0.074391 0.096705
v 0.240448 0.044247 -0.041478
v 0.071707 0.176653 -0.010484
v 0.043495 0.075584 -0.006723
v 0.061556 0.074391 0.096705
v 0.071707 0.176653 -0.010484
v 0.234000 0.021145 -0.040618
v 0.240448 0.044247 -0.041478
v 0.238128 0.020872 -0.016977
v 0.071707 0.176653 -0.010484
v 0.240448 0.044247 -0.041478
v 0.229872 0.021418 -0.064259
v 0.071707 0.176653 -0.010484
v 0.229872 0.021418 -0.064259
v 0.025434 0.076778 -0.110151
v 0.043495 0.075584 -0.006723
v 0.071707 0.176653 -0.010484
v 0.025434 0.076778 -0.110151
v 0.234000 0.021145 -0.040618
v 0.229872 0.021418 -0.064259
v 0.240448 0.044247 -0.041478
v 0.025434 0.076778 -0.110151
v 0.229872 0.021418 -0.064259
v 0.227551 -0.001956 -0.039758
v 0.025434 0.076778 -0.110151
v 0.227551 -0.001956 -0.039758
v 0.015282 -0.025484 -0.002963
v 0.043495 0.075584 -0.006723
v 0.025434 0.076778 -0.110151
v 0.015282 -0.025484 -0.002963
v 0.234000 0.021145 -0.040618
v 0.227551 -0.001956 -0.039758
v 0.229872 0.021418 -0.064259
v 0.015282 -0.025484 -0.002963
v 0.227551 -0.001956 -0.039758
v 0.238128 0.020872 -0.016977
v 0.015282 -0.025484 -0.002963
v 0.238128 0.020872 -0.016977
v 0.061556 0.074391 0.096705
v 0.043495 0.075584 -0.006723
v 0.015282 -0.025484 -0.002963
v 0.061556 0.074391 0.096705
v 0.234000 0.021145 -0.040618
v 0.238128 0.020872 -0.016977
v 0.227551 -0.001956 -0.039758
v -0.114972 0.073784 -0.003527
v -0.137195 0.013355 0.232049
v -0.118339 0.036606 0.248044
v -0.114972 0.073784 -0.003527
v -0.118339 0.036606 0.248044
v -0.032477 0.175507 0.066451
v -0.020180 0.074227 0.041631
v -0.114972 0.073784 -0.003527
v -0.032477 0.175507 0.066451
v -0.115528 0.013456 0.242371
v -0.118339 0.036606 0.248044
v -0.137195 0.013355 0.232049
v -0.032477 0.175507 0.066451
v -0.118339 0.036606 0.248044
v -0.093861 0.013557 0.252693
v -0.032477 0.175507 0.066451
v -0.093861 0.013557 0.252693
v 0.074612 0.074669 0.086790
v -0.020180 0.074227 0.041631
v -0.032477 0.175507 0.066451
v 0.074612 0.074669 0.086790
v -0.115528 0.013456 0.242371
v -0.093861 0.013557 0.252693
v -0.118339 0.036606 0.248044
v 0.074612 0.074669 0.086790
v -0.093861 0.013557 0.252693
v -0.112717 -0.009694 0.236698
v 0.074612 0.074669 0.086790
v -0.112717 -0.009694 0.236698
v -0.007882 -0.027054 0.016811
v -0.020180 0.074227 0.041631
v 0.074612 0.074669 0.086790
v -0.007882 -0.027054 0.016811
v -0.115528 0.013456 0.242371
v -0.112717 -0.009694 0.236698
v -0.093861 0.013557 0.252693
v -0.007882 -0.027054 0.016811
v -0.112717 -0.009694 0.236698
v -0.137195 0.013355 0.232049
v -0.007882 -0.027054 0.016811
v -0.137195 0.013355 0.232049
v -0.114972 0.073784 -0.003527
v -0.020180 0.074227 0.041631
v -0.007882 -0.027054 0.016811
v -0.114972 0.073784 -0.003527
v -0.115528 0.013456 0.242371
v -0.137195 0.013355 0.232049
v -0.112717 -0.009694 0.236698
v 0.068928 0.076981 -0.089430
v -0.124782 0.020288 -0.272288
v -0.148562 0.043344 -0.264876
v 0.068928 0.076981 -0.089430
v -0.148562 0.043344 -0.264876
v -0.035108 0.177852 -0.057005
v -0.022757 0.075275 -0.038286
v 0.068928 0.076981 -0.089430
v -0.035108 0.177852 -0.057005
v -0.145739 0.019898 -0.260598
v -0.148562 0.043344 -0.264876
v -0.124782 0.020288 -0.272288
v -0.035108 0.177852 -0.057005
v -0.148562 0.043344 -0.264876
v -0.166695 0.019508 -0.248908
v -0.035108 0.177852 -0.057005
v -0.166695 0.019508 -0.248908
v -0.114443 0.073569 0.012859
v -0.022757 0.075275 -0.038286
v -0.035108 0.177852 -0.057005
v -0.114443 0.073569 0.012859
v -0.145739 0.019898 -0.260598
v -0.166695 0.019508 -0.248908
v -0.148562 0.043344 -0.264876
v -0.114443 0.073569 0.012859
v -0.166695 0.019508 -0.248908
v -0.142916 -0.003548 -0.256319
v -0.114443 0.073569 0.012859
v -0.142916 -0.003548 -0.256319
v -0.010407 -0.027302 -0.019566
v -0.022757 0.075275 -0.038286
v -0.114443 0.073569 0.012859
v -0.010407 -0.027302 -0.019566
v -0.145739 0.019898 -0.260598
v -0.142916 -0.003548 -0.256319
v -0.166695 0.019508 -0.248908
v -0.010407 -0.027302 -0.019566
v -0.142916 -0.003548 -0.256319
v -0.124782 0.020288 -0.272288
v -0.010407 -0.027302 -0.019566
v -0.124782 0.020288 -0.272288
v 0.068928 0.076981 -0.089430
v -0.022757 0.075275 -0.038286
v -0.010407 -0.027302 -0.019566
v 0.068928 0.076981 -0.089430
v -0.145739 0.019898 -0.260598
v -0.124782 0.020288 -0.272288
v -0.142916 -0.003548 -0.256319
v 0.000107 -0.007650 -0.149805
v -0.037989 0.994044 -0.175951
v 0.070142 1.001342 -0.113665
v 0.000107 -0.007650 -0.149805
v 0.070142 1.001342 -0.113665
v 0.129864 0.001108 -0.075061
v 0.000000 0.000000 0.000000
v 0.000107 -0.007650 -0.149805
v 0.129864 0.001108 -0.075061
v 0.129864 0.001108 -0.075061
v 0.070142 1.001342 -0.113665
v 0.070052 1.007717 0.011173
v 0.129864 0.001108 -0.075061
v 0.070052 1.007717 0.011173
v 0.129756 0.008758 0.074743
v 0.000000 0.000000 0.000000
v 0.129864 0.001108 -0.075061
v 0.129756 0.008758 0.074743
v 0.129756 0.008758 0.074743
v 0.070052 1.007717 0.011173
v -0.038167 1.006794 0.073724
v 0.129756 0.008758 0.074743
v -0.038167 1.006794 0.073724
v -0.000107 0.007650 0.149805
v 0.000000 0.000000 0.000000
v 0.129756 0.008758 0.074743
v -0.000107 0.007650 0.149805
v -0.000107 0.007650 0.149805
v -0.038167 1.006794 0.073724
v -0.146298 0.999496 0.011438
v -0.000107 0.007650 0.149805
v -0.146298 0.999496 0.011438
v -0.129864 -0.001108 0.075061
v 0.000000 0.000000 0.000000
v -0.000107 0.007650 0.149805
v -0.129864 -0.001108 0.075061
v -0.129864 -0.001108 0.075061
v -0.146298 0.999496 0.011438
v -0.146208 0.993121 -0.113400
v -0.129864 -0.001108 0.075061
v -0.146208 0.993121 -0.113400
v -0.129756 -0.008758 -0.074743
v 0.000000 0.000000 0.000000
v -0.129864 -0.001108 0.075061
v -0.129756 -0.008758 -0.074743
v -0.129756 -0.008758 -0.074743
v -0.146208 0.993121 -0.113400
v -0.037989 0.994044 -0.175951
v -0.129756 -0.008758 -0.074743
v -0.037989 0.994044 -0.175951
v 0.000107 -0.007650 -0.149805
v 0.000000 0.000000 0.000000
v -0.129756 -0.008758 -0.074743
v 0.000107 -0.007650 -0.149805
v -0.037957 0.991183 -0.175772
v -0.085698 1.993653 -0.225020
v 0.000758 2.001456 -0.175377
v -0.037957 0.991183 -0.175772
v 0.000758 2.001456 -0.175377
v 0.070114 1.000937 -0.113718
v -0.085795 2.001041 -0.125293
v 0.000758 2.001456 -0.175377
v -0.085698 1.993653 -0.225020
v 0.070114 1.000937 -0.113718
v 0.000758 2.001456 -0.175377
v 0.000662 2.008844 -0.075650
v 0.070114 1.000937 -0.113718
v 0.000662 2.008844 -0.075650
v 0.069992 1.010173 0.010940
v -0.085795 2.001041 -0.125293
v 0.000662 2.008844 -0.075650
v 0.000758 2.001456 -0.175377
v 0.069992 1.010173 0.010940
v 0.000662 2.008844 -0.075650
v -0.085892 2.008430 -0.025566
v 0.069992 1.010173 0.010940
v -0.085892 2.008430 -0.025566
v -0.038199 1.009654 0.073545
v -0.085795 2.001041 -0.125293
v -0.085892 2.008430 -0.025566
v 0.000662 2.008844 -0.075650
v -0.038199 1.009654 0.073545
v -0.085892 2.008430 -0.025566
v -0.172348 2.000627 -0.075209
v -0.038199 1.009654 0.073545
v -0.172348 2.000627 -0.075209
v -0.146269 0.999900 0.011491
v -0.085795 2.001041 -0.125293
v -0.172348 2.000627 -0.075209
v -0.085892 2.008430 -0.025566
v -0.146269 0.999900 0.011491
v -0.172348 2.000627 -0.075209
v -0.172251 1.993238 -0.174936
v -0.146269 0.999900 0.011491
v -0.172251 1.993238 -0.174936
v -0.146148 0.990665 -0.113167
v -0.085795 2.001041 -0.125293
v -0.172251 1.993238 -0.174936
v -0.172348 2.000627 -0.075209
v -0.146148 0.990665 -0.113167
v -0.172251 1.993238 -0.174936
v -0.085698 1.993653 -0.225020
v -0.146148 0.990665 -0.113167
v -0.085698 1.993653 -0.225020
v -0.037957 0.991183 -0.175772
v -0.085795 2.001041 -0.125293
v -0.085698 1.993653 -0.225020
v -0.172251 1.993238 -0.174936
f 1 2 3
f 4 5 6
f 7 8 9
f 10 11 12
f 13 14 15
f 16 17 18
f 19 20 21
f 22 23 24
f 25 26 27
f 28 29 30
f 31 32 33
f 34 35 36
f 37 38 39
f 40 41 42
f 43 44 45
f 46 47 48
f 49 50 51
f 52 53 54
f 55 56 57
f 58 59 60
f 61 62 63
f 64 65 66
f 67 68 69
f 70 71 72
f 73 74 75
f 76 77 78
f 79 80 81
f 82 83 84
f 85 86 87
f 88 89 90
f 91 92 93
f 94 95 96
f 97 98 99
f 100 101 102
f 103 104 105
f 106 107 108
f 109 110 111
f 112 113 114
f 115 116 117
f 118 119 120
f 121 122 123
f 124 125 126
f 127 128 129
f 130 131 132
f 133 134 135
f 136 137 138
f 139 140 141
f 142 143 144
f 145 146 147
f 148 149 150
f 151 152 153
f 154 155 156
f 157 158 159
f 160 161 162
f 163 164 165
f 166 167 168
f 169 170 171
f 172 173 174
f 175 176 177
f 178 179 180
f 181 182 183
f 184 185 186
f 187 188 189
f 190 191 192
f 193 194 195
f 196 197 198
f 199 200 201
f 202 203 204
f 205 206 207
f 208 209 210
f 211 212 213
f 214 215 216
f 217 218 219
f 220 221 222
f 223 224 225
f 226 227 228
f 229 230 231
f 232 233 234
f 235 236 237
f 238 239 240
f 241 242 243
f 244 245 246
f 247 248 249
f 250 251 252

o PalmLightLeaves
v -0.088271 2.057975 -0.109664
v 0.040632 2.081691 0.032019
v 0.069223 2.085115 -0.198585
v -0.088271 2.057975 -0.109664
v 0.069223 2.085115 -0.198585
v -0.084586 2.058416 -0.139382
v -0.088271 2.057975 -0.109664
v 0.069223 2.085115 -0.198585
v 0.040632 2.081691 0.032019
v -0.088271 2.057975 -0.109664
v -0.084586 2.058416 -0.139382
v 0.069223 2.085115 -0.198585
v 0.040632 2.081691 0.032019
v 0.175776 2.070492 0.126078
v 0.219760 2.075760 -0.228680
v 0.040632 2.081691 0.032019
v 0.219760 2.075760 -0.228680
v 0.069223 2.085115 -0.198585
v 0.040632 2.081691 0.032019
v 0.219760 2.075760 -0.228680
v 0.175776 2.070492 0.126078
v 0.040632 2.081691 0.032019
v 0.069223 2.085115 -0.198585
v 0.219760 2.075760 -0.228680
v 0.175776 2.070492 0.126078
v 0.320864 2.016486 0.143264
v 0.364848 2.021754 -0.211493
v 0.175776 2.070492 0.126078
v 0.364848 2.021754 -0.211493
v 0.219760 2.075760 -0.228680
v 0.175776 2.070492 0.126078
v 0.364848 2.021754 -0.211493
v 0.320864 2.016486 0.143264
v 0.175776 2.070492 0.126078
v 0.219760 2.075760 -0.228680
v 0.364848 2.021754 -0.211493
v 0.320864 2.016486 0.143264
v 0.475897 1.919673 0.083579
v 0.504488 1.923098 -0.147025
v 0.320864 2.016486 0.143264
v 0.504488 1.923098 -0.147025
v 0.364848 2.021754 -0.211493
v 0.320864 2.016486 0.143264
v 0.504488 1.923098 -0.147025
v 0.475897 1.919673 0.083579
v 0.320864 2.016486 0.143264
v 0.364848 2.021754 -0.211493
v 0.504488 1.923098 -0.147025
v 0.475897 1.919673 0.083579
v 0.637170 1.787945 -0.023731
v 0.640855 1.788387 -0.053449
v 0.475897 1.919673 0.083579
v 0.640855 1.788387 -0.053449
v 0.504488 1.923098 -0.147025
v 0.475897 1.919673 0.083579
v 0.640855 1.788387 -0.053449
v 0.637170 1.787945 -0.023731
v 0.475897 1.919673 0.083579
v 0.504488 1.923098 -0.147025
v 0.640855 1.788387 -0.053449
v -0.100711 2.074345 -0.116932
v -0.167408 2.093581 0.091903
v 0.051415 2.097549 -0.022478
v -0.100711 2.074345 -0.116932
v 0.051415 2.097549 -0.022478
v -0.072510 2.074857 -0.131672
v -0.100711 2.074345 -0.116932
v 0.051415 2.097549 -0.022478
v -0.167408 2.093581 0.091903
v -0.100711 2.074345 -0.116932
v -0.072510 2.074857 -0.131672
v 0.051415 2.097549 -0.022478
v -0.167408 2.093581 0.091903
v -0.181040 2.075343 0.272705
v 0.155594 2.081447 0.096743
v -0.167408 2.093581 0.091903
v 0.155594 2.081447 0.096743
v 0.051415 2.097549 -0.022478
v -0.167408 2.093581 0.091903
v 0.155594 2.081447 0.096743
v -0.181040 2.075343 0.272705
v -0.167408 2.093581 0.091903
v 0.051415 2.097549 -0.022478
v 0.155594 2.081447 0.096743
v -0.181040 2.075343 0.272705
v -0.108983 2.011898 0.408357
v 0.227651 2.018002 0.232396
v -0.181040 2.075343 0.272705
v 0.227651 2.018002 0.232396
v 0.155594 2.081447 0.096743
v -0.181040 2.075343 0.272705
v 0.227651 2.018002 0.232396
v -0.108983 2.011898 0.408357
v -0.181040 2.075343 0.272705
v 0.155594 2.081447 0.096743
v 0.227651 2.018002 0.232396
v -0.108983 2.011898 0.408357
v 0.048763 1.903246 0.498860
v 0.267586 1.907214 0.384480
v -0.108983 2.011898 0.408357
v 0.267586 1.907214 0.384480
v 0.227651 2.018002 0.232396
v -0.108983 2.011898 0.408357
v 0.267586 1.907214 0.384480
v 0.048763 1.903246 0.498860
v -0.108983 2.011898 0.408357
v 0.227651 2.018002 0.232396
v 0.267586 1.907214 0.384480
v 0.048763 1.903246 0.498860
v 0.259574 1.757120 0.561332
v 0.287775 1.757631 0.546591
v 0.048763 1.903246 0.498860
v 0.287775 1.757631 0.546591
v 0.267586 1.907214 0.384480
v 0.048763 1.903246 0.498860
v 0.287775 1.757631 0.546591
v 0.259574 1.757120 0.561332
v 0.048763 1.903246 0.498860
v 0.267586 1.907214 0.384480
v 0.287775 1.757631 0.546591
v -0.097735 2.091058 -0.136894
v -0.274006 2.109888 -0.092598
v -0.104187 2.109092 0.106252
v -0.097735 2.091058 -0.136894
v -0.104187 2.109092 0.106252
v -0.075850 2.090955 -0.111268
v -0.097735 2.091058 -0.136894
v -0.104187 2.109092 0.106252
v -0.274006 2.109888 -0.092598
v -0.097735 2.091058 -0.136894
v -0.075850 2.090955 -0.111268
v -0.104187 2.109092 0.106252
v -0.274006 2.109888 -0.092598
v -0.429766 2.087385 -0.025375
v -0.168519 2.086161 0.280533
v -0.274006 2.109888 -0.092598
v -0.168519 2.086161 0.280533
v -0.104187 2.109092 0.106252
v -0.274006 2.109888 -0.092598
v -0.168519 2.086161 0.280533
v -0.429766 2.087385 -0.025375
v -0.274006 2.109888 -0.092598
v -0.104187 2.109092 0.106252
v -0.168519 2.086161 0.280533
v -0.429766 2.087385 -0.025375
v -0.552528 2.015165 0.079176
v -0.291281 2.013941 0.385083
v -0.429766 2.087385 -0.025375
v -0.291281 2.013941 0.385083
v -0.168519 2.086161 0.280533
v -0.429766 2.087385 -0.025375
v -0.291281 2.013941 0.385083
v -0.552528 2.015165 0.079176
v -0.429766 2.087385 -0.025375
v -0.168519 2.086161 0.280533
v -0.291281 2.013941 0.385083
v -0.552528 2.015165 0.079176
v -0.642292 1.893229 0.221054
v -0.472473 1.892433 0.419903
v -0.552528 2.015165 0.079176
v -0.472473 1.892433 0.419903
v -0.291281 2.013941 0.385083
v -0.552528 2.015165 0.079176
v -0.472473 1.892433 0.419903
v -0.642292 1.893229 0.221054
v -0.552528 2.015165 0.079176
v -0.291281 2.013941 0.385083
v -0.472473 1.892433 0.419903
v -0.642292 1.893229 0.221054
v -0.711545 1.729959 0.385858
v -0.689659 1.729856 0.411485
v -0.642292 1.893229 0.221054
v -0.689659 1.729856 0.411485
v -0.472473 1.892433 0.419903
v -0.642292 1.893229 0.221054
v -0.689659 1.729856 0.411485
v -0.711545 1.729959 0.385858
v -0.642292 1.893229 0.221054
v -0.472473 1.892433 0.419903
v -0.689659 1.729856 0.411485
v -0.078754 2.107652 -0.134926
v -0.165588 2.134954 -0.304669
v -0.293160 2.131225 -0.132936
v -0.078754 2.107652 -0.134926
v -0.293160 2.131225 -0.132936
v -0.095195 2.107172 -0.112794
v -0.078754 2.107652 -0.134926
v -0.293160 2.131225 -0.132936
v -0.165588 2.134954 -0.304669
v -0.078754 2.107652 -0.134926
v -0.095195 2.107172 -0.112794
v -0.293160 2.131225 -0.132936
v -0.165588 2.134954 -0.304669
v -0.271411 2.129637 -0.448802
v -0.467666 2.123900 -0.184611
v -0.165588 2.134954 -0.304669
v -0.467666 2.123900 -0.184611
v -0.293160 2.131225 -0.132936
v -0.165588 2.134954 -0.304669
v -0.467666 2.123900 -0.184611
v -0.271411 2.129637 -0.448802
v -0.165588 2.134954 -0.304669
v -0.293160 2.131225 -0.132936
v -0.467666 2.123900 -0.184611
v -0.271411 2.129637 -0.448802
v -0.408087 2.083028 -0.551345
v -0.604342 2.077291 -0.287153
v -0.271411 2.129637 -0.448802
v -0.604342 2.077291 -0.287153
v -0.467666 2.123900 -0.184611
v -0.271411 2.129637 -0.448802
v -0.604342 2.077291 -0.287153
v -0.408087 2.083028 -0.551345
v -0.271411 2.129637 -0.448802
v -0.467666 2.123900 -0.184611
v -0.604342 2.077291 -0.287153
v -0.408087 2.083028 -0.551345
v -0.575615 1.995126 -0.612295
v -0.703188 1.991397 -0.440562
v -0.408087 2.083028 -0.551345
v -0.703188 1.991397 -0.440562
v -0.604342 2.077291 -0.287153
v -0.408087 2.083028 -0.551345
v -0.703188 1.991397 -0.440562
v -0.575615 1.995126 -0.612295
v -0.408087 2.083028 -0.551345
v -0.604342 2.077291 -0.287153
v -0.703188 1.991397 -0.440562
v -0.575615 1.995126 -0.612295
v -0.762133 1.874606 -0.647636
v -0.778574 1.874126 -0.625504
v -0.575615 1.995126 -0.612295
v -0.778574 1.874126 -0.625504
v -0.703188 1.991397 -0.440562
v -0.575615 1.995126 -0.612295
v -0.778574 1.874126 -0.625504
v -0.762133 1.874606 -0.647636
v -0.575615 1.995126 -0.612295
v -0.703188 1.991397 -0.440562
v -0.778574 1.874126 -0.625504
v -0.073675 2.123887 -0.117717
v 0.089957 2.151407 -0.201927
v -0.119262 2.150326 -0.293825
v -0.073675 2.123887 -0.117717
v -0.119262 2.150326 -0.293825
v -0.100638 2.123748 -0.129560
v -0.073675 2.123887 -0.117717
v -0.119262 2.150326 -0.293825
v 0.089957 2.151407 -0.201927
v -0.073675 2.123887 -0.117717
v -0.100638 2.123748 -0.129560
v -0.119262 2.150326 -0.293825
v 0.089957 2.151407 -0.201927
v 0.213381 2.143852 -0.304439
v -0.108479 2.142188 -0.445813
v 0.089957 2.151407 -0.201927
v -0.108479 2.142188 -0.445813
v -0.119262 2.150326 -0.293825
v 0.089957 2.151407 -0.201927
v -0.108479 2.142188 -0.445813
v 0.213381 2.143852 -0.304439
v 0.089957 2.151407 -0.201927
v -0.119262 2.150326 -0.293825
v -0.108479 2.142188 -0.445813
v 0.213381 2.143852 -0.304439
v 0.271601 2.092768 -0.436383
v -0.050259 2.091103 -0.577757
v 0.213381 2.143852 -0.304439
v -0.050259 2.091103 -0.577757
v -0.108479 2.142188 -0.445813
v 0.213381 2.143852 -0.304439
v -0.050259 2.091103 -0.577757
v 0.271601 2.092768 -0.436383
v 0.213381 2.143852 -0.304439
v -0.108479 2.142188 -0.445813
v -0.050259 2.091103 -0.577757
v 0.271601 2.092768 -0.436383
v 0.264616 1.998154 -0.597759
v 0.055397 1.997072 -0.689657
v 0.271601 2.092768 -0.436383
v 0.055397 1.997072 -0.689657
v -0.050259 2.091103 -0.577757
v 0.271601 2.092768 -0.436383
v 0.055397 1.997072 -0.689657
v 0.264616 1.998154 -0.597759
v 0.271601 2.092768 -0.436383
v -0.050259 2.091103 -0.577757
v 0.055397 1.997072 -0.689657
v 0.264616 1.998154 -0.597759
v 0.217423 1.868464 -0.777437
v 0.190460 1.868325 -0.789280
v 0.264616 1.998154 -0.597759
v 0.190460 1.868325 -0.789280
v 0.055397 1.997072 -0.689657
v 0.264616 1.998154 -0.597759
v 0.190460 1.868325 -0.789280
v 0.217423 1.868464 -0.777437
v 0.264616 1.998154 -0.597759
v 0.055397 1.997072 -0.689657
v 0.190460 1.868325 -0.789280
f 253 254 255
f 256 257 258
f 259 260 261
f 262 263 264
f 265 266 267
f 268 269 270
f 271 272 273
f 274 275 276
f 277 278 279
f 280 281 282
f 283 284 285
f 286 287 288
f 289 290 291
f 292 293 294
f 295 296 297
f 298 299 300
f 301 302 303
f 304 305 306
f 307 308 309
f 310 311 312
f 313 314 315
f 316 317 318
f 319 320 321
f 322 323 324
f 325 326 327
f 328 329 330
f 331 332 333
f 334 335 336
f 337 338 339
f 340 341 342
f 343 344 345
f 346 347 348
f 349 350 351
f 352 353 354
f 355 356 357
f 358 359 360
f 361 362 363
f 364 365 366
f 367 368 369
f 370 371 372
f 373 374 375
f 376 377 378
f 379 380 381
f 382 383 384
f 385 386 387
f 388 389 390
f 391 392 393
f 394 395 396
f 397 398 399
f 400 401 402
f 403 404 405
f 406 407 408
f 409 410 411
f 412 413 414
f 415 416 417
f 418 419 420
f 421 422 423
f 424 425 426
f 427 428 429
f 430 431 432
f 433 434 435
f 436 437 438
f 439 440 441
f 442 443 444
f 445 446 447
f 448 449 450
f 451 452 453
f 454 455 456
f 457 458 459
f 460 461 462
f 463 464 465
f 466 467 468
f 469 470 471
f 472 473 474
f 475 476 477
f 478 479 480
f 481 482 483
f 484 485 486
f 487 488 489
f 490 491 492
f 493 494 495
f 496 497 498
f 499 500 501
f 502 503 504
f 505 506 507
f 508 509 510
f 511 512 513
f 514 515 516
f 517 518 519
f 520 521 522
f 523 524 525
f 526 527 528
f 529 530 531
f 532 533 534
f 535 536 537
f 538 539 540
f 541 542 543
f 544 545 546
f 547 548 549
f 550 551 552

o PalmDarkLeaves
v -0.089871 2.022086 -0.112064
v 0.000781 2.040087 0.062747
v 0.060380 2.043454 -0.138115
v -0.089871 2.022086 -0.112064
v 0.060380 2.043454 -0.138115
v -0.082190 2.022520 -0.137949
v -0.089871 2.022086 -0.112064
v 0.060380 2.043454 -0.138115
v 0.000781 2.040087 0.062747
v -0.089871 2.022086 -0.112064
v -0.082190 2.022520 -0.137949
v 0.060380 2.043454 -0.138115
v 0.000781 2.040087 0.062747
v 0.107307 2.013652 0.185141
v 0.198993 2.018832 -0.123863
v 0.000781 2.040087 0.062747
v 0.198993 2.018832 -0.123863
v 0.060380 2.043454 -0.138115
v 0.000781 2.040087 0.062747
v 0.198993 2.018832 -0.123863
v 0.107307 2.013652 0.185141
v 0.000781 2.040087 0.062747
v 0.060380 2.043454 -0.138115
v 0.198993 2.018832 -0.123863
v 0.107307 2.013652 0.185141
v 0.239301 1.934995 0.222986
v 0.330987 1.940176 -0.086017
v 0.107307 2.013652 0.185141
v 0.330987 1.940176 -0.086017
v 0.198993 2.018832 -0.123863
v 0.107307 2.013652 0.185141
v 0.330987 1.940176 -0.086017
v 0.239301 1.934995 0.222986
v 0.107307 2.013652 0.185141
v 0.198993 2.018832 -0.123863
v 0.330987 1.940176 -0.086017
v 0.239301 1.934995 0.222986
v 0.396761 1.804117 0.176284
v 0.456360 1.807484 -0.024578
v 0.239301 1.934995 0.222986
v 0.456360 1.807484 -0.024578
v 0.330987 1.940176 -0.086017
v 0.239301 1.934995 0.222986
v 0.456360 1.807484 -0.024578
v 0.396761 1.804117 0.176284
v 0.239301 1.934995 0.222986
v 0.330987 1.940176 -0.086017
v 0.456360 1.807484 -0.024578
v 0.396761 1.804117 0.176284
v 0.570096 1.628803 0.077165
v 0.577776 1.629237 0.051279
v 0.396761 1.804117 0.176284
v 0.577776 1.629237 0.051279
v 0.456360 1.807484 -0.024578
v 0.396761 1.804117 0.176284
v 0.577776 1.629237 0.051279
v 0.570096 1.628803 0.077165
v 0.396761 1.804117 0.176284
v 0.456360 1.807484 -0.024578
v 0.577776 1.629237 0.051279
v -0.099558 1.983819 -0.121806
v -0.109291 1.999298 0.032203
v 0.107233 2.002477 -0.025467
v -0.099558 1.983819 -0.121806
v 0.107233 2.002477 -0.025467
v -0.071654 1.984229 -0.129238
v -0.099558 1.983819 -0.121806
v 0.107233 2.002477 -0.025467
v -0.109291 1.999298 0.032203
v -0.099558 1.983819 -0.121806
v -0.071654 1.984229 -0.129238
v 0.107233 2.002477 -0.025467
v -0.109291 1.999298 0.032203
v -0.100467 1.966364 0.180757
v 0.232631 1.971254 0.092038
v -0.109291 1.999298 0.032203
v 0.232631 1.971254 0.092038
v 0.107233 2.002477 -0.025467
v -0.109291 1.999298 0.032203
v 0.232631 1.971254 0.092038
v -0.100467 1.966364 0.180757
v -0.109291 1.999298 0.032203
v 0.107233 2.002477 -0.025467
v 0.232631 1.971254 0.092038
v -0.100467 1.966364 0.180757
v -0.061858 1.876855 0.320779
v 0.271239 1.881745 0.232060
v -0.100467 1.966364 0.180757
v 0.271239 1.881745 0.232060
v 0.232631 1.971254 0.092038
v -0.100467 1.966364 0.180757
v 0.271239 1.881745 0.232060
v -0.061858 1.876855 0.320779
v -0.100467 1.966364 0.180757
v 0.232631 1.971254 0.092038
v 0.271239 1.881745 0.232060
v -0.061858 1.876855 0.320779
v 0.006534 1.730772 0.452269
v 0.223058 1.733951 0.394599
v -0.061858 1.876855 0.320779
v 0.223058 1.733951 0.394599
v 0.271239 1.881745 0.232060
v -0.061858 1.876855 0.320779
v 0.223058 1.733951 0.394599
v 0.006534 1.730772 0.452269
v -0.061858 1.876855 0.320779
v 0.271239 1.881745 0.232060
v 0.223058 1.733951 0.394599
v 0.006534 1.730772 0.452269
v 0.093482 1.536276 0.578304
v 0.121387 1.536685 0.570872
v 0.006534 1.730772 0.452269
v 0.121387 1.536685 0.570872
v 0.223058 1.733951 0.394599
v 0.006534 1.730772 0.452269
v 0.121387 1.536685 0.570872
v 0.093482 1.536276 0.578304
v 0.006534 1.730772 0.452269
v 0.223058 1.733951 0.394599
v 0.121387 1.536685 0.570872
v -0.092136 1.995859 -0.139346
v -0.269364 2.017241 -0.152041
v -0.170041 2.015419 0.064946
v -0.092136 1.995859 -0.139346
v -0.170041 2.015419 0.064946
v -0.079336 1.995625 -0.111382
v -0.092136 1.995859 -0.139346
v -0.170041 2.015419 0.064946
v -0.269364 2.017241 -0.152041
v -0.092136 1.995859 -0.139346
v -0.079336 1.995625 -0.111382
v -0.170041 2.015419 0.064946
v -0.269364 2.017241 -0.152041
v -0.432587 2.000720 -0.135561
v -0.279791 1.997917 0.198250
v -0.269364 2.017241 -0.152041
v -0.279791 1.997917 0.198250
v -0.170041 2.015419 0.064946
v -0.269364 2.017241 -0.152041
v -0.279791 1.997917 0.198250
v -0.432587 2.000720 -0.135561
v -0.269364 2.017241 -0.152041
v -0.170041 2.015419 0.064946
v -0.279791 1.997917 0.198250
v -0.432587 2.000720 -0.135561
v -0.573317 1.937818 -0.071672
v -0.420521 1.935015 0.262138
v -0.432587 2.000720 -0.135561
v -0.420521 1.935015 0.262138
v -0.279791 1.997917 0.198250
v -0.432587 2.000720 -0.135561
v -0.420521 1.935015 0.262138
v -0.573317 1.937818 -0.071672
v -0.432587 2.000720 -0.135561
v -0.279791 1.997917 0.198250
v -0.420521 1.935015 0.262138
v -0.573317 1.937818 -0.071672
v -0.691553 1.828534 0.039624
v -0.592231 1.826712 0.256611
v -0.573317 1.937818 -0.071672
v -0.592231 1.826712 0.256611
v -0.420521 1.935015 0.262138
v -0.573317 1.937818 -0.071672
v -0.592231 1.826712 0.256611
v -0.691553 1.828534 0.039624
v -0.573317 1.937818 -0.071672
v -0.420521 1.935015 0.262138
v -0.592231 1.826712 0.256611
v -0.691553 1.828534 0.039624
v -0.795785 1.681347 0.180095
v -0.782985 1.681113 0.208059
v -0.691553 1.828534 0.039624
v -0.782985 1.681113 0.208059
v -0.592231 1.826712 0.256611
v -0.691553 1.828534 0.039624
v -0.782985 1.681113 0.208059
v -0.795785 1.681347 0.180095
v -0.691553 1.828534 0.039624
v -0.592231 1.826712 0.256611
v -0.782985 1.681113 0.208059
v -0.075690 2.007667 -0.132139
v -0.090208 2.031547 -0.321639
v -0.248135 2.028346 -0.214059
v -0.075690 2.007667 -0.132139
v -0.248135 2.028346 -0.214059
v -0.096042 2.007254 -0.118274
v -0.075690 2.007667 -0.132139
v -0.248135 2.028346 -0.214059
v -0.090208 2.031547 -0.321639
v -0.075690 2.007667 -0.132139
v -0.096042 2.007254 -0.118274
v -0.248135 2.028346 -0.214059
v -0.090208 2.031547 -0.321639
v -0.134280 2.013791 -0.491250
v -0.377232 2.008867 -0.325751
v -0.090208 2.031547 -0.321639
v -0.377232 2.008867 -0.325751
v -0.248135 2.028346 -0.214059
v -0.090208 2.031547 -0.321639
v -0.377232 2.008867 -0.325751
v -0.134280 2.013791 -0.491250
v -0.090208 2.031547 -0.321639
v -0.248135 2.028346 -0.214059
v -0.377232 2.008867 -0.325751
v -0.134280 2.013791 -0.491250
v -0.226360 1.945698 -0.628450
v -0.469313 1.940773 -0.462951
v -0.134280 2.013791 -0.491250
v -0.469313 1.940773 -0.462951
v -0.377232 2.008867 -0.325751
v -0.134280 2.013791 -0.491250
v -0.469313 1.940773 -0.462951
v -0.226360 1.945698 -0.628450
v -0.134280 2.013791 -0.491250
v -0.377232 2.008867 -0.325751
v -0.469313 1.940773 -0.462951
v -0.226360 1.945698 -0.628450
v -0.366449 1.827268 -0.733239
v -0.524376 1.824067 -0.625659
v -0.226360 1.945698 -0.628450
v -0.524376 1.824067 -0.625659
v -0.469313 1.940773 -0.462951
v -0.226360 1.945698 -0.628450
v -0.524376 1.824067 -0.625659
v -0.366449 1.827268 -0.733239
v -0.226360 1.945698 -0.628450
v -0.469313 1.940773 -0.462951
v -0.524376 1.824067 -0.625659
v -0.366449 1.827268 -0.733239
v -0.536091 1.667201 -0.818138
v -0.556444 1.666788 -0.804274
v -0.366449 1.827268 -0.733239
v -0.556444 1.666788 -0.804274
v -0.524376 1.824067 -0.625659
v -0.366449 1.827268 -0.733239
v -0.556444 1.666788 -0.804274
v -0.536091 1.667201 -0.818138
v -0.366449 1.827268 -0.733239
v -0.524376 1.824067 -0.625659
v -0.556444 1.666788 -0.804274
v -0.074796 2.019207 -0.117965
v 0.108064 2.041612 -0.160756
v -0.065756 2.041166 -0.270685
v -0.074796 2.019207 -0.117965
v -0.065756 2.041166 -0.270685
v -0.097196 2.019150 -0.132132
v -0.074796 2.019207 -0.117965
v -0.065756 2.041166 -0.270685
v 0.108064 2.041612 -0.160756
v -0.074796 2.019207 -0.117965
v -0.097196 2.019150 -0.132132
v -0.065756 2.041166 -0.270685
v 0.108064 2.041612 -0.160756
v 0.248893 2.019505 -0.231038
v -0.018509 2.018817 -0.400151
v 0.108064 2.041612 -0.160756
v -0.018509 2.018817 -0.400151
v -0.065756 2.041166 -0.270685
v 0.108064 2.041612 -0.160756
v -0.018509 2.018817 -0.400151
v 0.248893 2.019505 -0.231038
v 0.108064 2.041612 -0.160756
v -0.065756 2.041166 -0.270685
v -0.018509 2.018817 -0.400151
v 0.248893 2.019505 -0.231038
v 0.321503 1.944493 -0.345545
v 0.054100 1.943806 -0.514657
v 0.248893 2.019505 -0.231038
v 0.054100 1.943806 -0.514657
v -0.018509 2.018817 -0.400151
v 0.248893 2.019505 -0.231038
v 0.054100 1.943806 -0.514657
v 0.321503 1.944493 -0.345545
v 0.248893 2.019505 -0.231038
v -0.018509 2.018817 -0.400151
v 0.054100 1.943806 -0.514657
v 0.321503 1.944493 -0.345545
v 0.325893 1.816576 -0.504275
v 0.152073 1.816130 -0.614204
v 0.321503 1.944493 -0.345545
v 0.152073 1.816130 -0.614204
v 0.054100 1.943806 -0.514657
v 0.321503 1.944493 -0.345545
v 0.152073 1.816130 -0.614204
v 0.325893 1.816576 -0.504275
v 0.321503 1.944493 -0.345545
v 0.054100 1.943806 -0.514657
v 0.152073 1.816130 -0.614204
v 0.325893 1.816576 -0.504275
v 0.288253 1.644147 -0.690497
v 0.265852 1.644089 -0.704664
v 0.325893 1.816576 -0.504275
v 0.265852 1.644089 -0.704664
v 0.152073 1.816130 -0.614204
v 0.325893 1.816576 -0.504275
v 0.265852 1.644089 -0.704664
v 0.288253 1.644147 -0.690497
v 0.325893 1.816576 -0.504275
v 0.152073 1.816130 -0.614204
v 0.265852 1.644089 -0.704664
f 553 554 555
f 556 557 558
f 559 560 561
f 562 563 564
f 565 566 567
f 568 569 570
f 571 572 573
f 574 575 576
f 577 578 579
f 580 581 582
f 583 584 585
f 586 587 588
f 589 590 591
f 592 593 594
f 595 596 597
f 598 599 600
f 601 602 603
f 604 605 606
f 607 608 609
f 610 611 612
f 613 614 615
f 616 617 618
f 619 620 621
f 622 623 624
f 625 626 627
f 628 629 630
f 631 632 633
f 634 635 636
f 637 638 639
f 640 641 642
f 643 644 645
f 646 647 648
f 649 650 651
f 652 653 654
f 655 656 657
f 658 659 660
f 661 662 663
f 664 665 666
f 667 668 669
f 670 671 672
f 673 674 675
f 676 677 678
f 679 680 681
f 682 683 684
f 685 686 687
f 688 689 690
f 691 692 693
f 694 695 696
f 697 698 699
f 700 701 702
f 703 704 705
f 706 707 708
f 709 710 711
f 712 713 714
f 715 716 717
f 718 719 720
f 721 722 723
f 724 725 726
f 727 728 729
f 730 731 732
f 733 734 735
f 736 737 738
f 739 740 741
f 742 743 744
f 745 746 747
f 748 749 750
f 751 752 753
f 754 755 756
f 757 758 759
f 760 761 762
f 763 764 765
f 766 767 768
f 769 770 771
f 772 773 774
f 775 776 777
f 778 779 780
f 781 782 783
f 784 785 786
f 787 788 789
f 790 791 792
f 793 794 795
f 796 797 798
f 799 800 801
f 802 803 804
f 805 806 807
f 808 809 810
f 811 812 813
f 814 815 816
f 817 818 819
f 820 821 822
f 823 824 825
f 826 827 828
f 829 830 831
f 832 833 834
f 835 836 837
f 838 839 840
f 841 842 843
f 844 845 846
f 847 848 849
f 850 851 852
