# Pyramida editable prop source
# units: 1 OBJ unit = 1 Pyramida World Unit = 1 Blender metre

o PalmTrunk
v 0.060915 0.074267 0.097204
v 0.240727 0.020593 -0.015561
v 0.243186 0.043997 -0.040019
v 0.060915 0.074267 0.097204
v 0.243186 0.043997 -0.040019
v 0.071674 0.176661 -0.009800
v 0.043645 0.075529 -0.006358
v 0.060915 0.074267 0.097204
v 0.071674 0.176661 -0.009800
v 0.236780 0.020882 -0.039232
v 0.243186 0.043997 -0.040019
v 0.240727 0.020593 -0.015561
v 0.071674 0.176661 -0.009800
v 0.243186 0.043997 -0.040019
v 0.232832 0.021170 -0.062903
v 0.071674 0.176661 -0.009800
v 0.232832 0.021170 -0.062903
v 0.026374 0.076791 -0.109920
v 0.043645 0.075529 -0.006358
v 0.071674 0.176661 -0.009800
v 0.026374 0.076791 -0.109920
v 0.236780 0.020882 -0.039232
v 0.232832 0.021170 -0.062903
v 0.243186 0.043997 -0.040019
v 0.026374 0.076791 -0.109920
v 0.232832 0.021170 -0.062903
v 0.230373 -0.002234 -0.038445
v 0.026374 0.076791 -0.109920
v 0.230373 -0.002234 -0.038445
v 0.015616 -0.025602 -0.002916
v 0.043645 0.075529 -0.006358
v 0.026374 0.076791 -0.109920
v 0.015616 -0.025602 -0.002916
v 0.236780 0.020882 -0.039232
v 0.230373 -0.002234 -0.038445
v 0.232832 0.021170 -0.062903
v 0.015616 -0.025602 -0.002916
v 0.230373 -0.002234 -0.038445
v 0.240727 0.020593 -0.015561
v 0.015616 -0.025602 -0.002916
v 0.240727 0.020593 -0.015561
v 0.060915 0.074267 0.097204
v 0.043645 0.075529 -0.006358
v 0.015616 -0.025602 -0.002916
v 0.060915 0.074267 0.097204
v 0.236780 0.020882 -0.039232
v 0.240727 0.020593 -0.015561
v 0.230373 -0.002234 -0.038445
v -0.114844 0.073938 -0.004371
v -0.140026 0.013395 0.233235
v -0.121236 0.036631 0.249329
v -0.114844 0.073938 -0.004371
v -0.121236 0.036631 0.249329
v -0.032634 0.175594 0.066039
v -0.020398 0.074235 0.041509
v -0.114844 0.073938 -0.004371
v -0.032634 0.175594 0.066039
v -0.118439 0.013463 0.243722
v -0.121236 0.036631 0.249329
v -0.140026 0.013395 0.233235
v -0.032634 0.175594 0.066039
v -0.121236 0.036631 0.249329
v -0.096851 0.013531 0.254209
v -0.032634 0.175594 0.066039
v -0.096851 0.013531 0.254209
v 0.074047 0.074533 0.087389
v -0.020398 0.074235 0.041509
v -0.032634 0.175594 0.066039
v 0.074047 0.074533 0.087389
v -0.118439 0.013463 0.243722
v -0.096851 0.013531 0.254209
v -0.121236 0.036631 0.249329
v 0.074047 0.074533 0.087389
v -0.096851 0.013531 0.254209
v -0.115642 -0.009705 0.238115
v 0.074047 0.074533 0.087389
v -0.115642 -0.009705 0.238115
v -0.008163 -0.027123 0.016979
v -0.020398 0.074235 0.041509
v 0.074047 0.074533 0.087389
v -0.008163 -0.027123 0.016979
v -0.118439 0.013463 0.243722
v -0.115642 -0.009705 0.238115
v -0.096851 0.013531 0.254209
v -0.008163 -0.027123 0.016979
v -0.115642 -0.009705 0.238115
v -0.140026 0.013395 0.233235
v -0.008163 -0.027123 0.016979
v -0.140026 0.013395 0.233235
v -0.114844 0.073938 -0.004371
v -0.020398 0.074235 0.041509
v -0.008163 -0.027123 0.016979
v -0.114844 0.073938 -0.004371
v -0.118439 0.013463 0.243722
v -0.140026 0.013395 0.233235
v -0.115642 -0.009705 0.238115
v 0.069710 0.076928 -0.088868
v -0.123869 0.020590 -0.275400
v -0.147651 0.043685 -0.268117
v 0.069710 0.076928 -0.088868
v -0.147651 0.043685 -0.268117
v -0.034335 0.177969 -0.057005
v -0.022365 0.075322 -0.038425
v 0.069710 0.076928 -0.088868
v -0.034335 0.177969 -0.057005
v -0.144915 0.020222 -0.263870
v -0.147651 0.043685 -0.268117
v -0.123869 0.020590 -0.275400
v -0.034335 0.177969 -0.057005
v -0.147651 0.043685 -0.268117
v -0.165961 0.019855 -0.252340
v -0.034335 0.177969 -0.057005
v -0.165961 0.019855 -0.252340
v -0.114440 0.073715 0.012019
v -0.022365 0.075322 -0.038425
v -0.034335 0.177969 -0.057005
v -0.114440 0.073715 0.012019
v -0.144915 0.020222 -0.263870
v -0.165961 0.019855 -0.252340
v -0.147651 0.043685 -0.268117
v -0.114440 0.073715 0.012019
v -0.165961 0.019855 -0.252340
v -0.142179 -0.003240 -0.259623
v -0.114440 0.073715 0.012019
v -0.142179 -0.003240 -0.259623
v -0.010395 -0.027326 -0.019844
v -0.022365 0.075322 -0.038425
v -0.114440 0.073715 0.012019
v -0.010395 -0.027326 -0.019844
v -0.144915 0.020222 -0.263870
v -0.142179 -0.003240 -0.259623
v -0.165961 0.019855 -0.252340
v -0.010395 -0.027326 -0.019844
v -0.142179 -0.003240 -0.259623
v -0.123869 0.020590 -0.275400
v -0.010395 -0.027326 -0.019844
v -0.123869 0.020590 -0.275400
v 0.069710 0.076928 -0.088868
v -0.022365 0.075322 -0.038425
v -0.010395 -0.027326 -0.019844
v 0.069710 0.076928 -0.088868
v -0.144915 0.020222 -0.263870
v -0.123869 0.020590 -0.275400
v -0.142179 -0.003240 -0.259623
v 0.000099 -0.008009 -0.149786
v -0.028846 0.993925 -0.178342
v 0.079321 1.000385 -0.116027
v 0.000099 -0.008009 -0.149786
v 0.079321 1.000385 -0.116027
v 0.129899 -0.000256 -0.075007
v 0.000000 0.000000 0.000000
v 0.000099 -0.008009 -0.149786
v 0.129899 -0.000256 -0.075007
v -0.028929 1.000599 -0.053521
v 0.079321 1.000385 -0.116027
v -0.028846 0.993925 -0.178342
v 0.129899 -0.000256 -0.075007
v 0.079321 1.000385 -0.116027
v 0.079238 1.007060 0.008795
v 0.129899 -0.000256 -0.075007
v 0.079238 1.007060 0.008795
v 0.129800 0.007753 0.074779
v 0.000000 0.000000 0.000000
v 0.129899 -0.000256 -0.075007
v 0.129800 0.007753 0.074779
v -0.028929 1.000599 -0.053521
v 0.079238 1.007060 0.008795
v 0.079321 1.000385 -0.116027
v 0.129800 0.007753 0.074779
v 0.079238 1.007060 0.008795
v -0.029012 1.007273 0.071301
v 0.129800 0.007753 0.074779
v -0.029012 1.007273 0.071301
v -0.000099 0.008009 0.149786
v 0.000000 0.000000 0.000000
v 0.129800 0.007753 0.074779
v -0.000099 0.008009 0.149786
v -0.028929 1.000599 -0.053521
v -0.029012 1.007273 0.071301
v 0.079238 1.007060 0.008795
v -0.000099 0.008009 0.149786
v -0.029012 1.007273 0.071301
v -0.137178 1.000813 0.008985
v -0.000099 0.008009 0.149786
v -0.137178 1.000813 0.008985
v -0.129899 0.000256 0.075007
v 0.000000 0.000000 0.000000
v -0.000099 0.008009 0.149786
v -0.129899 0.000256 0.075007
v -0.028929 1.000599 -0.053521
v -0.137178 1.000813 0.008985
v -0.029012 1.007273 0.071301
v -0.129899 0.000256 0.075007
v -0.137178 1.000813 0.008985
v -0.137095 0.994139 -0.115836
v -0.129899 0.000256 0.075007
v -0.137095 0.994139 -0.115836
v -0.129800 -0.007753 -0.074779
v 0.000000 0.000000 0.000000
v -0.129899 0.000256 0.075007
v -0.129800 -0.007753 -0.074779
v -0.028929 1.000599 -0.053521
v -0.137095 0.994139 -0.115836
v -0.137178 1.000813 0.008985
v -0.129800 -0.007753 -0.074779
v -0.137095 0.994139 -0.115836
v -0.028846 0.993925 -0.178342
v -0.129800 -0.007753 -0.074779
v -0.028846 0.993925 -0.178342
v 0.000099 -0.008009 -0.149786
v 0.000000 0.000000 0.000000
v -0.129800 -0.007753 -0.074779
v 0.000099 -0.008009 -0.149786
v -0.028929 1.000599 -0.053521
v -0.028846 0.993925 -0.178342
v -0.137095 0.994139 -0.115836
f 1 2 3
f 4 5 6
f 7 8 9
f 10 11 12
f 13 14 15
f 16 17 18
f 19 20 21
f 22 23 24
f 25 26 27
f 28 29 30
f 31 32 33
f 34 35 36
f 37 38 39
f 40 41 42
f 43 44 45
f 46 47 48
f 49 50 51
f 52 53 54
f 55 56 57
f 58 59 60
f 61 62 63
f 64 65 66
f 67 68 69
f 70 71 72
f 73 74 75
f 76 77 78
f 79 80 81
f 82 83 84
f 85 86 87
f 88 89 90
f 91 92 93
f 94 95 96
f 97 98 99
f 100 101 102
f 103 104 105
f 106 107 108
f 109 110 111
f 112 113 114
f 115 116 117
f 118 119 120
f 121 122 123
f 124 125 126
f 127 128 129
f 130 131 132
f 133 134 135
f 136 137 138
f 139 140 141
f 142 143 144
f 145 146 147
f 148 149 150
f 151 152 153
f 154 155 156
f 157 158 159
f 160 161 162
f 163 164 165
f 166 167 168
f 169 170 171
f 172 173 174
f 175 176 177
f 178 179 180
f 181 182 183
f 184 185 186
f 187 188 189
f 190 191 192
f 193 194 195
f 196 197 198
f 199 200 201
f 202 203 204
f 205 206 207
f 208 209 210
f 211 212 213
f 214 215 216

o PalmLightLeaves
v -0.031466 1.058865 -0.037790
v 0.096792 1.082203 0.107436
v 0.127211 1.085706 -0.124129
v -0.031466 1.058865 -0.037790
v 0.127211 1.085706 -0.124129
v -0.027546 1.059317 -0.067633
v -0.031466 1.058865 -0.037790
v 0.127211 1.085706 -0.124129
v 0.096792 1.082203 0.107436
v -0.031466 1.058865 -0.037790
v -0.027546 1.059317 -0.067633
v 0.127211 1.085706 -0.124129
v 0.096792 1.082203 0.107436
v 0.231717 1.070423 0.204105
v 0.278512 1.075812 -0.152131
v 0.096792 1.082203 0.107436
v 0.278512 1.075812 -0.152131
v 0.127211 1.085706 -0.124129
v 0.096792 1.082203 0.107436
v 0.278512 1.075812 -0.152131
v 0.231717 1.070423 0.204105
v 0.096792 1.082203 0.107436
v 0.127211 1.085706 -0.124129
v 0.278512 1.075812 -0.152131
v 0.231717 1.070423 0.204105
v 0.377292 1.015650 0.222399
v 0.424088 1.021039 -0.133836
v 0.231717 1.070423 0.204105
v 0.424088 1.021039 -0.133836
v 0.278512 1.075812 -0.152131
v 0.231717 1.070423 0.204105
v 0.424088 1.021039 -0.133836
v 0.377292 1.015650 0.222399
v 0.231717 1.070423 0.204105
v 0.278512 1.075812 -0.152131
v 0.424088 1.021039 -0.133836
v 0.377292 1.015650 0.222399
v 0.533519 0.917885 0.162319
v 0.563938 0.921388 -0.069245
v 0.377292 1.015650 0.222399
v 0.563938 0.921388 -0.069245
v 0.424088 1.021039 -0.133836
v 0.377292 1.015650 0.222399
v 0.563938 0.921388 -0.069245
v 0.533519 0.917885 0.162319
v 0.377292 1.015650 0.222399
v 0.424088 1.021039 -0.133836
v 0.563938 0.921388 -0.069245
v 0.533519 0.917885 0.162319
v 0.696413 0.785001 0.053683
v 0.700333 0.785453 0.023840
v 0.533519 0.917885 0.162319
v 0.700333 0.785453 0.023840
v 0.563938 0.921388 -0.069245
v 0.533519 0.917885 0.162319
v 0.700333 0.785453 0.023840
v 0.696413 0.785001 0.053683
v 0.533519 0.917885 0.162319
v 0.563938 0.921388 -0.069245
v 0.700333 0.785453 0.023840
v -0.043889 1.075255 -0.045182
v -0.114013 1.094331 0.164941
v 0.106692 1.098076 0.051608
v -0.043889 1.075255 -0.045182
v 0.106692 1.098076 0.051608
v -0.015446 1.075738 -0.059787
v -0.043889 1.075255 -0.045182
v 0.106692 1.098076 0.051608
v -0.114013 1.094331 0.164941
v -0.043889 1.075255 -0.045182
v -0.015446 1.075738 -0.059787
v 0.106692 1.098076 0.051608
v -0.114013 1.094331 0.164941
v -0.130055 1.075661 0.346955
v 0.209475 1.081423 0.172605
v -0.114013 1.094331 0.164941
v 0.209475 1.081423 0.172605
v 0.106692 1.098076 0.051608
v -0.114013 1.094331 0.164941
v 0.209475 1.081423 0.172605
v -0.130055 1.075661 0.346955
v -0.114013 1.094331 0.164941
v 0.106692 1.098076 0.051608
v 0.209475 1.081423 0.172605
v -0.130055 1.075661 0.346955
v -0.058746 1.011484 0.483701
v 0.280784 1.017246 0.309352
v -0.130055 1.075661 0.346955
v 0.280784 1.017246 0.309352
v 0.209475 1.081423 0.172605
v -0.130055 1.075661 0.346955
v 0.280784 1.017246 0.309352
v -0.058746 1.011484 0.483701
v -0.130055 1.075661 0.346955
v 0.209475 1.081423 0.172605
v 0.280784 1.017246 0.309352
v -0.058746 1.011484 0.483701
v 0.099914 0.901801 0.575181
v 0.320619 0.905546 0.461848
v -0.058746 1.011484 0.483701
v 0.320619 0.905546 0.461848
v 0.280784 1.017246 0.309352
v -0.058746 1.011484 0.483701
v 0.320619 0.905546 0.461848
v 0.099914 0.901801 0.575181
v -0.058746 1.011484 0.483701
v 0.280784 1.017246 0.309352
v 0.320619 0.905546 0.461848
v 0.099914 0.901801 0.575181
v 0.312655 0.754371 0.638551
v 0.341098 0.754853 0.623946
v 0.099914 0.901801 0.575181
v 0.341098 0.754853 0.623946
v 0.320619 0.905546 0.461848
v 0.099914 0.901801 0.575181
v 0.341098 0.754853 0.623946
v 0.312655 0.754371 0.638551
v 0.099914 0.901801 0.575181
v 0.320619 0.905546 0.461848
v 0.341098 0.754853 0.623946
v -0.040728 1.091974 -0.065208
v -0.219509 1.116903 -0.023598
v -0.050372 1.115792 0.177382
v -0.040728 1.091974 -0.065208
v -0.050372 1.115792 0.177382
v -0.018931 1.091830 -0.039307
v -0.040728 1.091974 -0.065208
v -0.050372 1.115792 0.177382
v -0.219509 1.116903 -0.023598
v -0.040728 1.091974 -0.065208
v -0.018931 1.091830 -0.039307
v -0.050372 1.115792 0.177382
v -0.219509 1.116903 -0.023598
v -0.377490 1.112228 0.041973
v -0.117293 1.110519 0.351158
v -0.219509 1.116903 -0.023598
v -0.117293 1.110519 0.351158
v -0.050372 1.115792 0.177382
v -0.219509 1.116903 -0.023598
v -0.117293 1.110519 0.351158
v -0.377490 1.112228 0.041973
v -0.219509 1.116903 -0.023598
v -0.050372 1.115792 0.177382
v -0.117293 1.110519 0.351158
v -0.377490 1.112228 0.041973
v -0.501918 1.069541 0.146450
v -0.241720 1.067831 0.455635
v -0.377490 1.112228 0.041973
v -0.241720 1.067831 0.455635
v -0.117293 1.110519 0.351158
v -0.377490 1.112228 0.041973
v -0.241720 1.067831 0.455635
v -0.501918 1.069541 0.146450
v -0.377490 1.112228 0.041973
v -0.117293 1.110519 0.351158
v -0.241720 1.067831 0.455635
v -0.501918 1.069541 0.146450
v -0.592790 0.988841 0.289833
v -0.423653 0.987730 0.490813
v -0.501918 1.069541 0.146450
v -0.423653 0.987730 0.490813
v -0.241720 1.067831 0.455635
v -0.501918 1.069541 0.146450
v -0.423653 0.987730 0.490813
v -0.592790 0.988841 0.289833
v -0.501918 1.069541 0.146450
v -0.241720 1.067831 0.455635
v -0.423653 0.987730 0.490813
v -0.592790 0.988841 0.289833
v -0.662865 0.878536 0.457176
v -0.641068 0.878393 0.483077
v -0.592790 0.988841 0.289833
v -0.641068 0.878393 0.483077
v -0.423653 0.987730 0.490813
v -0.592790 0.988841 0.289833
v -0.641068 0.878393 0.483077
v -0.662865 0.878536 0.457176
v -0.592790 0.988841 0.289833
v -0.423653 0.987730 0.490813
v -0.641068 0.878393 0.483077
v -0.021645 1.108543 -0.063098
v -0.106232 1.135961 -0.235894
v -0.235763 1.132307 -0.064145
v -0.021645 1.108543 -0.063098
v -0.235763 1.132307 -0.064145
v -0.038338 1.108072 -0.040964
v -0.021645 1.108543 -0.063098
v -0.235763 1.132307 -0.064145
v -0.106232 1.135961 -0.235894
v -0.021645 1.108543 -0.063098
v -0.038338 1.108072 -0.040964
v -0.235763 1.132307 -0.064145
v -0.106232 1.135961 -0.235894
v -0.210617 1.130529 -0.382463
v -0.409885 1.124909 -0.118246
v -0.106232 1.135961 -0.235894
v -0.409885 1.124909 -0.118246
v -0.235763 1.132307 -0.064145
v -0.106232 1.135961 -0.235894
v -0.409885 1.124909 -0.118246
v -0.210617 1.130529 -0.382463
v -0.106232 1.135961 -0.235894
v -0.235763 1.132307 -0.064145
v -0.409885 1.124909 -0.118246
v -0.210617 1.130529 -0.382463
v -0.347151 1.083572 -0.486434
v -0.546420 1.077952 -0.222217
v -0.210617 1.130529 -0.382463
v -0.546420 1.077952 -0.222217
v -0.409885 1.124909 -0.118246
v -0.210617 1.130529 -0.382463
v -0.546420 1.077952 -0.222217
v -0.347151 1.083572 -0.486434
v -0.210617 1.130529 -0.382463
v -0.409885 1.124909 -0.118246
v -0.546420 1.077952 -0.222217
v -0.347151 1.083572 -0.486434
v -0.515835 0.995090 -0.547808
v -0.645366 0.991437 -0.376059
v -0.347151 1.083572 -0.486434
v -0.645366 0.991437 -0.376059
v -0.546420 1.077952 -0.222217
v -0.347151 1.083572 -0.486434
v -0.645366 0.991437 -0.376059
v -0.515835 0.995090 -0.547808
v -0.347151 1.083572 -0.486434
v -0.546420 1.077952 -0.222217
v -0.645366 0.991437 -0.376059
v -0.515835 0.995090 -0.547808
v -0.704318 0.873759 -0.582954
v -0.721011 0.873288 -0.560820
v -0.515835 0.995090 -0.547808
v -0.721011 0.873288 -0.560820
v -0.645366 0.991437 -0.376059
v -0.515835 0.995090 -0.547808
v -0.721011 0.873288 -0.560820
v -0.704318 0.873759 -0.582954
v -0.515835 0.995090 -0.547808
v -0.645366 0.991437 -0.376059
v -0.721011 0.873288 -0.560820
v -0.016645 1.124763 -0.045754
v 0.150226 1.152008 -0.128357
v -0.059406 1.151238 -0.222252
v -0.016645 1.124763 -0.045754
v -0.059406 1.151238 -0.222252
v -0.043662 1.124664 -0.057854
v -0.016645 1.124763 -0.045754
v -0.059406 1.151238 -0.222252
v 0.150226 1.152008 -0.128357
v -0.016645 1.124763 -0.045754
v -0.043662 1.124664 -0.057854
v -0.059406 1.151238 -0.222252
v 0.150226 1.152008 -0.128357
v 0.276095 1.144006 -0.229966
v -0.046400 1.142822 -0.374413
v 0.150226 1.152008 -0.128357
v -0.046400 1.142822 -0.374413
v -0.059406 1.151238 -0.222252
v 0.150226 1.152008 -0.128357
v -0.046400 1.142822 -0.374413
v 0.276095 1.144006 -0.229966
v 0.150226 1.152008 -0.128357
v -0.059406 1.151238 -0.222252
v -0.046400 1.142822 -0.374413
v 0.276095 1.144006 -0.229966
v 0.335487 1.092340 -0.362143
v 0.012993 1.091156 -0.506590
v 0.276095 1.144006 -0.229966
v 0.012993 1.091156 -0.506590
v -0.046400 1.142822 -0.374413
v 0.276095 1.144006 -0.229966
v 0.012993 1.091156 -0.506590
v 0.335487 1.092340 -0.362143
v 0.276095 1.144006 -0.229966
v -0.046400 1.142822 -0.374413
v 0.012993 1.091156 -0.506590
v 0.335487 1.092340 -0.362143
v 0.328404 0.997008 -0.524887
v 0.118772 0.996238 -0.618783
v 0.335487 1.092340 -0.362143
v 0.118772 0.996238 -0.618783
v 0.012993 1.091156 -0.506590
v 0.335487 1.092340 -0.362143
v 0.118772 0.996238 -0.618783
v 0.328404 0.997008 -0.524887
v 0.335487 1.092340 -0.362143
v 0.012993 1.091156 -0.506590
v 0.118772 0.996238 -0.618783
v 0.328404 0.997008 -0.524887
v 0.280317 0.866430 -0.706638
v 0.253301 0.866331 -0.718738
v 0.328404 0.997008 -0.524887
v 0.253301 0.866331 -0.718738
v 0.118772 0.996238 -0.618783
v 0.328404 0.997008 -0.524887
v 0.253301 0.866331 -0.718738
v 0.280317 0.866430 -0.706638
v 0.328404 0.997008 -0.524887
v 0.118772 0.996238 -0.618783
v 0.253301 0.866331 -0.718738
f 217 218 219
f 220 221 222
f 223 224 225
f 226 227 228
f 229 230 231
f 232 233 234
f 235 236 237
f 238 239 240
f 241 242 243
f 244 245 246
f 247 248 249
f 250 251 252
f 253 254 255
f 256 257 258
f 259 260 261
f 262 263 264
f 265 266 267
f 268 269 270
f 271 272 273
f 274 275 276
f 277 278 279
f 280 281 282
f 283 284 285
f 286 287 288
f 289 290 291
f 292 293 294
f 295 296 297
f 298 299 300
f 301 302 303
f 304 305 306
f 307 308 309
f 310 311 312
f 313 314 315
f 316 317 318
f 319 320 321
f 322 323 324
f 325 326 327
f 328 329 330
f 331 332 333
f 334 335 336
f 337 338 339
f 340 341 342
f 343 344 345
f 346 347 348
f 349 350 351
f 352 353 354
f 355 356 357
f 358 359 360
f 361 362 363
f 364 365 366
f 367 368 369
f 370 371 372
f 373 374 375
f 376 377 378
f 379 380 381
f 382 383 384
f 385 386 387
f 388 389 390
f 391 392 393
f 394 395 396
f 397 398 399
f 400 401 402
f 403 404 405
f 406 407 408
f 409 410 411
f 412 413 414
f 415 416 417
f 418 419 420
f 421 422 423
f 424 425 426
f 427 428 429
f 430 431 432
f 433 434 435
f 436 437 438
f 439 440 441
f 442 443 444
f 445 446 447
f 448 449 450
f 451 452 453
f 454 455 456
f 457 458 459
f 460 461 462
f 463 464 465
f 466 467 468
f 469 470 471
f 472 473 474
f 475 476 477
f 478 479 480
f 481 482 483
f 484 485 486
f 487 488 489
f 490 491 492
f 493 494 495
f 496 497 498
f 499 500 501
f 502 503 504
f 505 506 507
f 508 509 510
f 511 512 513
f 514 515 516

o PalmDarkLeaves
v -0.033164 1.022597 -0.040244
v 0.055287 1.040207 0.138712
v 0.117612 1.043606 -0.062562
v -0.033164 1.022597 -0.040244
v 0.117612 1.043606 -0.062562
v -0.025132 1.023035 -0.066183
v -0.033164 1.022597 -0.040244
v 0.117612 1.043606 -0.062562
v 0.055287 1.040207 0.138712
v -0.033164 1.022597 -0.040244
v -0.025132 1.023035 -0.066183
v 0.117612 1.043606 -0.062562
v 0.055287 1.040207 0.138712
v 0.160511 1.013129 0.264326
v 0.256390 1.018358 -0.045311
v 0.055287 1.040207 0.138712
v 0.256390 1.018358 -0.045311
v 0.117612 1.043606 -0.062562
v 0.055287 1.040207 0.138712
v 0.256390 1.018358 -0.045311
v 0.160511 1.013129 0.264326
v 0.055287 1.040207 0.138712
v 0.117612 1.043606 -0.062562
v 0.256390 1.018358 -0.045311
v 0.160511 1.013129 0.264326
v 0.292675 0.933588 0.303908
v 0.388554 0.938817 -0.005729
v 0.160511 1.013129 0.264326
v 0.388554 0.938817 -0.005729
v 0.256390 1.018358 -0.045311
v 0.160511 1.013129 0.264326
v 0.388554 0.938817 -0.005729
v 0.292675 0.933588 0.303908
v 0.160511 1.013129 0.264326
v 0.256390 1.018358 -0.045311
v 0.388554 0.938817 -0.005729
v 0.292675 0.933588 0.303908
v 0.451781 0.801584 0.257457
v 0.514105 0.804983 0.056182
v 0.292675 0.933588 0.303908
v 0.514105 0.804983 0.056182
v 0.388554 0.938817 -0.005729
v 0.292675 0.933588 0.303908
v 0.514105 0.804983 0.056182
v 0.451781 0.801584 0.257457
v 0.292675 0.933588 0.303908
v 0.388554 0.938817 -0.005729
v 0.514105 0.804983 0.056182
v 0.451781 0.801584 0.257457
v 0.627658 0.624892 0.157664
v 0.635690 0.625330 0.131725
v 0.451781 0.801584 0.257457
v 0.635690 0.625330 0.131725
v 0.514105 0.804983 0.056182
v 0.451781 0.801584 0.257457
v 0.635690 0.625330 0.131725
v 0.627658 0.624892 0.157664
v 0.451781 0.801584 0.257457
v 0.514105 0.804983 0.056182
v 0.635690 0.625330 0.131725
v -0.042840 0.984348 -0.050173
v -0.057076 0.999584 0.105190
v 0.161268 1.002504 0.049794
v -0.042840 0.984348 -0.050173
v 0.161268 1.002504 0.049794
v -0.014701 0.984725 -0.057312
v -0.042840 0.984348 -0.050173
v 0.161268 1.002504 0.049794
v -0.057076 0.999584 0.105190
v -0.042840 0.984348 -0.050173
v -0.014701 0.984725 -0.057312
v 0.161268 1.002504 0.049794
v -0.057076 0.999584 0.105190
v -0.051651 0.966122 0.255011
v 0.284246 0.970615 0.169791
v -0.057076 0.999584 0.105190
v 0.284246 0.970615 0.169791
v 0.161268 1.002504 0.049794
v -0.057076 0.999584 0.105190
v 0.284246 0.970615 0.169791
v -0.051651 0.966122 0.255011
v -0.057076 0.999584 0.105190
v 0.161268 1.002504 0.049794
v 0.284246 0.970615 0.169791
v -0.051651 0.966122 0.255011
v -0.014631 0.875798 0.396167
v 0.321267 0.880291 0.310946
v -0.051651 0.966122 0.255011
v 0.321267 0.880291 0.310946
v 0.284246 0.970615 0.169791
v -0.051651 0.966122 0.255011
v 0.321267 0.880291 0.310946
v -0.014631 0.875798 0.396167
v -0.051651 0.966122 0.255011
v 0.284246 0.970615 0.169791
v 0.321267 0.880291 0.310946
v -0.014631 0.875798 0.396167
v 0.053986 0.728611 0.528658
v 0.272331 0.731531 0.473262
v -0.014631 0.875798 0.396167
v 0.272331 0.731531 0.473262
v 0.321267 0.880291 0.310946
v -0.014631 0.875798 0.396167
v 0.272331 0.731531 0.473262
v 0.053986 0.728611 0.528658
v -0.014631 0.875798 0.396167
v 0.321267 0.880291 0.310946
v 0.272331 0.731531 0.473262
v 0.053986 0.728611 0.528658
v 0.142265 0.532727 0.655606
v 0.170403 0.533103 0.648467
v 0.053986 0.728611 0.528658
v 0.170403 0.533103 0.648467
v 0.272331 0.731531 0.473262
v 0.053986 0.728611 0.528658
v 0.170403 0.533103 0.648467
v 0.142265 0.532727 0.655606
v 0.053986 0.728611 0.528658
v 0.272331 0.731531 0.473262
v 0.170403 0.533103 0.648467
v -0.035151 0.996388 -0.067707
v -0.214094 1.017899 -0.084908
v -0.116866 1.015826 0.134322
v -0.035151 0.996388 -0.067707
v -0.116866 1.015826 0.134322
v -0.022621 0.996121 -0.039454
v -0.035151 0.996388 -0.067707
v -0.116866 1.015826 0.134322
v -0.214094 1.017899 -0.084908
v -0.035151 0.996388 -0.067707
v -0.022621 0.996121 -0.039454
v -0.116866 1.015826 0.134322
v -0.214094 1.017899 -0.084908
v -0.378966 1.001189 -0.071750
v -0.229392 0.998000 0.265510
v -0.214094 1.017899 -0.084908
v -0.229392 0.998000 0.265510
v -0.116866 1.015826 0.134322
v -0.214094 1.017899 -0.084908
v -0.229392 0.998000 0.265510
v -0.378966 1.001189 -0.071750
v -0.214094 1.017899 -0.084908
v -0.116866 1.015826 0.134322
v -0.229392 0.998000 0.265510
v -0.378966 1.001189 -0.071750
v -0.521220 0.937753 -0.009260
v -0.371646 0.934564 0.327999
v -0.378966 1.001189 -0.071750
v -0.371646 0.934564 0.327999
v -0.229392 0.998000 0.265510
v -0.378966 1.001189 -0.071750
v -0.371646 0.934564 0.327999
v -0.521220 0.937753 -0.009260
v -0.378966 1.001189 -0.071750
v -0.229392 0.998000 0.265510
v -0.371646 0.934564 0.327999
v -0.521220 0.937753 -0.009260
v -0.640855 0.827591 0.102560
v -0.543627 0.825518 0.321790
v -0.521220 0.937753 -0.009260
v -0.543627 0.825518 0.321790
v -0.371646 0.934564 0.327999
v -0.521220 0.937753 -0.009260
v -0.543627 0.825518 0.321790
v -0.640855 0.827591 0.102560
v -0.521220 0.937753 -0.009260
v -0.371646 0.934564 0.327999
v -0.543627 0.825518 0.321790
v -0.640855 0.827591 0.102560
v -0.746419 0.679209 0.244740
v -0.733889 0.678941 0.272993
v -0.640855 0.827591 0.102560
v -0.733889 0.678941 0.272993
v -0.543627 0.825518 0.321790
v -0.640855 0.827591 0.102560
v -0.733889 0.678941 0.272993
v -0.746419 0.679209 0.244740
v -0.640855 0.827591 0.102560
v -0.543627 0.825518 0.321790
v -0.733889 0.678941 0.272993
v -0.018680 1.008170 -0.060272
v -0.028857 1.032075 -0.252209
v -0.189037 1.029023 -0.145850
v -0.018680 1.008170 -0.060272
v -0.189037 1.029023 -0.145850
v -0.039323 1.007776 -0.046565
v -0.018680 1.008170 -0.060272
v -0.189037 1.029023 -0.145850
v -0.028857 1.032075 -0.252209
v -0.018680 1.008170 -0.060272
v -0.039323 1.007776 -0.046565
v -0.189037 1.029023 -0.145850
v -0.028857 1.032075 -0.252209
v -0.069827 1.014081 -0.424001
v -0.316245 1.009387 -0.260379
v -0.028857 1.032075 -0.252209
v -0.316245 1.009387 -0.260379
v -0.189037 1.029023 -0.145850
v -0.028857 1.032075 -0.252209
v -0.316245 1.009387 -0.260379
v -0.069827 1.014081 -0.424001
v -0.028857 1.032075 -0.252209
v -0.189037 1.029023 -0.145850
v -0.316245 1.009387 -0.260379
v -0.069827 1.014081 -0.424001
v -0.160788 0.945498 -0.562959
v -0.407207 0.940804 -0.399338
v -0.069827 1.014081 -0.424001
v -0.407207 0.940804 -0.399338
v -0.316245 1.009387 -0.260379
v -0.069827 1.014081 -0.424001
v -0.407207 0.940804 -0.399338
v -0.160788 0.945498 -0.562959
v -0.069827 1.014081 -0.424001
v -0.316245 1.009387 -0.260379
v -0.407207 0.940804 -0.399338
v -0.160788 0.945498 -0.562959
v -0.301742 0.826325 -0.669084
v -0.461922 0.823274 -0.562725
v -0.160788 0.945498 -0.562959
v -0.461922 0.823274 -0.562725
v -0.407207 0.940804 -0.399338
v -0.160788 0.945498 -0.562959
v -0.461922 0.823274 -0.562725
v -0.301742 0.826325 -0.669084
v -0.160788 0.945498 -0.562959
v -0.407207 0.940804 -0.399338
v -0.461922 0.823274 -0.562725
v -0.301742 0.826325 -0.669084
v -0.473488 0.665254 -0.755063
v -0.494131 0.664861 -0.741356
v -0.301742 0.826325 -0.669084
v -0.494131 0.664861 -0.741356
v -0.461922 0.823274 -0.562725
v -0.301742 0.826325 -0.669084
v -0.494131 0.664861 -0.741356
v -0.473488 0.665254 -0.755063
v -0.301742 0.826325 -0.669084
v -0.461922 0.823274 -0.562725
v -0.494131 0.664861 -0.741356
v -0.017937 1.019701 -0.046000
v 0.168369 1.041750 -0.085631
v -0.005135 1.041596 -0.198253
v -0.017937 1.019701 -0.046000
v -0.005135 1.041596 -0.198253
v -0.040297 1.019681 -0.060514
v -0.017937 1.019701 -0.046000
v -0.005135 1.041596 -0.198253
v 0.168369 1.041750 -0.085631
v -0.017937 1.019701 -0.046000
v -0.040297 1.019681 -0.060514
v -0.005135 1.041596 -0.198253
v 0.168369 1.041750 -0.085631
v 0.311956 1.019083 -0.153896
v 0.045041 1.018845 -0.327152
v 0.168369 1.041750 -0.085631
v 0.045041 1.018845 -0.327152
v -0.005135 1.041596 -0.198253
v 0.168369 1.041750 -0.085631
v 0.045041 1.018845 -0.327152
v 0.311956 1.019083 -0.153896
v 0.168369 1.041750 -0.085631
v -0.005135 1.041596 -0.198253
v 0.045041 1.018845 -0.327152
v 0.311956 1.019083 -0.153896
v 0.386234 0.943349 -0.268223
v 0.119319 0.943112 -0.441479
v 0.311956 1.019083 -0.153896
v 0.119319 0.943112 -0.441479
v 0.045041 1.018845 -0.327152
v 0.311956 1.019083 -0.153896
v 0.119319 0.943112 -0.441479
v 0.386234 0.943349 -0.268223
v 0.311956 1.019083 -0.153896
v 0.045041 1.018845 -0.327152
v 0.119319 0.943112 -0.441479
v 0.386234 0.943349 -0.268223
v 0.391201 0.814551 -0.428612
v 0.217698 0.814397 -0.541234
v 0.386234 0.943349 -0.268223
v 0.217698 0.814397 -0.541234
v 0.119319 0.943112 -0.441479
v 0.386234 0.943349 -0.268223
v 0.217698 0.814397 -0.541234
v 0.391201 0.814551 -0.428612
v 0.386234 0.943349 -0.268223
v 0.119319 0.943112 -0.441479
v 0.217698 0.814397 -0.541234
v 0.391201 0.814551 -0.428612
v 0.353450 0.641036 -0.617634
v 0.331090 0.641016 -0.632148
v 0.391201 0.814551 -0.428612
v 0.331090 0.641016 -0.632148
v 0.217698 0.814397 -0.541234
v 0.391201 0.814551 -0.428612
v 0.331090 0.641016 -0.632148
v 0.353450 0.641036 -0.617634
v 0.391201 0.814551 -0.428612
v 0.217698 0.814397 -0.541234
v 0.331090 0.641016 -0.632148
f 517 518 519
f 520 521 522
f 523 524 525
f 526 527 528
f 529 530 531
f 532 533 534
f 535 536 537
f 538 539 540
f 541 542 543
f 544 545 546
f 547 548 549
f 550 551 552
f 553 554 555
f 556 557 558
f 559 560 561
f 562 563 564
f 565 566 567
f 568 569 570
f 571 572 573
f 574 575 576
f 577 578 579
f 580 581 582
f 583 584 585
f 586 587 588
f 589 590 591
f 592 593 594
f 595 596 597
f 598 599 600
f 601 602 603
f 604 605 606
f 607 608 609
f 610 611 612
f 613 614 615
f 616 617 618
f 619 620 621
f 622 623 624
f 625 626 627
f 628 629 630
f 631 632 633
f 634 635 636
f 637 638 639
f 640 641 642
f 643 644 645
f 646 647 648
f 649 650 651
f 652 653 654
f 655 656 657
f 658 659 660
f 661 662 663
f 664 665 666
f 667 668 669
f 670 671 672
f 673 674 675
f 676 677 678
f 679 680 681
f 682 683 684
f 685 686 687
f 688 689 690
f 691 692 693
f 694 695 696
f 697 698 699
f 700 701 702
f 703 704 705
f 706 707 708
f 709 710 711
f 712 713 714
f 715 716 717
f 718 719 720
f 721 722 723
f 724 725 726
f 727 728 729
f 730 731 732
f 733 734 735
f 736 737 738
f 739 740 741
f 742 743 744
f 745 746 747
f 748 749 750
f 751 752 753
f 754 755 756
f 757 758 759
f 760 761 762
f 763 764 765
f 766 767 768
f 769 770 771
f 772 773 774
f 775 776 777
f 778 779 780
f 781 782 783
f 784 785 786
f 787 788 789
f 790 791 792
f 793 794 795
f 796 797 798
f 799 800 801
f 802 803 804
f 805 806 807
f 808 809 810
f 811 812 813
f 814 815 816
