# Pyramida editable prop source
# units: 1 OBJ unit = 1 Pyramida World Unit = 1 Blender metre

o TreeStump
v 0.041728 0.075000 0.106343
v 0.303117 0.018000 0.033399
v 0.309016 0.041439 0.009570
v 0.041728 0.075000 0.106343
v 0.309016 0.041439 0.009570
v 0.067535 0.177546 0.002092
v 0.044978 0.075000 0.001393
v 0.041728 0.075000 0.106343
v 0.067535 0.177546 0.002092
v 0.303860 0.018000 0.009411
v 0.309016 0.041439 0.009570
v 0.303117 0.018000 0.033399
v 0.067535 0.177546 0.002092
v 0.309016 0.041439 0.009570
v 0.304603 0.018000 -0.014578
v 0.067535 0.177546 0.002092
v 0.304603 0.018000 -0.014578
v 0.048229 0.075000 -0.103557
v 0.044978 0.075000 0.001393
v 0.067535 0.177546 0.002092
v 0.048229 0.075000 -0.103557
v 0.303860 0.018000 0.009411
v 0.304603 0.018000 -0.014578
v 0.309016 0.041439 0.009570
v 0.048229 0.075000 -0.103557
v 0.304603 0.018000 -0.014578
v 0.298704 -0.005439 0.009251
v 0.048229 0.075000 -0.103557
v 0.298704 -0.005439 0.009251
v 0.022422 -0.027546 0.000694
v 0.044978 0.075000 0.001393
v 0.048229 0.075000 -0.103557
v 0.022422 -0.027546 0.000694
v 0.303860 0.018000 0.009411
v 0.298704 -0.005439 0.009251
v 0.304603 0.018000 -0.014578
v 0.022422 -0.027546 0.000694
v 0.298704 -0.005439 0.009251
v 0.303117 0.018000 0.033399
v 0.022422 -0.027546 0.000694
v 0.303117 0.018000 0.033399
v 0.041728 0.075000 0.106343
v 0.044978 0.075000 0.001393
v 0.022422 -0.027546 0.000694
v 0.041728 0.075000 0.106343
v 0.303860 0.018000 0.009411
v 0.303117 0.018000 0.033399
v 0.298704 -0.005439 0.009251
v -0.110869 0.075000 -0.027534
v -0.221104 0.018000 0.252120
v -0.204773 0.041548 0.270308
v -0.110869 0.075000 -0.027534
v -0.204773 0.041548 0.270308
v -0.039423 0.178022 0.052039
v -0.027173 0.075000 0.035870
v -0.110869 0.075000 -0.027534
v -0.039423 0.178022 0.052039
v -0.201974 0.018000 0.266612
v -0.204773 0.041548 0.270308
v -0.221104 0.018000 0.252120
v -0.039423 0.178022 0.052039
v -0.204773 0.041548 0.270308
v -0.182843 0.018000 0.281105
v -0.039423 0.178022 0.052039
v -0.182843 0.018000 0.281105
v 0.056522 0.075000 0.099273
v -0.027173 0.075000 0.035870
v -0.039423 0.178022 0.052039
v 0.056522 0.075000 0.099273
v -0.201974 0.018000 0.266612
v -0.182843 0.018000 0.281105
v -0.204773 0.041548 0.270308
v 0.056522 0.075000 0.099273
v -0.182843 0.018000 0.281105
v -0.199174 -0.005548 0.262917
v 0.056522 0.075000 0.099273
v -0.199174 -0.005548 0.262917
v -0.014924 -0.028022 0.019700
v -0.027173 0.075000 0.035870
v 0.056522 0.075000 0.099273
v -0.014924 -0.028022 0.019700
v -0.201974 0.018000 0.266612
v -0.199174 -0.005548 0.262917
v -0.182843 0.018000 0.281105
v -0.014924 -0.028022 0.019700
v -0.199174 -0.005548 0.262917
v -0.221104 0.018000 0.252120
v -0.014924 -0.028022 0.019700
v -0.221104 0.018000 0.252120
v -0.110869 0.075000 -0.027534
v -0.027173 0.075000 0.035870
v -0.014924 -0.028022 0.019700
v -0.110869 0.075000 -0.027534
v -0.201974 0.018000 0.266612
v -0.221104 0.018000 0.252120
v -0.199174 -0.005548 0.262917
v 0.050791 0.075000 -0.102324
v -0.133999 0.018000 -0.194462
v -0.156747 0.040987 -0.184160
v 0.050791 0.075000 -0.102324
v -0.156747 0.040987 -0.184160
v -0.048729 0.175569 -0.057251
v -0.029167 0.075000 -0.034268
v 0.050791 0.075000 -0.102324
v -0.048729 0.175569 -0.057251
v -0.152276 0.018000 -0.178907
v -0.156747 0.040987 -0.184160
v -0.133999 0.018000 -0.194462
v -0.048729 0.175569 -0.057251
v -0.156747 0.040987 -0.184160
v -0.170552 0.018000 -0.163351
v -0.048729 0.175569 -0.057251
v -0.170552 0.018000 -0.163351
v -0.109125 0.075000 0.033788
v -0.029167 0.075000 -0.034268
v -0.048729 0.175569 -0.057251
v -0.109125 0.075000 0.033788
v -0.152276 0.018000 -0.178907
v -0.170552 0.018000 -0.163351
v -0.156747 0.040987 -0.184160
v -0.109125 0.075000 0.033788
v -0.170552 0.018000 -0.163351
v -0.147804 -0.004987 -0.173653
v -0.109125 0.075000 0.033788
v -0.147804 -0.004987 -0.173653
v -0.009605 -0.025569 -0.011285
v -0.029167 0.075000 -0.034268
v -0.109125 0.075000 0.033788
v -0.009605 -0.025569 -0.011285
v -0.152276 0.018000 -0.178907
v -0.147804 -0.004987 -0.173653
v -0.170552 0.018000 -0.163351
v -0.009605 -0.025569 -0.011285
v -0.147804 -0.004987 -0.173653
v -0.133999 0.018000 -0.194462
v -0.009605 -0.025569 -0.011285
v -0.133999 0.018000 -0.194462
v 0.050791 0.075000 -0.102324
v -0.029167 0.075000 -0.034268
v -0.009605 -0.025569 -0.011285
v 0.050791 0.075000 -0.102324
v -0.152276 0.018000 -0.178907
v -0.133999 0.018000 -0.194462
v -0.147804 -0.004987 -0.173653
v 0.000000 0.038372 -0.154774
v 0.005215 0.196212 -0.106177
v 0.104755 0.189871 -0.048936
v 0.000000 0.038372 -0.154774
v 0.104755 0.189871 -0.048936
v 0.134163 0.029826 -0.077623
v 0.000000 0.030000 0.000000
v 0.000000 0.038372 -0.154774
v 0.134163 0.029826 -0.077623
v 0.005215 0.190000 0.008655
v 0.104755 0.189871 -0.048936
v 0.005215 0.196212 -0.106177
v 0.134163 0.029826 -0.077623
v 0.104755 0.189871 -0.048936
v 0.104755 0.183659 0.065896
v 0.134163 0.029826 -0.077623
v 0.104755 0.183659 0.065896
v 0.134163 0.021454 0.077151
v 0.000000 0.030000 0.000000
v 0.134163 0.029826 -0.077623
v 0.134163 0.021454 0.077151
v 0.005215 0.190000 0.008655
v 0.104755 0.183659 0.065896
v 0.104755 0.189871 -0.048936
v 0.134163 0.021454 0.077151
v 0.104755 0.183659 0.065896
v 0.005215 0.183788 0.123487
v 0.134163 0.021454 0.077151
v 0.005215 0.183788 0.123487
v 0.000000 0.021628 0.154774
v 0.000000 0.030000 0.000000
v 0.134163 0.021454 0.077151
v 0.000000 0.021628 0.154774
v 0.005215 0.190000 0.008655
v 0.005215 0.183788 0.123487
v 0.104755 0.183659 0.065896
v 0.000000 0.021628 0.154774
v 0.005215 0.183788 0.123487
v -0.094325 0.190129 0.066246
v 0.000000 0.021628 0.154774
v -0.094325 0.190129 0.066246
v -0.134163 0.030174 0.077623
v 0.000000 0.030000 0.000000
v 0.000000 0.021628 0.154774
v -0.134163 0.030174 0.077623
v 0.005215 0.190000 0.008655
v -0.094325 0.190129 0.066246
v 0.005215 0.183788 0.123487
v -0.134163 0.030174 0.077623
v -0.094325 0.190129 0.066246
v -0.094325 0.196341 -0.048586
v -0.134163 0.030174 0.077623
v -0.094325 0.196341 -0.048586
v -0.134163 0.038546 -0.077151
v 0.000000 0.030000 0.000000
v -0.134163 0.030174 0.077623
v -0.134163 0.038546 -0.077151
v 0.005215 0.190000 0.008655
v -0.094325 0.196341 -0.048586
v -0.094325 0.190129 0.066246
v -0.134163 0.038546 -0.077151
v -0.094325 0.196341 -0.048586
v 0.005215 0.196212 -0.106177
v -0.134163 0.038546 -0.077151
v 0.005215 0.196212 -0.106177
v 0.000000 0.038372 -0.154774
v 0.000000 0.030000 0.000000
v -0.134163 0.038546 -0.077151
v 0.000000 0.038372 -0.154774
v 0.005215 0.190000 0.008655
v 0.005215 0.196212 -0.106177
v -0.094325 0.196341 -0.048586
f 1 2 3
f 4 5 6
f 7 8 9
f 10 11 12
f 13 14 15
f 16 17 18
f 19 20 21
f 22 23 24
f 25 26 27
f 28 29 30
f 31 32 33
f 34 35 36
f 37 38 39
f 40 41 42
f 43 44 45
f 46 47 48
f 49 50 51
f 52 53 54
f 55 56 57
f 58 59 60
f 61 62 63
f 64 65 66
f 67 68 69
f 70 71 72
f 73 74 75
f 76 77 78
f 79 80 81
f 82 83 84
f 85 86 87
f 88 89 90
f 91 92 93
f 94 95 96
f 97 98 99
f 100 101 102
f 103 104 105
f 106 107 108
f 109 110 111
f 112 113 114
f 115 116 117
f 118 119 120
f 121 122 123
f 124 125 126
f 127 128 129
f 130 131 132
f 133 134 135
f 136 137 138
f 139 140 141
f 142 143 144
f 145 146 147
f 148 149 150
f 151 152 153
f 154 155 156
f 157 158 159
f 160 161 162
f 163 164 165
f 166 167 168
f 169 170 171
f 172 173 174
f 175 176 177
f 178 179 180
f 181 182 183
f 184 185 186
f 187 188 189
f 190 191 192
f 193 194 195
f 196 197 198
f 199 200 201
f 202 203 204
f 205 206 207
f 208 209 210
f 211 212 213
f 214 215 216
