# Pyramida editable prop source
# units: 1 OBJ unit = 1 Pyramida World Unit = 1 Blender metre

o TreeStump
v 0.062391 0.075000 0.095694
v 0.238342 0.018000 -0.017257
v 0.240918 0.041015 -0.042070
v 0.062391 0.075000 0.095694
v 0.240918 0.041015 -0.042070
v 0.073660 0.175690 -0.012863
v 0.044329 0.075000 -0.007741
v 0.062391 0.075000 0.095694
v 0.073660 0.175690 -0.012863
v 0.234214 0.018000 -0.040899
v 0.240918 0.041015 -0.042070
v 0.238342 0.018000 -0.017257
v 0.073660 0.175690 -0.012863
v 0.240918 0.041015 -0.042070
v 0.230085 0.018000 -0.064541
v 0.073660 0.175690 -0.012863
v 0.230085 0.018000 -0.064541
v 0.026267 0.075000 -0.111176
v 0.044329 0.075000 -0.007741
v 0.073660 0.175690 -0.012863
v 0.026267 0.075000 -0.111176
v 0.234214 0.018000 -0.040899
v 0.230085 0.018000 -0.064541
v 0.240918 0.041015 -0.042070
v 0.026267 0.075000 -0.111176
v 0.230085 0.018000 -0.064541
v 0.227510 -0.005015 -0.039728
v 0.026267 0.075000 -0.111176
v 0.227510 -0.005015 -0.039728
v 0.014998 -0.025690 -0.002619
v 0.044329 0.075000 -0.007741
v 0.026267 0.075000 -0.111176
v 0.014998 -0.025690 -0.002619
v 0.234214 0.018000 -0.040899
v 0.227510 -0.005015 -0.039728
v 0.230085 0.018000 -0.064541
v 0.014998 -0.025690 -0.002619
v 0.227510 -0.005015 -0.039728
v 0.238342 0.018000 -0.017257
v 0.014998 -0.025690 -0.002619
v 0.238342 0.018000 -0.017257
v 0.062391 0.075000 0.095694
v 0.044329 0.075000 -0.007741
v 0.014998 -0.025690 -0.002619
v 0.062391 0.075000 0.095694
v 0.234214 0.018000 -0.040899
v 0.238342 0.018000 -0.017257
v 0.227510 -0.005015 -0.039728
v -0.114147 0.075000 -0.004521
v -0.137004 0.018000 0.231848
v -0.117889 0.041254 0.247528
v -0.114147 0.075000 -0.004521
v -0.117889 0.041254 0.247528
v -0.030519 0.176736 0.064081
v -0.019349 0.075000 0.040628
v -0.114147 0.075000 -0.004521
v -0.030519 0.176736 0.064081
v -0.115336 0.018000 0.242167
v -0.117889 0.041254 0.247528
v -0.137004 0.018000 0.231848
v -0.030519 0.176736 0.064081
v -0.117889 0.041254 0.247528
v -0.093667 0.018000 0.252487
v -0.030519 0.176736 0.064081
v -0.093667 0.018000 0.252487
v 0.075448 0.075000 0.085776
v -0.019349 0.075000 0.040628
v -0.030519 0.176736 0.064081
v 0.075448 0.075000 0.085776
v -0.115336 0.018000 0.242167
v -0.093667 0.018000 0.252487
v -0.117889 0.041254 0.247528
v 0.075448 0.075000 0.085776
v -0.093667 0.018000 0.252487
v -0.112782 -0.005254 0.236807
v 0.075448 0.075000 0.085776
v -0.112782 -0.005254 0.236807
v -0.008179 -0.026736 0.017174
v -0.019349 0.075000 0.040628
v 0.075448 0.075000 0.085776
v -0.008179 -0.026736 0.017174
v -0.115336 0.018000 0.242167
v -0.112782 -0.005254 0.236807
v -0.093667 0.018000 0.252487
v -0.008179 -0.026736 0.017174
v -0.112782 -0.005254 0.236807
v -0.137004 0.018000 0.231848
v -0.008179 -0.026736 0.017174
v -0.137004 0.018000 0.231848
v -0.114147 0.075000 -0.004521
v -0.019349 0.075000 0.040628
v -0.008179 -0.026736 0.017174
v -0.114147 0.075000 -0.004521
v -0.115336 0.018000 0.242167
v -0.137004 0.018000 0.231848
v -0.112782 -0.005254 0.236807
v 0.069764 0.075000 -0.090460
v -0.124590 0.018000 -0.272537
v -0.148112 0.041416 -0.265436
v 0.069764 0.075000 -0.090460
v -0.148112 0.041416 -0.265436
v -0.033142 0.177446 -0.059396
v -0.021927 0.075000 -0.039296
v 0.069764 0.075000 -0.090460
v -0.033142 0.177446 -0.059396
v -0.145548 0.018000 -0.260842
v -0.148112 0.041416 -0.265436
v -0.124590 0.018000 -0.272537
v -0.033142 0.177446 -0.059396
v -0.148112 0.041416 -0.265436
v -0.166506 0.018000 -0.249148
v -0.033142 0.177446 -0.059396
v -0.166506 0.018000 -0.249148
v -0.113619 0.075000 0.011867
v -0.021927 0.075000 -0.039296
v -0.033142 0.177446 -0.059396
v -0.113619 0.075000 0.011867
v -0.145548 0.018000 -0.260842
v -0.166506 0.018000 -0.249148
v -0.148112 0.041416 -0.265436
v -0.113619 0.075000 0.011867
v -0.166506 0.018000 -0.249148
v -0.142984 -0.005416 -0.256248
v -0.113619 0.075000 0.011867
v -0.142984 -0.005416 -0.256248
v -0.010712 -0.027446 -0.019197
v -0.021927 0.075000 -0.039296
v -0.113619 0.075000 0.011867
v -0.010712 -0.027446 -0.019197
v -0.145548 0.018000 -0.260842
v -0.142984 -0.005416 -0.256248
v -0.166506 0.018000 -0.249148
v -0.010712 -0.027446 -0.019197
v -0.142984 -0.005416 -0.256248
v -0.124590 0.018000 -0.272537
v -0.010712 -0.027446 -0.019197
v -0.124590 0.018000 -0.272537
v 0.069764 0.075000 -0.090460
v -0.021927 0.075000 -0.039296
v -0.010712 -0.027446 -0.019197
v 0.069764 0.075000 -0.090460
v -0.145548 0.018000 -0.260842
v -0.124590 0.018000 -0.272537
v -0.142984 -0.005416 -0.256248
v 0.000000 0.013790 -0.154150
v -0.020265 0.177973 -0.131194
v 0.078547 0.196365 -0.075311
v 0.000000 0.013790 -0.154150
v 0.078547 0.196365 -0.075311
v 0.133182 0.038579 -0.078829
v 0.000000 0.030000 0.000000
v 0.000000 0.013790 -0.154150
v 0.133182 0.038579 -0.078829
v -0.020265 0.190000 -0.016825
v 0.078547 0.196365 -0.075311
v -0.020265 0.177973 -0.131194
v 0.133182 0.038579 -0.078829
v 0.078547 0.196365 -0.075311
v 0.078547 0.208392 0.039058
v 0.133182 0.038579 -0.078829
v 0.078547 0.208392 0.039058
v 0.133182 0.054789 0.075321
v 0.000000 0.030000 0.000000
v 0.133182 0.038579 -0.078829
v 0.133182 0.054789 0.075321
v -0.020265 0.190000 -0.016825
v 0.078547 0.208392 0.039058
v 0.078547 0.196365 -0.075311
v 0.133182 0.054789 0.075321
v 0.078547 0.208392 0.039058
v -0.020265 0.202027 0.097544
v 0.133182 0.054789 0.075321
v -0.020265 0.202027 0.097544
v 0.000000 0.046210 0.154150
v 0.000000 0.030000 0.000000
v 0.133182 0.054789 0.075321
v 0.000000 0.046210 0.154150
v -0.020265 0.190000 -0.016825
v -0.020265 0.202027 0.097544
v 0.078547 0.208392 0.039058
v 0.000000 0.046210 0.154150
v -0.020265 0.202027 0.097544
v -0.119077 0.183635 0.041661
v 0.000000 0.046210 0.154150
v -0.119077 0.183635 0.041661
v -0.133182 0.021421 0.078829
v 0.000000 0.030000 0.000000
v 0.000000 0.046210 0.154150
v -0.133182 0.021421 0.078829
v -0.020265 0.190000 -0.016825
v -0.119077 0.183635 0.041661
v -0.020265 0.202027 0.097544
v -0.133182 0.021421 0.078829
v -0.119077 0.183635 0.041661
v -0.119077 0.171608 -0.072708
v -0.133182 0.021421 0.078829
v -0.119077 0.171608 -0.072708
v -0.133182 0.005211 -0.075321
v 0.000000 0.030000 0.000000
v -0.133182 0.021421 0.078829
v -0.133182 0.005211 -0.075321
v -0.020265 0.190000 -0.016825
v -0.119077 0.171608 -0.072708
v -0.119077 0.183635 0.041661
v -0.133182 0.005211 -0.075321
v -0.119077 0.171608 -0.072708
v -0.020265 0.177973 -0.131194
v -0.133182 0.005211 -0.075321
v -0.020265 0.177973 -0.131194
v 0.000000 0.013790 -0.154150
v 0.000000 0.030000 0.000000
v -0.133182 0.005211 -0.075321
v 0.000000 0.013790 -0.154150
v -0.020265 0.190000 -0.016825
v -0.020265 0.177973 -0.131194
v -0.119077 0.171608 -0.072708
f 1 2 3
f 4 5 6
f 7 8 9
f 10 11 12
f 13 14 15
f 16 17 18
f 19 20 21
f 22 23 24
f 25 26 27
f 28 29 30
f 31 32 33
f 34 35 36
f 37 38 39
f 40 41 42
f 43 44 45
f 46 47 48
f 49 50 51
f 52 53 54
f 55 56 57
f 58 59 60
f 61 62 63
f 64 65 66
f 67 68 69
f 70 71 72
f 73 74 75
f 76 77 78
f 79 80 81
f 82 83 84
f 85 86 87
f 88 89 90
f 91 92 93
f 94 95 96
f 97 98 99
f 100 101 102
f 103 104 105
f 106 107 108
f 109 110 111
f 112 113 114
f 115 116 117
f 118 119 120
f 121 122 123
f 124 125 126
f 127 128 129
f 130 131 132
f 133 134 135
f 136 137 138
f 139 140 141
f 142 143 144
f 145 146 147
f 148 149 150
f 151 152 153
f 154 155 156
f 157 158 159
f 160 161 162
f 163 164 165
f 166 167 168
f 169 170 171
f 172 173 174
f 175 176 177
f 178 179 180
f 181 182 183
f 184 185 186
f 187 188 189
f 190 191 192
f 193 194 195
f 196 197 198
f 199 200 201
f 202 203 204
f 205 206 207
f 208 209 210
f 211 212 213
f 214 215 216
