# Pyramida editable prop source
# units: 1 OBJ unit = 1 Pyramida World Unit = 1 Blender metre

o TreeStump
v 0.061658 0.075000 0.096168
v 0.240916 0.018000 -0.015844
v 0.243603 0.041038 -0.040623
v 0.061658 0.075000 0.096168
v 0.243603 0.041038 -0.040623
v 0.073412 0.175792 -0.012242
v 0.044387 0.075000 -0.007402
v 0.061658 0.075000 0.096168
v 0.073412 0.175792 -0.012242
v 0.236969 0.018000 -0.039517
v 0.243603 0.041038 -0.040623
v 0.240916 0.018000 -0.015844
v 0.073412 0.175792 -0.012242
v 0.243603 0.041038 -0.040623
v 0.233021 0.018000 -0.063190
v 0.073412 0.175792 -0.012242
v 0.233021 0.018000 -0.063190
v 0.027116 0.075000 -0.110972
v 0.044387 0.075000 -0.007402
v 0.073412 0.175792 -0.012242
v 0.027116 0.075000 -0.110972
v 0.236969 0.018000 -0.039517
v 0.233021 0.018000 -0.063190
v 0.243603 0.041038 -0.040623
v 0.027116 0.075000 -0.110972
v 0.233021 0.018000 -0.063190
v 0.230334 -0.005038 -0.038411
v 0.027116 0.075000 -0.110972
v 0.230334 -0.005038 -0.038411
v 0.015362 -0.025792 -0.002562
v 0.044387 0.075000 -0.007402
v 0.027116 0.075000 -0.110972
v 0.015362 -0.025792 -0.002562
v 0.236969 0.018000 -0.039517
v 0.230334 -0.005038 -0.038411
v 0.233021 0.018000 -0.063190
v 0.015362 -0.025792 -0.002562
v 0.230334 -0.005038 -0.038411
v 0.240916 0.018000 -0.015844
v 0.015362 -0.025792 -0.002562
v 0.240916 0.018000 -0.015844
v 0.061658 0.075000 0.096168
v 0.044387 0.075000 -0.007402
v 0.015362 -0.025792 -0.002562
v 0.061658 0.075000 0.096168
v 0.236969 0.018000 -0.039517
v 0.240916 0.018000 -0.015844
v 0.230334 -0.005038 -0.038411
v -0.114109 0.075000 -0.005393
v -0.139856 0.018000 0.233028
v -0.120834 0.041269 0.248799
v -0.114109 0.075000 -0.005393
v -0.120834 0.041269 0.248799
v -0.030891 0.176804 0.063604
v -0.019659 0.075000 0.040479
v -0.114109 0.075000 -0.005393
v -0.030891 0.176804 0.063604
v -0.118267 0.018000 0.243513
v -0.120834 0.041269 0.248799
v -0.139856 0.018000 0.233028
v -0.030891 0.176804 0.063604
v -0.120834 0.041269 0.248799
v -0.096678 0.018000 0.253998
v -0.030891 0.176804 0.063604
v -0.096678 0.018000 0.253998
v 0.074791 0.075000 0.086350
v -0.019659 0.075000 0.040479
v -0.030891 0.176804 0.063604
v 0.074791 0.075000 0.086350
v -0.118267 0.018000 0.243513
v -0.096678 0.018000 0.253998
v -0.120834 0.041269 0.248799
v 0.074791 0.075000 0.086350
v -0.096678 0.018000 0.253998
v -0.115700 -0.005269 0.238227
v 0.074791 0.075000 0.086350
v -0.115700 -0.005269 0.238227
v -0.008428 -0.026804 0.017353
v -0.019659 0.075000 0.040479
v 0.074791 0.075000 0.086350
v -0.008428 -0.026804 0.017353
v -0.118267 0.018000 0.243513
v -0.115700 -0.005269 0.238227
v -0.096678 0.018000 0.253998
v -0.008428 -0.026804 0.017353
v -0.115700 -0.005269 0.238227
v -0.139856 0.018000 0.233028
v -0.008428 -0.026804 0.017353
v -0.139856 0.018000 0.233028
v -0.114109 0.075000 -0.005393
v -0.019659 0.075000 0.040479
v -0.008428 -0.026804 0.017353
v -0.114109 0.075000 -0.005393
v -0.118267 0.018000 0.243513
v -0.139856 0.018000 0.233028
v -0.115700 -0.005269 0.238227
v 0.070453 0.075000 -0.089924
v -0.123697 0.018000 -0.275658
v -0.147249 0.041427 -0.268695
v 0.070453 0.075000 -0.089924
v -0.147249 0.041427 -0.268695
v -0.032586 0.177494 -0.059461
v -0.021626 0.075000 -0.039463
v 0.070453 0.075000 -0.089924
v -0.032586 0.177494 -0.059461
v -0.144744 0.018000 -0.264124
v -0.147249 0.041427 -0.268695
v -0.123697 0.018000 -0.275658
v -0.032586 0.177494 -0.059461
v -0.147249 0.041427 -0.268695
v -0.165791 0.018000 -0.252590
v -0.032586 0.177494 -0.059461
v -0.165791 0.018000 -0.252590
v -0.113706 0.075000 0.010998
v -0.021626 0.075000 -0.039463
v -0.032586 0.177494 -0.059461
v -0.113706 0.075000 0.010998
v -0.144744 0.018000 -0.264124
v -0.165791 0.018000 -0.252590
v -0.147249 0.041427 -0.268695
v -0.113706 0.075000 0.010998
v -0.165791 0.018000 -0.252590
v -0.142239 -0.005427 -0.259553
v -0.113706 0.075000 0.010998
v -0.142239 -0.005427 -0.259553
v -0.010667 -0.027494 -0.019464
v -0.021626 0.075000 -0.039463
v -0.113706 0.075000 0.010998
v -0.010667 -0.027494 -0.019464
v -0.144744 0.018000 -0.264124
v -0.142239 -0.005427 -0.259553
v -0.165791 0.018000 -0.252590
v -0.010667 -0.027494 -0.019464
v -0.142239 -0.005427 -0.259553
v -0.123697 0.018000 -0.275658
v -0.010667 -0.027494 -0.019464
v -0.123697 0.018000 -0.275658
v 0.070453 0.075000 -0.089924
v -0.021626 0.075000 -0.039463
v -0.010667 -0.027494 -0.019464
v 0.070453 0.075000 -0.089924
v -0.144744 0.018000 -0.264124
v -0.123697 0.018000 -0.275658
v -0.142239 -0.005427 -0.259553
v 0.000000 0.014701 -0.154243
v -0.019310 0.178649 -0.130308
v 0.079572 0.196142 -0.074261
v 0.000000 0.014701 -0.154243
v 0.079572 0.196142 -0.074261
v 0.133276 0.038279 -0.078701
v 0.000000 0.030000 0.000000
v 0.000000 0.014701 -0.154243
v 0.133276 0.038279 -0.078701
v -0.019310 0.190000 -0.015870
v 0.079572 0.196142 -0.074261
v -0.019310 0.178649 -0.130308
v 0.133276 0.038279 -0.078701
v 0.079572 0.196142 -0.074261
v 0.079572 0.207493 0.040177
v 0.133276 0.038279 -0.078701
v 0.079572 0.207493 0.040177
v 0.133276 0.053578 0.075542
v 0.000000 0.030000 0.000000
v 0.133276 0.038279 -0.078701
v 0.133276 0.053578 0.075542
v -0.019310 0.190000 -0.015870
v 0.079572 0.207493 0.040177
v 0.079572 0.196142 -0.074261
v 0.133276 0.053578 0.075542
v 0.079572 0.207493 0.040177
v -0.019310 0.201351 0.098568
v 0.133276 0.053578 0.075542
v -0.019310 0.201351 0.098568
v 0.000000 0.045299 0.154243
v 0.000000 0.030000 0.000000
v 0.133276 0.053578 0.075542
v 0.000000 0.045299 0.154243
v -0.019310 0.190000 -0.015870
v -0.019310 0.201351 0.098568
v 0.079572 0.207493 0.040177
v 0.000000 0.045299 0.154243
v -0.019310 0.201351 0.098568
v -0.118192 0.183858 0.042521
v 0.000000 0.045299 0.154243
v -0.118192 0.183858 0.042521
v -0.133276 0.021721 0.078701
v 0.000000 0.030000 0.000000
v 0.000000 0.045299 0.154243
v -0.133276 0.021721 0.078701
v -0.019310 0.190000 -0.015870
v -0.118192 0.183858 0.042521
v -0.019310 0.201351 0.098568
v -0.133276 0.021721 0.078701
v -0.118192 0.183858 0.042521
v -0.118192 0.172507 -0.071917
v -0.133276 0.021721 0.078701
v -0.118192 0.172507 -0.071917
v -0.133276 0.006422 -0.075542
v 0.000000 0.030000 0.000000
v -0.133276 0.021721 0.078701
v -0.133276 0.006422 -0.075542
v -0.019310 0.190000 -0.015870
v -0.118192 0.172507 -0.071917
v -0.118192 0.183858 0.042521
v -0.133276 0.006422 -0.075542
v -0.118192 0.172507 -0.071917
v -0.019310 0.178649 -0.130308
v -0.133276 0.006422 -0.075542
v -0.019310 0.178649 -0.130308
v 0.000000 0.014701 -0.154243
v 0.000000 0.030000 0.000000
v -0.133276 0.006422 -0.075542
v 0.000000 0.014701 -0.154243
v -0.019310 0.190000 -0.015870
v -0.019310 0.178649 -0.130308
v -0.118192 0.172507 -0.071917
f 1 2 3
f 4 5 6
f 7 8 9
f 10 11 12
f 13 14 15
f 16 17 18
f 19 20 21
f 22 23 24
f 25 26 27
f 28 29 30
f 31 32 33
f 34 35 36
f 37 38 39
f 40 41 42
f 43 44 45
f 46 47 48
f 49 50 51
f 52 53 54
f 55 56 57
f 58 59 60
f 61 62 63
f 64 65 66
f 67 68 69
f 70 71 72
f 73 74 75
f 76 77 78
f 79 80 81
f 82 83 84
f 85 86 87
f 88 89 90
f 91 92 93
f 94 95 96
f 97 98 99
f 100 101 102
f 103 104 105
f 106 107 108
f 109 110 111
f 112 113 114
f 115 116 117
f 118 119 120
f 121 122 123
f 124 125 126
f 127 128 129
f 130 131 132
f 133 134 135
f 136 137 138
f 139 140 141
f 142 143 144
f 145 146 147
f 148 149 150
f 151 152 153
f 154 155 156
f 157 158 159
f 160 161 162
f 163 164 165
f 166 167 168
f 169 170 171
f 172 173 174
f 175 176 177
f 178 179 180
f 181 182 183
f 184 185 186
f 187 188 189
f 190 191 192
f 193 194 195
f 196 197 198
f 199 200 201
f 202 203 204
f 205 206 207
f 208 209 210
f 211 212 213
f 214 215 216
