# Pyramida editable prop source
# units: 1 OBJ unit = 1 Pyramida World Unit = 1 Blender metre

o TreeTrunk
v 0.061556 0.074391 0.096705
v 0.238128 0.020872 -0.016977
v 0.240448 0.044247 -0.041478
v 0.061556 0.074391 0.096705
v 0.240448 0.044247 -0.041478
v 0.071707 0.176653 -0.010484
v 0.043495 0.075584 -0.006723
v 0.061556 0.074391 0.096705
v 0.071707 0.176653 -0.010484
v 0.234000 0.021145 -0.040618
v 0.240448 0.044247 -0.041478
v 0.238128 0.020872 -0.016977
v 0.071707 0.176653 -0.010484
v 0.240448 0.044247 -0.041478
v 0.229872 0.021418 -0.064259
v 0.071707 0.176653 -0.010484
v 0.229872 0.021418 -0.064259
v 0.025434 0.076778 -0.110151
v 0.043495 0.075584 -0.006723
v 0.071707 0.176653 -0.010484
v 0.025434 0.076778 -0.110151
v 0.234000 0.021145 -0.040618
v 0.229872 0.021418 -0.064259
v 0.240448 0.044247 -0.041478
v 0.025434 0.076778 -0.110151
v 0.229872 0.021418 -0.064259
v 0.227551 -0.001956 -0.039758
v 0.025434 0.076778 -0.110151
v 0.227551 -0.001956 -0.039758
v 0.015282 -0.025484 -0.002963
v 0.043495 0.075584 -0.006723
v 0.025434 0.076778 -0.110151
v 0.015282 -0.025484 -0.002963
v 0.234000 0.021145 -0.040618
v 0.227551 -0.001956 -0.039758
v 0.229872 0.021418 -0.064259
v 0.015282 -0.025484 -0.002963
v 0.227551 -0.001956 -0.039758
v 0.238128 0.020872 -0.016977
v 0.015282 -0.025484 -0.002963
v 0.238128 0.020872 -0.016977
v 0.061556 0.074391 0.096705
v 0.043495 0.075584 -0.006723
v 0.015282 -0.025484 -0.002963
v 0.061556 0.074391 0.096705
v 0.234000 0.021145 -0.040618
v 0.238128 0.020872 -0.016977
v 0.227551 -0.001956 -0.039758
v -0.114972 0.073784 -0.003527
v -0.137195 0.013355 0.232049
v -0.118339 0.036606 0.248044
v -0.114972 0.073784 -0.003527
v -0.118339 0.036606 0.248044
v -0.032477 0.175507 0.066451
v -0.020180 0.074227 0.041631
v -0.114972 0.073784 -0.003527
v -0.032477 0.175507 0.066451
v -0.115528 0.013456 0.242371
v -0.118339 0.036606 0.248044
v -0.137195 0.013355 0.232049
v -0.032477 0.175507 0.066451
v -0.118339 0.036606 0.248044
v -0.093861 0.013557 0.252693
v -0.032477 0.175507 0.066451
v -0.093861 0.013557 0.252693
v 0.074612 0.074669 0.086790
v -0.020180 0.074227 0.041631
v -0.032477 0.175507 0.066451
v 0.074612 0.074669 0.086790
v -0.115528 0.013456 0.242371
v -0.093861 0.013557 0.252693
v -0.118339 0.036606 0.248044
v 0.074612 0.074669 0.086790
v -0.093861 0.013557 0.252693
v -0.112717 -0.009694 0.236698
v 0.074612 0.074669 0.086790
v -0.112717 -0.009694 0.236698
v -0.007882 -0.027054 0.016811
v -0.020180 0.074227 0.041631
v 0.074612 0.074669 0.086790
v -0.007882 -0.027054 0.016811
v -0.115528 0.013456 0.242371
v -0.112717 -0.009694 0.236698
v -0.093861 0.013557 0.252693
v -0.007882 -0.027054 0.016811
v -0.112717 -0.009694 0.236698
v -0.137195 0.013355 0.232049
v -0.007882 -0.027054 0.016811
v -0.137195 0.013355 0.232049
v -0.114972 0.073784 -0.003527
v -0.020180 0.074227 0.041631
v -0.007882 -0.027054 0.016811
v -0.114972 0.073784 -0.003527
v -0.115528 0.013456 0.242371
v -0.137195 0.013355 0.232049
v -0.112717 -0.009694 0.236698
v 0.068928 0.076981 -0.089430
v -0.124782 0.020288 -0.272288
v -0.148562 0.043344 -0.264876
v 0.068928 0.076981 -0.089430
v -0.148562 0.043344 -0.264876
v -0.035108 0.177852 -0.057005
v -0.022757 0.075275 -0.038286
v 0.068928 0.076981 -0.089430
v -0.035108 0.177852 -0.057005
v -0.145739 0.019898 -0.260598
v -0.148562 0.043344 -0.264876
v -0.124782 0.020288 -0.272288
v -0.035108 0.177852 -0.057005
v -0.148562 0.043344 -0.264876
v -0.166695 0.019508 -0.248908
v -0.035108 0.177852 -0.057005
v -0.166695 0.019508 -0.248908
v -0.114443 0.073569 0.012859
v -0.022757 0.075275 -0.038286
v -0.035108 0.177852 -0.057005
v -0.114443 0.073569 0.012859
v -0.145739 0.019898 -0.260598
v -0.166695 0.019508 -0.248908
v -0.148562 0.043344 -0.264876
v -0.114443 0.073569 0.012859
v -0.166695 0.019508 -0.248908
v -0.142916 -0.003548 -0.256319
v -0.114443 0.073569 0.012859
v -0.142916 -0.003548 -0.256319
v -0.010407 -0.027302 -0.019566
v -0.022757 0.075275 -0.038286
v -0.114443 0.073569 0.012859
v -0.010407 -0.027302 -0.019566
v -0.145739 0.019898 -0.260598
v -0.142916 -0.003548 -0.256319
v -0.166695 0.019508 -0.248908
v -0.010407 -0.027302 -0.019566
v -0.142916 -0.003548 -0.256319
v -0.124782 0.020288 -0.272288
v -0.010407 -0.027302 -0.019566
v -0.124782 0.020288 -0.272288
v 0.068928 0.076981 -0.089430
v -0.022757 0.075275 -0.038286
v -0.010407 -0.027302 -0.019566
v 0.068928 0.076981 -0.089430
v -0.145739 0.019898 -0.260598
v -0.124782 0.020288 -0.272288
v -0.142916 -0.003548 -0.256319
v -0.000093 0.010531 -0.159653
v 0.014443 1.008091 -0.065468
v 0.128496 1.002113 0.000047
v -0.000093 0.010531 -0.159653
v 0.128496 1.002113 0.000047
v 0.138503 0.003266 -0.080039
v 0.000000 0.000000 0.000000
v -0.000093 0.010531 -0.159653
v 0.138503 0.003266 -0.080039
v 0.014520 0.999425 0.065913
v 0.128496 1.002113 0.000047
v 0.014443 1.008091 -0.065468
v 0.138503 0.003266 -0.080039
v 0.128496 1.002113 0.000047
v 0.128573 0.993447 0.131429
v 0.138503 0.003266 -0.080039
v 0.128573 0.993447 0.131429
v 0.138596 -0.007264 0.079614
v 0.000000 0.000000 0.000000
v 0.138503 0.003266 -0.080039
v 0.138596 -0.007264 0.079614
v 0.014520 0.999425 0.065913
v 0.128573 0.993447 0.131429
v 0.128496 1.002113 0.000047
v 0.138596 -0.007264 0.079614
v 0.128573 0.993447 0.131429
v 0.014596 0.990759 0.197294
v 0.138596 -0.007264 0.079614
v 0.014596 0.990759 0.197294
v 0.000093 -0.010531 0.159653
v 0.000000 0.000000 0.000000
v 0.138596 -0.007264 0.079614
v 0.000093 -0.010531 0.159653
v 0.014520 0.999425 0.065913
v 0.014596 0.990759 0.197294
v 0.128573 0.993447 0.131429
v 0.000093 -0.010531 0.159653
v 0.014596 0.990759 0.197294
v -0.099457 0.996737 0.131778
v 0.000093 -0.010531 0.159653
v -0.099457 0.996737 0.131778
v -0.138503 -0.003266 0.080039
v 0.000000 0.000000 0.000000
v 0.000093 -0.010531 0.159653
v -0.138503 -0.003266 0.080039
v 0.014520 0.999425 0.065913
v -0.099457 0.996737 0.131778
v 0.014596 0.990759 0.197294
v -0.138503 -0.003266 0.080039
v -0.099457 0.996737 0.131778
v -0.099533 1.005403 0.000397
v -0.138503 -0.003266 0.080039
v -0.099533 1.005403 0.000397
v -0.138596 0.007264 -0.079614
v 0.000000 0.000000 0.000000
v -0.138503 -0.003266 0.080039
v -0.138596 0.007264 -0.079614
v 0.014520 0.999425 0.065913
v -0.099533 1.005403 0.000397
v -0.099457 0.996737 0.131778
v -0.138596 0.007264 -0.079614
v -0.099533 1.005403 0.000397
v 0.014443 1.008091 -0.065468
v -0.138596 0.007264 -0.079614
v 0.014443 1.008091 -0.065468
v -0.000093 0.010531 -0.159653
v 0.000000 0.000000 0.000000
v -0.138596 0.007264 -0.079614
v -0.000093 0.010531 -0.159653
v 0.014520 0.999425 0.065913
v 0.014443 1.008091 -0.065468
v -0.099533 1.005403 0.000397
v -0.037679 0.525293 -0.016700
v -0.343713 0.734192 0.307156
v -0.315449 0.760128 0.320661
v -0.037679 0.525293 -0.016700
v -0.315449 0.760128 0.320661
v 0.029615 0.587044 0.015454
v 0.007629 0.525104 0.034631
v -0.037679 0.525293 -0.016700
v 0.029615 0.587044 0.015454
v -0.324683 0.734113 0.328715
v -0.315449 0.760128 0.320661
v -0.343713 0.734192 0.307156
v 0.029615 0.587044 0.015454
v -0.315449 0.760128 0.320661
v -0.305654 0.734034 0.350274
v 0.029615 0.587044 0.015454
v -0.305654 0.734034 0.350274
v 0.052936 0.524915 0.085962
v 0.007629 0.525104 0.034631
v 0.029615 0.587044 0.015454
v 0.052936 0.524915 0.085962
v -0.324683 0.734113 0.328715
v -0.305654 0.734034 0.350274
v -0.315449 0.760128 0.320661
v 0.052936 0.524915 0.085962
v -0.305654 0.734034 0.350274
v -0.333918 0.708098 0.336770
v 0.052936 0.524915 0.085962
v -0.333918 0.708098 0.336770
v -0.014357 0.463164 0.053809
v 0.007629 0.525104 0.034631
v 0.052936 0.524915 0.085962
v -0.014357 0.463164 0.053809
v -0.324683 0.734113 0.328715
v -0.333918 0.708098 0.336770
v -0.305654 0.734034 0.350274
v -0.014357 0.463164 0.053809
v -0.333918 0.708098 0.336770
v -0.343713 0.734192 0.307156
v -0.014357 0.463164 0.053809
v -0.343713 0.734192 0.307156
v -0.037679 0.525293 -0.016700
v 0.007629 0.525104 0.034631
v -0.014357 0.463164 0.053809
v -0.037679 0.525293 -0.016700
v -0.324683 0.734113 0.328715
v -0.343713 0.734192 0.307156
v -0.333918 0.708098 0.336770
v -0.281535 0.686833 0.261930
v -0.263809 0.767307 0.428748
v -0.254808 0.775510 0.425048
v -0.281535 0.686833 0.261930
v -0.254808 0.775510 0.425048
v -0.250036 0.715538 0.248983
v -0.250051 0.687173 0.262668
v -0.281535 0.686833 0.261930
v -0.250036 0.715538 0.248983
v -0.254812 0.767404 0.428959
v -0.254808 0.775510 0.425048
v -0.263809 0.767307 0.428748
v -0.250036 0.715538 0.248983
v -0.254808 0.775510 0.425048
v -0.245815 0.767501 0.429170
v -0.250036 0.715538 0.248983
v -0.245815 0.767501 0.429170
v -0.218567 0.687512 0.263406
v -0.250051 0.687173 0.262668
v -0.250036 0.715538 0.248983
v -0.218567 0.687512 0.263406
v -0.254812 0.767404 0.428959
v -0.245815 0.767501 0.429170
v -0.254808 0.775510 0.425048
v -0.218567 0.687512 0.263406
v -0.245815 0.767501 0.429170
v -0.254817 0.759298 0.432870
v -0.218567 0.687512 0.263406
v -0.254817 0.759298 0.432870
v -0.250066 0.658807 0.276353
v -0.250051 0.687173 0.262668
v -0.218567 0.687512 0.263406
v -0.250066 0.658807 0.276353
v -0.254812 0.767404 0.428959
v -0.254817 0.759298 0.432870
v -0.245815 0.767501 0.429170
v -0.250066 0.658807 0.276353
v -0.254817 0.759298 0.432870
v -0.263809 0.767307 0.428748
v -0.250066 0.658807 0.276353
v -0.263809 0.767307 0.428748
v -0.281535 0.686833 0.261930
v -0.250051 0.687173 0.262668
v -0.250066 0.658807 0.276353
v -0.281535 0.686833 0.261930
v -0.254812 0.767404 0.428959
v -0.263809 0.767307 0.428748
v -0.254817 0.759298 0.432870
v -0.180001 0.626289 0.160303
v -0.266472 0.726543 0.339233
v -0.256702 0.734588 0.340578
v -0.180001 0.626289 0.160303
v -0.256702 0.734588 0.340578
v -0.145811 0.654444 0.165011
v -0.153359 0.626358 0.177099
v -0.180001 0.626289 0.160303
v -0.145811 0.654444 0.165011
v -0.258859 0.726563 0.344032
v -0.256702 0.734588 0.340578
v -0.266472 0.726543 0.339233
v -0.145811 0.654444 0.165011
v -0.256702 0.734588 0.340578
v -0.251246 0.726582 0.348832
v -0.145811 0.654444 0.165011
v -0.251246 0.726582 0.348832
v -0.126717 0.626427 0.193896
v -0.153359 0.626358 0.177099
v -0.145811 0.654444 0.165011
v -0.126717 0.626427 0.193896
v -0.258859 0.726563 0.344032
v -0.251246 0.726582 0.348832
v -0.256702 0.734588 0.340578
v -0.126717 0.626427 0.193896
v -0.251246 0.726582 0.348832
v -0.261016 0.718537 0.347487
v -0.126717 0.626427 0.193896
v -0.261016 0.718537 0.347487
v -0.160907 0.598272 0.189188
v -0.153359 0.626358 0.177099
v -0.126717 0.626427 0.193896
v -0.160907 0.598272 0.189188
v -0.258859 0.726563 0.344032
v -0.261016 0.718537 0.347487
v -0.251246 0.726582 0.348832
v -0.160907 0.598272 0.189188
v -0.261016 0.718537 0.347487
v -0.266472 0.726543 0.339233
v -0.160907 0.598272 0.189188
v -0.266472 0.726543 0.339233
v -0.180001 0.626289 0.160303
v -0.153359 0.626358 0.177099
v -0.160907 0.598272 0.189188
v -0.180001 0.626289 0.160303
v -0.258859 0.726563 0.344032
v -0.266472 0.726543 0.339233
v -0.261016 0.718537 0.347487
v -0.197201 0.645195 0.175205
v -0.390132 0.766108 0.299197
v -0.382274 0.773995 0.305366
v -0.197201 0.645195 0.175205
v -0.382274 0.773995 0.305366
v -0.169703 0.672794 0.196791
v -0.182959 0.644975 0.203294
v -0.197201 0.645195 0.175205
v -0.169703 0.672794 0.196791
v -0.386062 0.766045 0.307224
v -0.382274 0.773995 0.305366
v -0.390132 0.766108 0.299197
v -0.169703 0.672794 0.196791
v -0.382274 0.773995 0.305366
v -0.381992 0.765982 0.315251
v -0.169703 0.672794 0.196791
v -0.381992 0.765982 0.315251
v -0.168717 0.644754 0.231384
v -0.182959 0.644975 0.203294
v -0.169703 0.672794 0.196791
v -0.168717 0.644754 0.231384
v -0.386062 0.766045 0.307224
v -0.381992 0.765982 0.315251
v -0.382274 0.773995 0.305366
v -0.168717 0.644754 0.231384
v -0.381992 0.765982 0.315251
v -0.389850 0.758095 0.309082
v -0.168717 0.644754 0.231384
v -0.389850 0.758095 0.309082
v -0.196215 0.617156 0.209797
v -0.182959 0.644975 0.203294
v -0.168717 0.644754 0.231384
v -0.196215 0.617156 0.209797
v -0.386062 0.766045 0.307224
v -0.389850 0.758095 0.309082
v -0.381992 0.765982 0.315251
v -0.196215 0.617156 0.209797
v -0.389850 0.758095 0.309082
v -0.390132 0.766108 0.299197
v -0.196215 0.617156 0.209797
v -0.390132 0.766108 0.299197
v -0.197201 0.645195 0.175205
v -0.182959 0.644975 0.203294
v -0.196215 0.617156 0.209797
v -0.197201 0.645195 0.175205
v -0.386062 0.766045 0.307224
v -0.390132 0.766108 0.299197
v -0.389850 0.758095 0.309082
v 0.055840 0.634058 -0.008366
v -0.333887 0.887979 -0.310886
v -0.344098 0.913005 -0.280501
v 0.055840 0.634058 -0.008366
v -0.344098 0.913005 -0.280501
v 0.031530 0.693645 0.063979
v 0.009194 0.632866 0.041738
v 0.055840 0.634058 -0.008366
v 0.031530 0.693645 0.063979
v -0.353479 0.887478 -0.289843
v -0.344098 0.913005 -0.280501
v -0.333887 0.887979 -0.310886
v 0.031530 0.693645 0.063979
v -0.344098 0.913005 -0.280501
v -0.373070 0.886977 -0.268799
v 0.031530 0.693645 0.063979
v -0.373070 0.886977 -0.268799
v -0.037451 0.631674 0.091842
v 0.009194 0.632866 0.041738
v 0.031530 0.693645 0.063979
v -0.037451 0.631674 0.091842
v -0.353479 0.887478 -0.289843
v -0.373070 0.886977 -0.268799
v -0.344098 0.913005 -0.280501
v -0.037451 0.631674 0.091842
v -0.373070 0.886977 -0.268799
v -0.362860 0.861951 -0.299184
v -0.037451 0.631674 0.091842
v -0.362860 0.861951 -0.299184
v -0.013142 0.572086 0.019497
v 0.009194 0.632866 0.041738
v -0.037451 0.631674 0.091842
v -0.013142 0.572086 0.019497
v -0.353479 0.887478 -0.289843
v -0.362860 0.861951 -0.299184
v -0.373070 0.886977 -0.268799
v -0.013142 0.572086 0.019497
v -0.362860 0.861951 -0.299184
v -0.333887 0.887979 -0.310886
v -0.013142 0.572086 0.019497
v -0.333887 0.887979 -0.310886
v 0.055840 0.634058 -0.008366
v 0.009194 0.632866 0.041738
v -0.013142 0.572086 0.019497
v 0.055840 0.634058 -0.008366
v -0.353479 0.887478 -0.289843
v -0.333887 0.887979 -0.310886
v -0.362860 0.861951 -0.299184
v -0.199630 0.801931 -0.178847
v -0.226300 0.859122 -0.304047
v -0.235285 0.867206 -0.300057
v -0.199630 0.801931 -0.178847
v -0.235285 0.867206 -0.300057
v -0.231072 0.830220 -0.164885
v -0.231110 0.801570 -0.177965
v -0.199630 0.801931 -0.178847
v -0.231072 0.830220 -0.164885
v -0.235296 0.859019 -0.303795
v -0.235285 0.867206 -0.300057
v -0.226300 0.859122 -0.304047
v -0.231072 0.830220 -0.164885
v -0.235285 0.867206 -0.300057
v -0.244292 0.858915 -0.303543
v -0.231072 0.830220 -0.164885
v -0.244292 0.858915 -0.303543
v -0.262590 0.801209 -0.177082
v -0.231110 0.801570 -0.177965
v -0.231072 0.830220 -0.164885
v -0.262590 0.801209 -0.177082
v -0.235296 0.859019 -0.303795
v -0.244292 0.858915 -0.303543
v -0.235285 0.867206 -0.300057
v -0.262590 0.801209 -0.177082
v -0.244292 0.858915 -0.303543
v -0.235307 0.850831 -0.307532
v -0.262590 0.801209 -0.177082
v -0.235307 0.850831 -0.307532
v -0.231148 0.772920 -0.191044
v -0.231110 0.801570 -0.177965
v -0.262590 0.801209 -0.177082
v -0.231148 0.772920 -0.191044
v -0.235296 0.859019 -0.303795
v -0.235307 0.850831 -0.307532
v -0.244292 0.858915 -0.303543
v -0.231148 0.772920 -0.191044
v -0.235307 0.850831 -0.307532
v -0.226300 0.859122 -0.304047
v -0.231148 0.772920 -0.191044
v -0.226300 0.859122 -0.304047
v -0.199630 0.801931 -0.178847
v -0.231110 0.801570 -0.177965
v -0.231148 0.772920 -0.191044
v -0.199630 0.801931 -0.178847
v -0.235296 0.859019 -0.303795
v -0.226300 0.859122 -0.304047
v -0.235307 0.850831 -0.307532
v -0.270240 0.824587 -0.238243
v -0.419588 0.899061 -0.181220
v -0.413865 0.907102 -0.173182
v -0.270240 0.824587 -0.238243
v -0.413865 0.907102 -0.173182
v -0.250214 0.852724 -0.210116
v -0.263414 0.824249 -0.207499
v -0.270240 0.824587 -0.238243
v -0.250214 0.852724 -0.210116
v -0.417637 0.898965 -0.172434
v -0.413865 0.907102 -0.173182
v -0.419588 0.899061 -0.181220
v -0.250214 0.852724 -0.210116
v -0.413865 0.907102 -0.173182
v -0.415686 0.898868 -0.163649
v -0.250214 0.852724 -0.210116
v -0.415686 0.898868 -0.163649
v -0.256588 0.823910 -0.176755
v -0.263414 0.824249 -0.207499
v -0.250214 0.852724 -0.210116
v -0.256588 0.823910 -0.176755
v -0.417637 0.898965 -0.172434
v -0.415686 0.898868 -0.163649
v -0.413865 0.907102 -0.173182
v -0.256588 0.823910 -0.176755
v -0.415686 0.898868 -0.163649
v -0.421409 0.890828 -0.171686
v -0.256588 0.823910 -0.176755
v -0.421409 0.890828 -0.171686
v -0.276614 0.795774 -0.204882
v -0.263414 0.824249 -0.207499
v -0.256588 0.823910 -0.176755
v -0.276614 0.795774 -0.204882
v -0.417637 0.898965 -0.172434
v -0.421409 0.890828 -0.171686
v -0.415686 0.898868 -0.163649
v -0.276614 0.795774 -0.204882
v -0.421409 0.890828 -0.171686
v -0.419588 0.899061 -0.181220
v -0.276614 0.795774 -0.204882
v -0.419588 0.899061 -0.181220
v -0.270240 0.824587 -0.238243
v -0.263414 0.824249 -0.207499
v -0.276614 0.795774 -0.204882
v -0.270240 0.824587 -0.238243
v -0.417637 0.898965 -0.172434
v -0.419588 0.899061 -0.181220
v -0.421409 0.890828 -0.171686
v 0.065197 0.740672 0.090370
v 0.228151 0.877878 -0.188876
v 0.198415 0.904299 -0.197336
v 0.065197 0.740672 0.090370
v 0.198415 0.904299 -0.197336
v -0.005602 0.803579 0.070227
v 0.010760 0.740628 0.048845
v 0.065197 0.740672 0.090370
v -0.005602 0.803579 0.070227
v 0.205287 0.877859 -0.206317
v 0.198415 0.904299 -0.197336
v 0.228151 0.877878 -0.188876
v -0.005602 0.803579 0.070227
v 0.198415 0.904299 -0.197336
v 0.182424 0.877841 -0.223757
v -0.005602 0.803579 0.070227
v 0.182424 0.877841 -0.223757
v -0.043677 0.740584 0.007320
v 0.010760 0.740628 0.048845
v -0.005602 0.803579 0.070227
v -0.043677 0.740584 0.007320
v 0.205287 0.877859 -0.206317
v 0.182424 0.877841 -0.223757
v 0.198415 0.904299 -0.197336
v -0.043677 0.740584 0.007320
v 0.182424 0.877841 -0.223757
v 0.212159 0.851420 -0.215297
v -0.043677 0.740584 0.007320
v 0.212159 0.851420 -0.215297
v 0.027122 0.677677 0.027463
v 0.010760 0.740628 0.048845
v -0.043677 0.740584 0.007320
v 0.027122 0.677677 0.027463
v 0.205287 0.877859 -0.206317
v 0.212159 0.851420 -0.215297
v 0.182424 0.877841 -0.223757
v 0.027122 0.677677 0.027463
v 0.212159 0.851420 -0.215297
v 0.228151 0.877878 -0.188876
v 0.027122 0.677677 0.027463
v 0.228151 0.877878 -0.188876
v 0.065197 0.740672 0.090370
v 0.010760 0.740628 0.048845
v 0.027122 0.677677 0.027463
v 0.065197 0.740672 0.090370
v 0.205287 0.877859 -0.206317
v 0.228151 0.877878 -0.188876
v 0.212159 0.851420 -0.215297
v 0.140495 0.816034 -0.069697
v 0.273388 0.938918 -0.241378
v 0.263811 0.946752 -0.244363
v 0.140495 0.816034 -0.069697
v 0.263811 0.946752 -0.244363
v 0.106981 0.843449 -0.080142
v 0.117705 0.816074 -0.091435
v 0.140495 0.816034 -0.069697
v 0.106981 0.843449 -0.080142
v 0.266875 0.938929 -0.247590
v 0.263811 0.946752 -0.244363
v 0.273388 0.938918 -0.241378
v 0.106981 0.843449 -0.080142
v 0.263811 0.946752 -0.244363
v 0.260363 0.938941 -0.253802
v 0.106981 0.843449 -0.080142
v 0.260363 0.938941 -0.253802
v 0.094916 0.816114 -0.113174
v 0.117705 0.816074 -0.091435
v 0.106981 0.843449 -0.080142
v 0.094916 0.816114 -0.113174
v 0.266875 0.938929 -0.247590
v 0.260363 0.938941 -0.253802
v 0.263811 0.946752 -0.244363
v 0.094916 0.816114 -0.113174
v 0.260363 0.938941 -0.253802
v 0.269940 0.931107 -0.250817
v 0.094916 0.816114 -0.113174
v 0.269940 0.931107 -0.250817
v 0.128429 0.788699 -0.102728
v 0.117705 0.816074 -0.091435
v 0.094916 0.816114 -0.113174
v 0.128429 0.788699 -0.102728
v 0.266875 0.938929 -0.247590
v 0.269940 0.931107 -0.250817
v 0.260363 0.938941 -0.253802
v 0.128429 0.788699 -0.102728
v 0.269940 0.931107 -0.250817
v 0.273388 0.938918 -0.241378
v 0.128429 0.788699 -0.102728
v 0.273388 0.938918 -0.241378
v 0.140495 0.816034 -0.069697
v 0.117705 0.816074 -0.091435
v 0.128429 0.788699 -0.102728
v 0.140495 0.816034 -0.069697
v 0.266875 0.938929 -0.247590
v 0.273388 0.938918 -0.241378
v 0.269940 0.931107 -0.250817
v 0.143431 0.827981 -0.083810
v 0.376392 0.881914 -0.171048
v 0.372178 0.890800 -0.179129
v 0.143431 0.827981 -0.083810
v 0.372178 0.890800 -0.179129
v 0.128684 0.859076 -0.112086
v 0.135032 0.828297 -0.114163
v 0.143431 0.827981 -0.083810
v 0.128684 0.859076 -0.112086
v 0.373992 0.882004 -0.179722
v 0.372178 0.890800 -0.179129
v 0.376392 0.881914 -0.171048
v 0.128684 0.859076 -0.112086
v 0.372178 0.890800 -0.179129
v 0.371592 0.882095 -0.188396
v 0.128684 0.859076 -0.112086
v 0.371592 0.882095 -0.188396
v 0.126634 0.828613 -0.144516
v 0.135032 0.828297 -0.114163
v 0.128684 0.859076 -0.112086
v 0.126634 0.828613 -0.144516
v 0.373992 0.882004 -0.179722
v 0.371592 0.882095 -0.188396
v 0.372178 0.890800 -0.179129
v 0.126634 0.828613 -0.144516
v 0.371592 0.882095 -0.188396
v 0.375806 0.873209 -0.180316
v 0.126634 0.828613 -0.144516
v 0.375806 0.873209 -0.180316
v 0.141380 0.797519 -0.116240
v 0.135032 0.828297 -0.114163
v 0.126634 0.828613 -0.144516
v 0.141380 0.797519 -0.116240
v 0.373992 0.882004 -0.179722
v 0.375806 0.873209 -0.180316
v 0.371592 0.882095 -0.188396
v 0.141380 0.797519 -0.116240
v 0.375806 0.873209 -0.180316
v 0.376392 0.881914 -0.171048
v 0.141380 0.797519 -0.116240
v 0.376392 0.881914 -0.171048
v 0.143431 0.827981 -0.083810
v 0.135032 0.828297 -0.114163
v 0.141380 0.797519 -0.116240
v 0.143431 0.827981 -0.083810
v 0.373992 0.882004 -0.179722
v 0.376392 0.881914 -0.171048
v 0.375806 0.873209 -0.180316
f 1 2 3
f 4 5 6
f 7 8 9
f 10 11 12
f 13 14 15
f 16 17 18
f 19 20 21
f 22 23 24
f 25 26 27
f 28 29 30
f 31 32 33
f 34 35 36
f 37 38 39
f 40 41 42
f 43 44 45
f 46 47 48
f 49 50 51
f 52 53 54
f 55 56 57
f 58 59 60
f 61 62 63
f 64 65 66
f 67 68 69
f 70 71 72
f 73 74 75
f 76 77 78
f 79 80 81
f 82 83 84
f 85 86 87
f 88 89 90
f 91 92 93
f 94 95 96
f 97 98 99
f 100 101 102
f 103 104 105
f 106 107 108
f 109 110 111
f 112 113 114
f 115 116 117
f 118 119 120
f 121 122 123
f 124 125 126
f 127 128 129
f 130 131 132
f 133 134 135
f 136 137 138
f 139 140 141
f 142 143 144
f 145 146 147
f 148 149 150
f 151 152 153
f 154 155 156
f 157 158 159
f 160 161 162
f 163 164 165
f 166 167 168
f 169 170 171
f 172 173 174
f 175 176 177
f 178 179 180
f 181 182 183
f 184 185 186
f 187 188 189
f 190 191 192
f 193 194 195
f 196 197 198
f 199 200 201
f 202 203 204
f 205 206 207
f 208 209 210
f 211 212 213
f 214 215 216
f 217 218 219
f 220 221 222
f 223 224 225
f 226 227 228
f 229 230 231
f 232 233 234
f 235 236 237
f 238 239 240
f 241 242 243
f 244 245 246
f 247 248 249
f 250 251 252
f 253 254 255
f 256 257 258
f 259 260 261
f 262 263 264
f 265 266 267
f 268 269 270
f 271 272 273
f 274 275 276
f 277 278 279
f 280 281 282
f 283 284 285
f 286 287 288
f 289 290 291
f 292 293 294
f 295 296 297
f 298 299 300
f 301 302 303
f 304 305 306
f 307 308 309
f 310 311 312
f 313 314 315
f 316 317 318
f 319 320 321
f 322 323 324
f 325 326 327
f 328 329 330
f 331 332 333
f 334 335 336
f 337 338 339
f 340 341 342
f 343 344 345
f 346 347 348
f 349 350 351
f 352 353 354
f 355 356 357
f 358 359 360
f 361 362 363
f 364 365 366
f 367 368 369
f 370 371 372
f 373 374 375
f 376 377 378
f 379 380 381
f 382 383 384
f 385 386 387
f 388 389 390
f 391 392 393
f 394 395 396
f 397 398 399
f 400 401 402
f 403 404 405
f 406 407 408
f 409 410 411
f 412 413 414
f 415 416 417
f 418 419 420
f 421 422 423
f 424 425 426
f 427 428 429
f 430 431 432
f 433 434 435
f 436 437 438
f 439 440 441
f 442 443 444
f 445 446 447
f 448 449 450
f 451 452 453
f 454 455 456
f 457 458 459
f 460 461 462
f 463 464 465
f 466 467 468
f 469 470 471
f 472 473 474
f 475 476 477
f 478 479 480
f 481 482 483
f 484 485 486
f 487 488 489
f 490 491 492
f 493 494 495
f 496 497 498
f 499 500 501
f 502 503 504
f 505 506 507
f 508 509 510
f 511 512 513
f 514 515 516
f 517 518 519
f 520 521 522
f 523 524 525
f 526 527 528
f 529 530 531
f 532 533 534
f 535 536 537
f 538 539 540
f 541 542 543
f 544 545 546
f 547 548 549
f 550 551 552
f 553 554 555
f 556 557 558
f 559 560 561
f 562 563 564
f 565 566 567
f 568 569 570
f 571 572 573
f 574 575 576
f 577 578 579
f 580 581 582
f 583 584 585
f 586 587 588
f 589 590 591
f 592 593 594
f 595 596 597
f 598 599 600
f 601 602 603
f 604 605 606
f 607 608 609
f 610 611 612
f 613 614 615
f 616 617 618
f 619 620 621
f 622 623 624
f 625 626 627
f 628 629 630
f 631 632 633
f 634 635 636
f 637 638 639
f 640 641 642
f 643 644 645
f 646 647 648
f 649 650 651
f 652 653 654
f 655 656 657
f 658 659 660
f 661 662 663
f 664 665 666
f 667 668 669
f 670 671 672
f 673 674 675
f 676 677 678
f 679 680 681
f 682 683 684
f 685 686 687
f 688 689 690
f 691 692 693
f 694 695 696

o TreeFoliage
v 0.016284 0.840364 0.063770
v 0.188184 0.918152 0.064818
v 0.137589 0.915993 0.183433
v 0.016284 0.840364 0.063770
v 0.137589 0.915993 0.183433
v 0.016284 0.840364 0.063770
v 0.016284 0.840364 0.063770
v 0.137589 0.915993 0.183433
v 0.015442 0.913977 0.232549
v 0.016284 0.840364 0.063770
v 0.015442 0.913977 0.232549
v 0.016284 0.840364 0.063770
v 0.016284 0.840364 0.063770
v 0.015442 0.913977 0.232549
v -0.106704 0.913284 0.183396
v 0.016284 0.840364 0.063770
v -0.106704 0.913284 0.183396
v 0.016284 0.840364 0.063770
v 0.016284 0.840364 0.063770
v -0.106704 0.913284 0.183396
v -0.157299 0.914322 0.064766
v 0.016284 0.840364 0.063770
v -0.157299 0.914322 0.064766
v 0.016284 0.840364 0.063770
v 0.016284 0.840364 0.063770
v -0.157299 0.914322 0.064766
v -0.106704 0.916481 -0.053848
v 0.016284 0.840364 0.063770
v -0.106704 0.916481 -0.053848
v 0.016284 0.840364 0.063770
v 0.016284 0.840364 0.063770
v -0.106704 0.916481 -0.053848
v 0.015442 0.918497 -0.102965
v 0.016284 0.840364 0.063770
v 0.015442 0.918497 -0.102965
v 0.016284 0.840364 0.063770
v 0.016284 0.840364 0.063770
v 0.015442 0.918497 -0.102965
v 0.137589 0.919190 -0.053812
v 0.016284 0.840364 0.063770
v 0.137589 0.919190 -0.053812
v 0.016284 0.840364 0.063770
v 0.016284 0.840364 0.063770
v 0.137589 0.919190 -0.053812
v 0.188184 0.918152 0.064818
v 0.016284 0.840364 0.063770
v 0.188184 0.918152 0.064818
v 0.016284 0.840364 0.063770
v 0.188184 0.918152 0.064818
v 0.257704 1.102119 0.067297
v 0.186152 1.099065 0.235043
v 0.188184 0.918152 0.064818
v 0.186152 1.099065 0.235043
v 0.137589 0.915993 0.183433
v 0.137589 0.915993 0.183433
v 0.186152 1.099065 0.235043
v 0.013411 1.096213 0.304505
v 0.137589 0.915993 0.183433
v 0.013411 1.096213 0.304505
v 0.015442 0.913977 0.232549
v 0.015442 0.913977 0.232549
v 0.013411 1.096213 0.304505
v -0.159330 1.095234 0.234991
v 0.015442 0.913977 0.232549
v -0.159330 1.095234 0.234991
v -0.106704 0.913284 0.183396
v -0.106704 0.913284 0.183396
v -0.159330 1.095234 0.234991
v -0.230882 1.096701 0.067224
v -0.106704 0.913284 0.183396
v -0.230882 1.096701 0.067224
v -0.157299 0.914322 0.064766
v -0.157299 0.914322 0.064766
v -0.230882 1.096701 0.067224
v -0.159330 1.099755 -0.100523
v -0.157299 0.914322 0.064766
v -0.159330 1.099755 -0.100523
v -0.106704 0.916481 -0.053848
v -0.106704 0.916481 -0.053848
v -0.159330 1.099755 -0.100523
v 0.013411 1.102607 -0.169984
v -0.106704 0.916481 -0.053848
v 0.013411 1.102607 -0.169984
v 0.015442 0.918497 -0.102965
v 0.015442 0.918497 -0.102965
v 0.013411 1.102607 -0.169984
v 0.186152 1.103586 -0.100471
v 0.015442 0.918497 -0.102965
v 0.186152 1.103586 -0.100471
v 0.137589 0.919190 -0.053812
v 0.137589 0.919190 -0.053812
v 0.186152 1.103586 -0.100471
v 0.257704 1.102119 0.067297
v 0.137589 0.919190 -0.053812
v 0.257704 1.102119 0.067297
v 0.188184 0.918152 0.064818
v 0.257704 1.102119 0.067297
v 0.184121 1.284498 0.069754
v 0.133526 1.282339 0.188369
v 0.257704 1.102119 0.067297
v 0.133526 1.282339 0.188369
v 0.186152 1.099065 0.235043
v 0.186152 1.099065 0.235043
v 0.133526 1.282339 0.188369
v 0.011379 1.280322 0.237485
v 0.186152 1.099065 0.235043
v 0.011379 1.280322 0.237485
v 0.013411 1.096213 0.304505
v 0.013411 1.096213 0.304505
v 0.011379 1.280322 0.237485
v -0.110767 1.279630 0.188332
v 0.013411 1.096213 0.304505
v -0.110767 1.279630 0.188332
v -0.159330 1.095234 0.234991
v -0.159330 1.095234 0.234991
v -0.110767 1.279630 0.188332
v -0.161362 1.280667 0.069702
v -0.159330 1.095234 0.234991
v -0.161362 1.280667 0.069702
v -0.230882 1.096701 0.067224
v -0.230882 1.096701 0.067224
v -0.161362 1.280667 0.069702
v -0.110767 1.282827 -0.048912
v -0.230882 1.096701 0.067224
v -0.110767 1.282827 -0.048912
v -0.159330 1.099755 -0.100523
v -0.159330 1.099755 -0.100523
v -0.110767 1.282827 -0.048912
v 0.011379 1.284843 -0.098029
v -0.159330 1.099755 -0.100523
v 0.011379 1.284843 -0.098029
v 0.013411 1.102607 -0.169984
v 0.013411 1.102607 -0.169984
v 0.011379 1.284843 -0.098029
v 0.133526 1.285536 -0.048876
v 0.013411 1.102607 -0.169984
v 0.133526 1.285536 -0.048876
v 0.186152 1.103586 -0.100471
v 0.186152 1.103586 -0.100471
v 0.133526 1.285536 -0.048876
v 0.184121 1.284498 0.069754
v 0.186152 1.103586 -0.100471
v 0.184121 1.284498 0.069754
v 0.257704 1.102119 0.067297
v 0.184121 1.284498 0.069754
v 0.010538 1.358456 0.070750
v 0.010538 1.358456 0.070750
v 0.184121 1.284498 0.069754
v 0.010538 1.358456 0.070750
v 0.133526 1.282339 0.188369
v 0.133526 1.282339 0.188369
v 0.010538 1.358456 0.070750
v 0.010538 1.358456 0.070750
v 0.133526 1.282339 0.188369
v 0.010538 1.358456 0.070750
v 0.011379 1.280322 0.237485
v 0.011379 1.280322 0.237485
v 0.010538 1.358456 0.070750
v 0.010538 1.358456 0.070750
v 0.011379 1.280322 0.237485
v 0.010538 1.358456 0.070750
v -0.110767 1.279630 0.188332
v -0.110767 1.279630 0.188332
v 0.010538 1.358456 0.070750
v 0.010538 1.358456 0.070750
v -0.110767 1.279630 0.188332
v 0.010538 1.358456 0.070750
v -0.161362 1.280667 0.069702
v -0.161362 1.280667 0.069702
v 0.010538 1.358456 0.070750
v 0.010538 1.358456 0.070750
v -0.161362 1.280667 0.069702
v 0.010538 1.358456 0.070750
v -0.110767 1.282827 -0.048912
v -0.110767 1.282827 -0.048912
v 0.010538 1.358456 0.070750
v 0.010538 1.358456 0.070750
v -0.110767 1.282827 -0.048912
v 0.010538 1.358456 0.070750
v 0.011379 1.284843 -0.098029
v 0.011379 1.284843 -0.098029
v 0.010538 1.358456 0.070750
v 0.010538 1.358456 0.070750
v 0.011379 1.284843 -0.098029
v 0.010538 1.358456 0.070750
v 0.133526 1.285536 -0.048876
v 0.133526 1.285536 -0.048876
v 0.010538 1.358456 0.070750
v 0.010538 1.358456 0.070750
v 0.133526 1.285536 -0.048876
v 0.010538 1.358456 0.070750
v 0.184121 1.284498 0.069754
v 0.243497 0.610049 -0.219349
v 0.435201 0.695608 -0.218196
v 0.378781 0.693097 -0.078262
v 0.243497 0.610049 -0.219349
v 0.378781 0.693097 -0.078262
v 0.243497 0.610049 -0.219349
v 0.243497 0.610049 -0.219349
v 0.378781 0.693097 -0.078262
v 0.242572 0.690806 -0.020317
v 0.243497 0.610049 -0.219349
v 0.242572 0.690806 -0.020317
v 0.243497 0.610049 -0.219349
v 0.243497 0.610049 -0.219349
v 0.242572 0.690806 -0.020317
v 0.106362 0.690077 -0.078303
v 0.243497 0.610049 -0.219349
v 0.106362 0.690077 -0.078303
v 0.243497 0.610049 -0.219349
v 0.243497 0.610049 -0.219349
v 0.106362 0.690077 -0.078303
v 0.049942 0.691337 -0.218253
v 0.243497 0.610049 -0.219349
v 0.049942 0.691337 -0.218253
v 0.243497 0.610049 -0.219349
v 0.243497 0.610049 -0.219349
v 0.049942 0.691337 -0.218253
v 0.106362 0.693848 -0.358187
v 0.243497 0.610049 -0.219349
v 0.106362 0.693848 -0.358187
v 0.243497 0.610049 -0.219349
v 0.243497 0.610049 -0.219349
v 0.106362 0.693848 -0.358187
v 0.242572 0.696139 -0.416133
v 0.243497 0.610049 -0.219349
v 0.242572 0.696139 -0.416133
v 0.243497 0.610049 -0.219349
v 0.243497 0.610049 -0.219349
v 0.242572 0.696139 -0.416133
v 0.378781 0.696868 -0.358146
v 0.243497 0.610049 -0.219349
v 0.378781 0.696868 -0.358146
v 0.243497 0.610049 -0.219349
v 0.243497 0.610049 -0.219349
v 0.378781 0.696868 -0.358146
v 0.435201 0.695608 -0.218196
v 0.243497 0.610049 -0.219349
v 0.435201 0.695608 -0.218196
v 0.243497 0.610049 -0.219349
v 0.435201 0.695608 -0.218196
v 0.512757 0.897895 -0.215470
v 0.432967 0.894344 -0.017574
v 0.435201 0.695608 -0.218196
v 0.432967 0.894344 -0.017574
v 0.378781 0.693097 -0.078262
v 0.378781 0.693097 -0.078262
v 0.432967 0.894344 -0.017574
v 0.240338 0.891103 0.064373
v 0.378781 0.693097 -0.078262
v 0.240338 0.891103 0.064373
v 0.242572 0.690806 -0.020317
v 0.242572 0.690806 -0.020317
v 0.240338 0.891103 0.064373
v 0.047708 0.890072 -0.017632
v 0.242572 0.690806 -0.020317
v 0.047708 0.890072 -0.017632
v 0.106362 0.690077 -0.078303
v 0.106362 0.690077 -0.078303
v 0.047708 0.890072 -0.017632
v -0.032081 0.891854 -0.215552
v 0.106362 0.690077 -0.078303
v -0.032081 0.891854 -0.215552
v 0.049942 0.691337 -0.218253
v 0.049942 0.691337 -0.218253
v -0.032081 0.891854 -0.215552
v 0.047708 0.895405 -0.413448
v 0.049942 0.691337 -0.218253
v 0.047708 0.895405 -0.413448
v 0.106362 0.693848 -0.358187
v 0.106362 0.693848 -0.358187
v 0.047708 0.895405 -0.413448
v 0.240338 0.898646 -0.495395
v 0.106362 0.693848 -0.358187
v 0.240338 0.898646 -0.495395
v 0.242572 0.696139 -0.416133
v 0.242572 0.696139 -0.416133
v 0.240338 0.898646 -0.495395
v 0.432967 0.899677 -0.413390
v 0.242572 0.696139 -0.416133
v 0.432967 0.899677 -0.413390
v 0.378781 0.696868 -0.358146
v 0.378781 0.696868 -0.358146
v 0.432967 0.899677 -0.413390
v 0.512757 0.897895 -0.215470
v 0.378781 0.696868 -0.358146
v 0.512757 0.897895 -0.215470
v 0.435201 0.695608 -0.218196
v 0.512757 0.897895 -0.215470
v 0.430734 1.098413 -0.212769
v 0.374314 1.095901 -0.072835
v 0.512757 0.897895 -0.215470
v 0.374314 1.095901 -0.072835
v 0.432967 0.894344 -0.017574
v 0.432967 0.894344 -0.017574
v 0.374314 1.095901 -0.072835
v 0.238104 1.093610 -0.014889
v 0.432967 0.894344 -0.017574
v 0.238104 1.093610 -0.014889
v 0.240338 0.891103 0.064373
v 0.240338 0.891103 0.064373
v 0.238104 1.093610 -0.014889
v 0.101895 1.092881 -0.072876
v 0.240338 0.891103 0.064373
v 0.101895 1.092881 -0.072876
v 0.047708 0.890072 -0.017632
v 0.047708 0.890072 -0.017632
v 0.101895 1.092881 -0.072876
v 0.045475 1.094141 -0.212826
v 0.047708 0.890072 -0.017632
v 0.045475 1.094141 -0.212826
v -0.032081 0.891854 -0.215552
v -0.032081 0.891854 -0.215552
v 0.045475 1.094141 -0.212826
v 0.101895 1.096652 -0.352760
v -0.032081 0.891854 -0.215552
v 0.101895 1.096652 -0.352760
v 0.047708 0.895405 -0.413448
v 0.047708 0.895405 -0.413448
v 0.101895 1.096652 -0.352760
v 0.238104 1.098943 -0.410705
v 0.047708 0.895405 -0.413448
v 0.238104 1.098943 -0.410705
v 0.240338 0.898646 -0.495395
v 0.240338 0.898646 -0.495395
v 0.238104 1.098943 -0.410705
v 0.374314 1.099673 -0.352719
v 0.240338 0.898646 -0.495395
v 0.374314 1.099673 -0.352719
v 0.432967 0.899677 -0.413390
v 0.432967 0.899677 -0.413390
v 0.374314 1.099673 -0.352719
v 0.430734 1.098413 -0.212769
v 0.432967 0.899677 -0.413390
v 0.430734 1.098413 -0.212769
v 0.512757 0.897895 -0.215470
v 0.430734 1.098413 -0.212769
v 0.237179 1.179700 -0.211673
v 0.237179 1.179700 -0.211673
v 0.430734 1.098413 -0.212769
v 0.237179 1.179700 -0.211673
v 0.374314 1.095901 -0.072835
v 0.374314 1.095901 -0.072835
v 0.237179 1.179700 -0.211673
v 0.237179 1.179700 -0.211673
v 0.374314 1.095901 -0.072835
v 0.237179 1.179700 -0.211673
v 0.238104 1.093610 -0.014889
v 0.238104 1.093610 -0.014889
v 0.237179 1.179700 -0.211673
v 0.237179 1.179700 -0.211673
v 0.238104 1.093610 -0.014889
v 0.237179 1.179700 -0.211673
v 0.101895 1.092881 -0.072876
v 0.101895 1.092881 -0.072876
v 0.237179 1.179700 -0.211673
v 0.237179 1.179700 -0.211673
v 0.101895 1.092881 -0.072876
v 0.237179 1.179700 -0.211673
v 0.045475 1.094141 -0.212826
v 0.045475 1.094141 -0.212826
v 0.237179 1.179700 -0.211673
v 0.237179 1.179700 -0.211673
v 0.045475 1.094141 -0.212826
v 0.237179 1.179700 -0.211673
v 0.101895 1.096652 -0.352760
v 0.101895 1.096652 -0.352760
v 0.237179 1.179700 -0.211673
v 0.237179 1.179700 -0.211673
v 0.101895 1.096652 -0.352760
v 0.237179 1.179700 -0.211673
v 0.238104 1.098943 -0.410705
v 0.238104 1.098943 -0.410705
v 0.237179 1.179700 -0.211673
v 0.237179 1.179700 -0.211673
v 0.238104 1.098943 -0.410705
v 0.237179 1.179700 -0.211673
v 0.374314 1.099673 -0.352719
v 0.374314 1.099673 -0.352719
v 0.237179 1.179700 -0.211673
v 0.237179 1.179700 -0.211673
v 0.374314 1.099673 -0.352719
v 0.237179 1.179700 -0.211673
v 0.430734 1.098413 -0.212769
v 0.178010 0.648684 0.165179
v 0.389519 0.742015 0.166436
v 0.327274 0.739131 0.329271
v 0.178010 0.648684 0.165179
v 0.327274 0.739131 0.329271
v 0.178010 0.648684 0.165179
v 0.178010 0.648684 0.165179
v 0.327274 0.739131 0.329271
v 0.177001 0.736556 0.396701
v 0.178010 0.648684 0.165179
v 0.177001 0.736556 0.396701
v 0.178010 0.648684 0.165179
v 0.178010 0.648684 0.165179
v 0.177001 0.736556 0.396701
v 0.026728 0.735798 0.329226
v 0.178010 0.648684 0.165179
v 0.026728 0.735798 0.329226
v 0.178010 0.648684 0.165179
v 0.178010 0.648684 0.165179
v 0.026728 0.735798 0.329226
v -0.035517 0.737302 0.166373
v 0.178010 0.648684 0.165179
v -0.035517 0.737302 0.166373
v 0.178010 0.648684 0.165179
v 0.178010 0.648684 0.165179
v -0.035517 0.737302 0.166373
v 0.026728 0.740186 0.003538
v 0.178010 0.648684 0.165179
v 0.026728 0.740186 0.003538
v 0.178010 0.648684 0.165179
v 0.178010 0.648684 0.165179
v 0.026728 0.740186 0.003538
v 0.177001 0.742762 -0.063892
v 0.178010 0.648684 0.165179
v 0.177001 0.742762 -0.063892
v 0.178010 0.648684 0.165179
v 0.178010 0.648684 0.165179
v 0.177001 0.742762 -0.063892
v 0.327274 0.743519 0.003583
v 0.178010 0.648684 0.165179
v 0.327274 0.743519 0.003583
v 0.178010 0.648684 0.165179
v 0.178010 0.648684 0.165179
v 0.327274 0.743519 0.003583
v 0.389519 0.742015 0.166436
v 0.178010 0.648684 0.165179
v 0.389519 0.742015 0.166436
v 0.178010 0.648684 0.165179
v 0.389519 0.742015 0.166436
v 0.475111 0.962623 0.169409
v 0.387083 0.958544 0.399692
v 0.389519 0.742015 0.166436
v 0.387083 0.958544 0.399692
v 0.327274 0.739131 0.329271
v 0.327274 0.739131 0.329271
v 0.387083 0.958544 0.399692
v 0.174565 0.954902 0.495052
v 0.327274 0.739131 0.329271
v 0.174565 0.954902 0.495052
v 0.177001 0.736556 0.396701
v 0.177001 0.736556 0.396701
v 0.174565 0.954902 0.495052
v -0.037953 0.953831 0.399628
v 0.177001 0.736556 0.396701
v -0.037953 0.953831 0.399628
v 0.026728 0.735798 0.329226
v 0.026728 0.735798 0.329226
v -0.037953 0.953831 0.399628
v -0.125980 0.955958 0.169319
v 0.026728 0.735798 0.329226
v -0.125980 0.955958 0.169319
v -0.035517 0.737302 0.166373
v -0.035517 0.737302 0.166373
v -0.125980 0.955958 0.169319
v -0.037953 0.960037 -0.060964
v -0.035517 0.737302 0.166373
v -0.037953 0.960037 -0.060964
v 0.026728 0.740186 0.003538
v 0.026728 0.740186 0.003538
v -0.037953 0.960037 -0.060964
v 0.174565 0.963678 -0.156324
v 0.026728 0.740186 0.003538
v 0.174565 0.963678 -0.156324
v 0.177001 0.742762 -0.063892
v 0.177001 0.742762 -0.063892
v 0.174565 0.963678 -0.156324
v 0.387083 0.964750 -0.060900
v 0.177001 0.742762 -0.063892
v 0.387083 0.964750 -0.060900
v 0.327274 0.743519 0.003583
v 0.327274 0.743519 0.003583
v 0.387083 0.964750 -0.060900
v 0.475111 0.962623 0.169409
v 0.327274 0.743519 0.003583
v 0.475111 0.962623 0.169409
v 0.389519 0.742015 0.166436
v 0.475111 0.962623 0.169409
v 0.384647 1.181278 0.172355
v 0.322402 1.178394 0.335190
v 0.475111 0.962623 0.169409
v 0.322402 1.178394 0.335190
v 0.387083 0.958544 0.399692
v 0.387083 0.958544 0.399692
v 0.322402 1.178394 0.335190
v 0.172129 1.175819 0.402619
v 0.387083 0.958544 0.399692
v 0.172129 1.175819 0.402619
v 0.174565 0.954902 0.495052
v 0.174565 0.954902 0.495052
v 0.172129 1.175819 0.402619
v 0.021857 1.175061 0.335145
v 0.174565 0.954902 0.495052
v 0.021857 1.175061 0.335145
v -0.037953 0.953831 0.399628
v -0.037953 0.953831 0.399628
v 0.021857 1.175061 0.335145
v -0.040388 1.176565 0.172292
v -0.037953 0.953831 0.399628
v -0.040388 1.176565 0.172292
v -0.125980 0.955958 0.169319
v -0.125980 0.955958 0.169319
v -0.040388 1.176565 0.172292
v 0.021857 1.179449 0.009457
v -0.125980 0.955958 0.169319
v 0.021857 1.179449 0.009457
v -0.037953 0.960037 -0.060964
v -0.037953 0.960037 -0.060964
v 0.021857 1.179449 0.009457
v 0.172129 1.182024 -0.057973
v -0.037953 0.960037 -0.060964
v 0.172129 1.182024 -0.057973
v 0.174565 0.963678 -0.156324
v 0.174565 0.963678 -0.156324
v 0.172129 1.182024 -0.057973
v 0.322402 1.182782 0.009502
v 0.174565 0.963678 -0.156324
v 0.322402 1.182782 0.009502
v 0.387083 0.964750 -0.060900
v 0.387083 0.964750 -0.060900
v 0.322402 1.182782 0.009502
v 0.384647 1.181278 0.172355
v 0.387083 0.964750 -0.060900
v 0.384647 1.181278 0.172355
v 0.475111 0.962623 0.169409
v 0.384647 1.181278 0.172355
v 0.171120 1.269896 0.173549
v 0.171120 1.269896 0.173549
v 0.384647 1.181278 0.172355
v 0.171120 1.269896 0.173549
v 0.322402 1.178394 0.335190
v 0.322402 1.178394 0.335190
v 0.171120 1.269896 0.173549
v 0.171120 1.269896 0.173549
v 0.322402 1.178394 0.335190
v 0.171120 1.269896 0.173549
v 0.172129 1.175819 0.402619
v 0.172129 1.175819 0.402619
v 0.171120 1.269896 0.173549
v 0.171120 1.269896 0.173549
v 0.172129 1.175819 0.402619
v 0.171120 1.269896 0.173549
v 0.021857 1.175061 0.335145
v 0.021857 1.175061 0.335145
v 0.171120 1.269896 0.173549
v 0.171120 1.269896 0.173549
v 0.021857 1.175061 0.335145
v 0.171120 1.269896 0.173549
v -0.040388 1.176565 0.172292
v -0.040388 1.176565 0.172292
v 0.171120 1.269896 0.173549
v 0.171120 1.269896 0.173549
v -0.040388 1.176565 0.172292
v 0.171120 1.269896 0.173549
v 0.021857 1.179449 0.009457
v 0.021857 1.179449 0.009457
v 0.171120 1.269896 0.173549
v 0.171120 1.269896 0.173549
v 0.021857 1.179449 0.009457
v 0.171120 1.269896 0.173549
v 0.172129 1.182024 -0.057973
v 0.172129 1.182024 -0.057973
v 0.171120 1.269896 0.173549
v 0.171120 1.269896 0.173549
v 0.172129 1.182024 -0.057973
v 0.171120 1.269896 0.173549
v 0.322402 1.182782 0.009502
v 0.322402 1.182782 0.009502
v 0.171120 1.269896 0.173549
v 0.171120 1.269896 0.173549
v 0.322402 1.182782 0.009502
v 0.171120 1.269896 0.173549
v 0.384647 1.181278 0.172355
v -0.093723 0.688713 0.276516
v 0.137590 0.789815 0.277879
v 0.069520 0.787068 0.425753
v -0.093723 0.688713 0.276516
v 0.069520 0.787068 0.425753
v -0.093723 0.688713 0.276516
v -0.093723 0.688713 0.276516
v 0.069520 0.787068 0.425753
v -0.094816 0.784421 0.486985
v -0.093723 0.688713 0.276516
v -0.094816 0.784421 0.486985
v -0.093723 0.688713 0.276516
v -0.093723 0.688713 0.276516
v -0.094816 0.784421 0.486985
v -0.259152 0.783424 0.425704
v -0.093723 0.688713 0.276516
v -0.259152 0.783424 0.425704
v -0.093723 0.688713 0.276516
v -0.093723 0.688713 0.276516
v -0.259152 0.783424 0.425704
v -0.327222 0.784661 0.277809
v -0.093723 0.688713 0.276516
v -0.327222 0.784661 0.277809
v -0.093723 0.688713 0.276516
v -0.093723 0.688713 0.276516
v -0.327222 0.784661 0.277809
v -0.259152 0.787409 0.129934
v -0.093723 0.688713 0.276516
v -0.259152 0.787409 0.129934
v -0.093723 0.688713 0.276516
v -0.093723 0.688713 0.276516
v -0.259152 0.787409 0.129934
v -0.094816 0.790056 0.068703
v -0.093723 0.688713 0.276516
v -0.094816 0.790056 0.068703
v -0.093723 0.688713 0.276516
v -0.093723 0.688713 0.276516
v -0.094816 0.790056 0.068703
v 0.069520 0.791053 0.129984
v -0.093723 0.688713 0.276516
v 0.069520 0.791053 0.129984
v -0.093723 0.688713 0.276516
v -0.093723 0.688713 0.276516
v 0.069520 0.791053 0.129984
v 0.137590 0.789815 0.277879
v -0.093723 0.688713 0.276516
v 0.137590 0.789815 0.277879
v -0.093723 0.688713 0.276516
v 0.137590 0.789815 0.277879
v 0.231218 1.028744 0.281098
v 0.134952 1.024858 0.490224
v 0.137590 0.789815 0.277879
v 0.134952 1.024858 0.490224
v 0.069520 0.787068 0.425753
v 0.069520 0.787068 0.425753
v 0.134952 1.024858 0.490224
v -0.097454 1.021114 0.576818
v 0.069520 0.787068 0.425753
v -0.097454 1.021114 0.576818
v -0.094816 0.784421 0.486985
v -0.094816 0.784421 0.486985
v -0.097454 1.021114 0.576818
v -0.329860 1.019704 0.490155
v -0.094816 0.784421 0.486985
v -0.329860 1.019704 0.490155
v -0.259152 0.783424 0.425704
v -0.259152 0.783424 0.425704
v -0.329860 1.019704 0.490155
v -0.426126 1.021455 0.281000
v -0.259152 0.783424 0.425704
v -0.426126 1.021455 0.281000
v -0.327222 0.784661 0.277809
v -0.327222 0.784661 0.277809
v -0.426126 1.021455 0.281000
v -0.329860 1.025340 0.071873
v -0.327222 0.784661 0.277809
v -0.329860 1.025340 0.071873
v -0.259152 0.787409 0.129934
v -0.259152 0.787409 0.129934
v -0.329860 1.025340 0.071873
v -0.097454 1.029084 -0.014721
v -0.259152 0.787409 0.129934
v -0.097454 1.029084 -0.014721
v -0.094816 0.790056 0.068703
v -0.094816 0.790056 0.068703
v -0.097454 1.029084 -0.014721
v 0.134952 1.030494 0.071943
v -0.094816 0.790056 0.068703
v 0.134952 1.030494 0.071943
v 0.069520 0.791053 0.129984
v 0.069520 0.791053 0.129984
v 0.134952 1.030494 0.071943
v 0.231218 1.028744 0.281098
v 0.069520 0.791053 0.129984
v 0.231218 1.028744 0.281098
v 0.137590 0.789815 0.277879
v 0.231218 1.028744 0.281098
v 0.132314 1.265537 0.284288
v 0.064244 1.262789 0.432163
v 0.231218 1.028744 0.281098
v 0.064244 1.262789 0.432163
v 0.134952 1.024858 0.490224
v 0.134952 1.024858 0.490224
v 0.064244 1.262789 0.432163
v -0.100092 1.260142 0.493394
v 0.134952 1.024858 0.490224
v -0.100092 1.260142 0.493394
v -0.097454 1.021114 0.576818
v -0.097454 1.021114 0.576818
v -0.100092 1.260142 0.493394
v -0.264428 1.259145 0.432114
v -0.097454 1.021114 0.576818
v -0.264428 1.259145 0.432114
v -0.329860 1.019704 0.490155
v -0.329860 1.019704 0.490155
v -0.264428 1.259145 0.432114
v -0.332498 1.260383 0.284219
v -0.329860 1.019704 0.490155
v -0.332498 1.260383 0.284219
v -0.426126 1.021455 0.281000
v -0.426126 1.021455 0.281000
v -0.332498 1.260383 0.284219
v -0.264428 1.263130 0.136344
v -0.426126 1.021455 0.281000
v -0.264428 1.263130 0.136344
v -0.329860 1.025340 0.071873
v -0.329860 1.025340 0.071873
v -0.264428 1.263130 0.136344
v -0.100092 1.265778 0.075113
v -0.329860 1.025340 0.071873
v -0.100092 1.265778 0.075113
v -0.097454 1.029084 -0.014721
v -0.097454 1.029084 -0.014721
v -0.100092 1.265778 0.075113
v 0.064244 1.266775 0.136393
v -0.097454 1.029084 -0.014721
v 0.064244 1.266775 0.136393
v 0.134952 1.030494 0.071943
v 0.134952 1.030494 0.071943
v 0.064244 1.266775 0.136393
v 0.132314 1.265537 0.284288
v 0.134952 1.030494 0.071943
v 0.132314 1.265537 0.284288
v 0.231218 1.028744 0.281098
v 0.132314 1.265537 0.284288
v -0.101185 1.361485 0.285581
v -0.101185 1.361485 0.285581
v 0.132314 1.265537 0.284288
v -0.101185 1.361485 0.285581
v 0.064244 1.262789 0.432163
v 0.064244 1.262789 0.432163
v -0.101185 1.361485 0.285581
v -0.101185 1.361485 0.285581
v 0.064244 1.262789 0.432163
v -0.101185 1.361485 0.285581
v -0.100092 1.260142 0.493394
v -0.100092 1.260142 0.493394
v -0.101185 1.361485 0.285581
v -0.101185 1.361485 0.285581
v -0.100092 1.260142 0.493394
v -0.101185 1.361485 0.285581
v -0.264428 1.259145 0.432114
v -0.264428 1.259145 0.432114
v -0.101185 1.361485 0.285581
v -0.101185 1.361485 0.285581
v -0.264428 1.259145 0.432114
v -0.101185 1.361485 0.285581
v -0.332498 1.260383 0.284219
v -0.332498 1.260383 0.284219
v -0.101185 1.361485 0.285581
v -0.101185 1.361485 0.285581
v -0.332498 1.260383 0.284219
v -0.101185 1.361485 0.285581
v -0.264428 1.263130 0.136344
v -0.264428 1.263130 0.136344
v -0.101185 1.361485 0.285581
v -0.101185 1.361485 0.285581
v -0.264428 1.263130 0.136344
v -0.101185 1.361485 0.285581
v -0.100092 1.265778 0.075113
v -0.100092 1.265778 0.075113
v -0.101185 1.361485 0.285581
v -0.101185 1.361485 0.285581
v -0.100092 1.265778 0.075113
v -0.101185 1.361485 0.285581
v 0.064244 1.266775 0.136393
v 0.064244 1.266775 0.136393
v -0.101185 1.361485 0.285581
v -0.101185 1.361485 0.285581
v 0.064244 1.266775 0.136393
v -0.101185 1.361485 0.285581
v 0.132314 1.265537 0.284288
v -0.256306 0.845819 -0.045457
v -0.004830 0.922476 -0.044424
v -0.078726 0.919358 0.126140
v -0.256306 0.845819 -0.045457
v -0.078726 0.919358 0.126140
v -0.256306 0.845819 -0.045457
v -0.256306 0.845819 -0.045457
v -0.078726 0.919358 0.126140
v -0.257125 0.916428 0.196769
v -0.256306 0.845819 -0.045457
v -0.257125 0.916428 0.196769
v -0.256306 0.845819 -0.045457
v -0.256306 0.845819 -0.045457
v -0.257125 0.916428 0.196769
v -0.435524 0.915402 0.126087
v -0.256306 0.845819 -0.045457
v -0.435524 0.915402 0.126087
v -0.256306 0.845819 -0.045457
v -0.256306 0.845819 -0.045457
v -0.435524 0.915402 0.126087
v -0.509419 0.916881 -0.044500
v -0.256306 0.845819 -0.045457
v -0.509419 0.916881 -0.044500
v -0.256306 0.845819 -0.045457
v -0.256306 0.845819 -0.045457
v -0.509419 0.916881 -0.044500
v -0.435524 0.919999 -0.215065
v -0.256306 0.845819 -0.045457
v -0.435524 0.919999 -0.215065
v -0.256306 0.845819 -0.045457
v -0.256306 0.845819 -0.045457
v -0.435524 0.919999 -0.215065
v -0.257125 0.922929 -0.285693
v -0.256306 0.845819 -0.045457
v -0.257125 0.922929 -0.285693
v -0.256306 0.845819 -0.045457
v -0.256306 0.845819 -0.045457
v -0.257125 0.922929 -0.285693
v -0.078726 0.923955 -0.215011
v -0.256306 0.845819 -0.045457
v -0.078726 0.923955 -0.215011
v -0.256306 0.845819 -0.045457
v -0.256306 0.845819 -0.045457
v -0.078726 0.923955 -0.215011
v -0.004830 0.922476 -0.044424
v -0.256306 0.845819 -0.045457
v -0.004830 0.922476 -0.044424
v -0.256306 0.845819 -0.045457
v -0.004830 0.922476 -0.044424
v 0.097696 1.101947 -0.042006
v -0.006808 1.097538 0.199209
v -0.004830 0.922476 -0.044424
v -0.006808 1.097538 0.199209
v -0.078726 0.919358 0.126140
v -0.078726 0.919358 0.126140
v -0.006808 1.097538 0.199209
v -0.259102 1.093394 0.299092
v -0.078726 0.919358 0.126140
v -0.259102 1.093394 0.299092
v -0.257125 0.916428 0.196769
v -0.257125 0.916428 0.196769
v -0.259102 1.093394 0.299092
v -0.511397 1.091943 0.199133
v -0.257125 0.916428 0.196769
v -0.511397 1.091943 0.199133
v -0.435524 0.915402 0.126087
v -0.435524 0.915402 0.126087
v -0.511397 1.091943 0.199133
v -0.615900 1.094034 -0.042113
v -0.435524 0.915402 0.126087
v -0.615900 1.094034 -0.042113
v -0.509419 0.916881 -0.044500
v -0.509419 0.916881 -0.044500
v -0.615900 1.094034 -0.042113
v -0.511397 1.098443 -0.283328
v -0.509419 0.916881 -0.044500
v -0.511397 1.098443 -0.283328
v -0.435524 0.919999 -0.215065
v -0.435524 0.919999 -0.215065
v -0.511397 1.098443 -0.283328
v -0.259102 1.102587 -0.383211
v -0.435524 0.919999 -0.215065
v -0.259102 1.102587 -0.383211
v -0.257125 0.922929 -0.285693
v -0.257125 0.922929 -0.285693
v -0.259102 1.102587 -0.383211
v -0.006808 1.104038 -0.283253
v -0.257125 0.922929 -0.285693
v -0.006808 1.104038 -0.283253
v -0.078726 0.923955 -0.215011
v -0.078726 0.923955 -0.215011
v -0.006808 1.104038 -0.283253
v 0.097696 1.101947 -0.042006
v -0.078726 0.923955 -0.215011
v 0.097696 1.101947 -0.042006
v -0.004830 0.922476 -0.044424
v 0.097696 1.101947 -0.042006
v -0.008786 1.279100 -0.039619
v -0.082681 1.275983 0.130945
v 0.097696 1.101947 -0.042006
v -0.082681 1.275983 0.130945
v -0.006808 1.097538 0.199209
v -0.006808 1.097538 0.199209
v -0.082681 1.275983 0.130945
v -0.261080 1.273052 0.201574
v -0.006808 1.097538 0.199209
v -0.261080 1.273052 0.201574
v -0.259102 1.093394 0.299092
v -0.259102 1.093394 0.299092
v -0.261080 1.273052 0.201574
v -0.439479 1.272026 0.130892
v -0.259102 1.093394 0.299092
v -0.439479 1.272026 0.130892
v -0.511397 1.091943 0.199133
v -0.511397 1.091943 0.199133
v -0.439479 1.272026 0.130892
v -0.513374 1.273505 -0.039695
v -0.511397 1.091943 0.199133
v -0.513374 1.273505 -0.039695
v -0.615900 1.094034 -0.042113
v -0.615900 1.094034 -0.042113
v -0.513374 1.273505 -0.039695
v -0.439479 1.276623 -0.210260
v -0.615900 1.094034 -0.042113
v -0.439479 1.276623 -0.210260
v -0.511397 1.098443 -0.283328
v -0.511397 1.098443 -0.283328
v -0.439479 1.276623 -0.210260
v -0.261080 1.279553 -0.280888
v -0.511397 1.098443 -0.283328
v -0.261080 1.279553 -0.280888
v -0.259102 1.102587 -0.383211
v -0.259102 1.102587 -0.383211
v -0.261080 1.279553 -0.280888
v -0.082681 1.280579 -0.210206
v -0.259102 1.102587 -0.383211
v -0.082681 1.280579 -0.210206
v -0.006808 1.104038 -0.283253
v -0.006808 1.104038 -0.283253
v -0.082681 1.280579 -0.210206
v -0.008786 1.279100 -0.039619
v -0.006808 1.104038 -0.283253
v -0.008786 1.279100 -0.039619
v 0.097696 1.101947 -0.042006
v -0.008786 1.279100 -0.039619
v -0.261899 1.350162 -0.038662
v -0.261899 1.350162 -0.038662
v -0.008786 1.279100 -0.039619
v -0.261899 1.350162 -0.038662
v -0.082681 1.275983 0.130945
v -0.082681 1.275983 0.130945
v -0.261899 1.350162 -0.038662
v -0.261899 1.350162 -0.038662
v -0.082681 1.275983 0.130945
v -0.261899 1.350162 -0.038662
v -0.261080 1.273052 0.201574
v -0.261080 1.273052 0.201574
v -0.261899 1.350162 -0.038662
v -0.261899 1.350162 -0.038662
v -0.261080 1.273052 0.201574
v -0.261899 1.350162 -0.038662
v -0.439479 1.272026 0.130892
v -0.439479 1.272026 0.130892
v -0.261899 1.350162 -0.038662
v -0.261899 1.350162 -0.038662
v -0.439479 1.272026 0.130892
v -0.261899 1.350162 -0.038662
v -0.513374 1.273505 -0.039695
v -0.513374 1.273505 -0.039695
v -0.261899 1.350162 -0.038662
v -0.261899 1.350162 -0.038662
v -0.513374 1.273505 -0.039695
v -0.261899 1.350162 -0.038662
v -0.439479 1.276623 -0.210260
v -0.439479 1.276623 -0.210260
v -0.261899 1.350162 -0.038662
v -0.261899 1.350162 -0.038662
v -0.439479 1.276623 -0.210260
v -0.261899 1.350162 -0.038662
v -0.261080 1.279553 -0.280888
v -0.261080 1.279553 -0.280888
v -0.261899 1.350162 -0.038662
v -0.261899 1.350162 -0.038662
v -0.261080 1.279553 -0.280888
v -0.261899 1.350162 -0.038662
v -0.082681 1.280579 -0.210206
v -0.082681 1.280579 -0.210206
v -0.261899 1.350162 -0.038662
v -0.261899 1.350162 -0.038662
v -0.082681 1.280579 -0.210206
v -0.261899 1.350162 -0.038662
v -0.008786 1.279100 -0.039619
f 697 698 699
f 700 701 702
f 703 704 705
f 706 707 708
f 709 710 711
f 712 713 714
f 715 716 717
f 718 719 720
f 721 722 723
f 724 725 726
f 727 728 729
f 730 731 732
f 733 734 735
f 736 737 738
f 739 740 741
f 742 743 744
f 745 746 747
f 748 749 750
f 751 752 753
f 754 755 756
f 757 758 759
f 760 761 762
f 763 764 765
f 766 767 768
f 769 770 771
f 772 773 774
f 775 776 777
f 778 779 780
f 781 782 783
f 784 785 786
f 787 788 789
f 790 791 792
f 793 794 795
f 796 797 798
f 799 800 801
f 802 803 804
f 805 806 807
f 808 809 810
f 811 812 813
f 814 815 816
f 817 818 819
f 820 821 822
f 823 824 825
f 826 827 828
f 829 830 831
f 832 833 834
f 835 836 837
f 838 839 840
f 841 842 843
f 844 845 846
f 847 848 849
f 850 851 852
f 853 854 855
f 856 857 858
f 859 860 861
f 862 863 864
f 865 866 867
f 868 869 870
f 871 872 873
f 874 875 876
f 877 878 879
f 880 881 882
f 883 884 885
f 886 887 888
f 889 890 891
f 892 893 894
f 895 896 897
f 898 899 900
f 901 902 903
f 904 905 906
f 907 908 909
f 910 911 912
f 913 914 915
f 916 917 918
f 919 920 921
f 922 923 924
f 925 926 927
f 928 929 930
f 931 932 933
f 934 935 936
f 937 938 939
f 940 941 942
f 943 944 945
f 946 947 948
f 949 950 951
f 952 953 954
f 955 956 957
f 958 959 960
f 961 962 963
f 964 965 966
f 967 968 969
f 970 971 972
f 973 974 975
f 976 977 978
f 979 980 981
f 982 983 984
f 985 986 987
f 988 989 990
f 991 992 993
f 994 995 996
f 997 998 999
f 1000 1001 1002
f 1003 1004 1005
f 1006 1007 1008
f 1009 1010 1011
f 1012 1013 1014
f 1015 1016 1017
f 1018 1019 1020
f 1021 1022 1023
f 1024 1025 1026
f 1027 1028 1029
f 1030 1031 1032
f 1033 1034 1035
f 1036 1037 1038
f 1039 1040 1041
f 1042 1043 1044
f 1045 1046 1047
f 1048 1049 1050
f 1051 1052 1053
f 1054 1055 1056
f 1057 1058 1059
f 1060 1061 1062
f 1063 1064 1065
f 1066 1067 1068
f 1069 1070 1071
f 1072 1073 1074
f 1075 1076 1077
f 1078 1079 1080
f 1081 1082 1083
f 1084 1085 1086
f 1087 1088 1089
f 1090 1091 1092
f 1093 1094 1095
f 1096 1097 1098
f 1099 1100 1101
f 1102 1103 1104
f 1105 1106 1107
f 1108 1109 1110
f 1111 1112 1113
f 1114 1115 1116
f 1117 1118 1119
f 1120 1121 1122
f 1123 1124 1125
f 1126 1127 1128
f 1129 1130 1131
f 1132 1133 1134
f 1135 1136 1137
f 1138 1139 1140
f 1141 1142 1143
f 1144 1145 1146
f 1147 1148 1149
f 1150 1151 1152
f 1153 1154 1155
f 1156 1157 1158
f 1159 1160 1161
f 1162 1163 1164
f 1165 1166 1167
f 1168 1169 1170
f 1171 1172 1173
f 1174 1175 1176
f 1177 1178 1179
f 1180 1181 1182
f 1183 1184 1185
f 1186 1187 1188
f 1189 1190 1191
f 1192 1193 1194
f 1195 1196 1197
f 1198 1199 1200
f 1201 1202 1203
f 1204 1205 1206
f 1207 1208 1209
f 1210 1211 1212
f 1213 1214 1215
f 1216 1217 1218
f 1219 1220 1221
f 1222 1223 1224
f 1225 1226 1227
f 1228 1229 1230
f 1231 1232 1233
f 1234 1235 1236
f 1237 1238 1239
f 1240 1241 1242
f 1243 1244 1245
f 1246 1247 1248
f 1249 1250 1251
f 1252 1253 1254
f 1255 1256 1257
f 1258 1259 1260
f 1261 1262 1263
f 1264 1265 1266
f 1267 1268 1269
f 1270 1271 1272
f 1273 1274 1275
f 1276 1277 1278
f 1279 1280 1281
f 1282 1283 1284
f 1285 1286 1287
f 1288 1289 1290
f 1291 1292 1293
f 1294 1295 1296
f 1297 1298 1299
f 1300 1301 1302
f 1303 1304 1305
f 1306 1307 1308
f 1309 1310 1311
f 1312 1313 1314
f 1315 1316 1317
f 1318 1319 1320
f 1321 1322 1323
f 1324 1325 1326
f 1327 1328 1329
f 1330 1331 1332
f 1333 1334 1335
f 1336 1337 1338
f 1339 1340 1341
f 1342 1343 1344
f 1345 1346 1347
f 1348 1349 1350
f 1351 1352 1353
f 1354 1355 1356
f 1357 1358 1359
f 1360 1361 1362
f 1363 1364 1365
f 1366 1367 1368
f 1369 1370 1371
f 1372 1373 1374
f 1375 1376 1377
f 1378 1379 1380
f 1381 1382 1383
f 1384 1385 1386
f 1387 1388 1389
f 1390 1391 1392
f 1393 1394 1395
f 1396 1397 1398
f 1399 1400 1401
f 1402 1403 1404
f 1405 1406 1407
f 1408 1409 1410
f 1411 1412 1413
f 1414 1415 1416
f 1417 1418 1419
f 1420 1421 1422
f 1423 1424 1425
f 1426 1427 1428
f 1429 1430 1431
f 1432 1433 1434
f 1435 1436 1437
f 1438 1439 1440
f 1441 1442 1443
f 1444 1445 1446
f 1447 1448 1449
f 1450 1451 1452
f 1453 1454 1455
f 1456 1457 1458
f 1459 1460 1461
f 1462 1463 1464
f 1465 1466 1467
f 1468 1469 1470
f 1471 1472 1473
f 1474 1475 1476
f 1477 1478 1479
f 1480 1481 1482
f 1483 1484 1485
f 1486 1487 1488
f 1489 1490 1491
f 1492 1493 1494
f 1495 1496 1497
f 1498 1499 1500
f 1501 1502 1503
f 1504 1505 1506
f 1507 1508 1509
f 1510 1511 1512
f 1513 1514 1515
f 1516 1517 1518
f 1519 1520 1521
f 1522 1523 1524
f 1525 1526 1527
f 1528 1529 1530
f 1531 1532 1533
f 1534 1535 1536
f 1537 1538 1539
f 1540 1541 1542
f 1543 1544 1545
f 1546 1547 1548
f 1549 1550 1551
f 1552 1553 1554
f 1555 1556 1557
f 1558 1559 1560
f 1561 1562 1563
f 1564 1565 1566
f 1567 1568 1569
f 1570 1571 1572
f 1573 1574 1575
f 1576 1577 1578
f 1579 1580 1581
f 1582 1583 1584
f 1585 1586 1587
f 1588 1589 1590
f 1591 1592 1593
f 1594 1595 1596
f 1597 1598 1599
f 1600 1601 1602
f 1603 1604 1605
f 1606 1607 1608
f 1609 1610 1611
f 1612 1613 1614
f 1615 1616 1617
f 1618 1619 1620
f 1621 1622 1623
f 1624 1625 1626
f 1627 1628 1629
f 1630 1631 1632
f 1633 1634 1635
f 1636 1637 1638
f 1639 1640 1641
f 1642 1643 1644
f 1645 1646 1647
f 1648 1649 1650
f 1651 1652 1653
f 1654 1655 1656
