# Pyramida editable prop source
# units: 1 OBJ unit = 1 Pyramida World Unit = 1 Blender metre

o TreeTrunk
v 0.060913 0.074270 0.097204
v 0.240726 0.020601 -0.015561
v 0.243185 0.044005 -0.040019
v 0.060913 0.074270 0.097204
v 0.243185 0.044005 -0.040019
v 0.071668 0.176663 -0.009801
v 0.043642 0.075531 -0.006359
v 0.060913 0.074270 0.097204
v 0.071668 0.176663 -0.009801
v 0.236779 0.020890 -0.039232
v 0.243185 0.044005 -0.040019
v 0.240726 0.020601 -0.015561
v 0.071668 0.176663 -0.009801
v 0.243185 0.044005 -0.040019
v 0.232831 0.021178 -0.062903
v 0.071668 0.176663 -0.009801
v 0.232831 0.021178 -0.062903
v 0.026372 0.076792 -0.109921
v 0.043642 0.075531 -0.006359
v 0.071668 0.176663 -0.009801
v 0.026372 0.076792 -0.109921
v 0.236779 0.020890 -0.039232
v 0.232831 0.021178 -0.062903
v 0.243185 0.044005 -0.040019
v 0.026372 0.076792 -0.109921
v 0.232831 0.021178 -0.062903
v 0.230373 -0.002226 -0.038445
v 0.026372 0.076792 -0.109921
v 0.230373 -0.002226 -0.038445
v 0.015616 -0.025601 -0.002916
v 0.043642 0.075531 -0.006359
v 0.026372 0.076792 -0.109921
v 0.015616 -0.025601 -0.002916
v 0.236779 0.020890 -0.039232
v 0.230373 -0.002226 -0.038445
v 0.232831 0.021178 -0.062903
v 0.015616 -0.025601 -0.002916
v 0.230373 -0.002226 -0.038445
v 0.240726 0.020601 -0.015561
v 0.015616 -0.025601 -0.002916
v 0.240726 0.020601 -0.015561
v 0.060913 0.074270 0.097204
v 0.043642 0.075531 -0.006359
v 0.015616 -0.025601 -0.002916
v 0.060913 0.074270 0.097204
v 0.236779 0.020890 -0.039232
v 0.240726 0.020601 -0.015561
v 0.230373 -0.002226 -0.038445
v -0.114846 0.073934 -0.004371
v -0.140027 0.013392 0.233235
v -0.121237 0.036628 0.249329
v -0.114846 0.073934 -0.004371
v -0.121237 0.036628 0.249329
v -0.032640 0.175593 0.066038
v -0.020401 0.074235 0.041509
v -0.114846 0.073934 -0.004371
v -0.032640 0.175593 0.066038
v -0.118439 0.013460 0.243722
v -0.121237 0.036628 0.249329
v -0.140027 0.013392 0.233235
v -0.032640 0.175593 0.066038
v -0.121237 0.036628 0.249329
v -0.096852 0.013529 0.254209
v -0.032640 0.175593 0.066038
v -0.096852 0.013529 0.254209
v 0.074045 0.074536 0.087389
v -0.020401 0.074235 0.041509
v -0.032640 0.175593 0.066038
v 0.074045 0.074536 0.087389
v -0.118439 0.013460 0.243722
v -0.096852 0.013529 0.254209
v -0.121237 0.036628 0.249329
v 0.074045 0.074536 0.087389
v -0.096852 0.013529 0.254209
v -0.115642 -0.009707 0.238115
v 0.074045 0.074536 0.087389
v -0.115642 -0.009707 0.238115
v -0.008162 -0.027123 0.016980
v -0.020401 0.074235 0.041509
v 0.074045 0.074536 0.087389
v -0.008162 -0.027123 0.016980
v -0.118439 0.013460 0.243722
v -0.115642 -0.009707 0.238115
v -0.096852 0.013529 0.254209
v -0.008162 -0.027123 0.016980
v -0.115642 -0.009707 0.238115
v -0.140027 0.013392 0.233235
v -0.008162 -0.027123 0.016980
v -0.140027 0.013392 0.233235
v -0.114846 0.073934 -0.004371
v -0.020401 0.074235 0.041509
v -0.008162 -0.027123 0.016980
v -0.114846 0.073934 -0.004371
v -0.118439 0.013460 0.243722
v -0.140027 0.013392 0.233235
v -0.115642 -0.009707 0.238115
v 0.069707 0.076930 -0.088869
v -0.123870 0.020583 -0.275400
v -0.147652 0.043678 -0.268117
v 0.069707 0.076930 -0.088869
v -0.147652 0.043678 -0.268117
v -0.034341 0.177967 -0.057006
v -0.022368 0.075321 -0.038425
v 0.069707 0.076930 -0.088869
v -0.034341 0.177967 -0.057006
v -0.144915 0.020216 -0.263870
v -0.147652 0.043678 -0.268117
v -0.123870 0.020583 -0.275400
v -0.034341 0.177967 -0.057006
v -0.147652 0.043678 -0.268117
v -0.165961 0.019848 -0.252340
v -0.034341 0.177967 -0.057006
v -0.165961 0.019848 -0.252340
v -0.114443 0.073711 0.012019
v -0.022368 0.075321 -0.038425
v -0.034341 0.177967 -0.057006
v -0.114443 0.073711 0.012019
v -0.144915 0.020216 -0.263870
v -0.165961 0.019848 -0.252340
v -0.147652 0.043678 -0.268117
v -0.114443 0.073711 0.012019
v -0.165961 0.019848 -0.252340
v -0.142179 -0.003247 -0.259623
v -0.114443 0.073711 0.012019
v -0.142179 -0.003247 -0.259623
v -0.010394 -0.027326 -0.019844
v -0.022368 0.075321 -0.038425
v -0.114443 0.073711 0.012019
v -0.010394 -0.027326 -0.019844
v -0.144915 0.020216 -0.263870
v -0.142179 -0.003247 -0.259623
v -0.165961 0.019848 -0.252340
v -0.010394 -0.027326 -0.019844
v -0.142179 -0.003247 -0.259623
v -0.123870 0.020583 -0.275400
v -0.010394 -0.027326 -0.019844
v -0.123870 0.020583 -0.275400
v 0.069707 0.076930 -0.088869
v -0.022368 0.075321 -0.038425
v -0.010394 -0.027326 -0.019844
v 0.069707 0.076930 -0.088869
v -0.144915 0.020216 -0.263870
v -0.123870 0.020583 -0.275400
v -0.142179 -0.003247 -0.259623
v -0.000087 0.010982 -0.159623
v 0.018120 1.008412 -0.062610
v 0.132163 1.001832 0.002864
v -0.000087 0.010982 -0.159623
v 0.132163 1.001832 0.002864
v 0.138498 0.002986 -0.080059
v 0.000000 0.000000 0.000000
v -0.000087 0.010982 -0.159623
v 0.138498 0.002986 -0.080059
v 0.138498 0.002986 -0.080059
v 0.132163 1.001832 0.002864
v 0.132235 0.992795 0.134220
v 0.138498 0.002986 -0.080059
v 0.132235 0.992795 0.134220
v 0.138585 -0.007996 0.079564
v 0.000000 0.000000 0.000000
v 0.138498 0.002986 -0.080059
v 0.138585 -0.007996 0.079564
v 0.138585 -0.007996 0.079564
v 0.132235 0.992795 0.134220
v 0.018263 0.990337 0.200102
v 0.138585 -0.007996 0.079564
v 0.018263 0.990337 0.200102
v 0.000087 -0.010982 0.159623
v 0.000000 0.000000 0.000000
v 0.138585 -0.007996 0.079564
v 0.000087 -0.010982 0.159623
v 0.000087 -0.010982 0.159623
v 0.018263 0.990337 0.200102
v -0.095781 0.996917 0.134628
v 0.000087 -0.010982 0.159623
v -0.095781 0.996917 0.134628
v -0.138498 -0.002986 0.080059
v 0.000000 0.000000 0.000000
v 0.000087 -0.010982 0.159623
v -0.138498 -0.002986 0.080059
v -0.138498 -0.002986 0.080059
v -0.095781 0.996917 0.134628
v -0.095853 1.005954 0.003272
v -0.138498 -0.002986 0.080059
v -0.095853 1.005954 0.003272
v -0.138585 0.007996 -0.079564
v 0.000000 0.000000 0.000000
v -0.138498 -0.002986 0.080059
v -0.138585 0.007996 -0.079564
v -0.138585 0.007996 -0.079564
v -0.095853 1.005954 0.003272
v 0.018120 1.008412 -0.062610
v -0.138585 0.007996 -0.079564
v 0.018120 1.008412 -0.062610
v -0.000087 0.010982 -0.159623
v 0.000000 0.000000 0.000000
v -0.138585 0.007996 -0.079564
v -0.000087 0.010982 -0.159623
v 0.018249 0.995325 -0.062858
v 0.066898 1.997248 -0.065319
v 0.156259 1.994498 -0.013504
v 0.018249 0.995325 -0.062858
v 0.156259 1.994498 -0.013504
v 0.132112 0.991820 0.003164
v 0.066853 2.000426 0.037965
v 0.156259 1.994498 -0.013504
v 0.066898 1.997248 -0.065319
v 0.132112 0.991820 0.003164
v 0.156259 1.994498 -0.013504
v 0.156214 1.997676 0.089780
v 0.132112 0.991820 0.003164
v 0.156214 1.997676 0.089780
v 0.132054 0.995870 0.134769
v 0.066853 2.000426 0.037965
v 0.156214 1.997676 0.089780
v 0.156259 1.994498 -0.013504
v 0.132054 0.995870 0.134769
v 0.156214 1.997676 0.089780
v 0.066807 2.003604 0.141249
v 0.132054 0.995870 0.134769
v 0.066807 2.003604 0.141249
v 0.018133 1.003424 0.200350
v 0.066853 2.000426 0.037965
v 0.066807 2.003604 0.141249
v 0.156214 1.997676 0.089780
v 0.018133 1.003424 0.200350
v 0.066807 2.003604 0.141249
v -0.022554 2.006355 0.089434
v 0.018133 1.003424 0.200350
v -0.022554 2.006355 0.089434
v -0.095730 1.006929 0.134328
v 0.066853 2.000426 0.037965
v -0.022554 2.006355 0.089434
v 0.066807 2.003604 0.141249
v -0.095730 1.006929 0.134328
v -0.022554 2.006355 0.089434
v -0.022508 2.003177 -0.013850
v -0.095730 1.006929 0.134328
v -0.022508 2.003177 -0.013850
v -0.095672 1.002879 0.002724
v 0.066853 2.000426 0.037965
v -0.022508 2.003177 -0.013850
v -0.022554 2.006355 0.089434
v -0.095672 1.002879 0.002724
v -0.022508 2.003177 -0.013850
v 0.066898 1.997248 -0.065319
v -0.095672 1.002879 0.002724
v 0.066898 1.997248 -0.065319
v 0.018249 0.995325 -0.062858
v 0.066853 2.000426 0.037965
v 0.066898 1.997248 -0.065319
v -0.022508 2.003177 -0.013850
v 0.071986 1.614164 0.003516
v -0.372648 1.859621 -0.187517
v -0.374018 1.878777 -0.163188
v 0.071986 1.614164 0.003516
v -0.374018 1.878777 -0.163188
v 0.068725 1.659773 0.061441
v 0.048034 1.613286 0.049869
v 0.071986 1.614164 0.003516
v 0.068725 1.659773 0.061441
v -0.382708 1.859253 -0.168049
v -0.374018 1.878777 -0.163188
v -0.372648 1.859621 -0.187517
v 0.068725 1.659773 0.061441
v -0.374018 1.878777 -0.163188
v -0.392768 1.858884 -0.148580
v 0.068725 1.659773 0.061441
v -0.392768 1.858884 -0.148580
v 0.024081 1.612407 0.096222
v 0.048034 1.613286 0.049869
v 0.068725 1.659773 0.061441
v 0.024081 1.612407 0.096222
v -0.382708 1.859253 -0.168049
v -0.392768 1.858884 -0.148580
v -0.374018 1.878777 -0.163188
v 0.024081 1.612407 0.096222
v -0.392768 1.858884 -0.148580
v -0.391398 1.839728 -0.172909
v 0.024081 1.612407 0.096222
v -0.391398 1.839728 -0.172909
v 0.027342 1.566798 0.038297
v 0.048034 1.613286 0.049869
v 0.024081 1.612407 0.096222
v 0.027342 1.566798 0.038297
v -0.382708 1.859253 -0.168049
v -0.391398 1.839728 -0.172909
v -0.392768 1.858884 -0.148580
v 0.027342 1.566798 0.038297
v -0.391398 1.839728 -0.172909
v -0.372648 1.859621 -0.187517
v 0.027342 1.566798 0.038297
v -0.372648 1.859621 -0.187517
v 0.071986 1.614164 0.003516
v 0.048034 1.613286 0.049869
v 0.027342 1.566798 0.038297
v 0.071986 1.614164 0.003516
v -0.382708 1.859253 -0.168049
v -0.372648 1.859621 -0.187517
v -0.391398 1.839728 -0.172909
v -0.191268 1.760916 -0.095819
v -0.353250 1.892325 -0.265821
v -0.357499 1.900021 -0.256617
v -0.191268 1.760916 -0.095819
v -0.357499 1.900021 -0.256617
v -0.202603 1.781442 -0.071271
v -0.209808 1.760522 -0.080577
v -0.191268 1.760916 -0.095819
v -0.202603 1.781442 -0.071271
v -0.360201 1.892177 -0.260106
v -0.357499 1.900021 -0.256617
v -0.353250 1.892325 -0.265821
v -0.202603 1.781442 -0.071271
v -0.357499 1.900021 -0.256617
v -0.367152 1.892029 -0.254391
v -0.202603 1.781442 -0.071271
v -0.367152 1.892029 -0.254391
v -0.228348 1.760127 -0.065335
v -0.209808 1.760522 -0.080577
v -0.202603 1.781442 -0.071271
v -0.228348 1.760127 -0.065335
v -0.360201 1.892177 -0.260106
v -0.367152 1.892029 -0.254391
v -0.357499 1.900021 -0.256617
v -0.228348 1.760127 -0.065335
v -0.367152 1.892029 -0.254391
v -0.362903 1.884333 -0.263595
v -0.228348 1.760127 -0.065335
v -0.362903 1.884333 -0.263595
v -0.217014 1.739600 -0.089883
v -0.209808 1.760522 -0.080577
v -0.228348 1.760127 -0.065335
v -0.217014 1.739600 -0.089883
v -0.360201 1.892177 -0.260106
v -0.362903 1.884333 -0.263595
v -0.367152 1.892029 -0.254391
v -0.217014 1.739600 -0.089883
v -0.362903 1.884333 -0.263595
v -0.353250 1.892325 -0.265821
v -0.217014 1.739600 -0.089883
v -0.353250 1.892325 -0.265821
v -0.191268 1.760916 -0.095819
v -0.209808 1.760522 -0.080577
v -0.217014 1.739600 -0.089883
v -0.191268 1.760916 -0.095819
v -0.360201 1.892177 -0.260106
v -0.353250 1.892325 -0.265821
v -0.362903 1.884333 -0.263595
v -0.224438 1.782714 -0.103548
v -0.259968 1.845908 -0.234182
v -0.268394 1.853942 -0.229038
v -0.224438 1.782714 -0.103548
v -0.268394 1.853942 -0.229038
v -0.246911 1.804142 -0.089828
v -0.248175 1.782430 -0.099987
v -0.224438 1.782714 -0.103548
v -0.246911 1.804142 -0.089828
v -0.268867 1.845802 -0.232847
v -0.268394 1.853942 -0.229038
v -0.259968 1.845908 -0.234182
v -0.246911 1.804142 -0.089828
v -0.268394 1.853942 -0.229038
v -0.277767 1.845695 -0.231512
v -0.246911 1.804142 -0.089828
v -0.277767 1.845695 -0.231512
v -0.271912 1.782146 -0.096426
v -0.248175 1.782430 -0.099987
v -0.246911 1.804142 -0.089828
v -0.271912 1.782146 -0.096426
v -0.268867 1.845802 -0.232847
v -0.277767 1.845695 -0.231512
v -0.268394 1.853942 -0.229038
v -0.271912 1.782146 -0.096426
v -0.277767 1.845695 -0.231512
v -0.269341 1.837662 -0.236656
v -0.271912 1.782146 -0.096426
v -0.269341 1.837662 -0.236656
v -0.249439 1.760718 -0.110146
v -0.248175 1.782430 -0.099987
v -0.271912 1.782146 -0.096426
v -0.249439 1.760718 -0.110146
v -0.268867 1.845802 -0.232847
v -0.269341 1.837662 -0.236656
v -0.277767 1.845695 -0.231512
v -0.249439 1.760718 -0.110146
v -0.269341 1.837662 -0.236656
v -0.259968 1.845908 -0.234182
v -0.249439 1.760718 -0.110146
v -0.259968 1.845908 -0.234182
v -0.224438 1.782714 -0.103548
v -0.248175 1.782430 -0.099987
v -0.249439 1.760718 -0.110146
v -0.224438 1.782714 -0.103548
v -0.268867 1.845802 -0.232847
v -0.259968 1.845908 -0.234182
v -0.269341 1.837662 -0.236656
v -0.294533 1.804573 -0.142031
v -0.446595 1.884933 -0.071606
v -0.439884 1.892950 -0.064347
v -0.294533 1.804573 -0.142031
v -0.439884 1.892950 -0.064347
v -0.276635 1.825957 -0.122672
v -0.286542 1.804339 -0.119397
v -0.294533 1.804573 -0.142031
v -0.276635 1.825957 -0.122672
v -0.443599 1.884845 -0.063119
v -0.439884 1.892950 -0.064347
v -0.446595 1.884933 -0.071606
v -0.276635 1.825957 -0.122672
v -0.439884 1.892950 -0.064347
v -0.440603 1.884757 -0.054633
v -0.276635 1.825957 -0.122672
v -0.440603 1.884757 -0.054633
v -0.278552 1.804105 -0.096763
v -0.286542 1.804339 -0.119397
v -0.276635 1.825957 -0.122672
v -0.278552 1.804105 -0.096763
v -0.443599 1.884845 -0.063119
v -0.440603 1.884757 -0.054633
v -0.439884 1.892950 -0.064347
v -0.278552 1.804105 -0.096763
v -0.440603 1.884757 -0.054633
v -0.447313 1.876740 -0.061892
v -0.278552 1.804105 -0.096763
v -0.447313 1.876740 -0.061892
v -0.296450 1.782721 -0.116123
v -0.286542 1.804339 -0.119397
v -0.278552 1.804105 -0.096763
v -0.296450 1.782721 -0.116123
v -0.443599 1.884845 -0.063119
v -0.447313 1.876740 -0.061892
v -0.440603 1.884757 -0.054633
v -0.296450 1.782721 -0.116123
v -0.447313 1.876740 -0.061892
v -0.446595 1.884933 -0.071606
v -0.296450 1.782721 -0.116123
v -0.446595 1.884933 -0.071606
v -0.294533 1.804573 -0.142031
v -0.286542 1.804339 -0.119397
v -0.296450 1.782721 -0.116123
v -0.294533 1.804573 -0.142031
v -0.443599 1.884845 -0.063119
v -0.446595 1.884933 -0.071606
v -0.447313 1.876740 -0.061892
v 0.101761 1.721436 0.065856
v 0.188415 1.851143 -0.234982
v 0.164857 1.871284 -0.235289
v 0.101761 1.721436 0.065856
v 0.164857 1.871284 -0.235289
v 0.045671 1.769391 0.065126
v 0.053280 1.721223 0.046550
v 0.101761 1.721436 0.065856
v 0.045671 1.769391 0.065126
v 0.168053 1.851054 -0.243091
v 0.164857 1.871284 -0.235289
v 0.188415 1.851143 -0.234982
v 0.045671 1.769391 0.065126
v 0.164857 1.871284 -0.235289
v 0.147691 1.850964 -0.251200
v 0.045671 1.769391 0.065126
v 0.147691 1.850964 -0.251200
v 0.004800 1.721010 0.027244
v 0.053280 1.721223 0.046550
v 0.045671 1.769391 0.065126
v 0.004800 1.721010 0.027244
v 0.168053 1.851054 -0.243091
v 0.147691 1.850964 -0.251200
v 0.164857 1.871284 -0.235289
v 0.004800 1.721010 0.027244
v 0.147691 1.850964 -0.251200
v 0.171249 1.830823 -0.250893
v 0.004800 1.721010 0.027244
v 0.171249 1.830823 -0.250893
v 0.060890 1.673055 0.027974
v 0.053280 1.721223 0.046550
v 0.004800 1.721010 0.027244
v 0.060890 1.673055 0.027974
v 0.168053 1.851054 -0.243091
v 0.171249 1.830823 -0.250893
v 0.147691 1.850964 -0.251200
v 0.060890 1.673055 0.027974
v 0.171249 1.830823 -0.250893
v 0.188415 1.851143 -0.234982
v 0.060890 1.673055 0.027974
v 0.188415 1.851143 -0.234982
v 0.101761 1.721436 0.065856
v 0.053280 1.721223 0.046550
v 0.060890 1.673055 0.027974
v 0.101761 1.721436 0.065856
v 0.168053 1.851054 -0.243091
v 0.188415 1.851143 -0.234982
v 0.171249 1.830823 -0.250893
v 0.132913 1.784495 -0.091710
v 0.136878 1.891171 -0.286931
v 0.127419 1.898984 -0.283545
v 0.132913 1.784495 -0.091710
v 0.127419 1.898984 -0.283545
v 0.107683 1.805335 -0.082680
v 0.109034 1.784292 -0.094151
v 0.132913 1.784495 -0.091710
v 0.107683 1.805335 -0.082680
v 0.127925 1.891095 -0.287846
v 0.127419 1.898984 -0.283545
v 0.136878 1.891171 -0.286931
v 0.107683 1.805335 -0.082680
v 0.127419 1.898984 -0.283545
v 0.118972 1.891019 -0.288761
v 0.107683 1.805335 -0.082680
v 0.118972 1.891019 -0.288761
v 0.085155 1.784089 -0.096592
v 0.109034 1.784292 -0.094151
v 0.107683 1.805335 -0.082680
v 0.085155 1.784089 -0.096592
v 0.127925 1.891095 -0.287846
v 0.118972 1.891019 -0.288761
v 0.127419 1.898984 -0.283545
v 0.085155 1.784089 -0.096592
v 0.118972 1.891019 -0.288761
v 0.128432 1.883205 -0.292147
v 0.085155 1.784089 -0.096592
v 0.128432 1.883205 -0.292147
v 0.110385 1.763249 -0.105622
v 0.109034 1.784292 -0.094151
v 0.085155 1.784089 -0.096592
v 0.110385 1.763249 -0.105622
v 0.127925 1.891095 -0.287846
v 0.128432 1.883205 -0.292147
v 0.118972 1.891019 -0.288761
v 0.110385 1.763249 -0.105622
v 0.128432 1.883205 -0.292147
v 0.136878 1.891171 -0.286931
v 0.110385 1.763249 -0.105622
v 0.136878 1.891171 -0.286931
v 0.132913 1.784495 -0.091710
v 0.109034 1.784292 -0.094151
v 0.110385 1.763249 -0.105622
v 0.132913 1.784495 -0.091710
v 0.127925 1.891095 -0.287846
v 0.136878 1.891171 -0.286931
v 0.128432 1.883205 -0.292147
v 0.138498 1.795848 -0.105597
v 0.260728 1.924707 -0.294476
v 0.250838 1.932515 -0.296265
v 0.138498 1.795848 -0.105597
v 0.250838 1.932515 -0.296265
v 0.112118 1.816675 -0.110367
v 0.119257 1.795856 -0.119950
v 0.138498 1.795848 -0.105597
v 0.112118 1.816675 -0.110367
v 0.253515 1.924710 -0.299858
v 0.250838 1.932515 -0.296265
v 0.260728 1.924707 -0.294476
v 0.112118 1.816675 -0.110367
v 0.250838 1.932515 -0.296265
v 0.246301 1.924713 -0.305239
v 0.112118 1.816675 -0.110367
v 0.246301 1.924713 -0.305239
v 0.100017 1.795864 -0.134303
v 0.119257 1.795856 -0.119950
v 0.112118 1.816675 -0.110367
v 0.100017 1.795864 -0.134303
v 0.253515 1.924710 -0.299858
v 0.246301 1.924713 -0.305239
v 0.250838 1.932515 -0.296265
v 0.100017 1.795864 -0.134303
v 0.246301 1.924713 -0.305239
v 0.256191 1.916904 -0.303450
v 0.100017 1.795864 -0.134303
v 0.256191 1.916904 -0.303450
v 0.126397 1.775038 -0.129533
v 0.119257 1.795856 -0.119950
v 0.100017 1.795864 -0.134303
v 0.126397 1.775038 -0.129533
v 0.253515 1.924710 -0.299858
v 0.256191 1.916904 -0.303450
v 0.246301 1.924713 -0.305239
v 0.126397 1.775038 -0.129533
v 0.256191 1.916904 -0.303450
v 0.260728 1.924707 -0.294476
v 0.126397 1.775038 -0.129533
v 0.260728 1.924707 -0.294476
v 0.138498 1.795848 -0.105597
v 0.119257 1.795856 -0.119950
v 0.126397 1.775038 -0.129533
v 0.138498 1.795848 -0.105597
v 0.253515 1.924710 -0.299858
v 0.260728 1.924707 -0.294476
v 0.256191 1.916904 -0.303450
v 0.044095 1.828324 0.093372
v 0.401816 1.993040 0.167582
v 0.399132 2.013368 0.144338
v 0.044095 1.828324 0.093372
v 0.399132 2.013368 0.144338
v 0.037704 1.876726 0.038031
v 0.058527 1.829160 0.043231
v 0.044095 1.828324 0.093372
v 0.037704 1.876726 0.038031
v 0.407878 1.993391 0.146523
v 0.399132 2.013368 0.144338
v 0.401816 1.993040 0.167582
v 0.037704 1.876726 0.038031
v 0.399132 2.013368 0.144338
v 0.413939 1.993742 0.125463
v 0.037704 1.876726 0.038031
v 0.413939 1.993742 0.125463
v 0.072959 1.829996 -0.006910
v 0.058527 1.829160 0.043231
v 0.037704 1.876726 0.038031
v 0.072959 1.829996 -0.006910
v 0.407878 1.993391 0.146523
v 0.413939 1.993742 0.125463
v 0.399132 2.013368 0.144338
v 0.072959 1.829996 -0.006910
v 0.413939 1.993742 0.125463
v 0.416624 1.973413 0.148707
v 0.072959 1.829996 -0.006910
v 0.416624 1.973413 0.148707
v 0.079350 1.781595 0.048431
v 0.058527 1.829160 0.043231
v 0.072959 1.829996 -0.006910
v 0.079350 1.781595 0.048431
v 0.407878 1.993391 0.146523
v 0.416624 1.973413 0.148707
v 0.413939 1.993742 0.125463
v 0.079350 1.781595 0.048431
v 0.416624 1.973413 0.148707
v 0.401816 1.993040 0.167582
v 0.079350 1.781595 0.048431
v 0.401816 1.993040 0.167582
v 0.044095 1.828324 0.093372
v 0.058527 1.829160 0.043231
v 0.079350 1.781595 0.048431
v 0.044095 1.828324 0.093372
v 0.407878 1.993391 0.146523
v 0.401816 1.993040 0.167582
v 0.416624 1.973413 0.148707
v 0.336675 1.952716 0.139678
v 0.449016 2.032557 0.030049
v 0.440199 2.040614 0.025650
v 0.336675 1.952716 0.139678
v 0.440199 2.040614 0.025650
v 0.313159 1.974205 0.127944
v 0.321586 1.952825 0.121009
v 0.336675 1.952716 0.139678
v 0.313159 1.974205 0.127944
v 0.443359 2.032598 0.023049
v 0.440199 2.040614 0.025650
v 0.449016 2.032557 0.030049
v 0.313159 1.974205 0.127944
v 0.440199 2.040614 0.025650
v 0.437701 2.032639 0.016050
v 0.313159 1.974205 0.127944
v 0.437701 2.032639 0.016050
v 0.306497 1.952934 0.102340
v 0.321586 1.952825 0.121009
v 0.313159 1.974205 0.127944
v 0.306497 1.952934 0.102340
v 0.443359 2.032598 0.023049
v 0.437701 2.032639 0.016050
v 0.440199 2.040614 0.025650
v 0.306497 1.952934 0.102340
v 0.437701 2.032639 0.016050
v 0.446518 2.024582 0.020449
v 0.306497 1.952934 0.102340
v 0.446518 2.024582 0.020449
v 0.330013 1.931445 0.114074
v 0.321586 1.952825 0.121009
v 0.306497 1.952934 0.102340
v 0.330013 1.931445 0.114074
v 0.443359 2.032598 0.023049
v 0.446518 2.024582 0.020449
v 0.437701 2.032639 0.016050
v 0.330013 1.931445 0.114074
v 0.446518 2.024582 0.020449
v 0.449016 2.032557 0.030049
v 0.330013 1.931445 0.114074
v 0.449016 2.032557 0.030049
v 0.336675 1.952716 0.139678
v 0.321586 1.952825 0.121009
v 0.330013 1.931445 0.114074
v 0.336675 1.952716 0.139678
v 0.443359 2.032598 0.023049
v 0.449016 2.032557 0.030049
v 0.446518 2.024582 0.020449
v 0.223302 1.904744 0.114720
v 0.406401 2.005420 0.074887
v 0.400932 2.013457 0.066671
v 0.223302 1.904744 0.114720
v 0.400932 2.013457 0.066671
v 0.208716 1.926179 0.092806
v 0.219937 1.905040 0.090955
v 0.223302 1.904744 0.114720
v 0.208716 1.926179 0.092806
v 0.405139 2.005531 0.065977
v 0.400932 2.013457 0.066671
v 0.406401 2.005420 0.074887
v 0.208716 1.926179 0.092806
v 0.400932 2.013457 0.066671
v 0.403878 2.005641 0.057066
v 0.208716 1.926179 0.092806
v 0.403878 2.005641 0.057066
v 0.216572 1.905335 0.067189
v 0.219937 1.905040 0.090955
v 0.208716 1.926179 0.092806
v 0.216572 1.905335 0.067189
v 0.405139 2.005531 0.065977
v 0.403878 2.005641 0.057066
v 0.400932 2.013457 0.066671
v 0.216572 1.905335 0.067189
v 0.403878 2.005641 0.057066
v 0.409346 1.997605 0.065283
v 0.216572 1.905335 0.067189
v 0.409346 1.997605 0.065283
v 0.231158 1.883900 0.089103
v 0.219937 1.905040 0.090955
v 0.216572 1.905335 0.067189
v 0.231158 1.883900 0.089103
v 0.405139 2.005531 0.065977
v 0.409346 1.997605 0.065283
v 0.403878 2.005641 0.057066
v 0.231158 1.883900 0.089103
v 0.409346 1.997605 0.065283
v 0.406401 2.005420 0.074887
v 0.231158 1.883900 0.089103
v 0.406401 2.005420 0.074887
v 0.223302 1.904744 0.114720
v 0.219937 1.905040 0.090955
v 0.231158 1.883900 0.089103
v 0.223302 1.904744 0.114720
v 0.405139 2.005531 0.065977
v 0.406401 2.005420 0.074887
v 0.409346 1.997605 0.065283
f 1 2 3
f 4 5 6
f 7 8 9
f 10 11 12
f 13 14 15
f 16 17 18
f 19 20 21
f 22 23 24
f 25 26 27
f 28 29 30
f 31 32 33
f 34 35 36
f 37 38 39
f 40 41 42
f 43 44 45
f 46 47 48
f 49 50 51
f 52 53 54
f 55 56 57
f 58 59 60
f 61 62 63
f 64 65 66
f 67 68 69
f 70 71 72
f 73 74 75
f 76 77 78
f 79 80 81
f 82 83 84
f 85 86 87
f 88 89 90
f 91 92 93
f 94 95 96
f 97 98 99
f 100 101 102
f 103 104 105
f 106 107 108
f 109 110 111
f 112 113 114
f 115 116 117
f 118 119 120
f 121 122 123
f 124 125 126
f 127 128 129
f 130 131 132
f 133 134 135
f 136 137 138
f 139 140 141
f 142 143 144
f 145 146 147
f 148 149 150
f 151 152 153
f 154 155 156
f 157 158 159
f 160 161 162
f 163 164 165
f 166 167 168
f 169 170 171
f 172 173 174
f 175 176 177
f 178 179 180
f 181 182 183
f 184 185 186
f 187 188 189
f 190 191 192
f 193 194 195
f 196 197 198
f 199 200 201
f 202 203 204
f 205 206 207
f 208 209 210
f 211 212 213
f 214 215 216
f 217 218 219
f 220 221 222
f 223 224 225
f 226 227 228
f 229 230 231
f 232 233 234
f 235 236 237
f 238 239 240
f 241 242 243
f 244 245 246
f 247 248 249
f 250 251 252
f 253 254 255
f 256 257 258
f 259 260 261
f 262 263 264
f 265 266 267
f 268 269 270
f 271 272 273
f 274 275 276
f 277 278 279
f 280 281 282
f 283 284 285
f 286 287 288
f 289 290 291
f 292 293 294
f 295 296 297
f 298 299 300
f 301 302 303
f 304 305 306
f 307 308 309
f 310 311 312
f 313 314 315
f 316 317 318
f 319 320 321
f 322 323 324
f 325 326 327
f 328 329 330
f 331 332 333
f 334 335 336
f 337 338 339
f 340 341 342
f 343 344 345
f 346 347 348
f 349 350 351
f 352 353 354
f 355 356 357
f 358 359 360
f 361 362 363
f 364 365 366
f 367 368 369
f 370 371 372
f 373 374 375
f 376 377 378
f 379 380 381
f 382 383 384
f 385 386 387
f 388 389 390
f 391 392 393
f 394 395 396
f 397 398 399
f 400 401 402
f 403 404 405
f 406 407 408
f 409 410 411
f 412 413 414
f 415 416 417
f 418 419 420
f 421 422 423
f 424 425 426
f 427 428 429
f 430 431 432
f 433 434 435
f 436 437 438
f 439 440 441
f 442 443 444
f 445 446 447
f 448 449 450
f 451 452 453
f 454 455 456
f 457 458 459
f 460 461 462
f 463 464 465
f 466 467 468
f 469 470 471
f 472 473 474
f 475 476 477
f 478 479 480
f 481 482 483
f 484 485 486
f 487 488 489
f 490 491 492
f 493 494 495
f 496 497 498
f 499 500 501
f 502 503 504
f 505 506 507
f 508 509 510
f 511 512 513
f 514 515 516
f 517 518 519
f 520 521 522
f 523 524 525
f 526 527 528
f 529 530 531
f 532 533 534
f 535 536 537
f 538 539 540
f 541 542 543
f 544 545 546
f 547 548 549
f 550 551 552
f 553 554 555
f 556 557 558
f 559 560 561
f 562 563 564
f 565 566 567
f 568 569 570
f 571 572 573
f 574 575 576
f 577 578 579
f 580 581 582
f 583 584 585
f 586 587 588
f 589 590 591
f 592 593 594
f 595 596 597
f 598 599 600
f 601 602 603
f 604 605 606
f 607 608 609
f 610 611 612
f 613 614 615
f 616 617 618
f 619 620 621
f 622 623 624
f 625 626 627
f 628 629 630
f 631 632 633
f 634 635 636
f 637 638 639
f 640 641 642
f 643 644 645
f 646 647 648
f 649 650 651
f 652 653 654
f 655 656 657
f 658 659 660
f 661 662 663
f 664 665 666
f 667 668 669
f 670 671 672
f 673 674 675
f 676 677 678
f 679 680 681
f 682 683 684
f 685 686 687
f 688 689 690
f 691 692 693
f 694 695 696
f 697 698 699
f 700 701 702
f 703 704 705
f 706 707 708
f 709 710 711
f 712 713 714
f 715 716 717
f 718 719 720
f 721 722 723
f 724 725 726
f 727 728 729
f 730 731 732

o TreeFoliage
v 0.068448 1.839263 0.035737
v 0.242055 1.917478 0.036818
v 0.190985 1.915310 0.157111
v 0.068448 1.839263 0.035737
v 0.190985 1.915310 0.157111
v 0.068448 1.839263 0.035737
v 0.068448 1.839263 0.035737
v 0.190985 1.915310 0.157111
v 0.067691 1.913400 0.206924
v 0.068448 1.839263 0.035737
v 0.067691 1.913400 0.206924
v 0.068448 1.839263 0.035737
v 0.068448 1.839263 0.035737
v 0.067691 1.913400 0.206924
v -0.055603 1.912868 0.157077
v 0.068448 1.839263 0.035737
v -0.055603 1.912868 0.157077
v 0.068448 1.839263 0.035737
v 0.068448 1.839263 0.035737
v -0.055603 1.912868 0.157077
v -0.106673 1.914026 0.036771
v 0.068448 1.839263 0.035737
v -0.106673 1.914026 0.036771
v 0.068448 1.839263 0.035737
v 0.068448 1.839263 0.035737
v -0.106673 1.914026 0.036771
v -0.055603 1.916195 -0.083522
v 0.068448 1.839263 0.035737
v -0.055603 1.916195 -0.083522
v 0.068448 1.839263 0.035737
v 0.068448 1.839263 0.035737
v -0.055603 1.916195 -0.083522
v 0.067691 1.918104 -0.133335
v 0.068448 1.839263 0.035737
v 0.067691 1.918104 -0.133335
v 0.068448 1.839263 0.035737
v 0.068448 1.839263 0.035737
v 0.067691 1.918104 -0.133335
v 0.190985 1.918636 -0.083488
v 0.068448 1.839263 0.035737
v 0.190985 1.918636 -0.083488
v 0.068448 1.839263 0.035737
v 0.068448 1.839263 0.035737
v 0.190985 1.918636 -0.083488
v 0.242055 1.917478 0.036818
v 0.068448 1.839263 0.035737
v 0.242055 1.917478 0.036818
v 0.068448 1.839263 0.035737
v 0.242055 1.917478 0.036818
v 0.312450 2.102853 0.039381
v 0.240227 2.099786 0.209501
v 0.242055 1.917478 0.036818
v 0.240227 2.099786 0.209501
v 0.190985 1.915310 0.157111
v 0.190985 1.915310 0.157111
v 0.240227 2.099786 0.209501
v 0.065863 2.097085 0.279947
v 0.190985 1.915310 0.157111
v 0.065863 2.097085 0.279947
v 0.067691 1.913400 0.206924
v 0.067691 1.913400 0.206924
v 0.065863 2.097085 0.279947
v -0.108501 2.096334 0.209453
v 0.067691 1.913400 0.206924
v -0.108501 2.096334 0.209453
v -0.055603 1.912868 0.157077
v -0.055603 1.912868 0.157077
v -0.108501 2.096334 0.209453
v -0.180725 2.097970 0.039313
v -0.055603 1.912868 0.157077
v -0.180725 2.097970 0.039313
v -0.106673 1.914026 0.036771
v -0.106673 1.914026 0.036771
v -0.180725 2.097970 0.039313
v -0.108501 2.101038 -0.130806
v -0.106673 1.914026 0.036771
v -0.108501 2.101038 -0.130806
v -0.055603 1.916195 -0.083522
v -0.055603 1.916195 -0.083522
v -0.108501 2.101038 -0.130806
v 0.065863 2.103738 -0.201252
v -0.055603 1.916195 -0.083522
v 0.065863 2.103738 -0.201252
v 0.067691 1.918104 -0.133335
v 0.067691 1.918104 -0.133335
v 0.065863 2.103738 -0.201252
v 0.240227 2.104490 -0.130758
v 0.067691 1.918104 -0.133335
v 0.240227 2.104490 -0.130758
v 0.190985 1.918636 -0.083488
v 0.190985 1.918636 -0.083488
v 0.240227 2.104490 -0.130758
v 0.312450 2.102853 0.039381
v 0.190985 1.918636 -0.083488
v 0.312450 2.102853 0.039381
v 0.242055 1.917478 0.036818
v 0.312450 2.102853 0.039381
v 0.238398 2.286798 0.041924
v 0.187328 2.284629 0.162217
v 0.312450 2.102853 0.039381
v 0.187328 2.284629 0.162217
v 0.240227 2.099786 0.209501
v 0.240227 2.099786 0.209501
v 0.187328 2.284629 0.162217
v 0.064034 2.282719 0.212030
v 0.240227 2.099786 0.209501
v 0.064034 2.282719 0.212030
v 0.065863 2.097085 0.279947
v 0.065863 2.097085 0.279947
v 0.064034 2.282719 0.212030
v -0.059260 2.282188 0.162183
v 0.065863 2.097085 0.279947
v -0.059260 2.282188 0.162183
v -0.108501 2.096334 0.209453
v -0.108501 2.096334 0.209453
v -0.059260 2.282188 0.162183
v -0.110330 2.283345 0.041876
v -0.108501 2.096334 0.209453
v -0.110330 2.283345 0.041876
v -0.180725 2.097970 0.039313
v -0.180725 2.097970 0.039313
v -0.110330 2.283345 0.041876
v -0.059260 2.285514 -0.078417
v -0.180725 2.097970 0.039313
v -0.059260 2.285514 -0.078417
v -0.108501 2.101038 -0.130806
v -0.108501 2.101038 -0.130806
v -0.059260 2.285514 -0.078417
v 0.064034 2.287423 -0.128229
v -0.108501 2.101038 -0.130806
v 0.064034 2.287423 -0.128229
v 0.065863 2.103738 -0.201252
v 0.065863 2.103738 -0.201252
v 0.064034 2.287423 -0.128229
v 0.187328 2.287955 -0.078383
v 0.065863 2.103738 -0.201252
v 0.187328 2.287955 -0.078383
v 0.240227 2.104490 -0.130758
v 0.240227 2.104490 -0.130758
v 0.187328 2.287955 -0.078383
v 0.238398 2.286798 0.041924
v 0.240227 2.104490 -0.130758
v 0.238398 2.286798 0.041924
v 0.312450 2.102853 0.039381
v 0.238398 2.286798 0.041924
v 0.063277 2.361560 0.042957
v 0.063277 2.361560 0.042957
v 0.238398 2.286798 0.041924
v 0.063277 2.361560 0.042957
v 0.187328 2.284629 0.162217
v 0.187328 2.284629 0.162217
v 0.063277 2.361560 0.042957
v 0.063277 2.361560 0.042957
v 0.187328 2.284629 0.162217
v 0.063277 2.361560 0.042957
v 0.064034 2.282719 0.212030
v 0.064034 2.282719 0.212030
v 0.063277 2.361560 0.042957
v 0.063277 2.361560 0.042957
v 0.064034 2.282719 0.212030
v 0.063277 2.361560 0.042957
v -0.059260 2.282188 0.162183
v -0.059260 2.282188 0.162183
v 0.063277 2.361560 0.042957
v 0.063277 2.361560 0.042957
v -0.059260 2.282188 0.162183
v 0.063277 2.361560 0.042957
v -0.110330 2.283345 0.041876
v -0.110330 2.283345 0.041876
v 0.063277 2.361560 0.042957
v 0.063277 2.361560 0.042957
v -0.110330 2.283345 0.041876
v 0.063277 2.361560 0.042957
v -0.059260 2.285514 -0.078417
v -0.059260 2.285514 -0.078417
v 0.063277 2.361560 0.042957
v 0.063277 2.361560 0.042957
v -0.059260 2.285514 -0.078417
v 0.063277 2.361560 0.042957
v 0.064034 2.287423 -0.128229
v 0.064034 2.287423 -0.128229
v 0.063277 2.361560 0.042957
v 0.063277 2.361560 0.042957
v 0.064034 2.287423 -0.128229
v 0.063277 2.361560 0.042957
v 0.187328 2.287955 -0.078383
v 0.187328 2.287955 -0.078383
v 0.063277 2.361560 0.042957
v 0.063277 2.361560 0.042957
v 0.187328 2.287955 -0.078383
v 0.063277 2.361560 0.042957
v 0.238398 2.286798 0.041924
v 0.173009 1.610809 -0.067548
v 0.366429 1.696772 -0.066360
v 0.309534 1.694249 0.075381
v 0.173009 1.610809 -0.067548
v 0.309534 1.694249 0.075381
v 0.173009 1.610809 -0.067548
v 0.173009 1.610809 -0.067548
v 0.309534 1.694249 0.075381
v 0.172176 1.692078 0.134076
v 0.173009 1.610809 -0.067548
v 0.172176 1.692078 0.134076
v 0.173009 1.610809 -0.067548
v 0.173009 1.610809 -0.067548
v 0.172176 1.692078 0.134076
v 0.034819 1.691529 0.075343
v 0.173009 1.610809 -0.067548
v 0.034819 1.691529 0.075343
v 0.173009 1.610809 -0.067548
v 0.173009 1.610809 -0.067548
v 0.034819 1.691529 0.075343
v -0.022076 1.692926 -0.066413
v 0.173009 1.610809 -0.067548
v -0.022076 1.692926 -0.066413
v 0.173009 1.610809 -0.067548
v 0.173009 1.610809 -0.067548
v -0.022076 1.692926 -0.066413
v 0.034819 1.695449 -0.208153
v 0.173009 1.610809 -0.067548
v 0.034819 1.695449 -0.208153
v 0.173009 1.610809 -0.067548
v 0.173009 1.610809 -0.067548
v 0.034819 1.695449 -0.208153
v 0.172176 1.697620 -0.266849
v 0.173009 1.610809 -0.067548
v 0.172176 1.697620 -0.266849
v 0.173009 1.610809 -0.067548
v 0.173009 1.610809 -0.067548
v 0.172176 1.697620 -0.266849
v 0.309534 1.698168 -0.208116
v 0.173009 1.610809 -0.067548
v 0.309534 1.698168 -0.208116
v 0.173009 1.610809 -0.067548
v 0.173009 1.610809 -0.067548
v 0.309534 1.698168 -0.208116
v 0.366429 1.696772 -0.066360
v 0.173009 1.610809 -0.067548
v 0.366429 1.696772 -0.066360
v 0.173009 1.610809 -0.067548
v 0.366429 1.696772 -0.066360
v 0.444882 1.900458 -0.063544
v 0.364420 1.896890 0.136908
v 0.366429 1.696772 -0.066360
v 0.364420 1.896890 0.136908
v 0.309534 1.694249 0.075381
v 0.309534 1.694249 0.075381
v 0.364420 1.896890 0.136908
v 0.170167 1.893819 0.219915
v 0.309534 1.694249 0.075381
v 0.170167 1.893819 0.219915
v 0.172176 1.692078 0.134076
v 0.172176 1.692078 0.134076
v 0.170167 1.893819 0.219915
v -0.024085 1.893044 0.136854
v 0.172176 1.692078 0.134076
v -0.024085 1.893044 0.136854
v 0.034819 1.691529 0.075343
v 0.034819 1.691529 0.075343
v -0.024085 1.893044 0.136854
v -0.104547 1.895018 -0.063619
v 0.034819 1.691529 0.075343
v -0.104547 1.895018 -0.063619
v -0.022076 1.692926 -0.066413
v -0.022076 1.692926 -0.066413
v -0.104547 1.895018 -0.063619
v -0.024085 1.898586 -0.264070
v -0.022076 1.692926 -0.066413
v -0.024085 1.898586 -0.264070
v 0.034819 1.695449 -0.208153
v 0.034819 1.695449 -0.208153
v -0.024085 1.898586 -0.264070
v 0.170167 1.901657 -0.347078
v 0.034819 1.695449 -0.208153
v 0.170167 1.901657 -0.347078
v 0.172176 1.697620 -0.266849
v 0.172176 1.697620 -0.266849
v 0.170167 1.901657 -0.347078
v 0.364420 1.902432 -0.264017
v 0.172176 1.697620 -0.266849
v 0.364420 1.902432 -0.264017
v 0.309534 1.698168 -0.208116
v 0.309534 1.698168 -0.208116
v 0.364420 1.902432 -0.264017
v 0.444882 1.900458 -0.063544
v 0.309534 1.698168 -0.208116
v 0.444882 1.900458 -0.063544
v 0.366429 1.696772 -0.066360
v 0.444882 1.900458 -0.063544
v 0.362411 2.102550 -0.060750
v 0.305516 2.100027 0.080991
v 0.444882 1.900458 -0.063544
v 0.305516 2.100027 0.080991
v 0.364420 1.896890 0.136908
v 0.364420 1.896890 0.136908
v 0.305516 2.100027 0.080991
v 0.168158 2.097856 0.139686
v 0.364420 1.896890 0.136908
v 0.168158 2.097856 0.139686
v 0.170167 1.893819 0.219915
v 0.170167 1.893819 0.219915
v 0.168158 2.097856 0.139686
v 0.030801 2.097307 0.080953
v 0.170167 1.893819 0.219915
v 0.030801 2.097307 0.080953
v -0.024085 1.893044 0.136854
v -0.024085 1.893044 0.136854
v 0.030801 2.097307 0.080953
v -0.026094 2.098704 -0.060803
v -0.024085 1.893044 0.136854
v -0.026094 2.098704 -0.060803
v -0.104547 1.895018 -0.063619
v -0.104547 1.895018 -0.063619
v -0.026094 2.098704 -0.060803
v 0.030801 2.101227 -0.202544
v -0.104547 1.895018 -0.063619
v 0.030801 2.101227 -0.202544
v -0.024085 1.898586 -0.264070
v -0.024085 1.898586 -0.264070
v 0.030801 2.101227 -0.202544
v 0.168158 2.103398 -0.261239
v -0.024085 1.898586 -0.264070
v 0.168158 2.103398 -0.261239
v 0.170167 1.901657 -0.347078
v 0.170167 1.901657 -0.347078
v 0.168158 2.103398 -0.261239
v 0.305516 2.103946 -0.202506
v 0.170167 1.901657 -0.347078
v 0.305516 2.103946 -0.202506
v 0.364420 1.902432 -0.264017
v 0.364420 1.902432 -0.264017
v 0.305516 2.103946 -0.202506
v 0.362411 2.102550 -0.060750
v 0.364420 1.902432 -0.264017
v 0.362411 2.102550 -0.060750
v 0.444882 1.900458 -0.063544
v 0.362411 2.102550 -0.060750
v 0.167326 2.184666 -0.059615
v 0.167326 2.184666 -0.059615
v 0.362411 2.102550 -0.060750
v 0.167326 2.184666 -0.059615
v 0.305516 2.100027 0.080991
v 0.305516 2.100027 0.080991
v 0.167326 2.184666 -0.059615
v 0.167326 2.184666 -0.059615
v 0.305516 2.100027 0.080991
v 0.167326 2.184666 -0.059615
v 0.168158 2.097856 0.139686
v 0.168158 2.097856 0.139686
v 0.167326 2.184666 -0.059615
v 0.167326 2.184666 -0.059615
v 0.168158 2.097856 0.139686
v 0.167326 2.184666 -0.059615
v 0.030801 2.097307 0.080953
v 0.030801 2.097307 0.080953
v 0.167326 2.184666 -0.059615
v 0.167326 2.184666 -0.059615
v 0.030801 2.097307 0.080953
v 0.167326 2.184666 -0.059615
v -0.026094 2.098704 -0.060803
v -0.026094 2.098704 -0.060803
v 0.167326 2.184666 -0.059615
v 0.167326 2.184666 -0.059615
v -0.026094 2.098704 -0.060803
v 0.167326 2.184666 -0.059615
v 0.030801 2.101227 -0.202544
v 0.030801 2.101227 -0.202544
v 0.167326 2.184666 -0.059615
v 0.167326 2.184666 -0.059615
v 0.030801 2.101227 -0.202544
v 0.167326 2.184666 -0.059615
v 0.168158 2.103398 -0.261239
v 0.168158 2.103398 -0.261239
v 0.167326 2.184666 -0.059615
v 0.167326 2.184666 -0.059615
v 0.168158 2.103398 -0.261239
v 0.167326 2.184666 -0.059615
v 0.305516 2.103946 -0.202506
v 0.305516 2.103946 -0.202506
v 0.167326 2.184666 -0.059615
v 0.167326 2.184666 -0.059615
v 0.305516 2.103946 -0.202506
v 0.167326 2.184666 -0.059615
v 0.362411 2.102550 -0.060750
v 0.219516 1.652691 0.158211
v 0.432750 1.746402 0.159507
v 0.370030 1.743503 0.324277
v 0.219516 1.652691 0.158211
v 0.370030 1.743503 0.324277
v 0.219516 1.652691 0.158211
v 0.219516 1.652691 0.158211
v 0.370030 1.743503 0.324277
v 0.218609 1.741060 0.392510
v 0.219516 1.652691 0.158211
v 0.218609 1.741060 0.392510
v 0.219516 1.652691 0.158211
v 0.219516 1.652691 0.158211
v 0.218609 1.741060 0.392510
v 0.067189 1.740505 0.324236
v 0.219516 1.652691 0.158211
v 0.067189 1.740505 0.324236
v 0.219516 1.652691 0.158211
v 0.219516 1.652691 0.158211
v 0.067189 1.740505 0.324236
v 0.004468 1.742162 0.159448
v 0.219516 1.652691 0.158211
v 0.004468 1.742162 0.159448
v 0.219516 1.652691 0.158211
v 0.219516 1.652691 0.158211
v 0.004468 1.742162 0.159448
v 0.067189 1.745060 -0.005323
v 0.219516 1.652691 0.158211
v 0.067189 1.745060 -0.005323
v 0.219516 1.652691 0.158211
v 0.219516 1.652691 0.158211
v 0.067189 1.745060 -0.005323
v 0.218609 1.747503 -0.073556
v 0.219516 1.652691 0.158211
v 0.218609 1.747503 -0.073556
v 0.219516 1.652691 0.158211
v 0.219516 1.652691 0.158211
v 0.218609 1.747503 -0.073556
v 0.370030 1.748059 -0.005281
v 0.219516 1.652691 0.158211
v 0.370030 1.748059 -0.005281
v 0.219516 1.652691 0.158211
v 0.219516 1.652691 0.158211
v 0.370030 1.748059 -0.005281
v 0.432750 1.746402 0.159507
v 0.219516 1.652691 0.158211
v 0.432750 1.746402 0.159507
v 0.219516 1.652691 0.158211
v 0.432750 1.746402 0.159507
v 0.519261 1.968398 0.162576
v 0.430561 1.964299 0.395596
v 0.432750 1.746402 0.159507
v 0.430561 1.964299 0.395596
v 0.370030 1.743503 0.324277
v 0.370030 1.743503 0.324277
v 0.430561 1.964299 0.395596
v 0.216420 1.960844 0.492092
v 0.370030 1.743503 0.324277
v 0.216420 1.960844 0.492092
v 0.218609 1.741060 0.392510
v 0.218609 1.741060 0.392510
v 0.216420 1.960844 0.492092
v 0.002279 1.960059 0.395538
v 0.218609 1.741060 0.392510
v 0.002279 1.960059 0.395538
v 0.067189 1.740505 0.324236
v 0.067189 1.740505 0.324236
v 0.002279 1.960059 0.395538
v -0.086421 1.962402 0.162493
v 0.067189 1.740505 0.324236
v -0.086421 1.962402 0.162493
v 0.004468 1.742162 0.159448
v 0.004468 1.742162 0.159448
v -0.086421 1.962402 0.162493
v 0.002279 1.966502 -0.070528
v 0.004468 1.742162 0.159448
v 0.002279 1.966502 -0.070528
v 0.067189 1.745060 -0.005323
v 0.067189 1.745060 -0.005323
v 0.002279 1.966502 -0.070528
v 0.216420 1.969956 -0.167024
v 0.067189 1.745060 -0.005323
v 0.216420 1.969956 -0.167024
v 0.218609 1.747503 -0.073556
v 0.218609 1.747503 -0.073556
v 0.216420 1.969956 -0.167024
v 0.430561 1.970742 -0.070469
v 0.218609 1.747503 -0.073556
v 0.430561 1.970742 -0.070469
v 0.370030 1.748059 -0.005281
v 0.370030 1.748059 -0.005281
v 0.430561 1.970742 -0.070469
v 0.519261 1.968398 0.162576
v 0.370030 1.748059 -0.005281
v 0.519261 1.968398 0.162576
v 0.432750 1.746402 0.159507
v 0.519261 1.968398 0.162576
v 0.428371 2.188639 0.165620
v 0.365651 2.185740 0.330391
v 0.519261 1.968398 0.162576
v 0.365651 2.185740 0.330391
v 0.430561 1.964299 0.395596
v 0.430561 1.964299 0.395596
v 0.365651 2.185740 0.330391
v 0.214230 2.183297 0.398624
v 0.430561 1.964299 0.395596
v 0.214230 2.183297 0.398624
v 0.216420 1.960844 0.492092
v 0.216420 1.960844 0.492092
v 0.214230 2.183297 0.398624
v 0.062810 2.182742 0.330349
v 0.216420 1.960844 0.492092
v 0.062810 2.182742 0.330349
v 0.002279 1.960059 0.395538
v 0.002279 1.960059 0.395538
v 0.062810 2.182742 0.330349
v 0.000089 2.184399 0.165562
v 0.002279 1.960059 0.395538
v 0.000089 2.184399 0.165562
v -0.086421 1.962402 0.162493
v -0.086421 1.962402 0.162493
v 0.000089 2.184399 0.165562
v 0.062810 2.187298 0.000791
v -0.086421 1.962402 0.162493
v 0.062810 2.187298 0.000791
v 0.002279 1.966502 -0.070528
v 0.002279 1.966502 -0.070528
v 0.062810 2.187298 0.000791
v 0.214230 2.189740 -0.067442
v 0.002279 1.966502 -0.070528
v 0.214230 2.189740 -0.067442
v 0.216420 1.969956 -0.167024
v 0.216420 1.969956 -0.167024
v 0.214230 2.189740 -0.067442
v 0.365651 2.190296 0.000833
v 0.216420 1.969956 -0.167024
v 0.365651 2.190296 0.000833
v 0.430561 1.970742 -0.070469
v 0.430561 1.970742 -0.070469
v 0.365651 2.190296 0.000833
v 0.428371 2.188639 0.165620
v 0.430561 1.970742 -0.070469
v 0.428371 2.188639 0.165620
v 0.519261 1.968398 0.162576
v 0.428371 2.188639 0.165620
v 0.213323 2.278109 0.166857
v 0.213323 2.278109 0.166857
v 0.428371 2.188639 0.165620
v 0.213323 2.278109 0.166857
v 0.365651 2.185740 0.330391
v 0.365651 2.185740 0.330391
v 0.213323 2.278109 0.166857
v 0.213323 2.278109 0.166857
v 0.365651 2.185740 0.330391
v 0.213323 2.278109 0.166857
v 0.214230 2.183297 0.398624
v 0.214230 2.183297 0.398624
v 0.213323 2.278109 0.166857
v 0.213323 2.278109 0.166857
v 0.214230 2.183297 0.398624
v 0.213323 2.278109 0.166857
v 0.062810 2.182742 0.330349
v 0.062810 2.182742 0.330349
v 0.213323 2.278109 0.166857
v 0.213323 2.278109 0.166857
v 0.062810 2.182742 0.330349
v 0.213323 2.278109 0.166857
v 0.000089 2.184399 0.165562
v 0.000089 2.184399 0.165562
v 0.213323 2.278109 0.166857
v 0.213323 2.278109 0.166857
v 0.000089 2.184399 0.165562
v 0.213323 2.278109 0.166857
v 0.062810 2.187298 0.000791
v 0.062810 2.187298 0.000791
v 0.213323 2.278109 0.166857
v 0.213323 2.278109 0.166857
v 0.062810 2.187298 0.000791
v 0.213323 2.278109 0.166857
v 0.214230 2.189740 -0.067442
v 0.214230 2.189740 -0.067442
v 0.213323 2.278109 0.166857
v 0.213323 2.278109 0.166857
v 0.214230 2.189740 -0.067442
v 0.213323 2.278109 0.166857
v 0.365651 2.190296 0.000833
v 0.365651 2.190296 0.000833
v 0.213323 2.278109 0.166857
v 0.213323 2.278109 0.166857
v 0.365651 2.190296 0.000833
v 0.213323 2.278109 0.166857
v 0.428371 2.188639 0.165620
v -0.069071 1.693286 0.237067
v 0.163977 1.794744 0.238469
v 0.095431 1.791996 0.388134
v -0.069071 1.693286 0.237067
v 0.095431 1.791996 0.388134
v -0.069071 1.693286 0.237067
v -0.069071 1.693286 0.237067
v 0.095431 1.791996 0.388134
v -0.070053 1.789501 0.450108
v -0.069071 1.693286 0.237067
v -0.070053 1.789501 0.450108
v -0.069071 1.693286 0.237067
v -0.069071 1.693286 0.237067
v -0.070053 1.789501 0.450108
v -0.235536 1.788720 0.388088
v -0.069071 1.693286 0.237067
v -0.235536 1.788720 0.388088
v -0.069071 1.693286 0.237067
v -0.069071 1.693286 0.237067
v -0.235536 1.788720 0.388088
v -0.304082 1.790110 0.238405
v -0.069071 1.693286 0.237067
v -0.304082 1.790110 0.238405
v -0.069071 1.693286 0.237067
v -0.069071 1.693286 0.237067
v -0.304082 1.790110 0.238405
v -0.235536 1.792858 0.088741
v -0.069071 1.693286 0.237067
v -0.235536 1.792858 0.088741
v -0.069071 1.693286 0.237067
v -0.069071 1.693286 0.237067
v -0.235536 1.792858 0.088741
v -0.070053 1.795354 0.026766
v -0.069071 1.693286 0.237067
v -0.070053 1.795354 0.026766
v -0.069071 1.693286 0.237067
v -0.069071 1.693286 0.237067
v -0.070053 1.795354 0.026766
v 0.095431 1.796135 0.088786
v -0.069071 1.693286 0.237067
v 0.095431 1.796135 0.088786
v -0.069071 1.693286 0.237067
v -0.069071 1.693286 0.237067
v 0.095431 1.796135 0.088786
v 0.163977 1.794744 0.238469
v -0.069071 1.693286 0.237067
v 0.163977 1.794744 0.238469
v -0.069071 1.693286 0.237067
v 0.163977 1.794744 0.238469
v 0.258545 2.035052 0.241791
v 0.161607 2.031166 0.453449
v 0.163977 1.794744 0.238469
v 0.161607 2.031166 0.453449
v 0.095431 1.791996 0.388134
v 0.095431 1.791996 0.388134
v 0.161607 2.031166 0.453449
v -0.072423 2.027637 0.541094
v 0.095431 1.791996 0.388134
v -0.072423 2.027637 0.541094
v -0.070053 1.789501 0.450108
v -0.070053 1.789501 0.450108
v -0.072423 2.027637 0.541094
v -0.306452 2.026532 0.453385
v -0.070053 1.789501 0.450108
v -0.306452 2.026532 0.453385
v -0.235536 1.788720 0.388088
v -0.235536 1.788720 0.388088
v -0.306452 2.026532 0.453385
v -0.403390 2.028499 0.241701
v -0.235536 1.788720 0.388088
v -0.403390 2.028499 0.241701
v -0.304082 1.790110 0.238405
v -0.304082 1.790110 0.238405
v -0.403390 2.028499 0.241701
v -0.306452 2.032385 0.030043
v -0.304082 1.790110 0.238405
v -0.306452 2.032385 0.030043
v -0.235536 1.792858 0.088741
v -0.235536 1.792858 0.088741
v -0.306452 2.032385 0.030043
v -0.072423 2.035914 -0.057602
v -0.235536 1.792858 0.088741
v -0.072423 2.035914 -0.057602
v -0.070053 1.795354 0.026766
v -0.070053 1.795354 0.026766
v -0.072423 2.035914 -0.057602
v 0.161607 2.037018 0.030107
v -0.070053 1.795354 0.026766
v 0.161607 2.037018 0.030107
v 0.095431 1.796135 0.088786
v 0.095431 1.796135 0.088786
v 0.161607 2.037018 0.030107
v 0.258545 2.035052 0.241791
v 0.095431 1.796135 0.088786
v 0.258545 2.035052 0.241791
v 0.163977 1.794744 0.238469
v 0.258545 2.035052 0.241791
v 0.159237 2.273440 0.245087
v 0.090691 2.270692 0.394751
v 0.258545 2.035052 0.241791
v 0.090691 2.270692 0.394751
v 0.161607 2.031166 0.453449
v 0.161607 2.031166 0.453449
v 0.090691 2.270692 0.394751
v -0.074793 2.268197 0.456726
v 0.161607 2.031166 0.453449
v -0.074793 2.268197 0.456726
v -0.072423 2.027637 0.541094
v -0.072423 2.027637 0.541094
v -0.074793 2.268197 0.456726
v -0.240276 2.267416 0.394706
v -0.072423 2.027637 0.541094
v -0.240276 2.267416 0.394706
v -0.306452 2.026532 0.453385
v -0.306452 2.026532 0.453385
v -0.240276 2.267416 0.394706
v -0.308822 2.268806 0.245023
v -0.306452 2.026532 0.453385
v -0.308822 2.268806 0.245023
v -0.403390 2.028499 0.241701
v -0.403390 2.028499 0.241701
v -0.308822 2.268806 0.245023
v -0.240276 2.271554 0.095358
v -0.403390 2.028499 0.241701
v -0.240276 2.271554 0.095358
v -0.306452 2.032385 0.030043
v -0.306452 2.032385 0.030043
v -0.240276 2.271554 0.095358
v -0.074793 2.274050 0.033384
v -0.306452 2.032385 0.030043
v -0.074793 2.274050 0.033384
v -0.072423 2.035914 -0.057602
v -0.072423 2.035914 -0.057602
v -0.074793 2.274050 0.033384
v 0.090691 2.274831 0.095404
v -0.072423 2.035914 -0.057602
v 0.090691 2.274831 0.095404
v 0.161607 2.037018 0.030107
v 0.161607 2.037018 0.030107
v 0.090691 2.274831 0.095404
v 0.159237 2.273440 0.245087
v 0.161607 2.037018 0.030107
v 0.159237 2.273440 0.245087
v 0.258545 2.035052 0.241791
v 0.159237 2.273440 0.245087
v -0.075774 2.370265 0.246426
v -0.075774 2.370265 0.246426
v 0.159237 2.273440 0.245087
v -0.075774 2.370265 0.246426
v 0.090691 2.270692 0.394751
v 0.090691 2.270692 0.394751
v -0.075774 2.370265 0.246426
v -0.075774 2.370265 0.246426
v 0.090691 2.270692 0.394751
v -0.075774 2.370265 0.246426
v -0.074793 2.268197 0.456726
v -0.074793 2.268197 0.456726
v -0.075774 2.370265 0.246426
v -0.075774 2.370265 0.246426
v -0.074793 2.268197 0.456726
v -0.075774 2.370265 0.246426
v -0.240276 2.267416 0.394706
v -0.240276 2.267416 0.394706
v -0.075774 2.370265 0.246426
v -0.075774 2.370265 0.246426
v -0.240276 2.267416 0.394706
v -0.075774 2.370265 0.246426
v -0.308822 2.268806 0.245023
v -0.308822 2.268806 0.245023
v -0.075774 2.370265 0.246426
v -0.075774 2.370265 0.246426
v -0.308822 2.268806 0.245023
v -0.075774 2.370265 0.246426
v -0.240276 2.271554 0.095358
v -0.240276 2.271554 0.095358
v -0.075774 2.370265 0.246426
v -0.075774 2.370265 0.246426
v -0.240276 2.271554 0.095358
v -0.075774 2.370265 0.246426
v -0.074793 2.274050 0.033384
v -0.074793 2.274050 0.033384
v -0.075774 2.370265 0.246426
v -0.075774 2.370265 0.246426
v -0.074793 2.274050 0.033384
v -0.075774 2.370265 0.246426
v 0.090691 2.274831 0.095404
v 0.090691 2.274831 0.095404
v -0.075774 2.370265 0.246426
v -0.075774 2.370265 0.246426
v 0.090691 2.274831 0.095404
v -0.075774 2.370265 0.246426
v 0.159237 2.273440 0.245087
v -0.192834 1.851390 -0.107261
v 0.060347 1.928379 -0.106196
v -0.014024 1.925258 0.066287
v -0.192834 1.851390 -0.107261
v -0.014024 1.925258 0.066287
v -0.192834 1.851390 -0.107261
v -0.192834 1.851390 -0.107261
v -0.014024 1.925258 0.066287
v -0.193571 1.922493 0.137712
v -0.192834 1.851390 -0.107261
v -0.193571 1.922493 0.137712
v -0.192834 1.851390 -0.107261
v -0.192834 1.851390 -0.107261
v -0.193571 1.922493 0.137712
v -0.373118 1.921703 0.066238
v -0.192834 1.851390 -0.107261
v -0.373118 1.921703 0.066238
v -0.192834 1.851390 -0.107261
v -0.192834 1.851390 -0.107261
v -0.373118 1.921703 0.066238
v -0.447489 1.923352 -0.106266
v -0.192834 1.851390 -0.107261
v -0.447489 1.923352 -0.106266
v -0.192834 1.851390 -0.107261
v -0.192834 1.851390 -0.107261
v -0.447489 1.923352 -0.106266
v -0.373118 1.926472 -0.278749
v -0.192834 1.851390 -0.107261
v -0.373118 1.926472 -0.278749
v -0.192834 1.851390 -0.107261
v -0.192834 1.851390 -0.107261
v -0.373118 1.926472 -0.278749
v -0.193571 1.929238 -0.350174
v -0.192834 1.851390 -0.107261
v -0.193571 1.929238 -0.350174
v -0.192834 1.851390 -0.107261
v -0.192834 1.851390 -0.107261
v -0.193571 1.929238 -0.350174
v -0.014024 1.930027 -0.278700
v -0.192834 1.851390 -0.107261
v -0.014024 1.930027 -0.278700
v -0.192834 1.851390 -0.107261
v -0.192834 1.851390 -0.107261
v -0.014024 1.930027 -0.278700
v 0.060347 1.928379 -0.106196
v -0.192834 1.851390 -0.107261
v 0.060347 1.928379 -0.106196
v -0.192834 1.851390 -0.107261
v 0.060347 1.928379 -0.106196
v 0.163743 2.109219 -0.103696
v 0.058567 2.104806 0.140232
v 0.060347 1.928379 -0.106196
v 0.058567 2.104806 0.140232
v -0.014024 1.925258 0.066287
v -0.014024 1.925258 0.066287
v 0.058567 2.104806 0.140232
v -0.195351 2.100895 0.241242
v -0.014024 1.925258 0.066287
v -0.195351 2.100895 0.241242
v -0.193571 1.922493 0.137712
v -0.193571 1.922493 0.137712
v -0.195351 2.100895 0.241242
v -0.449270 2.099778 0.140163
v -0.193571 1.922493 0.137712
v -0.449270 2.099778 0.140163
v -0.373118 1.921703 0.066238
v -0.373118 1.921703 0.066238
v -0.449270 2.099778 0.140163
v -0.554446 2.102109 -0.103795
v -0.373118 1.921703 0.066238
v -0.554446 2.102109 -0.103795
v -0.447489 1.923352 -0.106266
v -0.447489 1.923352 -0.106266
v -0.554446 2.102109 -0.103795
v -0.449270 2.106523 -0.347723
v -0.447489 1.923352 -0.106266
v -0.449270 2.106523 -0.347723
v -0.373118 1.926472 -0.278749
v -0.373118 1.926472 -0.278749
v -0.449270 2.106523 -0.347723
v -0.195351 2.110434 -0.448733
v -0.373118 1.926472 -0.278749
v -0.195351 2.110434 -0.448733
v -0.193571 1.929238 -0.350174
v -0.193571 1.929238 -0.350174
v -0.195351 2.110434 -0.448733
v 0.058567 2.111551 -0.347654
v -0.193571 1.929238 -0.350174
v 0.058567 2.111551 -0.347654
v -0.014024 1.930027 -0.278700
v -0.014024 1.930027 -0.278700
v 0.058567 2.111551 -0.347654
v 0.163743 2.109219 -0.103696
v -0.014024 1.930027 -0.278700
v 0.163743 2.109219 -0.103696
v 0.060347 1.928379 -0.106196
v 0.163743 2.109219 -0.103696
v 0.056786 2.287977 -0.101225
v -0.017585 2.284856 0.071258
v 0.163743 2.109219 -0.103696
v -0.017585 2.284856 0.071258
v 0.058567 2.104806 0.140232
v 0.058567 2.104806 0.140232
v -0.017585 2.284856 0.071258
v -0.197132 2.282091 0.142683
v 0.058567 2.104806 0.140232
v -0.197132 2.282091 0.142683
v -0.195351 2.100895 0.241242
v -0.195351 2.100895 0.241242
v -0.197132 2.282091 0.142683
v -0.376679 2.281301 0.071209
v -0.195351 2.100895 0.241242
v -0.376679 2.281301 0.071209
v -0.449270 2.099778 0.140163
v -0.449270 2.099778 0.140163
v -0.376679 2.281301 0.071209
v -0.451050 2.282949 -0.101295
v -0.449270 2.099778 0.140163
v -0.451050 2.282949 -0.101295
v -0.554446 2.102109 -0.103795
v -0.554446 2.102109 -0.103795
v -0.451050 2.282949 -0.101295
v -0.376679 2.286070 -0.273778
v -0.554446 2.102109 -0.103795
v -0.376679 2.286070 -0.273778
v -0.449270 2.106523 -0.347723
v -0.449270 2.106523 -0.347723
v -0.376679 2.286070 -0.273778
v -0.197132 2.288836 -0.345203
v -0.449270 2.106523 -0.347723
v -0.197132 2.288836 -0.345203
v -0.195351 2.110434 -0.448733
v -0.195351 2.110434 -0.448733
v -0.197132 2.288836 -0.345203
v -0.017585 2.289625 -0.273729
v -0.195351 2.110434 -0.448733
v -0.017585 2.289625 -0.273729
v 0.058567 2.111551 -0.347654
v 0.058567 2.111551 -0.347654
v -0.017585 2.289625 -0.273729
v 0.056786 2.287977 -0.101225
v 0.058567 2.111551 -0.347654
v 0.056786 2.287977 -0.101225
v 0.163743 2.109219 -0.103696
v 0.056786 2.287977 -0.101225
v -0.197869 2.359939 -0.100230
v -0.197869 2.359939 -0.100230
v 0.056786 2.287977 -0.101225
v -0.197869 2.359939 -0.100230
v -0.017585 2.284856 0.071258
v -0.017585 2.284856 0.071258
v -0.197869 2.359939 -0.100230
v -0.197869 2.359939 -0.100230
v -0.017585 2.284856 0.071258
v -0.197869 2.359939 -0.100230
v -0.197132 2.282091 0.142683
v -0.197132 2.282091 0.142683
v -0.197869 2.359939 -0.100230
v -0.197869 2.359939 -0.100230
v -0.197132 2.282091 0.142683
v -0.197869 2.359939 -0.100230
v -0.376679 2.281301 0.071209
v -0.376679 2.281301 0.071209
v -0.197869 2.359939 -0.100230
v -0.197869 2.359939 -0.100230
v -0.376679 2.281301 0.071209
v -0.197869 2.359939 -0.100230
v -0.451050 2.282949 -0.101295
v -0.451050 2.282949 -0.101295
v -0.197869 2.359939 -0.100230
v -0.197869 2.359939 -0.100230
v -0.451050 2.282949 -0.101295
v -0.197869 2.359939 -0.100230
v -0.376679 2.286070 -0.273778
v -0.376679 2.286070 -0.273778
v -0.197869 2.359939 -0.100230
v -0.197869 2.359939 -0.100230
v -0.376679 2.286070 -0.273778
v -0.197869 2.359939 -0.100230
v -0.197132 2.288836 -0.345203
v -0.197132 2.288836 -0.345203
v -0.197869 2.359939 -0.100230
v -0.197869 2.359939 -0.100230
v -0.197132 2.288836 -0.345203
v -0.197869 2.359939 -0.100230
v -0.017585 2.289625 -0.273729
v -0.017585 2.289625 -0.273729
v -0.197869 2.359939 -0.100230
v -0.197869 2.359939 -0.100230
v -0.017585 2.289625 -0.273729
v -0.197869 2.359939 -0.100230
v 0.056786 2.287977 -0.101225
v 0.207994 1.602340 -0.288922
v 0.396131 1.686236 -0.287763
v 0.340789 1.683810 -0.151895
v 0.207994 1.602340 -0.288922
v 0.340789 1.683810 -0.151895
v 0.207994 1.602340 -0.288922
v 0.207994 1.602340 -0.288922
v 0.340789 1.683810 -0.151895
v 0.207181 1.681709 -0.095633
v 0.207994 1.602340 -0.288922
v 0.207181 1.681709 -0.095633
v 0.207994 1.602340 -0.288922
v 0.207994 1.602340 -0.288922
v 0.207181 1.681709 -0.095633
v 0.073574 1.681165 -0.151932
v 0.207994 1.602340 -0.288922
v 0.073574 1.681165 -0.151932
v 0.207994 1.602340 -0.288922
v 0.207994 1.602340 -0.288922
v 0.073574 1.681165 -0.151932
v 0.018232 1.682495 -0.287814
v 0.207994 1.602340 -0.288922
v 0.018232 1.682495 -0.287814
v 0.207994 1.602340 -0.288922
v 0.207994 1.602340 -0.288922
v 0.018232 1.682495 -0.287814
v 0.073574 1.684921 -0.423681
v 0.207994 1.602340 -0.288922
v 0.073574 1.684921 -0.423681
v 0.207994 1.602340 -0.288922
v 0.207994 1.602340 -0.288922
v 0.073574 1.684921 -0.423681
v 0.207181 1.687022 -0.479944
v 0.207994 1.602340 -0.288922
v 0.207181 1.687022 -0.479944
v 0.207994 1.602340 -0.288922
v 0.207994 1.602340 -0.288922
v 0.207181 1.687022 -0.479944
v 0.340789 1.687567 -0.423645
v 0.207994 1.602340 -0.288922
v 0.340789 1.687567 -0.423645
v 0.207994 1.602340 -0.288922
v 0.207994 1.602340 -0.288922
v 0.340789 1.687567 -0.423645
v 0.396131 1.686236 -0.287763
v 0.207994 1.602340 -0.288922
v 0.396131 1.686236 -0.287763
v 0.207994 1.602340 -0.288922
v 0.396131 1.686236 -0.287763
v 0.472435 1.885039 -0.285014
v 0.394170 1.881608 -0.092869
v 0.396131 1.686236 -0.287763
v 0.394170 1.881608 -0.092869
v 0.340789 1.683810 -0.151895
v 0.340789 1.683810 -0.151895
v 0.394170 1.881608 -0.092869
v 0.205220 1.878637 -0.013302
v 0.340789 1.683810 -0.151895
v 0.205220 1.878637 -0.013302
v 0.207181 1.681709 -0.095633
v 0.207181 1.681709 -0.095633
v 0.205220 1.878637 -0.013302
v 0.016271 1.877867 -0.092921
v 0.207181 1.681709 -0.095633
v 0.016271 1.877867 -0.092921
v 0.073574 1.681165 -0.151932
v 0.073574 1.681165 -0.151932
v 0.016271 1.877867 -0.092921
v -0.061994 1.879749 -0.285087
v 0.073574 1.681165 -0.151932
v -0.061994 1.879749 -0.285087
v 0.018232 1.682495 -0.287814
v 0.018232 1.682495 -0.287814
v -0.061994 1.879749 -0.285087
v 0.016271 1.883180 -0.477232
v 0.018232 1.682495 -0.287814
v 0.016271 1.883180 -0.477232
v 0.073574 1.684921 -0.423681
v 0.073574 1.684921 -0.423681
v 0.016271 1.883180 -0.477232
v 0.205220 1.886151 -0.556800
v 0.073574 1.684921 -0.423681
v 0.205220 1.886151 -0.556800
v 0.207181 1.687022 -0.479944
v 0.207181 1.687022 -0.479944
v 0.205220 1.886151 -0.556800
v 0.394170 1.886921 -0.477181
v 0.207181 1.687022 -0.479944
v 0.394170 1.886921 -0.477181
v 0.340789 1.687567 -0.423645
v 0.340789 1.687567 -0.423645
v 0.394170 1.886921 -0.477181
v 0.472435 1.885039 -0.285014
v 0.340789 1.687567 -0.423645
v 0.472435 1.885039 -0.285014
v 0.396131 1.686236 -0.287763
v 0.472435 1.885039 -0.285014
v 0.392209 2.082293 -0.282287
v 0.336867 2.079867 -0.146420
v 0.472435 1.885039 -0.285014
v 0.336867 2.079867 -0.146420
v 0.394170 1.881608 -0.092869
v 0.394170 1.881608 -0.092869
v 0.336867 2.079867 -0.146420
v 0.203260 2.077766 -0.090157
v 0.394170 1.881608 -0.092869
v 0.203260 2.077766 -0.090157
v 0.205220 1.878637 -0.013302
v 0.205220 1.878637 -0.013302
v 0.203260 2.077766 -0.090157
v 0.069652 2.077221 -0.146457
v 0.205220 1.878637 -0.013302
v 0.069652 2.077221 -0.146457
v 0.016271 1.877867 -0.092921
v 0.016271 1.877867 -0.092921
v 0.069652 2.077221 -0.146457
v 0.014310 2.078552 -0.282339
v 0.016271 1.877867 -0.092921
v 0.014310 2.078552 -0.282339
v -0.061994 1.879749 -0.285087
v -0.061994 1.879749 -0.285087
v 0.014310 2.078552 -0.282339
v 0.069652 2.080978 -0.418206
v -0.061994 1.879749 -0.285087
v 0.069652 2.080978 -0.418206
v 0.016271 1.883180 -0.477232
v 0.016271 1.883180 -0.477232
v 0.069652 2.080978 -0.418206
v 0.203260 2.083079 -0.474469
v 0.016271 1.883180 -0.477232
v 0.203260 2.083079 -0.474469
v 0.205220 1.886151 -0.556800
v 0.205220 1.886151 -0.556800
v 0.203260 2.083079 -0.474469
v 0.336867 2.083624 -0.418169
v 0.205220 1.886151 -0.556800
v 0.336867 2.083624 -0.418169
v 0.394170 1.886921 -0.477181
v 0.394170 1.886921 -0.477181
v 0.336867 2.083624 -0.418169
v 0.392209 2.082293 -0.282287
v 0.394170 1.886921 -0.477181
v 0.392209 2.082293 -0.282287
v 0.472435 1.885039 -0.285014
v 0.392209 2.082293 -0.282287
v 0.202447 2.162449 -0.281179
v 0.202447 2.162449 -0.281179
v 0.392209 2.082293 -0.282287
v 0.202447 2.162449 -0.281179
v 0.336867 2.079867 -0.146420
v 0.336867 2.079867 -0.146420
v 0.202447 2.162449 -0.281179
v 0.202447 2.162449 -0.281179
v 0.336867 2.079867 -0.146420
v 0.202447 2.162449 -0.281179
v 0.203260 2.077766 -0.090157
v 0.203260 2.077766 -0.090157
v 0.202447 2.162449 -0.281179
v 0.202447 2.162449 -0.281179
v 0.203260 2.077766 -0.090157
v 0.202447 2.162449 -0.281179
v 0.069652 2.077221 -0.146457
v 0.069652 2.077221 -0.146457
v 0.202447 2.162449 -0.281179
v 0.202447 2.162449 -0.281179
v 0.069652 2.077221 -0.146457
v 0.202447 2.162449 -0.281179
v 0.014310 2.078552 -0.282339
v 0.014310 2.078552 -0.282339
v 0.202447 2.162449 -0.281179
v 0.202447 2.162449 -0.281179
v 0.014310 2.078552 -0.282339
v 0.202447 2.162449 -0.281179
v 0.069652 2.080978 -0.418206
v 0.069652 2.080978 -0.418206
v 0.202447 2.162449 -0.281179
v 0.202447 2.162449 -0.281179
v 0.069652 2.080978 -0.418206
v 0.202447 2.162449 -0.281179
v 0.203260 2.083079 -0.474469
v 0.203260 2.083079 -0.474469
v 0.202447 2.162449 -0.281179
v 0.202447 2.162449 -0.281179
v 0.203260 2.083079 -0.474469
v 0.202447 2.162449 -0.281179
v 0.336867 2.083624 -0.418169
v 0.336867 2.083624 -0.418169
v 0.202447 2.162449 -0.281179
v 0.202447 2.162449 -0.281179
v 0.336867 2.083624 -0.418169
v 0.202447 2.162449 -0.281179
v 0.392209 2.082293 -0.282287
v 0.243008 1.642027 0.087305
v 0.450959 1.733672 0.088572
v 0.389792 1.730875 0.247047
v 0.243008 1.642027 0.087305
v 0.389792 1.730875 0.247047
v 0.243008 1.642027 0.087305
v 0.243008 1.642027 0.087305
v 0.389792 1.730875 0.247047
v 0.242121 1.728506 0.312673
v 0.243008 1.642027 0.087305
v 0.242121 1.728506 0.312673
v 0.243008 1.642027 0.087305
v 0.243008 1.642027 0.087305
v 0.242121 1.728506 0.312673
v 0.094450 1.727951 0.247007
v 0.243008 1.642027 0.087305
v 0.094450 1.727951 0.247007
v 0.243008 1.642027 0.087305
v 0.243008 1.642027 0.087305
v 0.094450 1.727951 0.247007
v 0.033283 1.729537 0.088515
v 0.243008 1.642027 0.087305
v 0.033283 1.729537 0.088515
v 0.243008 1.642027 0.087305
v 0.243008 1.642027 0.087305
v 0.033283 1.729537 0.088515
v 0.094450 1.732333 -0.069960
v 0.243008 1.642027 0.087305
v 0.094450 1.732333 -0.069960
v 0.243008 1.642027 0.087305
v 0.243008 1.642027 0.087305
v 0.094450 1.732333 -0.069960
v 0.242121 1.734703 -0.135586
v 0.243008 1.642027 0.087305
v 0.242121 1.734703 -0.135586
v 0.243008 1.642027 0.087305
v 0.243008 1.642027 0.087305
v 0.242121 1.734703 -0.135586
v 0.389792 1.735257 -0.069920
v 0.243008 1.642027 0.087305
v 0.389792 1.735257 -0.069920
v 0.243008 1.642027 0.087305
v 0.243008 1.642027 0.087305
v 0.389792 1.735257 -0.069920
v 0.450959 1.733672 0.088572
v 0.243008 1.642027 0.087305
v 0.450959 1.733672 0.088572
v 0.243008 1.642027 0.087305
v 0.450959 1.733672 0.088572
v 0.535321 1.950786 0.091574
v 0.448818 1.946831 0.315691
v 0.450959 1.733672 0.088572
v 0.448818 1.946831 0.315691
v 0.389792 1.730875 0.247047
v 0.389792 1.730875 0.247047
v 0.448818 1.946831 0.315691
v 0.239980 1.943480 0.408500
v 0.389792 1.730875 0.247047
v 0.239980 1.943480 0.408500
v 0.242121 1.728506 0.312673
v 0.242121 1.728506 0.312673
v 0.239980 1.943480 0.408500
v 0.031142 1.942696 0.315634
v 0.242121 1.728506 0.312673
v 0.031142 1.942696 0.315634
v 0.094450 1.727951 0.247007
v 0.094450 1.727951 0.247007
v 0.031142 1.942696 0.315634
v -0.055362 1.944938 0.091493
v 0.094450 1.727951 0.247007
v -0.055362 1.944938 0.091493
v 0.033283 1.729537 0.088515
v 0.033283 1.729537 0.088515
v -0.055362 1.944938 0.091493
v 0.031142 1.948893 -0.132625
v 0.033283 1.729537 0.088515
v 0.031142 1.948893 -0.132625
v 0.094450 1.732333 -0.069960
v 0.094450 1.732333 -0.069960
v 0.031142 1.948893 -0.132625
v 0.239980 1.952244 -0.225434
v 0.094450 1.732333 -0.069960
v 0.239980 1.952244 -0.225434
v 0.242121 1.734703 -0.135586
v 0.242121 1.734703 -0.135586
v 0.239980 1.952244 -0.225434
v 0.448818 1.953028 -0.132568
v 0.242121 1.734703 -0.135586
v 0.448818 1.953028 -0.132568
v 0.389792 1.735257 -0.069920
v 0.389792 1.735257 -0.069920
v 0.448818 1.953028 -0.132568
v 0.535321 1.950786 0.091574
v 0.389792 1.735257 -0.069920
v 0.535321 1.950786 0.091574
v 0.450959 1.733672 0.088572
v 0.535321 1.950786 0.091574
v 0.446676 2.166188 0.094552
v 0.385509 2.163391 0.253027
v 0.535321 1.950786 0.091574
v 0.385509 2.163391 0.253027
v 0.448818 1.946831 0.315691
v 0.448818 1.946831 0.315691
v 0.385509 2.163391 0.253027
v 0.237838 2.161022 0.318652
v 0.448818 1.946831 0.315691
v 0.237838 2.161022 0.318652
v 0.239980 1.943480 0.408500
v 0.239980 1.943480 0.408500
v 0.237838 2.161022 0.318652
v 0.090167 2.160467 0.252986
v 0.239980 1.943480 0.408500
v 0.090167 2.160467 0.252986
v 0.031142 1.942696 0.315634
v 0.031142 1.942696 0.315634
v 0.090167 2.160467 0.252986
v 0.029000 2.162053 0.094494
v 0.031142 1.942696 0.315634
v 0.029000 2.162053 0.094494
v -0.055362 1.944938 0.091493
v -0.055362 1.944938 0.091493
v 0.029000 2.162053 0.094494
v 0.090167 2.164849 -0.063981
v -0.055362 1.944938 0.091493
v 0.090167 2.164849 -0.063981
v 0.031142 1.948893 -0.132625
v 0.031142 1.948893 -0.132625
v 0.090167 2.164849 -0.063981
v 0.237838 2.167219 -0.129607
v 0.031142 1.948893 -0.132625
v 0.237838 2.167219 -0.129607
v 0.239980 1.952244 -0.225434
v 0.239980 1.952244 -0.225434
v 0.237838 2.167219 -0.129607
v 0.385509 2.167773 -0.063940
v 0.239980 1.952244 -0.225434
v 0.385509 2.167773 -0.063940
v 0.448818 1.953028 -0.132568
v 0.448818 1.953028 -0.132568
v 0.385509 2.167773 -0.063940
v 0.446676 2.166188 0.094552
v 0.448818 1.953028 -0.132568
v 0.446676 2.166188 0.094552
v 0.535321 1.950786 0.091574
v 0.446676 2.166188 0.094552
v 0.236951 2.253697 0.095761
v 0.236951 2.253697 0.095761
v 0.446676 2.166188 0.094552
v 0.236951 2.253697 0.095761
v 0.385509 2.163391 0.253027
v 0.385509 2.163391 0.253027
v 0.236951 2.253697 0.095761
v 0.236951 2.253697 0.095761
v 0.385509 2.163391 0.253027
v 0.236951 2.253697 0.095761
v 0.237838 2.161022 0.318652
v 0.237838 2.161022 0.318652
v 0.236951 2.253697 0.095761
v 0.236951 2.253697 0.095761
v 0.237838 2.161022 0.318652
v 0.236951 2.253697 0.095761
v 0.090167 2.160467 0.252986
v 0.090167 2.160467 0.252986
v 0.236951 2.253697 0.095761
v 0.236951 2.253697 0.095761
v 0.090167 2.160467 0.252986
v 0.236951 2.253697 0.095761
v 0.029000 2.162053 0.094494
v 0.029000 2.162053 0.094494
v 0.236951 2.253697 0.095761
v 0.236951 2.253697 0.095761
v 0.029000 2.162053 0.094494
v 0.236951 2.253697 0.095761
v 0.090167 2.164849 -0.063981
v 0.090167 2.164849 -0.063981
v 0.236951 2.253697 0.095761
v 0.236951 2.253697 0.095761
v 0.090167 2.164849 -0.063981
v 0.236951 2.253697 0.095761
v 0.237838 2.167219 -0.129607
v 0.237838 2.167219 -0.129607
v 0.236951 2.253697 0.095761
v 0.236951 2.253697 0.095761
v 0.237838 2.167219 -0.129607
v 0.236951 2.253697 0.095761
v 0.385509 2.167773 -0.063940
v 0.385509 2.167773 -0.063940
v 0.236951 2.253697 0.095761
v 0.236951 2.253697 0.095761
v 0.385509 2.167773 -0.063940
v 0.236951 2.253697 0.095761
v 0.446676 2.166188 0.094552
f 733 734 735
f 736 737 738
f 739 740 741
f 742 743 744
f 745 746 747
f 748 749 750
f 751 752 753
f 754 755 756
f 757 758 759
f 760 761 762
f 763 764 765
f 766 767 768
f 769 770 771
f 772 773 774
f 775 776 777
f 778 779 780
f 781 782 783
f 784 785 786
f 787 788 789
f 790 791 792
f 793 794 795
f 796 797 798
f 799 800 801
f 802 803 804
f 805 806 807
f 808 809 810
f 811 812 813
f 814 815 816
f 817 818 819
f 820 821 822
f 823 824 825
f 826 827 828
f 829 830 831
f 832 833 834
f 835 836 837
f 838 839 840
f 841 842 843
f 844 845 846
f 847 848 849
f 850 851 852
f 853 854 855
f 856 857 858
f 859 860 861
f 862 863 864
f 865 866 867
f 868 869 870
f 871 872 873
f 874 875 876
f 877 878 879
f 880 881 882
f 883 884 885
f 886 887 888
f 889 890 891
f 892 893 894
f 895 896 897
f 898 899 900
f 901 902 903
f 904 905 906
f 907 908 909
f 910 911 912
f 913 914 915
f 916 917 918
f 919 920 921
f 922 923 924
f 925 926 927
f 928 929 930
f 931 932 933
f 934 935 936
f 937 938 939
f 940 941 942
f 943 944 945
f 946 947 948
f 949 950 951
f 952 953 954
f 955 956 957
f 958 959 960
f 961 962 963
f 964 965 966
f 967 968 969
f 970 971 972
f 973 974 975
f 976 977 978
f 979 980 981
f 982 983 984
f 985 986 987
f 988 989 990
f 991 992 993
f 994 995 996
f 997 998 999
f 1000 1001 1002
f 1003 1004 1005
f 1006 1007 1008
f 1009 1010 1011
f 1012 1013 1014
f 1015 1016 1017
f 1018 1019 1020
f 1021 1022 1023
f 1024 1025 1026
f 1027 1028 1029
f 1030 1031 1032
f 1033 1034 1035
f 1036 1037 1038
f 1039 1040 1041
f 1042 1043 1044
f 1045 1046 1047
f 1048 1049 1050
f 1051 1052 1053
f 1054 1055 1056
f 1057 1058 1059
f 1060 1061 1062
f 1063 1064 1065
f 1066 1067 1068
f 1069 1070 1071
f 1072 1073 1074
f 1075 1076 1077
f 1078 1079 1080
f 1081 1082 1083
f 1084 1085 1086
f 1087 1088 1089
f 1090 1091 1092
f 1093 1094 1095
f 1096 1097 1098
f 1099 1100 1101
f 1102 1103 1104
f 1105 1106 1107
f 1108 1109 1110
f 1111 1112 1113
f 1114 1115 1116
f 1117 1118 1119
f 1120 1121 1122
f 1123 1124 1125
f 1126 1127 1128
f 1129 1130 1131
f 1132 1133 1134
f 1135 1136 1137
f 1138 1139 1140
f 1141 1142 1143
f 1144 1145 1146
f 1147 1148 1149
f 1150 1151 1152
f 1153 1154 1155
f 1156 1157 1158
f 1159 1160 1161
f 1162 1163 1164
f 1165 1166 1167
f 1168 1169 1170
f 1171 1172 1173
f 1174 1175 1176
f 1177 1178 1179
f 1180 1181 1182
f 1183 1184 1185
f 1186 1187 1188
f 1189 1190 1191
f 1192 1193 1194
f 1195 1196 1197
f 1198 1199 1200
f 1201 1202 1203
f 1204 1205 1206
f 1207 1208 1209
f 1210 1211 1212
f 1213 1214 1215
f 1216 1217 1218
f 1219 1220 1221
f 1222 1223 1224
f 1225 1226 1227
f 1228 1229 1230
f 1231 1232 1233
f 1234 1235 1236
f 1237 1238 1239
f 1240 1241 1242
f 1243 1244 1245
f 1246 1247 1248
f 1249 1250 1251
f 1252 1253 1254
f 1255 1256 1257
f 1258 1259 1260
f 1261 1262 1263
f 1264 1265 1266
f 1267 1268 1269
f 1270 1271 1272
f 1273 1274 1275
f 1276 1277 1278
f 1279 1280 1281
f 1282 1283 1284
f 1285 1286 1287
f 1288 1289 1290
f 1291 1292 1293
f 1294 1295 1296
f 1297 1298 1299
f 1300 1301 1302
f 1303 1304 1305
f 1306 1307 1308
f 1309 1310 1311
f 1312 1313 1314
f 1315 1316 1317
f 1318 1319 1320
f 1321 1322 1323
f 1324 1325 1326
f 1327 1328 1329
f 1330 1331 1332
f 1333 1334 1335
f 1336 1337 1338
f 1339 1340 1341
f 1342 1343 1344
f 1345 1346 1347
f 1348 1349 1350
f 1351 1352 1353
f 1354 1355 1356
f 1357 1358 1359
f 1360 1361 1362
f 1363 1364 1365
f 1366 1367 1368
f 1369 1370 1371
f 1372 1373 1374
f 1375 1376 1377
f 1378 1379 1380
f 1381 1382 1383
f 1384 1385 1386
f 1387 1388 1389
f 1390 1391 1392
f 1393 1394 1395
f 1396 1397 1398
f 1399 1400 1401
f 1402 1403 1404
f 1405 1406 1407
f 1408 1409 1410
f 1411 1412 1413
f 1414 1415 1416
f 1417 1418 1419
f 1420 1421 1422
f 1423 1424 1425
f 1426 1427 1428
f 1429 1430 1431
f 1432 1433 1434
f 1435 1436 1437
f 1438 1439 1440
f 1441 1442 1443
f 1444 1445 1446
f 1447 1448 1449
f 1450 1451 1452
f 1453 1454 1455
f 1456 1457 1458
f 1459 1460 1461
f 1462 1463 1464
f 1465 1466 1467
f 1468 1469 1470
f 1471 1472 1473
f 1474 1475 1476
f 1477 1478 1479
f 1480 1481 1482
f 1483 1484 1485
f 1486 1487 1488
f 1489 1490 1491
f 1492 1493 1494
f 1495 1496 1497
f 1498 1499 1500
f 1501 1502 1503
f 1504 1505 1506
f 1507 1508 1509
f 1510 1511 1512
f 1513 1514 1515
f 1516 1517 1518
f 1519 1520 1521
f 1522 1523 1524
f 1525 1526 1527
f 1528 1529 1530
f 1531 1532 1533
f 1534 1535 1536
f 1537 1538 1539
f 1540 1541 1542
f 1543 1544 1545
f 1546 1547 1548
f 1549 1550 1551
f 1552 1553 1554
f 1555 1556 1557
f 1558 1559 1560
f 1561 1562 1563
f 1564 1565 1566
f 1567 1568 1569
f 1570 1571 1572
f 1573 1574 1575
f 1576 1577 1578
f 1579 1580 1581
f 1582 1583 1584
f 1585 1586 1587
f 1588 1589 1590
f 1591 1592 1593
f 1594 1595 1596
f 1597 1598 1599
f 1600 1601 1602
f 1603 1604 1605
f 1606 1607 1608
f 1609 1610 1611
f 1612 1613 1614
f 1615 1616 1617
f 1618 1619 1620
f 1621 1622 1623
f 1624 1625 1626
f 1627 1628 1629
f 1630 1631 1632
f 1633 1634 1635
f 1636 1637 1638
f 1639 1640 1641
f 1642 1643 1644
f 1645 1646 1647
f 1648 1649 1650
f 1651 1652 1653
f 1654 1655 1656
f 1657 1658 1659
f 1660 1661 1662
f 1663 1664 1665
f 1666 1667 1668
f 1669 1670 1671
f 1672 1673 1674
f 1675 1676 1677
f 1678 1679 1680
f 1681 1682 1683
f 1684 1685 1686
f 1687 1688 1689
f 1690 1691 1692
f 1693 1694 1695
f 1696 1697 1698
f 1699 1700 1701
f 1702 1703 1704
f 1705 1706 1707
f 1708 1709 1710
f 1711 1712 1713
f 1714 1715 1716
f 1717 1718 1719
f 1720 1721 1722
f 1723 1724 1725
f 1726 1727 1728
f 1729 1730 1731
f 1732 1733 1734
f 1735 1736 1737
f 1738 1739 1740
f 1741 1742 1743
f 1744 1745 1746
f 1747 1748 1749
f 1750 1751 1752
f 1753 1754 1755
f 1756 1757 1758
f 1759 1760 1761
f 1762 1763 1764
f 1765 1766 1767
f 1768 1769 1770
f 1771 1772 1773
f 1774 1775 1776
f 1777 1778 1779
f 1780 1781 1782
f 1783 1784 1785
f 1786 1787 1788
f 1789 1790 1791
f 1792 1793 1794
f 1795 1796 1797
f 1798 1799 1800
f 1801 1802 1803
f 1804 1805 1806
f 1807 1808 1809
f 1810 1811 1812
f 1813 1814 1815
f 1816 1817 1818
f 1819 1820 1821
f 1822 1823 1824
f 1825 1826 1827
f 1828 1829 1830
f 1831 1832 1833
f 1834 1835 1836
f 1837 1838 1839
f 1840 1841 1842
f 1843 1844 1845
f 1846 1847 1848
f 1849 1850 1851
f 1852 1853 1854
f 1855 1856 1857
f 1858 1859 1860
f 1861 1862 1863
f 1864 1865 1866
f 1867 1868 1869
f 1870 1871 1872
f 1873 1874 1875
f 1876 1877 1878
f 1879 1880 1881
f 1882 1883 1884
f 1885 1886 1887
f 1888 1889 1890
f 1891 1892 1893
f 1894 1895 1896
f 1897 1898 1899
f 1900 1901 1902
f 1903 1904 1905
f 1906 1907 1908
f 1909 1910 1911
f 1912 1913 1914
f 1915 1916 1917
f 1918 1919 1920
f 1921 1922 1923
f 1924 1925 1926
f 1927 1928 1929
f 1930 1931 1932
f 1933 1934 1935
f 1936 1937 1938
f 1939 1940 1941
f 1942 1943 1944
f 1945 1946 1947
f 1948 1949 1950
f 1951 1952 1953
f 1954 1955 1956
f 1957 1958 1959
f 1960 1961 1962
f 1963 1964 1965
f 1966 1967 1968
f 1969 1970 1971
f 1972 1973 1974
f 1975 1976 1977
f 1978 1979 1980
f 1981 1982 1983
f 1984 1985 1986
f 1987 1988 1989
f 1990 1991 1992
f 1993 1994 1995
f 1996 1997 1998
f 1999 2000 2001
f 2002 2003 2004
f 2005 2006 2007
f 2008 2009 2010
f 2011 2012 2013
f 2014 2015 2016
f 2017 2018 2019
f 2020 2021 2022
f 2023 2024 2025
f 2026 2027 2028
f 2029 2030 2031
f 2032 2033 2034
f 2035 2036 2037
f 2038 2039 2040
f 2041 2042 2043
f 2044 2045 2046
f 2047 2048 2049
f 2050 2051 2052
f 2053 2054 2055
f 2056 2057 2058
f 2059 2060 2061
f 2062 2063 2064
f 2065 2066 2067
f 2068 2069 2070
f 2071 2072 2073
f 2074 2075 2076
