# Pyramida editable prop source
# units: 1 OBJ unit = 1 Pyramida World Unit = 1 Blender metre

o TreeTrunk
v 0.061556 0.074391 0.096705
v 0.238128 0.020872 -0.016977
v 0.240448 0.044247 -0.041478
v 0.061556 0.074391 0.096705
v 0.240448 0.044247 -0.041478
v 0.071707 0.176653 -0.010484
v 0.043495 0.075584 -0.006723
v 0.061556 0.074391 0.096705
v 0.071707 0.176653 -0.010484
v 0.234000 0.021145 -0.040618
v 0.240448 0.044247 -0.041478
v 0.238128 0.020872 -0.016977
v 0.071707 0.176653 -0.010484
v 0.240448 0.044247 -0.041478
v 0.229872 0.021418 -0.064259
v 0.071707 0.176653 -0.010484
v 0.229872 0.021418 -0.064259
v 0.025434 0.076778 -0.110151
v 0.043495 0.075584 -0.006723
v 0.071707 0.176653 -0.010484
v 0.025434 0.076778 -0.110151
v 0.234000 0.021145 -0.040618
v 0.229872 0.021418 -0.064259
v 0.240448 0.044247 -0.041478
v 0.025434 0.076778 -0.110151
v 0.229872 0.021418 -0.064259
v 0.227551 -0.001956 -0.039758
v 0.025434 0.076778 -0.110151
v 0.227551 -0.001956 -0.039758
v 0.015282 -0.025484 -0.002963
v 0.043495 0.075584 -0.006723
v 0.025434 0.076778 -0.110151
v 0.015282 -0.025484 -0.002963
v 0.234000 0.021145 -0.040618
v 0.227551 -0.001956 -0.039758
v 0.229872 0.021418 -0.064259
v 0.015282 -0.025484 -0.002963
v 0.227551 -0.001956 -0.039758
v 0.238128 0.020872 -0.016977
v 0.015282 -0.025484 -0.002963
v 0.238128 0.020872 -0.016977
v 0.061556 0.074391 0.096705
v 0.043495 0.075584 -0.006723
v 0.015282 -0.025484 -0.002963
v 0.061556 0.074391 0.096705
v 0.234000 0.021145 -0.040618
v 0.238128 0.020872 -0.016977
v 0.227551 -0.001956 -0.039758
v -0.114972 0.073784 -0.003527
v -0.137195 0.013355 0.232049
v -0.118339 0.036606 0.248044
v -0.114972 0.073784 -0.003527
v -0.118339 0.036606 0.248044
v -0.032477 0.175507 0.066451
v -0.020180 0.074227 0.041631
v -0.114972 0.073784 -0.003527
v -0.032477 0.175507 0.066451
v -0.115528 0.013456 0.242371
v -0.118339 0.036606 0.248044
v -0.137195 0.013355 0.232049
v -0.032477 0.175507 0.066451
v -0.118339 0.036606 0.248044
v -0.093861 0.013557 0.252693
v -0.032477 0.175507 0.066451
v -0.093861 0.013557 0.252693
v 0.074612 0.074669 0.086790
v -0.020180 0.074227 0.041631
v -0.032477 0.175507 0.066451
v 0.074612 0.074669 0.086790
v -0.115528 0.013456 0.242371
v -0.093861 0.013557 0.252693
v -0.118339 0.036606 0.248044
v 0.074612 0.074669 0.086790
v -0.093861 0.013557 0.252693
v -0.112717 -0.009694 0.236698
v 0.074612 0.074669 0.086790
v -0.112717 -0.009694 0.236698
v -0.007882 -0.027054 0.016811
v -0.020180 0.074227 0.041631
v 0.074612 0.074669 0.086790
v -0.007882 -0.027054 0.016811
v -0.115528 0.013456 0.242371
v -0.112717 -0.009694 0.236698
v -0.093861 0.013557 0.252693
v -0.007882 -0.027054 0.016811
v -0.112717 -0.009694 0.236698
v -0.137195 0.013355 0.232049
v -0.007882 -0.027054 0.016811
v -0.137195 0.013355 0.232049
v -0.114972 0.073784 -0.003527
v -0.020180 0.074227 0.041631
v -0.007882 -0.027054 0.016811
v -0.114972 0.073784 -0.003527
v -0.115528 0.013456 0.242371
v -0.137195 0.013355 0.232049
v -0.112717 -0.009694 0.236698
v 0.068928 0.076981 -0.089430
v -0.124782 0.020288 -0.272288
v -0.148562 0.043344 -0.264876
v 0.068928 0.076981 -0.089430
v -0.148562 0.043344 -0.264876
v -0.035108 0.177852 -0.057005
v -0.022757 0.075275 -0.038286
v 0.068928 0.076981 -0.089430
v -0.035108 0.177852 -0.057005
v -0.145739 0.019898 -0.260598
v -0.148562 0.043344 -0.264876
v -0.124782 0.020288 -0.272288
v -0.035108 0.177852 -0.057005
v -0.148562 0.043344 -0.264876
v -0.166695 0.019508 -0.248908
v -0.035108 0.177852 -0.057005
v -0.166695 0.019508 -0.248908
v -0.114443 0.073569 0.012859
v -0.022757 0.075275 -0.038286
v -0.035108 0.177852 -0.057005
v -0.114443 0.073569 0.012859
v -0.145739 0.019898 -0.260598
v -0.166695 0.019508 -0.248908
v -0.148562 0.043344 -0.264876
v -0.114443 0.073569 0.012859
v -0.166695 0.019508 -0.248908
v -0.142916 -0.003548 -0.256319
v -0.114443 0.073569 0.012859
v -0.142916 -0.003548 -0.256319
v -0.010407 -0.027302 -0.019566
v -0.022757 0.075275 -0.038286
v -0.114443 0.073569 0.012859
v -0.010407 -0.027302 -0.019566
v -0.145739 0.019898 -0.260598
v -0.142916 -0.003548 -0.256319
v -0.166695 0.019508 -0.248908
v -0.010407 -0.027302 -0.019566
v -0.142916 -0.003548 -0.256319
v -0.124782 0.020288 -0.272288
v -0.010407 -0.027302 -0.019566
v -0.124782 0.020288 -0.272288
v 0.068928 0.076981 -0.089430
v -0.022757 0.075275 -0.038286
v -0.010407 -0.027302 -0.019566
v 0.068928 0.076981 -0.089430
v -0.145739 0.019898 -0.260598
v -0.124782 0.020288 -0.272288
v -0.142916 -0.003548 -0.256319
v -0.000093 0.010531 -0.159653
v 0.014443 1.008091 -0.065468
v 0.128496 1.002113 0.000047
v -0.000093 0.010531 -0.159653
v 0.128496 1.002113 0.000047
v 0.138503 0.003266 -0.080039
v 0.000000 0.000000 0.000000
v -0.000093 0.010531 -0.159653
v 0.138503 0.003266 -0.080039
v 0.138503 0.003266 -0.080039
v 0.128496 1.002113 0.000047
v 0.128573 0.993447 0.131429
v 0.138503 0.003266 -0.080039
v 0.128573 0.993447 0.131429
v 0.138596 -0.007264 0.079614
v 0.000000 0.000000 0.000000
v 0.138503 0.003266 -0.080039
v 0.138596 -0.007264 0.079614
v 0.138596 -0.007264 0.079614
v 0.128573 0.993447 0.131429
v 0.014596 0.990759 0.197294
v 0.138596 -0.007264 0.079614
v 0.014596 0.990759 0.197294
v 0.000093 -0.010531 0.159653
v 0.000000 0.000000 0.000000
v 0.138596 -0.007264 0.079614
v 0.000093 -0.010531 0.159653
v 0.000093 -0.010531 0.159653
v 0.014596 0.990759 0.197294
v -0.099457 0.996737 0.131778
v 0.000093 -0.010531 0.159653
v -0.099457 0.996737 0.131778
v -0.138503 -0.003266 0.080039
v 0.000000 0.000000 0.000000
v 0.000093 -0.010531 0.159653
v -0.138503 -0.003266 0.080039
v -0.138503 -0.003266 0.080039
v -0.099457 0.996737 0.131778
v -0.099533 1.005403 0.000397
v -0.138503 -0.003266 0.080039
v -0.099533 1.005403 0.000397
v -0.138596 0.007264 -0.079614
v 0.000000 0.000000 0.000000
v -0.138503 -0.003266 0.080039
v -0.138596 0.007264 -0.079614
v -0.138596 0.007264 -0.079614
v -0.099533 1.005403 0.000397
v 0.014443 1.008091 -0.065468
v -0.138596 0.007264 -0.079614
v 0.014443 1.008091 -0.065468
v -0.000093 0.010531 -0.159653
v 0.000000 0.000000 0.000000
v -0.138596 0.007264 -0.079614
v -0.000093 0.010531 -0.159653
v 0.014657 0.988845 -0.065328
v 0.065161 1.492302 -0.077437
v 0.154148 1.487541 -0.025126
v 0.014657 0.988845 -0.065328
v 0.154148 1.487541 -0.025126
v 0.128043 0.982779 0.001326
v 0.065054 1.500605 0.025562
v 0.154148 1.487541 -0.025126
v 0.065161 1.492302 -0.077437
v 0.128043 0.982779 0.001326
v 0.154148 1.487541 -0.025126
v 0.154041 1.495844 0.077873
v 0.128043 0.982779 0.001326
v 0.154041 1.495844 0.077873
v 0.127906 0.993359 0.132567
v 0.065054 1.500605 0.025562
v 0.154041 1.495844 0.077873
v 0.154148 1.487541 -0.025126
v 0.127906 0.993359 0.132567
v 0.154041 1.495844 0.077873
v 0.064946 1.508909 0.128562
v 0.127906 0.993359 0.132567
v 0.064946 1.508909 0.128562
v 0.014383 1.010005 0.197154
v 0.065054 1.500605 0.025562
v 0.064946 1.508909 0.128562
v 0.154041 1.495844 0.077873
v 0.014383 1.010005 0.197154
v 0.064946 1.508909 0.128562
v -0.024040 1.513670 0.076251
v 0.014383 1.010005 0.197154
v -0.024040 1.513670 0.076251
v -0.099004 1.016072 0.130499
v 0.065054 1.500605 0.025562
v -0.024040 1.513670 0.076251
v 0.064946 1.508909 0.128562
v -0.099004 1.016072 0.130499
v -0.024040 1.513670 0.076251
v -0.023933 1.505366 -0.026748
v -0.099004 1.016072 0.130499
v -0.023933 1.505366 -0.026748
v -0.098867 1.005492 -0.000741
v 0.065054 1.500605 0.025562
v -0.023933 1.505366 -0.026748
v -0.024040 1.513670 0.076251
v -0.098867 1.005492 -0.000741
v -0.023933 1.505366 -0.026748
v 0.065161 1.492302 -0.077437
v -0.098867 1.005492 -0.000741
v 0.065161 1.492302 -0.077437
v 0.014657 0.988845 -0.065328
v 0.065054 1.500605 0.025562
v 0.065161 1.492302 -0.077437
v -0.023933 1.505366 -0.026748
v 0.063296 1.303240 -0.007366
v -0.397748 1.544115 -0.142733
v -0.396279 1.563325 -0.118453
v 0.063296 1.303240 -0.007366
v -0.396279 1.563325 -0.118453
v 0.066793 1.348978 0.050444
v 0.045067 1.302379 0.041522
v 0.063296 1.303240 -0.007366
v 0.066793 1.348978 0.050444
v -0.405404 1.543754 -0.122200
v -0.396279 1.563325 -0.118453
v -0.397748 1.544115 -0.142733
v 0.066793 1.348978 0.050444
v -0.396279 1.563325 -0.118453
v -0.413060 1.543392 -0.101667
v 0.066793 1.348978 0.050444
v -0.413060 1.543392 -0.101667
v 0.026837 1.301518 0.090410
v 0.045067 1.302379 0.041522
v 0.066793 1.348978 0.050444
v 0.026837 1.301518 0.090410
v -0.405404 1.543754 -0.122200
v -0.413060 1.543392 -0.101667
v -0.396279 1.563325 -0.118453
v 0.026837 1.301518 0.090410
v -0.413060 1.543392 -0.101667
v -0.414529 1.524182 -0.125947
v 0.026837 1.301518 0.090410
v -0.414529 1.524182 -0.125947
v 0.023340 1.255780 0.032600
v 0.045067 1.302379 0.041522
v 0.026837 1.301518 0.090410
v 0.023340 1.255780 0.032600
v -0.405404 1.543754 -0.122200
v -0.414529 1.524182 -0.125947
v -0.413060 1.543392 -0.101667
v 0.023340 1.255780 0.032600
v -0.414529 1.524182 -0.125947
v -0.397748 1.544115 -0.142733
v 0.023340 1.255780 0.032600
v -0.397748 1.544115 -0.142733
v 0.063296 1.303240 -0.007366
v 0.045067 1.302379 0.041522
v 0.023340 1.255780 0.032600
v 0.063296 1.303240 -0.007366
v -0.405404 1.543754 -0.122200
v -0.397748 1.544115 -0.142733
v -0.414529 1.524182 -0.125947
v -0.205512 1.445533 -0.073357
v -0.391642 1.574298 -0.213273
v -0.394367 1.582007 -0.203518
v -0.205512 1.445533 -0.073357
v -0.394367 1.582007 -0.203518
v -0.212781 1.466093 -0.047341
v -0.221316 1.445114 -0.055294
v -0.205512 1.445533 -0.073357
v -0.212781 1.466093 -0.047341
v -0.397567 1.574141 -0.206500
v -0.394367 1.582007 -0.203518
v -0.391642 1.574298 -0.213273
v -0.212781 1.466093 -0.047341
v -0.394367 1.582007 -0.203518
v -0.403493 1.573984 -0.199728
v -0.212781 1.466093 -0.047341
v -0.403493 1.573984 -0.199728
v -0.237119 1.444695 -0.037230
v -0.221316 1.445114 -0.055294
v -0.212781 1.466093 -0.047341
v -0.237119 1.444695 -0.037230
v -0.397567 1.574141 -0.206500
v -0.403493 1.573984 -0.199728
v -0.394367 1.582007 -0.203518
v -0.237119 1.444695 -0.037230
v -0.403493 1.573984 -0.199728
v -0.400767 1.566276 -0.209482
v -0.237119 1.444695 -0.037230
v -0.400767 1.566276 -0.209482
v -0.229850 1.424135 -0.063247
v -0.221316 1.445114 -0.055294
v -0.237119 1.444695 -0.037230
v -0.229850 1.424135 -0.063247
v -0.397567 1.574141 -0.206500
v -0.400767 1.566276 -0.209482
v -0.403493 1.573984 -0.199728
v -0.229850 1.424135 -0.063247
v -0.400767 1.566276 -0.209482
v -0.391642 1.574298 -0.213273
v -0.229850 1.424135 -0.063247
v -0.391642 1.574298 -0.213273
v -0.205512 1.445533 -0.073357
v -0.221316 1.445114 -0.055294
v -0.229850 1.424135 -0.063247
v -0.205512 1.445533 -0.073357
v -0.397567 1.574141 -0.206500
v -0.391642 1.574298 -0.213273
v -0.400767 1.566276 -0.209482
v -0.238603 1.466967 -0.077264
v -0.294413 1.527997 -0.198123
v -0.301925 1.536030 -0.191716
v -0.238603 1.466967 -0.077264
v -0.301925 1.536030 -0.191716
v -0.258638 1.488390 -0.060174
v -0.261440 1.466614 -0.069877
v -0.238603 1.466967 -0.077264
v -0.258638 1.488390 -0.060174
v -0.302976 1.527865 -0.195354
v -0.301925 1.536030 -0.191716
v -0.294413 1.527997 -0.198123
v -0.258638 1.488390 -0.060174
v -0.301925 1.536030 -0.191716
v -0.311538 1.527732 -0.192584
v -0.258638 1.488390 -0.060174
v -0.311538 1.527732 -0.192584
v -0.284277 1.466261 -0.062490
v -0.261440 1.466614 -0.069877
v -0.258638 1.488390 -0.060174
v -0.284277 1.466261 -0.062490
v -0.302976 1.527865 -0.195354
v -0.311538 1.527732 -0.192584
v -0.301925 1.536030 -0.191716
v -0.284277 1.466261 -0.062490
v -0.311538 1.527732 -0.192584
v -0.304026 1.519700 -0.198992
v -0.284277 1.466261 -0.062490
v -0.304026 1.519700 -0.198992
v -0.264242 1.444837 -0.079579
v -0.261440 1.466614 -0.069877
v -0.284277 1.466261 -0.062490
v -0.264242 1.444837 -0.079579
v -0.302976 1.527865 -0.195354
v -0.304026 1.519700 -0.198992
v -0.311538 1.527732 -0.192584
v -0.264242 1.444837 -0.079579
v -0.304026 1.519700 -0.198992
v -0.294413 1.527997 -0.198123
v -0.264242 1.444837 -0.079579
v -0.294413 1.527997 -0.198123
v -0.238603 1.466967 -0.077264
v -0.261440 1.466614 -0.069877
v -0.264242 1.444837 -0.079579
v -0.238603 1.466967 -0.077264
v -0.302976 1.527865 -0.195354
v -0.294413 1.527997 -0.198123
v -0.304026 1.519700 -0.198992
v -0.313142 1.488268 -0.105487
v -0.449767 1.566621 -0.012557
v -0.442008 1.574687 -0.006496
v -0.313142 1.488268 -0.105487
v -0.442008 1.574687 -0.006496
v -0.292445 1.509780 -0.089321
v -0.301564 1.488114 -0.084460
v -0.313142 1.488268 -0.105487
v -0.292445 1.509780 -0.089321
v -0.445427 1.566563 -0.004673
v -0.442008 1.574687 -0.006496
v -0.449767 1.566621 -0.012557
v -0.292445 1.509780 -0.089321
v -0.442008 1.574687 -0.006496
v -0.441086 1.566505 0.003210
v -0.292445 1.509780 -0.089321
v -0.441086 1.566505 0.003210
v -0.289987 1.487959 -0.063433
v -0.301564 1.488114 -0.084460
v -0.292445 1.509780 -0.089321
v -0.289987 1.487959 -0.063433
v -0.445427 1.566563 -0.004673
v -0.441086 1.566505 0.003210
v -0.442008 1.574687 -0.006496
v -0.289987 1.487959 -0.063433
v -0.441086 1.566505 0.003210
v -0.448846 1.558440 -0.002851
v -0.289987 1.487959 -0.063433
v -0.448846 1.558440 -0.002851
v -0.310683 1.466447 -0.079599
v -0.301564 1.488114 -0.084460
v -0.289987 1.487959 -0.063433
v -0.310683 1.466447 -0.079599
v -0.445427 1.566563 -0.004673
v -0.448846 1.558440 -0.002851
v -0.441086 1.566505 0.003210
v -0.310683 1.466447 -0.079599
v -0.448846 1.558440 -0.002851
v -0.449767 1.566621 -0.012557
v -0.310683 1.466447 -0.079599
v -0.449767 1.566621 -0.012557
v -0.313142 1.488268 -0.105487
v -0.301564 1.488114 -0.084460
v -0.310683 1.466447 -0.079599
v -0.313142 1.488268 -0.105487
v -0.445427 1.566563 -0.004673
v -0.449767 1.566621 -0.012557
v -0.448846 1.558440 -0.002851
v 0.100957 1.356797 0.050536
v 0.205881 1.486573 -0.467341
v 0.183203 1.507694 -0.467924
v 0.100957 1.356797 0.050536
v 0.183203 1.507694 -0.467924
v 0.046961 1.407084 0.049148
v 0.050515 1.356418 0.037171
v 0.100957 1.356797 0.050536
v 0.046961 1.407084 0.049148
v 0.184696 1.486414 -0.472954
v 0.183203 1.507694 -0.467924
v 0.205881 1.486573 -0.467341
v 0.046961 1.407084 0.049148
v 0.183203 1.507694 -0.467924
v 0.163510 1.486255 -0.478567
v 0.046961 1.407084 0.049148
v 0.163510 1.486255 -0.478567
v 0.000074 1.356039 0.023807
v 0.050515 1.356418 0.037171
v 0.046961 1.407084 0.049148
v 0.000074 1.356039 0.023807
v 0.184696 1.486414 -0.472954
v 0.163510 1.486255 -0.478567
v 0.183203 1.507694 -0.467924
v 0.000074 1.356039 0.023807
v 0.163510 1.486255 -0.478567
v 0.186189 1.465134 -0.477984
v 0.000074 1.356039 0.023807
v 0.186189 1.465134 -0.477984
v 0.054070 1.305752 0.025195
v 0.050515 1.356418 0.037171
v 0.000074 1.356039 0.023807
v 0.054070 1.305752 0.025195
v 0.184696 1.486414 -0.472954
v 0.186189 1.465134 -0.477984
v 0.163510 1.486255 -0.478567
v 0.054070 1.305752 0.025195
v 0.186189 1.465134 -0.477984
v 0.205881 1.486573 -0.467341
v 0.054070 1.305752 0.025195
v 0.205881 1.486573 -0.467341
v 0.100957 1.356797 0.050536
v 0.050515 1.356418 0.037171
v 0.054070 1.305752 0.025195
v 0.100957 1.356797 0.050536
v 0.184696 1.486414 -0.472954
v 0.205881 1.486573 -0.467341
v 0.186189 1.465134 -0.477984
v 0.138680 1.418909 -0.208423
v 0.110531 1.523390 -0.399409
v 0.101722 1.531188 -0.394552
v 0.138680 1.418909 -0.208423
v 0.101722 1.531188 -0.394552
v 0.115184 1.439707 -0.195468
v 0.114723 1.418624 -0.206934
v 0.138680 1.418909 -0.208423
v 0.115184 1.439707 -0.195468
v 0.101549 1.523283 -0.398851
v 0.101722 1.531188 -0.394552
v 0.110531 1.523390 -0.399409
v 0.115184 1.439707 -0.195468
v 0.101722 1.531188 -0.394552
v 0.092567 1.523176 -0.398292
v 0.115184 1.439707 -0.195468
v 0.092567 1.523176 -0.398292
v 0.090767 1.418338 -0.205445
v 0.114723 1.418624 -0.206934
v 0.115184 1.439707 -0.195468
v 0.090767 1.418338 -0.205445
v 0.101549 1.523283 -0.398851
v 0.092567 1.523176 -0.398292
v 0.101722 1.531188 -0.394552
v 0.090767 1.418338 -0.205445
v 0.092567 1.523176 -0.398292
v 0.101376 1.515378 -0.403150
v 0.090767 1.418338 -0.205445
v 0.101376 1.515378 -0.403150
v 0.114262 1.397540 -0.218400
v 0.114723 1.418624 -0.206934
v 0.090767 1.418338 -0.205445
v 0.114262 1.397540 -0.218400
v 0.101549 1.523283 -0.398851
v 0.101376 1.515378 -0.403150
v 0.092567 1.523176 -0.398292
v 0.114262 1.397540 -0.218400
v 0.101376 1.515378 -0.403150
v 0.110531 1.523390 -0.399409
v 0.114262 1.397540 -0.218400
v 0.110531 1.523390 -0.399409
v 0.138680 1.418909 -0.208423
v 0.114723 1.418624 -0.206934
v 0.114262 1.397540 -0.218400
v 0.138680 1.418909 -0.208423
v 0.101549 1.523283 -0.398851
v 0.110531 1.523390 -0.399409
v 0.101376 1.515378 -0.403150
v 0.148000 1.430291 -0.241351
v 0.236192 1.557341 -0.445690
v 0.226118 1.565118 -0.445863
v 0.148000 1.430291 -0.241351
v 0.226118 1.565118 -0.445863
v 0.121132 1.451035 -0.241812
v 0.126675 1.430203 -0.252372
v 0.148000 1.430291 -0.241351
v 0.121132 1.451035 -0.241812
v 0.228197 1.557308 -0.449822
v 0.226118 1.565118 -0.445863
v 0.236192 1.557341 -0.445690
v 0.121132 1.451035 -0.241812
v 0.226118 1.565118 -0.445863
v 0.220201 1.557275 -0.453954
v 0.121132 1.451035 -0.241812
v 0.220201 1.557275 -0.453954
v 0.105351 1.430115 -0.263393
v 0.126675 1.430203 -0.252372
v 0.121132 1.451035 -0.241812
v 0.105351 1.430115 -0.263393
v 0.228197 1.557308 -0.449822
v 0.220201 1.557275 -0.453954
v 0.226118 1.565118 -0.445863
v 0.105351 1.430115 -0.263393
v 0.220201 1.557275 -0.453954
v 0.230275 1.549497 -0.453781
v 0.105351 1.430115 -0.263393
v 0.230275 1.549497 -0.453781
v 0.132219 1.409371 -0.262932
v 0.126675 1.430203 -0.252372
v 0.105351 1.430115 -0.263393
v 0.132219 1.409371 -0.262932
v 0.228197 1.557308 -0.449822
v 0.230275 1.549497 -0.453781
v 0.220201 1.557275 -0.453954
v 0.132219 1.409371 -0.262932
v 0.230275 1.549497 -0.453781
v 0.236192 1.557341 -0.445690
v 0.132219 1.409371 -0.262932
v 0.236192 1.557341 -0.445690
v 0.148000 1.430291 -0.241351
v 0.126675 1.430203 -0.252372
v 0.132219 1.409371 -0.262932
v 0.148000 1.430291 -0.241351
v 0.228197 1.557308 -0.449822
v 0.236192 1.557341 -0.445690
v 0.230275 1.549497 -0.453781
v 0.047640 1.409671 0.084329
v 0.407076 1.572398 0.114241
v 0.401624 1.592703 0.091466
v 0.047640 1.409671 0.084329
v 0.401624 1.592703 0.091466
v 0.034659 1.458016 0.030103
v 0.055964 1.410457 0.032820
v 0.047640 1.409671 0.084329
v 0.034659 1.458016 0.030103
v 0.410572 1.572728 0.092608
v 0.401624 1.592703 0.091466
v 0.407076 1.572398 0.114241
v 0.034659 1.458016 0.030103
v 0.401624 1.592703 0.091466
v 0.414068 1.573059 0.070974
v 0.034659 1.458016 0.030103
v 0.414068 1.573059 0.070974
v 0.064289 1.411243 -0.018689
v 0.055964 1.410457 0.032820
v 0.034659 1.458016 0.030103
v 0.064289 1.411243 -0.018689
v 0.410572 1.572728 0.092608
v 0.414068 1.573059 0.070974
v 0.401624 1.592703 0.091466
v 0.064289 1.411243 -0.018689
v 0.414068 1.573059 0.070974
v 0.419520 1.552754 0.093749
v 0.064289 1.411243 -0.018689
v 0.419520 1.552754 0.093749
v 0.077269 1.362898 0.035538
v 0.055964 1.410457 0.032820
v 0.064289 1.411243 -0.018689
v 0.077269 1.362898 0.035538
v 0.410572 1.572728 0.092608
v 0.419520 1.552754 0.093749
v 0.414068 1.573059 0.070974
v 0.077269 1.362898 0.035538
v 0.419520 1.552754 0.093749
v 0.407076 1.572398 0.114241
v 0.077269 1.362898 0.035538
v 0.407076 1.572398 0.114241
v 0.047640 1.409671 0.084329
v 0.055964 1.410457 0.032820
v 0.077269 1.362898 0.035538
v 0.047640 1.409671 0.084329
v 0.410572 1.572728 0.092608
v 0.407076 1.572398 0.114241
v 0.419520 1.552754 0.093749
v 0.338341 1.531453 0.093362
v 0.429372 1.609638 -0.031438
v 0.419941 1.617667 -0.034370
v 0.338341 1.531453 0.093362
v 0.419941 1.617667 -0.034370
v 0.313187 1.552866 0.085543
v 0.320408 1.531469 0.077406
v 0.338341 1.531453 0.093362
v 0.313187 1.552866 0.085543
v 0.422648 1.609644 -0.037421
v 0.419941 1.617667 -0.034370
v 0.429372 1.609638 -0.031438
v 0.313187 1.552866 0.085543
v 0.419941 1.617667 -0.034370
v 0.415924 1.609650 -0.043404
v 0.313187 1.552866 0.085543
v 0.415924 1.609650 -0.043404
v 0.302475 1.531485 0.061449
v 0.320408 1.531469 0.077406
v 0.313187 1.552866 0.085543
v 0.302475 1.531485 0.061449
v 0.422648 1.609644 -0.037421
v 0.415924 1.609650 -0.043404
v 0.419941 1.617667 -0.034370
v 0.302475 1.531485 0.061449
v 0.415924 1.609650 -0.043404
v 0.425356 1.601622 -0.040472
v 0.302475 1.531485 0.061449
v 0.425356 1.601622 -0.040472
v 0.327629 1.510072 0.069268
v 0.320408 1.531469 0.077406
v 0.302475 1.531485 0.061449
v 0.327629 1.510072 0.069268
v 0.422648 1.609644 -0.037421
v 0.425356 1.601622 -0.040472
v 0.415924 1.609650 -0.043404
v 0.327629 1.510072 0.069268
v 0.425356 1.601622 -0.040472
v 0.429372 1.609638 -0.031438
v 0.327629 1.510072 0.069268
v 0.429372 1.609638 -0.031438
v 0.338341 1.531453 0.093362
v 0.320408 1.531469 0.077406
v 0.327629 1.510072 0.069268
v 0.338341 1.531453 0.093362
v 0.422648 1.609644 -0.037421
v 0.429372 1.609638 -0.031438
v 0.425356 1.601622 -0.040472
v 0.224428 1.484025 0.082908
v 0.395863 1.583444 0.014275
v 0.389112 1.591451 0.007043
v 0.224428 1.484025 0.082908
v 0.389112 1.591451 0.007043
v 0.206421 1.505381 0.063619
v 0.217229 1.484253 0.060010
v 0.224428 1.484025 0.082908
v 0.206421 1.505381 0.063619
v 0.393164 1.583530 0.005690
v 0.389112 1.591451 0.007043
v 0.395863 1.583444 0.014275
v 0.206421 1.505381 0.063619
v 0.389112 1.591451 0.007043
v 0.390465 1.583616 -0.002896
v 0.206421 1.505381 0.063619
v 0.390465 1.583616 -0.002896
v 0.210030 1.484482 0.037112
v 0.217229 1.484253 0.060010
v 0.206421 1.505381 0.063619
v 0.210030 1.484482 0.037112
v 0.393164 1.583530 0.005690
v 0.390465 1.583616 -0.002896
v 0.389112 1.591451 0.007043
v 0.210030 1.484482 0.037112
v 0.390465 1.583616 -0.002896
v 0.397216 1.575609 0.004337
v 0.210030 1.484482 0.037112
v 0.397216 1.575609 0.004337
v 0.228037 1.463126 0.056401
v 0.217229 1.484253 0.060010
v 0.210030 1.484482 0.037112
v 0.228037 1.463126 0.056401
v 0.393164 1.583530 0.005690
v 0.397216 1.575609 0.004337
v 0.390465 1.583616 -0.002896
v 0.228037 1.463126 0.056401
v 0.397216 1.575609 0.004337
v 0.395863 1.583444 0.014275
v 0.228037 1.463126 0.056401
v 0.395863 1.583444 0.014275
v 0.224428 1.484025 0.082908
v 0.217229 1.484253 0.060010
v 0.228037 1.463126 0.056401
v 0.224428 1.484025 0.082908
v 0.393164 1.583530 0.005690
v 0.395863 1.583444 0.014275
v 0.397216 1.575609 0.004337
f 1 2 3
f 4 5 6
f 7 8 9
f 10 11 12
f 13 14 15
f 16 17 18
f 19 20 21
f 22 23 24
f 25 26 27
f 28 29 30
f 31 32 33
f 34 35 36
f 37 38 39
f 40 41 42
f 43 44 45
f 46 47 48
f 49 50 51
f 52 53 54
f 55 56 57
f 58 59 60
f 61 62 63
f 64 65 66
f 67 68 69
f 70 71 72
f 73 74 75
f 76 77 78
f 79 80 81
f 82 83 84
f 85 86 87
f 88 89 90
f 91 92 93
f 94 95 96
f 97 98 99
f 100 101 102
f 103 104 105
f 106 107 108
f 109 110 111
f 112 113 114
f 115 116 117
f 118 119 120
f 121 122 123
f 124 125 126
f 127 128 129
f 130 131 132
f 133 134 135
f 136 137 138
f 139 140 141
f 142 143 144
f 145 146 147
f 148 149 150
f 151 152 153
f 154 155 156
f 157 158 159
f 160 161 162
f 163 164 165
f 166 167 168
f 169 170 171
f 172 173 174
f 175 176 177
f 178 179 180
f 181 182 183
f 184 185 186
f 187 188 189
f 190 191 192
f 193 194 195
f 196 197 198
f 199 200 201
f 202 203 204
f 205 206 207
f 208 209 210
f 211 212 213
f 214 215 216
f 217 218 219
f 220 221 222
f 223 224 225
f 226 227 228
f 229 230 231
f 232 233 234
f 235 236 237
f 238 239 240
f 241 242 243
f 244 245 246
f 247 248 249
f 250 251 252
f 253 254 255
f 256 257 258
f 259 260 261
f 262 263 264
f 265 266 267
f 268 269 270
f 271 272 273
f 274 275 276
f 277 278 279
f 280 281 282
f 283 284 285
f 286 287 288
f 289 290 291
f 292 293 294
f 295 296 297
f 298 299 300
f 301 302 303
f 304 305 306
f 307 308 309
f 310 311 312
f 313 314 315
f 316 317 318
f 319 320 321
f 322 323 324
f 325 326 327
f 328 329 330
f 331 332 333
f 334 335 336
f 337 338 339
f 340 341 342
f 343 344 345
f 346 347 348
f 349 350 351
f 352 353 354
f 355 356 357
f 358 359 360
f 361 362 363
f 364 365 366
f 367 368 369
f 370 371 372
f 373 374 375
f 376 377 378
f 379 380 381
f 382 383 384
f 385 386 387
f 388 389 390
f 391 392 393
f 394 395 396
f 397 398 399
f 400 401 402
f 403 404 405
f 406 407 408
f 409 410 411
f 412 413 414
f 415 416 417
f 418 419 420
f 421 422 423
f 424 425 426
f 427 428 429
f 430 431 432
f 433 434 435
f 436 437 438
f 439 440 441
f 442 443 444
f 445 446 447
f 448 449 450
f 451 452 453
f 454 455 456
f 457 458 459
f 460 461 462
f 463 464 465
f 466 467 468
f 469 470 471
f 472 473 474
f 475 476 477
f 478 479 480
f 481 482 483
f 484 485 486
f 487 488 489
f 490 491 492
f 493 494 495
f 496 497 498
f 499 500 501
f 502 503 504
f 505 506 507
f 508 509 510
f 511 512 513
f 514 515 516
f 517 518 519
f 520 521 522
f 523 524 525
f 526 527 528
f 529 530 531
f 532 533 534
f 535 536 537
f 538 539 540
f 541 542 543
f 544 545 546
f 547 548 549
f 550 551 552
f 553 554 555
f 556 557 558
f 559 560 561
f 562 563 564
f 565 566 567
f 568 569 570
f 571 572 573
f 574 575 576
f 577 578 579
f 580 581 582
f 583 584 585
f 586 587 588
f 589 590 591
f 592 593 594
f 595 596 597
f 598 599 600
f 601 602 603
f 604 605 606
f 607 608 609
f 610 611 612
f 613 614 615
f 616 617 618
f 619 620 621
f 622 623 624
f 625 626 627
f 628 629 630
f 631 632 633
f 634 635 636
f 637 638 639
f 640 641 642
f 643 644 645
f 646 647 648
f 649 650 651
f 652 653 654
f 655 656 657
f 658 659 660
f 661 662 663
f 664 665 666
f 667 668 669
f 670 671 672
f 673 674 675
f 676 677 678
f 679 680 681
f 682 683 684
f 685 686 687
f 688 689 690
f 691 692 693
f 694 695 696
f 697 698 699
f 700 701 702
f 703 704 705
f 706 707 708
f 709 710 711
f 712 713 714
f 715 716 717
f 718 719 720
f 721 722 723
f 724 725 726
f 727 728 729
f 730 731 732

o TreeFoliage
v 0.066818 1.341545 0.023419
v 0.238718 1.419333 0.024467
v 0.188123 1.417174 0.143082
v 0.066818 1.341545 0.023419
v 0.188123 1.417174 0.143082
v 0.066818 1.341545 0.023419
v 0.066818 1.341545 0.023419
v 0.188123 1.417174 0.143082
v 0.065977 1.415157 0.192199
v 0.066818 1.341545 0.023419
v 0.065977 1.415157 0.192199
v 0.066818 1.341545 0.023419
v 0.066818 1.341545 0.023419
v 0.065977 1.415157 0.192199
v -0.056170 1.414465 0.143046
v 0.066818 1.341545 0.023419
v -0.056170 1.414465 0.143046
v 0.066818 1.341545 0.023419
v 0.066818 1.341545 0.023419
v -0.056170 1.414465 0.143046
v -0.106765 1.415502 0.024416
v 0.066818 1.341545 0.023419
v -0.106765 1.415502 0.024416
v 0.066818 1.341545 0.023419
v 0.066818 1.341545 0.023419
v -0.106765 1.415502 0.024416
v -0.056170 1.417661 -0.094199
v 0.066818 1.341545 0.023419
v -0.056170 1.417661 -0.094199
v 0.066818 1.341545 0.023419
v 0.066818 1.341545 0.023419
v -0.056170 1.417661 -0.094199
v 0.065977 1.419678 -0.143316
v 0.066818 1.341545 0.023419
v 0.065977 1.419678 -0.143316
v 0.066818 1.341545 0.023419
v 0.066818 1.341545 0.023419
v 0.065977 1.419678 -0.143316
v 0.188123 1.420370 -0.094162
v 0.066818 1.341545 0.023419
v 0.188123 1.420370 -0.094162
v 0.066818 1.341545 0.023419
v 0.066818 1.341545 0.023419
v 0.188123 1.420370 -0.094162
v 0.238718 1.419333 0.024467
v 0.066818 1.341545 0.023419
v 0.238718 1.419333 0.024467
v 0.066818 1.341545 0.023419
v 0.238718 1.419333 0.024467
v 0.308238 1.603299 0.026946
v 0.236686 1.600245 0.194693
v 0.238718 1.419333 0.024467
v 0.236686 1.600245 0.194693
v 0.188123 1.417174 0.143082
v 0.188123 1.417174 0.143082
v 0.236686 1.600245 0.194693
v 0.063945 1.597394 0.264154
v 0.188123 1.417174 0.143082
v 0.063945 1.597394 0.264154
v 0.065977 1.415157 0.192199
v 0.065977 1.415157 0.192199
v 0.063945 1.597394 0.264154
v -0.108796 1.596415 0.194641
v 0.065977 1.415157 0.192199
v -0.108796 1.596415 0.194641
v -0.056170 1.414465 0.143046
v -0.056170 1.414465 0.143046
v -0.108796 1.596415 0.194641
v -0.180348 1.597881 0.026873
v -0.056170 1.414465 0.143046
v -0.180348 1.597881 0.026873
v -0.106765 1.415502 0.024416
v -0.106765 1.415502 0.024416
v -0.180348 1.597881 0.026873
v -0.108796 1.600935 -0.140873
v -0.106765 1.415502 0.024416
v -0.108796 1.600935 -0.140873
v -0.056170 1.417661 -0.094199
v -0.056170 1.417661 -0.094199
v -0.108796 1.600935 -0.140873
v 0.063945 1.603787 -0.210335
v -0.056170 1.417661 -0.094199
v 0.063945 1.603787 -0.210335
v 0.065977 1.419678 -0.143316
v 0.065977 1.419678 -0.143316
v 0.063945 1.603787 -0.210335
v 0.236686 1.604766 -0.140822
v 0.065977 1.419678 -0.143316
v 0.236686 1.604766 -0.140822
v 0.188123 1.420370 -0.094162
v 0.188123 1.420370 -0.094162
v 0.236686 1.604766 -0.140822
v 0.308238 1.603299 0.026946
v 0.188123 1.420370 -0.094162
v 0.308238 1.603299 0.026946
v 0.238718 1.419333 0.024467
v 0.308238 1.603299 0.026946
v 0.234655 1.785679 0.029404
v 0.184060 1.783519 0.148018
v 0.308238 1.603299 0.026946
v 0.184060 1.783519 0.148018
v 0.236686 1.600245 0.194693
v 0.236686 1.600245 0.194693
v 0.184060 1.783519 0.148018
v 0.061914 1.781503 0.197135
v 0.236686 1.600245 0.194693
v 0.061914 1.781503 0.197135
v 0.063945 1.597394 0.264154
v 0.063945 1.597394 0.264154
v 0.061914 1.781503 0.197135
v -0.060233 1.780810 0.147982
v 0.063945 1.597394 0.264154
v -0.060233 1.780810 0.147982
v -0.108796 1.596415 0.194641
v -0.108796 1.596415 0.194641
v -0.060233 1.780810 0.147982
v -0.110828 1.781848 0.029352
v -0.108796 1.596415 0.194641
v -0.110828 1.781848 0.029352
v -0.180348 1.597881 0.026873
v -0.180348 1.597881 0.026873
v -0.110828 1.781848 0.029352
v -0.060233 1.784007 -0.089263
v -0.180348 1.597881 0.026873
v -0.060233 1.784007 -0.089263
v -0.108796 1.600935 -0.140873
v -0.108796 1.600935 -0.140873
v -0.060233 1.784007 -0.089263
v 0.061914 1.786023 -0.138379
v -0.108796 1.600935 -0.140873
v 0.061914 1.786023 -0.138379
v 0.063945 1.603787 -0.210335
v 0.063945 1.603787 -0.210335
v 0.061914 1.786023 -0.138379
v 0.184060 1.786716 -0.089226
v 0.063945 1.603787 -0.210335
v 0.184060 1.786716 -0.089226
v 0.236686 1.604766 -0.140822
v 0.236686 1.604766 -0.140822
v 0.184060 1.786716 -0.089226
v 0.234655 1.785679 0.029404
v 0.236686 1.604766 -0.140822
v 0.234655 1.785679 0.029404
v 0.308238 1.603299 0.026946
v 0.234655 1.785679 0.029404
v 0.061072 1.859636 0.030400
v 0.061072 1.859636 0.030400
v 0.234655 1.785679 0.029404
v 0.061072 1.859636 0.030400
v 0.184060 1.783519 0.148018
v 0.184060 1.783519 0.148018
v 0.061072 1.859636 0.030400
v 0.061072 1.859636 0.030400
v 0.184060 1.783519 0.148018
v 0.061072 1.859636 0.030400
v 0.061914 1.781503 0.197135
v 0.061914 1.781503 0.197135
v 0.061072 1.859636 0.030400
v 0.061072 1.859636 0.030400
v 0.061914 1.781503 0.197135
v 0.061072 1.859636 0.030400
v -0.060233 1.780810 0.147982
v -0.060233 1.780810 0.147982
v 0.061072 1.859636 0.030400
v 0.061072 1.859636 0.030400
v -0.060233 1.780810 0.147982
v 0.061072 1.859636 0.030400
v -0.110828 1.781848 0.029352
v -0.110828 1.781848 0.029352
v 0.061072 1.859636 0.030400
v 0.061072 1.859636 0.030400
v -0.110828 1.781848 0.029352
v 0.061072 1.859636 0.030400
v -0.060233 1.784007 -0.089263
v -0.060233 1.784007 -0.089263
v 0.061072 1.859636 0.030400
v 0.061072 1.859636 0.030400
v -0.060233 1.784007 -0.089263
v 0.061072 1.859636 0.030400
v 0.061914 1.786023 -0.138379
v 0.061914 1.786023 -0.138379
v 0.061072 1.859636 0.030400
v 0.061072 1.859636 0.030400
v 0.061914 1.786023 -0.138379
v 0.061072 1.859636 0.030400
v 0.184060 1.786716 -0.089226
v 0.184060 1.786716 -0.089226
v 0.061072 1.859636 0.030400
v 0.061072 1.859636 0.030400
v 0.184060 1.786716 -0.089226
v 0.061072 1.859636 0.030400
v 0.234655 1.785679 0.029404
v 0.294031 1.111229 -0.259699
v 0.485735 1.196789 -0.258546
v 0.429315 1.194277 -0.118613
v 0.294031 1.111229 -0.259699
v 0.429315 1.194277 -0.118613
v 0.294031 1.111229 -0.259699
v 0.294031 1.111229 -0.259699
v 0.429315 1.194277 -0.118613
v 0.293106 1.191986 -0.060667
v 0.294031 1.111229 -0.259699
v 0.293106 1.191986 -0.060667
v 0.294031 1.111229 -0.259699
v 0.294031 1.111229 -0.259699
v 0.293106 1.191986 -0.060667
v 0.156896 1.191257 -0.118653
v 0.294031 1.111229 -0.259699
v 0.156896 1.191257 -0.118653
v 0.294031 1.111229 -0.259699
v 0.294031 1.111229 -0.259699
v 0.156896 1.191257 -0.118653
v 0.100476 1.192517 -0.258604
v 0.294031 1.111229 -0.259699
v 0.100476 1.192517 -0.258604
v 0.294031 1.111229 -0.259699
v 0.294031 1.111229 -0.259699
v 0.100476 1.192517 -0.258604
v 0.156896 1.195028 -0.398537
v 0.294031 1.111229 -0.259699
v 0.156896 1.195028 -0.398537
v 0.294031 1.111229 -0.259699
v 0.294031 1.111229 -0.259699
v 0.156896 1.195028 -0.398537
v 0.293106 1.197319 -0.456483
v 0.294031 1.111229 -0.259699
v 0.293106 1.197319 -0.456483
v 0.294031 1.111229 -0.259699
v 0.294031 1.111229 -0.259699
v 0.293106 1.197319 -0.456483
v 0.429315 1.198049 -0.398497
v 0.294031 1.111229 -0.259699
v 0.429315 1.198049 -0.398497
v 0.294031 1.111229 -0.259699
v 0.294031 1.111229 -0.259699
v 0.429315 1.198049 -0.398497
v 0.485735 1.196789 -0.258546
v 0.294031 1.111229 -0.259699
v 0.485735 1.196789 -0.258546
v 0.294031 1.111229 -0.259699
v 0.485735 1.196789 -0.258546
v 0.563291 1.399076 -0.255821
v 0.483502 1.395524 -0.057925
v 0.485735 1.196789 -0.258546
v 0.483502 1.395524 -0.057925
v 0.429315 1.194277 -0.118613
v 0.429315 1.194277 -0.118613
v 0.483502 1.395524 -0.057925
v 0.290872 1.392284 0.024023
v 0.429315 1.194277 -0.118613
v 0.290872 1.392284 0.024023
v 0.293106 1.191986 -0.060667
v 0.293106 1.191986 -0.060667
v 0.290872 1.392284 0.024023
v 0.098243 1.391252 -0.057982
v 0.293106 1.191986 -0.060667
v 0.098243 1.391252 -0.057982
v 0.156896 1.191257 -0.118653
v 0.156896 1.191257 -0.118653
v 0.098243 1.391252 -0.057982
v 0.018453 1.393034 -0.255902
v 0.156896 1.191257 -0.118653
v 0.018453 1.393034 -0.255902
v 0.100476 1.192517 -0.258604
v 0.100476 1.192517 -0.258604
v 0.018453 1.393034 -0.255902
v 0.098243 1.396586 -0.453798
v 0.100476 1.192517 -0.258604
v 0.098243 1.396586 -0.453798
v 0.156896 1.195028 -0.398537
v 0.156896 1.195028 -0.398537
v 0.098243 1.396586 -0.453798
v 0.290872 1.399826 -0.535745
v 0.156896 1.195028 -0.398537
v 0.290872 1.399826 -0.535745
v 0.293106 1.197319 -0.456483
v 0.293106 1.197319 -0.456483
v 0.290872 1.399826 -0.535745
v 0.483502 1.400857 -0.453741
v 0.293106 1.197319 -0.456483
v 0.483502 1.400857 -0.453741
v 0.429315 1.198049 -0.398497
v 0.429315 1.198049 -0.398497
v 0.483502 1.400857 -0.453741
v 0.563291 1.399076 -0.255821
v 0.429315 1.198049 -0.398497
v 0.563291 1.399076 -0.255821
v 0.485735 1.196789 -0.258546
v 0.563291 1.399076 -0.255821
v 0.481268 1.599593 -0.253119
v 0.424848 1.597082 -0.113185
v 0.563291 1.399076 -0.255821
v 0.424848 1.597082 -0.113185
v 0.483502 1.395524 -0.057925
v 0.483502 1.395524 -0.057925
v 0.424848 1.597082 -0.113185
v 0.288639 1.594791 -0.055240
v 0.483502 1.395524 -0.057925
v 0.288639 1.594791 -0.055240
v 0.290872 1.392284 0.024023
v 0.290872 1.392284 0.024023
v 0.288639 1.594791 -0.055240
v 0.152429 1.594061 -0.113226
v 0.290872 1.392284 0.024023
v 0.152429 1.594061 -0.113226
v 0.098243 1.391252 -0.057982
v 0.098243 1.391252 -0.057982
v 0.152429 1.594061 -0.113226
v 0.096009 1.595321 -0.253176
v 0.098243 1.391252 -0.057982
v 0.096009 1.595321 -0.253176
v 0.018453 1.393034 -0.255902
v 0.018453 1.393034 -0.255902
v 0.096009 1.595321 -0.253176
v 0.152429 1.597832 -0.393110
v 0.018453 1.393034 -0.255902
v 0.152429 1.597832 -0.393110
v 0.098243 1.396586 -0.453798
v 0.098243 1.396586 -0.453798
v 0.152429 1.597832 -0.393110
v 0.288639 1.600124 -0.451056
v 0.098243 1.396586 -0.453798
v 0.288639 1.600124 -0.451056
v 0.290872 1.399826 -0.535745
v 0.290872 1.399826 -0.535745
v 0.288639 1.600124 -0.451056
v 0.424848 1.600853 -0.393069
v 0.290872 1.399826 -0.535745
v 0.424848 1.600853 -0.393069
v 0.483502 1.400857 -0.453741
v 0.483502 1.400857 -0.453741
v 0.424848 1.600853 -0.393069
v 0.481268 1.599593 -0.253119
v 0.483502 1.400857 -0.453741
v 0.481268 1.599593 -0.253119
v 0.563291 1.399076 -0.255821
v 0.481268 1.599593 -0.253119
v 0.287713 1.680881 -0.252024
v 0.287713 1.680881 -0.252024
v 0.481268 1.599593 -0.253119
v 0.287713 1.680881 -0.252024
v 0.424848 1.597082 -0.113185
v 0.424848 1.597082 -0.113185
v 0.287713 1.680881 -0.252024
v 0.287713 1.680881 -0.252024
v 0.424848 1.597082 -0.113185
v 0.287713 1.680881 -0.252024
v 0.288639 1.594791 -0.055240
v 0.288639 1.594791 -0.055240
v 0.287713 1.680881 -0.252024
v 0.287713 1.680881 -0.252024
v 0.288639 1.594791 -0.055240
v 0.287713 1.680881 -0.252024
v 0.152429 1.594061 -0.113226
v 0.152429 1.594061 -0.113226
v 0.287713 1.680881 -0.252024
v 0.287713 1.680881 -0.252024
v 0.152429 1.594061 -0.113226
v 0.287713 1.680881 -0.252024
v 0.096009 1.595321 -0.253176
v 0.096009 1.595321 -0.253176
v 0.287713 1.680881 -0.252024
v 0.287713 1.680881 -0.252024
v 0.096009 1.595321 -0.253176
v 0.287713 1.680881 -0.252024
v 0.152429 1.597832 -0.393110
v 0.152429 1.597832 -0.393110
v 0.287713 1.680881 -0.252024
v 0.287713 1.680881 -0.252024
v 0.152429 1.597832 -0.393110
v 0.287713 1.680881 -0.252024
v 0.288639 1.600124 -0.451056
v 0.288639 1.600124 -0.451056
v 0.287713 1.680881 -0.252024
v 0.287713 1.680881 -0.252024
v 0.288639 1.600124 -0.451056
v 0.287713 1.680881 -0.252024
v 0.424848 1.600853 -0.393069
v 0.424848 1.600853 -0.393069
v 0.287713 1.680881 -0.252024
v 0.287713 1.680881 -0.252024
v 0.424848 1.600853 -0.393069
v 0.287713 1.680881 -0.252024
v 0.481268 1.599593 -0.253119
v 0.228544 1.149865 0.124828
v 0.440053 1.243196 0.126086
v 0.377808 1.240311 0.288921
v 0.228544 1.149865 0.124828
v 0.377808 1.240311 0.288921
v 0.228544 1.149865 0.124828
v 0.228544 1.149865 0.124828
v 0.377808 1.240311 0.288921
v 0.227535 1.237736 0.356350
v 0.228544 1.149865 0.124828
v 0.227535 1.237736 0.356350
v 0.228544 1.149865 0.124828
v 0.228544 1.149865 0.124828
v 0.227535 1.237736 0.356350
v 0.077262 1.236979 0.288876
v 0.228544 1.149865 0.124828
v 0.077262 1.236979 0.288876
v 0.228544 1.149865 0.124828
v 0.228544 1.149865 0.124828
v 0.077262 1.236979 0.288876
v 0.015017 1.238483 0.126023
v 0.228544 1.149865 0.124828
v 0.015017 1.238483 0.126023
v 0.228544 1.149865 0.124828
v 0.228544 1.149865 0.124828
v 0.015017 1.238483 0.126023
v 0.077262 1.241367 -0.036812
v 0.228544 1.149865 0.124828
v 0.077262 1.241367 -0.036812
v 0.228544 1.149865 0.124828
v 0.228544 1.149865 0.124828
v 0.077262 1.241367 -0.036812
v 0.227535 1.243942 -0.104242
v 0.228544 1.149865 0.124828
v 0.227535 1.243942 -0.104242
v 0.228544 1.149865 0.124828
v 0.228544 1.149865 0.124828
v 0.227535 1.243942 -0.104242
v 0.377808 1.244699 -0.036767
v 0.228544 1.149865 0.124828
v 0.377808 1.244699 -0.036767
v 0.228544 1.149865 0.124828
v 0.228544 1.149865 0.124828
v 0.377808 1.244699 -0.036767
v 0.440053 1.243196 0.126086
v 0.228544 1.149865 0.124828
v 0.440053 1.243196 0.126086
v 0.228544 1.149865 0.124828
v 0.440053 1.243196 0.126086
v 0.525645 1.463803 0.129058
v 0.437617 1.459724 0.359342
v 0.440053 1.243196 0.126086
v 0.437617 1.459724 0.359342
v 0.377808 1.240311 0.288921
v 0.377808 1.240311 0.288921
v 0.437617 1.459724 0.359342
v 0.225099 1.456082 0.454702
v 0.377808 1.240311 0.288921
v 0.225099 1.456082 0.454702
v 0.227535 1.237736 0.356350
v 0.227535 1.237736 0.356350
v 0.225099 1.456082 0.454702
v 0.012582 1.455011 0.359278
v 0.227535 1.237736 0.356350
v 0.012582 1.455011 0.359278
v 0.077262 1.236979 0.288876
v 0.077262 1.236979 0.288876
v 0.012582 1.455011 0.359278
v -0.075446 1.457138 0.128969
v 0.077262 1.236979 0.288876
v -0.075446 1.457138 0.128969
v 0.015017 1.238483 0.126023
v 0.015017 1.238483 0.126023
v -0.075446 1.457138 0.128969
v 0.012582 1.461217 -0.101314
v 0.015017 1.238483 0.126023
v 0.012582 1.461217 -0.101314
v 0.077262 1.241367 -0.036812
v 0.077262 1.241367 -0.036812
v 0.012582 1.461217 -0.101314
v 0.225099 1.464859 -0.196674
v 0.077262 1.241367 -0.036812
v 0.225099 1.464859 -0.196674
v 0.227535 1.243942 -0.104242
v 0.227535 1.243942 -0.104242
v 0.225099 1.464859 -0.196674
v 0.437617 1.465930 -0.101251
v 0.227535 1.243942 -0.104242
v 0.437617 1.465930 -0.101251
v 0.377808 1.244699 -0.036767
v 0.377808 1.244699 -0.036767
v 0.437617 1.465930 -0.101251
v 0.525645 1.463803 0.129058
v 0.377808 1.244699 -0.036767
v 0.525645 1.463803 0.129058
v 0.440053 1.243196 0.126086
v 0.525645 1.463803 0.129058
v 0.435181 1.682458 0.132005
v 0.372936 1.679574 0.294839
v 0.525645 1.463803 0.129058
v 0.372936 1.679574 0.294839
v 0.437617 1.459724 0.359342
v 0.437617 1.459724 0.359342
v 0.372936 1.679574 0.294839
v 0.222664 1.676999 0.362269
v 0.437617 1.459724 0.359342
v 0.222664 1.676999 0.362269
v 0.225099 1.456082 0.454702
v 0.225099 1.456082 0.454702
v 0.222664 1.676999 0.362269
v 0.072391 1.676241 0.294794
v 0.225099 1.456082 0.454702
v 0.072391 1.676241 0.294794
v 0.012582 1.455011 0.359278
v 0.012582 1.455011 0.359278
v 0.072391 1.676241 0.294794
v 0.010146 1.677745 0.131941
v 0.012582 1.455011 0.359278
v 0.010146 1.677745 0.131941
v -0.075446 1.457138 0.128969
v -0.075446 1.457138 0.128969
v 0.010146 1.677745 0.131941
v 0.072391 1.680630 -0.030894
v -0.075446 1.457138 0.128969
v 0.072391 1.680630 -0.030894
v 0.012582 1.461217 -0.101314
v 0.012582 1.461217 -0.101314
v 0.072391 1.680630 -0.030894
v 0.222664 1.683205 -0.098323
v 0.012582 1.461217 -0.101314
v 0.222664 1.683205 -0.098323
v 0.225099 1.464859 -0.196674
v 0.225099 1.464859 -0.196674
v 0.222664 1.683205 -0.098323
v 0.372936 1.683962 -0.030849
v 0.225099 1.464859 -0.196674
v 0.372936 1.683962 -0.030849
v 0.437617 1.465930 -0.101251
v 0.437617 1.465930 -0.101251
v 0.372936 1.683962 -0.030849
v 0.435181 1.682458 0.132005
v 0.437617 1.465930 -0.101251
v 0.435181 1.682458 0.132005
v 0.525645 1.463803 0.129058
v 0.435181 1.682458 0.132005
v 0.221655 1.771076 0.133199
v 0.221655 1.771076 0.133199
v 0.435181 1.682458 0.132005
v 0.221655 1.771076 0.133199
v 0.372936 1.679574 0.294839
v 0.372936 1.679574 0.294839
v 0.221655 1.771076 0.133199
v 0.221655 1.771076 0.133199
v 0.372936 1.679574 0.294839
v 0.221655 1.771076 0.133199
v 0.222664 1.676999 0.362269
v 0.222664 1.676999 0.362269
v 0.221655 1.771076 0.133199
v 0.221655 1.771076 0.133199
v 0.222664 1.676999 0.362269
v 0.221655 1.771076 0.133199
v 0.072391 1.676241 0.294794
v 0.072391 1.676241 0.294794
v 0.221655 1.771076 0.133199
v 0.221655 1.771076 0.133199
v 0.072391 1.676241 0.294794
v 0.221655 1.771076 0.133199
v 0.010146 1.677745 0.131941
v 0.010146 1.677745 0.131941
v 0.221655 1.771076 0.133199
v 0.221655 1.771076 0.133199
v 0.010146 1.677745 0.131941
v 0.221655 1.771076 0.133199
v 0.072391 1.680630 -0.030894
v 0.072391 1.680630 -0.030894
v 0.221655 1.771076 0.133199
v 0.221655 1.771076 0.133199
v 0.072391 1.680630 -0.030894
v 0.221655 1.771076 0.133199
v 0.222664 1.683205 -0.098323
v 0.222664 1.683205 -0.098323
v 0.221655 1.771076 0.133199
v 0.221655 1.771076 0.133199
v 0.222664 1.683205 -0.098323
v 0.221655 1.771076 0.133199
v 0.372936 1.683962 -0.030849
v 0.372936 1.683962 -0.030849
v 0.221655 1.771076 0.133199
v 0.221655 1.771076 0.133199
v 0.372936 1.683962 -0.030849
v 0.221655 1.771076 0.133199
v 0.435181 1.682458 0.132005
v -0.043189 1.189894 0.236166
v 0.188124 1.290996 0.237528
v 0.120054 1.288248 0.385403
v -0.043189 1.189894 0.236166
v 0.120054 1.288248 0.385403
v -0.043189 1.189894 0.236166
v -0.043189 1.189894 0.236166
v 0.120054 1.288248 0.385403
v -0.044282 1.285601 0.446634
v -0.043189 1.189894 0.236166
v -0.044282 1.285601 0.446634
v -0.043189 1.189894 0.236166
v -0.043189 1.189894 0.236166
v -0.044282 1.285601 0.446634
v -0.208618 1.284604 0.385354
v -0.043189 1.189894 0.236166
v -0.208618 1.284604 0.385354
v -0.043189 1.189894 0.236166
v -0.043189 1.189894 0.236166
v -0.208618 1.284604 0.385354
v -0.276688 1.285842 0.237459
v -0.043189 1.189894 0.236166
v -0.276688 1.285842 0.237459
v -0.043189 1.189894 0.236166
v -0.043189 1.189894 0.236166
v -0.276688 1.285842 0.237459
v -0.208618 1.288589 0.089584
v -0.043189 1.189894 0.236166
v -0.208618 1.288589 0.089584
v -0.043189 1.189894 0.236166
v -0.043189 1.189894 0.236166
v -0.208618 1.288589 0.089584
v -0.044282 1.291237 0.028353
v -0.043189 1.189894 0.236166
v -0.044282 1.291237 0.028353
v -0.043189 1.189894 0.236166
v -0.043189 1.189894 0.236166
v -0.044282 1.291237 0.028353
v 0.120054 1.292233 0.089633
v -0.043189 1.189894 0.236166
v 0.120054 1.292233 0.089633
v -0.043189 1.189894 0.236166
v -0.043189 1.189894 0.236166
v 0.120054 1.292233 0.089633
v 0.188124 1.290996 0.237528
v -0.043189 1.189894 0.236166
v 0.188124 1.290996 0.237528
v -0.043189 1.189894 0.236166
v 0.188124 1.290996 0.237528
v 0.281752 1.529924 0.240747
v 0.185486 1.526038 0.449874
v 0.188124 1.290996 0.237528
v 0.185486 1.526038 0.449874
v 0.120054 1.288248 0.385403
v 0.120054 1.288248 0.385403
v 0.185486 1.526038 0.449874
v -0.046920 1.522294 0.536468
v 0.120054 1.288248 0.385403
v -0.046920 1.522294 0.536468
v -0.044282 1.285601 0.446634
v -0.044282 1.285601 0.446634
v -0.046920 1.522294 0.536468
v -0.279326 1.520884 0.449804
v -0.044282 1.285601 0.446634
v -0.279326 1.520884 0.449804
v -0.208618 1.284604 0.385354
v -0.208618 1.284604 0.385354
v -0.279326 1.520884 0.449804
v -0.375592 1.522635 0.240649
v -0.208618 1.284604 0.385354
v -0.375592 1.522635 0.240649
v -0.276688 1.285842 0.237459
v -0.276688 1.285842 0.237459
v -0.375592 1.522635 0.240649
v -0.279326 1.526520 0.031523
v -0.276688 1.285842 0.237459
v -0.279326 1.526520 0.031523
v -0.208618 1.288589 0.089584
v -0.208618 1.288589 0.089584
v -0.279326 1.526520 0.031523
v -0.046920 1.530264 -0.055071
v -0.208618 1.288589 0.089584
v -0.046920 1.530264 -0.055071
v -0.044282 1.291237 0.028353
v -0.044282 1.291237 0.028353
v -0.046920 1.530264 -0.055071
v 0.185486 1.531674 0.031592
v -0.044282 1.291237 0.028353
v 0.185486 1.531674 0.031592
v 0.120054 1.292233 0.089633
v 0.120054 1.292233 0.089633
v 0.185486 1.531674 0.031592
v 0.281752 1.529924 0.240747
v 0.120054 1.292233 0.089633
v 0.281752 1.529924 0.240747
v 0.188124 1.290996 0.237528
v 0.281752 1.529924 0.240747
v 0.182848 1.766717 0.243938
v 0.114778 1.763970 0.391813
v 0.281752 1.529924 0.240747
v 0.114778 1.763970 0.391813
v 0.185486 1.526038 0.449874
v 0.185486 1.526038 0.449874
v 0.114778 1.763970 0.391813
v -0.049558 1.761322 0.453044
v 0.185486 1.526038 0.449874
v -0.049558 1.761322 0.453044
v -0.046920 1.522294 0.536468
v -0.046920 1.522294 0.536468
v -0.049558 1.761322 0.453044
v -0.213894 1.760325 0.391764
v -0.046920 1.522294 0.536468
v -0.213894 1.760325 0.391764
v -0.279326 1.520884 0.449804
v -0.279326 1.520884 0.449804
v -0.213894 1.760325 0.391764
v -0.281964 1.761563 0.243869
v -0.279326 1.520884 0.449804
v -0.281964 1.761563 0.243869
v -0.375592 1.522635 0.240649
v -0.375592 1.522635 0.240649
v -0.281964 1.761563 0.243869
v -0.213894 1.764310 0.095994
v -0.375592 1.522635 0.240649
v -0.213894 1.764310 0.095994
v -0.279326 1.526520 0.031523
v -0.279326 1.526520 0.031523
v -0.213894 1.764310 0.095994
v -0.049558 1.766958 0.034763
v -0.279326 1.526520 0.031523
v -0.049558 1.766958 0.034763
v -0.046920 1.530264 -0.055071
v -0.046920 1.530264 -0.055071
v -0.049558 1.766958 0.034763
v 0.114778 1.767955 0.096043
v -0.046920 1.530264 -0.055071
v 0.114778 1.767955 0.096043
v 0.185486 1.531674 0.031592
v 0.185486 1.531674 0.031592
v 0.114778 1.767955 0.096043
v 0.182848 1.766717 0.243938
v 0.185486 1.531674 0.031592
v 0.182848 1.766717 0.243938
v 0.281752 1.529924 0.240747
v 0.182848 1.766717 0.243938
v -0.050650 1.862665 0.245231
v -0.050650 1.862665 0.245231
v 0.182848 1.766717 0.243938
v -0.050650 1.862665 0.245231
v 0.114778 1.763970 0.391813
v 0.114778 1.763970 0.391813
v -0.050650 1.862665 0.245231
v -0.050650 1.862665 0.245231
v 0.114778 1.763970 0.391813
v -0.050650 1.862665 0.245231
v -0.049558 1.761322 0.453044
v -0.049558 1.761322 0.453044
v -0.050650 1.862665 0.245231
v -0.050650 1.862665 0.245231
v -0.049558 1.761322 0.453044
v -0.050650 1.862665 0.245231
v -0.213894 1.760325 0.391764
v -0.213894 1.760325 0.391764
v -0.050650 1.862665 0.245231
v -0.050650 1.862665 0.245231
v -0.213894 1.760325 0.391764
v -0.050650 1.862665 0.245231
v -0.281964 1.761563 0.243869
v -0.281964 1.761563 0.243869
v -0.050650 1.862665 0.245231
v -0.050650 1.862665 0.245231
v -0.281964 1.761563 0.243869
v -0.050650 1.862665 0.245231
v -0.213894 1.764310 0.095994
v -0.213894 1.764310 0.095994
v -0.050650 1.862665 0.245231
v -0.050650 1.862665 0.245231
v -0.213894 1.764310 0.095994
v -0.050650 1.862665 0.245231
v -0.049558 1.766958 0.034763
v -0.049558 1.766958 0.034763
v -0.050650 1.862665 0.245231
v -0.050650 1.862665 0.245231
v -0.049558 1.766958 0.034763
v -0.050650 1.862665 0.245231
v 0.114778 1.767955 0.096043
v 0.114778 1.767955 0.096043
v -0.050650 1.862665 0.245231
v -0.050650 1.862665 0.245231
v 0.114778 1.767955 0.096043
v -0.050650 1.862665 0.245231
v 0.182848 1.766717 0.243938
v -0.205771 1.346999 -0.085808
v 0.045704 1.423656 -0.084775
v -0.028192 1.420538 0.085790
v -0.205771 1.346999 -0.085808
v -0.028192 1.420538 0.085790
v -0.205771 1.346999 -0.085808
v -0.205771 1.346999 -0.085808
v -0.028192 1.420538 0.085790
v -0.206591 1.417608 0.156418
v -0.205771 1.346999 -0.085808
v -0.206591 1.417608 0.156418
v -0.205771 1.346999 -0.085808
v -0.205771 1.346999 -0.085808
v -0.206591 1.417608 0.156418
v -0.384990 1.416582 0.085737
v -0.205771 1.346999 -0.085808
v -0.384990 1.416582 0.085737
v -0.205771 1.346999 -0.085808
v -0.205771 1.346999 -0.085808
v -0.384990 1.416582 0.085737
v -0.458885 1.418061 -0.084850
v -0.205771 1.346999 -0.085808
v -0.458885 1.418061 -0.084850
v -0.205771 1.346999 -0.085808
v -0.205771 1.346999 -0.085808
v -0.458885 1.418061 -0.084850
v -0.384990 1.421179 -0.255415
v -0.205771 1.346999 -0.085808
v -0.384990 1.421179 -0.255415
v -0.205771 1.346999 -0.085808
v -0.205771 1.346999 -0.085808
v -0.384990 1.421179 -0.255415
v -0.206591 1.424109 -0.326043
v -0.205771 1.346999 -0.085808
v -0.206591 1.424109 -0.326043
v -0.205771 1.346999 -0.085808
v -0.205771 1.346999 -0.085808
v -0.206591 1.424109 -0.326043
v -0.028192 1.425135 -0.255362
v -0.205771 1.346999 -0.085808
v -0.028192 1.425135 -0.255362
v -0.205771 1.346999 -0.085808
v -0.205771 1.346999 -0.085808
v -0.028192 1.425135 -0.255362
v 0.045704 1.423656 -0.084775
v -0.205771 1.346999 -0.085808
v 0.045704 1.423656 -0.084775
v -0.205771 1.346999 -0.085808
v 0.045704 1.423656 -0.084775
v 0.148230 1.603127 -0.082357
v 0.043726 1.598718 0.158858
v 0.045704 1.423656 -0.084775
v 0.043726 1.598718 0.158858
v -0.028192 1.420538 0.085790
v -0.028192 1.420538 0.085790
v 0.043726 1.598718 0.158858
v -0.208568 1.594574 0.258742
v -0.028192 1.420538 0.085790
v -0.208568 1.594574 0.258742
v -0.206591 1.417608 0.156418
v -0.206591 1.417608 0.156418
v -0.208568 1.594574 0.258742
v -0.460862 1.593123 0.158783
v -0.206591 1.417608 0.156418
v -0.460862 1.593123 0.158783
v -0.384990 1.416582 0.085737
v -0.384990 1.416582 0.085737
v -0.460862 1.593123 0.158783
v -0.565366 1.595215 -0.082463
v -0.384990 1.416582 0.085737
v -0.565366 1.595215 -0.082463
v -0.458885 1.418061 -0.084850
v -0.458885 1.418061 -0.084850
v -0.565366 1.595215 -0.082463
v -0.460862 1.599624 -0.323678
v -0.458885 1.418061 -0.084850
v -0.460862 1.599624 -0.323678
v -0.384990 1.421179 -0.255415
v -0.384990 1.421179 -0.255415
v -0.460862 1.599624 -0.323678
v -0.208568 1.603768 -0.423562
v -0.384990 1.421179 -0.255415
v -0.208568 1.603768 -0.423562
v -0.206591 1.424109 -0.326043
v -0.206591 1.424109 -0.326043
v -0.208568 1.603768 -0.423562
v 0.043726 1.605219 -0.323603
v -0.206591 1.424109 -0.326043
v 0.043726 1.605219 -0.323603
v -0.028192 1.425135 -0.255362
v -0.028192 1.425135 -0.255362
v 0.043726 1.605219 -0.323603
v 0.148230 1.603127 -0.082357
v -0.028192 1.425135 -0.255362
v 0.148230 1.603127 -0.082357
v 0.045704 1.423656 -0.084775
v 0.148230 1.603127 -0.082357
v 0.041749 1.780281 -0.079970
v -0.032147 1.777163 0.090595
v 0.148230 1.603127 -0.082357
v -0.032147 1.777163 0.090595
v 0.043726 1.598718 0.158858
v 0.043726 1.598718 0.158858
v -0.032147 1.777163 0.090595
v -0.210546 1.774233 0.161223
v 0.043726 1.598718 0.158858
v -0.210546 1.774233 0.161223
v -0.208568 1.594574 0.258742
v -0.208568 1.594574 0.258742
v -0.210546 1.774233 0.161223
v -0.388945 1.773207 0.090542
v -0.208568 1.594574 0.258742
v -0.388945 1.773207 0.090542
v -0.460862 1.593123 0.158783
v -0.460862 1.593123 0.158783
v -0.388945 1.773207 0.090542
v -0.462840 1.774686 -0.080045
v -0.460862 1.593123 0.158783
v -0.462840 1.774686 -0.080045
v -0.565366 1.595215 -0.082463
v -0.565366 1.595215 -0.082463
v -0.462840 1.774686 -0.080045
v -0.388945 1.777803 -0.250610
v -0.565366 1.595215 -0.082463
v -0.388945 1.777803 -0.250610
v -0.460862 1.599624 -0.323678
v -0.460862 1.599624 -0.323678
v -0.388945 1.777803 -0.250610
v -0.210546 1.780733 -0.321238
v -0.460862 1.599624 -0.323678
v -0.210546 1.780733 -0.321238
v -0.208568 1.603768 -0.423562
v -0.208568 1.603768 -0.423562
v -0.210546 1.780733 -0.321238
v -0.032147 1.781760 -0.250557
v -0.208568 1.603768 -0.423562
v -0.032147 1.781760 -0.250557
v 0.043726 1.605219 -0.323603
v 0.043726 1.605219 -0.323603
v -0.032147 1.781760 -0.250557
v 0.041749 1.780281 -0.079970
v 0.043726 1.605219 -0.323603
v 0.041749 1.780281 -0.079970
v 0.148230 1.603127 -0.082357
v 0.041749 1.780281 -0.079970
v -0.211365 1.851343 -0.079012
v -0.211365 1.851343 -0.079012
v 0.041749 1.780281 -0.079970
v -0.211365 1.851343 -0.079012
v -0.032147 1.777163 0.090595
v -0.032147 1.777163 0.090595
v -0.211365 1.851343 -0.079012
v -0.211365 1.851343 -0.079012
v -0.032147 1.777163 0.090595
v -0.211365 1.851343 -0.079012
v -0.210546 1.774233 0.161223
v -0.210546 1.774233 0.161223
v -0.211365 1.851343 -0.079012
v -0.211365 1.851343 -0.079012
v -0.210546 1.774233 0.161223
v -0.211365 1.851343 -0.079012
v -0.388945 1.773207 0.090542
v -0.388945 1.773207 0.090542
v -0.211365 1.851343 -0.079012
v -0.211365 1.851343 -0.079012
v -0.388945 1.773207 0.090542
v -0.211365 1.851343 -0.079012
v -0.462840 1.774686 -0.080045
v -0.462840 1.774686 -0.080045
v -0.211365 1.851343 -0.079012
v -0.211365 1.851343 -0.079012
v -0.462840 1.774686 -0.080045
v -0.211365 1.851343 -0.079012
v -0.388945 1.777803 -0.250610
v -0.388945 1.777803 -0.250610
v -0.211365 1.851343 -0.079012
v -0.211365 1.851343 -0.079012
v -0.388945 1.777803 -0.250610
v -0.211365 1.851343 -0.079012
v -0.210546 1.780733 -0.321238
v -0.210546 1.780733 -0.321238
v -0.211365 1.851343 -0.079012
v -0.211365 1.851343 -0.079012
v -0.210546 1.780733 -0.321238
v -0.211365 1.851343 -0.079012
v -0.032147 1.781760 -0.250557
v -0.032147 1.781760 -0.250557
v -0.211365 1.851343 -0.079012
v -0.211365 1.851343 -0.079012
v -0.032147 1.781760 -0.250557
v -0.211365 1.851343 -0.079012
v 0.041749 1.780281 -0.079970
v 0.166082 1.098629 -0.311311
v 0.352505 1.182116 -0.310186
v 0.297639 1.179701 -0.176091
v 0.166082 1.098629 -0.311311
v 0.297639 1.179701 -0.176091
v 0.166082 1.098629 -0.311311
v 0.166082 1.098629 -0.311311
v 0.297639 1.179701 -0.176091
v 0.165179 1.177484 -0.120564
v 0.166082 1.098629 -0.311311
v 0.165179 1.177484 -0.120564
v 0.166082 1.098629 -0.311311
v 0.166082 1.098629 -0.311311
v 0.165179 1.177484 -0.120564
v 0.032719 1.176763 -0.176131
v 0.166082 1.098629 -0.311311
v 0.032719 1.176763 -0.176131
v 0.166082 1.098629 -0.311311
v 0.166082 1.098629 -0.311311
v 0.032719 1.176763 -0.176131
v -0.022148 1.177962 -0.310242
v 0.166082 1.098629 -0.311311
v -0.022148 1.177962 -0.310242
v 0.166082 1.098629 -0.311311
v 0.166082 1.098629 -0.311311
v -0.022148 1.177962 -0.310242
v 0.032719 1.180377 -0.444336
v 0.166082 1.098629 -0.311311
v 0.032719 1.180377 -0.444336
v 0.166082 1.098629 -0.311311
v 0.166082 1.098629 -0.311311
v 0.032719 1.180377 -0.444336
v 0.165179 1.182594 -0.499864
v 0.166082 1.098629 -0.311311
v 0.165179 1.182594 -0.499864
v 0.166082 1.098629 -0.311311
v 0.166082 1.098629 -0.311311
v 0.165179 1.182594 -0.499864
v 0.297639 1.183315 -0.444297
v 0.166082 1.098629 -0.311311
v 0.297639 1.183315 -0.444297
v 0.166082 1.098629 -0.311311
v 0.166082 1.098629 -0.311311
v 0.297639 1.183315 -0.444297
v 0.352505 1.182116 -0.310186
v 0.166082 1.098629 -0.311311
v 0.352505 1.182116 -0.310186
v 0.166082 1.098629 -0.311311
v 0.352505 1.182116 -0.310186
v 0.427919 1.379518 -0.307526
v 0.350326 1.376102 -0.117888
v 0.352505 1.182116 -0.310186
v 0.350326 1.376102 -0.117888
v 0.297639 1.179701 -0.176091
v 0.297639 1.179701 -0.176091
v 0.350326 1.376102 -0.117888
v 0.162999 1.372967 -0.039360
v 0.297639 1.179701 -0.176091
v 0.162999 1.372967 -0.039360
v 0.165179 1.177484 -0.120564
v 0.165179 1.177484 -0.120564
v 0.162999 1.372967 -0.039360
v -0.024327 1.371948 -0.117944
v 0.165179 1.177484 -0.120564
v -0.024327 1.371948 -0.117944
v 0.032719 1.176763 -0.176131
v 0.032719 1.176763 -0.176131
v -0.024327 1.371948 -0.117944
v -0.101921 1.373643 -0.307605
v 0.032719 1.176763 -0.176131
v -0.101921 1.373643 -0.307605
v -0.022148 1.177962 -0.310242
v -0.022148 1.177962 -0.310242
v -0.101921 1.373643 -0.307605
v -0.024327 1.377059 -0.497244
v -0.022148 1.177962 -0.310242
v -0.024327 1.377059 -0.497244
v 0.032719 1.180377 -0.444336
v 0.032719 1.180377 -0.444336
v -0.024327 1.377059 -0.497244
v 0.162999 1.380194 -0.575771
v 0.032719 1.180377 -0.444336
v 0.162999 1.380194 -0.575771
v 0.165179 1.182594 -0.499864
v 0.165179 1.182594 -0.499864
v 0.162999 1.380194 -0.575771
v 0.350326 1.381213 -0.497188
v 0.165179 1.182594 -0.499864
v 0.350326 1.381213 -0.497188
v 0.297639 1.183315 -0.444297
v 0.297639 1.183315 -0.444297
v 0.350326 1.381213 -0.497188
v 0.427919 1.379518 -0.307526
v 0.297639 1.183315 -0.444297
v 0.427919 1.379518 -0.307526
v 0.352505 1.182116 -0.310186
v 0.427919 1.379518 -0.307526
v 0.348146 1.575199 -0.304890
v 0.293279 1.572784 -0.170795
v 0.427919 1.379518 -0.307526
v 0.293279 1.572784 -0.170795
v 0.350326 1.376102 -0.117888
v 0.350326 1.376102 -0.117888
v 0.293279 1.572784 -0.170795
v 0.160819 1.570567 -0.115268
v 0.350326 1.376102 -0.117888
v 0.160819 1.570567 -0.115268
v 0.162999 1.372967 -0.039360
v 0.162999 1.372967 -0.039360
v 0.160819 1.570567 -0.115268
v 0.028360 1.569846 -0.170835
v 0.162999 1.372967 -0.039360
v 0.028360 1.569846 -0.170835
v -0.024327 1.371948 -0.117944
v -0.024327 1.371948 -0.117944
v 0.028360 1.569846 -0.170835
v -0.026507 1.571045 -0.304946
v -0.024327 1.371948 -0.117944
v -0.026507 1.571045 -0.304946
v -0.101921 1.373643 -0.307605
v -0.101921 1.373643 -0.307605
v -0.026507 1.571045 -0.304946
v 0.028360 1.573460 -0.439040
v -0.101921 1.373643 -0.307605
v 0.028360 1.573460 -0.439040
v -0.024327 1.377059 -0.497244
v -0.024327 1.377059 -0.497244
v 0.028360 1.573460 -0.439040
v 0.160819 1.575677 -0.494567
v -0.024327 1.377059 -0.497244
v 0.160819 1.575677 -0.494567
v 0.162999 1.380194 -0.575771
v 0.162999 1.380194 -0.575771
v 0.160819 1.575677 -0.494567
v 0.293279 1.576398 -0.439000
v 0.162999 1.380194 -0.575771
v 0.293279 1.576398 -0.439000
v 0.350326 1.381213 -0.497188
v 0.350326 1.381213 -0.497188
v 0.293279 1.576398 -0.439000
v 0.348146 1.575199 -0.304890
v 0.350326 1.381213 -0.497188
v 0.348146 1.575199 -0.304890
v 0.427919 1.379518 -0.307526
v 0.348146 1.575199 -0.304890
v 0.159917 1.654532 -0.303821
v 0.159917 1.654532 -0.303821
v 0.348146 1.575199 -0.304890
v 0.159917 1.654532 -0.303821
v 0.293279 1.572784 -0.170795
v 0.293279 1.572784 -0.170795
v 0.159917 1.654532 -0.303821
v 0.159917 1.654532 -0.303821
v 0.293279 1.572784 -0.170795
v 0.159917 1.654532 -0.303821
v 0.160819 1.570567 -0.115268
v 0.160819 1.570567 -0.115268
v 0.159917 1.654532 -0.303821
v 0.159917 1.654532 -0.303821
v 0.160819 1.570567 -0.115268
v 0.159917 1.654532 -0.303821
v 0.028360 1.569846 -0.170835
v 0.028360 1.569846 -0.170835
v 0.159917 1.654532 -0.303821
v 0.159917 1.654532 -0.303821
v 0.028360 1.569846 -0.170835
v 0.159917 1.654532 -0.303821
v -0.026507 1.571045 -0.304946
v -0.026507 1.571045 -0.304946
v 0.159917 1.654532 -0.303821
v 0.159917 1.654532 -0.303821
v -0.026507 1.571045 -0.304946
v 0.159917 1.654532 -0.303821
v 0.028360 1.573460 -0.439040
v 0.028360 1.573460 -0.439040
v 0.159917 1.654532 -0.303821
v 0.159917 1.654532 -0.303821
v 0.028360 1.573460 -0.439040
v 0.159917 1.654532 -0.303821
v 0.160819 1.575677 -0.494567
v 0.160819 1.575677 -0.494567
v 0.159917 1.654532 -0.303821
v 0.159917 1.654532 -0.303821
v 0.160819 1.575677 -0.494567
v 0.159917 1.654532 -0.303821
v 0.293279 1.576398 -0.439000
v 0.293279 1.576398 -0.439000
v 0.159917 1.654532 -0.303821
v 0.159917 1.654532 -0.303821
v 0.293279 1.576398 -0.439000
v 0.159917 1.654532 -0.303821
v 0.348146 1.575199 -0.304890
v 0.242802 1.139112 0.053158
v 0.449030 1.230370 0.054387
v 0.388338 1.227587 0.210961
v 0.242802 1.139112 0.053158
v 0.388338 1.227587 0.210961
v 0.242802 1.139112 0.053158
v 0.242802 1.139112 0.053158
v 0.388338 1.227587 0.210961
v 0.241815 1.225089 0.275798
v 0.242802 1.139112 0.053158
v 0.241815 1.225089 0.275798
v 0.242802 1.139112 0.053158
v 0.242802 1.139112 0.053158
v 0.241815 1.225089 0.275798
v 0.095292 1.224338 0.210917
v 0.242802 1.139112 0.053158
v 0.095292 1.224338 0.210917
v 0.242802 1.139112 0.053158
v 0.242802 1.139112 0.053158
v 0.095292 1.224338 0.210917
v 0.034601 1.225775 0.054325
v 0.242802 1.139112 0.053158
v 0.034601 1.225775 0.054325
v 0.242802 1.139112 0.053158
v 0.242802 1.139112 0.053158
v 0.034601 1.225775 0.054325
v 0.095292 1.228558 -0.102248
v 0.242802 1.139112 0.053158
v 0.095292 1.228558 -0.102248
v 0.242802 1.139112 0.053158
v 0.242802 1.139112 0.053158
v 0.095292 1.228558 -0.102248
v 0.241815 1.231056 -0.167085
v 0.242802 1.139112 0.053158
v 0.241815 1.231056 -0.167085
v 0.242802 1.139112 0.053158
v 0.242802 1.139112 0.053158
v 0.241815 1.231056 -0.167085
v 0.388338 1.231807 -0.102204
v 0.242802 1.139112 0.053158
v 0.388338 1.231807 -0.102204
v 0.242802 1.139112 0.053158
v 0.242802 1.139112 0.053158
v 0.388338 1.231807 -0.102204
v 0.449030 1.230370 0.054387
v 0.242802 1.139112 0.053158
v 0.449030 1.230370 0.054387
v 0.242802 1.139112 0.053158
v 0.449030 1.230370 0.054387
v 0.532480 1.446093 0.057294
v 0.446648 1.442157 0.278723
v 0.449030 1.230370 0.054387
v 0.446648 1.442157 0.278723
v 0.388338 1.227587 0.210961
v 0.388338 1.227587 0.210961
v 0.446648 1.442157 0.278723
v 0.239433 1.438624 0.370416
v 0.388338 1.227587 0.210961
v 0.239433 1.438624 0.370416
v 0.241815 1.225089 0.275798
v 0.241815 1.225089 0.275798
v 0.239433 1.438624 0.370416
v 0.032219 1.437562 0.278661
v 0.241815 1.225089 0.275798
v 0.032219 1.437562 0.278661
v 0.095292 1.224338 0.210917
v 0.095292 1.224338 0.210917
v 0.032219 1.437562 0.278661
v -0.053613 1.439594 0.057206
v 0.095292 1.224338 0.210917
v -0.053613 1.439594 0.057206
v 0.034601 1.225775 0.054325
v 0.034601 1.225775 0.054325
v -0.053613 1.439594 0.057206
v 0.032219 1.443529 -0.164222
v 0.034601 1.225775 0.054325
v 0.032219 1.443529 -0.164222
v 0.095292 1.228558 -0.102248
v 0.095292 1.228558 -0.102248
v 0.032219 1.443529 -0.164222
v 0.239433 1.447063 -0.255915
v 0.095292 1.228558 -0.102248
v 0.239433 1.447063 -0.255915
v 0.241815 1.231056 -0.167085
v 0.241815 1.231056 -0.167085
v 0.239433 1.447063 -0.255915
v 0.446648 1.448125 -0.164160
v 0.241815 1.231056 -0.167085
v 0.446648 1.448125 -0.164160
v 0.388338 1.231807 -0.102204
v 0.388338 1.231807 -0.102204
v 0.446648 1.448125 -0.164160
v 0.532480 1.446093 0.057294
v 0.388338 1.231807 -0.102204
v 0.532480 1.446093 0.057294
v 0.449030 1.230370 0.054387
v 0.532480 1.446093 0.057294
v 0.444266 1.659912 0.060175
v 0.383575 1.657129 0.216749
v 0.532480 1.446093 0.057294
v 0.383575 1.657129 0.216749
v 0.446648 1.442157 0.278723
v 0.446648 1.442157 0.278723
v 0.383575 1.657129 0.216749
v 0.237052 1.654630 0.281585
v 0.446648 1.442157 0.278723
v 0.237052 1.654630 0.281585
v 0.239433 1.438624 0.370416
v 0.239433 1.438624 0.370416
v 0.237052 1.654630 0.281585
v 0.090529 1.653880 0.216705
v 0.239433 1.438624 0.370416
v 0.090529 1.653880 0.216705
v 0.032219 1.437562 0.278661
v 0.032219 1.437562 0.278661
v 0.090529 1.653880 0.216705
v 0.029837 1.655316 0.060113
v 0.032219 1.437562 0.278661
v 0.029837 1.655316 0.060113
v -0.053613 1.439594 0.057206
v -0.053613 1.439594 0.057206
v 0.029837 1.655316 0.060113
v 0.090529 1.658099 -0.096461
v -0.053613 1.439594 0.057206
v 0.090529 1.658099 -0.096461
v 0.032219 1.443529 -0.164222
v 0.032219 1.443529 -0.164222
v 0.090529 1.658099 -0.096461
v 0.237052 1.660598 -0.161297
v 0.032219 1.443529 -0.164222
v 0.237052 1.660598 -0.161297
v 0.239433 1.447063 -0.255915
v 0.239433 1.447063 -0.255915
v 0.237052 1.660598 -0.161297
v 0.383575 1.661349 -0.096417
v 0.239433 1.447063 -0.255915
v 0.383575 1.661349 -0.096417
v 0.446648 1.448125 -0.164160
v 0.446648 1.448125 -0.164160
v 0.383575 1.661349 -0.096417
v 0.444266 1.659912 0.060175
v 0.446648 1.448125 -0.164160
v 0.444266 1.659912 0.060175
v 0.532480 1.446093 0.057294
v 0.444266 1.659912 0.060175
v 0.236065 1.746575 0.061343
v 0.236065 1.746575 0.061343
v 0.444266 1.659912 0.060175
v 0.236065 1.746575 0.061343
v 0.383575 1.657129 0.216749
v 0.383575 1.657129 0.216749
v 0.236065 1.746575 0.061343
v 0.236065 1.746575 0.061343
v 0.383575 1.657129 0.216749
v 0.236065 1.746575 0.061343
v 0.237052 1.654630 0.281585
v 0.237052 1.654630 0.281585
v 0.236065 1.746575 0.061343
v 0.236065 1.746575 0.061343
v 0.237052 1.654630 0.281585
v 0.236065 1.746575 0.061343
v 0.090529 1.653880 0.216705
v 0.090529 1.653880 0.216705
v 0.236065 1.746575 0.061343
v 0.236065 1.746575 0.061343
v 0.090529 1.653880 0.216705
v 0.236065 1.746575 0.061343
v 0.029837 1.655316 0.060113
v 0.029837 1.655316 0.060113
v 0.236065 1.746575 0.061343
v 0.236065 1.746575 0.061343
v 0.029837 1.655316 0.060113
v 0.236065 1.746575 0.061343
v 0.090529 1.658099 -0.096461
v 0.090529 1.658099 -0.096461
v 0.236065 1.746575 0.061343
v 0.236065 1.746575 0.061343
v 0.090529 1.658099 -0.096461
v 0.236065 1.746575 0.061343
v 0.237052 1.660598 -0.161297
v 0.237052 1.660598 -0.161297
v 0.236065 1.746575 0.061343
v 0.236065 1.746575 0.061343
v 0.237052 1.660598 -0.161297
v 0.236065 1.746575 0.061343
v 0.383575 1.661349 -0.096417
v 0.383575 1.661349 -0.096417
v 0.236065 1.746575 0.061343
v 0.236065 1.746575 0.061343
v 0.383575 1.661349 -0.096417
v 0.236065 1.746575 0.061343
v 0.444266 1.659912 0.060175
f 733 734 735
f 736 737 738
f 739 740 741
f 742 743 744
f 745 746 747
f 748 749 750
f 751 752 753
f 754 755 756
f 757 758 759
f 760 761 762
f 763 764 765
f 766 767 768
f 769 770 771
f 772 773 774
f 775 776 777
f 778 779 780
f 781 782 783
f 784 785 786
f 787 788 789
f 790 791 792
f 793 794 795
f 796 797 798
f 799 800 801
f 802 803 804
f 805 806 807
f 808 809 810
f 811 812 813
f 814 815 816
f 817 818 819
f 820 821 822
f 823 824 825
f 826 827 828
f 829 830 831
f 832 833 834
f 835 836 837
f 838 839 840
f 841 842 843
f 844 845 846
f 847 848 849
f 850 851 852
f 853 854 855
f 856 857 858
f 859 860 861
f 862 863 864
f 865 866 867
f 868 869 870
f 871 872 873
f 874 875 876
f 877 878 879
f 880 881 882
f 883 884 885
f 886 887 888
f 889 890 891
f 892 893 894
f 895 896 897
f 898 899 900
f 901 902 903
f 904 905 906
f 907 908 909
f 910 911 912
f 913 914 915
f 916 917 918
f 919 920 921
f 922 923 924
f 925 926 927
f 928 929 930
f 931 932 933
f 934 935 936
f 937 938 939
f 940 941 942
f 943 944 945
f 946 947 948
f 949 950 951
f 952 953 954
f 955 956 957
f 958 959 960
f 961 962 963
f 964 965 966
f 967 968 969
f 970 971 972
f 973 974 975
f 976 977 978
f 979 980 981
f 982 983 984
f 985 986 987
f 988 989 990
f 991 992 993
f 994 995 996
f 997 998 999
f 1000 1001 1002
f 1003 1004 1005
f 1006 1007 1008
f 1009 1010 1011
f 1012 1013 1014
f 1015 1016 1017
f 1018 1019 1020
f 1021 1022 1023
f 1024 1025 1026
f 1027 1028 1029
f 1030 1031 1032
f 1033 1034 1035
f 1036 1037 1038
f 1039 1040 1041
f 1042 1043 1044
f 1045 1046 1047
f 1048 1049 1050
f 1051 1052 1053
f 1054 1055 1056
f 1057 1058 1059
f 1060 1061 1062
f 1063 1064 1065
f 1066 1067 1068
f 1069 1070 1071
f 1072 1073 1074
f 1075 1076 1077
f 1078 1079 1080
f 1081 1082 1083
f 1084 1085 1086
f 1087 1088 1089
f 1090 1091 1092
f 1093 1094 1095
f 1096 1097 1098
f 1099 1100 1101
f 1102 1103 1104
f 1105 1106 1107
f 1108 1109 1110
f 1111 1112 1113
f 1114 1115 1116
f 1117 1118 1119
f 1120 1121 1122
f 1123 1124 1125
f 1126 1127 1128
f 1129 1130 1131
f 1132 1133 1134
f 1135 1136 1137
f 1138 1139 1140
f 1141 1142 1143
f 1144 1145 1146
f 1147 1148 1149
f 1150 1151 1152
f 1153 1154 1155
f 1156 1157 1158
f 1159 1160 1161
f 1162 1163 1164
f 1165 1166 1167
f 1168 1169 1170
f 1171 1172 1173
f 1174 1175 1176
f 1177 1178 1179
f 1180 1181 1182
f 1183 1184 1185
f 1186 1187 1188
f 1189 1190 1191
f 1192 1193 1194
f 1195 1196 1197
f 1198 1199 1200
f 1201 1202 1203
f 1204 1205 1206
f 1207 1208 1209
f 1210 1211 1212
f 1213 1214 1215
f 1216 1217 1218
f 1219 1220 1221
f 1222 1223 1224
f 1225 1226 1227
f 1228 1229 1230
f 1231 1232 1233
f 1234 1235 1236
f 1237 1238 1239
f 1240 1241 1242
f 1243 1244 1245
f 1246 1247 1248
f 1249 1250 1251
f 1252 1253 1254
f 1255 1256 1257
f 1258 1259 1260
f 1261 1262 1263
f 1264 1265 1266
f 1267 1268 1269
f 1270 1271 1272
f 1273 1274 1275
f 1276 1277 1278
f 1279 1280 1281
f 1282 1283 1284
f 1285 1286 1287
f 1288 1289 1290
f 1291 1292 1293
f 1294 1295 1296
f 1297 1298 1299
f 1300 1301 1302
f 1303 1304 1305
f 1306 1307 1308
f 1309 1310 1311
f 1312 1313 1314
f 1315 1316 1317
f 1318 1319 1320
f 1321 1322 1323
f 1324 1325 1326
f 1327 1328 1329
f 1330 1331 1332
f 1333 1334 1335
f 1336 1337 1338
f 1339 1340 1341
f 1342 1343 1344
f 1345 1346 1347
f 1348 1349 1350
f 1351 1352 1353
f 1354 1355 1356
f 1357 1358 1359
f 1360 1361 1362
f 1363 1364 1365
f 1366 1367 1368
f 1369 1370 1371
f 1372 1373 1374
f 1375 1376 1377
f 1378 1379 1380
f 1381 1382 1383
f 1384 1385 1386
f 1387 1388 1389
f 1390 1391 1392
f 1393 1394 1395
f 1396 1397 1398
f 1399 1400 1401
f 1402 1403 1404
f 1405 1406 1407
f 1408 1409 1410
f 1411 1412 1413
f 1414 1415 1416
f 1417 1418 1419
f 1420 1421 1422
f 1423 1424 1425
f 1426 1427 1428
f 1429 1430 1431
f 1432 1433 1434
f 1435 1436 1437
f 1438 1439 1440
f 1441 1442 1443
f 1444 1445 1446
f 1447 1448 1449
f 1450 1451 1452
f 1453 1454 1455
f 1456 1457 1458
f 1459 1460 1461
f 1462 1463 1464
f 1465 1466 1467
f 1468 1469 1470
f 1471 1472 1473
f 1474 1475 1476
f 1477 1478 1479
f 1480 1481 1482
f 1483 1484 1485
f 1486 1487 1488
f 1489 1490 1491
f 1492 1493 1494
f 1495 1496 1497
f 1498 1499 1500
f 1501 1502 1503
f 1504 1505 1506
f 1507 1508 1509
f 1510 1511 1512
f 1513 1514 1515
f 1516 1517 1518
f 1519 1520 1521
f 1522 1523 1524
f 1525 1526 1527
f 1528 1529 1530
f 1531 1532 1533
f 1534 1535 1536
f 1537 1538 1539
f 1540 1541 1542
f 1543 1544 1545
f 1546 1547 1548
f 1549 1550 1551
f 1552 1553 1554
f 1555 1556 1557
f 1558 1559 1560
f 1561 1562 1563
f 1564 1565 1566
f 1567 1568 1569
f 1570 1571 1572
f 1573 1574 1575
f 1576 1577 1578
f 1579 1580 1581
f 1582 1583 1584
f 1585 1586 1587
f 1588 1589 1590
f 1591 1592 1593
f 1594 1595 1596
f 1597 1598 1599
f 1600 1601 1602
f 1603 1604 1605
f 1606 1607 1608
f 1609 1610 1611
f 1612 1613 1614
f 1615 1616 1617
f 1618 1619 1620
f 1621 1622 1623
f 1624 1625 1626
f 1627 1628 1629
f 1630 1631 1632
f 1633 1634 1635
f 1636 1637 1638
f 1639 1640 1641
f 1642 1643 1644
f 1645 1646 1647
f 1648 1649 1650
f 1651 1652 1653
f 1654 1655 1656
f 1657 1658 1659
f 1660 1661 1662
f 1663 1664 1665
f 1666 1667 1668
f 1669 1670 1671
f 1672 1673 1674
f 1675 1676 1677
f 1678 1679 1680
f 1681 1682 1683
f 1684 1685 1686
f 1687 1688 1689
f 1690 1691 1692
f 1693 1694 1695
f 1696 1697 1698
f 1699 1700 1701
f 1702 1703 1704
f 1705 1706 1707
f 1708 1709 1710
f 1711 1712 1713
f 1714 1715 1716
f 1717 1718 1719
f 1720 1721 1722
f 1723 1724 1725
f 1726 1727 1728
f 1729 1730 1731
f 1732 1733 1734
f 1735 1736 1737
f 1738 1739 1740
f 1741 1742 1743
f 1744 1745 1746
f 1747 1748 1749
f 1750 1751 1752
f 1753 1754 1755
f 1756 1757 1758
f 1759 1760 1761
f 1762 1763 1764
f 1765 1766 1767
f 1768 1769 1770
f 1771 1772 1773
f 1774 1775 1776
f 1777 1778 1779
f 1780 1781 1782
f 1783 1784 1785
f 1786 1787 1788
f 1789 1790 1791
f 1792 1793 1794
f 1795 1796 1797
f 1798 1799 1800
f 1801 1802 1803
f 1804 1805 1806
f 1807 1808 1809
f 1810 1811 1812
f 1813 1814 1815
f 1816 1817 1818
f 1819 1820 1821
f 1822 1823 1824
f 1825 1826 1827
f 1828 1829 1830
f 1831 1832 1833
f 1834 1835 1836
f 1837 1838 1839
f 1840 1841 1842
f 1843 1844 1845
f 1846 1847 1848
f 1849 1850 1851
f 1852 1853 1854
f 1855 1856 1857
f 1858 1859 1860
f 1861 1862 1863
f 1864 1865 1866
f 1867 1868 1869
f 1870 1871 1872
f 1873 1874 1875
f 1876 1877 1878
f 1879 1880 1881
f 1882 1883 1884
f 1885 1886 1887
f 1888 1889 1890
f 1891 1892 1893
f 1894 1895 1896
f 1897 1898 1899
f 1900 1901 1902
f 1903 1904 1905
f 1906 1907 1908
f 1909 1910 1911
f 1912 1913 1914
f 1915 1916 1917
f 1918 1919 1920
f 1921 1922 1923
f 1924 1925 1926
f 1927 1928 1929
f 1930 1931 1932
f 1933 1934 1935
f 1936 1937 1938
f 1939 1940 1941
f 1942 1943 1944
f 1945 1946 1947
f 1948 1949 1950
f 1951 1952 1953
f 1954 1955 1956
f 1957 1958 1959
f 1960 1961 1962
f 1963 1964 1965
f 1966 1967 1968
f 1969 1970 1971
f 1972 1973 1974
f 1975 1976 1977
f 1978 1979 1980
f 1981 1982 1983
f 1984 1985 1986
f 1987 1988 1989
f 1990 1991 1992
f 1993 1994 1995
f 1996 1997 1998
f 1999 2000 2001
f 2002 2003 2004
f 2005 2006 2007
f 2008 2009 2010
f 2011 2012 2013
f 2014 2015 2016
f 2017 2018 2019
f 2020 2021 2022
f 2023 2024 2025
f 2026 2027 2028
f 2029 2030 2031
f 2032 2033 2034
f 2035 2036 2037
f 2038 2039 2040
f 2041 2042 2043
f 2044 2045 2046
f 2047 2048 2049
f 2050 2051 2052
f 2053 2054 2055
f 2056 2057 2058
f 2059 2060 2061
f 2062 2063 2064
f 2065 2066 2067
f 2068 2069 2070
f 2071 2072 2073
f 2074 2075 2076
