# Pyramida editable prop source
# units: 1 OBJ unit = 1 Pyramida World Unit = 1 Blender metre

o TreeTrunk
v 0.060916 0.074267 0.097204
v 0.240727 0.020593 -0.015561
v 0.243186 0.043997 -0.040019
v 0.060916 0.074267 0.097204
v 0.243186 0.043997 -0.040019
v 0.071675 0.176660 -0.009800
v 0.043645 0.075529 -0.006358
v 0.060916 0.074267 0.097204
v 0.071675 0.176660 -0.009800
v 0.236780 0.020881 -0.039232
v 0.243186 0.043997 -0.040019
v 0.240727 0.020593 -0.015561
v 0.071675 0.176660 -0.009800
v 0.243186 0.043997 -0.040019
v 0.232832 0.021170 -0.062903
v 0.071675 0.176660 -0.009800
v 0.232832 0.021170 -0.062903
v 0.026375 0.076791 -0.109920
v 0.043645 0.075529 -0.006358
v 0.071675 0.176660 -0.009800
v 0.026375 0.076791 -0.109920
v 0.236780 0.020881 -0.039232
v 0.232832 0.021170 -0.062903
v 0.243186 0.043997 -0.040019
v 0.026375 0.076791 -0.109920
v 0.232832 0.021170 -0.062903
v 0.230373 -0.002235 -0.038445
v 0.026375 0.076791 -0.109920
v 0.230373 -0.002235 -0.038445
v 0.015616 -0.025602 -0.002916
v 0.043645 0.075529 -0.006358
v 0.026375 0.076791 -0.109920
v 0.015616 -0.025602 -0.002916
v 0.236780 0.020881 -0.039232
v 0.230373 -0.002235 -0.038445
v 0.232832 0.021170 -0.062903
v 0.015616 -0.025602 -0.002916
v 0.230373 -0.002235 -0.038445
v 0.240727 0.020593 -0.015561
v 0.015616 -0.025602 -0.002916
v 0.240727 0.020593 -0.015561
v 0.060916 0.074267 0.097204
v 0.043645 0.075529 -0.006358
v 0.015616 -0.025602 -0.002916
v 0.060916 0.074267 0.097204
v 0.236780 0.020881 -0.039232
v 0.240727 0.020593 -0.015561
v 0.230373 -0.002235 -0.038445
v -0.114843 0.073938 -0.004371
v -0.140026 0.013395 0.233235
v -0.121235 0.036631 0.249329
v -0.114843 0.073938 -0.004371
v -0.121235 0.036631 0.249329
v -0.032633 0.175594 0.066039
v -0.020398 0.074235 0.041509
v -0.114843 0.073938 -0.004371
v -0.032633 0.175594 0.066039
v -0.118439 0.013463 0.243722
v -0.121235 0.036631 0.249329
v -0.140026 0.013395 0.233235
v -0.032633 0.175594 0.066039
v -0.121235 0.036631 0.249329
v -0.096851 0.013531 0.254209
v -0.032633 0.175594 0.066039
v -0.096851 0.013531 0.254209
v 0.074047 0.074533 0.087389
v -0.020398 0.074235 0.041509
v -0.032633 0.175594 0.066039
v 0.074047 0.074533 0.087389
v -0.118439 0.013463 0.243722
v -0.096851 0.013531 0.254209
v -0.121235 0.036631 0.249329
v 0.074047 0.074533 0.087389
v -0.096851 0.013531 0.254209
v -0.115642 -0.009705 0.238115
v 0.074047 0.074533 0.087389
v -0.115642 -0.009705 0.238115
v -0.008163 -0.027123 0.016979
v -0.020398 0.074235 0.041509
v 0.074047 0.074533 0.087389
v -0.008163 -0.027123 0.016979
v -0.118439 0.013463 0.243722
v -0.115642 -0.009705 0.238115
v -0.096851 0.013531 0.254209
v -0.008163 -0.027123 0.016979
v -0.115642 -0.009705 0.238115
v -0.140026 0.013395 0.233235
v -0.008163 -0.027123 0.016979
v -0.140026 0.013395 0.233235
v -0.114843 0.073938 -0.004371
v -0.020398 0.074235 0.041509
v -0.008163 -0.027123 0.016979
v -0.114843 0.073938 -0.004371
v -0.118439 0.013463 0.243722
v -0.140026 0.013395 0.233235
v -0.115642 -0.009705 0.238115
v 0.069710 0.076928 -0.088868
v -0.123869 0.020590 -0.275400
v -0.147651 0.043685 -0.268117
v 0.069710 0.076928 -0.088868
v -0.147651 0.043685 -0.268117
v -0.034335 0.177969 -0.057005
v -0.022365 0.075322 -0.038425
v 0.069710 0.076928 -0.088868
v -0.034335 0.177969 -0.057005
v -0.144915 0.020223 -0.263870
v -0.147651 0.043685 -0.268117
v -0.123869 0.020590 -0.275400
v -0.034335 0.177969 -0.057005
v -0.147651 0.043685 -0.268117
v -0.165961 0.019856 -0.252340
v -0.034335 0.177969 -0.057005
v -0.165961 0.019856 -0.252340
v -0.114440 0.073716 0.012019
v -0.022365 0.075322 -0.038425
v -0.034335 0.177969 -0.057005
v -0.114440 0.073716 0.012019
v -0.144915 0.020223 -0.263870
v -0.165961 0.019856 -0.252340
v -0.147651 0.043685 -0.268117
v -0.114440 0.073716 0.012019
v -0.165961 0.019856 -0.252340
v -0.142179 -0.003240 -0.259623
v -0.114440 0.073716 0.012019
v -0.142179 -0.003240 -0.259623
v -0.010395 -0.027326 -0.019844
v -0.022365 0.075322 -0.038425
v -0.114440 0.073716 0.012019
v -0.010395 -0.027326 -0.019844
v -0.144915 0.020223 -0.263870
v -0.142179 -0.003240 -0.259623
v -0.165961 0.019856 -0.252340
v -0.010395 -0.027326 -0.019844
v -0.142179 -0.003240 -0.259623
v -0.123869 0.020590 -0.275400
v -0.010395 -0.027326 -0.019844
v -0.123869 0.020590 -0.275400
v 0.069710 0.076928 -0.088868
v -0.022365 0.075322 -0.038425
v -0.010395 -0.027326 -0.019844
v 0.069710 0.076928 -0.088868
v -0.144915 0.020223 -0.263870
v -0.123869 0.020590 -0.275400
v -0.142179 -0.003240 -0.259623
v -0.000087 0.010983 -0.159623
v 0.018156 1.008411 -0.062603
v 0.132200 1.001827 0.002871
v -0.000087 0.010983 -0.159623
v 0.132200 1.001827 0.002871
v 0.138498 0.002982 -0.080059
v 0.000000 0.000000 0.000000
v -0.000087 0.010983 -0.159623
v 0.138498 0.002982 -0.080059
v 0.138498 0.002982 -0.080059
v 0.132200 1.001827 0.002871
v 0.132271 0.992789 0.134227
v 0.138498 0.002982 -0.080059
v 0.132271 0.992789 0.134227
v 0.138584 -0.008001 0.079563
v 0.000000 0.000000 0.000000
v 0.138498 0.002982 -0.080059
v 0.138584 -0.008001 0.079563
v 0.138584 -0.008001 0.079563
v 0.132271 0.992789 0.134227
v 0.018299 0.990335 0.200109
v 0.138584 -0.008001 0.079563
v 0.018299 0.990335 0.200109
v 0.000087 -0.010983 0.159623
v 0.000000 0.000000 0.000000
v 0.138584 -0.008001 0.079563
v 0.000087 -0.010983 0.159623
v 0.000087 -0.010983 0.159623
v 0.018299 0.990335 0.200109
v -0.095745 0.996919 0.134635
v 0.000087 -0.010983 0.159623
v -0.095745 0.996919 0.134635
v -0.138498 -0.002982 0.080059
v 0.000000 0.000000 0.000000
v 0.000087 -0.010983 0.159623
v -0.138498 -0.002982 0.080059
v -0.138498 -0.002982 0.080059
v -0.095745 0.996919 0.134635
v -0.095816 1.005958 0.003279
v -0.138498 -0.002982 0.080059
v -0.095816 1.005958 0.003279
v -0.138584 0.008001 -0.079563
v 0.000000 0.000000 0.000000
v -0.138498 -0.002982 0.080059
v -0.138584 0.008001 -0.079563
v -0.138584 0.008001 -0.079563
v -0.095816 1.005958 0.003279
v 0.018156 1.008411 -0.062603
v -0.138584 0.008001 -0.079563
v 0.018156 1.008411 -0.062603
v -0.000087 0.010983 -0.159623
v 0.000000 0.000000 0.000000
v -0.138584 0.008001 -0.079563
v -0.000087 0.010983 -0.159623
v 0.018343 0.989486 -0.062542
v 0.071948 1.492736 -0.071977
v 0.160887 1.487152 -0.019665
v 0.018343 0.989486 -0.062542
v 0.160887 1.487152 -0.019665
v 0.131668 0.982371 0.004114
v 0.071858 1.500496 0.031065
v 0.160887 1.487152 -0.019665
v 0.071948 1.492736 -0.071977
v 0.131668 0.982371 0.004114
v 0.160887 1.487152 -0.019665
v 0.160796 1.494912 0.083376
v 0.131668 0.982371 0.004114
v 0.160796 1.494912 0.083376
v 0.131553 0.992258 0.135409
v 0.071858 1.500496 0.031065
v 0.160796 1.494912 0.083376
v 0.160887 1.487152 -0.019665
v 0.131553 0.992258 0.135409
v 0.160796 1.494912 0.083376
v 0.071767 1.508255 0.134106
v 0.131553 0.992258 0.135409
v 0.071767 1.508255 0.134106
v 0.018112 1.009260 0.200048
v 0.071858 1.500496 0.031065
v 0.071767 1.508255 0.134106
v 0.160796 1.494912 0.083376
v 0.018112 1.009260 0.200048
v 0.071767 1.508255 0.134106
v -0.017171 1.513839 0.081794
v 0.018112 1.009260 0.200048
v -0.017171 1.513839 0.081794
v -0.095213 1.016375 0.133393
v 0.071858 1.500496 0.031065
v -0.017171 1.513839 0.081794
v 0.071767 1.508255 0.134106
v -0.095213 1.016375 0.133393
v -0.017171 1.513839 0.081794
v -0.017081 1.506080 -0.021247
v -0.095213 1.016375 0.133393
v -0.017081 1.506080 -0.021247
v -0.095097 1.006488 0.002098
v 0.071858 1.500496 0.031065
v -0.017081 1.506080 -0.021247
v -0.017171 1.513839 0.081794
v -0.095097 1.006488 0.002098
v -0.017081 1.506080 -0.021247
v 0.071948 1.492736 -0.071977
v -0.095097 1.006488 0.002098
v 0.071948 1.492736 -0.071977
v 0.018343 0.989486 -0.062542
v 0.071858 1.500496 0.031065
v 0.071948 1.492736 -0.071977
v -0.017081 1.506080 -0.021247
v 0.075069 1.307572 -0.000713
v -0.369555 1.553048 -0.191744
v -0.370924 1.572203 -0.167415
v 0.075069 1.307572 -0.000713
v -0.370924 1.572203 -0.167415
v 0.071810 1.353181 0.057213
v 0.051117 1.306695 0.045640
v 0.075069 1.307572 -0.000713
v 0.071810 1.353181 0.057213
v -0.379615 1.552679 -0.172276
v -0.370924 1.572203 -0.167415
v -0.369555 1.553048 -0.191744
v 0.071810 1.353181 0.057213
v -0.370924 1.572203 -0.167415
v -0.389675 1.552311 -0.152807
v 0.071810 1.353181 0.057213
v -0.389675 1.552311 -0.152807
v 0.027165 1.305817 0.091993
v 0.051117 1.306695 0.045640
v 0.071810 1.353181 0.057213
v 0.027165 1.305817 0.091993
v -0.379615 1.552679 -0.172276
v -0.389675 1.552311 -0.152807
v -0.370924 1.572203 -0.167415
v 0.027165 1.305817 0.091993
v -0.389675 1.552311 -0.152807
v -0.388306 1.533155 -0.177136
v 0.027165 1.305817 0.091993
v -0.388306 1.533155 -0.177136
v 0.030424 1.260208 0.034067
v 0.051117 1.306695 0.045640
v 0.027165 1.305817 0.091993
v 0.030424 1.260208 0.034067
v -0.379615 1.552679 -0.172276
v -0.388306 1.533155 -0.177136
v -0.389675 1.552311 -0.152807
v 0.030424 1.260208 0.034067
v -0.388306 1.533155 -0.177136
v -0.369555 1.553048 -0.191744
v 0.030424 1.260208 0.034067
v -0.369555 1.553048 -0.191744
v 0.075069 1.307572 -0.000713
v 0.051117 1.306695 0.045640
v 0.030424 1.260208 0.034067
v 0.075069 1.307572 -0.000713
v -0.379615 1.552679 -0.172276
v -0.369555 1.553048 -0.191744
v -0.388306 1.533155 -0.177136
v -0.188179 1.454335 -0.100046
v -0.350156 1.585751 -0.270047
v -0.354405 1.593447 -0.260844
v -0.188179 1.454335 -0.100046
v -0.354405 1.593447 -0.260844
v -0.199513 1.474862 -0.075498
v -0.206719 1.453941 -0.084804
v -0.188179 1.454335 -0.100046
v -0.199513 1.474862 -0.075498
v -0.357107 1.585603 -0.264333
v -0.354405 1.593447 -0.260844
v -0.350156 1.585751 -0.270047
v -0.199513 1.474862 -0.075498
v -0.354405 1.593447 -0.260844
v -0.364059 1.585456 -0.258618
v -0.199513 1.474862 -0.075498
v -0.364059 1.585456 -0.258618
v -0.225259 1.453547 -0.069562
v -0.206719 1.453941 -0.084804
v -0.199513 1.474862 -0.075498
v -0.225259 1.453547 -0.069562
v -0.357107 1.585603 -0.264333
v -0.364059 1.585456 -0.258618
v -0.354405 1.593447 -0.260844
v -0.225259 1.453547 -0.069562
v -0.364059 1.585456 -0.258618
v -0.359809 1.577760 -0.267822
v -0.225259 1.453547 -0.069562
v -0.359809 1.577760 -0.267822
v -0.213926 1.433020 -0.094110
v -0.206719 1.453941 -0.084804
v -0.225259 1.453547 -0.069562
v -0.213926 1.433020 -0.094110
v -0.357107 1.585603 -0.264333
v -0.359809 1.577760 -0.267822
v -0.364059 1.585456 -0.258618
v -0.213926 1.433020 -0.094110
v -0.359809 1.577760 -0.267822
v -0.350156 1.585751 -0.270047
v -0.213926 1.433020 -0.094110
v -0.350156 1.585751 -0.270047
v -0.188179 1.454335 -0.100046
v -0.206719 1.453941 -0.084804
v -0.213926 1.433020 -0.094110
v -0.188179 1.454335 -0.100046
v -0.357107 1.585603 -0.264333
v -0.350156 1.585751 -0.270047
v -0.359809 1.577760 -0.267822
v -0.221348 1.476135 -0.107776
v -0.256876 1.539331 -0.238410
v -0.265301 1.547365 -0.233265
v -0.221348 1.476135 -0.107776
v -0.265301 1.547365 -0.233265
v -0.243820 1.497563 -0.094055
v -0.245085 1.475851 -0.104215
v -0.221348 1.476135 -0.107776
v -0.243820 1.497563 -0.094055
v -0.265775 1.539225 -0.237074
v -0.265301 1.547365 -0.233265
v -0.256876 1.539331 -0.238410
v -0.243820 1.497563 -0.094055
v -0.265301 1.547365 -0.233265
v -0.274675 1.539118 -0.235739
v -0.243820 1.497563 -0.094055
v -0.274675 1.539118 -0.235739
v -0.268822 1.475568 -0.100653
v -0.245085 1.475851 -0.104215
v -0.243820 1.497563 -0.094055
v -0.268822 1.475568 -0.100653
v -0.265775 1.539225 -0.237074
v -0.274675 1.539118 -0.235739
v -0.265301 1.547365 -0.233265
v -0.268822 1.475568 -0.100653
v -0.274675 1.539118 -0.235739
v -0.266250 1.531084 -0.240883
v -0.268822 1.475568 -0.100653
v -0.266250 1.531084 -0.240883
v -0.246350 1.454139 -0.114374
v -0.245085 1.475851 -0.104215
v -0.268822 1.475568 -0.100653
v -0.246350 1.454139 -0.114374
v -0.265775 1.539225 -0.237074
v -0.266250 1.531084 -0.240883
v -0.274675 1.539118 -0.235739
v -0.246350 1.454139 -0.114374
v -0.266250 1.531084 -0.240883
v -0.256876 1.539331 -0.238410
v -0.246350 1.454139 -0.114374
v -0.256876 1.539331 -0.238410
v -0.221348 1.476135 -0.107776
v -0.245085 1.475851 -0.104215
v -0.246350 1.454139 -0.114374
v -0.221348 1.476135 -0.107776
v -0.265775 1.539225 -0.237074
v -0.256876 1.539331 -0.238410
v -0.266250 1.531084 -0.240883
v -0.291442 1.497996 -0.146259
v -0.443501 1.578361 -0.075832
v -0.436790 1.586378 -0.068574
v -0.291442 1.497996 -0.146259
v -0.436790 1.586378 -0.068574
v -0.273543 1.519379 -0.126899
v -0.283452 1.497762 -0.123625
v -0.291442 1.497996 -0.146259
v -0.273543 1.519379 -0.126899
v -0.440505 1.578273 -0.067346
v -0.436790 1.586378 -0.068574
v -0.443501 1.578361 -0.075832
v -0.273543 1.519379 -0.126899
v -0.436790 1.586378 -0.068574
v -0.437509 1.578185 -0.058860
v -0.273543 1.519379 -0.126899
v -0.437509 1.578185 -0.058860
v -0.275461 1.497527 -0.100991
v -0.283452 1.497762 -0.123625
v -0.273543 1.519379 -0.126899
v -0.275461 1.497527 -0.100991
v -0.440505 1.578273 -0.067346
v -0.437509 1.578185 -0.058860
v -0.436790 1.586378 -0.068574
v -0.275461 1.497527 -0.100991
v -0.437509 1.578185 -0.058860
v -0.444220 1.570168 -0.066119
v -0.275461 1.497527 -0.100991
v -0.444220 1.570168 -0.066119
v -0.293360 1.476144 -0.120350
v -0.283452 1.497762 -0.123625
v -0.275461 1.497527 -0.100991
v -0.293360 1.476144 -0.120350
v -0.440505 1.578273 -0.067346
v -0.444220 1.570168 -0.066119
v -0.437509 1.578185 -0.058860
v -0.293360 1.476144 -0.120350
v -0.444220 1.570168 -0.066119
v -0.443501 1.578361 -0.075832
v -0.293360 1.476144 -0.120350
v -0.443501 1.578361 -0.075832
v -0.291442 1.497996 -0.146259
v -0.283452 1.497762 -0.123625
v -0.293360 1.476144 -0.120350
v -0.291442 1.497996 -0.146259
v -0.440505 1.578273 -0.067346
v -0.443501 1.578361 -0.075832
v -0.444220 1.570168 -0.066119
v 0.105380 1.360939 0.060882
v 0.192039 1.490645 -0.239955
v 0.168482 1.510787 -0.240262
v 0.105380 1.360939 0.060882
v 0.168482 1.510787 -0.240262
v 0.049292 1.408896 0.060153
v 0.056900 1.360728 0.041576
v 0.105380 1.360939 0.060882
v 0.049292 1.408896 0.060153
v 0.171677 1.490556 -0.248064
v 0.168482 1.510787 -0.240262
v 0.192039 1.490645 -0.239955
v 0.049292 1.408896 0.060153
v 0.168482 1.510787 -0.240262
v 0.151315 1.490467 -0.256172
v 0.049292 1.408896 0.060153
v 0.151315 1.490467 -0.256172
v 0.008420 1.360516 0.022270
v 0.056900 1.360728 0.041576
v 0.049292 1.408896 0.060153
v 0.008420 1.360516 0.022270
v 0.171677 1.490556 -0.248064
v 0.151315 1.490467 -0.256172
v 0.168482 1.510787 -0.240262
v 0.008420 1.360516 0.022270
v 0.151315 1.490467 -0.256172
v 0.174872 1.470326 -0.255866
v 0.008420 1.360516 0.022270
v 0.174872 1.470326 -0.255866
v 0.064507 1.312560 0.023000
v 0.056900 1.360728 0.041576
v 0.008420 1.360516 0.022270
v 0.064507 1.312560 0.023000
v 0.171677 1.490556 -0.248064
v 0.174872 1.470326 -0.255866
v 0.151315 1.490467 -0.256172
v 0.064507 1.312560 0.023000
v 0.174872 1.470326 -0.255866
v 0.192039 1.490645 -0.239955
v 0.064507 1.312560 0.023000
v 0.192039 1.490645 -0.239955
v 0.105380 1.360939 0.060882
v 0.056900 1.360728 0.041576
v 0.064507 1.312560 0.023000
v 0.105380 1.360939 0.060882
v 0.171677 1.490556 -0.248064
v 0.192039 1.490645 -0.239955
v 0.174872 1.470326 -0.255866
v 0.136535 1.423997 -0.096684
v 0.140504 1.530675 -0.291904
v 0.131045 1.538489 -0.288518
v 0.136535 1.423997 -0.096684
v 0.131045 1.538489 -0.288518
v 0.111306 1.444838 -0.087653
v 0.112656 1.423796 -0.099125
v 0.136535 1.423997 -0.096684
v 0.111306 1.444838 -0.087653
v 0.131551 1.530599 -0.292819
v 0.131045 1.538489 -0.288518
v 0.140504 1.530675 -0.291904
v 0.111306 1.444838 -0.087653
v 0.131045 1.538489 -0.288518
v 0.122598 1.530523 -0.293734
v 0.111306 1.444838 -0.087653
v 0.122598 1.530523 -0.293734
v 0.088777 1.423594 -0.101565
v 0.112656 1.423796 -0.099125
v 0.111306 1.444838 -0.087653
v 0.088777 1.423594 -0.101565
v 0.131551 1.530599 -0.292819
v 0.122598 1.530523 -0.293734
v 0.131045 1.538489 -0.288518
v 0.088777 1.423594 -0.101565
v 0.122598 1.530523 -0.293734
v 0.132057 1.522709 -0.297120
v 0.088777 1.423594 -0.101565
v 0.132057 1.522709 -0.297120
v 0.114006 1.402753 -0.110596
v 0.112656 1.423796 -0.099125
v 0.088777 1.423594 -0.101565
v 0.114006 1.402753 -0.110596
v 0.131551 1.530599 -0.292819
v 0.132057 1.522709 -0.297120
v 0.122598 1.530523 -0.293734
v 0.114006 1.402753 -0.110596
v 0.132057 1.522709 -0.297120
v 0.140504 1.530675 -0.291904
v 0.114006 1.402753 -0.110596
v 0.140504 1.530675 -0.291904
v 0.136535 1.423997 -0.096684
v 0.112656 1.423796 -0.099125
v 0.114006 1.402753 -0.110596
v 0.136535 1.423997 -0.096684
v 0.131551 1.530599 -0.292819
v 0.140504 1.530675 -0.291904
v 0.132057 1.522709 -0.297120
v 0.142120 1.435351 -0.110571
v 0.264355 1.564206 -0.299449
v 0.254465 1.572015 -0.301237
v 0.142120 1.435351 -0.110571
v 0.254465 1.572015 -0.301237
v 0.115741 1.456178 -0.115341
v 0.122879 1.435360 -0.124923
v 0.142120 1.435351 -0.110571
v 0.115741 1.456178 -0.115341
v 0.257141 1.564210 -0.304830
v 0.254465 1.572015 -0.301237
v 0.264355 1.564206 -0.299449
v 0.115741 1.456178 -0.115341
v 0.254465 1.572015 -0.301237
v 0.249927 1.564213 -0.310211
v 0.115741 1.456178 -0.115341
v 0.249927 1.564213 -0.310211
v 0.103639 1.435368 -0.139276
v 0.122879 1.435360 -0.124923
v 0.115741 1.456178 -0.115341
v 0.103639 1.435368 -0.139276
v 0.257141 1.564210 -0.304830
v 0.249927 1.564213 -0.310211
v 0.254465 1.572015 -0.301237
v 0.103639 1.435368 -0.139276
v 0.249927 1.564213 -0.310211
v 0.259818 1.556404 -0.308423
v 0.103639 1.435368 -0.139276
v 0.259818 1.556404 -0.308423
v 0.130018 1.414541 -0.134506
v 0.122879 1.435360 -0.124923
v 0.103639 1.435368 -0.139276
v 0.130018 1.414541 -0.134506
v 0.257141 1.564210 -0.304830
v 0.259818 1.556404 -0.308423
v 0.249927 1.564213 -0.310211
v 0.130018 1.414541 -0.134506
v 0.259818 1.556404 -0.308423
v 0.264355 1.564206 -0.299449
v 0.130018 1.414541 -0.134506
v 0.264355 1.564206 -0.299449
v 0.142120 1.435351 -0.110571
v 0.122879 1.435360 -0.124923
v 0.130018 1.414541 -0.134506
v 0.142120 1.435351 -0.110571
v 0.257141 1.564210 -0.304830
v 0.264355 1.564206 -0.299449
v 0.259818 1.556404 -0.308423
v 0.048250 1.413925 0.087654
v 0.405978 1.578627 0.161864
v 0.403294 1.598956 0.138621
v 0.048250 1.413925 0.087654
v 0.403294 1.598956 0.138621
v 0.041861 1.462327 0.032313
v 0.062682 1.414761 0.037513
v 0.048250 1.413925 0.087654
v 0.041861 1.462327 0.032313
v 0.412039 1.578978 0.140805
v 0.403294 1.598956 0.138621
v 0.405978 1.578627 0.161864
v 0.041861 1.462327 0.032313
v 0.403294 1.598956 0.138621
v 0.418101 1.579329 0.119746
v 0.041861 1.462327 0.032313
v 0.418101 1.579329 0.119746
v 0.077114 1.415596 -0.012628
v 0.062682 1.414761 0.037513
v 0.041861 1.462327 0.032313
v 0.077114 1.415596 -0.012628
v 0.412039 1.578978 0.140805
v 0.418101 1.579329 0.119746
v 0.403294 1.598956 0.138621
v 0.077114 1.415596 -0.012628
v 0.418101 1.579329 0.119746
v 0.420784 1.559000 0.142989
v 0.077114 1.415596 -0.012628
v 0.420784 1.559000 0.142989
v 0.083504 1.367195 0.042713
v 0.062682 1.414761 0.037513
v 0.077114 1.415596 -0.012628
v 0.083504 1.367195 0.042713
v 0.412039 1.578978 0.140805
v 0.420784 1.559000 0.142989
v 0.418101 1.579329 0.119746
v 0.083504 1.367195 0.042713
v 0.420784 1.559000 0.142989
v 0.405978 1.578627 0.161864
v 0.083504 1.367195 0.042713
v 0.405978 1.578627 0.161864
v 0.048250 1.413925 0.087654
v 0.062682 1.414761 0.037513
v 0.083504 1.367195 0.042713
v 0.048250 1.413925 0.087654
v 0.412039 1.578978 0.140805
v 0.405978 1.578627 0.161864
v 0.420784 1.559000 0.142989
v 0.340835 1.538306 0.133960
v 0.453179 1.618144 0.024331
v 0.444362 1.626201 0.019932
v 0.340835 1.538306 0.133960
v 0.444362 1.626201 0.019932
v 0.317320 1.559795 0.122227
v 0.325746 1.538415 0.115291
v 0.340835 1.538306 0.133960
v 0.317320 1.559795 0.122227
v 0.447521 1.618185 0.017332
v 0.444362 1.626201 0.019932
v 0.453179 1.618144 0.024331
v 0.317320 1.559795 0.122227
v 0.444362 1.626201 0.019932
v 0.441864 1.618226 0.010332
v 0.317320 1.559795 0.122227
v 0.441864 1.618226 0.010332
v 0.310657 1.538525 0.096623
v 0.325746 1.538415 0.115291
v 0.317320 1.559795 0.122227
v 0.310657 1.538525 0.096623
v 0.447521 1.618185 0.017332
v 0.441864 1.618226 0.010332
v 0.444362 1.626201 0.019932
v 0.310657 1.538525 0.096623
v 0.441864 1.618226 0.010332
v 0.450681 1.610168 0.014731
v 0.310657 1.538525 0.096623
v 0.450681 1.610168 0.014731
v 0.334172 1.517035 0.108356
v 0.325746 1.538415 0.115291
v 0.310657 1.538525 0.096623
v 0.334172 1.517035 0.108356
v 0.447521 1.618185 0.017332
v 0.450681 1.610168 0.014731
v 0.441864 1.618226 0.010332
v 0.334172 1.517035 0.108356
v 0.450681 1.610168 0.014731
v 0.453179 1.618144 0.024331
v 0.334172 1.517035 0.108356
v 0.453179 1.618144 0.024331
v 0.340835 1.538306 0.133960
v 0.325746 1.538415 0.115291
v 0.334172 1.517035 0.108356
v 0.340835 1.538306 0.133960
v 0.447521 1.618185 0.017332
v 0.453179 1.618144 0.024331
v 0.450681 1.610168 0.014731
v 0.227460 1.490338 0.109002
v 0.410563 1.591007 0.069170
v 0.405094 1.599044 0.060953
v 0.227460 1.490338 0.109002
v 0.405094 1.599044 0.060953
v 0.212875 1.511773 0.087088
v 0.224095 1.490633 0.085237
v 0.227460 1.490338 0.109002
v 0.212875 1.511773 0.087088
v 0.409301 1.591118 0.060259
v 0.405094 1.599044 0.060953
v 0.410563 1.591007 0.069170
v 0.212875 1.511773 0.087088
v 0.405094 1.599044 0.060953
v 0.408039 1.591229 0.051349
v 0.212875 1.511773 0.087088
v 0.408039 1.591229 0.051349
v 0.220730 1.490929 0.061471
v 0.224095 1.490633 0.085237
v 0.212875 1.511773 0.087088
v 0.220730 1.490929 0.061471
v 0.409301 1.591118 0.060259
v 0.408039 1.591229 0.051349
v 0.405094 1.599044 0.060953
v 0.220730 1.490929 0.061471
v 0.408039 1.591229 0.051349
v 0.413508 1.583192 0.059565
v 0.220730 1.490929 0.061471
v 0.413508 1.583192 0.059565
v 0.235315 1.469494 0.083385
v 0.224095 1.490633 0.085237
v 0.220730 1.490929 0.061471
v 0.235315 1.469494 0.083385
v 0.409301 1.591118 0.060259
v 0.413508 1.583192 0.059565
v 0.408039 1.591229 0.051349
v 0.235315 1.469494 0.083385
v 0.413508 1.583192 0.059565
v 0.410563 1.591007 0.069170
v 0.235315 1.469494 0.083385
v 0.410563 1.591007 0.069170
v 0.227460 1.490338 0.109002
v 0.224095 1.490633 0.085237
v 0.235315 1.469494 0.083385
v 0.227460 1.490338 0.109002
v 0.409301 1.591118 0.060259
v 0.410563 1.591007 0.069170
v 0.413508 1.583192 0.059565
f 1 2 3
f 4 5 6
f 7 8 9
f 10 11 12
f 13 14 15
f 16 17 18
f 19 20 21
f 22 23 24
f 25 26 27
f 28 29 30
f 31 32 33
f 34 35 36
f 37 38 39
f 40 41 42
f 43 44 45
f 46 47 48
f 49 50 51
f 52 53 54
f 55 56 57
f 58 59 60
f 61 62 63
f 64 65 66
f 67 68 69
f 70 71 72
f 73 74 75
f 76 77 78
f 79 80 81
f 82 83 84
f 85 86 87
f 88 89 90
f 91 92 93
f 94 95 96
f 97 98 99
f 100 101 102
f 103 104 105
f 106 107 108
f 109 110 111
f 112 113 114
f 115 116 117
f 118 119 120
f 121 122 123
f 124 125 126
f 127 128 129
f 130 131 132
f 133 134 135
f 136 137 138
f 139 140 141
f 142 143 144
f 145 146 147
f 148 149 150
f 151 152 153
f 154 155 156
f 157 158 159
f 160 161 162
f 163 164 165
f 166 167 168
f 169 170 171
f 172 173 174
f 175 176 177
f 178 179 180
f 181 182 183
f 184 185 186
f 187 188 189
f 190 191 192
f 193 194 195
f 196 197 198
f 199 200 201
f 202 203 204
f 205 206 207
f 208 209 210
f 211 212 213
f 214 215 216
f 217 218 219
f 220 221 222
f 223 224 225
f 226 227 228
f 229 230 231
f 232 233 234
f 235 236 237
f 238 239 240
f 241 242 243
f 244 245 246
f 247 248 249
f 250 251 252
f 253 254 255
f 256 257 258
f 259 260 261
f 262 263 264
f 265 266 267
f 268 269 270
f 271 272 273
f 274 275 276
f 277 278 279
f 280 281 282
f 283 284 285
f 286 287 288
f 289 290 291
f 292 293 294
f 295 296 297
f 298 299 300
f 301 302 303
f 304 305 306
f 307 308 309
f 310 311 312
f 313 314 315
f 316 317 318
f 319 320 321
f 322 323 324
f 325 326 327
f 328 329 330
f 331 332 333
f 334 335 336
f 337 338 339
f 340 341 342
f 343 344 345
f 346 347 348
f 349 350 351
f 352 353 354
f 355 356 357
f 358 359 360
f 361 362 363
f 364 365 366
f 367 368 369
f 370 371 372
f 373 374 375
f 376 377 378
f 379 380 381
f 382 383 384
f 385 386 387
f 388 389 390
f 391 392 393
f 394 395 396
f 397 398 399
f 400 401 402
f 403 404 405
f 406 407 408
f 409 410 411
f 412 413 414
f 415 416 417
f 418 419 420
f 421 422 423
f 424 425 426
f 427 428 429
f 430 431 432
f 433 434 435
f 436 437 438
f 439 440 441
f 442 443 444
f 445 446 447
f 448 449 450
f 451 452 453
f 454 455 456
f 457 458 459
f 460 461 462
f 463 464 465
f 466 467 468
f 469 470 471
f 472 473 474
f 475 476 477
f 478 479 480
f 481 482 483
f 484 485 486
f 487 488 489
f 490 491 492
f 493 494 495
f 496 497 498
f 499 500 501
f 502 503 504
f 505 506 507
f 508 509 510
f 511 512 513
f 514 515 516
f 517 518 519
f 520 521 522
f 523 524 525
f 526 527 528
f 529 530 531
f 532 533 534
f 535 536 537
f 538 539 540
f 541 542 543
f 544 545 546
f 547 548 549
f 550 551 552
f 553 554 555
f 556 557 558
f 559 560 561
f 562 563 564
f 565 566 567
f 568 569 570
f 571 572 573
f 574 575 576
f 577 578 579
f 580 581 582
f 583 584 585
f 586 587 588
f 589 590 591
f 592 593 594
f 595 596 597
f 598 599 600
f 601 602 603
f 604 605 606
f 607 608 609
f 610 611 612
f 613 614 615
f 616 617 618
f 619 620 621
f 622 623 624
f 625 626 627
f 628 629 630
f 631 632 633
f 634 635 636
f 637 638 639
f 640 641 642
f 643 644 645
f 646 647 648
f 649 650 651
f 652 653 654
f 655 656 657
f 658 659 660
f 661 662 663
f 664 665 666
f 667 668 669
f 670 671 672
f 673 674 675
f 676 677 678
f 679 680 681
f 682 683 684
f 685 686 687
f 688 689 690
f 691 692 693
f 694 695 696
f 697 698 699
f 700 701 702
f 703 704 705
f 706 707 708
f 709 710 711
f 712 713 714
f 715 716 717
f 718 719 720
f 721 722 723
f 724 725 726
f 727 728 729
f 730 731 732

o TreeFoliage
v 0.073448 1.339333 0.028835
v 0.247057 1.417541 0.029917
v 0.195987 1.415374 0.150210
v 0.073448 1.339333 0.028835
v 0.195987 1.415374 0.150210
v 0.073448 1.339333 0.028835
v 0.073448 1.339333 0.028835
v 0.195987 1.415374 0.150210
v 0.072693 1.413468 0.200023
v 0.073448 1.339333 0.028835
v 0.072693 1.413468 0.200023
v 0.073448 1.339333 0.028835
v 0.073448 1.339333 0.028835
v 0.072693 1.413468 0.200023
v -0.050601 1.412941 0.150176
v 0.073448 1.339333 0.028835
v -0.050601 1.412941 0.150176
v 0.073448 1.339333 0.028835
v 0.073448 1.339333 0.028835
v -0.050601 1.412941 0.150176
v -0.101671 1.414102 0.029870
v 0.073448 1.339333 0.028835
v -0.101671 1.414102 0.029870
v 0.073448 1.339333 0.028835
v 0.073448 1.339333 0.028835
v -0.101671 1.414102 0.029870
v -0.050601 1.416269 -0.090423
v 0.073448 1.339333 0.028835
v -0.050601 1.416269 -0.090423
v 0.073448 1.339333 0.028835
v 0.073448 1.339333 0.028835
v -0.050601 1.416269 -0.090423
v 0.072693 1.418175 -0.140236
v 0.073448 1.339333 0.028835
v 0.072693 1.418175 -0.140236
v 0.073448 1.339333 0.028835
v 0.073448 1.339333 0.028835
v 0.072693 1.418175 -0.140236
v 0.195987 1.418702 -0.090390
v 0.073448 1.339333 0.028835
v 0.195987 1.418702 -0.090390
v 0.073448 1.339333 0.028835
v 0.073448 1.339333 0.028835
v 0.195987 1.418702 -0.090390
v 0.247057 1.417541 0.029917
v 0.073448 1.339333 0.028835
v 0.247057 1.417541 0.029917
v 0.073448 1.339333 0.028835
v 0.247057 1.417541 0.029917
v 0.317459 1.602913 0.032481
v 0.245235 1.599848 0.202601
v 0.247057 1.417541 0.029917
v 0.245235 1.599848 0.202601
v 0.195987 1.415374 0.150210
v 0.195987 1.415374 0.150210
v 0.245235 1.599848 0.202601
v 0.070871 1.597153 0.273047
v 0.195987 1.415374 0.150210
v 0.070871 1.597153 0.273047
v 0.072693 1.413468 0.200023
v 0.072693 1.413468 0.200023
v 0.070871 1.597153 0.273047
v -0.103493 1.596408 0.202553
v 0.072693 1.413468 0.200023
v -0.103493 1.596408 0.202553
v -0.050601 1.412941 0.150176
v -0.050601 1.412941 0.150176
v -0.103493 1.596408 0.202553
v -0.175717 1.598049 0.032414
v -0.050601 1.412941 0.150176
v -0.175717 1.598049 0.032414
v -0.101671 1.414102 0.029870
v -0.101671 1.414102 0.029870
v -0.175717 1.598049 0.032414
v -0.103493 1.601115 -0.137706
v -0.101671 1.414102 0.029870
v -0.103493 1.601115 -0.137706
v -0.050601 1.416269 -0.090423
v -0.050601 1.416269 -0.090423
v -0.103493 1.601115 -0.137706
v 0.070871 1.603809 -0.208152
v -0.050601 1.416269 -0.090423
v 0.070871 1.603809 -0.208152
v 0.072693 1.418175 -0.140236
v 0.072693 1.418175 -0.140236
v 0.070871 1.603809 -0.208152
v 0.245235 1.604554 -0.137658
v 0.072693 1.418175 -0.140236
v 0.245235 1.604554 -0.137658
v 0.195987 1.418702 -0.090390
v 0.195987 1.418702 -0.090390
v 0.245235 1.604554 -0.137658
v 0.317459 1.602913 0.032481
v 0.195987 1.418702 -0.090390
v 0.317459 1.602913 0.032481
v 0.247057 1.417541 0.029917
v 0.317459 1.602913 0.032481
v 0.243414 1.786861 0.035025
v 0.192344 1.784693 0.155318
v 0.317459 1.602913 0.032481
v 0.192344 1.784693 0.155318
v 0.245235 1.599848 0.202601
v 0.245235 1.599848 0.202601
v 0.192344 1.784693 0.155318
v 0.069050 1.782788 0.205131
v 0.245235 1.599848 0.202601
v 0.069050 1.782788 0.205131
v 0.070871 1.597153 0.273047
v 0.070871 1.597153 0.273047
v 0.069050 1.782788 0.205131
v -0.054244 1.782261 0.155285
v 0.070871 1.597153 0.273047
v -0.054244 1.782261 0.155285
v -0.103493 1.596408 0.202553
v -0.103493 1.596408 0.202553
v -0.054244 1.782261 0.155285
v -0.105314 1.783421 0.034978
v -0.103493 1.596408 0.202553
v -0.105314 1.783421 0.034978
v -0.175717 1.598049 0.032414
v -0.175717 1.598049 0.032414
v -0.105314 1.783421 0.034978
v -0.054244 1.785589 -0.085315
v -0.175717 1.598049 0.032414
v -0.054244 1.785589 -0.085315
v -0.103493 1.601115 -0.137706
v -0.103493 1.601115 -0.137706
v -0.054244 1.785589 -0.085315
v 0.069050 1.787494 -0.135128
v -0.103493 1.601115 -0.137706
v 0.069050 1.787494 -0.135128
v 0.070871 1.603809 -0.208152
v 0.070871 1.603809 -0.208152
v 0.069050 1.787494 -0.135128
v 0.192344 1.788021 -0.085281
v 0.070871 1.603809 -0.208152
v 0.192344 1.788021 -0.085281
v 0.245235 1.604554 -0.137658
v 0.245235 1.604554 -0.137658
v 0.192344 1.788021 -0.085281
v 0.243414 1.786861 0.035025
v 0.245235 1.604554 -0.137658
v 0.243414 1.786861 0.035025
v 0.317459 1.602913 0.032481
v 0.243414 1.786861 0.035025
v 0.068295 1.861630 0.036060
v 0.068295 1.861630 0.036060
v 0.243414 1.786861 0.035025
v 0.068295 1.861630 0.036060
v 0.192344 1.784693 0.155318
v 0.192344 1.784693 0.155318
v 0.068295 1.861630 0.036060
v 0.068295 1.861630 0.036060
v 0.192344 1.784693 0.155318
v 0.068295 1.861630 0.036060
v 0.069050 1.782788 0.205131
v 0.069050 1.782788 0.205131
v 0.068295 1.861630 0.036060
v 0.068295 1.861630 0.036060
v 0.069050 1.782788 0.205131
v 0.068295 1.861630 0.036060
v -0.054244 1.782261 0.155285
v -0.054244 1.782261 0.155285
v 0.068295 1.861630 0.036060
v 0.068295 1.861630 0.036060
v -0.054244 1.782261 0.155285
v 0.068295 1.861630 0.036060
v -0.105314 1.783421 0.034978
v -0.105314 1.783421 0.034978
v 0.068295 1.861630 0.036060
v 0.068295 1.861630 0.036060
v -0.105314 1.783421 0.034978
v 0.068295 1.861630 0.036060
v -0.054244 1.785589 -0.085315
v -0.054244 1.785589 -0.085315
v 0.068295 1.861630 0.036060
v 0.068295 1.861630 0.036060
v -0.054244 1.785589 -0.085315
v 0.068295 1.861630 0.036060
v 0.069050 1.787494 -0.135128
v 0.069050 1.787494 -0.135128
v 0.068295 1.861630 0.036060
v 0.068295 1.861630 0.036060
v 0.069050 1.787494 -0.135128
v 0.068295 1.861630 0.036060
v 0.192344 1.788021 -0.085281
v 0.192344 1.788021 -0.085281
v 0.068295 1.861630 0.036060
v 0.068295 1.861630 0.036060
v 0.192344 1.788021 -0.085281
v 0.068295 1.861630 0.036060
v 0.243414 1.786861 0.035025
v 0.177999 1.110876 -0.074451
v 0.371423 1.196831 -0.073262
v 0.314528 1.194309 0.068478
v 0.177999 1.110876 -0.074451
v 0.314528 1.194309 0.068478
v 0.177999 1.110876 -0.074451
v 0.177999 1.110876 -0.074451
v 0.314528 1.194309 0.068478
v 0.177170 1.192142 0.127173
v 0.177999 1.110876 -0.074451
v 0.177170 1.192142 0.127173
v 0.177999 1.110876 -0.074451
v 0.177999 1.110876 -0.074451
v 0.177170 1.192142 0.127173
v 0.039813 1.191600 0.068441
v 0.177999 1.110876 -0.074451
v 0.039813 1.191600 0.068441
v 0.177999 1.110876 -0.074451
v 0.177999 1.110876 -0.074451
v 0.039813 1.191600 0.068441
v -0.017082 1.192999 -0.073315
v 0.177999 1.110876 -0.074451
v -0.017082 1.192999 -0.073315
v 0.177999 1.110876 -0.074451
v 0.177999 1.110876 -0.074451
v -0.017082 1.192999 -0.073315
v 0.039813 1.195521 -0.215056
v 0.177999 1.110876 -0.074451
v 0.039813 1.195521 -0.215056
v 0.177999 1.110876 -0.074451
v 0.177999 1.110876 -0.074451
v 0.039813 1.195521 -0.215056
v 0.177170 1.197688 -0.273751
v 0.177999 1.110876 -0.074451
v 0.177170 1.197688 -0.273751
v 0.177999 1.110876 -0.074451
v 0.177999 1.110876 -0.074451
v 0.177170 1.197688 -0.273751
v 0.314528 1.198231 -0.215019
v 0.177999 1.110876 -0.074451
v 0.314528 1.198231 -0.215019
v 0.177999 1.110876 -0.074451
v 0.177999 1.110876 -0.074451
v 0.314528 1.198231 -0.215019
v 0.371423 1.196831 -0.073262
v 0.177999 1.110876 -0.074451
v 0.371423 1.196831 -0.073262
v 0.177999 1.110876 -0.074451
v 0.371423 1.196831 -0.073262
v 0.449883 1.400514 -0.070445
v 0.369421 1.396948 0.130006
v 0.371423 1.196831 -0.073262
v 0.369421 1.396948 0.130006
v 0.314528 1.194309 0.068478
v 0.314528 1.194309 0.068478
v 0.369421 1.396948 0.130006
v 0.175169 1.393883 0.213014
v 0.314528 1.194309 0.068478
v 0.175169 1.393883 0.213014
v 0.177170 1.192142 0.127173
v 0.177170 1.192142 0.127173
v 0.175169 1.393883 0.213014
v -0.019084 1.393115 0.129953
v 0.177170 1.192142 0.127173
v -0.019084 1.393115 0.129953
v 0.039813 1.191600 0.068441
v 0.039813 1.191600 0.068441
v -0.019084 1.393115 0.129953
v -0.099546 1.395095 -0.070520
v 0.039813 1.191600 0.068441
v -0.099546 1.395095 -0.070520
v -0.017082 1.192999 -0.073315
v -0.017082 1.192999 -0.073315
v -0.099546 1.395095 -0.070520
v -0.019084 1.398661 -0.270971
v -0.017082 1.192999 -0.073315
v -0.019084 1.398661 -0.270971
v 0.039813 1.195521 -0.215056
v 0.039813 1.195521 -0.215056
v -0.019084 1.398661 -0.270971
v 0.175169 1.401725 -0.353979
v 0.039813 1.195521 -0.215056
v 0.175169 1.401725 -0.353979
v 0.177170 1.197688 -0.273751
v 0.177170 1.197688 -0.273751
v 0.175169 1.401725 -0.353979
v 0.369421 1.402493 -0.270918
v 0.177170 1.197688 -0.273751
v 0.369421 1.402493 -0.270918
v 0.314528 1.198231 -0.215019
v 0.314528 1.198231 -0.215019
v 0.369421 1.402493 -0.270918
v 0.449883 1.400514 -0.070445
v 0.314528 1.198231 -0.215019
v 0.449883 1.400514 -0.070445
v 0.371423 1.196831 -0.073262
v 0.449883 1.400514 -0.070445
v 0.367420 1.602609 -0.067650
v 0.310524 1.600088 0.074091
v 0.449883 1.400514 -0.070445
v 0.310524 1.600088 0.074091
v 0.369421 1.396948 0.130006
v 0.369421 1.396948 0.130006
v 0.310524 1.600088 0.074091
v 0.173167 1.597921 0.132786
v 0.369421 1.396948 0.130006
v 0.173167 1.597921 0.132786
v 0.175169 1.393883 0.213014
v 0.175169 1.393883 0.213014
v 0.173167 1.597921 0.132786
v 0.035810 1.597378 0.074053
v 0.175169 1.393883 0.213014
v 0.035810 1.597378 0.074053
v -0.019084 1.393115 0.129953
v -0.019084 1.393115 0.129953
v 0.035810 1.597378 0.074053
v -0.021085 1.598777 -0.067703
v -0.019084 1.393115 0.129953
v -0.021085 1.598777 -0.067703
v -0.099546 1.395095 -0.070520
v -0.099546 1.395095 -0.070520
v -0.021085 1.598777 -0.067703
v 0.035810 1.601299 -0.209443
v -0.099546 1.395095 -0.070520
v 0.035810 1.601299 -0.209443
v -0.019084 1.398661 -0.270971
v -0.019084 1.398661 -0.270971
v 0.035810 1.601299 -0.209443
v 0.173167 1.603466 -0.268139
v -0.019084 1.398661 -0.270971
v 0.173167 1.603466 -0.268139
v 0.175169 1.401725 -0.353979
v 0.175169 1.401725 -0.353979
v 0.173167 1.603466 -0.268139
v 0.310524 1.604009 -0.209406
v 0.175169 1.401725 -0.353979
v 0.310524 1.604009 -0.209406
v 0.369421 1.402493 -0.270918
v 0.369421 1.402493 -0.270918
v 0.310524 1.604009 -0.209406
v 0.367420 1.602609 -0.067650
v 0.369421 1.402493 -0.270918
v 0.367420 1.602609 -0.067650
v 0.449883 1.400514 -0.070445
v 0.367420 1.602609 -0.067650
v 0.172338 1.684733 -0.066514
v 0.172338 1.684733 -0.066514
v 0.367420 1.602609 -0.067650
v 0.172338 1.684733 -0.066514
v 0.310524 1.600088 0.074091
v 0.310524 1.600088 0.074091
v 0.172338 1.684733 -0.066514
v 0.172338 1.684733 -0.066514
v 0.310524 1.600088 0.074091
v 0.172338 1.684733 -0.066514
v 0.173167 1.597921 0.132786
v 0.173167 1.597921 0.132786
v 0.172338 1.684733 -0.066514
v 0.172338 1.684733 -0.066514
v 0.173167 1.597921 0.132786
v 0.172338 1.684733 -0.066514
v 0.035810 1.597378 0.074053
v 0.035810 1.597378 0.074053
v 0.172338 1.684733 -0.066514
v 0.172338 1.684733 -0.066514
v 0.035810 1.597378 0.074053
v 0.172338 1.684733 -0.066514
v -0.021085 1.598777 -0.067703
v -0.021085 1.598777 -0.067703
v 0.172338 1.684733 -0.066514
v 0.172338 1.684733 -0.066514
v -0.021085 1.598777 -0.067703
v 0.172338 1.684733 -0.066514
v 0.035810 1.601299 -0.209443
v 0.035810 1.601299 -0.209443
v 0.172338 1.684733 -0.066514
v 0.172338 1.684733 -0.066514
v 0.035810 1.601299 -0.209443
v 0.172338 1.684733 -0.066514
v 0.173167 1.603466 -0.268139
v 0.173167 1.603466 -0.268139
v 0.172338 1.684733 -0.066514
v 0.172338 1.684733 -0.066514
v 0.173167 1.603466 -0.268139
v 0.172338 1.684733 -0.066514
v 0.310524 1.604009 -0.209406
v 0.310524 1.604009 -0.209406
v 0.172338 1.684733 -0.066514
v 0.172338 1.684733 -0.066514
v 0.310524 1.604009 -0.209406
v 0.172338 1.684733 -0.066514
v 0.367420 1.602609 -0.067650
v 0.224509 1.152754 0.151308
v 0.437746 1.246457 0.152604
v 0.375026 1.243559 0.317375
v 0.224509 1.152754 0.151308
v 0.375026 1.243559 0.317375
v 0.224509 1.152754 0.151308
v 0.224509 1.152754 0.151308
v 0.375026 1.243559 0.317375
v 0.223605 1.241121 0.385608
v 0.224509 1.152754 0.151308
v 0.223605 1.241121 0.385608
v 0.224509 1.152754 0.151308
v 0.224509 1.152754 0.151308
v 0.223605 1.241121 0.385608
v 0.072184 1.240572 0.317333
v 0.224509 1.152754 0.151308
v 0.072184 1.240572 0.317333
v 0.224509 1.152754 0.151308
v 0.224509 1.152754 0.151308
v 0.072184 1.240572 0.317333
v 0.009464 1.242232 0.152546
v 0.224509 1.152754 0.151308
v 0.009464 1.242232 0.152546
v 0.224509 1.152754 0.151308
v 0.224509 1.152754 0.151308
v 0.009464 1.242232 0.152546
v 0.072184 1.245130 -0.012225
v 0.224509 1.152754 0.151308
v 0.072184 1.245130 -0.012225
v 0.224509 1.152754 0.151308
v 0.224509 1.152754 0.151308
v 0.072184 1.245130 -0.012225
v 0.223605 1.247568 -0.080458
v 0.224509 1.152754 0.151308
v 0.223605 1.247568 -0.080458
v 0.224509 1.152754 0.151308
v 0.224509 1.152754 0.151308
v 0.223605 1.247568 -0.080458
v 0.375026 1.248117 -0.012184
v 0.224509 1.152754 0.151308
v 0.375026 1.248117 -0.012184
v 0.224509 1.152754 0.151308
v 0.224509 1.152754 0.151308
v 0.375026 1.248117 -0.012184
v 0.437746 1.246457 0.152604
v 0.224509 1.152754 0.151308
v 0.437746 1.246457 0.152604
v 0.224509 1.152754 0.151308
v 0.437746 1.246457 0.152604
v 0.524265 1.468450 0.155675
v 0.435565 1.464352 0.388695
v 0.437746 1.246457 0.152604
v 0.435565 1.464352 0.388695
v 0.375026 1.243559 0.317375
v 0.375026 1.243559 0.317375
v 0.435565 1.464352 0.388695
v 0.221424 1.460905 0.485192
v 0.375026 1.243559 0.317375
v 0.221424 1.460905 0.485192
v 0.223605 1.241121 0.385608
v 0.223605 1.241121 0.385608
v 0.221424 1.460905 0.485192
v 0.007283 1.460128 0.388637
v 0.223605 1.241121 0.385608
v 0.007283 1.460128 0.388637
v 0.072184 1.240572 0.317333
v 0.072184 1.240572 0.317333
v 0.007283 1.460128 0.388637
v -0.081418 1.462476 0.155592
v 0.072184 1.240572 0.317333
v -0.081418 1.462476 0.155592
v 0.009464 1.242232 0.152546
v 0.009464 1.242232 0.152546
v -0.081418 1.462476 0.155592
v 0.007283 1.466574 -0.077429
v 0.009464 1.242232 0.152546
v 0.007283 1.466574 -0.077429
v 0.072184 1.245130 -0.012225
v 0.072184 1.245130 -0.012225
v 0.007283 1.466574 -0.077429
v 0.221424 1.470021 -0.173925
v 0.072184 1.245130 -0.012225
v 0.221424 1.470021 -0.173925
v 0.223605 1.247568 -0.080458
v 0.223605 1.247568 -0.080458
v 0.221424 1.470021 -0.173925
v 0.435565 1.470799 -0.077370
v 0.223605 1.247568 -0.080458
v 0.435565 1.470799 -0.077370
v 0.375026 1.248117 -0.012184
v 0.375026 1.248117 -0.012184
v 0.435565 1.470799 -0.077370
v 0.524265 1.468450 0.155675
v 0.375026 1.248117 -0.012184
v 0.524265 1.468450 0.155675
v 0.437746 1.246457 0.152604
v 0.524265 1.468450 0.155675
v 0.433383 1.688694 0.158721
v 0.370663 1.685796 0.323492
v 0.524265 1.468450 0.155675
v 0.370663 1.685796 0.323492
v 0.435565 1.464352 0.388695
v 0.435565 1.464352 0.388695
v 0.370663 1.685796 0.323492
v 0.219242 1.683359 0.391725
v 0.435565 1.464352 0.388695
v 0.219242 1.683359 0.391725
v 0.221424 1.460905 0.485192
v 0.221424 1.460905 0.485192
v 0.219242 1.683359 0.391725
v 0.067822 1.682809 0.323450
v 0.221424 1.460905 0.485192
v 0.067822 1.682809 0.323450
v 0.007283 1.460128 0.388637
v 0.007283 1.460128 0.388637
v 0.067822 1.682809 0.323450
v 0.005101 1.684470 0.158663
v 0.007283 1.460128 0.388637
v 0.005101 1.684470 0.158663
v -0.081418 1.462476 0.155592
v -0.081418 1.462476 0.155592
v 0.005101 1.684470 0.158663
v 0.067822 1.687367 -0.006108
v -0.081418 1.462476 0.155592
v 0.067822 1.687367 -0.006108
v 0.007283 1.466574 -0.077429
v 0.007283 1.466574 -0.077429
v 0.067822 1.687367 -0.006108
v 0.219242 1.689805 -0.074341
v 0.007283 1.466574 -0.077429
v 0.219242 1.689805 -0.074341
v 0.221424 1.470021 -0.173925
v 0.221424 1.470021 -0.173925
v 0.219242 1.689805 -0.074341
v 0.370663 1.690354 -0.006067
v 0.221424 1.470021 -0.173925
v 0.370663 1.690354 -0.006067
v 0.435565 1.470799 -0.077370
v 0.435565 1.470799 -0.077370
v 0.370663 1.690354 -0.006067
v 0.433383 1.688694 0.158721
v 0.435565 1.470799 -0.077370
v 0.433383 1.688694 0.158721
v 0.524265 1.468450 0.155675
v 0.433383 1.688694 0.158721
v 0.218339 1.778172 0.159959
v 0.218339 1.778172 0.159959
v 0.433383 1.688694 0.158721
v 0.218339 1.778172 0.159959
v 0.370663 1.685796 0.323492
v 0.370663 1.685796 0.323492
v 0.218339 1.778172 0.159959
v 0.218339 1.778172 0.159959
v 0.370663 1.685796 0.323492
v 0.218339 1.778172 0.159959
v 0.219242 1.683359 0.391725
v 0.219242 1.683359 0.391725
v 0.218339 1.778172 0.159959
v 0.218339 1.778172 0.159959
v 0.219242 1.683359 0.391725
v 0.218339 1.778172 0.159959
v 0.067822 1.682809 0.323450
v 0.067822 1.682809 0.323450
v 0.218339 1.778172 0.159959
v 0.218339 1.778172 0.159959
v 0.067822 1.682809 0.323450
v 0.218339 1.778172 0.159959
v 0.005101 1.684470 0.158663
v 0.005101 1.684470 0.158663
v 0.218339 1.778172 0.159959
v 0.218339 1.778172 0.159959
v 0.005101 1.684470 0.158663
v 0.218339 1.778172 0.159959
v 0.067822 1.687367 -0.006108
v 0.067822 1.687367 -0.006108
v 0.218339 1.778172 0.159959
v 0.218339 1.778172 0.159959
v 0.067822 1.687367 -0.006108
v 0.218339 1.778172 0.159959
v 0.219242 1.689805 -0.074341
v 0.219242 1.689805 -0.074341
v 0.218339 1.778172 0.159959
v 0.218339 1.778172 0.159959
v 0.219242 1.689805 -0.074341
v 0.218339 1.778172 0.159959
v 0.370663 1.690354 -0.006067
v 0.370663 1.690354 -0.006067
v 0.218339 1.778172 0.159959
v 0.218339 1.778172 0.159959
v 0.370663 1.690354 -0.006067
v 0.218339 1.778172 0.159959
v 0.433383 1.688694 0.158721
v -0.064077 1.193359 0.230164
v 0.168975 1.294809 0.231567
v 0.100429 1.292062 0.381232
v -0.064077 1.193359 0.230164
v 0.100429 1.292062 0.381232
v -0.064077 1.193359 0.230164
v -0.064077 1.193359 0.230164
v 0.100429 1.292062 0.381232
v -0.065055 1.289572 0.443206
v -0.064077 1.193359 0.230164
v -0.065055 1.289572 0.443206
v -0.064077 1.193359 0.230164
v -0.064077 1.193359 0.230164
v -0.065055 1.289572 0.443206
v -0.230539 1.288798 0.381187
v -0.064077 1.193359 0.230164
v -0.230539 1.288798 0.381187
v -0.064077 1.193359 0.230164
v -0.064077 1.193359 0.230164
v -0.230539 1.288798 0.381187
v -0.299084 1.290192 0.231503
v -0.064077 1.193359 0.230164
v -0.299084 1.290192 0.231503
v -0.064077 1.193359 0.230164
v -0.064077 1.193359 0.230164
v -0.299084 1.290192 0.231503
v -0.230539 1.292938 0.081839
v -0.064077 1.193359 0.230164
v -0.230539 1.292938 0.081839
v -0.064077 1.193359 0.230164
v -0.064077 1.193359 0.230164
v -0.230539 1.292938 0.081839
v -0.065055 1.295428 0.019865
v -0.064077 1.193359 0.230164
v -0.065055 1.295428 0.019865
v -0.064077 1.193359 0.230164
v -0.064077 1.193359 0.230164
v -0.065055 1.295428 0.019865
v 0.100429 1.296203 0.081884
v -0.064077 1.193359 0.230164
v 0.100429 1.296203 0.081884
v -0.064077 1.193359 0.230164
v -0.064077 1.193359 0.230164
v 0.100429 1.296203 0.081884
v 0.168975 1.294809 0.231567
v -0.064077 1.193359 0.230164
v 0.168975 1.294809 0.231567
v -0.064077 1.193359 0.230164
v 0.168975 1.294809 0.231567
v 0.263552 1.535113 0.234891
v 0.166614 1.531229 0.446549
v 0.168975 1.294809 0.231567
v 0.166614 1.531229 0.446549
v 0.100429 1.292062 0.381232
v 0.100429 1.292062 0.381232
v 0.166614 1.531229 0.446549
v -0.067416 1.527708 0.534194
v 0.100429 1.292062 0.381232
v -0.067416 1.527708 0.534194
v -0.065055 1.289572 0.443206
v -0.065055 1.289572 0.443206
v -0.067416 1.527708 0.534194
v -0.301446 1.526612 0.446485
v -0.065055 1.289572 0.443206
v -0.301446 1.526612 0.446485
v -0.230539 1.288798 0.381187
v -0.230539 1.288798 0.381187
v -0.301446 1.526612 0.446485
v -0.398384 1.528584 0.234801
v -0.230539 1.288798 0.381187
v -0.398384 1.528584 0.234801
v -0.299084 1.290192 0.231503
v -0.299084 1.290192 0.231503
v -0.398384 1.528584 0.234801
v -0.301446 1.532467 0.023143
v -0.299084 1.290192 0.231503
v -0.301446 1.532467 0.023143
v -0.230539 1.292938 0.081839
v -0.230539 1.292938 0.081839
v -0.301446 1.532467 0.023143
v -0.067416 1.535989 -0.064502
v -0.230539 1.292938 0.081839
v -0.067416 1.535989 -0.064502
v -0.065055 1.295428 0.019865
v -0.065055 1.295428 0.019865
v -0.067416 1.535989 -0.064502
v 0.166614 1.537084 0.023207
v -0.065055 1.295428 0.019865
v 0.166614 1.537084 0.023207
v 0.100429 1.296203 0.081884
v 0.100429 1.296203 0.081884
v 0.166614 1.537084 0.023207
v 0.263552 1.535113 0.234891
v 0.100429 1.296203 0.081884
v 0.263552 1.535113 0.234891
v 0.168975 1.294809 0.231567
v 0.263552 1.535113 0.234891
v 0.164252 1.773504 0.238188
v 0.095707 1.770758 0.387853
v 0.263552 1.535113 0.234891
v 0.095707 1.770758 0.387853
v 0.166614 1.531229 0.446549
v 0.166614 1.531229 0.446549
v 0.095707 1.770758 0.387853
v -0.069777 1.768268 0.449827
v 0.166614 1.531229 0.446549
v -0.069777 1.768268 0.449827
v -0.067416 1.527708 0.534194
v -0.067416 1.527708 0.534194
v -0.069777 1.768268 0.449827
v -0.235261 1.767494 0.387808
v -0.067416 1.527708 0.534194
v -0.235261 1.767494 0.387808
v -0.301446 1.526612 0.446485
v -0.301446 1.526612 0.446485
v -0.235261 1.767494 0.387808
v -0.303807 1.768888 0.238125
v -0.301446 1.526612 0.446485
v -0.303807 1.768888 0.238125
v -0.398384 1.528584 0.234801
v -0.398384 1.528584 0.234801
v -0.303807 1.768888 0.238125
v -0.235261 1.771634 0.088460
v -0.398384 1.528584 0.234801
v -0.235261 1.771634 0.088460
v -0.301446 1.532467 0.023143
v -0.301446 1.532467 0.023143
v -0.235261 1.771634 0.088460
v -0.069777 1.774124 0.026486
v -0.301446 1.532467 0.023143
v -0.069777 1.774124 0.026486
v -0.067416 1.535989 -0.064502
v -0.067416 1.535989 -0.064502
v -0.069777 1.774124 0.026486
v 0.095707 1.774899 0.088505
v -0.067416 1.535989 -0.064502
v 0.095707 1.774899 0.088505
v 0.166614 1.537084 0.023207
v 0.166614 1.537084 0.023207
v 0.095707 1.774899 0.088505
v 0.164252 1.773504 0.238188
v 0.166614 1.537084 0.023207
v 0.164252 1.773504 0.238188
v 0.263552 1.535113 0.234891
v 0.164252 1.773504 0.238188
v -0.070755 1.870337 0.239528
v -0.070755 1.870337 0.239528
v 0.164252 1.773504 0.238188
v -0.070755 1.870337 0.239528
v 0.095707 1.770758 0.387853
v 0.095707 1.770758 0.387853
v -0.070755 1.870337 0.239528
v -0.070755 1.870337 0.239528
v 0.095707 1.770758 0.387853
v -0.070755 1.870337 0.239528
v -0.069777 1.768268 0.449827
v -0.069777 1.768268 0.449827
v -0.070755 1.870337 0.239528
v -0.070755 1.870337 0.239528
v -0.069777 1.768268 0.449827
v -0.070755 1.870337 0.239528
v -0.235261 1.767494 0.387808
v -0.235261 1.767494 0.387808
v -0.070755 1.870337 0.239528
v -0.070755 1.870337 0.239528
v -0.235261 1.767494 0.387808
v -0.070755 1.870337 0.239528
v -0.303807 1.768888 0.238125
v -0.303807 1.768888 0.238125
v -0.070755 1.870337 0.239528
v -0.070755 1.870337 0.239528
v -0.303807 1.768888 0.238125
v -0.070755 1.870337 0.239528
v -0.235261 1.771634 0.088460
v -0.235261 1.771634 0.088460
v -0.070755 1.870337 0.239528
v -0.070755 1.870337 0.239528
v -0.235261 1.771634 0.088460
v -0.070755 1.870337 0.239528
v -0.069777 1.774124 0.026486
v -0.069777 1.774124 0.026486
v -0.070755 1.870337 0.239528
v -0.070755 1.870337 0.239528
v -0.069777 1.774124 0.026486
v -0.070755 1.870337 0.239528
v 0.095707 1.774899 0.088505
v 0.095707 1.774899 0.088505
v -0.070755 1.870337 0.239528
v -0.070755 1.870337 0.239528
v 0.095707 1.774899 0.088505
v -0.070755 1.870337 0.239528
v 0.164252 1.773504 0.238188
v -0.187834 1.351470 -0.114162
v 0.065350 1.428450 -0.113097
v -0.009021 1.425330 0.059386
v -0.187834 1.351470 -0.114162
v -0.009021 1.425330 0.059386
v -0.187834 1.351470 -0.114162
v -0.187834 1.351470 -0.114162
v -0.009021 1.425330 0.059386
v -0.188569 1.422571 0.130811
v -0.187834 1.351470 -0.114162
v -0.188569 1.422571 0.130811
v -0.187834 1.351470 -0.114162
v -0.187834 1.351470 -0.114162
v -0.188569 1.422571 0.130811
v -0.368116 1.421788 0.059337
v -0.187834 1.351470 -0.114162
v -0.368116 1.421788 0.059337
v -0.187834 1.351470 -0.114162
v -0.187834 1.351470 -0.114162
v -0.368116 1.421788 0.059337
v -0.442487 1.423441 -0.113167
v -0.187834 1.351470 -0.114162
v -0.442487 1.423441 -0.113167
v -0.187834 1.351470 -0.114162
v -0.187834 1.351470 -0.114162
v -0.442487 1.423441 -0.113167
v -0.368116 1.426560 -0.285650
v -0.187834 1.351470 -0.114162
v -0.368116 1.426560 -0.285650
v -0.187834 1.351470 -0.114162
v -0.187834 1.351470 -0.114162
v -0.368116 1.426560 -0.285650
v -0.188569 1.429319 -0.357075
v -0.187834 1.351470 -0.114162
v -0.188569 1.429319 -0.357075
v -0.187834 1.351470 -0.114162
v -0.187834 1.351470 -0.114162
v -0.188569 1.429319 -0.357075
v -0.009021 1.430102 -0.285601
v -0.187834 1.351470 -0.114162
v -0.009021 1.430102 -0.285601
v -0.187834 1.351470 -0.114162
v -0.187834 1.351470 -0.114162
v -0.009021 1.430102 -0.285601
v 0.065350 1.428450 -0.113097
v -0.187834 1.351470 -0.114162
v 0.065350 1.428450 -0.113097
v -0.187834 1.351470 -0.114162
v 0.065350 1.428450 -0.113097
v 0.168752 1.609286 -0.110596
v 0.063576 1.604875 0.133333
v 0.065350 1.428450 -0.113097
v 0.063576 1.604875 0.133333
v -0.009021 1.425330 0.059386
v -0.009021 1.425330 0.059386
v 0.063576 1.604875 0.133333
v -0.190342 1.600973 0.234342
v -0.009021 1.425330 0.059386
v -0.190342 1.600973 0.234342
v -0.188569 1.422571 0.130811
v -0.188569 1.422571 0.130811
v -0.190342 1.600973 0.234342
v -0.444261 1.599866 0.133263
v -0.188569 1.422571 0.130811
v -0.444261 1.599866 0.133263
v -0.368116 1.421788 0.059337
v -0.368116 1.421788 0.059337
v -0.444261 1.599866 0.133263
v -0.549437 1.602202 -0.110694
v -0.368116 1.421788 0.059337
v -0.549437 1.602202 -0.110694
v -0.442487 1.423441 -0.113167
v -0.442487 1.423441 -0.113167
v -0.549437 1.602202 -0.110694
v -0.444261 1.606614 -0.354623
v -0.442487 1.423441 -0.113167
v -0.444261 1.606614 -0.354623
v -0.368116 1.426560 -0.285650
v -0.368116 1.426560 -0.285650
v -0.444261 1.606614 -0.354623
v -0.190342 1.610516 -0.455633
v -0.368116 1.426560 -0.285650
v -0.190342 1.610516 -0.455633
v -0.188569 1.429319 -0.357075
v -0.188569 1.429319 -0.357075
v -0.190342 1.610516 -0.455633
v 0.063576 1.611623 -0.354553
v -0.188569 1.429319 -0.357075
v 0.063576 1.611623 -0.354553
v -0.009021 1.430102 -0.285601
v -0.009021 1.430102 -0.285601
v 0.063576 1.611623 -0.354553
v 0.168752 1.609286 -0.110596
v -0.009021 1.430102 -0.285601
v 0.168752 1.609286 -0.110596
v 0.065350 1.428450 -0.113097
v 0.168752 1.609286 -0.110596
v 0.061802 1.788048 -0.108123
v -0.012569 1.784928 0.064360
v 0.168752 1.609286 -0.110596
v -0.012569 1.784928 0.064360
v 0.063576 1.604875 0.133333
v 0.063576 1.604875 0.133333
v -0.012569 1.784928 0.064360
v -0.192116 1.782169 0.135785
v 0.063576 1.604875 0.133333
v -0.192116 1.782169 0.135785
v -0.190342 1.600973 0.234342
v -0.190342 1.600973 0.234342
v -0.192116 1.782169 0.135785
v -0.371663 1.781387 0.064311
v -0.190342 1.600973 0.234342
v -0.371663 1.781387 0.064311
v -0.444261 1.599866 0.133263
v -0.444261 1.599866 0.133263
v -0.371663 1.781387 0.064311
v -0.446034 1.783039 -0.108193
v -0.444261 1.599866 0.133263
v -0.446034 1.783039 -0.108193
v -0.549437 1.602202 -0.110694
v -0.549437 1.602202 -0.110694
v -0.446034 1.783039 -0.108193
v -0.371663 1.786158 -0.280676
v -0.549437 1.602202 -0.110694
v -0.371663 1.786158 -0.280676
v -0.444261 1.606614 -0.354623
v -0.444261 1.606614 -0.354623
v -0.371663 1.786158 -0.280676
v -0.192116 1.788918 -0.352101
v -0.444261 1.606614 -0.354623
v -0.192116 1.788918 -0.352101
v -0.190342 1.610516 -0.455633
v -0.190342 1.610516 -0.455633
v -0.192116 1.788918 -0.352101
v -0.012569 1.789700 -0.280627
v -0.190342 1.610516 -0.455633
v -0.012569 1.789700 -0.280627
v 0.063576 1.611623 -0.354553
v 0.063576 1.611623 -0.354553
v -0.012569 1.789700 -0.280627
v 0.061802 1.788048 -0.108123
v 0.063576 1.611623 -0.354553
v 0.061802 1.788048 -0.108123
v 0.168752 1.609286 -0.110596
v 0.061802 1.788048 -0.108123
v -0.192851 1.860018 -0.107128
v -0.192851 1.860018 -0.107128
v 0.061802 1.788048 -0.108123
v -0.192851 1.860018 -0.107128
v -0.012569 1.784928 0.064360
v -0.012569 1.784928 0.064360
v -0.192851 1.860018 -0.107128
v -0.192851 1.860018 -0.107128
v -0.012569 1.784928 0.064360
v -0.192851 1.860018 -0.107128
v -0.192116 1.782169 0.135785
v -0.192116 1.782169 0.135785
v -0.192851 1.860018 -0.107128
v -0.192851 1.860018 -0.107128
v -0.192116 1.782169 0.135785
v -0.192851 1.860018 -0.107128
v -0.371663 1.781387 0.064311
v -0.371663 1.781387 0.064311
v -0.192851 1.860018 -0.107128
v -0.192851 1.860018 -0.107128
v -0.371663 1.781387 0.064311
v -0.192851 1.860018 -0.107128
v -0.446034 1.783039 -0.108193
v -0.446034 1.783039 -0.108193
v -0.192851 1.860018 -0.107128
v -0.192851 1.860018 -0.107128
v -0.446034 1.783039 -0.108193
v -0.192851 1.860018 -0.107128
v -0.371663 1.786158 -0.280676
v -0.371663 1.786158 -0.280676
v -0.192851 1.860018 -0.107128
v -0.192851 1.860018 -0.107128
v -0.371663 1.786158 -0.280676
v -0.192851 1.860018 -0.107128
v -0.192116 1.788918 -0.352101
v -0.192116 1.788918 -0.352101
v -0.192851 1.860018 -0.107128
v -0.192851 1.860018 -0.107128
v -0.192116 1.788918 -0.352101
v -0.192851 1.860018 -0.107128
v -0.012569 1.789700 -0.280627
v -0.012569 1.789700 -0.280627
v -0.192851 1.860018 -0.107128
v -0.192851 1.860018 -0.107128
v -0.012569 1.789700 -0.280627
v -0.192851 1.860018 -0.107128
v 0.061802 1.788048 -0.108123
v 0.212984 1.102406 -0.295826
v 0.401124 1.186296 -0.294665
v 0.345782 1.183871 -0.158798
v 0.212984 1.102406 -0.295826
v 0.345782 1.183871 -0.158798
v 0.212984 1.102406 -0.295826
v 0.212984 1.102406 -0.295826
v 0.345782 1.183871 -0.158798
v 0.212175 1.181774 -0.102535
v 0.212984 1.102406 -0.295826
v 0.212175 1.181774 -0.102535
v 0.212984 1.102406 -0.295826
v 0.212984 1.102406 -0.295826
v 0.212175 1.181774 -0.102535
v 0.078567 1.181235 -0.158835
v 0.212984 1.102406 -0.295826
v 0.078567 1.181235 -0.158835
v 0.212984 1.102406 -0.295826
v 0.212984 1.102406 -0.295826
v 0.078567 1.181235 -0.158835
v 0.023225 1.182569 -0.294717
v 0.212984 1.102406 -0.295826
v 0.023225 1.182569 -0.294717
v 0.212984 1.102406 -0.295826
v 0.212984 1.102406 -0.295826
v 0.023225 1.182569 -0.294717
v 0.078567 1.184994 -0.430584
v 0.212984 1.102406 -0.295826
v 0.078567 1.184994 -0.430584
v 0.212984 1.102406 -0.295826
v 0.212984 1.102406 -0.295826
v 0.078567 1.184994 -0.430584
v 0.212175 1.187090 -0.486847
v 0.212984 1.102406 -0.295826
v 0.212175 1.187090 -0.486847
v 0.212984 1.102406 -0.295826
v 0.212984 1.102406 -0.295826
v 0.212175 1.187090 -0.486847
v 0.345782 1.187629 -0.430547
v 0.212984 1.102406 -0.295826
v 0.345782 1.187629 -0.430547
v 0.212984 1.102406 -0.295826
v 0.212984 1.102406 -0.295826
v 0.345782 1.187629 -0.430547
v 0.401124 1.186296 -0.294665
v 0.212984 1.102406 -0.295826
v 0.401124 1.186296 -0.294665
v 0.212984 1.102406 -0.295826
v 0.401124 1.186296 -0.294665
v 0.477436 1.385096 -0.291916
v 0.399171 1.381667 -0.099771
v 0.401124 1.186296 -0.294665
v 0.399171 1.381667 -0.099771
v 0.345782 1.183871 -0.158798
v 0.345782 1.183871 -0.158798
v 0.399171 1.381667 -0.099771
v 0.210221 1.378702 -0.020203
v 0.345782 1.183871 -0.158798
v 0.210221 1.378702 -0.020203
v 0.212175 1.181774 -0.102535
v 0.212175 1.181774 -0.102535
v 0.210221 1.378702 -0.020203
v 0.021272 1.377939 -0.099822
v 0.212175 1.181774 -0.102535
v 0.021272 1.377939 -0.099822
v 0.078567 1.181235 -0.158835
v 0.078567 1.181235 -0.158835
v 0.021272 1.377939 -0.099822
v -0.056994 1.379825 -0.291989
v 0.078567 1.181235 -0.158835
v -0.056994 1.379825 -0.291989
v 0.023225 1.182569 -0.294717
v 0.023225 1.182569 -0.294717
v -0.056994 1.379825 -0.291989
v 0.021272 1.383255 -0.484134
v 0.023225 1.182569 -0.294717
v 0.021272 1.383255 -0.484134
v 0.078567 1.184994 -0.430584
v 0.078567 1.184994 -0.430584
v 0.021272 1.383255 -0.484134
v 0.210221 1.386220 -0.563701
v 0.078567 1.184994 -0.430584
v 0.210221 1.386220 -0.563701
v 0.212175 1.187090 -0.486847
v 0.212175 1.187090 -0.486847
v 0.210221 1.386220 -0.563701
v 0.399171 1.386982 -0.484082
v 0.212175 1.187090 -0.486847
v 0.399171 1.386982 -0.484082
v 0.345782 1.187629 -0.430547
v 0.345782 1.187629 -0.430547
v 0.399171 1.386982 -0.484082
v 0.477436 1.385096 -0.291916
v 0.345782 1.187629 -0.430547
v 0.477436 1.385096 -0.291916
v 0.401124 1.186296 -0.294665
v 0.477436 1.385096 -0.291916
v 0.397217 1.582353 -0.289187
v 0.341875 1.579928 -0.153320
v 0.477436 1.385096 -0.291916
v 0.341875 1.579928 -0.153320
v 0.399171 1.381667 -0.099771
v 0.399171 1.381667 -0.099771
v 0.341875 1.579928 -0.153320
v 0.208267 1.577831 -0.097057
v 0.399171 1.381667 -0.099771
v 0.208267 1.577831 -0.097057
v 0.210221 1.378702 -0.020203
v 0.210221 1.378702 -0.020203
v 0.208267 1.577831 -0.097057
v 0.074660 1.577292 -0.153357
v 0.210221 1.378702 -0.020203
v 0.074660 1.577292 -0.153357
v 0.021272 1.377939 -0.099822
v 0.021272 1.377939 -0.099822
v 0.074660 1.577292 -0.153357
v 0.019318 1.578625 -0.289239
v 0.021272 1.377939 -0.099822
v 0.019318 1.578625 -0.289239
v -0.056994 1.379825 -0.291989
v -0.056994 1.379825 -0.291989
v 0.019318 1.578625 -0.289239
v 0.074660 1.581051 -0.425106
v -0.056994 1.379825 -0.291989
v 0.074660 1.581051 -0.425106
v 0.021272 1.383255 -0.484134
v 0.021272 1.383255 -0.484134
v 0.074660 1.581051 -0.425106
v 0.208267 1.583147 -0.481369
v 0.021272 1.383255 -0.484134
v 0.208267 1.583147 -0.481369
v 0.210221 1.386220 -0.563701
v 0.210221 1.386220 -0.563701
v 0.208267 1.583147 -0.481369
v 0.341875 1.583686 -0.425069
v 0.210221 1.386220 -0.563701
v 0.341875 1.583686 -0.425069
v 0.399171 1.386982 -0.484082
v 0.399171 1.386982 -0.484082
v 0.341875 1.583686 -0.425069
v 0.397217 1.582353 -0.289187
v 0.399171 1.386982 -0.484082
v 0.397217 1.582353 -0.289187
v 0.477436 1.385096 -0.291916
v 0.397217 1.582353 -0.289187
v 0.207458 1.662515 -0.288078
v 0.207458 1.662515 -0.288078
v 0.397217 1.582353 -0.289187
v 0.207458 1.662515 -0.288078
v 0.341875 1.579928 -0.153320
v 0.341875 1.579928 -0.153320
v 0.207458 1.662515 -0.288078
v 0.207458 1.662515 -0.288078
v 0.341875 1.579928 -0.153320
v 0.207458 1.662515 -0.288078
v 0.208267 1.577831 -0.097057
v 0.208267 1.577831 -0.097057
v 0.207458 1.662515 -0.288078
v 0.207458 1.662515 -0.288078
v 0.208267 1.577831 -0.097057
v 0.207458 1.662515 -0.288078
v 0.074660 1.577292 -0.153357
v 0.074660 1.577292 -0.153357
v 0.207458 1.662515 -0.288078
v 0.207458 1.662515 -0.288078
v 0.074660 1.577292 -0.153357
v 0.207458 1.662515 -0.288078
v 0.019318 1.578625 -0.289239
v 0.019318 1.578625 -0.289239
v 0.207458 1.662515 -0.288078
v 0.207458 1.662515 -0.288078
v 0.019318 1.578625 -0.289239
v 0.207458 1.662515 -0.288078
v 0.074660 1.581051 -0.425106
v 0.074660 1.581051 -0.425106
v 0.207458 1.662515 -0.288078
v 0.207458 1.662515 -0.288078
v 0.074660 1.581051 -0.425106
v 0.207458 1.662515 -0.288078
v 0.208267 1.583147 -0.481369
v 0.208267 1.583147 -0.481369
v 0.207458 1.662515 -0.288078
v 0.207458 1.662515 -0.288078
v 0.208267 1.583147 -0.481369
v 0.207458 1.662515 -0.288078
v 0.341875 1.583686 -0.425069
v 0.341875 1.583686 -0.425069
v 0.207458 1.662515 -0.288078
v 0.207458 1.662515 -0.288078
v 0.341875 1.583686 -0.425069
v 0.207458 1.662515 -0.288078
v 0.397217 1.582353 -0.289187
v 0.248000 1.142090 0.080402
v 0.455954 1.233727 0.081670
v 0.394787 1.230932 0.240145
v 0.248000 1.142090 0.080402
v 0.394787 1.230932 0.240145
v 0.248000 1.142090 0.080402
v 0.248000 1.142090 0.080402
v 0.394787 1.230932 0.240145
v 0.247116 1.228567 0.305771
v 0.248000 1.142090 0.080402
v 0.247116 1.228567 0.305771
v 0.248000 1.142090 0.080402
v 0.248000 1.142090 0.080402
v 0.247116 1.228567 0.305771
v 0.099445 1.228018 0.240104
v 0.248000 1.142090 0.080402
v 0.099445 1.228018 0.240104
v 0.248000 1.142090 0.080402
v 0.248000 1.142090 0.080402
v 0.099445 1.228018 0.240104
v 0.038278 1.229607 0.081613
v 0.248000 1.142090 0.080402
v 0.038278 1.229607 0.081613
v 0.248000 1.142090 0.080402
v 0.248000 1.142090 0.080402
v 0.038278 1.229607 0.081613
v 0.099445 1.232403 -0.076862
v 0.248000 1.142090 0.080402
v 0.099445 1.232403 -0.076862
v 0.248000 1.142090 0.080402
v 0.248000 1.142090 0.080402
v 0.099445 1.232403 -0.076862
v 0.247116 1.234767 -0.142488
v 0.248000 1.142090 0.080402
v 0.247116 1.234767 -0.142488
v 0.248000 1.142090 0.080402
v 0.248000 1.142090 0.080402
v 0.247116 1.234767 -0.142488
v 0.394787 1.235316 -0.076822
v 0.248000 1.142090 0.080402
v 0.394787 1.235316 -0.076822
v 0.248000 1.142090 0.080402
v 0.248000 1.142090 0.080402
v 0.394787 1.235316 -0.076822
v 0.455954 1.233727 0.081670
v 0.248000 1.142090 0.080402
v 0.455954 1.233727 0.081670
v 0.248000 1.142090 0.080402
v 0.455954 1.233727 0.081670
v 0.540325 1.450838 0.084673
v 0.453821 1.446885 0.308790
v 0.455954 1.233727 0.081670
v 0.453821 1.446885 0.308790
v 0.394787 1.230932 0.240145
v 0.394787 1.230932 0.240145
v 0.453821 1.446885 0.308790
v 0.244983 1.443541 0.401599
v 0.394787 1.230932 0.240145
v 0.244983 1.443541 0.401599
v 0.247116 1.228567 0.305771
v 0.247116 1.228567 0.305771
v 0.244983 1.443541 0.401599
v 0.036145 1.442765 0.308733
v 0.247116 1.228567 0.305771
v 0.036145 1.442765 0.308733
v 0.099445 1.228018 0.240104
v 0.099445 1.228018 0.240104
v 0.036145 1.442765 0.308733
v -0.050359 1.445012 0.084592
v 0.099445 1.228018 0.240104
v -0.050359 1.445012 0.084592
v 0.038278 1.229607 0.081613
v 0.038278 1.229607 0.081613
v -0.050359 1.445012 0.084592
v 0.036145 1.448965 -0.139526
v 0.038278 1.229607 0.081613
v 0.036145 1.448965 -0.139526
v 0.099445 1.232403 -0.076862
v 0.099445 1.232403 -0.076862
v 0.036145 1.448965 -0.139526
v 0.244983 1.452309 -0.232335
v 0.099445 1.232403 -0.076862
v 0.244983 1.452309 -0.232335
v 0.247116 1.234767 -0.142488
v 0.247116 1.234767 -0.142488
v 0.244983 1.452309 -0.232335
v 0.453821 1.453085 -0.139469
v 0.247116 1.234767 -0.142488
v 0.453821 1.453085 -0.139469
v 0.394787 1.235316 -0.076822
v 0.394787 1.235316 -0.076822
v 0.453821 1.453085 -0.139469
v 0.540325 1.450838 0.084673
v 0.394787 1.235316 -0.076822
v 0.540325 1.450838 0.084673
v 0.455954 1.233727 0.081670
v 0.540325 1.450838 0.084673
v 0.451687 1.666243 0.087652
v 0.390520 1.663447 0.246127
v 0.540325 1.450838 0.084673
v 0.390520 1.663447 0.246127
v 0.453821 1.446885 0.308790
v 0.453821 1.446885 0.308790
v 0.390520 1.663447 0.246127
v 0.242849 1.661083 0.311753
v 0.453821 1.446885 0.308790
v 0.242849 1.661083 0.311753
v 0.244983 1.443541 0.401599
v 0.244983 1.443541 0.401599
v 0.242849 1.661083 0.311753
v 0.095179 1.660534 0.246087
v 0.244983 1.443541 0.401599
v 0.095179 1.660534 0.246087
v 0.036145 1.442765 0.308733
v 0.036145 1.442765 0.308733
v 0.095179 1.660534 0.246087
v 0.034011 1.662123 0.087595
v 0.036145 1.442765 0.308733
v 0.034011 1.662123 0.087595
v -0.050359 1.445012 0.084592
v -0.050359 1.445012 0.084592
v 0.034011 1.662123 0.087595
v 0.095179 1.664918 -0.070880
v -0.050359 1.445012 0.084592
v 0.095179 1.664918 -0.070880
v 0.036145 1.448965 -0.139526
v 0.036145 1.448965 -0.139526
v 0.095179 1.664918 -0.070880
v 0.242849 1.667283 -0.136506
v 0.036145 1.448965 -0.139526
v 0.242849 1.667283 -0.136506
v 0.244983 1.452309 -0.232335
v 0.244983 1.452309 -0.232335
v 0.242849 1.667283 -0.136506
v 0.390520 1.667832 -0.070840
v 0.244983 1.452309 -0.232335
v 0.390520 1.667832 -0.070840
v 0.453821 1.453085 -0.139469
v 0.453821 1.453085 -0.139469
v 0.390520 1.667832 -0.070840
v 0.451687 1.666243 0.087652
v 0.453821 1.453085 -0.139469
v 0.451687 1.666243 0.087652
v 0.540325 1.450838 0.084673
v 0.451687 1.666243 0.087652
v 0.241966 1.753760 0.088863
v 0.241966 1.753760 0.088863
v 0.451687 1.666243 0.087652
v 0.241966 1.753760 0.088863
v 0.390520 1.663447 0.246127
v 0.390520 1.663447 0.246127
v 0.241966 1.753760 0.088863
v 0.241966 1.753760 0.088863
v 0.390520 1.663447 0.246127
v 0.241966 1.753760 0.088863
v 0.242849 1.661083 0.311753
v 0.242849 1.661083 0.311753
v 0.241966 1.753760 0.088863
v 0.241966 1.753760 0.088863
v 0.242849 1.661083 0.311753
v 0.241966 1.753760 0.088863
v 0.095179 1.660534 0.246087
v 0.095179 1.660534 0.246087
v 0.241966 1.753760 0.088863
v 0.241966 1.753760 0.088863
v 0.095179 1.660534 0.246087
v 0.241966 1.753760 0.088863
v 0.034011 1.662123 0.087595
v 0.034011 1.662123 0.087595
v 0.241966 1.753760 0.088863
v 0.241966 1.753760 0.088863
v 0.034011 1.662123 0.087595
v 0.241966 1.753760 0.088863
v 0.095179 1.664918 -0.070880
v 0.095179 1.664918 -0.070880
v 0.241966 1.753760 0.088863
v 0.241966 1.753760 0.088863
v 0.095179 1.664918 -0.070880
v 0.241966 1.753760 0.088863
v 0.242849 1.667283 -0.136506
v 0.242849 1.667283 -0.136506
v 0.241966 1.753760 0.088863
v 0.241966 1.753760 0.088863
v 0.242849 1.667283 -0.136506
v 0.241966 1.753760 0.088863
v 0.390520 1.667832 -0.070840
v 0.390520 1.667832 -0.070840
v 0.241966 1.753760 0.088863
v 0.241966 1.753760 0.088863
v 0.390520 1.667832 -0.070840
v 0.241966 1.753760 0.088863
v 0.451687 1.666243 0.087652
f 733 734 735
f 736 737 738
f 739 740 741
f 742 743 744
f 745 746 747
f 748 749 750
f 751 752 753
f 754 755 756
f 757 758 759
f 760 761 762
f 763 764 765
f 766 767 768
f 769 770 771
f 772 773 774
f 775 776 777
f 778 779 780
f 781 782 783
f 784 785 786
f 787 788 789
f 790 791 792
f 793 794 795
f 796 797 798
f 799 800 801
f 802 803 804
f 805 806 807
f 808 809 810
f 811 812 813
f 814 815 816
f 817 818 819
f 820 821 822
f 823 824 825
f 826 827 828
f 829 830 831
f 832 833 834
f 835 836 837
f 838 839 840
f 841 842 843
f 844 845 846
f 847 848 849
f 850 851 852
f 853 854 855
f 856 857 858
f 859 860 861
f 862 863 864
f 865 866 867
f 868 869 870
f 871 872 873
f 874 875 876
f 877 878 879
f 880 881 882
f 883 884 885
f 886 887 888
f 889 890 891
f 892 893 894
f 895 896 897
f 898 899 900
f 901 902 903
f 904 905 906
f 907 908 909
f 910 911 912
f 913 914 915
f 916 917 918
f 919 920 921
f 922 923 924
f 925 926 927
f 928 929 930
f 931 932 933
f 934 935 936
f 937 938 939
f 940 941 942
f 943 944 945
f 946 947 948
f 949 950 951
f 952 953 954
f 955 956 957
f 958 959 960
f 961 962 963
f 964 965 966
f 967 968 969
f 970 971 972
f 973 974 975
f 976 977 978
f 979 980 981
f 982 983 984
f 985 986 987
f 988 989 990
f 991 992 993
f 994 995 996
f 997 998 999
f 1000 1001 1002
f 1003 1004 1005
f 1006 1007 1008
f 1009 1010 1011
f 1012 1013 1014
f 1015 1016 1017
f 1018 1019 1020
f 1021 1022 1023
f 1024 1025 1026
f 1027 1028 1029
f 1030 1031 1032
f 1033 1034 1035
f 1036 1037 1038
f 1039 1040 1041
f 1042 1043 1044
f 1045 1046 1047
f 1048 1049 1050
f 1051 1052 1053
f 1054 1055 1056
f 1057 1058 1059
f 1060 1061 1062
f 1063 1064 1065
f 1066 1067 1068
f 1069 1070 1071
f 1072 1073 1074
f 1075 1076 1077
f 1078 1079 1080
f 1081 1082 1083
f 1084 1085 1086
f 1087 1088 1089
f 1090 1091 1092
f 1093 1094 1095
f 1096 1097 1098
f 1099 1100 1101
f 1102 1103 1104
f 1105 1106 1107
f 1108 1109 1110
f 1111 1112 1113
f 1114 1115 1116
f 1117 1118 1119
f 1120 1121 1122
f 1123 1124 1125
f 1126 1127 1128
f 1129 1130 1131
f 1132 1133 1134
f 1135 1136 1137
f 1138 1139 1140
f 1141 1142 1143
f 1144 1145 1146
f 1147 1148 1149
f 1150 1151 1152
f 1153 1154 1155
f 1156 1157 1158
f 1159 1160 1161
f 1162 1163 1164
f 1165 1166 1167
f 1168 1169 1170
f 1171 1172 1173
f 1174 1175 1176
f 1177 1178 1179
f 1180 1181 1182
f 1183 1184 1185
f 1186 1187 1188
f 1189 1190 1191
f 1192 1193 1194
f 1195 1196 1197
f 1198 1199 1200
f 1201 1202 1203
f 1204 1205 1206
f 1207 1208 1209
f 1210 1211 1212
f 1213 1214 1215
f 1216 1217 1218
f 1219 1220 1221
f 1222 1223 1224
f 1225 1226 1227
f 1228 1229 1230
f 1231 1232 1233
f 1234 1235 1236
f 1237 1238 1239
f 1240 1241 1242
f 1243 1244 1245
f 1246 1247 1248
f 1249 1250 1251
f 1252 1253 1254
f 1255 1256 1257
f 1258 1259 1260
f 1261 1262 1263
f 1264 1265 1266
f 1267 1268 1269
f 1270 1271 1272
f 1273 1274 1275
f 1276 1277 1278
f 1279 1280 1281
f 1282 1283 1284
f 1285 1286 1287
f 1288 1289 1290
f 1291 1292 1293
f 1294 1295 1296
f 1297 1298 1299
f 1300 1301 1302
f 1303 1304 1305
f 1306 1307 1308
f 1309 1310 1311
f 1312 1313 1314
f 1315 1316 1317
f 1318 1319 1320
f 1321 1322 1323
f 1324 1325 1326
f 1327 1328 1329
f 1330 1331 1332
f 1333 1334 1335
f 1336 1337 1338
f 1339 1340 1341
f 1342 1343 1344
f 1345 1346 1347
f 1348 1349 1350
f 1351 1352 1353
f 1354 1355 1356
f 1357 1358 1359
f 1360 1361 1362
f 1363 1364 1365
f 1366 1367 1368
f 1369 1370 1371
f 1372 1373 1374
f 1375 1376 1377
f 1378 1379 1380
f 1381 1382 1383
f 1384 1385 1386
f 1387 1388 1389
f 1390 1391 1392
f 1393 1394 1395
f 1396 1397 1398
f 1399 1400 1401
f 1402 1403 1404
f 1405 1406 1407
f 1408 1409 1410
f 1411 1412 1413
f 1414 1415 1416
f 1417 1418 1419
f 1420 1421 1422
f 1423 1424 1425
f 1426 1427 1428
f 1429 1430 1431
f 1432 1433 1434
f 1435 1436 1437
f 1438 1439 1440
f 1441 1442 1443
f 1444 1445 1446
f 1447 1448 1449
f 1450 1451 1452
f 1453 1454 1455
f 1456 1457 1458
f 1459 1460 1461
f 1462 1463 1464
f 1465 1466 1467
f 1468 1469 1470
f 1471 1472 1473
f 1474 1475 1476
f 1477 1478 1479
f 1480 1481 1482
f 1483 1484 1485
f 1486 1487 1488
f 1489 1490 1491
f 1492 1493 1494
f 1495 1496 1497
f 1498 1499 1500
f 1501 1502 1503
f 1504 1505 1506
f 1507 1508 1509
f 1510 1511 1512
f 1513 1514 1515
f 1516 1517 1518
f 1519 1520 1521
f 1522 1523 1524
f 1525 1526 1527
f 1528 1529 1530
f 1531 1532 1533
f 1534 1535 1536
f 1537 1538 1539
f 1540 1541 1542
f 1543 1544 1545
f 1546 1547 1548
f 1549 1550 1551
f 1552 1553 1554
f 1555 1556 1557
f 1558 1559 1560
f 1561 1562 1563
f 1564 1565 1566
f 1567 1568 1569
f 1570 1571 1572
f 1573 1574 1575
f 1576 1577 1578
f 1579 1580 1581
f 1582 1583 1584
f 1585 1586 1587
f 1588 1589 1590
f 1591 1592 1593
f 1594 1595 1596
f 1597 1598 1599
f 1600 1601 1602
f 1603 1604 1605
f 1606 1607 1608
f 1609 1610 1611
f 1612 1613 1614
f 1615 1616 1617
f 1618 1619 1620
f 1621 1622 1623
f 1624 1625 1626
f 1627 1628 1629
f 1630 1631 1632
f 1633 1634 1635
f 1636 1637 1638
f 1639 1640 1641
f 1642 1643 1644
f 1645 1646 1647
f 1648 1649 1650
f 1651 1652 1653
f 1654 1655 1656
f 1657 1658 1659
f 1660 1661 1662
f 1663 1664 1665
f 1666 1667 1668
f 1669 1670 1671
f 1672 1673 1674
f 1675 1676 1677
f 1678 1679 1680
f 1681 1682 1683
f 1684 1685 1686
f 1687 1688 1689
f 1690 1691 1692
f 1693 1694 1695
f 1696 1697 1698
f 1699 1700 1701
f 1702 1703 1704
f 1705 1706 1707
f 1708 1709 1710
f 1711 1712 1713
f 1714 1715 1716
f 1717 1718 1719
f 1720 1721 1722
f 1723 1724 1725
f 1726 1727 1728
f 1729 1730 1731
f 1732 1733 1734
f 1735 1736 1737
f 1738 1739 1740
f 1741 1742 1743
f 1744 1745 1746
f 1747 1748 1749
f 1750 1751 1752
f 1753 1754 1755
f 1756 1757 1758
f 1759 1760 1761
f 1762 1763 1764
f 1765 1766 1767
f 1768 1769 1770
f 1771 1772 1773
f 1774 1775 1776
f 1777 1778 1779
f 1780 1781 1782
f 1783 1784 1785
f 1786 1787 1788
f 1789 1790 1791
f 1792 1793 1794
f 1795 1796 1797
f 1798 1799 1800
f 1801 1802 1803
f 1804 1805 1806
f 1807 1808 1809
f 1810 1811 1812
f 1813 1814 1815
f 1816 1817 1818
f 1819 1820 1821
f 1822 1823 1824
f 1825 1826 1827
f 1828 1829 1830
f 1831 1832 1833
f 1834 1835 1836
f 1837 1838 1839
f 1840 1841 1842
f 1843 1844 1845
f 1846 1847 1848
f 1849 1850 1851
f 1852 1853 1854
f 1855 1856 1857
f 1858 1859 1860
f 1861 1862 1863
f 1864 1865 1866
f 1867 1868 1869
f 1870 1871 1872
f 1873 1874 1875
f 1876 1877 1878
f 1879 1880 1881
f 1882 1883 1884
f 1885 1886 1887
f 1888 1889 1890
f 1891 1892 1893
f 1894 1895 1896
f 1897 1898 1899
f 1900 1901 1902
f 1903 1904 1905
f 1906 1907 1908
f 1909 1910 1911
f 1912 1913 1914
f 1915 1916 1917
f 1918 1919 1920
f 1921 1922 1923
f 1924 1925 1926
f 1927 1928 1929
f 1930 1931 1932
f 1933 1934 1935
f 1936 1937 1938
f 1939 1940 1941
f 1942 1943 1944
f 1945 1946 1947
f 1948 1949 1950
f 1951 1952 1953
f 1954 1955 1956
f 1957 1958 1959
f 1960 1961 1962
f 1963 1964 1965
f 1966 1967 1968
f 1969 1970 1971
f 1972 1973 1974
f 1975 1976 1977
f 1978 1979 1980
f 1981 1982 1983
f 1984 1985 1986
f 1987 1988 1989
f 1990 1991 1992
f 1993 1994 1995
f 1996 1997 1998
f 1999 2000 2001
f 2002 2003 2004
f 2005 2006 2007
f 2008 2009 2010
f 2011 2012 2013
f 2014 2015 2016
f 2017 2018 2019
f 2020 2021 2022
f 2023 2024 2025
f 2026 2027 2028
f 2029 2030 2031
f 2032 2033 2034
f 2035 2036 2037
f 2038 2039 2040
f 2041 2042 2043
f 2044 2045 2046
f 2047 2048 2049
f 2050 2051 2052
f 2053 2054 2055
f 2056 2057 2058
f 2059 2060 2061
f 2062 2063 2064
f 2065 2066 2067
f 2068 2069 2070
f 2071 2072 2073
f 2074 2075 2076
