# Pyramida editable prop source
# units: 1 OBJ unit = 1 Pyramida World Unit = 1 Blender metre

o TreeTrunk
v 0.043071 0.075684 0.105317
v 0.303392 0.012997 0.033224
v 0.309712 0.035998 0.009079
v 0.043071 0.075684 0.105317
v 0.309712 0.035998 0.009079
v 0.070720 0.176314 -0.000320
v 0.046321 0.074190 0.000378
v 0.043071 0.075684 0.105317
v 0.070720 0.176314 -0.000320
v 0.304135 0.012656 0.009238
v 0.309712 0.035998 0.009079
v 0.303392 0.012997 0.033224
v 0.070720 0.176314 -0.000320
v 0.309712 0.035998 0.009079
v 0.304878 0.012314 -0.014748
v 0.070720 0.176314 -0.000320
v 0.304878 0.012314 -0.014748
v 0.049571 0.072697 -0.104561
v 0.046321 0.074190 0.000378
v 0.070720 0.176314 -0.000320
v 0.049571 0.072697 -0.104561
v 0.304135 0.012656 0.009238
v 0.304878 0.012314 -0.014748
v 0.309712 0.035998 0.009079
v 0.049571 0.072697 -0.104561
v 0.304878 0.012314 -0.014748
v 0.298558 -0.010687 0.009398
v 0.049571 0.072697 -0.104561
v 0.298558 -0.010687 0.009398
v 0.021922 -0.027933 0.001077
v 0.046321 0.074190 0.000378
v 0.049571 0.072697 -0.104561
v 0.021922 -0.027933 0.001077
v 0.304135 0.012656 0.009238
v 0.298558 -0.010687 0.009398
v 0.304878 0.012314 -0.014748
v 0.021922 -0.027933 0.001077
v 0.298558 -0.010687 0.009398
v 0.303392 0.012997 0.033224
v 0.021922 -0.027933 0.001077
v 0.303392 0.012997 0.033224
v 0.043071 0.075684 0.105317
v 0.046321 0.074190 0.000378
v 0.021922 -0.027933 0.001077
v 0.043071 0.075684 0.105317
v 0.304135 0.012656 0.009238
v 0.303392 0.012997 0.033224
v 0.298558 -0.010687 0.009398
v -0.109501 0.076600 -0.028585
v -0.220744 0.025423 0.251796
v -0.203992 0.048920 0.269665
v -0.109501 0.076600 -0.028585
v -0.203992 0.048920 0.269665
v -0.036212 0.179398 0.049590
v -0.025819 0.075960 0.034834
v -0.109501 0.076600 -0.028585
v -0.036212 0.179398 0.049590
v -0.201617 0.025277 0.266292
v -0.203992 0.048920 0.269665
v -0.220744 0.025423 0.251796
v -0.036212 0.179398 0.049590
v -0.203992 0.048920 0.269665
v -0.182490 0.025131 0.280787
v -0.036212 0.179398 0.049590
v -0.182490 0.025131 0.280787
v 0.057863 0.075321 0.098252
v -0.025819 0.075960 0.034834
v -0.036212 0.179398 0.049590
v 0.057863 0.075321 0.098252
v -0.201617 0.025277 0.266292
v -0.182490 0.025131 0.280787
v -0.203992 0.048920 0.269665
v 0.057863 0.075321 0.098252
v -0.182490 0.025131 0.280787
v -0.199241 0.001634 0.262919
v 0.057863 0.075321 0.098252
v -0.199241 0.001634 0.262919
v -0.015426 -0.027477 0.020078
v -0.025819 0.075960 0.034834
v 0.057863 0.075321 0.098252
v -0.015426 -0.027477 0.020078
v -0.201617 0.025277 0.266292
v -0.199241 0.001634 0.262919
v -0.182490 0.025131 0.280787
v -0.015426 -0.027477 0.020078
v -0.199241 0.001634 0.262919
v -0.220744 0.025423 0.251796
v -0.015426 -0.027477 0.020078
v -0.220744 0.025423 0.251796
v -0.109501 0.076600 -0.028585
v -0.025819 0.075960 0.034834
v -0.015426 -0.027477 0.020078
v -0.109501 0.076600 -0.028585
v -0.201617 0.025277 0.266292
v -0.220744 0.025423 0.251796
v -0.199241 0.001634 0.262919
v 0.052133 0.072667 -0.103328
v -0.133654 0.017747 -0.194723
v -0.155984 0.041279 -0.184742
v 0.052133 0.072667 -0.103328
v -0.155984 0.041279 -0.184742
v -0.045561 0.175618 -0.059658
v -0.027812 0.075037 -0.035297
v 0.052133 0.072667 -0.103328
v -0.045561 0.175618 -0.059658
v -0.151927 0.018289 -0.179173
v -0.155984 0.041279 -0.184742
v -0.133654 0.017747 -0.194723
v -0.045561 0.175618 -0.059658
v -0.155984 0.041279 -0.184742
v -0.170200 0.018831 -0.163624
v -0.045561 0.175618 -0.059658
v -0.170200 0.018831 -0.163624
v -0.107758 0.077407 0.032733
v -0.027812 0.075037 -0.035297
v -0.045561 0.175618 -0.059658
v -0.107758 0.077407 0.032733
v -0.151927 0.018289 -0.179173
v -0.170200 0.018831 -0.163624
v -0.155984 0.041279 -0.184742
v -0.107758 0.077407 0.032733
v -0.170200 0.018831 -0.163624
v -0.147870 -0.004701 -0.173605
v -0.107758 0.077407 0.032733
v -0.147870 -0.004701 -0.173605
v -0.010064 -0.025544 -0.010937
v -0.027812 0.075037 -0.035297
v -0.107758 0.077407 0.032733
v -0.010064 -0.025544 -0.010937
v -0.151927 0.018289 -0.179173
v -0.147870 -0.004701 -0.173605
v -0.170200 0.018831 -0.163624
v -0.010064 -0.025544 -0.010937
v -0.147870 -0.004701 -0.173605
v -0.133654 0.017747 -0.194723
v -0.010064 -0.025544 -0.010937
v -0.133654 0.017747 -0.194723
v 0.052133 0.072667 -0.103328
v -0.027812 0.075037 -0.035297
v -0.010064 -0.025544 -0.010937
v 0.052133 0.072667 -0.103328
v -0.151927 0.018289 -0.179173
v -0.133654 0.017747 -0.194723
v -0.147870 -0.004701 -0.173605
v -0.000033 -0.003999 -0.159950
v -0.020177 0.996985 -0.156632
v 0.093840 1.000925 -0.090899
v -0.000033 -0.003999 -0.159950
v 0.093840 1.000925 -0.090899
v 0.138520 0.000789 -0.080073
v 0.000000 0.000000 0.000000
v -0.000033 -0.003999 -0.159950
v 0.138520 0.000789 -0.080073
v 0.138520 0.000789 -0.080073
v 0.093840 1.000925 -0.090899
v 0.093867 1.004216 0.040726
v 0.138520 0.000789 -0.080073
v 0.093867 1.004216 0.040726
v 0.138552 0.004788 0.079877
v 0.000000 0.000000 0.000000
v 0.138520 0.000789 -0.080073
v 0.138552 0.004788 0.079877
v 0.138552 0.004788 0.079877
v 0.093867 1.004216 0.040726
v -0.020123 1.003567 0.106619
v 0.138552 0.004788 0.079877
v -0.020123 1.003567 0.106619
v 0.000033 0.003999 0.159950
v 0.000000 0.000000 0.000000
v 0.138552 0.004788 0.079877
v 0.000033 0.003999 0.159950
v 0.000033 0.003999 0.159950
v -0.020123 1.003567 0.106619
v -0.134140 0.999627 0.040887
v 0.000033 0.003999 0.159950
v -0.134140 0.999627 0.040887
v -0.138520 -0.000789 0.080073
v 0.000000 0.000000 0.000000
v 0.000033 0.003999 0.159950
v -0.138520 -0.000789 0.080073
v -0.138520 -0.000789 0.080073
v -0.134140 0.999627 0.040887
v -0.134167 0.996336 -0.090738
v -0.138520 -0.000789 0.080073
v -0.134167 0.996336 -0.090738
v -0.138552 -0.004788 -0.079877
v 0.000000 0.000000 0.000000
v -0.138520 -0.000789 0.080073
v -0.138552 -0.004788 -0.079877
v -0.138552 -0.004788 -0.079877
v -0.134167 0.996336 -0.090738
v -0.020177 0.996985 -0.156632
v -0.138552 -0.004788 -0.079877
v -0.020177 0.996985 -0.156632
v -0.000033 -0.003999 -0.159950
v 0.000000 0.000000 0.000000
v -0.138552 -0.004788 -0.079877
v -0.000033 -0.003999 -0.159950
v -0.020105 1.000996 -0.156671
v -0.009798 2.000986 -0.122867
v 0.079669 1.999780 -0.071176
v -0.020105 1.000996 -0.156671
v 0.079669 1.999780 -0.071176
v 0.093893 0.999460 -0.090806
v -0.009833 2.000421 -0.019535
v 0.079669 1.999780 -0.071176
v -0.009798 2.000986 -0.122867
v 0.093893 0.999460 -0.090806
v 0.079669 1.999780 -0.071176
v 0.079633 1.999215 0.032156
v 0.093893 0.999460 -0.090806
v 0.079633 1.999215 0.032156
v 0.093848 0.998740 0.040859
v -0.009833 2.000421 -0.019535
v 0.079633 1.999215 0.032156
v 0.079669 1.999780 -0.071176
v 0.093848 0.998740 0.040859
v 0.079633 1.999215 0.032156
v -0.009869 1.999856 0.083796
v 0.093848 0.998740 0.040859
v -0.009869 1.999856 0.083796
v -0.020196 0.999557 0.106659
v -0.009833 2.000421 -0.019535
v -0.009869 1.999856 0.083796
v 0.079633 1.999215 0.032156
v -0.020196 0.999557 0.106659
v -0.009869 1.999856 0.083796
v -0.099336 2.001062 0.032105
v -0.020196 0.999557 0.106659
v -0.099336 2.001062 0.032105
v -0.134193 1.001093 0.040793
v -0.009833 2.000421 -0.019535
v -0.099336 2.001062 0.032105
v -0.009869 1.999856 0.083796
v -0.134193 1.001093 0.040793
v -0.099336 2.001062 0.032105
v -0.099300 2.001626 -0.071227
v -0.134193 1.001093 0.040793
v -0.099300 2.001626 -0.071227
v -0.134148 1.001812 -0.090871
v -0.009833 2.000421 -0.019535
v -0.099300 2.001626 -0.071227
v -0.099336 2.001062 0.032105
v -0.134148 1.001812 -0.090871
v -0.099300 2.001626 -0.071227
v -0.009798 2.000986 -0.122867
v -0.134148 1.001812 -0.090871
v -0.009798 2.000986 -0.122867
v -0.020105 1.000996 -0.156671
v -0.009833 2.000421 -0.019535
v -0.009798 2.000986 -0.122867
v -0.099300 2.001626 -0.071227
v -0.032607 1.840326 0.027294
v 0.320916 2.001291 0.147137
v 0.321955 2.020954 0.123199
v -0.032607 1.840326 0.027294
v 0.321955 2.020954 0.123199
v -0.030135 1.887142 -0.029700
v -0.011495 1.839294 -0.020417
v -0.032607 1.840326 0.027294
v -0.030135 1.887142 -0.029700
v 0.329783 2.000858 0.127098
v 0.321955 2.020954 0.123199
v 0.320916 2.001291 0.147137
v -0.030135 1.887142 -0.029700
v 0.321955 2.020954 0.123199
v 0.338650 2.000424 0.107060
v -0.030135 1.887142 -0.029700
v 0.338650 2.000424 0.107060
v 0.009616 1.838261 -0.068128
v -0.011495 1.839294 -0.020417
v -0.030135 1.887142 -0.029700
v 0.009616 1.838261 -0.068128
v 0.329783 2.000858 0.127098
v 0.338650 2.000424 0.107060
v 0.321955 2.020954 0.123199
v 0.009616 1.838261 -0.068128
v 0.338650 2.000424 0.107060
v 0.337612 1.980761 0.130997
v 0.009616 1.838261 -0.068128
v 0.337612 1.980761 0.130997
v 0.007144 1.791445 -0.011133
v -0.011495 1.839294 -0.020417
v 0.009616 1.838261 -0.068128
v 0.007144 1.791445 -0.011133
v 0.329783 2.000858 0.127098
v 0.337612 1.980761 0.130997
v 0.338650 2.000424 0.107060
v 0.007144 1.791445 -0.011133
v 0.337612 1.980761 0.130997
v 0.320916 2.001291 0.147137
v 0.007144 1.791445 -0.011133
v 0.320916 2.001291 0.147137
v -0.032607 1.840326 0.027294
v -0.011495 1.839294 -0.020417
v 0.007144 1.791445 -0.011133
v -0.032607 1.840326 0.027294
v 0.329783 2.000858 0.127098
v 0.320916 2.001291 0.147137
v 0.337612 1.980761 0.130997
v 0.264630 1.966280 0.117932
v 0.419301 2.047299 0.044971
v 0.412562 2.055364 0.037792
v 0.264630 1.966280 0.117932
v 0.412562 2.055364 0.037792
v 0.246658 1.987791 0.098782
v 0.256405 1.966120 0.095381
v 0.264630 1.966280 0.117932
v 0.246658 1.987791 0.098782
v 0.416217 2.047239 0.036516
v 0.412562 2.055364 0.037792
v 0.419301 2.047299 0.044971
v 0.246658 1.987791 0.098782
v 0.412562 2.055364 0.037792
v 0.413133 2.047179 0.028061
v 0.246658 1.987791 0.098782
v 0.413133 2.047179 0.028061
v 0.248180 1.965959 0.072830
v 0.256405 1.966120 0.095381
v 0.246658 1.987791 0.098782
v 0.248180 1.965959 0.072830
v 0.416217 2.047239 0.036516
v 0.413133 2.047179 0.028061
v 0.412562 2.055364 0.037792
v 0.248180 1.965959 0.072830
v 0.413133 2.047179 0.028061
v 0.419872 2.039114 0.035241
v 0.248180 1.965959 0.072830
v 0.419872 2.039114 0.035241
v 0.266152 1.944449 0.091980
v 0.256405 1.966120 0.095381
v 0.248180 1.965959 0.072830
v 0.266152 1.944449 0.091980
v 0.416217 2.047239 0.036516
v 0.419872 2.039114 0.035241
v 0.413133 2.047179 0.028061
v 0.266152 1.944449 0.091980
v 0.419872 2.039114 0.035241
v 0.419301 2.047299 0.044971
v 0.266152 1.944449 0.091980
v 0.419301 2.047299 0.044971
v 0.264630 1.966280 0.117932
v 0.256405 1.966120 0.095381
v 0.266152 1.944449 0.091980
v 0.264630 1.966280 0.117932
v 0.416217 2.047239 0.036516
v 0.419301 2.047299 0.044971
v 0.419872 2.039114 0.035241
v 0.152587 1.919514 0.076031
v 0.352717 2.022105 0.097345
v 0.350402 2.029961 0.087602
v 0.152587 1.919514 0.076031
v 0.350402 2.029961 0.087602
v 0.146414 1.940466 0.050045
v 0.157104 1.919110 0.052459
v 0.152587 1.919514 0.076031
v 0.146414 1.940466 0.050045
v 0.354410 2.021954 0.088507
v 0.350402 2.029961 0.087602
v 0.352717 2.022105 0.097345
v 0.146414 1.940466 0.050045
v 0.350402 2.029961 0.087602
v 0.356104 2.021803 0.079669
v 0.146414 1.940466 0.050045
v 0.356104 2.021803 0.079669
v 0.161622 1.918706 0.028887
v 0.157104 1.919110 0.052459
v 0.146414 1.940466 0.050045
v 0.161622 1.918706 0.028887
v 0.354410 2.021954 0.088507
v 0.356104 2.021803 0.079669
v 0.350402 2.029961 0.087602
v 0.161622 1.918706 0.028887
v 0.356104 2.021803 0.079669
v 0.358419 2.013947 0.089412
v 0.161622 1.918706 0.028887
v 0.358419 2.013947 0.089412
v 0.167795 1.897754 0.054874
v 0.157104 1.919110 0.052459
v 0.161622 1.918706 0.028887
v 0.167795 1.897754 0.054874
v 0.354410 2.021954 0.088507
v 0.358419 2.013947 0.089412
v 0.356104 2.021803 0.079669
v 0.167795 1.897754 0.054874
v 0.358419 2.013947 0.089412
v 0.352717 2.022105 0.097345
v 0.167795 1.897754 0.054874
v 0.352717 2.022105 0.097345
v 0.152587 1.919514 0.076031
v 0.157104 1.919110 0.052459
v 0.167795 1.897754 0.054874
v 0.152587 1.919514 0.076031
v 0.354410 2.021954 0.088507
v 0.352717 2.022105 0.097345
v 0.358419 2.013947 0.089412
v -0.064679 1.487689 -0.038698
v -0.164294 1.698253 0.368292
v -0.140148 1.717534 0.365856
v -0.064679 1.487689 -0.038698
v -0.140148 1.717534 0.365856
v -0.007189 1.533596 -0.044497
v -0.015129 1.487021 -0.022344
v -0.064679 1.487689 -0.038698
v -0.007189 1.533596 -0.044497
v -0.143483 1.697973 0.375161
v -0.140148 1.717534 0.365856
v -0.164294 1.698253 0.368292
v -0.007189 1.533596 -0.044497
v -0.140148 1.717534 0.365856
v -0.122672 1.697692 0.382030
v -0.007189 1.533596 -0.044497
v -0.122672 1.697692 0.382030
v 0.034421 1.486352 -0.005989
v -0.015129 1.487021 -0.022344
v -0.007189 1.533596 -0.044497
v 0.034421 1.486352 -0.005989
v -0.143483 1.697973 0.375161
v -0.122672 1.697692 0.382030
v -0.140148 1.717534 0.365856
v 0.034421 1.486352 -0.005989
v -0.122672 1.697692 0.382030
v -0.146818 1.678411 0.384465
v 0.034421 1.486352 -0.005989
v -0.146818 1.678411 0.384465
v -0.023069 1.440445 -0.000190
v -0.015129 1.487021 -0.022344
v 0.034421 1.486352 -0.005989
v -0.023069 1.440445 -0.000190
v -0.143483 1.697973 0.375161
v -0.146818 1.678411 0.384465
v -0.122672 1.697692 0.382030
v -0.023069 1.440445 -0.000190
v -0.146818 1.678411 0.384465
v -0.164294 1.698253 0.368292
v -0.023069 1.440445 -0.000190
v -0.164294 1.698253 0.368292
v -0.064679 1.487689 -0.038698
v -0.015129 1.487021 -0.022344
v -0.023069 1.440445 -0.000190
v -0.064679 1.487689 -0.038698
v -0.143483 1.697973 0.375161
v -0.164294 1.698253 0.368292
v -0.146818 1.678411 0.384465
v -0.110778 1.628682 0.222748
v -0.223455 1.689656 0.286474
v -0.216413 1.697841 0.293214
v -0.110778 1.628682 0.222748
v -0.216413 1.697841 0.293214
v -0.091996 1.650511 0.240724
v -0.101405 1.628816 0.244846
v -0.110778 1.628682 0.222748
v -0.091996 1.650511 0.240724
v -0.219941 1.689706 0.294759
v -0.216413 1.697841 0.293214
v -0.223455 1.689656 0.286474
v -0.091996 1.650511 0.240724
v -0.216413 1.697841 0.293214
v -0.216426 1.689756 0.303044
v -0.091996 1.650511 0.240724
v -0.216426 1.689756 0.303044
v -0.092031 1.628949 0.266944
v -0.101405 1.628816 0.244846
v -0.091996 1.650511 0.240724
v -0.092031 1.628949 0.266944
v -0.219941 1.689706 0.294759
v -0.216426 1.689756 0.303044
v -0.216413 1.697841 0.293214
v -0.092031 1.628949 0.266944
v -0.216426 1.689756 0.303044
v -0.223469 1.681572 0.296305
v -0.092031 1.628949 0.266944
v -0.223469 1.681572 0.296305
v -0.110814 1.607120 0.248968
v -0.101405 1.628816 0.244846
v -0.092031 1.628949 0.266944
v -0.110814 1.607120 0.248968
v -0.219941 1.689706 0.294759
v -0.223469 1.681572 0.296305
v -0.216426 1.689756 0.303044
v -0.110814 1.607120 0.248968
v -0.223469 1.681572 0.296305
v -0.223455 1.689656 0.286474
v -0.110814 1.607120 0.248968
v -0.223455 1.689656 0.286474
v -0.110778 1.628682 0.222748
v -0.101405 1.628816 0.244846
v -0.110814 1.607120 0.248968
v -0.110778 1.628682 0.222748
v -0.219941 1.689706 0.294759
v -0.223455 1.689656 0.286474
v -0.223469 1.681572 0.296305
v -0.132760 1.648147 0.293633
v -0.029455 1.727155 0.417333
v -0.024061 1.735015 0.408900
v -0.132760 1.648147 0.293633
v -0.024061 1.735015 0.408900
v -0.118373 1.669112 0.271140
v -0.112838 1.647606 0.280253
v -0.132760 1.648147 0.293633
v -0.118373 1.669112 0.271140
v -0.021985 1.726952 0.412317
v -0.024061 1.735015 0.408900
v -0.029455 1.727155 0.417333
v -0.118373 1.669112 0.271140
v -0.024061 1.735015 0.408900
v -0.014516 1.726748 0.407300
v -0.118373 1.669112 0.271140
v -0.014516 1.726748 0.407300
v -0.092915 1.647064 0.266873
v -0.112838 1.647606 0.280253
v -0.118373 1.669112 0.271140
v -0.092915 1.647064 0.266873
v -0.021985 1.726952 0.412317
v -0.014516 1.726748 0.407300
v -0.024061 1.735015 0.408900
v -0.092915 1.647064 0.266873
v -0.014516 1.726748 0.407300
v -0.019910 1.718888 0.415733
v -0.092915 1.647064 0.266873
v -0.019910 1.718888 0.415733
v -0.107302 1.626099 0.289366
v -0.112838 1.647606 0.280253
v -0.092915 1.647064 0.266873
v -0.107302 1.626099 0.289366
v -0.021985 1.726952 0.412317
v -0.019910 1.718888 0.415733
v -0.014516 1.726748 0.407300
v -0.107302 1.626099 0.289366
v -0.019910 1.718888 0.415733
v -0.029455 1.727155 0.417333
v -0.107302 1.626099 0.289366
v -0.029455 1.727155 0.417333
v -0.132760 1.648147 0.293633
v -0.112838 1.647606 0.280253
v -0.107302 1.626099 0.289366
v -0.132760 1.648147 0.293633
v -0.021985 1.726952 0.412317
v -0.029455 1.727155 0.417333
v -0.019910 1.718888 0.415733
v -0.099458 1.586675 0.165844
v -0.072671 1.689046 0.354276
v -0.063761 1.696791 0.349519
v -0.099458 1.586675 0.165844
v -0.063761 1.696791 0.349519
v -0.075693 1.607330 0.153156
v -0.075491 1.586226 0.164592
v -0.099458 1.586675 0.165844
v -0.075693 1.607330 0.153156
v -0.063685 1.688878 0.353807
v -0.063761 1.696791 0.349519
v -0.072671 1.689046 0.354276
v -0.075693 1.607330 0.153156
v -0.063761 1.696791 0.349519
v -0.054699 1.688710 0.353337
v -0.075693 1.607330 0.153156
v -0.054699 1.688710 0.353337
v -0.051523 1.585777 0.163340
v -0.075491 1.586226 0.164592
v -0.075693 1.607330 0.153156
v -0.051523 1.585777 0.163340
v -0.063685 1.688878 0.353807
v -0.054699 1.688710 0.353337
v -0.063761 1.696791 0.349519
v -0.051523 1.585777 0.163340
v -0.054699 1.688710 0.353337
v -0.063609 1.680966 0.358095
v -0.051523 1.585777 0.163340
v -0.063609 1.680966 0.358095
v -0.075288 1.565122 0.176029
v -0.075491 1.586226 0.164592
v -0.051523 1.585777 0.163340
v -0.075288 1.565122 0.176029
v -0.063685 1.688878 0.353807
v -0.063609 1.680966 0.358095
v -0.054699 1.688710 0.353337
v -0.075288 1.565122 0.176029
v -0.063609 1.680966 0.358095
v -0.072671 1.689046 0.354276
v -0.075288 1.565122 0.176029
v -0.072671 1.689046 0.354276
v -0.099458 1.586675 0.165844
v -0.075491 1.586226 0.164592
v -0.075288 1.565122 0.176029
v -0.099458 1.586675 0.165844
v -0.063685 1.688878 0.353807
v -0.072671 1.689046 0.354276
v -0.063609 1.680966 0.358095
v -0.002603 1.593958 -0.072666
v -0.466487 1.841969 -0.150032
v -0.461235 1.861733 -0.126740
v -0.002603 1.593958 -0.072666
v -0.461235 1.861733 -0.126740
v 0.009902 1.641016 -0.017209
v -0.014017 1.594860 -0.021754
v -0.002603 1.593958 -0.072666
v 0.009902 1.641016 -0.017209
v -0.471281 1.842348 -0.128649
v -0.461235 1.861733 -0.126740
v -0.466487 1.841969 -0.150032
v 0.009902 1.641016 -0.017209
v -0.461235 1.861733 -0.126740
v -0.476075 1.842727 -0.107266
v 0.009902 1.641016 -0.017209
v -0.476075 1.842727 -0.107266
v -0.025430 1.595762 0.029158
v -0.014017 1.594860 -0.021754
v 0.009902 1.641016 -0.017209
v -0.025430 1.595762 0.029158
v -0.471281 1.842348 -0.128649
v -0.476075 1.842727 -0.107266
v -0.461235 1.861733 -0.126740
v -0.025430 1.595762 0.029158
v -0.476075 1.842727 -0.107266
v -0.481327 1.822962 -0.130558
v -0.025430 1.595762 0.029158
v -0.481327 1.822962 -0.130558
v -0.037936 1.548705 -0.026298
v -0.014017 1.594860 -0.021754
v -0.025430 1.595762 0.029158
v -0.037936 1.548705 -0.026298
v -0.471281 1.842348 -0.128649
v -0.481327 1.822962 -0.130558
v -0.476075 1.842727 -0.107266
v -0.037936 1.548705 -0.026298
v -0.481327 1.822962 -0.130558
v -0.466487 1.841969 -0.150032
v -0.037936 1.548705 -0.026298
v -0.466487 1.841969 -0.150032
v -0.002603 1.593958 -0.072666
v -0.014017 1.594860 -0.021754
v -0.037936 1.548705 -0.026298
v -0.002603 1.593958 -0.072666
v -0.471281 1.842348 -0.128649
v -0.466487 1.841969 -0.150032
v -0.481327 1.822962 -0.130558
v -0.260691 1.732824 -0.103755
v -0.468985 1.856971 -0.175451
v -0.468250 1.864987 -0.165591
v -0.260691 1.732824 -0.103755
v -0.468250 1.864987 -0.165591
v -0.258730 1.754202 -0.077458
v -0.269786 1.733291 -0.081545
v -0.260691 1.732824 -0.103755
v -0.258730 1.754202 -0.077458
v -0.472395 1.857147 -0.167124
v -0.468250 1.864987 -0.165591
v -0.468985 1.856971 -0.175451
v -0.258730 1.754202 -0.077458
v -0.468250 1.864987 -0.165591
v -0.475805 1.857322 -0.158797
v -0.258730 1.754202 -0.077458
v -0.475805 1.857322 -0.158797
v -0.278881 1.733759 -0.059335
v -0.269786 1.733291 -0.081545
v -0.258730 1.754202 -0.077458
v -0.278881 1.733759 -0.059335
v -0.472395 1.857147 -0.167124
v -0.475805 1.857322 -0.158797
v -0.468250 1.864987 -0.165591
v -0.278881 1.733759 -0.059335
v -0.475805 1.857322 -0.158797
v -0.476540 1.849306 -0.168656
v -0.278881 1.733759 -0.059335
v -0.476540 1.849306 -0.168656
v -0.280842 1.712381 -0.085633
v -0.269786 1.733291 -0.081545
v -0.278881 1.733759 -0.059335
v -0.280842 1.712381 -0.085633
v -0.472395 1.857147 -0.167124
v -0.476540 1.849306 -0.168656
v -0.475805 1.857322 -0.158797
v -0.280842 1.712381 -0.085633
v -0.476540 1.849306 -0.168656
v -0.468985 1.856971 -0.175451
v -0.280842 1.712381 -0.085633
v -0.468985 1.856971 -0.175451
v -0.260691 1.732824 -0.103755
v -0.269786 1.733291 -0.081545
v -0.280842 1.712381 -0.085633
v -0.260691 1.732824 -0.103755
v -0.472395 1.857147 -0.167124
v -0.468985 1.856971 -0.175451
v -0.476540 1.849306 -0.168656
v -0.291308 1.754793 -0.105453
v -0.375386 1.807534 -0.194658
v -0.380306 1.816002 -0.186528
v -0.291308 1.754793 -0.105453
v -0.380306 1.816002 -0.186528
v -0.304428 1.777379 -0.083771
v -0.310515 1.755336 -0.091066
v -0.291308 1.754793 -0.105453
v -0.304428 1.777379 -0.083771
v -0.382588 1.807737 -0.189264
v -0.380306 1.816002 -0.186528
v -0.375386 1.807534 -0.194658
v -0.304428 1.777379 -0.083771
v -0.380306 1.816002 -0.186528
v -0.389789 1.807941 -0.183869
v -0.304428 1.777379 -0.083771
v -0.389789 1.807941 -0.183869
v -0.329723 1.755878 -0.076679
v -0.310515 1.755336 -0.091066
v -0.304428 1.777379 -0.083771
v -0.329723 1.755878 -0.076679
v -0.382588 1.807737 -0.189264
v -0.389789 1.807941 -0.183869
v -0.380306 1.816002 -0.186528
v -0.329723 1.755878 -0.076679
v -0.389789 1.807941 -0.183869
v -0.384870 1.799472 -0.191999
v -0.329723 1.755878 -0.076679
v -0.384870 1.799472 -0.191999
v -0.316603 1.733292 -0.098362
v -0.310515 1.755336 -0.091066
v -0.329723 1.755878 -0.076679
v -0.316603 1.733292 -0.098362
v -0.382588 1.807737 -0.189264
v -0.384870 1.799472 -0.191999
v -0.389789 1.807941 -0.183869
v -0.316603 1.733292 -0.098362
v -0.384870 1.799472 -0.191999
v -0.375386 1.807534 -0.194658
v -0.316603 1.733292 -0.098362
v -0.375386 1.807534 -0.194658
v -0.291308 1.754793 -0.105453
v -0.310515 1.755336 -0.091066
v -0.316603 1.733292 -0.098362
v -0.291308 1.754793 -0.105453
v -0.382588 1.807737 -0.189264
v -0.375386 1.807534 -0.194658
v -0.384870 1.799472 -0.191999
v -0.369009 1.777479 -0.116732
v -0.458952 1.854312 0.005021
v -0.449515 1.862291 0.008067
v -0.369009 1.777479 -0.116732
v -0.449515 1.862291 0.008067
v -0.343838 1.798758 -0.108607
v -0.351245 1.777380 -0.100588
v -0.369009 1.777479 -0.116732
v -0.343838 1.798758 -0.108607
v -0.452292 1.854275 0.011073
v -0.449515 1.862291 0.008067
v -0.458952 1.854312 0.005021
v -0.343838 1.798758 -0.108607
v -0.449515 1.862291 0.008067
v -0.445631 1.854238 0.017126
v -0.343838 1.798758 -0.108607
v -0.445631 1.854238 0.017126
v -0.333480 1.777281 -0.084444
v -0.351245 1.777380 -0.100588
v -0.343838 1.798758 -0.108607
v -0.333480 1.777281 -0.084444
v -0.452292 1.854275 0.011073
v -0.445631 1.854238 0.017126
v -0.449515 1.862291 0.008067
v -0.333480 1.777281 -0.084444
v -0.445631 1.854238 0.017126
v -0.455069 1.846260 0.014080
v -0.333480 1.777281 -0.084444
v -0.455069 1.846260 0.014080
v -0.358652 1.756001 -0.092568
v -0.351245 1.777380 -0.100588
v -0.333480 1.777281 -0.084444
v -0.358652 1.756001 -0.092568
v -0.452292 1.854275 0.011073
v -0.455069 1.846260 0.014080
v -0.445631 1.854238 0.017126
v -0.358652 1.756001 -0.092568
v -0.455069 1.846260 0.014080
v -0.458952 1.854312 0.005021
v -0.358652 1.756001 -0.092568
v -0.458952 1.854312 0.005021
v -0.369009 1.777479 -0.116732
v -0.351245 1.777380 -0.100588
v -0.358652 1.756001 -0.092568
v -0.369009 1.777479 -0.116732
v -0.452292 1.854275 0.011073
v -0.458952 1.854312 0.005021
v -0.455069 1.846260 0.014080
v 0.038879 1.701855 -0.014774
v 0.075087 1.812182 -0.540796
v 0.053135 1.833990 -0.538994
v 0.038879 1.701855 -0.014774
v 0.053135 1.833990 -0.538994
v -0.013389 1.753776 -0.010484
v -0.012904 1.702700 -0.021164
v 0.038879 1.701855 -0.014774
v -0.013389 1.753776 -0.010484
v 0.053338 1.812537 -0.543480
v 0.053135 1.833990 -0.538994
v 0.075087 1.812182 -0.540796
v -0.013389 1.753776 -0.010484
v 0.053135 1.833990 -0.538994
v 0.031589 1.812892 -0.546163
v -0.013389 1.753776 -0.010484
v 0.031589 1.812892 -0.546163
v -0.064688 1.703545 -0.027554
v -0.012904 1.702700 -0.021164
v -0.013389 1.753776 -0.010484
v -0.064688 1.703545 -0.027554
v 0.053338 1.812537 -0.543480
v 0.031589 1.812892 -0.546163
v 0.053135 1.833990 -0.538994
v -0.064688 1.703545 -0.027554
v 0.031589 1.812892 -0.546163
v 0.053541 1.791085 -0.547965
v -0.064688 1.703545 -0.027554
v 0.053541 1.791085 -0.547965
v -0.012420 1.651623 -0.031843
v -0.012904 1.702700 -0.021164
v -0.064688 1.703545 -0.027554
v -0.012420 1.651623 -0.031843
v 0.053338 1.812537 -0.543480
v 0.053541 1.791085 -0.547965
v 0.031589 1.812892 -0.546163
v -0.012420 1.651623 -0.031843
v 0.053541 1.791085 -0.547965
v 0.075087 1.812182 -0.540796
v -0.012420 1.651623 -0.031843
v 0.075087 1.812182 -0.540796
v 0.038879 1.701855 -0.014774
v -0.012904 1.702700 -0.021164
v -0.012420 1.651623 -0.031843
v 0.038879 1.701855 -0.014774
v 0.053338 1.812537 -0.543480
v 0.075087 1.812182 -0.540796
v 0.053541 1.791085 -0.547965
v 0.038852 1.751220 -0.263559
v -0.043145 1.845098 -0.427985
v -0.049735 1.853308 -0.420832
v 0.038852 1.751220 -0.263559
v -0.049735 1.853308 -0.420832
v 0.021277 1.773119 -0.244482
v 0.016674 1.751745 -0.254390
v 0.038852 1.751220 -0.263559
v 0.021277 1.773119 -0.244482
v -0.051461 1.845294 -0.424547
v -0.049735 1.853308 -0.420832
v -0.043145 1.845098 -0.427985
v 0.021277 1.773119 -0.244482
v -0.049735 1.853308 -0.420832
v -0.059776 1.845491 -0.421110
v 0.021277 1.773119 -0.244482
v -0.059776 1.845491 -0.421110
v -0.005504 1.752270 -0.245221
v 0.016674 1.751745 -0.254390
v 0.021277 1.773119 -0.244482
v -0.005504 1.752270 -0.245221
v -0.051461 1.845294 -0.424547
v -0.059776 1.845491 -0.421110
v -0.049735 1.853308 -0.420832
v -0.005504 1.752270 -0.245221
v -0.059776 1.845491 -0.421110
v -0.053186 1.837280 -0.428262
v -0.005504 1.752270 -0.245221
v -0.053186 1.837280 -0.428262
v 0.012072 1.730371 -0.264299
v 0.016674 1.751745 -0.254390
v -0.005504 1.752270 -0.245221
v 0.012072 1.730371 -0.264299
v -0.051461 1.845294 -0.424547
v -0.053186 1.837280 -0.428262
v -0.059776 1.845491 -0.421110
v 0.012072 1.730371 -0.264299
v -0.053186 1.837280 -0.428262
v -0.043145 1.845098 -0.427985
v 0.012072 1.730371 -0.264299
v -0.043145 1.845098 -0.427985
v 0.038852 1.751220 -0.263559
v 0.016674 1.751745 -0.254390
v 0.012072 1.730371 -0.264299
v 0.038852 1.751220 -0.263559
v -0.051461 1.845294 -0.424547
v -0.043145 1.845098 -0.427985
v -0.053186 1.837280 -0.428262
v 0.046317 1.761149 -0.297395
v 0.064763 1.873632 -0.512063
v 0.055375 1.881752 -0.509244
v 0.046317 1.761149 -0.297395
v 0.055375 1.881752 -0.509244
v 0.021279 1.782805 -0.289877
v 0.022575 1.761528 -0.300914
v 0.046317 1.761149 -0.297395
v 0.021279 1.782805 -0.289877
v 0.055861 1.873774 -0.513383
v 0.055375 1.881752 -0.509244
v 0.064763 1.873632 -0.512063
v 0.021279 1.782805 -0.289877
v 0.055375 1.881752 -0.509244
v 0.046959 1.873917 -0.514702
v 0.021279 1.782805 -0.289877
v 0.046959 1.873917 -0.514702
v -0.001167 1.761908 -0.304433
v 0.022575 1.761528 -0.300914
v 0.021279 1.782805 -0.289877
v -0.001167 1.761908 -0.304433
v 0.055861 1.873774 -0.513383
v 0.046959 1.873917 -0.514702
v 0.055375 1.881752 -0.509244
v -0.001167 1.761908 -0.304433
v 0.046959 1.873917 -0.514702
v 0.056347 1.865797 -0.517521
v -0.001167 1.761908 -0.304433
v 0.056347 1.865797 -0.517521
v 0.023871 1.740252 -0.311951
v 0.022575 1.761528 -0.300914
v -0.001167 1.761908 -0.304433
v 0.023871 1.740252 -0.311951
v 0.055861 1.873774 -0.513383
v 0.056347 1.865797 -0.517521
v 0.046959 1.873917 -0.514702
v 0.023871 1.740252 -0.311951
v 0.056347 1.865797 -0.517521
v 0.064763 1.873632 -0.512063
v 0.023871 1.740252 -0.311951
v 0.064763 1.873632 -0.512063
v 0.046317 1.761149 -0.297395
v 0.022575 1.761528 -0.300914
v 0.023871 1.740252 -0.311951
v 0.046317 1.761149 -0.297395
v 0.055861 1.873774 -0.513383
v 0.064763 1.873632 -0.512063
v 0.056347 1.865797 -0.517521
f 1 2 3
f 4 5 6
f 7 8 9
f 10 11 12
f 13 14 15
f 16 17 18
f 19 20 21
f 22 23 24
f 25 26 27
f 28 29 30
f 31 32 33
f 34 35 36
f 37 38 39
f 40 41 42
f 43 44 45
f 46 47 48
f 49 50 51
f 52 53 54
f 55 56 57
f 58 59 60
f 61 62 63
f 64 65 66
f 67 68 69
f 70 71 72
f 73 74 75
f 76 77 78
f 79 80 81
f 82 83 84
f 85 86 87
f 88 89 90
f 91 92 93
f 94 95 96
f 97 98 99
f 100 101 102
f 103 104 105
f 106 107 108
f 109 110 111
f 112 113 114
f 115 116 117
f 118 119 120
f 121 122 123
f 124 125 126
f 127 128 129
f 130 131 132
f 133 134 135
f 136 137 138
f 139 140 141
f 142 143 144
f 145 146 147
f 148 149 150
f 151 152 153
f 154 155 156
f 157 158 159
f 160 161 162
f 163 164 165
f 166 167 168
f 169 170 171
f 172 173 174
f 175 176 177
f 178 179 180
f 181 182 183
f 184 185 186
f 187 188 189
f 190 191 192
f 193 194 195
f 196 197 198
f 199 200 201
f 202 203 204
f 205 206 207
f 208 209 210
f 211 212 213
f 214 215 216
f 217 218 219
f 220 221 222
f 223 224 225
f 226 227 228
f 229 230 231
f 232 233 234
f 235 236 237
f 238 239 240
f 241 242 243
f 244 245 246
f 247 248 249
f 250 251 252
f 253 254 255
f 256 257 258
f 259 260 261
f 262 263 264
f 265 266 267
f 268 269 270
f 271 272 273
f 274 275 276
f 277 278 279
f 280 281 282
f 283 284 285
f 286 287 288
f 289 290 291
f 292 293 294
f 295 296 297
f 298 299 300
f 301 302 303
f 304 305 306
f 307 308 309
f 310 311 312
f 313 314 315
f 316 317 318
f 319 320 321
f 322 323 324
f 325 326 327
f 328 329 330
f 331 332 333
f 334 335 336
f 337 338 339
f 340 341 342
f 343 344 345
f 346 347 348
f 349 350 351
f 352 353 354
f 355 356 357
f 358 359 360
f 361 362 363
f 364 365 366
f 367 368 369
f 370 371 372
f 373 374 375
f 376 377 378
f 379 380 381
f 382 383 384
f 385 386 387
f 388 389 390
f 391 392 393
f 394 395 396
f 397 398 399
f 400 401 402
f 403 404 405
f 406 407 408
f 409 410 411
f 412 413 414
f 415 416 417
f 418 419 420
f 421 422 423
f 424 425 426
f 427 428 429
f 430 431 432
f 433 434 435
f 436 437 438
f 439 440 441
f 442 443 444
f 445 446 447
f 448 449 450
f 451 452 453
f 454 455 456
f 457 458 459
f 460 461 462
f 463 464 465
f 466 467 468
f 469 470 471
f 472 473 474
f 475 476 477
f 478 479 480
f 481 482 483
f 484 485 486
f 487 488 489
f 490 491 492
f 493 494 495
f 496 497 498
f 499 500 501
f 502 503 504
f 505 506 507
f 508 509 510
f 511 512 513
f 514 515 516
f 517 518 519
f 520 521 522
f 523 524 525
f 526 527 528
f 529 530 531
f 532 533 534
f 535 536 537
f 538 539 540
f 541 542 543
f 544 545 546
f 547 548 549
f 550 551 552
f 553 554 555
f 556 557 558
f 559 560 561
f 562 563 564
f 565 566 567
f 568 569 570
f 571 572 573
f 574 575 576
f 577 578 579
f 580 581 582
f 583 584 585
f 586 587 588
f 589 590 591
f 592 593 594
f 595 596 597
f 598 599 600
f 601 602 603
f 604 605 606
f 607 608 609
f 610 611 612
f 613 614 615
f 616 617 618
f 619 620 621
f 622 623 624
f 625 626 627
f 628 629 630
f 631 632 633
f 634 635 636
f 637 638 639
f 640 641 642
f 643 644 645
f 646 647 648
f 649 650 651
f 652 653 654
f 655 656 657
f 658 659 660
f 661 662 663
f 664 665 666
f 667 668 669
f 670 671 672
f 673 674 675
f 676 677 678
f 679 680 681
f 682 683 684
f 685 686 687
f 688 689 690
f 691 692 693
f 694 695 696
f 697 698 699
f 700 701 702
f 703 704 705
f 706 707 708
f 709 710 711
f 712 713 714
f 715 716 717
f 718 719 720
f 721 722 723
f 724 725 726
f 727 728 729
f 730 731 732
f 733 734 735
f 736 737 738
f 739 740 741
f 742 743 744
f 745 746 747
f 748 749 750
f 751 752 753
f 754 755 756
f 757 758 759
f 760 761 762
f 763 764 765
f 766 767 768
f 769 770 771
f 772 773 774
f 775 776 777
f 778 779 780
f 781 782 783
f 784 785 786
f 787 788 789
f 790 791 792
f 793 794 795
f 796 797 798
f 799 800 801
f 802 803 804
f 805 806 807
f 808 809 810
f 811 812 813
f 814 815 816
f 817 818 819
f 820 821 822
f 823 824 825
f 826 827 828
f 829 830 831
f 832 833 834
f 835 836 837
f 838 839 840
f 841 842 843
f 844 845 846
f 847 848 849
f 850 851 852
f 853 854 855
f 856 857 858
f 859 860 861
f 862 863 864
f 865 866 867
f 868 869 870
f 871 872 873
f 874 875 876
f 877 878 879
f 880 881 882
f 883 884 885
f 886 887 888
f 889 890 891
f 892 893 894
f 895 896 897
f 898 899 900
f 901 902 903
f 904 905 906
f 907 908 909
f 910 911 912
f 913 914 915
f 916 917 918
f 919 920 921
f 922 923 924

o TreeFoliage
v -0.013706 1.785335 -0.016593
v 0.203914 1.873727 -0.017802
v 0.140661 1.877149 0.149174
v -0.013706 1.785335 -0.016593
v 0.140661 1.877149 0.149174
v -0.013706 1.785335 -0.016593
v -0.013706 1.785335 -0.016593
v 0.140661 1.877149 0.149174
v -0.012044 1.880844 0.218306
v -0.013706 1.785335 -0.016593
v -0.012044 1.880844 0.218306
v -0.013706 1.785335 -0.016593
v -0.013706 1.785335 -0.016593
v -0.012044 1.880844 0.218306
v -0.164750 1.882647 0.149098
v -0.013706 1.785335 -0.016593
v -0.164750 1.882647 0.149098
v -0.013706 1.785335 -0.016593
v -0.013706 1.785335 -0.016593
v -0.164750 1.882647 0.149098
v -0.228002 1.881501 -0.017909
v -0.013706 1.785335 -0.016593
v -0.228002 1.881501 -0.017909
v -0.013706 1.785335 -0.016593
v -0.013706 1.785335 -0.016593
v -0.228002 1.881501 -0.017909
v -0.164750 1.878078 -0.184885
v -0.013706 1.785335 -0.016593
v -0.164750 1.878078 -0.184885
v -0.013706 1.785335 -0.016593
v -0.013706 1.785335 -0.016593
v -0.164750 1.878078 -0.184885
v -0.012044 1.874384 -0.254017
v -0.013706 1.785335 -0.016593
v -0.012044 1.874384 -0.254017
v -0.013706 1.785335 -0.016593
v -0.013706 1.785335 -0.016593
v -0.012044 1.874384 -0.254017
v 0.140661 1.872581 -0.184810
v -0.013706 1.785335 -0.016593
v 0.140661 1.872581 -0.184810
v -0.013706 1.785335 -0.016593
v -0.013706 1.785335 -0.016593
v 0.140661 1.872581 -0.184810
v 0.203914 1.873727 -0.017802
v -0.013706 1.785335 -0.016593
v 0.203914 1.873727 -0.017802
v -0.013706 1.785335 -0.016593
v 0.203914 1.873727 -0.017802
v 0.297377 2.094898 -0.020828
v 0.207924 2.099738 0.215312
v 0.203914 1.873727 -0.017802
v 0.207924 2.099738 0.215312
v 0.140661 1.877149 0.149174
v 0.140661 1.877149 0.149174
v 0.207924 2.099738 0.215312
v -0.008033 2.104964 0.313080
v 0.140661 1.877149 0.149174
v -0.008033 2.104964 0.313080
v -0.012044 1.880844 0.218306
v -0.012044 1.880844 0.218306
v -0.008033 2.104964 0.313080
v -0.223991 2.107513 0.215206
v -0.012044 1.880844 0.218306
v -0.223991 2.107513 0.215206
v -0.164750 1.882647 0.149098
v -0.164750 1.882647 0.149098
v -0.223991 2.107513 0.215206
v -0.313444 2.105893 -0.020978
v -0.164750 1.882647 0.149098
v -0.313444 2.105893 -0.020978
v -0.228002 1.881501 -0.017909
v -0.228002 1.881501 -0.017909
v -0.313444 2.105893 -0.020978
v -0.223991 2.101052 -0.257118
v -0.228002 1.881501 -0.017909
v -0.223991 2.101052 -0.257118
v -0.164750 1.878078 -0.184885
v -0.164750 1.878078 -0.184885
v -0.223991 2.101052 -0.257118
v -0.008033 2.095827 -0.354886
v -0.164750 1.878078 -0.184885
v -0.008033 2.095827 -0.354886
v -0.012044 1.874384 -0.254017
v -0.012044 1.874384 -0.254017
v -0.008033 2.095827 -0.354886
v 0.207924 2.093278 -0.257011
v -0.012044 1.874384 -0.254017
v 0.207924 2.093278 -0.257011
v 0.140661 1.872581 -0.184810
v 0.140661 1.872581 -0.184810
v 0.207924 2.093278 -0.257011
v 0.297377 2.094898 -0.020828
v 0.140661 1.872581 -0.184810
v 0.297377 2.094898 -0.020828
v 0.203914 1.873727 -0.017802
v 0.297377 2.094898 -0.020828
v 0.211935 2.319289 -0.023897
v 0.148683 2.322712 0.143079
v 0.297377 2.094898 -0.020828
v 0.148683 2.322712 0.143079
v 0.207924 2.099738 0.215312
v 0.207924 2.099738 0.215312
v 0.148683 2.322712 0.143079
v -0.004023 2.326407 0.212212
v 0.207924 2.099738 0.215312
v -0.004023 2.326407 0.212212
v -0.008033 2.104964 0.313080
v -0.008033 2.104964 0.313080
v -0.004023 2.326407 0.212212
v -0.156728 2.328209 0.143004
v -0.008033 2.104964 0.313080
v -0.156728 2.328209 0.143004
v -0.223991 2.107513 0.215206
v -0.223991 2.107513 0.215206
v -0.156728 2.328209 0.143004
v -0.219981 2.327064 -0.024003
v -0.223991 2.107513 0.215206
v -0.219981 2.327064 -0.024003
v -0.313444 2.105893 -0.020978
v -0.313444 2.105893 -0.020978
v -0.219981 2.327064 -0.024003
v -0.156728 2.323641 -0.190979
v -0.313444 2.105893 -0.020978
v -0.156728 2.323641 -0.190979
v -0.223991 2.101052 -0.257118
v -0.223991 2.101052 -0.257118
v -0.156728 2.323641 -0.190979
v -0.004023 2.319946 -0.260112
v -0.223991 2.101052 -0.257118
v -0.004023 2.319946 -0.260112
v -0.008033 2.095827 -0.354886
v -0.008033 2.095827 -0.354886
v -0.004023 2.319946 -0.260112
v 0.148683 2.318144 -0.190904
v -0.008033 2.095827 -0.354886
v 0.148683 2.318144 -0.190904
v 0.207924 2.093278 -0.257011
v 0.207924 2.093278 -0.257011
v 0.148683 2.318144 -0.190904
v 0.211935 2.319289 -0.023897
v 0.207924 2.093278 -0.257011
v 0.211935 2.319289 -0.023897
v 0.297377 2.094898 -0.020828
v 0.211935 2.319289 -0.023897
v -0.002361 2.415456 -0.025212
v -0.002361 2.415456 -0.025212
v 0.211935 2.319289 -0.023897
v -0.002361 2.415456 -0.025212
v 0.148683 2.322712 0.143079
v 0.148683 2.322712 0.143079
v -0.002361 2.415456 -0.025212
v -0.002361 2.415456 -0.025212
v 0.148683 2.322712 0.143079
v -0.002361 2.415456 -0.025212
v -0.004023 2.326407 0.212212
v -0.004023 2.326407 0.212212
v -0.002361 2.415456 -0.025212
v -0.002361 2.415456 -0.025212
v -0.004023 2.326407 0.212212
v -0.002361 2.415456 -0.025212
v -0.156728 2.328209 0.143004
v -0.156728 2.328209 0.143004
v -0.002361 2.415456 -0.025212
v -0.002361 2.415456 -0.025212
v -0.156728 2.328209 0.143004
v -0.002361 2.415456 -0.025212
v -0.219981 2.327064 -0.024003
v -0.219981 2.327064 -0.024003
v -0.002361 2.415456 -0.025212
v -0.002361 2.415456 -0.025212
v -0.219981 2.327064 -0.024003
v -0.002361 2.415456 -0.025212
v -0.156728 2.323641 -0.190979
v -0.156728 2.323641 -0.190979
v -0.002361 2.415456 -0.025212
v -0.002361 2.415456 -0.025212
v -0.156728 2.323641 -0.190979
v -0.002361 2.415456 -0.025212
v -0.004023 2.319946 -0.260112
v -0.004023 2.319946 -0.260112
v -0.002361 2.415456 -0.025212
v -0.002361 2.415456 -0.025212
v -0.004023 2.319946 -0.260112
v -0.002361 2.415456 -0.025212
v 0.148683 2.318144 -0.190904
v 0.148683 2.318144 -0.190904
v -0.002361 2.415456 -0.025212
v -0.002361 2.415456 -0.025212
v 0.148683 2.318144 -0.190904
v -0.002361 2.415456 -0.025212
v 0.211935 2.319289 -0.023897
v -0.183667 1.707200 0.170589
v 0.053974 1.802784 0.169282
v -0.015103 1.806102 0.320985
v -0.183667 1.707200 0.170589
v -0.015103 1.806102 0.320985
v -0.183667 1.707200 0.170589
v -0.183667 1.707200 0.170589
v -0.015103 1.806102 0.320985
v -0.181870 1.809964 0.383789
v -0.183667 1.707200 0.170589
v -0.181870 1.809964 0.383789
v -0.183667 1.707200 0.170589
v -0.183667 1.707200 0.170589
v -0.181870 1.809964 0.383789
v -0.348637 1.812106 0.320903
v -0.183667 1.707200 0.170589
v -0.348637 1.812106 0.320903
v -0.183667 1.707200 0.170589
v -0.183667 1.707200 0.170589
v -0.348637 1.812106 0.320903
v -0.417714 1.811274 0.169166
v -0.183667 1.707200 0.170589
v -0.417714 1.811274 0.169166
v -0.183667 1.707200 0.170589
v -0.183667 1.707200 0.170589
v -0.417714 1.811274 0.169166
v -0.348637 1.807955 0.017462
v -0.183667 1.707200 0.170589
v -0.348637 1.807955 0.017462
v -0.183667 1.707200 0.170589
v -0.183667 1.707200 0.170589
v -0.348637 1.807955 0.017462
v -0.181870 1.804094 -0.045341
v -0.183667 1.707200 0.170589
v -0.181870 1.804094 -0.045341
v -0.183667 1.707200 0.170589
v -0.183667 1.707200 0.170589
v -0.181870 1.804094 -0.045341
v -0.015103 1.801952 0.017545
v -0.183667 1.707200 0.170589
v -0.015103 1.801952 0.017545
v -0.183667 1.707200 0.170589
v -0.183667 1.707200 0.170589
v -0.015103 1.801952 0.017545
v 0.053974 1.802784 0.169282
v -0.183667 1.707200 0.170589
v 0.053974 1.802784 0.169282
v -0.183667 1.707200 0.170589
v 0.053974 1.802784 0.169282
v 0.156003 2.042034 0.166009
v 0.058313 2.046727 0.380550
v 0.053974 1.802784 0.169282
v 0.058313 2.046727 0.380550
v -0.015103 1.806102 0.320985
v -0.015103 1.806102 0.320985
v 0.058313 2.046727 0.380550
v -0.177531 2.052188 0.469368
v -0.015103 1.806102 0.320985
v -0.177531 2.052188 0.469368
v -0.181870 1.809964 0.383789
v -0.181870 1.809964 0.383789
v -0.177531 2.052188 0.469368
v -0.413375 2.055217 0.380434
v -0.181870 1.809964 0.383789
v -0.413375 2.055217 0.380434
v -0.348637 1.812106 0.320903
v -0.348637 1.812106 0.320903
v -0.413375 2.055217 0.380434
v -0.511065 2.054041 0.165845
v -0.348637 1.812106 0.320903
v -0.511065 2.054041 0.165845
v -0.417714 1.811274 0.169166
v -0.417714 1.811274 0.169166
v -0.511065 2.054041 0.165845
v -0.413375 2.049348 -0.048696
v -0.417714 1.811274 0.169166
v -0.413375 2.049348 -0.048696
v -0.348637 1.807955 0.017462
v -0.348637 1.807955 0.017462
v -0.413375 2.049348 -0.048696
v -0.177531 2.043887 -0.137513
v -0.348637 1.807955 0.017462
v -0.177531 2.043887 -0.137513
v -0.181870 1.804094 -0.045341
v -0.181870 1.804094 -0.045341
v -0.177531 2.043887 -0.137513
v 0.058313 2.040857 -0.048580
v -0.181870 1.804094 -0.045341
v 0.058313 2.040857 -0.048580
v -0.015103 1.801952 0.017545
v -0.015103 1.801952 0.017545
v 0.058313 2.040857 -0.048580
v 0.156003 2.042034 0.166009
v -0.015103 1.801952 0.017545
v 0.156003 2.042034 0.166009
v 0.053974 1.802784 0.169282
v 0.156003 2.042034 0.166009
v 0.062652 2.284801 0.162689
v -0.006425 2.288120 0.314392
v 0.156003 2.042034 0.166009
v -0.006425 2.288120 0.314392
v 0.058313 2.046727 0.380550
v 0.058313 2.046727 0.380550
v -0.006425 2.288120 0.314392
v -0.173192 2.291981 0.377196
v 0.058313 2.046727 0.380550
v -0.173192 2.291981 0.377196
v -0.177531 2.052188 0.469368
v -0.177531 2.052188 0.469368
v -0.173192 2.291981 0.377196
v -0.339959 2.294123 0.314310
v -0.177531 2.052188 0.469368
v -0.339959 2.294123 0.314310
v -0.413375 2.055217 0.380434
v -0.413375 2.055217 0.380434
v -0.339959 2.294123 0.314310
v -0.409036 2.293291 0.162573
v -0.413375 2.055217 0.380434
v -0.409036 2.293291 0.162573
v -0.511065 2.054041 0.165845
v -0.511065 2.054041 0.165845
v -0.409036 2.293291 0.162573
v -0.339959 2.289973 0.010869
v -0.511065 2.054041 0.165845
v -0.339959 2.289973 0.010869
v -0.413375 2.049348 -0.048696
v -0.413375 2.049348 -0.048696
v -0.339959 2.289973 0.010869
v -0.173192 2.286111 -0.051934
v -0.413375 2.049348 -0.048696
v -0.173192 2.286111 -0.051934
v -0.177531 2.043887 -0.137513
v -0.177531 2.043887 -0.137513
v -0.173192 2.286111 -0.051934
v -0.006425 2.283969 0.010951
v -0.177531 2.043887 -0.137513
v -0.006425 2.283969 0.010951
v 0.058313 2.040857 -0.048580
v 0.058313 2.040857 -0.048580
v -0.006425 2.283969 0.010951
v 0.062652 2.284801 0.162689
v 0.058313 2.040857 -0.048580
v 0.062652 2.284801 0.162689
v 0.156003 2.042034 0.166009
v 0.062652 2.284801 0.162689
v -0.171395 2.388875 0.161265
v -0.171395 2.388875 0.161265
v 0.062652 2.284801 0.162689
v -0.171395 2.388875 0.161265
v -0.006425 2.288120 0.314392
v -0.006425 2.288120 0.314392
v -0.171395 2.388875 0.161265
v -0.171395 2.388875 0.161265
v -0.006425 2.288120 0.314392
v -0.171395 2.388875 0.161265
v -0.173192 2.291981 0.377196
v -0.173192 2.291981 0.377196
v -0.171395 2.388875 0.161265
v -0.171395 2.388875 0.161265
v -0.173192 2.291981 0.377196
v -0.171395 2.388875 0.161265
v -0.339959 2.294123 0.314310
v -0.339959 2.294123 0.314310
v -0.171395 2.388875 0.161265
v -0.171395 2.388875 0.161265
v -0.339959 2.294123 0.314310
v -0.171395 2.388875 0.161265
v -0.409036 2.293291 0.162573
v -0.409036 2.293291 0.162573
v -0.171395 2.388875 0.161265
v -0.171395 2.388875 0.161265
v -0.409036 2.293291 0.162573
v -0.171395 2.388875 0.161265
v -0.339959 2.289973 0.010869
v -0.339959 2.289973 0.010869
v -0.171395 2.388875 0.161265
v -0.171395 2.388875 0.161265
v -0.339959 2.289973 0.010869
v -0.171395 2.388875 0.161265
v -0.173192 2.286111 -0.051934
v -0.173192 2.286111 -0.051934
v -0.171395 2.388875 0.161265
v -0.171395 2.388875 0.161265
v -0.173192 2.286111 -0.051934
v -0.171395 2.388875 0.161265
v -0.006425 2.283969 0.010951
v -0.006425 2.283969 0.010951
v -0.171395 2.388875 0.161265
v -0.171395 2.388875 0.161265
v -0.006425 2.283969 0.010951
v -0.171395 2.388875 0.161265
v 0.062652 2.284801 0.162689
v -0.255515 1.858041 -0.197769
v -0.083279 1.930131 -0.198755
v -0.133329 1.932629 -0.082039
v -0.255515 1.858041 -0.197769
v -0.133329 1.932629 -0.082039
v -0.255515 1.858041 -0.197769
v -0.255515 1.858041 -0.197769
v -0.133329 1.932629 -0.082039
v -0.254161 1.935465 -0.033719
v -0.255515 1.858041 -0.197769
v -0.254161 1.935465 -0.033719
v -0.255515 1.858041 -0.197769
v -0.255515 1.858041 -0.197769
v -0.254161 1.935465 -0.033719
v -0.374994 1.936979 -0.082099
v -0.255515 1.858041 -0.197769
v -0.374994 1.936979 -0.082099
v -0.255515 1.858041 -0.197769
v -0.255515 1.858041 -0.197769
v -0.374994 1.936979 -0.082099
v -0.425044 1.936283 -0.198839
v -0.255515 1.858041 -0.197769
v -0.425044 1.936283 -0.198839
v -0.255515 1.858041 -0.197769
v -0.255515 1.858041 -0.197769
v -0.425044 1.936283 -0.198839
v -0.374994 1.933785 -0.315555
v -0.255515 1.858041 -0.197769
v -0.374994 1.933785 -0.315555
v -0.255515 1.858041 -0.197769
v -0.255515 1.858041 -0.197769
v -0.374994 1.933785 -0.315555
v -0.254161 1.930949 -0.363876
v -0.255515 1.858041 -0.197769
v -0.254161 1.930949 -0.363876
v -0.255515 1.858041 -0.197769
v -0.255515 1.858041 -0.197769
v -0.254161 1.930949 -0.363876
v -0.133329 1.929435 -0.315496
v -0.255515 1.858041 -0.197769
v -0.133329 1.929435 -0.315496
v -0.255515 1.858041 -0.197769
v -0.255515 1.858041 -0.197769
v -0.133329 1.929435 -0.315496
v -0.083279 1.930131 -0.198755
v -0.255515 1.858041 -0.197769
v -0.083279 1.930131 -0.198755
v -0.255515 1.858041 -0.197769
v -0.083279 1.930131 -0.198755
v -0.009230 2.110324 -0.201220
v -0.080012 2.113856 -0.036159
v -0.083279 1.930131 -0.198755
v -0.080012 2.113856 -0.036159
v -0.133329 1.932629 -0.082039
v -0.133329 1.932629 -0.082039
v -0.080012 2.113856 -0.036159
v -0.250894 2.117867 0.032177
v -0.133329 1.932629 -0.082039
v -0.250894 2.117867 0.032177
v -0.254161 1.935465 -0.033719
v -0.254161 1.935465 -0.033719
v -0.250894 2.117867 0.032177
v -0.421777 2.120007 -0.036243
v -0.254161 1.935465 -0.033719
v -0.421777 2.120007 -0.036243
v -0.374994 1.936979 -0.082099
v -0.374994 1.936979 -0.082099
v -0.421777 2.120007 -0.036243
v -0.492559 2.119024 -0.201339
v -0.374994 1.936979 -0.082099
v -0.492559 2.119024 -0.201339
v -0.425044 1.936283 -0.198839
v -0.425044 1.936283 -0.198839
v -0.492559 2.119024 -0.201339
v -0.421777 2.115491 -0.366400
v -0.425044 1.936283 -0.198839
v -0.421777 2.115491 -0.366400
v -0.374994 1.933785 -0.315555
v -0.374994 1.933785 -0.315555
v -0.421777 2.115491 -0.366400
v -0.250894 2.111480 -0.434736
v -0.374994 1.933785 -0.315555
v -0.250894 2.111480 -0.434736
v -0.254161 1.930949 -0.363876
v -0.254161 1.930949 -0.363876
v -0.250894 2.111480 -0.434736
v -0.080012 2.109340 -0.366316
v -0.254161 1.930949 -0.363876
v -0.080012 2.109340 -0.366316
v -0.133329 1.929435 -0.315496
v -0.133329 1.929435 -0.315496
v -0.080012 2.109340 -0.366316
v -0.009230 2.110324 -0.201220
v -0.133329 1.929435 -0.315496
v -0.009230 2.110324 -0.201220
v -0.083279 1.930131 -0.198755
v -0.009230 2.110324 -0.201220
v -0.076745 2.293064 -0.203719
v -0.126795 2.295562 -0.087004
v -0.009230 2.110324 -0.201220
v -0.126795 2.295562 -0.087004
v -0.080012 2.113856 -0.036159
v -0.080012 2.113856 -0.036159
v -0.126795 2.295562 -0.087004
v -0.247627 2.298398 -0.038683
v -0.080012 2.113856 -0.036159
v -0.247627 2.298398 -0.038683
v -0.250894 2.117867 0.032177
v -0.250894 2.117867 0.032177
v -0.247627 2.298398 -0.038683
v -0.368460 2.299912 -0.087063
v -0.250894 2.117867 0.032177
v -0.368460 2.299912 -0.087063
v -0.421777 2.120007 -0.036243
v -0.421777 2.120007 -0.036243
v -0.368460 2.299912 -0.087063
v -0.418510 2.299216 -0.203804
v -0.421777 2.120007 -0.036243
v -0.418510 2.299216 -0.203804
v -0.492559 2.119024 -0.201339
v -0.492559 2.119024 -0.201339
v -0.418510 2.299216 -0.203804
v -0.368460 2.296719 -0.320519
v -0.492559 2.119024 -0.201339
v -0.368460 2.296719 -0.320519
v -0.421777 2.115491 -0.366400
v -0.421777 2.115491 -0.366400
v -0.368460 2.296719 -0.320519
v -0.247627 2.293882 -0.368840
v -0.421777 2.115491 -0.366400
v -0.247627 2.293882 -0.368840
v -0.250894 2.111480 -0.434736
v -0.250894 2.111480 -0.434736
v -0.247627 2.293882 -0.368840
v -0.126795 2.292369 -0.320460
v -0.250894 2.111480 -0.434736
v -0.126795 2.292369 -0.320460
v -0.080012 2.109340 -0.366316
v -0.080012 2.109340 -0.366316
v -0.126795 2.292369 -0.320460
v -0.076745 2.293064 -0.203719
v -0.080012 2.109340 -0.366316
v -0.076745 2.293064 -0.203719
v -0.009230 2.110324 -0.201220
v -0.076745 2.293064 -0.203719
v -0.246274 2.371306 -0.204790
v -0.246274 2.371306 -0.204790
v -0.076745 2.293064 -0.203719
v -0.246274 2.371306 -0.204790
v -0.126795 2.295562 -0.087004
v -0.126795 2.295562 -0.087004
v -0.246274 2.371306 -0.204790
v -0.246274 2.371306 -0.204790
v -0.126795 2.295562 -0.087004
v -0.246274 2.371306 -0.204790
v -0.247627 2.298398 -0.038683
v -0.247627 2.298398 -0.038683
v -0.246274 2.371306 -0.204790
v -0.246274 2.371306 -0.204790
v -0.247627 2.298398 -0.038683
v -0.246274 2.371306 -0.204790
v -0.368460 2.299912 -0.087063
v -0.368460 2.299912 -0.087063
v -0.246274 2.371306 -0.204790
v -0.246274 2.371306 -0.204790
v -0.368460 2.299912 -0.087063
v -0.246274 2.371306 -0.204790
v -0.418510 2.299216 -0.203804
v -0.418510 2.299216 -0.203804
v -0.246274 2.371306 -0.204790
v -0.246274 2.371306 -0.204790
v -0.418510 2.299216 -0.203804
v -0.246274 2.371306 -0.204790
v -0.368460 2.296719 -0.320519
v -0.368460 2.296719 -0.320519
v -0.246274 2.371306 -0.204790
v -0.246274 2.371306 -0.204790
v -0.368460 2.296719 -0.320519
v -0.246274 2.371306 -0.204790
v -0.247627 2.293882 -0.368840
v -0.247627 2.293882 -0.368840
v -0.246274 2.371306 -0.204790
v -0.246274 2.371306 -0.204790
v -0.247627 2.293882 -0.368840
v -0.246274 2.371306 -0.204790
v -0.126795 2.292369 -0.320460
v -0.126795 2.292369 -0.320460
v -0.246274 2.371306 -0.204790
v -0.246274 2.371306 -0.204790
v -0.126795 2.292369 -0.320460
v -0.246274 2.371306 -0.204790
v -0.076745 2.293064 -0.203719
v 0.164949 1.593270 -0.317819
v 0.357207 1.672552 -0.318904
v 0.301332 1.675444 -0.181016
v 0.164949 1.593270 -0.317819
v 0.301332 1.675444 -0.181016
v 0.164949 1.593270 -0.317819
v 0.164949 1.593270 -0.317819
v 0.301332 1.675444 -0.181016
v 0.166438 1.678654 -0.123929
v 0.164949 1.593270 -0.317819
v 0.166438 1.678654 -0.123929
v 0.164949 1.593270 -0.317819
v 0.164949 1.593270 -0.317819
v 0.166438 1.678654 -0.123929
v 0.031544 1.680300 -0.181083
v 0.164949 1.593270 -0.317819
v 0.031544 1.680300 -0.181083
v 0.164949 1.593270 -0.317819
v 0.164949 1.593270 -0.317819
v 0.031544 1.680300 -0.181083
v -0.024331 1.679420 -0.318998
v 0.164949 1.593270 -0.317819
v -0.024331 1.679420 -0.318998
v 0.164949 1.593270 -0.317819
v 0.164949 1.593270 -0.317819
v -0.024331 1.679420 -0.318998
v 0.031544 1.676528 -0.456885
v 0.164949 1.593270 -0.317819
v 0.031544 1.676528 -0.456885
v 0.164949 1.593270 -0.317819
v 0.164949 1.593270 -0.317819
v 0.031544 1.676528 -0.456885
v 0.166438 1.673319 -0.513973
v 0.164949 1.593270 -0.317819
v 0.166438 1.673319 -0.513973
v 0.164949 1.593270 -0.317819
v 0.164949 1.593270 -0.317819
v 0.166438 1.673319 -0.513973
v 0.301332 1.671672 -0.456819
v 0.164949 1.593270 -0.317819
v 0.301332 1.671672 -0.456819
v 0.164949 1.593270 -0.317819
v 0.164949 1.593270 -0.317819
v 0.301332 1.671672 -0.456819
v 0.357207 1.672552 -0.318904
v 0.164949 1.593270 -0.317819
v 0.357207 1.672552 -0.318904
v 0.164949 1.593270 -0.317819
v 0.357207 1.672552 -0.318904
v 0.439822 1.870824 -0.321616
v 0.360803 1.874914 -0.126613
v 0.357207 1.672552 -0.318904
v 0.360803 1.874914 -0.126613
v 0.301332 1.675444 -0.181016
v 0.301332 1.675444 -0.181016
v 0.360803 1.874914 -0.126613
v 0.170033 1.879452 -0.045879
v 0.301332 1.675444 -0.181016
v 0.170033 1.879452 -0.045879
v 0.166438 1.678654 -0.123929
v 0.166438 1.678654 -0.123929
v 0.170033 1.879452 -0.045879
v -0.020736 1.881781 -0.126707
v 0.166438 1.678654 -0.123929
v -0.020736 1.881781 -0.126707
v 0.031544 1.680300 -0.181083
v 0.031544 1.680300 -0.181083
v -0.020736 1.881781 -0.126707
v -0.099755 1.880536 -0.321749
v 0.031544 1.680300 -0.181083
v -0.099755 1.880536 -0.321749
v -0.024331 1.679420 -0.318998
v -0.024331 1.679420 -0.318998
v -0.099755 1.880536 -0.321749
v -0.020736 1.876446 -0.516751
v -0.024331 1.679420 -0.318998
v -0.020736 1.876446 -0.516751
v 0.031544 1.676528 -0.456885
v 0.031544 1.676528 -0.456885
v -0.020736 1.876446 -0.516751
v 0.170033 1.871907 -0.597485
v 0.031544 1.676528 -0.456885
v 0.170033 1.871907 -0.597485
v 0.166438 1.673319 -0.513973
v 0.166438 1.673319 -0.513973
v 0.170033 1.871907 -0.597485
v 0.360803 1.869579 -0.516657
v 0.166438 1.673319 -0.513973
v 0.360803 1.869579 -0.516657
v 0.301332 1.671672 -0.456819
v 0.301332 1.671672 -0.456819
v 0.360803 1.869579 -0.516657
v 0.439822 1.870824 -0.321616
v 0.301332 1.671672 -0.456819
v 0.439822 1.870824 -0.321616
v 0.357207 1.672552 -0.318904
v 0.439822 1.870824 -0.321616
v 0.364398 2.071940 -0.324367
v 0.308523 2.074832 -0.186479
v 0.439822 1.870824 -0.321616
v 0.308523 2.074832 -0.186479
v 0.360803 1.874914 -0.126613
v 0.360803 1.874914 -0.126613
v 0.308523 2.074832 -0.186479
v 0.173629 2.078042 -0.129392
v 0.360803 1.874914 -0.126613
v 0.173629 2.078042 -0.129392
v 0.170033 1.879452 -0.045879
v 0.170033 1.879452 -0.045879
v 0.173629 2.078042 -0.129392
v 0.038734 2.079688 -0.186545
v 0.170033 1.879452 -0.045879
v 0.038734 2.079688 -0.186545
v -0.020736 1.881781 -0.126707
v -0.020736 1.881781 -0.126707
v 0.038734 2.079688 -0.186545
v -0.017141 2.078808 -0.324461
v -0.020736 1.881781 -0.126707
v -0.017141 2.078808 -0.324461
v -0.099755 1.880536 -0.321749
v -0.099755 1.880536 -0.321749
v -0.017141 2.078808 -0.324461
v 0.038734 2.075916 -0.462348
v -0.099755 1.880536 -0.321749
v 0.038734 2.075916 -0.462348
v -0.020736 1.876446 -0.516751
v -0.020736 1.876446 -0.516751
v 0.038734 2.075916 -0.462348
v 0.173629 2.072706 -0.519436
v -0.020736 1.876446 -0.516751
v 0.173629 2.072706 -0.519436
v 0.170033 1.871907 -0.597485
v 0.170033 1.871907 -0.597485
v 0.173629 2.072706 -0.519436
v 0.308523 2.071060 -0.462282
v 0.170033 1.871907 -0.597485
v 0.308523 2.071060 -0.462282
v 0.360803 1.869579 -0.516657
v 0.360803 1.869579 -0.516657
v 0.308523 2.071060 -0.462282
v 0.364398 2.071940 -0.324367
v 0.360803 1.869579 -0.516657
v 0.364398 2.071940 -0.324367
v 0.439822 1.870824 -0.321616
v 0.364398 2.071940 -0.324367
v 0.175118 2.158090 -0.325545
v 0.175118 2.158090 -0.325545
v 0.364398 2.071940 -0.324367
v 0.175118 2.158090 -0.325545
v 0.308523 2.074832 -0.186479
v 0.308523 2.074832 -0.186479
v 0.175118 2.158090 -0.325545
v 0.175118 2.158090 -0.325545
v 0.308523 2.074832 -0.186479
v 0.175118 2.158090 -0.325545
v 0.173629 2.078042 -0.129392
v 0.173629 2.078042 -0.129392
v 0.175118 2.158090 -0.325545
v 0.175118 2.158090 -0.325545
v 0.173629 2.078042 -0.129392
v 0.175118 2.158090 -0.325545
v 0.038734 2.079688 -0.186545
v 0.038734 2.079688 -0.186545
v 0.175118 2.158090 -0.325545
v 0.175118 2.158090 -0.325545
v 0.038734 2.079688 -0.186545
v 0.175118 2.158090 -0.325545
v -0.017141 2.078808 -0.324461
v -0.017141 2.078808 -0.324461
v 0.175118 2.158090 -0.325545
v 0.175118 2.158090 -0.325545
v -0.017141 2.078808 -0.324461
v 0.175118 2.158090 -0.325545
v 0.038734 2.075916 -0.462348
v 0.038734 2.075916 -0.462348
v 0.175118 2.158090 -0.325545
v 0.175118 2.158090 -0.325545
v 0.038734 2.075916 -0.462348
v 0.175118 2.158090 -0.325545
v 0.173629 2.072706 -0.519436
v 0.173629 2.072706 -0.519436
v 0.175118 2.158090 -0.325545
v 0.175118 2.158090 -0.325545
v 0.173629 2.072706 -0.519436
v 0.175118 2.158090 -0.325545
v 0.308523 2.071060 -0.462282
v 0.308523 2.071060 -0.462282
v 0.175118 2.158090 -0.325545
v 0.175118 2.158090 -0.325545
v 0.308523 2.071060 -0.462282
v 0.175118 2.158090 -0.325545
v 0.364398 2.071940 -0.324367
v 0.151686 1.643288 0.064642
v 0.363967 1.729762 0.063459
v 0.302267 1.733070 0.224101
v 0.151686 1.643288 0.064642
v 0.302267 1.733070 0.224101
v 0.151686 1.643288 0.064642
v 0.151686 1.643288 0.064642
v 0.302267 1.733070 0.224101
v 0.153311 1.736661 0.290611
v 0.151686 1.643288 0.064642
v 0.153311 1.736661 0.290611
v 0.151686 1.643288 0.064642
v 0.151686 1.643288 0.064642
v 0.153311 1.736661 0.290611
v 0.004355 1.738432 0.224028
v 0.151686 1.643288 0.064642
v 0.004355 1.738432 0.224028
v 0.151686 1.643288 0.064642
v 0.151686 1.643288 0.064642
v 0.004355 1.738432 0.224028
v -0.057344 1.737345 0.063356
v 0.151686 1.643288 0.064642
v -0.057344 1.737345 0.063356
v 0.151686 1.643288 0.064642
v 0.151686 1.643288 0.064642
v -0.057344 1.737345 0.063356
v 0.004355 1.734037 -0.097286
v 0.151686 1.643288 0.064642
v 0.004355 1.734037 -0.097286
v 0.151686 1.643288 0.064642
v 0.151686 1.643288 0.064642
v 0.004355 1.734037 -0.097286
v 0.153311 1.730446 -0.163796
v 0.151686 1.643288 0.064642
v 0.153311 1.730446 -0.163796
v 0.151686 1.643288 0.064642
v 0.151686 1.643288 0.064642
v 0.153311 1.730446 -0.163796
v 0.302267 1.728675 -0.097213
v 0.151686 1.643288 0.064642
v 0.302267 1.728675 -0.097213
v 0.151686 1.643288 0.064642
v 0.151686 1.643288 0.064642
v 0.302267 1.728675 -0.097213
v 0.363967 1.729762 0.063459
v 0.151686 1.643288 0.064642
v 0.363967 1.729762 0.063459
v 0.151686 1.643288 0.064642
v 0.363967 1.729762 0.063459
v 0.455146 1.946113 0.060500
v 0.367890 1.950791 0.287682
v 0.363967 1.729762 0.063459
v 0.367890 1.950791 0.287682
v 0.302267 1.733070 0.224101
v 0.302267 1.733070 0.224101
v 0.367890 1.950791 0.287682
v 0.157235 1.955870 0.381740
v 0.302267 1.733070 0.224101
v 0.157235 1.955870 0.381740
v 0.153311 1.736661 0.290611
v 0.153311 1.736661 0.290611
v 0.157235 1.955870 0.381740
v -0.053421 1.958375 0.287578
v 0.153311 1.736661 0.290611
v -0.053421 1.958375 0.287578
v 0.004355 1.738432 0.224028
v 0.004355 1.738432 0.224028
v -0.053421 1.958375 0.287578
v -0.140677 1.956837 0.060353
v 0.004355 1.738432 0.224028
v -0.140677 1.956837 0.060353
v -0.057344 1.737345 0.063356
v -0.057344 1.737345 0.063356
v -0.140677 1.956837 0.060353
v -0.053421 1.952159 -0.166828
v -0.057344 1.737345 0.063356
v -0.053421 1.952159 -0.166828
v 0.004355 1.734037 -0.097286
v 0.004355 1.734037 -0.097286
v -0.053421 1.952159 -0.166828
v 0.157235 1.947080 -0.260887
v 0.004355 1.734037 -0.097286
v 0.157235 1.947080 -0.260887
v 0.153311 1.730446 -0.163796
v 0.153311 1.730446 -0.163796
v 0.157235 1.947080 -0.260887
v 0.367890 1.944575 -0.166725
v 0.153311 1.730446 -0.163796
v 0.367890 1.944575 -0.166725
v 0.302267 1.728675 -0.097213
v 0.302267 1.728675 -0.097213
v 0.367890 1.944575 -0.166725
v 0.455146 1.946113 0.060500
v 0.302267 1.728675 -0.097213
v 0.455146 1.946113 0.060500
v 0.363967 1.729762 0.063459
v 0.455146 1.946113 0.060500
v 0.371813 2.165604 0.057498
v 0.310114 2.168912 0.218139
v 0.455146 1.946113 0.060500
v 0.310114 2.168912 0.218139
v 0.367890 1.950791 0.287682
v 0.367890 1.950791 0.287682
v 0.310114 2.168912 0.218139
v 0.161158 2.172504 0.284649
v 0.367890 1.950791 0.287682
v 0.161158 2.172504 0.284649
v 0.157235 1.955870 0.381740
v 0.157235 1.955870 0.381740
v 0.161158 2.172504 0.284649
v 0.012202 2.174275 0.218066
v 0.157235 1.955870 0.381740
v 0.012202 2.174275 0.218066
v -0.053421 1.958375 0.287578
v -0.053421 1.958375 0.287578
v 0.012202 2.174275 0.218066
v -0.049498 2.173188 0.057394
v -0.053421 1.958375 0.287578
v -0.049498 2.173188 0.057394
v -0.140677 1.956837 0.060353
v -0.140677 1.956837 0.060353
v -0.049498 2.173188 0.057394
v 0.012202 2.169880 -0.103248
v -0.140677 1.956837 0.060353
v 0.012202 2.169880 -0.103248
v -0.053421 1.952159 -0.166828
v -0.053421 1.952159 -0.166828
v 0.012202 2.169880 -0.103248
v 0.161158 2.166288 -0.169757
v -0.053421 1.952159 -0.166828
v 0.161158 2.166288 -0.169757
v 0.157235 1.947080 -0.260887
v 0.157235 1.947080 -0.260887
v 0.161158 2.166288 -0.169757
v 0.310114 2.164517 -0.103174
v 0.157235 1.947080 -0.260887
v 0.310114 2.164517 -0.103174
v 0.367890 1.944575 -0.166725
v 0.367890 1.944575 -0.166725
v 0.310114 2.164517 -0.103174
v 0.371813 2.165604 0.057498
v 0.367890 1.944575 -0.166725
v 0.371813 2.165604 0.057498
v 0.455146 1.946113 0.060500
v 0.371813 2.165604 0.057498
v 0.162783 2.259662 0.056211
v 0.162783 2.259662 0.056211
v 0.371813 2.165604 0.057498
v 0.162783 2.259662 0.056211
v 0.310114 2.168912 0.218139
v 0.310114 2.168912 0.218139
v 0.162783 2.259662 0.056211
v 0.162783 2.259662 0.056211
v 0.310114 2.168912 0.218139
v 0.162783 2.259662 0.056211
v 0.161158 2.172504 0.284649
v 0.161158 2.172504 0.284649
v 0.162783 2.259662 0.056211
v 0.162783 2.259662 0.056211
v 0.161158 2.172504 0.284649
v 0.162783 2.259662 0.056211
v 0.012202 2.174275 0.218066
v 0.012202 2.174275 0.218066
v 0.162783 2.259662 0.056211
v 0.162783 2.259662 0.056211
v 0.012202 2.174275 0.218066
v 0.162783 2.259662 0.056211
v -0.049498 2.173188 0.057394
v -0.049498 2.173188 0.057394
v 0.162783 2.259662 0.056211
v 0.162783 2.259662 0.056211
v -0.049498 2.173188 0.057394
v 0.162783 2.259662 0.056211
v 0.012202 2.169880 -0.103248
v 0.012202 2.169880 -0.103248
v 0.162783 2.259662 0.056211
v 0.162783 2.259662 0.056211
v 0.012202 2.169880 -0.103248
v 0.162783 2.259662 0.056211
v 0.161158 2.166288 -0.169757
v 0.161158 2.166288 -0.169757
v 0.162783 2.259662 0.056211
v 0.162783 2.259662 0.056211
v 0.161158 2.166288 -0.169757
v 0.162783 2.259662 0.056211
v 0.310114 2.164517 -0.103174
v 0.310114 2.164517 -0.103174
v 0.162783 2.259662 0.056211
v 0.162783 2.259662 0.056211
v 0.310114 2.164517 -0.103174
v 0.162783 2.259662 0.056211
v 0.371813 2.165604 0.057498
v -0.095229 1.694243 0.208131
v 0.137074 1.787909 0.206850
v 0.069549 1.791120 0.352697
v -0.095229 1.694243 0.208131
v 0.069549 1.791120 0.352697
v -0.095229 1.694243 0.208131
v -0.095229 1.694243 0.208131
v 0.069549 1.791120 0.352697
v -0.093468 1.794880 0.413075
v -0.095229 1.694243 0.208131
v -0.093468 1.794880 0.413075
v -0.095229 1.694243 0.208131
v -0.095229 1.694243 0.208131
v -0.093468 1.794880 0.413075
v -0.256486 1.796988 0.352616
v -0.095229 1.694243 0.208131
v -0.256486 1.796988 0.352616
v -0.095229 1.694243 0.208131
v -0.095229 1.694243 0.208131
v -0.256486 1.796988 0.352616
v -0.324010 1.796209 0.206736
v -0.095229 1.694243 0.208131
v -0.324010 1.796209 0.206736
v -0.095229 1.694243 0.208131
v -0.095229 1.694243 0.208131
v -0.324010 1.796209 0.206736
v -0.256486 1.792998 0.060889
v -0.095229 1.694243 0.208131
v -0.256486 1.792998 0.060889
v -0.095229 1.694243 0.208131
v -0.095229 1.694243 0.208131
v -0.256486 1.792998 0.060889
v -0.093468 1.789237 0.000510
v -0.095229 1.694243 0.208131
v -0.093468 1.789237 0.000510
v -0.095229 1.694243 0.208131
v -0.095229 1.694243 0.208131
v -0.093468 1.789237 0.000510
v 0.069549 1.787129 0.060969
v -0.095229 1.694243 0.208131
v 0.069549 1.787129 0.060969
v -0.095229 1.694243 0.208131
v -0.095229 1.694243 0.208131
v 0.069549 1.787129 0.060969
v 0.137074 1.787909 0.206850
v -0.095229 1.694243 0.208131
v 0.137074 1.787909 0.206850
v -0.095229 1.694243 0.208131
v 0.137074 1.787909 0.206850
v 0.236818 2.022339 0.203643
v 0.141325 2.026880 0.409902
v 0.137074 1.787909 0.206850
v 0.141325 2.026880 0.409902
v 0.069549 1.791120 0.352697
v 0.069549 1.791120 0.352697
v 0.141325 2.026880 0.409902
v -0.089217 2.032198 0.495290
v 0.069549 1.791120 0.352697
v -0.089217 2.032198 0.495290
v -0.093468 1.794880 0.413075
v -0.093468 1.794880 0.413075
v -0.089217 2.032198 0.495290
v -0.319758 2.035179 0.409788
v -0.093468 1.794880 0.413075
v -0.319758 2.035179 0.409788
v -0.256486 1.796988 0.352616
v -0.256486 1.796988 0.352616
v -0.319758 2.035179 0.409788
v -0.415252 2.034076 0.203482
v -0.256486 1.796988 0.352616
v -0.415252 2.034076 0.203482
v -0.324010 1.796209 0.206736
v -0.324010 1.796209 0.206736
v -0.415252 2.034076 0.203482
v -0.319758 2.029536 -0.002777
v -0.324010 1.796209 0.206736
v -0.319758 2.029536 -0.002777
v -0.256486 1.792998 0.060889
v -0.256486 1.792998 0.060889
v -0.319758 2.029536 -0.002777
v -0.089217 2.024217 -0.088165
v -0.256486 1.792998 0.060889
v -0.089217 2.024217 -0.088165
v -0.093468 1.789237 0.000510
v -0.093468 1.789237 0.000510
v -0.089217 2.024217 -0.088165
v 0.141325 2.021236 -0.002663
v -0.093468 1.789237 0.000510
v 0.141325 2.021236 -0.002663
v 0.069549 1.787129 0.060969
v 0.069549 1.787129 0.060969
v 0.141325 2.021236 -0.002663
v 0.236818 2.022339 0.203643
v 0.069549 1.787129 0.060969
v 0.236818 2.022339 0.203643
v 0.137074 1.787909 0.206850
v 0.236818 2.022339 0.203643
v 0.145576 2.260206 0.200389
v 0.078052 2.263417 0.346236
v 0.236818 2.022339 0.203643
v 0.078052 2.263417 0.346236
v 0.141325 2.026880 0.409902
v 0.141325 2.026880 0.409902
v 0.078052 2.263417 0.346236
v -0.084965 2.267178 0.406615
v 0.141325 2.026880 0.409902
v -0.084965 2.267178 0.406615
v -0.089217 2.032198 0.495290
v -0.089217 2.032198 0.495290
v -0.084965 2.267178 0.406615
v -0.247983 2.269285 0.346156
v -0.089217 2.032198 0.495290
v -0.247983 2.269285 0.346156
v -0.319758 2.035179 0.409788
v -0.319758 2.035179 0.409788
v -0.247983 2.269285 0.346156
v -0.315507 2.268506 0.200276
v -0.319758 2.035179 0.409788
v -0.315507 2.268506 0.200276
v -0.415252 2.034076 0.203482
v -0.415252 2.034076 0.203482
v -0.315507 2.268506 0.200276
v -0.247983 2.265295 0.054429
v -0.415252 2.034076 0.203482
v -0.247983 2.265295 0.054429
v -0.319758 2.029536 -0.002777
v -0.319758 2.029536 -0.002777
v -0.247983 2.265295 0.054429
v -0.084965 2.261534 -0.005950
v -0.319758 2.029536 -0.002777
v -0.084965 2.261534 -0.005950
v -0.089217 2.024217 -0.088165
v -0.089217 2.024217 -0.088165
v -0.084965 2.261534 -0.005950
v 0.078052 2.259427 0.054509
v -0.089217 2.024217 -0.088165
v 0.078052 2.259427 0.054509
v 0.141325 2.021236 -0.002663
v 0.141325 2.021236 -0.002663
v 0.078052 2.259427 0.054509
v 0.145576 2.260206 0.200389
v 0.141325 2.021236 -0.002663
v 0.145576 2.260206 0.200389
v 0.236818 2.022339 0.203643
v 0.145576 2.260206 0.200389
v -0.083204 2.362172 0.198995
v -0.083204 2.362172 0.198995
v 0.145576 2.260206 0.200389
v -0.083204 2.362172 0.198995
v 0.078052 2.263417 0.346236
v 0.078052 2.263417 0.346236
v -0.083204 2.362172 0.198995
v -0.083204 2.362172 0.198995
v 0.078052 2.263417 0.346236
v -0.083204 2.362172 0.198995
v -0.084965 2.267178 0.406615
v -0.084965 2.267178 0.406615
v -0.083204 2.362172 0.198995
v -0.083204 2.362172 0.198995
v -0.084965 2.267178 0.406615
v -0.083204 2.362172 0.198995
v -0.247983 2.269285 0.346156
v -0.247983 2.269285 0.346156
v -0.083204 2.362172 0.198995
v -0.083204 2.362172 0.198995
v -0.247983 2.269285 0.346156
v -0.083204 2.362172 0.198995
v -0.315507 2.268506 0.200276
v -0.315507 2.268506 0.200276
v -0.083204 2.362172 0.198995
v -0.083204 2.362172 0.198995
v -0.315507 2.268506 0.200276
v -0.083204 2.362172 0.198995
v -0.247983 2.265295 0.054429
v -0.247983 2.265295 0.054429
v -0.083204 2.362172 0.198995
v -0.083204 2.362172 0.198995
v -0.247983 2.265295 0.054429
v -0.083204 2.362172 0.198995
v -0.084965 2.261534 -0.005950
v -0.084965 2.261534 -0.005950
v -0.083204 2.362172 0.198995
v -0.083204 2.362172 0.198995
v -0.084965 2.261534 -0.005950
v -0.083204 2.362172 0.198995
v 0.078052 2.259427 0.054509
v 0.078052 2.259427 0.054509
v -0.083204 2.362172 0.198995
v -0.083204 2.362172 0.198995
v 0.078052 2.259427 0.054509
v -0.083204 2.362172 0.198995
v 0.145576 2.260206 0.200389
v -0.292822 1.848343 -0.087537
v -0.041077 1.916988 -0.088476
v -0.114426 1.920612 0.079914
v -0.292822 1.848343 -0.087537
v -0.114426 1.920612 0.079914
v -0.292822 1.848343 -0.087537
v -0.292822 1.848343 -0.087537
v -0.114426 1.920612 0.079914
v -0.291505 1.924753 0.149628
v -0.292822 1.848343 -0.087537
v -0.291505 1.924753 0.149628
v -0.292822 1.848343 -0.087537
v -0.292822 1.848343 -0.087537
v -0.291505 1.924753 0.149628
v -0.468585 1.926986 0.079827
v -0.292822 1.848343 -0.087537
v -0.468585 1.926986 0.079827
v -0.292822 1.848343 -0.087537
v -0.292822 1.848343 -0.087537
v -0.468585 1.926986 0.079827
v -0.541933 1.926003 -0.088599
v -0.292822 1.848343 -0.087537
v -0.541933 1.926003 -0.088599
v -0.292822 1.848343 -0.087537
v -0.292822 1.848343 -0.087537
v -0.541933 1.926003 -0.088599
v -0.468585 1.922379 -0.256990
v -0.292822 1.848343 -0.087537
v -0.468585 1.922379 -0.256990
v -0.292822 1.848343 -0.087537
v -0.292822 1.848343 -0.087537
v -0.468585 1.922379 -0.256990
v -0.291505 1.918238 -0.326703
v -0.292822 1.848343 -0.087537
v -0.291505 1.918238 -0.326703
v -0.292822 1.848343 -0.087537
v -0.292822 1.848343 -0.087537
v -0.291505 1.918238 -0.326703
v -0.114426 1.916005 -0.256902
v -0.292822 1.848343 -0.087537
v -0.114426 1.916005 -0.256902
v -0.292822 1.848343 -0.087537
v -0.292822 1.848343 -0.087537
v -0.114426 1.916005 -0.256902
v -0.041077 1.916988 -0.088476
v -0.292822 1.848343 -0.087537
v -0.041077 1.916988 -0.088476
v -0.292822 1.848343 -0.087537
v -0.041077 1.916988 -0.088476
v 0.065833 2.091727 -0.090866
v -0.037898 2.096852 0.147274
v -0.041077 1.916988 -0.088476
v -0.037898 2.096852 0.147274
v -0.114426 1.920612 0.079914
v -0.114426 1.920612 0.079914
v -0.037898 2.096852 0.147274
v -0.288326 2.102709 0.245863
v -0.114426 1.920612 0.079914
v -0.288326 2.102709 0.245863
v -0.291505 1.924753 0.149628
v -0.291505 1.924753 0.149628
v -0.288326 2.102709 0.245863
v -0.538754 2.105867 0.147150
v -0.291505 1.924753 0.149628
v -0.538754 2.105867 0.147150
v -0.468585 1.926986 0.079827
v -0.468585 1.926986 0.079827
v -0.538754 2.105867 0.147150
v -0.642484 2.104476 -0.091041
v -0.468585 1.926986 0.079827
v -0.642484 2.104476 -0.091041
v -0.541933 1.926003 -0.088599
v -0.541933 1.926003 -0.088599
v -0.642484 2.104476 -0.091041
v -0.538754 2.099352 -0.329180
v -0.541933 1.926003 -0.088599
v -0.538754 2.099352 -0.329180
v -0.468585 1.922379 -0.256990
v -0.468585 1.922379 -0.256990
v -0.538754 2.099352 -0.329180
v -0.288326 2.093495 -0.427770
v -0.468585 1.922379 -0.256990
v -0.288326 2.093495 -0.427770
v -0.291505 1.918238 -0.326703
v -0.291505 1.918238 -0.326703
v -0.288326 2.093495 -0.427770
v -0.037898 2.090336 -0.329057
v -0.291505 1.918238 -0.326703
v -0.037898 2.090336 -0.329057
v -0.114426 1.916005 -0.256902
v -0.114426 1.916005 -0.256902
v -0.037898 2.090336 -0.329057
v 0.065833 2.091727 -0.090866
v -0.114426 1.916005 -0.256902
v 0.065833 2.091727 -0.090866
v -0.041077 1.916988 -0.088476
v 0.065833 2.091727 -0.090866
v -0.034718 2.270200 -0.093307
v -0.108067 2.273824 0.075083
v 0.065833 2.091727 -0.090866
v -0.108067 2.273824 0.075083
v -0.037898 2.096852 0.147274
v -0.037898 2.096852 0.147274
v -0.108067 2.273824 0.075083
v -0.285146 2.277966 0.144796
v -0.037898 2.096852 0.147274
v -0.285146 2.277966 0.144796
v -0.288326 2.102709 0.245863
v -0.288326 2.102709 0.245863
v -0.285146 2.277966 0.144796
v -0.462226 2.280199 0.074996
v -0.288326 2.102709 0.245863
v -0.462226 2.280199 0.074996
v -0.538754 2.105867 0.147150
v -0.538754 2.105867 0.147150
v -0.462226 2.280199 0.074996
v -0.535574 2.279216 -0.093431
v -0.538754 2.105867 0.147150
v -0.535574 2.279216 -0.093431
v -0.642484 2.104476 -0.091041
v -0.642484 2.104476 -0.091041
v -0.535574 2.279216 -0.093431
v -0.462226 2.275592 -0.261821
v -0.642484 2.104476 -0.091041
v -0.462226 2.275592 -0.261821
v -0.538754 2.099352 -0.329180
v -0.538754 2.099352 -0.329180
v -0.462226 2.275592 -0.261821
v -0.285146 2.271451 -0.331534
v -0.538754 2.099352 -0.329180
v -0.285146 2.271451 -0.331534
v -0.288326 2.093495 -0.427770
v -0.288326 2.093495 -0.427770
v -0.285146 2.271451 -0.331534
v -0.108067 2.269217 -0.261734
v -0.288326 2.093495 -0.427770
v -0.108067 2.269217 -0.261734
v -0.037898 2.090336 -0.329057
v -0.037898 2.090336 -0.329057
v -0.108067 2.269217 -0.261734
v -0.034718 2.270200 -0.093307
v -0.037898 2.090336 -0.329057
v -0.034718 2.270200 -0.093307
v 0.065833 2.091727 -0.090866
v -0.034718 2.270200 -0.093307
v -0.283829 2.347861 -0.094370
v -0.283829 2.347861 -0.094370
v -0.034718 2.270200 -0.093307
v -0.283829 2.347861 -0.094370
v -0.108067 2.273824 0.075083
v -0.108067 2.273824 0.075083
v -0.283829 2.347861 -0.094370
v -0.283829 2.347861 -0.094370
v -0.108067 2.273824 0.075083
v -0.283829 2.347861 -0.094370
v -0.285146 2.277966 0.144796
v -0.285146 2.277966 0.144796
v -0.283829 2.347861 -0.094370
v -0.283829 2.347861 -0.094370
v -0.285146 2.277966 0.144796
v -0.283829 2.347861 -0.094370
v -0.462226 2.280199 0.074996
v -0.462226 2.280199 0.074996
v -0.283829 2.347861 -0.094370
v -0.283829 2.347861 -0.094370
v -0.462226 2.280199 0.074996
v -0.283829 2.347861 -0.094370
v -0.535574 2.279216 -0.093431
v -0.535574 2.279216 -0.093431
v -0.283829 2.347861 -0.094370
v -0.283829 2.347861 -0.094370
v -0.535574 2.279216 -0.093431
v -0.283829 2.347861 -0.094370
v -0.462226 2.275592 -0.261821
v -0.462226 2.275592 -0.261821
v -0.283829 2.347861 -0.094370
v -0.283829 2.347861 -0.094370
v -0.462226 2.275592 -0.261821
v -0.283829 2.347861 -0.094370
v -0.285146 2.271451 -0.331534
v -0.285146 2.271451 -0.331534
v -0.283829 2.347861 -0.094370
v -0.283829 2.347861 -0.094370
v -0.285146 2.271451 -0.331534
v -0.283829 2.347861 -0.094370
v -0.108067 2.269217 -0.261734
v -0.108067 2.269217 -0.261734
v -0.283829 2.347861 -0.094370
v -0.283829 2.347861 -0.094370
v -0.108067 2.269217 -0.261734
v -0.283829 2.347861 -0.094370
v -0.034718 2.270200 -0.093307
f 925 926 927
f 928 929 930
f 931 932 933
f 934 935 936
f 937 938 939
f 940 941 942
f 943 944 945
f 946 947 948
f 949 950 951
f 952 953 954
f 955 956 957
f 958 959 960
f 961 962 963
f 964 965 966
f 967 968 969
f 970 971 972
f 973 974 975
f 976 977 978
f 979 980 981
f 982 983 984
f 985 986 987
f 988 989 990
f 991 992 993
f 994 995 996
f 997 998 999
f 1000 1001 1002
f 1003 1004 1005
f 1006 1007 1008
f 1009 1010 1011
f 1012 1013 1014
f 1015 1016 1017
f 1018 1019 1020
f 1021 1022 1023
f 1024 1025 1026
f 1027 1028 1029
f 1030 1031 1032
f 1033 1034 1035
f 1036 1037 1038
f 1039 1040 1041
f 1042 1043 1044
f 1045 1046 1047
f 1048 1049 1050
f 1051 1052 1053
f 1054 1055 1056
f 1057 1058 1059
f 1060 1061 1062
f 1063 1064 1065
f 1066 1067 1068
f 1069 1070 1071
f 1072 1073 1074
f 1075 1076 1077
f 1078 1079 1080
f 1081 1082 1083
f 1084 1085 1086
f 1087 1088 1089
f 1090 1091 1092
f 1093 1094 1095
f 1096 1097 1098
f 1099 1100 1101
f 1102 1103 1104
f 1105 1106 1107
f 1108 1109 1110
f 1111 1112 1113
f 1114 1115 1116
f 1117 1118 1119
f 1120 1121 1122
f 1123 1124 1125
f 1126 1127 1128
f 1129 1130 1131
f 1132 1133 1134
f 1135 1136 1137
f 1138 1139 1140
f 1141 1142 1143
f 1144 1145 1146
f 1147 1148 1149
f 1150 1151 1152
f 1153 1154 1155
f 1156 1157 1158
f 1159 1160 1161
f 1162 1163 1164
f 1165 1166 1167
f 1168 1169 1170
f 1171 1172 1173
f 1174 1175 1176
f 1177 1178 1179
f 1180 1181 1182
f 1183 1184 1185
f 1186 1187 1188
f 1189 1190 1191
f 1192 1193 1194
f 1195 1196 1197
f 1198 1199 1200
f 1201 1202 1203
f 1204 1205 1206
f 1207 1208 1209
f 1210 1211 1212
f 1213 1214 1215
f 1216 1217 1218
f 1219 1220 1221
f 1222 1223 1224
f 1225 1226 1227
f 1228 1229 1230
f 1231 1232 1233
f 1234 1235 1236
f 1237 1238 1239
f 1240 1241 1242
f 1243 1244 1245
f 1246 1247 1248
f 1249 1250 1251
f 1252 1253 1254
f 1255 1256 1257
f 1258 1259 1260
f 1261 1262 1263
f 1264 1265 1266
f 1267 1268 1269
f 1270 1271 1272
f 1273 1274 1275
f 1276 1277 1278
f 1279 1280 1281
f 1282 1283 1284
f 1285 1286 1287
f 1288 1289 1290
f 1291 1292 1293
f 1294 1295 1296
f 1297 1298 1299
f 1300 1301 1302
f 1303 1304 1305
f 1306 1307 1308
f 1309 1310 1311
f 1312 1313 1314
f 1315 1316 1317
f 1318 1319 1320
f 1321 1322 1323
f 1324 1325 1326
f 1327 1328 1329
f 1330 1331 1332
f 1333 1334 1335
f 1336 1337 1338
f 1339 1340 1341
f 1342 1343 1344
f 1345 1346 1347
f 1348 1349 1350
f 1351 1352 1353
f 1354 1355 1356
f 1357 1358 1359
f 1360 1361 1362
f 1363 1364 1365
f 1366 1367 1368
f 1369 1370 1371
f 1372 1373 1374
f 1375 1376 1377
f 1378 1379 1380
f 1381 1382 1383
f 1384 1385 1386
f 1387 1388 1389
f 1390 1391 1392
f 1393 1394 1395
f 1396 1397 1398
f 1399 1400 1401
f 1402 1403 1404
f 1405 1406 1407
f 1408 1409 1410
f 1411 1412 1413
f 1414 1415 1416
f 1417 1418 1419
f 1420 1421 1422
f 1423 1424 1425
f 1426 1427 1428
f 1429 1430 1431
f 1432 1433 1434
f 1435 1436 1437
f 1438 1439 1440
f 1441 1442 1443
f 1444 1445 1446
f 1447 1448 1449
f 1450 1451 1452
f 1453 1454 1455
f 1456 1457 1458
f 1459 1460 1461
f 1462 1463 1464
f 1465 1466 1467
f 1468 1469 1470
f 1471 1472 1473
f 1474 1475 1476
f 1477 1478 1479
f 1480 1481 1482
f 1483 1484 1485
f 1486 1487 1488
f 1489 1490 1491
f 1492 1493 1494
f 1495 1496 1497
f 1498 1499 1500
f 1501 1502 1503
f 1504 1505 1506
f 1507 1508 1509
f 1510 1511 1512
f 1513 1514 1515
f 1516 1517 1518
f 1519 1520 1521
f 1522 1523 1524
f 1525 1526 1527
f 1528 1529 1530
f 1531 1532 1533
f 1534 1535 1536
f 1537 1538 1539
f 1540 1541 1542
f 1543 1544 1545
f 1546 1547 1548
f 1549 1550 1551
f 1552 1553 1554
f 1555 1556 1557
f 1558 1559 1560
f 1561 1562 1563
f 1564 1565 1566
f 1567 1568 1569
f 1570 1571 1572
f 1573 1574 1575
f 1576 1577 1578
f 1579 1580 1581
f 1582 1583 1584
f 1585 1586 1587
f 1588 1589 1590
f 1591 1592 1593
f 1594 1595 1596
f 1597 1598 1599
f 1600 1601 1602
f 1603 1604 1605
f 1606 1607 1608
f 1609 1610 1611
f 1612 1613 1614
f 1615 1616 1617
f 1618 1619 1620
f 1621 1622 1623
f 1624 1625 1626
f 1627 1628 1629
f 1630 1631 1632
f 1633 1634 1635
f 1636 1637 1638
f 1639 1640 1641
f 1642 1643 1644
f 1645 1646 1647
f 1648 1649 1650
f 1651 1652 1653
f 1654 1655 1656
f 1657 1658 1659
f 1660 1661 1662
f 1663 1664 1665
f 1666 1667 1668
f 1669 1670 1671
f 1672 1673 1674
f 1675 1676 1677
f 1678 1679 1680
f 1681 1682 1683
f 1684 1685 1686
f 1687 1688 1689
f 1690 1691 1692
f 1693 1694 1695
f 1696 1697 1698
f 1699 1700 1701
f 1702 1703 1704
f 1705 1706 1707
f 1708 1709 1710
f 1711 1712 1713
f 1714 1715 1716
f 1717 1718 1719
f 1720 1721 1722
f 1723 1724 1725
f 1726 1727 1728
f 1729 1730 1731
f 1732 1733 1734
f 1735 1736 1737
f 1738 1739 1740
f 1741 1742 1743
f 1744 1745 1746
f 1747 1748 1749
f 1750 1751 1752
f 1753 1754 1755
f 1756 1757 1758
f 1759 1760 1761
f 1762 1763 1764
f 1765 1766 1767
f 1768 1769 1770
f 1771 1772 1773
f 1774 1775 1776
f 1777 1778 1779
f 1780 1781 1782
f 1783 1784 1785
f 1786 1787 1788
f 1789 1790 1791
f 1792 1793 1794
f 1795 1796 1797
f 1798 1799 1800
f 1801 1802 1803
f 1804 1805 1806
f 1807 1808 1809
f 1810 1811 1812
f 1813 1814 1815
f 1816 1817 1818
f 1819 1820 1821
f 1822 1823 1824
f 1825 1826 1827
f 1828 1829 1830
f 1831 1832 1833
f 1834 1835 1836
f 1837 1838 1839
f 1840 1841 1842
f 1843 1844 1845
f 1846 1847 1848
f 1849 1850 1851
f 1852 1853 1854
f 1855 1856 1857
f 1858 1859 1860
f 1861 1862 1863
f 1864 1865 1866
f 1867 1868 1869
f 1870 1871 1872
f 1873 1874 1875
f 1876 1877 1878
f 1879 1880 1881
f 1882 1883 1884
f 1885 1886 1887
f 1888 1889 1890
f 1891 1892 1893
f 1894 1895 1896
f 1897 1898 1899
f 1900 1901 1902
f 1903 1904 1905
f 1906 1907 1908
f 1909 1910 1911
f 1912 1913 1914
f 1915 1916 1917
f 1918 1919 1920
f 1921 1922 1923
f 1924 1925 1926
f 1927 1928 1929
f 1930 1931 1932
f 1933 1934 1935
f 1936 1937 1938
f 1939 1940 1941
f 1942 1943 1944
f 1945 1946 1947
f 1948 1949 1950
f 1951 1952 1953
f 1954 1955 1956
f 1957 1958 1959
f 1960 1961 1962
f 1963 1964 1965
f 1966 1967 1968
f 1969 1970 1971
f 1972 1973 1974
f 1975 1976 1977
f 1978 1979 1980
f 1981 1982 1983
f 1984 1985 1986
f 1987 1988 1989
f 1990 1991 1992
f 1993 1994 1995
f 1996 1997 1998
f 1999 2000 2001
f 2002 2003 2004
f 2005 2006 2007
f 2008 2009 2010
f 2011 2012 2013
f 2014 2015 2016
f 2017 2018 2019
f 2020 2021 2022
f 2023 2024 2025
f 2026 2027 2028
f 2029 2030 2031
f 2032 2033 2034
f 2035 2036 2037
f 2038 2039 2040
f 2041 2042 2043
f 2044 2045 2046
f 2047 2048 2049
f 2050 2051 2052
f 2053 2054 2055
f 2056 2057 2058
f 2059 2060 2061
f 2062 2063 2064
f 2065 2066 2067
f 2068 2069 2070
f 2071 2072 2073
f 2074 2075 2076
f 2077 2078 2079
f 2080 2081 2082
f 2083 2084 2085
f 2086 2087 2088
f 2089 2090 2091
f 2092 2093 2094
f 2095 2096 2097
f 2098 2099 2100
f 2101 2102 2103
f 2104 2105 2106
f 2107 2108 2109
f 2110 2111 2112
f 2113 2114 2115
f 2116 2117 2118
f 2119 2120 2121
f 2122 2123 2124
f 2125 2126 2127
f 2128 2129 2130
f 2131 2132 2133
f 2134 2135 2136
f 2137 2138 2139
f 2140 2141 2142
f 2143 2144 2145
f 2146 2147 2148
f 2149 2150 2151
f 2152 2153 2154
f 2155 2156 2157
f 2158 2159 2160
f 2161 2162 2163
f 2164 2165 2166
f 2167 2168 2169
f 2170 2171 2172
f 2173 2174 2175
f 2176 2177 2178
f 2179 2180 2181
f 2182 2183 2184
f 2185 2186 2187
f 2188 2189 2190
f 2191 2192 2193
f 2194 2195 2196
f 2197 2198 2199
f 2200 2201 2202
f 2203 2204 2205
f 2206 2207 2208
f 2209 2210 2211
f 2212 2213 2214
f 2215 2216 2217
f 2218 2219 2220
f 2221 2222 2223
f 2224 2225 2226
f 2227 2228 2229
f 2230 2231 2232
f 2233 2234 2235
f 2236 2237 2238
f 2239 2240 2241
f 2242 2243 2244
f 2245 2246 2247
f 2248 2249 2250
f 2251 2252 2253
f 2254 2255 2256
f 2257 2258 2259
f 2260 2261 2262
f 2263 2264 2265
f 2266 2267 2268
