# Pyramida editable prop source
# units: 1 OBJ unit = 1 Pyramida World Unit = 1 Blender metre

o TreeTrunk
v 0.061556 0.074391 0.096705
v 0.238128 0.020872 -0.016977
v 0.240448 0.044247 -0.041478
v 0.061556 0.074391 0.096705
v 0.240448 0.044247 -0.041478
v 0.071707 0.176653 -0.010484
v 0.043495 0.075584 -0.006723
v 0.061556 0.074391 0.096705
v 0.071707 0.176653 -0.010484
v 0.234000 0.021145 -0.040618
v 0.240448 0.044247 -0.041478
v 0.238128 0.020872 -0.016977
v 0.071707 0.176653 -0.010484
v 0.240448 0.044247 -0.041478
v 0.229872 0.021418 -0.064259
v 0.071707 0.176653 -0.010484
v 0.229872 0.021418 -0.064259
v 0.025434 0.076778 -0.110151
v 0.043495 0.075584 -0.006723
v 0.071707 0.176653 -0.010484
v 0.025434 0.076778 -0.110151
v 0.234000 0.021145 -0.040618
v 0.229872 0.021418 -0.064259
v 0.240448 0.044247 -0.041478
v 0.025434 0.076778 -0.110151
v 0.229872 0.021418 -0.064259
v 0.227551 -0.001956 -0.039758
v 0.025434 0.076778 -0.110151
v 0.227551 -0.001956 -0.039758
v 0.015282 -0.025484 -0.002963
v 0.043495 0.075584 -0.006723
v 0.025434 0.076778 -0.110151
v 0.015282 -0.025484 -0.002963
v 0.234000 0.021145 -0.040618
v 0.227551 -0.001956 -0.039758
v 0.229872 0.021418 -0.064259
v 0.015282 -0.025484 -0.002963
v 0.227551 -0.001956 -0.039758
v 0.238128 0.020872 -0.016977
v 0.015282 -0.025484 -0.002963
v 0.238128 0.020872 -0.016977
v 0.061556 0.074391 0.096705
v 0.043495 0.075584 -0.006723
v 0.015282 -0.025484 -0.002963
v 0.061556 0.074391 0.096705
v 0.234000 0.021145 -0.040618
v 0.238128 0.020872 -0.016977
v 0.227551 -0.001956 -0.039758
v -0.114972 0.073784 -0.003527
v -0.137195 0.013355 0.232049
v -0.118339 0.036606 0.248044
v -0.114972 0.073784 -0.003527
v -0.118339 0.036606 0.248044
v -0.032477 0.175507 0.066451
v -0.020180 0.074227 0.041631
v -0.114972 0.073784 -0.003527
v -0.032477 0.175507 0.066451
v -0.115528 0.013456 0.242371
v -0.118339 0.036606 0.248044
v -0.137195 0.013355 0.232049
v -0.032477 0.175507 0.066451
v -0.118339 0.036606 0.248044
v -0.093861 0.013557 0.252693
v -0.032477 0.175507 0.066451
v -0.093861 0.013557 0.252693
v 0.074612 0.074669 0.086790
v -0.020180 0.074227 0.041631
v -0.032477 0.175507 0.066451
v 0.074612 0.074669 0.086790
v -0.115528 0.013456 0.242371
v -0.093861 0.013557 0.252693
v -0.118339 0.036606 0.248044
v 0.074612 0.074669 0.086790
v -0.093861 0.013557 0.252693
v -0.112717 -0.009694 0.236698
v 0.074612 0.074669 0.086790
v -0.112717 -0.009694 0.236698
v -0.007882 -0.027054 0.016811
v -0.020180 0.074227 0.041631
v 0.074612 0.074669 0.086790
v -0.007882 -0.027054 0.016811
v -0.115528 0.013456 0.242371
v -0.112717 -0.009694 0.236698
v -0.093861 0.013557 0.252693
v -0.007882 -0.027054 0.016811
v -0.112717 -0.009694 0.236698
v -0.137195 0.013355 0.232049
v -0.007882 -0.027054 0.016811
v -0.137195 0.013355 0.232049
v -0.114972 0.073784 -0.003527
v -0.020180 0.074227 0.041631
v -0.007882 -0.027054 0.016811
v -0.114972 0.073784 -0.003527
v -0.115528 0.013456 0.242371
v -0.137195 0.013355 0.232049
v -0.112717 -0.009694 0.236698
v 0.068928 0.076981 -0.089430
v -0.124782 0.020288 -0.272288
v -0.148562 0.043344 -0.264876
v 0.068928 0.076981 -0.089430
v -0.148562 0.043344 -0.264876
v -0.035108 0.177852 -0.057005
v -0.022757 0.075275 -0.038286
v 0.068928 0.076981 -0.089430
v -0.035108 0.177852 -0.057005
v -0.145739 0.019898 -0.260598
v -0.148562 0.043344 -0.264876
v -0.124782 0.020288 -0.272288
v -0.035108 0.177852 -0.057005
v -0.148562 0.043344 -0.264876
v -0.166695 0.019508 -0.248908
v -0.035108 0.177852 -0.057005
v -0.166695 0.019508 -0.248908
v -0.114443 0.073569 0.012859
v -0.022757 0.075275 -0.038286
v -0.035108 0.177852 -0.057005
v -0.114443 0.073569 0.012859
v -0.145739 0.019898 -0.260598
v -0.166695 0.019508 -0.248908
v -0.148562 0.043344 -0.264876
v -0.114443 0.073569 0.012859
v -0.166695 0.019508 -0.248908
v -0.142916 -0.003548 -0.256319
v -0.114443 0.073569 0.012859
v -0.142916 -0.003548 -0.256319
v -0.010407 -0.027302 -0.019566
v -0.022757 0.075275 -0.038286
v -0.114443 0.073569 0.012859
v -0.010407 -0.027302 -0.019566
v -0.145739 0.019898 -0.260598
v -0.142916 -0.003548 -0.256319
v -0.166695 0.019508 -0.248908
v -0.010407 -0.027302 -0.019566
v -0.142916 -0.003548 -0.256319
v -0.124782 0.020288 -0.272288
v -0.010407 -0.027302 -0.019566
v -0.124782 0.020288 -0.272288
v 0.068928 0.076981 -0.089430
v -0.022757 0.075275 -0.038286
v -0.010407 -0.027302 -0.019566
v 0.068928 0.076981 -0.089430
v -0.145739 0.019898 -0.260598
v -0.124782 0.020288 -0.272288
v -0.142916 -0.003548 -0.256319
v -0.000093 0.010531 -0.159653
v 0.014443 1.008091 -0.065468
v 0.128496 1.002113 0.000047
v -0.000093 0.010531 -0.159653
v 0.128496 1.002113 0.000047
v 0.138503 0.003266 -0.080039
v 0.000000 0.000000 0.000000
v -0.000093 0.010531 -0.159653
v 0.138503 0.003266 -0.080039
v 0.138503 0.003266 -0.080039
v 0.128496 1.002113 0.000047
v 0.128573 0.993447 0.131429
v 0.138503 0.003266 -0.080039
v 0.128573 0.993447 0.131429
v 0.138596 -0.007264 0.079614
v 0.000000 0.000000 0.000000
v 0.138503 0.003266 -0.080039
v 0.138596 -0.007264 0.079614
v 0.138596 -0.007264 0.079614
v 0.128573 0.993447 0.131429
v 0.014596 0.990759 0.197294
v 0.138596 -0.007264 0.079614
v 0.014596 0.990759 0.197294
v 0.000093 -0.010531 0.159653
v 0.000000 0.000000 0.000000
v 0.138596 -0.007264 0.079614
v 0.000093 -0.010531 0.159653
v 0.000093 -0.010531 0.159653
v 0.014596 0.990759 0.197294
v -0.099457 0.996737 0.131778
v 0.000093 -0.010531 0.159653
v -0.099457 0.996737 0.131778
v -0.138503 -0.003266 0.080039
v 0.000000 0.000000 0.000000
v 0.000093 -0.010531 0.159653
v -0.138503 -0.003266 0.080039
v -0.138503 -0.003266 0.080039
v -0.099457 0.996737 0.131778
v -0.099533 1.005403 0.000397
v -0.138503 -0.003266 0.080039
v -0.099533 1.005403 0.000397
v -0.138596 0.007264 -0.079614
v 0.000000 0.000000 0.000000
v -0.138503 -0.003266 0.080039
v -0.138596 0.007264 -0.079614
v -0.138596 0.007264 -0.079614
v -0.099533 1.005403 0.000397
v 0.014443 1.008091 -0.065468
v -0.138596 0.007264 -0.079614
v 0.014443 1.008091 -0.065468
v -0.000093 0.010531 -0.159653
v 0.000000 0.000000 0.000000
v -0.138596 0.007264 -0.079614
v -0.000093 0.010531 -0.159653
v 0.014588 0.995004 -0.065679
v 0.059564 1.997059 -0.070977
v 0.148936 1.994783 -0.019158
v 0.014588 0.995004 -0.065679
v 0.148936 1.994783 -0.019158
v 0.128466 0.992103 0.000348
v 0.128466 0.992103 0.000348
v 0.148936 1.994783 -0.019158
v 0.148882 1.998253 0.084117
v 0.128466 0.992103 0.000348
v 0.148882 1.998253 0.084117
v 0.128397 0.996525 0.131940
v 0.128397 0.996525 0.131940
v 0.148882 1.998253 0.084117
v 0.059456 2.003999 0.135573
v 0.128397 0.996525 0.131940
v 0.059456 2.003999 0.135573
v 0.014451 1.003847 0.197505
v 0.014451 1.003847 0.197505
v 0.059456 2.003999 0.135573
v -0.029917 2.006276 0.083754
v 0.014451 1.003847 0.197505
v -0.029917 2.006276 0.083754
v -0.099426 1.006747 0.131478
v -0.099426 1.006747 0.131478
v -0.029917 2.006276 0.083754
v -0.029863 2.002806 -0.019521
v -0.099426 1.006747 0.131478
v -0.029863 2.002806 -0.019521
v -0.099358 1.002326 -0.000114
v -0.099358 1.002326 -0.000114
v -0.029863 2.002806 -0.019521
v 0.059564 1.997059 -0.070977
v -0.099358 1.002326 -0.000114
v 0.059564 1.997059 -0.070977
v 0.014588 0.995004 -0.065679
v 0.059548 1.998487 -0.071015
v 0.010537 2.498713 -0.052583
v 0.075165 2.505791 -0.015192
v 0.059548 1.998487 -0.071015
v 0.075165 2.505791 -0.015192
v 0.148591 2.008240 -0.019498
v 0.010509 2.500196 0.022402
v 0.075165 2.505791 -0.015192
v 0.010537 2.498713 -0.052583
v 0.148591 2.008240 -0.019498
v 0.075165 2.505791 -0.015192
v 0.075137 2.507274 0.059794
v 0.148591 2.008240 -0.019498
v 0.075137 2.507274 0.059794
v 0.148553 2.010282 0.083815
v 0.010509 2.500196 0.022402
v 0.075137 2.507274 0.059794
v 0.075165 2.505791 -0.015192
v 0.148553 2.010282 0.083815
v 0.075137 2.507274 0.059794
v 0.010481 2.501678 0.097388
v 0.148553 2.010282 0.083815
v 0.010481 2.501678 0.097388
v 0.059472 2.002572 0.135612
v 0.010509 2.500196 0.022402
v 0.010481 2.501678 0.097388
v 0.075137 2.507274 0.059794
v 0.059472 2.002572 0.135612
v 0.010481 2.501678 0.097388
v -0.054147 2.494600 0.059996
v 0.059472 2.002572 0.135612
v -0.054147 2.494600 0.059996
v -0.029572 1.992819 0.084095
v 0.010509 2.500196 0.022402
v -0.054147 2.494600 0.059996
v 0.010481 2.501678 0.097388
v -0.029572 1.992819 0.084095
v -0.054147 2.494600 0.059996
v -0.054119 2.493117 -0.014989
v -0.029572 1.992819 0.084095
v -0.054119 2.493117 -0.014989
v -0.029534 1.990777 -0.019218
v 0.010509 2.500196 0.022402
v -0.054119 2.493117 -0.014989
v -0.054147 2.494600 0.059996
v -0.029534 1.990777 -0.019218
v -0.054119 2.493117 -0.014989
v 0.010537 2.498713 -0.052583
v -0.029534 1.990777 -0.019218
v 0.010537 2.498713 -0.052583
v 0.059548 1.998487 -0.071015
v 0.010509 2.500196 0.022402
v 0.010537 2.498713 -0.052583
v -0.054119 2.493117 -0.014989
v 0.062434 2.342548 0.020636
v -0.028737 2.459998 -0.486094
v -0.043764 2.474845 -0.480598
v 0.062434 2.342548 0.020636
v -0.043764 2.474845 -0.480598
v 0.026654 2.377899 0.033721
v 0.026015 2.342078 0.025534
v 0.062434 2.342548 0.020636
v 0.026654 2.377899 0.033721
v -0.044033 2.459800 -0.484037
v -0.043764 2.474845 -0.480598
v -0.028737 2.459998 -0.486094
v 0.026654 2.377899 0.033721
v -0.043764 2.474845 -0.480598
v -0.059329 2.459603 -0.481980
v 0.026654 2.377899 0.033721
v -0.059329 2.459603 -0.481980
v -0.010404 2.341608 0.030432
v 0.026015 2.342078 0.025534
v 0.026654 2.377899 0.033721
v -0.010404 2.341608 0.030432
v -0.044033 2.459800 -0.484037
v -0.059329 2.459603 -0.481980
v -0.043764 2.474845 -0.480598
v -0.010404 2.341608 0.030432
v -0.059329 2.459603 -0.481980
v -0.044301 2.444755 -0.487475
v -0.010404 2.341608 0.030432
v -0.044301 2.444755 -0.487475
v 0.025376 2.306257 0.017346
v 0.026015 2.342078 0.025534
v -0.010404 2.341608 0.030432
v 0.025376 2.306257 0.017346
v -0.044033 2.459800 -0.484037
v -0.044301 2.444755 -0.487475
v -0.059329 2.459603 -0.481980
v 0.025376 2.306257 0.017346
v -0.044301 2.444755 -0.487475
v -0.028737 2.459998 -0.486094
v 0.025376 2.306257 0.017346
v -0.028737 2.459998 -0.486094
v 0.062434 2.342548 0.020636
v 0.026015 2.342078 0.025534
v 0.025376 2.306257 0.017346
v 0.062434 2.342548 0.020636
v -0.044033 2.459800 -0.484037
v -0.028737 2.459998 -0.486094
v -0.044301 2.444755 -0.487475
v -0.018444 2.435056 -0.388748
v -0.155536 2.520223 -0.488555
v -0.158179 2.528102 -0.478915
v -0.018444 2.435056 -0.388748
v -0.158179 2.528102 -0.478915
v -0.023408 2.449856 -0.370640
v -0.029134 2.434762 -0.375655
v -0.018444 2.435056 -0.388748
v -0.023408 2.449856 -0.370640
v -0.161227 2.520066 -0.481585
v -0.158179 2.528102 -0.478915
v -0.155536 2.520223 -0.488555
v -0.023408 2.449856 -0.370640
v -0.158179 2.528102 -0.478915
v -0.166919 2.519909 -0.474614
v -0.023408 2.449856 -0.370640
v -0.166919 2.519909 -0.474614
v -0.039824 2.434467 -0.362562
v -0.029134 2.434762 -0.375655
v -0.023408 2.449856 -0.370640
v -0.039824 2.434467 -0.362562
v -0.161227 2.520066 -0.481585
v -0.166919 2.519909 -0.474614
v -0.158179 2.528102 -0.478915
v -0.039824 2.434467 -0.362562
v -0.166919 2.519909 -0.474614
v -0.164276 2.512030 -0.484255
v -0.039824 2.434467 -0.362562
v -0.164276 2.512030 -0.484255
v -0.034860 2.419667 -0.380670
v -0.029134 2.434762 -0.375655
v -0.039824 2.434467 -0.362562
v -0.034860 2.419667 -0.380670
v -0.161227 2.520066 -0.481585
v -0.164276 2.512030 -0.484255
v -0.166919 2.519909 -0.474614
v -0.034860 2.419667 -0.380670
v -0.164276 2.512030 -0.484255
v -0.155536 2.520223 -0.488555
v -0.034860 2.419667 -0.380670
v -0.155536 2.520223 -0.488555
v -0.018444 2.435056 -0.388748
v -0.029134 2.434762 -0.375655
v -0.034860 2.419667 -0.380670
v -0.018444 2.435056 -0.388748
v -0.161227 2.520066 -0.481585
v -0.155536 2.520223 -0.488555
v -0.164276 2.512030 -0.484255
v 0.007144 2.400762 -0.233134
v -0.069415 2.508830 -0.416877
v -0.076527 2.516599 -0.409731
v 0.007144 2.400762 -0.233134
v -0.076527 2.516599 -0.409731
v -0.006215 2.415355 -0.219712
v -0.008753 2.400508 -0.227387
v 0.007144 2.400762 -0.233134
v -0.006215 2.415355 -0.219712
v -0.077878 2.508695 -0.413817
v -0.076527 2.516599 -0.409731
v -0.069415 2.508830 -0.416877
v -0.006215 2.415355 -0.219712
v -0.076527 2.516599 -0.409731
v -0.086340 2.508560 -0.410758
v -0.006215 2.415355 -0.219712
v -0.086340 2.508560 -0.410758
v -0.024649 2.400255 -0.221641
v -0.008753 2.400508 -0.227387
v -0.006215 2.415355 -0.219712
v -0.024649 2.400255 -0.221641
v -0.077878 2.508695 -0.413817
v -0.086340 2.508560 -0.410758
v -0.076527 2.516599 -0.409731
v -0.024649 2.400255 -0.221641
v -0.086340 2.508560 -0.410758
v -0.079229 2.500791 -0.417903
v -0.024649 2.400255 -0.221641
v -0.079229 2.500791 -0.417903
v -0.011290 2.385661 -0.235062
v -0.008753 2.400508 -0.227387
v -0.024649 2.400255 -0.221641
v -0.011290 2.385661 -0.235062
v -0.077878 2.508695 -0.413817
v -0.079229 2.500791 -0.417903
v -0.086340 2.508560 -0.410758
v -0.011290 2.385661 -0.235062
v -0.079229 2.500791 -0.417903
v -0.069415 2.508830 -0.416877
v -0.011290 2.385661 -0.235062
v -0.069415 2.508830 -0.416877
v 0.007144 2.400762 -0.233134
v -0.008753 2.400508 -0.227387
v -0.011290 2.385661 -0.235062
v 0.007144 2.400762 -0.233134
v -0.077878 2.508695 -0.413817
v -0.069415 2.508830 -0.416877
v -0.079229 2.500791 -0.417903
v 0.029175 2.395566 0.060232
v 0.360580 2.549711 -0.038240
v 0.350949 2.563970 -0.051672
v 0.029175 2.395566 0.060232
v 0.350949 2.563970 -0.051672
v 0.006246 2.429516 0.028251
v 0.020732 2.395954 0.024467
v 0.029175 2.395566 0.060232
v 0.006246 2.429516 0.028251
v 0.357033 2.549874 -0.053261
v 0.350949 2.563970 -0.051672
v 0.360580 2.549711 -0.038240
v 0.006246 2.429516 0.028251
v 0.350949 2.563970 -0.051672
v 0.353487 2.550037 -0.068282
v 0.006246 2.429516 0.028251
v 0.353487 2.550037 -0.068282
v 0.012288 2.396342 -0.011298
v 0.020732 2.395954 0.024467
v 0.006246 2.429516 0.028251
v 0.012288 2.396342 -0.011298
v 0.357033 2.549874 -0.053261
v 0.353487 2.550037 -0.068282
v 0.350949 2.563970 -0.051672
v 0.012288 2.396342 -0.011298
v 0.353487 2.550037 -0.068282
v 0.363118 2.535778 -0.054850
v 0.012288 2.396342 -0.011298
v 0.363118 2.535778 -0.054850
v 0.035218 2.362392 0.020682
v 0.020732 2.395954 0.024467
v 0.012288 2.396342 -0.011298
v 0.035218 2.362392 0.020682
v 0.357033 2.549874 -0.053261
v 0.363118 2.535778 -0.054850
v 0.353487 2.550037 -0.068282
v 0.035218 2.362392 0.020682
v 0.363118 2.535778 -0.054850
v 0.360580 2.549711 -0.038240
v 0.035218 2.362392 0.020682
v 0.360580 2.549711 -0.038240
v 0.029175 2.395566 0.060232
v 0.020732 2.395954 0.024467
v 0.035218 2.362392 0.020682
v 0.029175 2.395566 0.060232
v 0.357033 2.549874 -0.053261
v 0.360580 2.549711 -0.038240
v 0.363118 2.535778 -0.054850
v 0.237560 2.499476 -0.014334
v 0.346954 2.558340 0.057436
v 0.349220 2.566704 0.048114
v 0.237560 2.499476 -0.014334
v 0.349220 2.566704 0.048114
v 0.241816 2.515187 -0.031845
v 0.247562 2.499771 -0.027959
v 0.237560 2.499476 -0.014334
v 0.241816 2.515187 -0.031845
v 0.352280 2.558496 0.050183
v 0.349220 2.566704 0.048114
v 0.346954 2.558340 0.057436
v 0.241816 2.515187 -0.031845
v 0.349220 2.566704 0.048114
v 0.357605 2.558653 0.042929
v 0.241816 2.515187 -0.031845
v 0.357605 2.558653 0.042929
v 0.257565 2.500065 -0.041585
v 0.247562 2.499771 -0.027959
v 0.241816 2.515187 -0.031845
v 0.257565 2.500065 -0.041585
v 0.352280 2.558496 0.050183
v 0.357605 2.558653 0.042929
v 0.349220 2.566704 0.048114
v 0.257565 2.500065 -0.041585
v 0.357605 2.558653 0.042929
v 0.355339 2.550289 0.052251
v 0.257565 2.500065 -0.041585
v 0.355339 2.550289 0.052251
v 0.253309 2.484354 -0.024074
v 0.247562 2.499771 -0.027959
v 0.257565 2.500065 -0.041585
v 0.253309 2.484354 -0.024074
v 0.352280 2.558496 0.050183
v 0.355339 2.550289 0.052251
v 0.357605 2.558653 0.042929
v 0.253309 2.484354 -0.024074
v 0.355339 2.550289 0.052251
v 0.346954 2.558340 0.057436
v 0.253309 2.484354 -0.024074
v 0.346954 2.558340 0.057436
v 0.237560 2.499476 -0.014334
v 0.247562 2.499771 -0.027959
v 0.253309 2.484354 -0.024074
v 0.237560 2.499476 -0.014334
v 0.352280 2.558496 0.050183
v 0.346954 2.558340 0.057436
v 0.355339 2.550289 0.052251
v 0.292791 2.513552 -0.027637
v 0.353833 2.595939 -0.175562
v 0.343903 2.603899 -0.175707
v 0.292791 2.513552 -0.027637
v 0.343903 2.603899 -0.175707
v 0.274139 2.528505 -0.027909
v 0.277518 2.513481 -0.034883
v 0.292791 2.513552 -0.027637
v 0.274139 2.528505 -0.027909
v 0.345702 2.595901 -0.179420
v 0.343903 2.603899 -0.175707
v 0.353833 2.595939 -0.175562
v 0.274139 2.528505 -0.027909
v 0.343903 2.603899 -0.175707
v 0.337571 2.595862 -0.183277
v 0.274139 2.528505 -0.027909
v 0.337571 2.595862 -0.183277
v 0.262244 2.513409 -0.042129
v 0.277518 2.513481 -0.034883
v 0.274139 2.528505 -0.027909
v 0.262244 2.513409 -0.042129
v 0.345702 2.595901 -0.179420
v 0.337571 2.595862 -0.183277
v 0.343903 2.603899 -0.175707
v 0.262244 2.513409 -0.042129
v 0.337571 2.595862 -0.183277
v 0.347501 2.587902 -0.183132
v 0.262244 2.513409 -0.042129
v 0.347501 2.587902 -0.183132
v 0.280896 2.498456 -0.041856
v 0.277518 2.513481 -0.034883
v 0.262244 2.513409 -0.042129
v 0.280896 2.498456 -0.041856
v 0.345702 2.595901 -0.179420
v 0.347501 2.587902 -0.183132
v 0.337571 2.595862 -0.183277
v 0.280896 2.498456 -0.041856
v 0.347501 2.587902 -0.183132
v 0.353833 2.595939 -0.175562
v 0.280896 2.498456 -0.041856
v 0.353833 2.595939 -0.175562
v 0.292791 2.513552 -0.027637
v 0.277518 2.513481 -0.034883
v 0.280896 2.498456 -0.041856
v 0.292791 2.513552 -0.027637
v 0.345702 2.595901 -0.179420
v 0.353833 2.595939 -0.175562
v 0.347501 2.587902 -0.183132
v 0.003232 2.219415 0.039872
v 0.150741 2.402680 0.412710
v 0.163063 2.416947 0.401704
v 0.003232 2.219415 0.039872
v 0.163063 2.416947 0.401704
v 0.032567 2.253384 0.013669
v 0.037991 2.219961 0.027952
v 0.003232 2.219415 0.039872
v 0.032567 2.253384 0.013669
v 0.165340 2.402909 0.407703
v 0.163063 2.416947 0.401704
v 0.150741 2.402680 0.412710
v 0.032567 2.253384 0.013669
v 0.163063 2.416947 0.401704
v 0.179939 2.403138 0.402697
v 0.032567 2.253384 0.013669
v 0.179939 2.403138 0.402697
v 0.072750 2.220507 0.016033
v 0.037991 2.219961 0.027952
v 0.032567 2.253384 0.013669
v 0.072750 2.220507 0.016033
v 0.165340 2.402909 0.407703
v 0.179939 2.403138 0.402697
v 0.163063 2.416947 0.401704
v 0.072750 2.220507 0.016033
v 0.179939 2.403138 0.402697
v 0.167618 2.388871 0.413702
v 0.072750 2.220507 0.016033
v 0.167618 2.388871 0.413702
v 0.043414 2.186537 0.042236
v 0.037991 2.219961 0.027952
v 0.072750 2.220507 0.016033
v 0.043414 2.186537 0.042236
v 0.165340 2.402909 0.407703
v 0.167618 2.388871 0.413702
v 0.179939 2.403138 0.402697
v 0.043414 2.186537 0.042236
v 0.167618 2.388871 0.413702
v 0.150741 2.402680 0.412710
v 0.043414 2.186537 0.042236
v 0.150741 2.402680 0.412710
v 0.003232 2.219415 0.039872
v 0.037991 2.219961 0.027952
v 0.043414 2.186537 0.042236
v 0.003232 2.219415 0.039872
v 0.165340 2.402909 0.407703
v 0.150741 2.402680 0.412710
v 0.167618 2.388871 0.413702
v 0.092800 2.322497 0.243741
v 0.132093 2.441881 0.463889
v 0.140266 2.449937 0.458385
v 0.092800 2.322497 0.243741
v 0.140266 2.449937 0.458385
v 0.108152 2.337629 0.233402
v 0.109518 2.322716 0.241245
v 0.092800 2.322497 0.243741
v 0.108152 2.337629 0.233402
v 0.140993 2.441998 0.462561
v 0.140266 2.449937 0.458385
v 0.132093 2.441881 0.463889
v 0.108152 2.337629 0.233402
v 0.140266 2.449937 0.458385
v 0.149894 2.442114 0.461232
v 0.108152 2.337629 0.233402
v 0.149894 2.442114 0.461232
v 0.126237 2.322935 0.238749
v 0.109518 2.322716 0.241245
v 0.108152 2.337629 0.233402
v 0.126237 2.322935 0.238749
v 0.140993 2.441998 0.462561
v 0.149894 2.442114 0.461232
v 0.140266 2.449937 0.458385
v 0.126237 2.322935 0.238749
v 0.149894 2.442114 0.461232
v 0.141721 2.434058 0.466736
v 0.126237 2.322935 0.238749
v 0.141721 2.434058 0.466736
v 0.110885 2.307803 0.249088
v 0.109518 2.322716 0.241245
v 0.126237 2.322935 0.238749
v 0.110885 2.307803 0.249088
v 0.140993 2.441998 0.462561
v 0.141721 2.434058 0.466736
v 0.149894 2.442114 0.461232
v 0.110885 2.307803 0.249088
v 0.141721 2.434058 0.466736
v 0.132093 2.441881 0.463889
v 0.110885 2.307803 0.249088
v 0.132093 2.441881 0.463889
v 0.092800 2.322497 0.243741
v 0.109518 2.322716 0.241245
v 0.110885 2.307803 0.249088
v 0.092800 2.322497 0.243741
v 0.140993 2.441998 0.462561
v 0.132093 2.441881 0.463889
v 0.141721 2.434058 0.466736
v 0.105232 2.338925 0.268629
v 0.065261 2.389896 0.385683
v 0.074850 2.398262 0.385922
v 0.105232 2.338925 0.268629
v 0.074850 2.398262 0.385922
v 0.123244 2.354639 0.269079
v 0.120862 2.339011 0.275070
v 0.105232 2.338925 0.268629
v 0.123244 2.354639 0.269079
v 0.073582 2.389942 0.389112
v 0.074850 2.398262 0.385922
v 0.065261 2.389896 0.385683
v 0.123244 2.354639 0.269079
v 0.074850 2.398262 0.385922
v 0.081903 2.389988 0.392541
v 0.123244 2.354639 0.269079
v 0.081903 2.389988 0.392541
v 0.136491 2.339098 0.281511
v 0.120862 2.339011 0.275070
v 0.123244 2.354639 0.269079
v 0.136491 2.339098 0.281511
v 0.073582 2.389942 0.389112
v 0.081903 2.389988 0.392541
v 0.074850 2.398262 0.385922
v 0.136491 2.339098 0.281511
v 0.081903 2.389988 0.392541
v 0.072314 2.381622 0.392301
v 0.136491 2.339098 0.281511
v 0.072314 2.381622 0.392301
v 0.118479 2.323385 0.281061
v 0.120862 2.339011 0.275070
v 0.136491 2.339098 0.281511
v 0.118479 2.323385 0.281061
v 0.073582 2.389942 0.389112
v 0.072314 2.381622 0.392301
v 0.081903 2.389988 0.392541
v 0.118479 2.323385 0.281061
v 0.072314 2.381622 0.392301
v 0.065261 2.389896 0.385683
v 0.118479 2.323385 0.281061
v 0.065261 2.389896 0.385683
v 0.105232 2.338925 0.268629
v 0.120862 2.339011 0.275070
v 0.118479 2.323385 0.281061
v 0.105232 2.338925 0.268629
v 0.073582 2.389942 0.389112
v 0.065261 2.389896 0.385683
v 0.072314 2.381622 0.392301
v 0.128839 2.355047 0.325460
v 0.279576 2.430489 0.349210
v 0.277436 2.438695 0.339720
v 0.128839 2.355047 0.325460
v 0.277436 2.438695 0.339720
v 0.124819 2.370461 0.307633
v 0.132205 2.355307 0.308895
v 0.128839 2.355047 0.325460
v 0.124819 2.370461 0.307633
v 0.281368 2.430627 0.340392
v 0.277436 2.438695 0.339720
v 0.279576 2.430489 0.349210
v 0.124819 2.370461 0.307633
v 0.277436 2.438695 0.339720
v 0.283160 2.430766 0.331573
v 0.124819 2.370461 0.307633
v 0.283160 2.430766 0.331573
v 0.135571 2.355568 0.292331
v 0.132205 2.355307 0.308895
v 0.124819 2.370461 0.307633
v 0.135571 2.355568 0.292331
v 0.281368 2.430627 0.340392
v 0.283160 2.430766 0.331573
v 0.277436 2.438695 0.339720
v 0.135571 2.355568 0.292331
v 0.283160 2.430766 0.331573
v 0.285300 2.422560 0.341064
v 0.135571 2.355568 0.292331
v 0.285300 2.422560 0.341064
v 0.139590 2.340153 0.310158
v 0.132205 2.355307 0.308895
v 0.135571 2.355568 0.292331
v 0.139590 2.340153 0.310158
v 0.281368 2.430627 0.340392
v 0.285300 2.422560 0.341064
v 0.283160 2.430766 0.331573
v 0.139590 2.340153 0.310158
v 0.285300 2.422560 0.341064
v 0.279576 2.430489 0.349210
v 0.139590 2.340153 0.310158
v 0.279576 2.430489 0.349210
v 0.128839 2.355047 0.325460
v 0.132205 2.355307 0.308895
v 0.139590 2.340153 0.310158
v 0.128839 2.355047 0.325460
v 0.281368 2.430627 0.340392
v 0.279576 2.430489 0.349210
v 0.285300 2.422560 0.341064
v 0.017438 2.274117 -0.006541
v -0.385847 2.490985 0.202939
v -0.373332 2.504791 0.214308
v 0.017438 2.274117 -0.006541
v -0.373332 2.504791 0.214308
v 0.047233 2.306990 0.020529
v 0.032707 2.273837 0.026885
v 0.017438 2.274117 -0.006541
v 0.047233 2.306990 0.020529
v -0.379433 2.490866 0.216978
v -0.373332 2.504791 0.214308
v -0.385847 2.490985 0.202939
v 0.047233 2.306990 0.020529
v -0.373332 2.504791 0.214308
v -0.373020 2.490749 0.231017
v 0.047233 2.306990 0.020529
v -0.373020 2.490749 0.231017
v 0.047977 2.273556 0.060312
v 0.032707 2.273837 0.026885
v 0.047233 2.306990 0.020529
v 0.047977 2.273556 0.060312
v -0.379433 2.490866 0.216978
v -0.373020 2.490749 0.231017
v -0.373332 2.504791 0.214308
v 0.047977 2.273556 0.060312
v -0.373020 2.490749 0.231017
v -0.385534 2.476942 0.219648
v 0.047977 2.273556 0.060312
v -0.385534 2.476942 0.219648
v 0.018181 2.240683 0.033242
v 0.032707 2.273837 0.026885
v 0.047977 2.273556 0.060312
v 0.018181 2.240683 0.033242
v -0.379433 2.490866 0.216978
v -0.385534 2.476942 0.219648
v -0.373020 2.490749 0.231017
v 0.018181 2.240683 0.033242
v -0.385534 2.476942 0.219648
v -0.385847 2.490985 0.202939
v 0.018181 2.240683 0.033242
v -0.385847 2.490985 0.202939
v 0.017438 2.274117 -0.006541
v 0.032707 2.273837 0.026885
v 0.018181 2.240683 0.033242
v 0.017438 2.274117 -0.006541
v -0.379433 2.490866 0.216978
v -0.385847 2.490985 0.202939
v -0.385534 2.476942 0.219648
v -0.165822 2.371235 0.102089
v -0.270373 2.463203 0.255110
v -0.260772 2.471271 0.257285
v -0.165822 2.371235 0.102089
v -0.260772 2.471271 0.257285
v -0.147788 2.386389 0.106176
v -0.152279 2.371249 0.112207
v -0.165822 2.371235 0.102089
v -0.147788 2.386389 0.106176
v -0.263163 2.463210 0.260496
v -0.260772 2.471271 0.257285
v -0.270373 2.463203 0.255110
v -0.147788 2.386389 0.106176
v -0.260772 2.471271 0.257285
v -0.255953 2.463218 0.265883
v -0.147788 2.386389 0.106176
v -0.255953 2.463218 0.265883
v -0.138736 2.371263 0.122325
v -0.152279 2.371249 0.112207
v -0.147788 2.386389 0.106176
v -0.138736 2.371263 0.122325
v -0.263163 2.463210 0.260496
v -0.255953 2.463218 0.265883
v -0.260772 2.471271 0.257285
v -0.138736 2.371263 0.122325
v -0.255953 2.463218 0.265883
v -0.265554 2.455150 0.263707
v -0.138736 2.371263 0.122325
v -0.265554 2.455150 0.263707
v -0.156770 2.356109 0.118238
v -0.152279 2.371249 0.112207
v -0.138736 2.371263 0.122325
v -0.156770 2.356109 0.118238
v -0.263163 2.463210 0.260496
v -0.265554 2.455150 0.263707
v -0.255953 2.463218 0.265883
v -0.156770 2.356109 0.118238
v -0.265554 2.455150 0.263707
v -0.270373 2.463203 0.255110
v -0.156770 2.356109 0.118238
v -0.270373 2.463203 0.255110
v -0.165822 2.371235 0.102089
v -0.152279 2.371249 0.112207
v -0.156770 2.356109 0.118238
v -0.165822 2.371235 0.102089
v -0.263163 2.463210 0.260496
v -0.270373 2.463203 0.255110
v -0.265554 2.455150 0.263707
v -0.195417 2.390719 0.113504
v -0.391613 2.503617 0.203727
v -0.384305 2.511515 0.210524
v -0.195417 2.390719 0.113504
v -0.384305 2.511515 0.210524
v -0.181690 2.405556 0.126271
v -0.188989 2.390580 0.129139
v -0.195417 2.390719 0.113504
v -0.181690 2.405556 0.126271
v -0.388191 2.503542 0.212050
v -0.384305 2.511515 0.210524
v -0.391613 2.503617 0.203727
v -0.181690 2.405556 0.126271
v -0.384305 2.511515 0.210524
v -0.384769 2.503468 0.220374
v -0.181690 2.405556 0.126271
v -0.384769 2.503468 0.220374
v -0.182561 2.390441 0.144773
v -0.188989 2.390580 0.129139
v -0.181690 2.405556 0.126271
v -0.182561 2.390441 0.144773
v -0.388191 2.503542 0.212050
v -0.384769 2.503468 0.220374
v -0.384305 2.511515 0.210524
v -0.182561 2.390441 0.144773
v -0.384769 2.503468 0.220374
v -0.392077 2.495569 0.213577
v -0.182561 2.390441 0.144773
v -0.392077 2.495569 0.213577
v -0.196288 2.375604 0.132007
v -0.188989 2.390580 0.129139
v -0.182561 2.390441 0.144773
v -0.196288 2.375604 0.132007
v -0.388191 2.503542 0.212050
v -0.392077 2.495569 0.213577
v -0.384769 2.503468 0.220374
v -0.196288 2.375604 0.132007
v -0.392077 2.495569 0.213577
v -0.391613 2.503617 0.203727
v -0.196288 2.375604 0.132007
v -0.391613 2.503617 0.203727
v -0.195417 2.390719 0.113504
v -0.188989 2.390580 0.129139
v -0.196288 2.375604 0.132007
v -0.195417 2.390719 0.113504
v -0.388191 2.503542 0.212050
v -0.391613 2.503617 0.203727
v -0.392077 2.495569 0.213577
v -0.223190 2.410165 0.129355
v -0.466639 2.455205 0.101481
v -0.466381 2.463921 0.110753
v -0.223190 2.410165 0.129355
v -0.466381 2.463921 0.110753
v -0.222704 2.426534 0.146772
v -0.225699 2.409911 0.146071
v -0.223190 2.410165 0.129355
v -0.222704 2.426534 0.146772
v -0.467975 2.455070 0.110380
v -0.466381 2.463921 0.110753
v -0.466639 2.455205 0.101481
v -0.222704 2.426534 0.146772
v -0.466381 2.463921 0.110753
v -0.469311 2.454936 0.119279
v -0.222704 2.426534 0.146772
v -0.469311 2.454936 0.119279
v -0.228209 2.409658 0.162787
v -0.225699 2.409911 0.146071
v -0.222704 2.426534 0.146772
v -0.228209 2.409658 0.162787
v -0.467975 2.455070 0.110380
v -0.469311 2.454936 0.119279
v -0.466381 2.463921 0.110753
v -0.228209 2.409658 0.162787
v -0.469311 2.454936 0.119279
v -0.469570 2.446221 0.110006
v -0.228209 2.409658 0.162787
v -0.469570 2.446221 0.110006
v -0.228694 2.393288 0.145370
v -0.225699 2.409911 0.146071
v -0.228209 2.409658 0.162787
v -0.228694 2.393288 0.145370
v -0.467975 2.455070 0.110380
v -0.469570 2.446221 0.110006
v -0.469311 2.454936 0.119279
v -0.228694 2.393288 0.145370
v -0.469570 2.446221 0.110006
v -0.466639 2.455205 0.101481
v -0.228694 2.393288 0.145370
v -0.466639 2.455205 0.101481
v -0.223190 2.410165 0.129355
v -0.225699 2.409911 0.146071
v -0.228694 2.393288 0.145370
v -0.223190 2.410165 0.129355
v -0.467975 2.455070 0.110380
v -0.466639 2.455205 0.101481
v -0.469570 2.446221 0.110006
f 1 2 3
f 4 5 6
f 7 8 9
f 10 11 12
f 13 14 15
f 16 17 18
f 19 20 21
f 22 23 24
f 25 26 27
f 28 29 30
f 31 32 33
f 34 35 36
f 37 38 39
f 40 41 42
f 43 44 45
f 46 47 48
f 49 50 51
f 52 53 54
f 55 56 57
f 58 59 60
f 61 62 63
f 64 65 66
f 67 68 69
f 70 71 72
f 73 74 75
f 76 77 78
f 79 80 81
f 82 83 84
f 85 86 87
f 88 89 90
f 91 92 93
f 94 95 96
f 97 98 99
f 100 101 102
f 103 104 105
f 106 107 108
f 109 110 111
f 112 113 114
f 115 116 117
f 118 119 120
f 121 122 123
f 124 125 126
f 127 128 129
f 130 131 132
f 133 134 135
f 136 137 138
f 139 140 141
f 142 143 144
f 145 146 147
f 148 149 150
f 151 152 153
f 154 155 156
f 157 158 159
f 160 161 162
f 163 164 165
f 166 167 168
f 169 170 171
f 172 173 174
f 175 176 177
f 178 179 180
f 181 182 183
f 184 185 186
f 187 188 189
f 190 191 192
f 193 194 195
f 196 197 198
f 199 200 201
f 202 203 204
f 205 206 207
f 208 209 210
f 211 212 213
f 214 215 216
f 217 218 219
f 220 221 222
f 223 224 225
f 226 227 228
f 229 230 231
f 232 233 234
f 235 236 237
f 238 239 240
f 241 242 243
f 244 245 246
f 247 248 249
f 250 251 252
f 253 254 255
f 256 257 258
f 259 260 261
f 262 263 264
f 265 266 267
f 268 269 270
f 271 272 273
f 274 275 276
f 277 278 279
f 280 281 282
f 283 284 285
f 286 287 288
f 289 290 291
f 292 293 294
f 295 296 297
f 298 299 300
f 301 302 303
f 304 305 306
f 307 308 309
f 310 311 312
f 313 314 315
f 316 317 318
f 319 320 321
f 322 323 324
f 325 326 327
f 328 329 330
f 331 332 333
f 334 335 336
f 337 338 339
f 340 341 342
f 343 344 345
f 346 347 348
f 349 350 351
f 352 353 354
f 355 356 357
f 358 359 360
f 361 362 363
f 364 365 366
f 367 368 369
f 370 371 372
f 373 374 375
f 376 377 378
f 379 380 381
f 382 383 384
f 385 386 387
f 388 389 390
f 391 392 393
f 394 395 396
f 397 398 399
f 400 401 402
f 403 404 405
f 406 407 408
f 409 410 411
f 412 413 414
f 415 416 417
f 418 419 420
f 421 422 423
f 424 425 426
f 427 428 429
f 430 431 432
f 433 434 435
f 436 437 438
f 439 440 441
f 442 443 444
f 445 446 447
f 448 449 450
f 451 452 453
f 454 455 456
f 457 458 459
f 460 461 462
f 463 464 465
f 466 467 468
f 469 470 471
f 472 473 474
f 475 476 477
f 478 479 480
f 481 482 483
f 484 485 486
f 487 488 489
f 490 491 492
f 493 494 495
f 496 497 498
f 499 500 501
f 502 503 504
f 505 506 507
f 508 509 510
f 511 512 513
f 514 515 516
f 517 518 519
f 520 521 522
f 523 524 525
f 526 527 528
f 529 530 531
f 532 533 534
f 535 536 537
f 538 539 540
f 541 542 543
f 544 545 546
f 547 548 549
f 550 551 552
f 553 554 555
f 556 557 558
f 559 560 561
f 562 563 564
f 565 566 567
f 568 569 570
f 571 572 573
f 574 575 576
f 577 578 579
f 580 581 582
f 583 584 585
f 586 587 588
f 589 590 591
f 592 593 594
f 595 596 597
f 598 599 600
f 601 602 603
f 604 605 606
f 607 608 609
f 610 611 612
f 613 614 615
f 616 617 618
f 619 620 621
f 622 623 624
f 625 626 627
f 628 629 630
f 631 632 633
f 634 635 636
f 637 638 639
f 640 641 642
f 643 644 645
f 646 647 648
f 649 650 651
f 652 653 654
f 655 656 657
f 658 659 660
f 661 662 663
f 664 665 666
f 667 668 669
f 670 671 672
f 673 674 675
f 676 677 678
f 679 680 681
f 682 683 684
f 685 686 687
f 688 689 690
f 691 692 693
f 694 695 696
f 697 698 699
f 700 701 702
f 703 704 705
f 706 707 708
f 709 710 711
f 712 713 714
f 715 716 717
f 718 719 720
f 721 722 723
f 724 725 726
f 727 728 729
f 730 731 732
f 733 734 735
f 736 737 738
f 739 740 741
f 742 743 744
f 745 746 747
f 748 749 750
f 751 752 753
f 754 755 756
f 757 758 759
f 760 761 762
f 763 764 765
f 766 767 768
f 769 770 771
f 772 773 774
f 775 776 777
f 778 779 780
f 781 782 783
f 784 785 786
f 787 788 789
f 790 791 792
f 793 794 795
f 796 797 798
f 799 800 801
f 802 803 804
f 805 806 807
f 808 809 810
f 811 812 813
f 814 815 816
f 817 818 819
f 820 821 822
f 823 824 825
f 826 827 828
f 829 830 831
f 832 833 834
f 835 836 837
f 838 839 840
f 841 842 843
f 844 845 846
f 847 848 849
f 850 851 852
f 853 854 855
f 856 857 858
f 859 860 861
f 862 863 864
f 865 866 867
f 868 869 870
f 871 872 873
f 874 875 876
f 877 878 879
f 880 881 882
f 883 884 885
f 886 887 888
f 889 890 891
f 892 893 894
f 895 896 897
f 898 899 900
f 901 902 903
f 904 905 906
f 907 908 909
f 910 911 912
f 913 914 915
f 916 917 918
f 919 920 921
f 922 923 924
f 925 926 927
f 928 929 930
f 931 932 933
f 934 935 936
f 937 938 939
f 940 941 942
f 943 944 945
f 946 947 948
f 949 950 951
f 952 953 954
f 955 956 957
f 958 959 960

o TreeFoliage
v 0.012273 2.341135 0.020259
v 0.184173 2.418923 0.021307
v 0.133578 2.416763 0.139922
v 0.012273 2.341135 0.020259
v 0.133578 2.416763 0.139922
v 0.012273 2.341135 0.020259
v 0.012273 2.341135 0.020259
v 0.133578 2.416763 0.139922
v 0.011432 2.414747 0.189039
v 0.012273 2.341135 0.020259
v 0.011432 2.414747 0.189039
v 0.012273 2.341135 0.020259
v 0.012273 2.341135 0.020259
v 0.011432 2.414747 0.189039
v -0.110715 2.414054 0.139885
v 0.012273 2.341135 0.020259
v -0.110715 2.414054 0.139885
v 0.012273 2.341135 0.020259
v 0.012273 2.341135 0.020259
v -0.110715 2.414054 0.139885
v -0.161310 2.415092 0.021256
v 0.012273 2.341135 0.020259
v -0.161310 2.415092 0.021256
v 0.012273 2.341135 0.020259
v 0.012273 2.341135 0.020259
v -0.161310 2.415092 0.021256
v -0.110715 2.417251 -0.097359
v 0.012273 2.341135 0.020259
v -0.110715 2.417251 -0.097359
v 0.012273 2.341135 0.020259
v 0.012273 2.341135 0.020259
v -0.110715 2.417251 -0.097359
v 0.011432 2.419267 -0.146476
v 0.012273 2.341135 0.020259
v 0.011432 2.419267 -0.146476
v 0.012273 2.341135 0.020259
v 0.012273 2.341135 0.020259
v 0.011432 2.419267 -0.146476
v 0.133578 2.419960 -0.097323
v 0.012273 2.341135 0.020259
v 0.133578 2.419960 -0.097323
v 0.012273 2.341135 0.020259
v 0.012273 2.341135 0.020259
v 0.133578 2.419960 -0.097323
v 0.184173 2.418923 0.021307
v 0.012273 2.341135 0.020259
v 0.184173 2.418923 0.021307
v 0.012273 2.341135 0.020259
v 0.184173 2.418923 0.021307
v 0.253693 2.602889 0.023786
v 0.182141 2.599835 0.191533
v 0.184173 2.418923 0.021307
v 0.182141 2.599835 0.191533
v 0.133578 2.416763 0.139922
v 0.133578 2.416763 0.139922
v 0.182141 2.599835 0.191533
v 0.009400 2.596983 0.260994
v 0.133578 2.416763 0.139922
v 0.009400 2.596983 0.260994
v 0.011432 2.414747 0.189039
v 0.011432 2.414747 0.189039
v 0.009400 2.596983 0.260994
v -0.163341 2.596004 0.191481
v 0.011432 2.414747 0.189039
v -0.163341 2.596004 0.191481
v -0.110715 2.414054 0.139885
v -0.110715 2.414054 0.139885
v -0.163341 2.596004 0.191481
v -0.234893 2.597471 0.023713
v -0.110715 2.414054 0.139885
v -0.234893 2.597471 0.023713
v -0.161310 2.415092 0.021256
v -0.161310 2.415092 0.021256
v -0.234893 2.597471 0.023713
v -0.163341 2.600525 -0.144034
v -0.161310 2.415092 0.021256
v -0.163341 2.600525 -0.144034
v -0.110715 2.417251 -0.097359
v -0.110715 2.417251 -0.097359
v -0.163341 2.600525 -0.144034
v 0.009400 2.603377 -0.213495
v -0.110715 2.417251 -0.097359
v 0.009400 2.603377 -0.213495
v 0.011432 2.419267 -0.146476
v 0.011432 2.419267 -0.146476
v 0.009400 2.603377 -0.213495
v 0.182141 2.604356 -0.143982
v 0.011432 2.419267 -0.146476
v 0.182141 2.604356 -0.143982
v 0.133578 2.419960 -0.097323
v 0.133578 2.419960 -0.097323
v 0.182141 2.604356 -0.143982
v 0.253693 2.602889 0.023786
v 0.133578 2.419960 -0.097323
v 0.253693 2.602889 0.023786
v 0.184173 2.418923 0.021307
v 0.253693 2.602889 0.023786
v 0.180110 2.785269 0.026243
v 0.129515 2.783109 0.144858
v 0.253693 2.602889 0.023786
v 0.129515 2.783109 0.144858
v 0.182141 2.599835 0.191533
v 0.182141 2.599835 0.191533
v 0.129515 2.783109 0.144858
v 0.007369 2.781093 0.193975
v 0.182141 2.599835 0.191533
v 0.007369 2.781093 0.193975
v 0.009400 2.596983 0.260994
v 0.009400 2.596983 0.260994
v 0.007369 2.781093 0.193975
v -0.114778 2.780400 0.144822
v 0.009400 2.596983 0.260994
v -0.114778 2.780400 0.144822
v -0.163341 2.596004 0.191481
v -0.163341 2.596004 0.191481
v -0.114778 2.780400 0.144822
v -0.165373 2.781438 0.026192
v -0.163341 2.596004 0.191481
v -0.165373 2.781438 0.026192
v -0.234893 2.597471 0.023713
v -0.234893 2.597471 0.023713
v -0.165373 2.781438 0.026192
v -0.114778 2.783597 -0.092423
v -0.234893 2.597471 0.023713
v -0.114778 2.783597 -0.092423
v -0.163341 2.600525 -0.144034
v -0.163341 2.600525 -0.144034
v -0.114778 2.783597 -0.092423
v 0.007369 2.785613 -0.141540
v -0.163341 2.600525 -0.144034
v 0.007369 2.785613 -0.141540
v 0.009400 2.603377 -0.213495
v 0.009400 2.603377 -0.213495
v 0.007369 2.785613 -0.141540
v 0.129515 2.786306 -0.092386
v 0.009400 2.603377 -0.213495
v 0.129515 2.786306 -0.092386
v 0.182141 2.604356 -0.143982
v 0.182141 2.604356 -0.143982
v 0.129515 2.786306 -0.092386
v 0.180110 2.785269 0.026243
v 0.182141 2.604356 -0.143982
v 0.180110 2.785269 0.026243
v 0.253693 2.602889 0.023786
v 0.180110 2.785269 0.026243
v 0.006527 2.859226 0.027240
v 0.006527 2.859226 0.027240
v 0.180110 2.785269 0.026243
v 0.006527 2.859226 0.027240
v 0.129515 2.783109 0.144858
v 0.129515 2.783109 0.144858
v 0.006527 2.859226 0.027240
v 0.006527 2.859226 0.027240
v 0.129515 2.783109 0.144858
v 0.006527 2.859226 0.027240
v 0.007369 2.781093 0.193975
v 0.007369 2.781093 0.193975
v 0.006527 2.859226 0.027240
v 0.006527 2.859226 0.027240
v 0.007369 2.781093 0.193975
v 0.006527 2.859226 0.027240
v -0.114778 2.780400 0.144822
v -0.114778 2.780400 0.144822
v 0.006527 2.859226 0.027240
v 0.006527 2.859226 0.027240
v -0.114778 2.780400 0.144822
v 0.006527 2.859226 0.027240
v -0.165373 2.781438 0.026192
v -0.165373 2.781438 0.026192
v 0.006527 2.859226 0.027240
v 0.006527 2.859226 0.027240
v -0.165373 2.781438 0.026192
v 0.006527 2.859226 0.027240
v -0.114778 2.783597 -0.092423
v -0.114778 2.783597 -0.092423
v 0.006527 2.859226 0.027240
v 0.006527 2.859226 0.027240
v -0.114778 2.783597 -0.092423
v 0.006527 2.859226 0.027240
v 0.007369 2.785613 -0.141540
v 0.007369 2.785613 -0.141540
v 0.006527 2.859226 0.027240
v 0.006527 2.859226 0.027240
v 0.007369 2.785613 -0.141540
v 0.006527 2.859226 0.027240
v 0.129515 2.786306 -0.092386
v 0.129515 2.786306 -0.092386
v 0.006527 2.859226 0.027240
v 0.006527 2.859226 0.027240
v 0.129515 2.786306 -0.092386
v 0.006527 2.859226 0.027240
v 0.180110 2.785269 0.026243
v 0.239486 2.110819 -0.262859
v 0.431190 2.196378 -0.261706
v 0.374770 2.193867 -0.121773
v 0.239486 2.110819 -0.262859
v 0.374770 2.193867 -0.121773
v 0.239486 2.110819 -0.262859
v 0.239486 2.110819 -0.262859
v 0.374770 2.193867 -0.121773
v 0.238561 2.191576 -0.063827
v 0.239486 2.110819 -0.262859
v 0.238561 2.191576 -0.063827
v 0.239486 2.110819 -0.262859
v 0.239486 2.110819 -0.262859
v 0.238561 2.191576 -0.063827
v 0.102351 2.190847 -0.121814
v 0.239486 2.110819 -0.262859
v 0.102351 2.190847 -0.121814
v 0.239486 2.110819 -0.262859
v 0.239486 2.110819 -0.262859
v 0.102351 2.190847 -0.121814
v 0.045931 2.192106 -0.261764
v 0.239486 2.110819 -0.262859
v 0.045931 2.192106 -0.261764
v 0.239486 2.110819 -0.262859
v 0.239486 2.110819 -0.262859
v 0.045931 2.192106 -0.261764
v 0.102351 2.194618 -0.401698
v 0.239486 2.110819 -0.262859
v 0.102351 2.194618 -0.401698
v 0.239486 2.110819 -0.262859
v 0.239486 2.110819 -0.262859
v 0.102351 2.194618 -0.401698
v 0.238561 2.196909 -0.459643
v 0.239486 2.110819 -0.262859
v 0.238561 2.196909 -0.459643
v 0.239486 2.110819 -0.262859
v 0.239486 2.110819 -0.262859
v 0.238561 2.196909 -0.459643
v 0.374770 2.197639 -0.401657
v 0.239486 2.110819 -0.262859
v 0.374770 2.197639 -0.401657
v 0.239486 2.110819 -0.262859
v 0.239486 2.110819 -0.262859
v 0.374770 2.197639 -0.401657
v 0.431190 2.196378 -0.261706
v 0.239486 2.110819 -0.262859
v 0.431190 2.196378 -0.261706
v 0.239486 2.110819 -0.262859
v 0.431190 2.196378 -0.261706
v 0.508746 2.398665 -0.258981
v 0.428957 2.395114 -0.061085
v 0.431190 2.196378 -0.261706
v 0.428957 2.395114 -0.061085
v 0.374770 2.193867 -0.121773
v 0.374770 2.193867 -0.121773
v 0.428957 2.395114 -0.061085
v 0.236327 2.391874 0.020863
v 0.374770 2.193867 -0.121773
v 0.236327 2.391874 0.020863
v 0.238561 2.191576 -0.063827
v 0.238561 2.191576 -0.063827
v 0.236327 2.391874 0.020863
v 0.043698 2.390842 -0.061142
v 0.238561 2.191576 -0.063827
v 0.043698 2.390842 -0.061142
v 0.102351 2.190847 -0.121814
v 0.102351 2.190847 -0.121814
v 0.043698 2.390842 -0.061142
v -0.036092 2.392624 -0.259062
v 0.102351 2.190847 -0.121814
v -0.036092 2.392624 -0.259062
v 0.045931 2.192106 -0.261764
v 0.045931 2.192106 -0.261764
v -0.036092 2.392624 -0.259062
v 0.043698 2.396175 -0.456958
v 0.045931 2.192106 -0.261764
v 0.043698 2.396175 -0.456958
v 0.102351 2.194618 -0.401698
v 0.102351 2.194618 -0.401698
v 0.043698 2.396175 -0.456958
v 0.236327 2.399416 -0.538906
v 0.102351 2.194618 -0.401698
v 0.236327 2.399416 -0.538906
v 0.238561 2.196909 -0.459643
v 0.238561 2.196909 -0.459643
v 0.236327 2.399416 -0.538906
v 0.428957 2.400447 -0.456901
v 0.238561 2.196909 -0.459643
v 0.428957 2.400447 -0.456901
v 0.374770 2.197639 -0.401657
v 0.374770 2.197639 -0.401657
v 0.428957 2.400447 -0.456901
v 0.508746 2.398665 -0.258981
v 0.374770 2.197639 -0.401657
v 0.508746 2.398665 -0.258981
v 0.431190 2.196378 -0.261706
v 0.508746 2.398665 -0.258981
v 0.426723 2.599183 -0.256279
v 0.370303 2.596672 -0.116345
v 0.508746 2.398665 -0.258981
v 0.370303 2.596672 -0.116345
v 0.428957 2.395114 -0.061085
v 0.428957 2.395114 -0.061085
v 0.370303 2.596672 -0.116345
v 0.234094 2.594380 -0.058400
v 0.428957 2.395114 -0.061085
v 0.234094 2.594380 -0.058400
v 0.236327 2.391874 0.020863
v 0.236327 2.391874 0.020863
v 0.234094 2.594380 -0.058400
v 0.097884 2.593651 -0.116386
v 0.236327 2.391874 0.020863
v 0.097884 2.593651 -0.116386
v 0.043698 2.390842 -0.061142
v 0.043698 2.390842 -0.061142
v 0.097884 2.593651 -0.116386
v 0.041464 2.594911 -0.256337
v 0.043698 2.390842 -0.061142
v 0.041464 2.594911 -0.256337
v -0.036092 2.392624 -0.259062
v -0.036092 2.392624 -0.259062
v 0.041464 2.594911 -0.256337
v 0.097884 2.597422 -0.396270
v -0.036092 2.392624 -0.259062
v 0.097884 2.597422 -0.396270
v 0.043698 2.396175 -0.456958
v 0.043698 2.396175 -0.456958
v 0.097884 2.597422 -0.396270
v 0.234094 2.599713 -0.454216
v 0.043698 2.396175 -0.456958
v 0.234094 2.599713 -0.454216
v 0.236327 2.399416 -0.538906
v 0.236327 2.399416 -0.538906
v 0.234094 2.599713 -0.454216
v 0.370303 2.600443 -0.396230
v 0.236327 2.399416 -0.538906
v 0.370303 2.600443 -0.396230
v 0.428957 2.400447 -0.456901
v 0.428957 2.400447 -0.456901
v 0.370303 2.600443 -0.396230
v 0.426723 2.599183 -0.256279
v 0.428957 2.400447 -0.456901
v 0.426723 2.599183 -0.256279
v 0.508746 2.398665 -0.258981
v 0.426723 2.599183 -0.256279
v 0.233168 2.680470 -0.255184
v 0.233168 2.680470 -0.255184
v 0.426723 2.599183 -0.256279
v 0.233168 2.680470 -0.255184
v 0.370303 2.596672 -0.116345
v 0.370303 2.596672 -0.116345
v 0.233168 2.680470 -0.255184
v 0.233168 2.680470 -0.255184
v 0.370303 2.596672 -0.116345
v 0.233168 2.680470 -0.255184
v 0.234094 2.594380 -0.058400
v 0.234094 2.594380 -0.058400
v 0.233168 2.680470 -0.255184
v 0.233168 2.680470 -0.255184
v 0.234094 2.594380 -0.058400
v 0.233168 2.680470 -0.255184
v 0.097884 2.593651 -0.116386
v 0.097884 2.593651 -0.116386
v 0.233168 2.680470 -0.255184
v 0.233168 2.680470 -0.255184
v 0.097884 2.593651 -0.116386
v 0.233168 2.680470 -0.255184
v 0.041464 2.594911 -0.256337
v 0.041464 2.594911 -0.256337
v 0.233168 2.680470 -0.255184
v 0.233168 2.680470 -0.255184
v 0.041464 2.594911 -0.256337
v 0.233168 2.680470 -0.255184
v 0.097884 2.597422 -0.396270
v 0.097884 2.597422 -0.396270
v 0.233168 2.680470 -0.255184
v 0.233168 2.680470 -0.255184
v 0.097884 2.597422 -0.396270
v 0.233168 2.680470 -0.255184
v 0.234094 2.599713 -0.454216
v 0.234094 2.599713 -0.454216
v 0.233168 2.680470 -0.255184
v 0.233168 2.680470 -0.255184
v 0.234094 2.599713 -0.454216
v 0.233168 2.680470 -0.255184
v 0.370303 2.600443 -0.396230
v 0.370303 2.600443 -0.396230
v 0.233168 2.680470 -0.255184
v 0.233168 2.680470 -0.255184
v 0.370303 2.600443 -0.396230
v 0.233168 2.680470 -0.255184
v 0.426723 2.599183 -0.256279
v 0.173999 2.149455 0.121668
v 0.385508 2.242785 0.122926
v 0.323263 2.239901 0.285761
v 0.173999 2.149455 0.121668
v 0.323263 2.239901 0.285761
v 0.173999 2.149455 0.121668
v 0.173999 2.149455 0.121668
v 0.323263 2.239901 0.285761
v 0.172990 2.237326 0.353190
v 0.173999 2.149455 0.121668
v 0.172990 2.237326 0.353190
v 0.173999 2.149455 0.121668
v 0.173999 2.149455 0.121668
v 0.172990 2.237326 0.353190
v 0.022717 2.236569 0.285716
v 0.173999 2.149455 0.121668
v 0.022717 2.236569 0.285716
v 0.173999 2.149455 0.121668
v 0.173999 2.149455 0.121668
v 0.022717 2.236569 0.285716
v -0.039528 2.238073 0.122862
v 0.173999 2.149455 0.121668
v -0.039528 2.238073 0.122862
v 0.173999 2.149455 0.121668
v 0.173999 2.149455 0.121668
v -0.039528 2.238073 0.122862
v 0.022717 2.240957 -0.039972
v 0.173999 2.149455 0.121668
v 0.022717 2.240957 -0.039972
v 0.173999 2.149455 0.121668
v 0.173999 2.149455 0.121668
v 0.022717 2.240957 -0.039972
v 0.172990 2.243532 -0.107402
v 0.173999 2.149455 0.121668
v 0.172990 2.243532 -0.107402
v 0.173999 2.149455 0.121668
v 0.173999 2.149455 0.121668
v 0.172990 2.243532 -0.107402
v 0.323263 2.244289 -0.039927
v 0.173999 2.149455 0.121668
v 0.323263 2.244289 -0.039927
v 0.173999 2.149455 0.121668
v 0.173999 2.149455 0.121668
v 0.323263 2.244289 -0.039927
v 0.385508 2.242785 0.122926
v 0.173999 2.149455 0.121668
v 0.385508 2.242785 0.122926
v 0.173999 2.149455 0.121668
v 0.385508 2.242785 0.122926
v 0.471100 2.463393 0.125898
v 0.383072 2.459314 0.356181
v 0.385508 2.242785 0.122926
v 0.383072 2.459314 0.356181
v 0.323263 2.239901 0.285761
v 0.323263 2.239901 0.285761
v 0.383072 2.459314 0.356181
v 0.170554 2.455672 0.451541
v 0.323263 2.239901 0.285761
v 0.170554 2.455672 0.451541
v 0.172990 2.237326 0.353190
v 0.172990 2.237326 0.353190
v 0.170554 2.455672 0.451541
v -0.041963 2.454601 0.356118
v 0.172990 2.237326 0.353190
v -0.041963 2.454601 0.356118
v 0.022717 2.236569 0.285716
v 0.022717 2.236569 0.285716
v -0.041963 2.454601 0.356118
v -0.129991 2.456728 0.125808
v 0.022717 2.236569 0.285716
v -0.129991 2.456728 0.125808
v -0.039528 2.238073 0.122862
v -0.039528 2.238073 0.122862
v -0.129991 2.456728 0.125808
v -0.041963 2.460807 -0.104475
v -0.039528 2.238073 0.122862
v -0.041963 2.460807 -0.104475
v 0.022717 2.240957 -0.039972
v 0.022717 2.240957 -0.039972
v -0.041963 2.460807 -0.104475
v 0.170554 2.464449 -0.199835
v 0.022717 2.240957 -0.039972
v 0.170554 2.464449 -0.199835
v 0.172990 2.243532 -0.107402
v 0.172990 2.243532 -0.107402
v 0.170554 2.464449 -0.199835
v 0.383072 2.465520 -0.104411
v 0.172990 2.243532 -0.107402
v 0.383072 2.465520 -0.104411
v 0.323263 2.244289 -0.039927
v 0.323263 2.244289 -0.039927
v 0.383072 2.465520 -0.104411
v 0.471100 2.463393 0.125898
v 0.323263 2.244289 -0.039927
v 0.471100 2.463393 0.125898
v 0.385508 2.242785 0.122926
v 0.471100 2.463393 0.125898
v 0.380636 2.682048 0.128844
v 0.318391 2.679164 0.291679
v 0.471100 2.463393 0.125898
v 0.318391 2.679164 0.291679
v 0.383072 2.459314 0.356181
v 0.383072 2.459314 0.356181
v 0.318391 2.679164 0.291679
v 0.168119 2.676589 0.359109
v 0.383072 2.459314 0.356181
v 0.168119 2.676589 0.359109
v 0.170554 2.455672 0.451541
v 0.170554 2.455672 0.451541
v 0.168119 2.676589 0.359109
v 0.017846 2.675831 0.291634
v 0.170554 2.455672 0.451541
v 0.017846 2.675831 0.291634
v -0.041963 2.454601 0.356118
v -0.041963 2.454601 0.356118
v 0.017846 2.675831 0.291634
v -0.044399 2.677335 0.128781
v -0.041963 2.454601 0.356118
v -0.044399 2.677335 0.128781
v -0.129991 2.456728 0.125808
v -0.129991 2.456728 0.125808
v -0.044399 2.677335 0.128781
v 0.017846 2.680220 -0.034054
v -0.129991 2.456728 0.125808
v 0.017846 2.680220 -0.034054
v -0.041963 2.460807 -0.104475
v -0.041963 2.460807 -0.104475
v 0.017846 2.680220 -0.034054
v 0.168119 2.682795 -0.101484
v -0.041963 2.460807 -0.104475
v 0.168119 2.682795 -0.101484
v 0.170554 2.464449 -0.199835
v 0.170554 2.464449 -0.199835
v 0.168119 2.682795 -0.101484
v 0.318391 2.683552 -0.034009
v 0.170554 2.464449 -0.199835
v 0.318391 2.683552 -0.034009
v 0.383072 2.465520 -0.104411
v 0.383072 2.465520 -0.104411
v 0.318391 2.683552 -0.034009
v 0.380636 2.682048 0.128844
v 0.383072 2.465520 -0.104411
v 0.380636 2.682048 0.128844
v 0.471100 2.463393 0.125898
v 0.380636 2.682048 0.128844
v 0.167110 2.770666 0.130038
v 0.167110 2.770666 0.130038
v 0.380636 2.682048 0.128844
v 0.167110 2.770666 0.130038
v 0.318391 2.679164 0.291679
v 0.318391 2.679164 0.291679
v 0.167110 2.770666 0.130038
v 0.167110 2.770666 0.130038
v 0.318391 2.679164 0.291679
v 0.167110 2.770666 0.130038
v 0.168119 2.676589 0.359109
v 0.168119 2.676589 0.359109
v 0.167110 2.770666 0.130038
v 0.167110 2.770666 0.130038
v 0.168119 2.676589 0.359109
v 0.167110 2.770666 0.130038
v 0.017846 2.675831 0.291634
v 0.017846 2.675831 0.291634
v 0.167110 2.770666 0.130038
v 0.167110 2.770666 0.130038
v 0.017846 2.675831 0.291634
v 0.167110 2.770666 0.130038
v -0.044399 2.677335 0.128781
v -0.044399 2.677335 0.128781
v 0.167110 2.770666 0.130038
v 0.167110 2.770666 0.130038
v -0.044399 2.677335 0.128781
v 0.167110 2.770666 0.130038
v 0.017846 2.680220 -0.034054
v 0.017846 2.680220 -0.034054
v 0.167110 2.770666 0.130038
v 0.167110 2.770666 0.130038
v 0.017846 2.680220 -0.034054
v 0.167110 2.770666 0.130038
v 0.168119 2.682795 -0.101484
v 0.168119 2.682795 -0.101484
v 0.167110 2.770666 0.130038
v 0.167110 2.770666 0.130038
v 0.168119 2.682795 -0.101484
v 0.167110 2.770666 0.130038
v 0.318391 2.683552 -0.034009
v 0.318391 2.683552 -0.034009
v 0.167110 2.770666 0.130038
v 0.167110 2.770666 0.130038
v 0.318391 2.683552 -0.034009
v 0.167110 2.770666 0.130038
v 0.380636 2.682048 0.128844
v -0.097734 2.189484 0.233006
v 0.133579 2.290586 0.234368
v 0.065509 2.287838 0.382243
v -0.097734 2.189484 0.233006
v 0.065509 2.287838 0.382243
v -0.097734 2.189484 0.233006
v -0.097734 2.189484 0.233006
v 0.065509 2.287838 0.382243
v -0.098827 2.285191 0.443474
v -0.097734 2.189484 0.233006
v -0.098827 2.285191 0.443474
v -0.097734 2.189484 0.233006
v -0.097734 2.189484 0.233006
v -0.098827 2.285191 0.443474
v -0.263163 2.284194 0.382194
v -0.097734 2.189484 0.233006
v -0.263163 2.284194 0.382194
v -0.097734 2.189484 0.233006
v -0.097734 2.189484 0.233006
v -0.263163 2.284194 0.382194
v -0.331233 2.285432 0.234299
v -0.097734 2.189484 0.233006
v -0.331233 2.285432 0.234299
v -0.097734 2.189484 0.233006
v -0.097734 2.189484 0.233006
v -0.331233 2.285432 0.234299
v -0.263163 2.288179 0.086424
v -0.097734 2.189484 0.233006
v -0.263163 2.288179 0.086424
v -0.097734 2.189484 0.233006
v -0.097734 2.189484 0.233006
v -0.263163 2.288179 0.086424
v -0.098827 2.290827 0.025193
v -0.097734 2.189484 0.233006
v -0.098827 2.290827 0.025193
v -0.097734 2.189484 0.233006
v -0.097734 2.189484 0.233006
v -0.098827 2.290827 0.025193
v 0.065509 2.291824 0.086473
v -0.097734 2.189484 0.233006
v 0.065509 2.291824 0.086473
v -0.097734 2.189484 0.233006
v -0.097734 2.189484 0.233006
v 0.065509 2.291824 0.086473
v 0.133579 2.290586 0.234368
v -0.097734 2.189484 0.233006
v 0.133579 2.290586 0.234368
v -0.097734 2.189484 0.233006
v 0.133579 2.290586 0.234368
v 0.227207 2.529514 0.237587
v 0.130941 2.525628 0.446714
v 0.133579 2.290586 0.234368
v 0.130941 2.525628 0.446714
v 0.065509 2.287838 0.382243
v 0.065509 2.287838 0.382243
v 0.130941 2.525628 0.446714
v -0.101465 2.521884 0.533308
v 0.065509 2.287838 0.382243
v -0.101465 2.521884 0.533308
v -0.098827 2.285191 0.443474
v -0.098827 2.285191 0.443474
v -0.101465 2.521884 0.533308
v -0.333871 2.520474 0.446644
v -0.098827 2.285191 0.443474
v -0.333871 2.520474 0.446644
v -0.263163 2.284194 0.382194
v -0.263163 2.284194 0.382194
v -0.333871 2.520474 0.446644
v -0.430137 2.522225 0.237489
v -0.263163 2.284194 0.382194
v -0.430137 2.522225 0.237489
v -0.331233 2.285432 0.234299
v -0.331233 2.285432 0.234299
v -0.430137 2.522225 0.237489
v -0.333871 2.526110 0.028363
v -0.331233 2.285432 0.234299
v -0.333871 2.526110 0.028363
v -0.263163 2.288179 0.086424
v -0.263163 2.288179 0.086424
v -0.333871 2.526110 0.028363
v -0.101465 2.529855 -0.058231
v -0.263163 2.288179 0.086424
v -0.101465 2.529855 -0.058231
v -0.098827 2.290827 0.025193
v -0.098827 2.290827 0.025193
v -0.101465 2.529855 -0.058231
v 0.130941 2.531264 0.028432
v -0.098827 2.290827 0.025193
v 0.130941 2.531264 0.028432
v 0.065509 2.291824 0.086473
v 0.065509 2.291824 0.086473
v 0.130941 2.531264 0.028432
v 0.227207 2.529514 0.237587
v 0.065509 2.291824 0.086473
v 0.227207 2.529514 0.237587
v 0.133579 2.290586 0.234368
v 0.227207 2.529514 0.237587
v 0.128303 2.766307 0.240778
v 0.060233 2.763560 0.388653
v 0.227207 2.529514 0.237587
v 0.060233 2.763560 0.388653
v 0.130941 2.525628 0.446714
v 0.130941 2.525628 0.446714
v 0.060233 2.763560 0.388653
v -0.104103 2.760912 0.449884
v 0.130941 2.525628 0.446714
v -0.104103 2.760912 0.449884
v -0.101465 2.521884 0.533308
v -0.101465 2.521884 0.533308
v -0.104103 2.760912 0.449884
v -0.268439 2.759915 0.388603
v -0.101465 2.521884 0.533308
v -0.268439 2.759915 0.388603
v -0.333871 2.520474 0.446644
v -0.333871 2.520474 0.446644
v -0.268439 2.759915 0.388603
v -0.336509 2.761153 0.240708
v -0.333871 2.520474 0.446644
v -0.336509 2.761153 0.240708
v -0.430137 2.522225 0.237489
v -0.430137 2.522225 0.237489
v -0.336509 2.761153 0.240708
v -0.268439 2.763901 0.092834
v -0.430137 2.522225 0.237489
v -0.268439 2.763901 0.092834
v -0.333871 2.526110 0.028363
v -0.333871 2.526110 0.028363
v -0.268439 2.763901 0.092834
v -0.104103 2.766548 0.031602
v -0.333871 2.526110 0.028363
v -0.104103 2.766548 0.031602
v -0.101465 2.529855 -0.058231
v -0.101465 2.529855 -0.058231
v -0.104103 2.766548 0.031602
v 0.060233 2.767545 0.092883
v -0.101465 2.529855 -0.058231
v 0.060233 2.767545 0.092883
v 0.130941 2.531264 0.028432
v 0.130941 2.531264 0.028432
v 0.060233 2.767545 0.092883
v 0.128303 2.766307 0.240778
v 0.130941 2.531264 0.028432
v 0.128303 2.766307 0.240778
v 0.227207 2.529514 0.237587
v 0.128303 2.766307 0.240778
v -0.105195 2.862255 0.242071
v -0.105195 2.862255 0.242071
v 0.128303 2.766307 0.240778
v -0.105195 2.862255 0.242071
v 0.060233 2.763560 0.388653
v 0.060233 2.763560 0.388653
v -0.105195 2.862255 0.242071
v -0.105195 2.862255 0.242071
v 0.060233 2.763560 0.388653
v -0.105195 2.862255 0.242071
v -0.104103 2.760912 0.449884
v -0.104103 2.760912 0.449884
v -0.105195 2.862255 0.242071
v -0.105195 2.862255 0.242071
v -0.104103 2.760912 0.449884
v -0.105195 2.862255 0.242071
v -0.268439 2.759915 0.388603
v -0.268439 2.759915 0.388603
v -0.105195 2.862255 0.242071
v -0.105195 2.862255 0.242071
v -0.268439 2.759915 0.388603
v -0.105195 2.862255 0.242071
v -0.336509 2.761153 0.240708
v -0.336509 2.761153 0.240708
v -0.105195 2.862255 0.242071
v -0.105195 2.862255 0.242071
v -0.336509 2.761153 0.240708
v -0.105195 2.862255 0.242071
v -0.268439 2.763901 0.092834
v -0.268439 2.763901 0.092834
v -0.105195 2.862255 0.242071
v -0.105195 2.862255 0.242071
v -0.268439 2.763901 0.092834
v -0.105195 2.862255 0.242071
v -0.104103 2.766548 0.031602
v -0.104103 2.766548 0.031602
v -0.105195 2.862255 0.242071
v -0.105195 2.862255 0.242071
v -0.104103 2.766548 0.031602
v -0.105195 2.862255 0.242071
v 0.060233 2.767545 0.092883
v 0.060233 2.767545 0.092883
v -0.105195 2.862255 0.242071
v -0.105195 2.862255 0.242071
v 0.060233 2.767545 0.092883
v -0.105195 2.862255 0.242071
v 0.128303 2.766307 0.240778
v -0.260316 2.346589 -0.088968
v -0.008841 2.423246 -0.087935
v -0.082737 2.420129 0.082630
v -0.260316 2.346589 -0.088968
v -0.082737 2.420129 0.082630
v -0.260316 2.346589 -0.088968
v -0.260316 2.346589 -0.088968
v -0.082737 2.420129 0.082630
v -0.261136 2.417198 0.153258
v -0.260316 2.346589 -0.088968
v -0.261136 2.417198 0.153258
v -0.260316 2.346589 -0.088968
v -0.260316 2.346589 -0.088968
v -0.261136 2.417198 0.153258
v -0.439535 2.416172 0.082576
v -0.260316 2.346589 -0.088968
v -0.439535 2.416172 0.082576
v -0.260316 2.346589 -0.088968
v -0.260316 2.346589 -0.088968
v -0.439535 2.416172 0.082576
v -0.513430 2.417651 -0.088010
v -0.260316 2.346589 -0.088968
v -0.513430 2.417651 -0.088010
v -0.260316 2.346589 -0.088968
v -0.260316 2.346589 -0.088968
v -0.513430 2.417651 -0.088010
v -0.439535 2.420769 -0.258575
v -0.260316 2.346589 -0.088968
v -0.439535 2.420769 -0.258575
v -0.260316 2.346589 -0.088968
v -0.260316 2.346589 -0.088968
v -0.439535 2.420769 -0.258575
v -0.261136 2.423699 -0.329203
v -0.260316 2.346589 -0.088968
v -0.261136 2.423699 -0.329203
v -0.260316 2.346589 -0.088968
v -0.260316 2.346589 -0.088968
v -0.261136 2.423699 -0.329203
v -0.082737 2.424725 -0.258522
v -0.260316 2.346589 -0.088968
v -0.082737 2.424725 -0.258522
v -0.260316 2.346589 -0.088968
v -0.260316 2.346589 -0.088968
v -0.082737 2.424725 -0.258522
v -0.008841 2.423246 -0.087935
v -0.260316 2.346589 -0.088968
v -0.008841 2.423246 -0.087935
v -0.260316 2.346589 -0.088968
v -0.008841 2.423246 -0.087935
v 0.093685 2.602717 -0.085517
v -0.010819 2.598308 0.155698
v -0.008841 2.423246 -0.087935
v -0.010819 2.598308 0.155698
v -0.082737 2.420129 0.082630
v -0.082737 2.420129 0.082630
v -0.010819 2.598308 0.155698
v -0.263113 2.594164 0.255582
v -0.082737 2.420129 0.082630
v -0.263113 2.594164 0.255582
v -0.261136 2.417198 0.153258
v -0.261136 2.417198 0.153258
v -0.263113 2.594164 0.255582
v -0.515408 2.592713 0.155623
v -0.261136 2.417198 0.153258
v -0.515408 2.592713 0.155623
v -0.439535 2.416172 0.082576
v -0.439535 2.416172 0.082576
v -0.515408 2.592713 0.155623
v -0.619911 2.594805 -0.085623
v -0.439535 2.416172 0.082576
v -0.619911 2.594805 -0.085623
v -0.513430 2.417651 -0.088010
v -0.513430 2.417651 -0.088010
v -0.619911 2.594805 -0.085623
v -0.515408 2.599214 -0.326839
v -0.513430 2.417651 -0.088010
v -0.515408 2.599214 -0.326839
v -0.439535 2.420769 -0.258575
v -0.439535 2.420769 -0.258575
v -0.515408 2.599214 -0.326839
v -0.263113 2.603358 -0.426722
v -0.439535 2.420769 -0.258575
v -0.263113 2.603358 -0.426722
v -0.261136 2.423699 -0.329203
v -0.261136 2.423699 -0.329203
v -0.263113 2.603358 -0.426722
v -0.010819 2.604809 -0.326763
v -0.261136 2.423699 -0.329203
v -0.010819 2.604809 -0.326763
v -0.082737 2.424725 -0.258522
v -0.082737 2.424725 -0.258522
v -0.010819 2.604809 -0.326763
v 0.093685 2.602717 -0.085517
v -0.082737 2.424725 -0.258522
v 0.093685 2.602717 -0.085517
v -0.008841 2.423246 -0.087935
v 0.093685 2.602717 -0.085517
v -0.012796 2.779871 -0.083130
v -0.086692 2.776753 0.087435
v 0.093685 2.602717 -0.085517
v -0.086692 2.776753 0.087435
v -0.010819 2.598308 0.155698
v -0.010819 2.598308 0.155698
v -0.086692 2.776753 0.087435
v -0.265091 2.773823 0.158063
v -0.010819 2.598308 0.155698
v -0.265091 2.773823 0.158063
v -0.263113 2.594164 0.255582
v -0.263113 2.594164 0.255582
v -0.265091 2.773823 0.158063
v -0.443490 2.772797 0.087382
v -0.263113 2.594164 0.255582
v -0.443490 2.772797 0.087382
v -0.515408 2.592713 0.155623
v -0.515408 2.592713 0.155623
v -0.443490 2.772797 0.087382
v -0.517385 2.774276 -0.083205
v -0.515408 2.592713 0.155623
v -0.517385 2.774276 -0.083205
v -0.619911 2.594805 -0.085623
v -0.619911 2.594805 -0.085623
v -0.517385 2.774276 -0.083205
v -0.443490 2.777393 -0.253770
v -0.619911 2.594805 -0.085623
v -0.443490 2.777393 -0.253770
v -0.515408 2.599214 -0.326839
v -0.515408 2.599214 -0.326839
v -0.443490 2.777393 -0.253770
v -0.265091 2.780324 -0.324398
v -0.515408 2.599214 -0.326839
v -0.265091 2.780324 -0.324398
v -0.263113 2.603358 -0.426722
v -0.263113 2.603358 -0.426722
v -0.265091 2.780324 -0.324398
v -0.086692 2.781350 -0.253717
v -0.263113 2.603358 -0.426722
v -0.086692 2.781350 -0.253717
v -0.010819 2.604809 -0.326763
v -0.010819 2.604809 -0.326763
v -0.086692 2.781350 -0.253717
v -0.012796 2.779871 -0.083130
v -0.010819 2.604809 -0.326763
v -0.012796 2.779871 -0.083130
v 0.093685 2.602717 -0.085517
v -0.012796 2.779871 -0.083130
v -0.265910 2.850932 -0.082172
v -0.265910 2.850932 -0.082172
v -0.012796 2.779871 -0.083130
v -0.265910 2.850932 -0.082172
v -0.086692 2.776753 0.087435
v -0.086692 2.776753 0.087435
v -0.265910 2.850932 -0.082172
v -0.265910 2.850932 -0.082172
v -0.086692 2.776753 0.087435
v -0.265910 2.850932 -0.082172
v -0.265091 2.773823 0.158063
v -0.265091 2.773823 0.158063
v -0.265910 2.850932 -0.082172
v -0.265910 2.850932 -0.082172
v -0.265091 2.773823 0.158063
v -0.265910 2.850932 -0.082172
v -0.443490 2.772797 0.087382
v -0.443490 2.772797 0.087382
v -0.265910 2.850932 -0.082172
v -0.265910 2.850932 -0.082172
v -0.443490 2.772797 0.087382
v -0.265910 2.850932 -0.082172
v -0.517385 2.774276 -0.083205
v -0.517385 2.774276 -0.083205
v -0.265910 2.850932 -0.082172
v -0.265910 2.850932 -0.082172
v -0.517385 2.774276 -0.083205
v -0.265910 2.850932 -0.082172
v -0.443490 2.777393 -0.253770
v -0.443490 2.777393 -0.253770
v -0.265910 2.850932 -0.082172
v -0.265910 2.850932 -0.082172
v -0.443490 2.777393 -0.253770
v -0.265910 2.850932 -0.082172
v -0.265091 2.780324 -0.324398
v -0.265091 2.780324 -0.324398
v -0.265910 2.850932 -0.082172
v -0.265910 2.850932 -0.082172
v -0.265091 2.780324 -0.324398
v -0.265910 2.850932 -0.082172
v -0.086692 2.781350 -0.253717
v -0.086692 2.781350 -0.253717
v -0.265910 2.850932 -0.082172
v -0.265910 2.850932 -0.082172
v -0.086692 2.781350 -0.253717
v -0.265910 2.850932 -0.082172
v -0.012796 2.779871 -0.083130
v 0.111537 2.098219 -0.314471
v 0.297960 2.181706 -0.313346
v 0.243094 2.179291 -0.179252
v 0.111537 2.098219 -0.314471
v 0.243094 2.179291 -0.179252
v 0.111537 2.098219 -0.314471
v 0.111537 2.098219 -0.314471
v 0.243094 2.179291 -0.179252
v 0.110634 2.177073 -0.123724
v 0.111537 2.098219 -0.314471
v 0.110634 2.177073 -0.123724
v 0.111537 2.098219 -0.314471
v 0.111537 2.098219 -0.314471
v 0.110634 2.177073 -0.123724
v -0.021826 2.176353 -0.179291
v 0.111537 2.098219 -0.314471
v -0.021826 2.176353 -0.179291
v 0.111537 2.098219 -0.314471
v 0.111537 2.098219 -0.314471
v -0.021826 2.176353 -0.179291
v -0.076693 2.177552 -0.313402
v 0.111537 2.098219 -0.314471
v -0.076693 2.177552 -0.313402
v 0.111537 2.098219 -0.314471
v 0.111537 2.098219 -0.314471
v -0.076693 2.177552 -0.313402
v -0.021826 2.179967 -0.447497
v 0.111537 2.098219 -0.314471
v -0.021826 2.179967 -0.447497
v 0.111537 2.098219 -0.314471
v 0.111537 2.098219 -0.314471
v -0.021826 2.179967 -0.447497
v 0.110634 2.182184 -0.503024
v 0.111537 2.098219 -0.314471
v 0.110634 2.182184 -0.503024
v 0.111537 2.098219 -0.314471
v 0.111537 2.098219 -0.314471
v 0.110634 2.182184 -0.503024
v 0.243094 2.182905 -0.447457
v 0.111537 2.098219 -0.314471
v 0.243094 2.182905 -0.447457
v 0.111537 2.098219 -0.314471
v 0.111537 2.098219 -0.314471
v 0.243094 2.182905 -0.447457
v 0.297960 2.181706 -0.313346
v 0.111537 2.098219 -0.314471
v 0.297960 2.181706 -0.313346
v 0.111537 2.098219 -0.314471
v 0.297960 2.181706 -0.313346
v 0.373374 2.379108 -0.310686
v 0.295781 2.375692 -0.121048
v 0.297960 2.181706 -0.313346
v 0.295781 2.375692 -0.121048
v 0.243094 2.179291 -0.179252
v 0.243094 2.179291 -0.179252
v 0.295781 2.375692 -0.121048
v 0.108454 2.372556 -0.042521
v 0.243094 2.179291 -0.179252
v 0.108454 2.372556 -0.042521
v 0.110634 2.177073 -0.123724
v 0.110634 2.177073 -0.123724
v 0.108454 2.372556 -0.042521
v -0.078872 2.371538 -0.121104
v 0.110634 2.177073 -0.123724
v -0.078872 2.371538 -0.121104
v -0.021826 2.176353 -0.179291
v -0.021826 2.176353 -0.179291
v -0.078872 2.371538 -0.121104
v -0.156466 2.373233 -0.310765
v -0.021826 2.176353 -0.179291
v -0.156466 2.373233 -0.310765
v -0.076693 2.177552 -0.313402
v -0.076693 2.177552 -0.313402
v -0.156466 2.373233 -0.310765
v -0.078872 2.376648 -0.500404
v -0.076693 2.177552 -0.313402
v -0.078872 2.376648 -0.500404
v -0.021826 2.179967 -0.447497
v -0.021826 2.179967 -0.447497
v -0.078872 2.376648 -0.500404
v 0.108454 2.379784 -0.578931
v -0.021826 2.179967 -0.447497
v 0.108454 2.379784 -0.578931
v 0.110634 2.182184 -0.503024
v 0.110634 2.182184 -0.503024
v 0.108454 2.379784 -0.578931
v 0.295781 2.380803 -0.500348
v 0.110634 2.182184 -0.503024
v 0.295781 2.380803 -0.500348
v 0.243094 2.182905 -0.447457
v 0.243094 2.182905 -0.447457
v 0.295781 2.380803 -0.500348
v 0.373374 2.379108 -0.310686
v 0.243094 2.182905 -0.447457
v 0.373374 2.379108 -0.310686
v 0.297960 2.181706 -0.313346
v 0.373374 2.379108 -0.310686
v 0.293601 2.574789 -0.308050
v 0.238734 2.572374 -0.173955
v 0.373374 2.379108 -0.310686
v 0.238734 2.572374 -0.173955
v 0.295781 2.375692 -0.121048
v 0.295781 2.375692 -0.121048
v 0.238734 2.572374 -0.173955
v 0.106274 2.570156 -0.118428
v 0.295781 2.375692 -0.121048
v 0.106274 2.570156 -0.118428
v 0.108454 2.372556 -0.042521
v 0.108454 2.372556 -0.042521
v 0.106274 2.570156 -0.118428
v -0.026185 2.569436 -0.173995
v 0.108454 2.372556 -0.042521
v -0.026185 2.569436 -0.173995
v -0.078872 2.371538 -0.121104
v -0.078872 2.371538 -0.121104
v -0.026185 2.569436 -0.173995
v -0.081052 2.570635 -0.308106
v -0.078872 2.371538 -0.121104
v -0.081052 2.570635 -0.308106
v -0.156466 2.373233 -0.310765
v -0.156466 2.373233 -0.310765
v -0.081052 2.570635 -0.308106
v -0.026185 2.573050 -0.442200
v -0.156466 2.373233 -0.310765
v -0.026185 2.573050 -0.442200
v -0.078872 2.376648 -0.500404
v -0.078872 2.376648 -0.500404
v -0.026185 2.573050 -0.442200
v 0.106274 2.575267 -0.497728
v -0.078872 2.376648 -0.500404
v 0.106274 2.575267 -0.497728
v 0.108454 2.379784 -0.578931
v 0.108454 2.379784 -0.578931
v 0.106274 2.575267 -0.497728
v 0.238734 2.575988 -0.442161
v 0.108454 2.379784 -0.578931
v 0.238734 2.575988 -0.442161
v 0.295781 2.380803 -0.500348
v 0.295781 2.380803 -0.500348
v 0.238734 2.575988 -0.442161
v 0.293601 2.574789 -0.308050
v 0.295781 2.380803 -0.500348
v 0.293601 2.574789 -0.308050
v 0.373374 2.379108 -0.310686
v 0.293601 2.574789 -0.308050
v 0.105372 2.654122 -0.306981
v 0.105372 2.654122 -0.306981
v 0.293601 2.574789 -0.308050
v 0.105372 2.654122 -0.306981
v 0.238734 2.572374 -0.173955
v 0.238734 2.572374 -0.173955
v 0.105372 2.654122 -0.306981
v 0.105372 2.654122 -0.306981
v 0.238734 2.572374 -0.173955
v 0.105372 2.654122 -0.306981
v 0.106274 2.570156 -0.118428
v 0.106274 2.570156 -0.118428
v 0.105372 2.654122 -0.306981
v 0.105372 2.654122 -0.306981
v 0.106274 2.570156 -0.118428
v 0.105372 2.654122 -0.306981
v -0.026185 2.569436 -0.173995
v -0.026185 2.569436 -0.173995
v 0.105372 2.654122 -0.306981
v 0.105372 2.654122 -0.306981
v -0.026185 2.569436 -0.173995
v 0.105372 2.654122 -0.306981
v -0.081052 2.570635 -0.308106
v -0.081052 2.570635 -0.308106
v 0.105372 2.654122 -0.306981
v 0.105372 2.654122 -0.306981
v -0.081052 2.570635 -0.308106
v 0.105372 2.654122 -0.306981
v -0.026185 2.573050 -0.442200
v -0.026185 2.573050 -0.442200
v 0.105372 2.654122 -0.306981
v 0.105372 2.654122 -0.306981
v -0.026185 2.573050 -0.442200
v 0.105372 2.654122 -0.306981
v 0.106274 2.575267 -0.497728
v 0.106274 2.575267 -0.497728
v 0.105372 2.654122 -0.306981
v 0.105372 2.654122 -0.306981
v 0.106274 2.575267 -0.497728
v 0.105372 2.654122 -0.306981
v 0.238734 2.575988 -0.442161
v 0.238734 2.575988 -0.442161
v 0.105372 2.654122 -0.306981
v 0.105372 2.654122 -0.306981
v 0.238734 2.575988 -0.442161
v 0.105372 2.654122 -0.306981
v 0.293601 2.574789 -0.308050
v 0.188257 2.138702 0.049998
v 0.394485 2.229960 0.051227
v 0.333793 2.227178 0.207801
v 0.188257 2.138702 0.049998
v 0.333793 2.227178 0.207801
v 0.188257 2.138702 0.049998
v 0.188257 2.138702 0.049998
v 0.333793 2.227178 0.207801
v 0.187270 2.224679 0.272638
v 0.188257 2.138702 0.049998
v 0.187270 2.224679 0.272638
v 0.188257 2.138702 0.049998
v 0.188257 2.138702 0.049998
v 0.187270 2.224679 0.272638
v 0.040747 2.223928 0.207757
v 0.188257 2.138702 0.049998
v 0.040747 2.223928 0.207757
v 0.188257 2.138702 0.049998
v 0.188257 2.138702 0.049998
v 0.040747 2.223928 0.207757
v -0.019944 2.225365 0.051165
v 0.188257 2.138702 0.049998
v -0.019944 2.225365 0.051165
v 0.188257 2.138702 0.049998
v 0.188257 2.138702 0.049998
v -0.019944 2.225365 0.051165
v 0.040747 2.228148 -0.105408
v 0.188257 2.138702 0.049998
v 0.040747 2.228148 -0.105408
v 0.188257 2.138702 0.049998
v 0.188257 2.138702 0.049998
v 0.040747 2.228148 -0.105408
v 0.187270 2.230647 -0.170245
v 0.188257 2.138702 0.049998
v 0.187270 2.230647 -0.170245
v 0.188257 2.138702 0.049998
v 0.188257 2.138702 0.049998
v 0.187270 2.230647 -0.170245
v 0.333793 2.231397 -0.105365
v 0.188257 2.138702 0.049998
v 0.333793 2.231397 -0.105365
v 0.188257 2.138702 0.049998
v 0.188257 2.138702 0.049998
v 0.333793 2.231397 -0.105365
v 0.394485 2.229960 0.051227
v 0.188257 2.138702 0.049998
v 0.394485 2.229960 0.051227
v 0.188257 2.138702 0.049998
v 0.394485 2.229960 0.051227
v 0.477934 2.445683 0.054134
v 0.392103 2.441748 0.275562
v 0.394485 2.229960 0.051227
v 0.392103 2.441748 0.275562
v 0.333793 2.227178 0.207801
v 0.333793 2.227178 0.207801
v 0.392103 2.441748 0.275562
v 0.184888 2.438214 0.367256
v 0.333793 2.227178 0.207801
v 0.184888 2.438214 0.367256
v 0.187270 2.224679 0.272638
v 0.187270 2.224679 0.272638
v 0.184888 2.438214 0.367256
v -0.022326 2.437152 0.275501
v 0.187270 2.224679 0.272638
v -0.022326 2.437152 0.275501
v 0.040747 2.223928 0.207757
v 0.040747 2.223928 0.207757
v -0.022326 2.437152 0.275501
v -0.108158 2.439184 0.054046
v 0.040747 2.223928 0.207757
v -0.108158 2.439184 0.054046
v -0.019944 2.225365 0.051165
v -0.019944 2.225365 0.051165
v -0.108158 2.439184 0.054046
v -0.022326 2.443120 -0.167382
v -0.019944 2.225365 0.051165
v -0.022326 2.443120 -0.167382
v 0.040747 2.228148 -0.105408
v 0.040747 2.228148 -0.105408
v -0.022326 2.443120 -0.167382
v 0.184888 2.446653 -0.259075
v 0.040747 2.228148 -0.105408
v 0.184888 2.446653 -0.259075
v 0.187270 2.230647 -0.170245
v 0.187270 2.230647 -0.170245
v 0.184888 2.446653 -0.259075
v 0.392103 2.447715 -0.167320
v 0.187270 2.230647 -0.170245
v 0.392103 2.447715 -0.167320
v 0.333793 2.231397 -0.105365
v 0.333793 2.231397 -0.105365
v 0.392103 2.447715 -0.167320
v 0.477934 2.445683 0.054134
v 0.333793 2.231397 -0.105365
v 0.477934 2.445683 0.054134
v 0.394485 2.229960 0.051227
v 0.477934 2.445683 0.054134
v 0.389721 2.659502 0.057015
v 0.329030 2.656719 0.213589
v 0.477934 2.445683 0.054134
v 0.329030 2.656719 0.213589
v 0.392103 2.441748 0.275562
v 0.392103 2.441748 0.275562
v 0.329030 2.656719 0.213589
v 0.182507 2.654221 0.278425
v 0.392103 2.441748 0.275562
v 0.182507 2.654221 0.278425
v 0.184888 2.438214 0.367256
v 0.184888 2.438214 0.367256
v 0.182507 2.654221 0.278425
v 0.035984 2.653470 0.213545
v 0.184888 2.438214 0.367256
v 0.035984 2.653470 0.213545
v -0.022326 2.437152 0.275501
v -0.022326 2.437152 0.275501
v 0.035984 2.653470 0.213545
v -0.024708 2.654906 0.056953
v -0.022326 2.437152 0.275501
v -0.024708 2.654906 0.056953
v -0.108158 2.439184 0.054046
v -0.108158 2.439184 0.054046
v -0.024708 2.654906 0.056953
v 0.035984 2.657689 -0.099621
v -0.108158 2.439184 0.054046
v 0.035984 2.657689 -0.099621
v -0.022326 2.443120 -0.167382
v -0.022326 2.443120 -0.167382
v 0.035984 2.657689 -0.099621
v 0.182507 2.660188 -0.164458
v -0.022326 2.443120 -0.167382
v 0.182507 2.660188 -0.164458
v 0.184888 2.446653 -0.259075
v 0.184888 2.446653 -0.259075
v 0.182507 2.660188 -0.164458
v 0.329030 2.660939 -0.099577
v 0.184888 2.446653 -0.259075
v 0.329030 2.660939 -0.099577
v 0.392103 2.447715 -0.167320
v 0.392103 2.447715 -0.167320
v 0.329030 2.660939 -0.099577
v 0.389721 2.659502 0.057015
v 0.392103 2.447715 -0.167320
v 0.389721 2.659502 0.057015
v 0.477934 2.445683 0.054134
v 0.389721 2.659502 0.057015
v 0.181520 2.746165 0.058183
v 0.181520 2.746165 0.058183
v 0.389721 2.659502 0.057015
v 0.181520 2.746165 0.058183
v 0.329030 2.656719 0.213589
v 0.329030 2.656719 0.213589
v 0.181520 2.746165 0.058183
v 0.181520 2.746165 0.058183
v 0.329030 2.656719 0.213589
v 0.181520 2.746165 0.058183
v 0.182507 2.654221 0.278425
v 0.182507 2.654221 0.278425
v 0.181520 2.746165 0.058183
v 0.181520 2.746165 0.058183
v 0.182507 2.654221 0.278425
v 0.181520 2.746165 0.058183
v 0.035984 2.653470 0.213545
v 0.035984 2.653470 0.213545
v 0.181520 2.746165 0.058183
v 0.181520 2.746165 0.058183
v 0.035984 2.653470 0.213545
v 0.181520 2.746165 0.058183
v -0.024708 2.654906 0.056953
v -0.024708 2.654906 0.056953
v 0.181520 2.746165 0.058183
v 0.181520 2.746165 0.058183
v -0.024708 2.654906 0.056953
v 0.181520 2.746165 0.058183
v 0.035984 2.657689 -0.099621
v 0.035984 2.657689 -0.099621
v 0.181520 2.746165 0.058183
v 0.181520 2.746165 0.058183
v 0.035984 2.657689 -0.099621
v 0.181520 2.746165 0.058183
v 0.182507 2.660188 -0.164458
v 0.182507 2.660188 -0.164458
v 0.181520 2.746165 0.058183
v 0.181520 2.746165 0.058183
v 0.182507 2.660188 -0.164458
v 0.181520 2.746165 0.058183
v 0.329030 2.660939 -0.099577
v 0.329030 2.660939 -0.099577
v 0.181520 2.746165 0.058183
v 0.181520 2.746165 0.058183
v 0.329030 2.660939 -0.099577
v 0.181520 2.746165 0.058183
v 0.389721 2.659502 0.057015
v -0.005729 2.178458 0.245538
v 0.220303 2.277488 0.246873
v 0.153786 2.274836 0.388964
v -0.005729 2.178458 0.245538
v 0.153786 2.274836 0.388964
v -0.005729 2.178458 0.245538
v -0.005729 2.178458 0.245538
v 0.153786 2.274836 0.388964
v -0.006800 2.272262 0.447801
v -0.005729 2.178458 0.245538
v -0.006800 2.272262 0.447801
v -0.005729 2.178458 0.245538
v -0.005729 2.178458 0.245538
v -0.006800 2.272262 0.447801
v -0.167386 2.271275 0.388916
v -0.005729 2.178458 0.245538
v -0.167386 2.271275 0.388916
v -0.005729 2.178458 0.245538
v -0.005729 2.178458 0.245538
v -0.167386 2.271275 0.388916
v -0.233903 2.272452 0.246805
v -0.005729 2.178458 0.245538
v -0.233903 2.272452 0.246805
v -0.005729 2.178458 0.245538
v -0.005729 2.178458 0.245538
v -0.233903 2.272452 0.246805
v -0.167386 2.275104 0.104713
v -0.005729 2.178458 0.245538
v -0.167386 2.275104 0.104713
v -0.005729 2.178458 0.245538
v -0.005729 2.178458 0.245538
v -0.167386 2.275104 0.104713
v -0.006800 2.277678 0.045876
v -0.005729 2.178458 0.245538
v -0.006800 2.277678 0.045876
v -0.005729 2.178458 0.245538
v -0.005729 2.178458 0.245538
v -0.006800 2.277678 0.045876
v 0.153786 2.278665 0.104761
v -0.005729 2.178458 0.245538
v 0.153786 2.278665 0.104761
v -0.005729 2.178458 0.245538
v -0.005729 2.178458 0.245538
v 0.153786 2.278665 0.104761
v 0.220303 2.277488 0.246873
v -0.005729 2.178458 0.245538
v 0.220303 2.277488 0.246873
v -0.005729 2.178458 0.245538
v 0.220303 2.277488 0.246873
v 0.311788 2.511532 0.250026
v 0.217719 2.507781 0.450974
v 0.220303 2.277488 0.246873
v 0.217719 2.507781 0.450974
v 0.153786 2.274836 0.388964
v 0.153786 2.274836 0.388964
v 0.217719 2.507781 0.450974
v -0.009384 2.504141 0.534181
v 0.153786 2.274836 0.388964
v -0.009384 2.504141 0.534181
v -0.006800 2.272262 0.447801
v -0.006800 2.272262 0.447801
v -0.009384 2.504141 0.534181
v -0.236487 2.502744 0.450906
v -0.006800 2.272262 0.447801
v -0.236487 2.502744 0.450906
v -0.167386 2.271275 0.388916
v -0.167386 2.271275 0.388916
v -0.236487 2.502744 0.450906
v -0.330556 2.504409 0.249930
v -0.167386 2.271275 0.388916
v -0.330556 2.504409 0.249930
v -0.233903 2.272452 0.246805
v -0.233903 2.272452 0.246805
v -0.330556 2.504409 0.249930
v -0.236487 2.508160 0.048982
v -0.233903 2.272452 0.246805
v -0.236487 2.508160 0.048982
v -0.167386 2.275104 0.104713
v -0.167386 2.275104 0.104713
v -0.236487 2.508160 0.048982
v -0.009384 2.511800 -0.034225
v -0.167386 2.275104 0.104713
v -0.009384 2.511800 -0.034225
v -0.006800 2.277678 0.045876
v -0.006800 2.277678 0.045876
v -0.009384 2.511800 -0.034225
v 0.217719 2.513196 0.049050
v -0.006800 2.277678 0.045876
v 0.217719 2.513196 0.049050
v 0.153786 2.278665 0.104761
v 0.153786 2.278665 0.104761
v 0.217719 2.513196 0.049050
v 0.311788 2.511532 0.250026
v 0.153786 2.278665 0.104761
v 0.311788 2.511532 0.250026
v 0.220303 2.277488 0.246873
v 0.311788 2.511532 0.250026
v 0.215135 2.743489 0.253151
v 0.148618 2.740836 0.395243
v 0.311788 2.511532 0.250026
v 0.148618 2.740836 0.395243
v 0.217719 2.507781 0.450974
v 0.217719 2.507781 0.450974
v 0.148618 2.740836 0.395243
v -0.011968 2.738263 0.454080
v 0.217719 2.507781 0.450974
v -0.011968 2.738263 0.454080
v -0.009384 2.504141 0.534181
v -0.009384 2.504141 0.534181
v -0.011968 2.738263 0.454080
v -0.172554 2.737275 0.395195
v -0.009384 2.504141 0.534181
v -0.172554 2.737275 0.395195
v -0.236487 2.502744 0.450906
v -0.236487 2.502744 0.450906
v -0.172554 2.737275 0.395195
v -0.239071 2.738452 0.253084
v -0.236487 2.502744 0.450906
v -0.239071 2.738452 0.253084
v -0.330556 2.504409 0.249930
v -0.330556 2.504409 0.249930
v -0.239071 2.738452 0.253084
v -0.172554 2.741104 0.110992
v -0.330556 2.504409 0.249930
v -0.172554 2.741104 0.110992
v -0.236487 2.508160 0.048982
v -0.236487 2.508160 0.048982
v -0.172554 2.741104 0.110992
v -0.011968 2.743678 0.052155
v -0.236487 2.508160 0.048982
v -0.011968 2.743678 0.052155
v -0.009384 2.511800 -0.034225
v -0.009384 2.511800 -0.034225
v -0.011968 2.743678 0.052155
v 0.148618 2.744665 0.111040
v -0.009384 2.511800 -0.034225
v 0.148618 2.744665 0.111040
v 0.217719 2.513196 0.049050
v 0.217719 2.513196 0.049050
v 0.148618 2.744665 0.111040
v 0.215135 2.743489 0.253151
v 0.217719 2.513196 0.049050
v 0.215135 2.743489 0.253151
v 0.311788 2.511532 0.250026
v 0.215135 2.743489 0.253151
v -0.013038 2.837482 0.254418
v -0.013038 2.837482 0.254418
v 0.215135 2.743489 0.253151
v -0.013038 2.837482 0.254418
v 0.148618 2.740836 0.395243
v 0.148618 2.740836 0.395243
v -0.013038 2.837482 0.254418
v -0.013038 2.837482 0.254418
v 0.148618 2.740836 0.395243
v -0.013038 2.837482 0.254418
v -0.011968 2.738263 0.454080
v -0.011968 2.738263 0.454080
v -0.013038 2.837482 0.254418
v -0.013038 2.837482 0.254418
v -0.011968 2.738263 0.454080
v -0.013038 2.837482 0.254418
v -0.172554 2.737275 0.395195
v -0.172554 2.737275 0.395195
v -0.013038 2.837482 0.254418
v -0.013038 2.837482 0.254418
v -0.172554 2.737275 0.395195
v -0.013038 2.837482 0.254418
v -0.239071 2.738452 0.253084
v -0.239071 2.738452 0.253084
v -0.013038 2.837482 0.254418
v -0.013038 2.837482 0.254418
v -0.239071 2.738452 0.253084
v -0.013038 2.837482 0.254418
v -0.172554 2.741104 0.110992
v -0.172554 2.741104 0.110992
v -0.013038 2.837482 0.254418
v -0.013038 2.837482 0.254418
v -0.172554 2.741104 0.110992
v -0.013038 2.837482 0.254418
v -0.011968 2.743678 0.052155
v -0.011968 2.743678 0.052155
v -0.013038 2.837482 0.254418
v -0.013038 2.837482 0.254418
v -0.011968 2.743678 0.052155
v -0.013038 2.837482 0.254418
v 0.148618 2.744665 0.111040
v 0.148618 2.744665 0.111040
v -0.013038 2.837482 0.254418
v -0.013038 2.837482 0.254418
v 0.148618 2.744665 0.111040
v -0.013038 2.837482 0.254418
v 0.215135 2.743489 0.253151
v -0.267514 2.333119 0.023317
v -0.021319 2.407704 0.024322
v -0.093661 2.404688 0.188682
v -0.267514 2.333119 0.023317
v -0.093661 2.404688 0.188682
v -0.267514 2.333119 0.023317
v -0.267514 2.333119 0.023317
v -0.093661 2.404688 0.188682
v -0.268311 2.401834 0.256740
v -0.267514 2.333119 0.023317
v -0.268311 2.401834 0.256740
v -0.267514 2.333119 0.023317
v -0.267514 2.333119 0.023317
v -0.268311 2.401834 0.256740
v -0.442960 2.400815 0.188630
v -0.267514 2.333119 0.023317
v -0.442960 2.400815 0.188630
v -0.267514 2.333119 0.023317
v -0.267514 2.333119 0.023317
v -0.442960 2.400815 0.188630
v -0.515302 2.402227 0.024248
v -0.267514 2.333119 0.023317
v -0.515302 2.402227 0.024248
v -0.267514 2.333119 0.023317
v -0.267514 2.333119 0.023317
v -0.515302 2.402227 0.024248
v -0.442960 2.405244 -0.140112
v -0.267514 2.333119 0.023317
v -0.442960 2.405244 -0.140112
v -0.267514 2.333119 0.023317
v -0.267514 2.333119 0.023317
v -0.442960 2.405244 -0.140112
v -0.268311 2.408098 -0.208171
v -0.267514 2.333119 0.023317
v -0.268311 2.408098 -0.208171
v -0.267514 2.333119 0.023317
v -0.267514 2.333119 0.023317
v -0.268311 2.408098 -0.208171
v -0.093661 2.409117 -0.140060
v -0.267514 2.333119 0.023317
v -0.093661 2.409117 -0.140060
v -0.267514 2.333119 0.023317
v -0.267514 2.333119 0.023317
v -0.093661 2.409117 -0.140060
v -0.021319 2.407704 0.024322
v -0.267514 2.333119 0.023317
v -0.021319 2.407704 0.024322
v -0.267514 2.333119 0.023317
v -0.021319 2.407704 0.024322
v 0.079064 2.582290 0.026674
v -0.023243 2.578024 0.259114
v -0.021319 2.407704 0.024322
v -0.023243 2.578024 0.259114
v -0.093661 2.404688 0.188682
v -0.093661 2.404688 0.188682
v -0.023243 2.578024 0.259114
v -0.270234 2.573988 0.355364
v -0.093661 2.404688 0.188682
v -0.270234 2.573988 0.355364
v -0.268311 2.401834 0.256740
v -0.268311 2.401834 0.256740
v -0.270234 2.573988 0.355364
v -0.517226 2.572546 0.259040
v -0.268311 2.401834 0.256740
v -0.517226 2.572546 0.259040
v -0.442960 2.400815 0.188630
v -0.442960 2.400815 0.188630
v -0.517226 2.572546 0.259040
v -0.619533 2.574544 0.026570
v -0.442960 2.400815 0.188630
v -0.619533 2.574544 0.026570
v -0.515302 2.402227 0.024248
v -0.515302 2.402227 0.024248
v -0.619533 2.574544 0.026570
v -0.517226 2.578811 -0.205871
v -0.515302 2.402227 0.024248
v -0.517226 2.578811 -0.205871
v -0.442960 2.405244 -0.140112
v -0.442960 2.405244 -0.140112
v -0.517226 2.578811 -0.205871
v -0.270234 2.582847 -0.302120
v -0.442960 2.405244 -0.140112
v -0.270234 2.582847 -0.302120
v -0.268311 2.408098 -0.208171
v -0.268311 2.408098 -0.208171
v -0.270234 2.582847 -0.302120
v -0.023243 2.584288 -0.205797
v -0.268311 2.408098 -0.208171
v -0.023243 2.584288 -0.205797
v -0.093661 2.409117 -0.140060
v -0.093661 2.409117 -0.140060
v -0.023243 2.584288 -0.205797
v 0.079064 2.582290 0.026674
v -0.093661 2.409117 -0.140060
v 0.079064 2.582290 0.026674
v -0.021319 2.407704 0.024322
v 0.079064 2.582290 0.026674
v -0.025167 2.754608 0.028996
v -0.097509 2.751591 0.193356
v 0.079064 2.582290 0.026674
v -0.097509 2.751591 0.193356
v -0.023243 2.578024 0.259114
v -0.023243 2.578024 0.259114
v -0.097509 2.751591 0.193356
v -0.272158 2.748737 0.261414
v -0.023243 2.578024 0.259114
v -0.272158 2.748737 0.261414
v -0.270234 2.573988 0.355364
v -0.270234 2.573988 0.355364
v -0.272158 2.748737 0.261414
v -0.446807 2.747718 0.193304
v -0.270234 2.573988 0.355364
v -0.446807 2.747718 0.193304
v -0.517226 2.572546 0.259040
v -0.517226 2.572546 0.259040
v -0.446807 2.747718 0.193304
v -0.519149 2.749130 0.028922
v -0.517226 2.572546 0.259040
v -0.519149 2.749130 0.028922
v -0.619533 2.574544 0.026570
v -0.619533 2.574544 0.026570
v -0.519149 2.749130 0.028922
v -0.446807 2.752147 -0.135438
v -0.619533 2.574544 0.026570
v -0.446807 2.752147 -0.135438
v -0.517226 2.578811 -0.205871
v -0.517226 2.578811 -0.205871
v -0.446807 2.752147 -0.135438
v -0.272158 2.755001 -0.203497
v -0.517226 2.578811 -0.205871
v -0.272158 2.755001 -0.203497
v -0.270234 2.582847 -0.302120
v -0.270234 2.582847 -0.302120
v -0.272158 2.755001 -0.203497
v -0.097509 2.756020 -0.135386
v -0.270234 2.582847 -0.302120
v -0.097509 2.756020 -0.135386
v -0.023243 2.584288 -0.205797
v -0.023243 2.584288 -0.205797
v -0.097509 2.756020 -0.135386
v -0.025167 2.754608 0.028996
v -0.023243 2.584288 -0.205797
v -0.025167 2.754608 0.028996
v 0.079064 2.582290 0.026674
v -0.025167 2.754608 0.028996
v -0.272955 2.823715 0.029927
v -0.272955 2.823715 0.029927
v -0.025167 2.754608 0.028996
v -0.272955 2.823715 0.029927
v -0.097509 2.751591 0.193356
v -0.097509 2.751591 0.193356
v -0.272955 2.823715 0.029927
v -0.272955 2.823715 0.029927
v -0.097509 2.751591 0.193356
v -0.272955 2.823715 0.029927
v -0.272158 2.748737 0.261414
v -0.272158 2.748737 0.261414
v -0.272955 2.823715 0.029927
v -0.272955 2.823715 0.029927
v -0.272158 2.748737 0.261414
v -0.272955 2.823715 0.029927
v -0.446807 2.747718 0.193304
v -0.446807 2.747718 0.193304
v -0.272955 2.823715 0.029927
v -0.272955 2.823715 0.029927
v -0.446807 2.747718 0.193304
v -0.272955 2.823715 0.029927
v -0.519149 2.749130 0.028922
v -0.519149 2.749130 0.028922
v -0.272955 2.823715 0.029927
v -0.272955 2.823715 0.029927
v -0.519149 2.749130 0.028922
v -0.272955 2.823715 0.029927
v -0.446807 2.752147 -0.135438
v -0.446807 2.752147 -0.135438
v -0.272955 2.823715 0.029927
v -0.272955 2.823715 0.029927
v -0.446807 2.752147 -0.135438
v -0.272955 2.823715 0.029927
v -0.272158 2.755001 -0.203497
v -0.272158 2.755001 -0.203497
v -0.272955 2.823715 0.029927
v -0.272955 2.823715 0.029927
v -0.272158 2.755001 -0.203497
v -0.272955 2.823715 0.029927
v -0.097509 2.756020 -0.135386
v -0.097509 2.756020 -0.135386
v -0.272955 2.823715 0.029927
v -0.272955 2.823715 0.029927
v -0.097509 2.756020 -0.135386
v -0.272955 2.823715 0.029927
v -0.025167 2.754608 0.028996
f 961 962 963
f 964 965 966
f 967 968 969
f 970 971 972
f 973 974 975
f 976 977 978
f 979 980 981
f 982 983 984
f 985 986 987
f 988 989 990
f 991 992 993
f 994 995 996
f 997 998 999
f 1000 1001 1002
f 1003 1004 1005
f 1006 1007 1008
f 1009 1010 1011
f 1012 1013 1014
f 1015 1016 1017
f 1018 1019 1020
f 1021 1022 1023
f 1024 1025 1026
f 1027 1028 1029
f 1030 1031 1032
f 1033 1034 1035
f 1036 1037 1038
f 1039 1040 1041
f 1042 1043 1044
f 1045 1046 1047
f 1048 1049 1050
f 1051 1052 1053
f 1054 1055 1056
f 1057 1058 1059
f 1060 1061 1062
f 1063 1064 1065
f 1066 1067 1068
f 1069 1070 1071
f 1072 1073 1074
f 1075 1076 1077
f 1078 1079 1080
f 1081 1082 1083
f 1084 1085 1086
f 1087 1088 1089
f 1090 1091 1092
f 1093 1094 1095
f 1096 1097 1098
f 1099 1100 1101
f 1102 1103 1104
f 1105 1106 1107
f 1108 1109 1110
f 1111 1112 1113
f 1114 1115 1116
f 1117 1118 1119
f 1120 1121 1122
f 1123 1124 1125
f 1126 1127 1128
f 1129 1130 1131
f 1132 1133 1134
f 1135 1136 1137
f 1138 1139 1140
f 1141 1142 1143
f 1144 1145 1146
f 1147 1148 1149
f 1150 1151 1152
f 1153 1154 1155
f 1156 1157 1158
f 1159 1160 1161
f 1162 1163 1164
f 1165 1166 1167
f 1168 1169 1170
f 1171 1172 1173
f 1174 1175 1176
f 1177 1178 1179
f 1180 1181 1182
f 1183 1184 1185
f 1186 1187 1188
f 1189 1190 1191
f 1192 1193 1194
f 1195 1196 1197
f 1198 1199 1200
f 1201 1202 1203
f 1204 1205 1206
f 1207 1208 1209
f 1210 1211 1212
f 1213 1214 1215
f 1216 1217 1218
f 1219 1220 1221
f 1222 1223 1224
f 1225 1226 1227
f 1228 1229 1230
f 1231 1232 1233
f 1234 1235 1236
f 1237 1238 1239
f 1240 1241 1242
f 1243 1244 1245
f 1246 1247 1248
f 1249 1250 1251
f 1252 1253 1254
f 1255 1256 1257
f 1258 1259 1260
f 1261 1262 1263
f 1264 1265 1266
f 1267 1268 1269
f 1270 1271 1272
f 1273 1274 1275
f 1276 1277 1278
f 1279 1280 1281
f 1282 1283 1284
f 1285 1286 1287
f 1288 1289 1290
f 1291 1292 1293
f 1294 1295 1296
f 1297 1298 1299
f 1300 1301 1302
f 1303 1304 1305
f 1306 1307 1308
f 1309 1310 1311
f 1312 1313 1314
f 1315 1316 1317
f 1318 1319 1320
f 1321 1322 1323
f 1324 1325 1326
f 1327 1328 1329
f 1330 1331 1332
f 1333 1334 1335
f 1336 1337 1338
f 1339 1340 1341
f 1342 1343 1344
f 1345 1346 1347
f 1348 1349 1350
f 1351 1352 1353
f 1354 1355 1356
f 1357 1358 1359
f 1360 1361 1362
f 1363 1364 1365
f 1366 1367 1368
f 1369 1370 1371
f 1372 1373 1374
f 1375 1376 1377
f 1378 1379 1380
f 1381 1382 1383
f 1384 1385 1386
f 1387 1388 1389
f 1390 1391 1392
f 1393 1394 1395
f 1396 1397 1398
f 1399 1400 1401
f 1402 1403 1404
f 1405 1406 1407
f 1408 1409 1410
f 1411 1412 1413
f 1414 1415 1416
f 1417 1418 1419
f 1420 1421 1422
f 1423 1424 1425
f 1426 1427 1428
f 1429 1430 1431
f 1432 1433 1434
f 1435 1436 1437
f 1438 1439 1440
f 1441 1442 1443
f 1444 1445 1446
f 1447 1448 1449
f 1450 1451 1452
f 1453 1454 1455
f 1456 1457 1458
f 1459 1460 1461
f 1462 1463 1464
f 1465 1466 1467
f 1468 1469 1470
f 1471 1472 1473
f 1474 1475 1476
f 1477 1478 1479
f 1480 1481 1482
f 1483 1484 1485
f 1486 1487 1488
f 1489 1490 1491
f 1492 1493 1494
f 1495 1496 1497
f 1498 1499 1500
f 1501 1502 1503
f 1504 1505 1506
f 1507 1508 1509
f 1510 1511 1512
f 1513 1514 1515
f 1516 1517 1518
f 1519 1520 1521
f 1522 1523 1524
f 1525 1526 1527
f 1528 1529 1530
f 1531 1532 1533
f 1534 1535 1536
f 1537 1538 1539
f 1540 1541 1542
f 1543 1544 1545
f 1546 1547 1548
f 1549 1550 1551
f 1552 1553 1554
f 1555 1556 1557
f 1558 1559 1560
f 1561 1562 1563
f 1564 1565 1566
f 1567 1568 1569
f 1570 1571 1572
f 1573 1574 1575
f 1576 1577 1578
f 1579 1580 1581
f 1582 1583 1584
f 1585 1586 1587
f 1588 1589 1590
f 1591 1592 1593
f 1594 1595 1596
f 1597 1598 1599
f 1600 1601 1602
f 1603 1604 1605
f 1606 1607 1608
f 1609 1610 1611
f 1612 1613 1614
f 1615 1616 1617
f 1618 1619 1620
f 1621 1622 1623
f 1624 1625 1626
f 1627 1628 1629
f 1630 1631 1632
f 1633 1634 1635
f 1636 1637 1638
f 1639 1640 1641
f 1642 1643 1644
f 1645 1646 1647
f 1648 1649 1650
f 1651 1652 1653
f 1654 1655 1656
f 1657 1658 1659
f 1660 1661 1662
f 1663 1664 1665
f 1666 1667 1668
f 1669 1670 1671
f 1672 1673 1674
f 1675 1676 1677
f 1678 1679 1680
f 1681 1682 1683
f 1684 1685 1686
f 1687 1688 1689
f 1690 1691 1692
f 1693 1694 1695
f 1696 1697 1698
f 1699 1700 1701
f 1702 1703 1704
f 1705 1706 1707
f 1708 1709 1710
f 1711 1712 1713
f 1714 1715 1716
f 1717 1718 1719
f 1720 1721 1722
f 1723 1724 1725
f 1726 1727 1728
f 1729 1730 1731
f 1732 1733 1734
f 1735 1736 1737
f 1738 1739 1740
f 1741 1742 1743
f 1744 1745 1746
f 1747 1748 1749
f 1750 1751 1752
f 1753 1754 1755
f 1756 1757 1758
f 1759 1760 1761
f 1762 1763 1764
f 1765 1766 1767
f 1768 1769 1770
f 1771 1772 1773
f 1774 1775 1776
f 1777 1778 1779
f 1780 1781 1782
f 1783 1784 1785
f 1786 1787 1788
f 1789 1790 1791
f 1792 1793 1794
f 1795 1796 1797
f 1798 1799 1800
f 1801 1802 1803
f 1804 1805 1806
f 1807 1808 1809
f 1810 1811 1812
f 1813 1814 1815
f 1816 1817 1818
f 1819 1820 1821
f 1822 1823 1824
f 1825 1826 1827
f 1828 1829 1830
f 1831 1832 1833
f 1834 1835 1836
f 1837 1838 1839
f 1840 1841 1842
f 1843 1844 1845
f 1846 1847 1848
f 1849 1850 1851
f 1852 1853 1854
f 1855 1856 1857
f 1858 1859 1860
f 1861 1862 1863
f 1864 1865 1866
f 1867 1868 1869
f 1870 1871 1872
f 1873 1874 1875
f 1876 1877 1878
f 1879 1880 1881
f 1882 1883 1884
f 1885 1886 1887
f 1888 1889 1890
f 1891 1892 1893
f 1894 1895 1896
f 1897 1898 1899
f 1900 1901 1902
f 1903 1904 1905
f 1906 1907 1908
f 1909 1910 1911
f 1912 1913 1914
f 1915 1916 1917
f 1918 1919 1920
f 1921 1922 1923
f 1924 1925 1926
f 1927 1928 1929
f 1930 1931 1932
f 1933 1934 1935
f 1936 1937 1938
f 1939 1940 1941
f 1942 1943 1944
f 1945 1946 1947
f 1948 1949 1950
f 1951 1952 1953
f 1954 1955 1956
f 1957 1958 1959
f 1960 1961 1962
f 1963 1964 1965
f 1966 1967 1968
f 1969 1970 1971
f 1972 1973 1974
f 1975 1976 1977
f 1978 1979 1980
f 1981 1982 1983
f 1984 1985 1986
f 1987 1988 1989
f 1990 1991 1992
f 1993 1994 1995
f 1996 1997 1998
f 1999 2000 2001
f 2002 2003 2004
f 2005 2006 2007
f 2008 2009 2010
f 2011 2012 2013
f 2014 2015 2016
f 2017 2018 2019
f 2020 2021 2022
f 2023 2024 2025
f 2026 2027 2028
f 2029 2030 2031
f 2032 2033 2034
f 2035 2036 2037
f 2038 2039 2040
f 2041 2042 2043
f 2044 2045 2046
f 2047 2048 2049
f 2050 2051 2052
f 2053 2054 2055
f 2056 2057 2058
f 2059 2060 2061
f 2062 2063 2064
f 2065 2066 2067
f 2068 2069 2070
f 2071 2072 2073
f 2074 2075 2076
f 2077 2078 2079
f 2080 2081 2082
f 2083 2084 2085
f 2086 2087 2088
f 2089 2090 2091
f 2092 2093 2094
f 2095 2096 2097
f 2098 2099 2100
f 2101 2102 2103
f 2104 2105 2106
f 2107 2108 2109
f 2110 2111 2112
f 2113 2114 2115
f 2116 2117 2118
f 2119 2120 2121
f 2122 2123 2124
f 2125 2126 2127
f 2128 2129 2130
f 2131 2132 2133
f 2134 2135 2136
f 2137 2138 2139
f 2140 2141 2142
f 2143 2144 2145
f 2146 2147 2148
f 2149 2150 2151
f 2152 2153 2154
f 2155 2156 2157
f 2158 2159 2160
f 2161 2162 2163
f 2164 2165 2166
f 2167 2168 2169
f 2170 2171 2172
f 2173 2174 2175
f 2176 2177 2178
f 2179 2180 2181
f 2182 2183 2184
f 2185 2186 2187
f 2188 2189 2190
f 2191 2192 2193
f 2194 2195 2196
f 2197 2198 2199
f 2200 2201 2202
f 2203 2204 2205
f 2206 2207 2208
f 2209 2210 2211
f 2212 2213 2214
f 2215 2216 2217
f 2218 2219 2220
f 2221 2222 2223
f 2224 2225 2226
f 2227 2228 2229
f 2230 2231 2232
f 2233 2234 2235
f 2236 2237 2238
f 2239 2240 2241
f 2242 2243 2244
f 2245 2246 2247
f 2248 2249 2250
f 2251 2252 2253
f 2254 2255 2256
f 2257 2258 2259
f 2260 2261 2262
f 2263 2264 2265
f 2266 2267 2268
f 2269 2270 2271
f 2272 2273 2274
f 2275 2276 2277
f 2278 2279 2280
f 2281 2282 2283
f 2284 2285 2286
f 2287 2288 2289
f 2290 2291 2292
f 2293 2294 2295
f 2296 2297 2298
f 2299 2300 2301
f 2302 2303 2304
f 2305 2306 2307
f 2308 2309 2310
f 2311 2312 2313
f 2314 2315 2316
f 2317 2318 2319
f 2320 2321 2322
f 2323 2324 2325
f 2326 2327 2328
f 2329 2330 2331
f 2332 2333 2334
f 2335 2336 2337
f 2338 2339 2340
f 2341 2342 2343
f 2344 2345 2346
f 2347 2348 2349
f 2350 2351 2352
f 2353 2354 2355
f 2356 2357 2358
f 2359 2360 2361
f 2362 2363 2364
f 2365 2366 2367
f 2368 2369 2370
f 2371 2372 2373
f 2374 2375 2376
f 2377 2378 2379
f 2380 2381 2382
f 2383 2384 2385
f 2386 2387 2388
f 2389 2390 2391
f 2392 2393 2394
f 2395 2396 2397
f 2398 2399 2400
f 2401 2402 2403
f 2404 2405 2406
f 2407 2408 2409
f 2410 2411 2412
f 2413 2414 2415
f 2416 2417 2418
f 2419 2420 2421
f 2422 2423 2424
f 2425 2426 2427
f 2428 2429 2430
f 2431 2432 2433
f 2434 2435 2436
f 2437 2438 2439
f 2440 2441 2442
f 2443 2444 2445
f 2446 2447 2448
f 2449 2450 2451
f 2452 2453 2454
f 2455 2456 2457
f 2458 2459 2460
f 2461 2462 2463
f 2464 2465 2466
f 2467 2468 2469
f 2470 2471 2472
f 2473 2474 2475
f 2476 2477 2478
f 2479 2480 2481
f 2482 2483 2484
f 2485 2486 2487
f 2488 2489 2490
f 2491 2492 2493
f 2494 2495 2496
f 2497 2498 2499
f 2500 2501 2502
f 2503 2504 2505
f 2506 2507 2508
f 2509 2510 2511
f 2512 2513 2514
f 2515 2516 2517
f 2518 2519 2520
f 2521 2522 2523
f 2524 2525 2526
f 2527 2528 2529
f 2530 2531 2532
f 2533 2534 2535
f 2536 2537 2538
f 2539 2540 2541
f 2542 2543 2544
f 2545 2546 2547
f 2548 2549 2550
f 2551 2552 2553
f 2554 2555 2556
f 2557 2558 2559
f 2560 2561 2562
f 2563 2564 2565
f 2566 2567 2568
f 2569 2570 2571
f 2572 2573 2574
f 2575 2576 2577
f 2578 2579 2580
f 2581 2582 2583
f 2584 2585 2586
f 2587 2588 2589
f 2590 2591 2592
f 2593 2594 2595
f 2596 2597 2598
f 2599 2600 2601
f 2602 2603 2604
f 2605 2606 2607
f 2608 2609 2610
f 2611 2612 2613
f 2614 2615 2616
f 2617 2618 2619
f 2620 2621 2622
f 2623 2624 2625
f 2626 2627 2628
f 2629 2630 2631
f 2632 2633 2634
f 2635 2636 2637
f 2638 2639 2640
f 2641 2642 2643
f 2644 2645 2646
f 2647 2648 2649
f 2650 2651 2652
f 2653 2654 2655
f 2656 2657 2658
f 2659 2660 2661
f 2662 2663 2664
f 2665 2666 2667
f 2668 2669 2670
f 2671 2672 2673
f 2674 2675 2676
f 2677 2678 2679
f 2680 2681 2682
f 2683 2684 2685
f 2686 2687 2688
