# Pyramida editable prop source
# units: 1 OBJ unit = 1 Pyramida World Unit = 1 Blender metre

o TreeTrunk
v 0.043071 0.075685 0.105317
v 0.303392 0.012997 0.033224
v 0.309712 0.035998 0.009079
v 0.043071 0.075685 0.105317
v 0.309712 0.035998 0.009079
v 0.070720 0.176314 -0.000320
v 0.046321 0.074190 0.000378
v 0.043071 0.075685 0.105317
v 0.070720 0.176314 -0.000320
v 0.304135 0.012656 0.009238
v 0.309712 0.035998 0.009079
v 0.303392 0.012997 0.033224
v 0.070720 0.176314 -0.000320
v 0.309712 0.035998 0.009079
v 0.304878 0.012314 -0.014748
v 0.070720 0.176314 -0.000320
v 0.304878 0.012314 -0.014748
v 0.049571 0.072696 -0.104561
v 0.046321 0.074190 0.000378
v 0.070720 0.176314 -0.000320
v 0.049571 0.072696 -0.104561
v 0.304135 0.012656 0.009238
v 0.304878 0.012314 -0.014748
v 0.309712 0.035998 0.009079
v 0.049571 0.072696 -0.104561
v 0.304878 0.012314 -0.014748
v 0.298558 -0.010687 0.009398
v 0.049571 0.072696 -0.104561
v 0.298558 -0.010687 0.009398
v 0.021922 -0.027933 0.001077
v 0.046321 0.074190 0.000378
v 0.049571 0.072696 -0.104561
v 0.021922 -0.027933 0.001077
v 0.304135 0.012656 0.009238
v 0.298558 -0.010687 0.009398
v 0.304878 0.012314 -0.014748
v 0.021922 -0.027933 0.001077
v 0.298558 -0.010687 0.009398
v 0.303392 0.012997 0.033224
v 0.021922 -0.027933 0.001077
v 0.303392 0.012997 0.033224
v 0.043071 0.075685 0.105317
v 0.046321 0.074190 0.000378
v 0.021922 -0.027933 0.001077
v 0.043071 0.075685 0.105317
v 0.304135 0.012656 0.009238
v 0.303392 0.012997 0.033224
v 0.298558 -0.010687 0.009398
v -0.109501 0.076599 -0.028585
v -0.220744 0.025423 0.251796
v -0.203992 0.048920 0.269664
v -0.109501 0.076599 -0.028585
v -0.203992 0.048920 0.269664
v -0.036212 0.179398 0.049590
v -0.025819 0.075961 0.034834
v -0.109501 0.076599 -0.028585
v -0.036212 0.179398 0.049590
v -0.201617 0.025277 0.266292
v -0.203992 0.048920 0.269664
v -0.220744 0.025423 0.251796
v -0.036212 0.179398 0.049590
v -0.203992 0.048920 0.269664
v -0.182490 0.025131 0.280787
v -0.036212 0.179398 0.049590
v -0.182490 0.025131 0.280787
v 0.057863 0.075322 0.098252
v -0.025819 0.075961 0.034834
v -0.036212 0.179398 0.049590
v 0.057863 0.075322 0.098252
v -0.201617 0.025277 0.266292
v -0.182490 0.025131 0.280787
v -0.203992 0.048920 0.269664
v 0.057863 0.075322 0.098252
v -0.182490 0.025131 0.280787
v -0.199241 0.001635 0.262919
v 0.057863 0.075322 0.098252
v -0.199241 0.001635 0.262919
v -0.015426 -0.027477 0.020078
v -0.025819 0.075961 0.034834
v 0.057863 0.075322 0.098252
v -0.015426 -0.027477 0.020078
v -0.201617 0.025277 0.266292
v -0.199241 0.001635 0.262919
v -0.182490 0.025131 0.280787
v -0.015426 -0.027477 0.020078
v -0.199241 0.001635 0.262919
v -0.220744 0.025423 0.251796
v -0.015426 -0.027477 0.020078
v -0.220744 0.025423 0.251796
v -0.109501 0.076599 -0.028585
v -0.025819 0.075961 0.034834
v -0.015426 -0.027477 0.020078
v -0.109501 0.076599 -0.028585
v -0.201617 0.025277 0.266292
v -0.220744 0.025423 0.251796
v -0.199241 0.001635 0.262919
v 0.052133 0.072667 -0.103328
v -0.133654 0.017747 -0.194723
v -0.155984 0.041278 -0.184742
v 0.052133 0.072667 -0.103328
v -0.155984 0.041278 -0.184742
v -0.045561 0.175618 -0.059659
v -0.027812 0.075037 -0.035298
v 0.052133 0.072667 -0.103328
v -0.045561 0.175618 -0.059659
v -0.151927 0.018288 -0.179173
v -0.155984 0.041278 -0.184742
v -0.133654 0.017747 -0.194723
v -0.045561 0.175618 -0.059659
v -0.155984 0.041278 -0.184742
v -0.170200 0.018830 -0.163624
v -0.045561 0.175618 -0.059659
v -0.170200 0.018830 -0.163624
v -0.107758 0.077407 0.032733
v -0.027812 0.075037 -0.035298
v -0.045561 0.175618 -0.059659
v -0.107758 0.077407 0.032733
v -0.151927 0.018288 -0.179173
v -0.170200 0.018830 -0.163624
v -0.155984 0.041278 -0.184742
v -0.107758 0.077407 0.032733
v -0.170200 0.018830 -0.163624
v -0.147870 -0.004701 -0.173605
v -0.107758 0.077407 0.032733
v -0.147870 -0.004701 -0.173605
v -0.010064 -0.025544 -0.010937
v -0.027812 0.075037 -0.035298
v -0.107758 0.077407 0.032733
v -0.010064 -0.025544 -0.010937
v -0.151927 0.018288 -0.179173
v -0.147870 -0.004701 -0.173605
v -0.170200 0.018830 -0.163624
v -0.010064 -0.025544 -0.010937
v -0.147870 -0.004701 -0.173605
v -0.133654 0.017747 -0.194723
v -0.010064 -0.025544 -0.010937
v -0.133654 0.017747 -0.194723
v 0.052133 0.072667 -0.103328
v -0.027812 0.075037 -0.035298
v -0.010064 -0.025544 -0.010937
v 0.052133 0.072667 -0.103328
v -0.151927 0.018288 -0.179173
v -0.133654 0.017747 -0.194723
v -0.147870 -0.004701 -0.173605
v -0.000033 -0.004000 -0.159950
v -0.020177 0.996985 -0.156634
v 0.093840 1.000925 -0.090902
v -0.000033 -0.004000 -0.159950
v 0.093840 1.000925 -0.090902
v 0.138520 0.000788 -0.080073
v 0.000000 0.000000 0.000000
v -0.000033 -0.004000 -0.159950
v 0.138520 0.000788 -0.080073
v 0.138520 0.000788 -0.080073
v 0.093840 1.000925 -0.090902
v 0.093867 1.004216 0.040723
v 0.138520 0.000788 -0.080073
v 0.093867 1.004216 0.040723
v 0.138552 0.004788 0.079877
v 0.000000 0.000000 0.000000
v 0.138520 0.000788 -0.080073
v 0.138552 0.004788 0.079877
v 0.138552 0.004788 0.079877
v 0.093867 1.004216 0.040723
v -0.020123 1.003568 0.106617
v 0.138552 0.004788 0.079877
v -0.020123 1.003568 0.106617
v 0.000033 0.004000 0.159950
v 0.000000 0.000000 0.000000
v 0.138552 0.004788 0.079877
v 0.000033 0.004000 0.159950
v 0.000033 0.004000 0.159950
v -0.020123 1.003568 0.106617
v -0.134140 0.999627 0.040885
v 0.000033 0.004000 0.159950
v -0.134140 0.999627 0.040885
v -0.138520 -0.000788 0.080073
v 0.000000 0.000000 0.000000
v 0.000033 0.004000 0.159950
v -0.138520 -0.000788 0.080073
v -0.138520 -0.000788 0.080073
v -0.134140 0.999627 0.040885
v -0.134167 0.996336 -0.090741
v -0.138520 -0.000788 0.080073
v -0.134167 0.996336 -0.090741
v -0.138552 -0.004788 -0.079877
v 0.000000 0.000000 0.000000
v -0.138520 -0.000788 0.080073
v -0.138552 -0.004788 -0.079877
v -0.138552 -0.004788 -0.079877
v -0.134167 0.996336 -0.090741
v -0.020177 0.996985 -0.156634
v -0.138552 -0.004788 -0.079877
v -0.020177 0.996985 -0.156634
v -0.000033 -0.004000 -0.159950
v 0.000000 0.000000 0.000000
v -0.138552 -0.004788 -0.079877
v -0.000033 -0.004000 -0.159950
v -0.020105 1.000996 -0.156673
v -0.009798 2.000985 -0.122873
v 0.079669 1.999780 -0.071181
v -0.020105 1.000996 -0.156673
v 0.079669 1.999780 -0.071181
v 0.093893 0.999459 -0.090808
v 0.093893 0.999459 -0.090808
v 0.079669 1.999780 -0.071181
v 0.079633 1.999215 0.032151
v 0.093893 0.999459 -0.090808
v 0.079633 1.999215 0.032151
v 0.093848 0.998740 0.040856
v 0.093848 0.998740 0.040856
v 0.079633 1.999215 0.032151
v -0.009869 1.999856 0.083791
v 0.093848 0.998740 0.040856
v -0.009869 1.999856 0.083791
v -0.020196 0.999557 0.106656
v -0.020196 0.999557 0.106656
v -0.009869 1.999856 0.083791
v -0.099336 2.001062 0.032099
v -0.020196 0.999557 0.106656
v -0.099336 2.001062 0.032099
v -0.134194 1.001093 0.040791
v -0.134194 1.001093 0.040791
v -0.099336 2.001062 0.032099
v -0.099300 2.001626 -0.071233
v -0.134194 1.001093 0.040791
v -0.099300 2.001626 -0.071233
v -0.134148 1.001812 -0.090874
v -0.134148 1.001812 -0.090874
v -0.099300 2.001626 -0.071233
v -0.009798 2.000985 -0.122873
v -0.134148 1.001812 -0.090874
v -0.009798 2.000985 -0.122873
v -0.020105 1.000996 -0.156673
v -0.009741 2.004129 -0.122808
v 0.031017 3.003125 -0.058548
v 0.095882 2.999134 -0.021109
v -0.009741 2.004129 -0.122808
v 0.095882 2.999134 -0.021109
v 0.079628 1.998630 -0.071225
v 0.030950 3.000434 0.016404
v 0.095882 2.999134 -0.021109
v 0.031017 3.003125 -0.058548
v 0.079628 1.998630 -0.071225
v 0.095882 2.999134 -0.021109
v 0.095815 2.996443 0.053842
v 0.079628 1.998630 -0.071225
v 0.095815 2.996443 0.053842
v 0.079535 1.994922 0.032041
v 0.030950 3.000434 0.016404
v 0.095815 2.996443 0.053842
v 0.095882 2.999134 -0.021109
v 0.079535 1.994922 0.032041
v 0.095815 2.996443 0.053842
v 0.030883 2.997743 0.091355
v 0.079535 1.994922 0.032041
v 0.030883 2.997743 0.091355
v -0.009926 1.996713 0.083726
v 0.030950 3.000434 0.016404
v 0.030883 2.997743 0.091355
v 0.095815 2.996443 0.053842
v -0.009926 1.996713 0.083726
v 0.030883 2.997743 0.091355
v -0.033981 3.001733 0.053916
v -0.009926 1.996713 0.083726
v -0.033981 3.001733 0.053916
v -0.099295 2.002212 0.032144
v 0.030950 3.000434 0.016404
v -0.033981 3.001733 0.053916
v 0.030883 2.997743 0.091355
v -0.099295 2.002212 0.032144
v -0.033981 3.001733 0.053916
v -0.033914 3.004425 -0.021035
v -0.099295 2.002212 0.032144
v -0.033914 3.004425 -0.021035
v -0.099202 2.005919 -0.071123
v 0.030950 3.000434 0.016404
v -0.033914 3.004425 -0.021035
v -0.033981 3.001733 0.053916
v -0.099202 2.005919 -0.071123
v -0.033914 3.004425 -0.021035
v 0.031017 3.003125 -0.058548
v -0.099202 2.005919 -0.071123
v 0.031017 3.003125 -0.058548
v -0.009741 2.004129 -0.122808
v 0.030950 3.000434 0.016404
v 0.031017 3.003125 -0.058548
v -0.033914 3.004425 -0.021035
v -0.027801 2.459048 -0.000368
v 0.027132 2.656766 0.402078
v 0.042284 2.670337 0.394159
v -0.027801 2.459048 -0.000368
v 0.042284 2.670337 0.394159
v 0.008275 2.491362 -0.019222
v 0.008842 2.458351 -0.003081
v -0.027801 2.459048 -0.000368
v 0.008275 2.491362 -0.019222
v 0.042522 2.656473 0.400938
v 0.042284 2.670337 0.394159
v 0.027132 2.656766 0.402078
v 0.008275 2.491362 -0.019222
v 0.042284 2.670337 0.394159
v 0.057912 2.656180 0.399799
v 0.008275 2.491362 -0.019222
v 0.057912 2.656180 0.399799
v 0.045486 2.457654 -0.005794
v 0.008842 2.458351 -0.003081
v 0.008275 2.491362 -0.019222
v 0.045486 2.457654 -0.005794
v 0.042522 2.656473 0.400938
v 0.057912 2.656180 0.399799
v 0.042284 2.670337 0.394159
v 0.045486 2.457654 -0.005794
v 0.057912 2.656180 0.399799
v 0.042760 2.642608 0.407717
v 0.045486 2.457654 -0.005794
v 0.042760 2.642608 0.407717
v 0.009410 2.425340 0.013060
v 0.008842 2.458351 -0.003081
v 0.045486 2.457654 -0.005794
v 0.009410 2.425340 0.013060
v 0.042522 2.656473 0.400938
v 0.042760 2.642608 0.407717
v 0.057912 2.656180 0.399799
v 0.009410 2.425340 0.013060
v 0.042760 2.642608 0.407717
v 0.027132 2.656766 0.402078
v 0.009410 2.425340 0.013060
v 0.027132 2.656766 0.402078
v -0.027801 2.459048 -0.000368
v 0.008842 2.458351 -0.003081
v 0.009410 2.425340 0.013060
v -0.027801 2.459048 -0.000368
v 0.042522 2.656473 0.400938
v 0.027132 2.656766 0.402078
v 0.042760 2.642608 0.407717
v 0.013178 2.577614 0.233971
v -0.056811 2.713144 0.456444
v -0.046719 2.720811 0.455268
v 0.013178 2.577614 0.233971
v -0.046719 2.720811 0.455268
v 0.032133 2.592015 0.231762
v 0.029081 2.577406 0.239701
v 0.013178 2.577614 0.233971
v 0.032133 2.592015 0.231762
v -0.048344 2.713033 0.459495
v -0.046719 2.720811 0.455268
v -0.056811 2.713144 0.456444
v 0.032133 2.592015 0.231762
v -0.046719 2.720811 0.455268
v -0.039878 2.712923 0.462546
v 0.032133 2.592015 0.231762
v -0.039878 2.712923 0.462546
v 0.044984 2.577198 0.245432
v 0.029081 2.577406 0.239701
v 0.032133 2.592015 0.231762
v 0.044984 2.577198 0.245432
v -0.048344 2.713033 0.459495
v -0.039878 2.712923 0.462546
v -0.046719 2.720811 0.455268
v 0.044984 2.577198 0.245432
v -0.039878 2.712923 0.462546
v -0.049969 2.705256 0.463722
v 0.044984 2.577198 0.245432
v -0.049969 2.705256 0.463722
v 0.026029 2.562797 0.247641
v 0.029081 2.577406 0.239701
v 0.044984 2.577198 0.245432
v 0.026029 2.562797 0.247641
v -0.048344 2.713033 0.459495
v -0.049969 2.705256 0.463722
v -0.039878 2.712923 0.462546
v 0.026029 2.562797 0.247641
v -0.049969 2.705256 0.463722
v -0.056811 2.713144 0.456444
v 0.026029 2.562797 0.247641
v -0.056811 2.713144 0.456444
v 0.013178 2.577614 0.233971
v 0.029081 2.577406 0.239701
v 0.026029 2.562797 0.247641
v 0.013178 2.577614 0.233971
v -0.048344 2.713033 0.459495
v -0.056811 2.713144 0.456444
v -0.049969 2.705256 0.463722
v 0.021373 2.595067 0.262607
v -0.077723 2.660397 0.354004
v -0.068976 2.668486 0.358484
v 0.021373 2.595067 0.262607
v -0.068976 2.668486 0.358484
v 0.037802 2.610261 0.271021
v 0.032081 2.595053 0.275688
v 0.021373 2.595067 0.262607
v 0.037802 2.610261 0.271021
v -0.072022 2.660390 0.360968
v -0.068976 2.668486 0.358484
v -0.077723 2.660397 0.354004
v 0.037802 2.610261 0.271021
v -0.068976 2.668486 0.358484
v -0.066322 2.660383 0.367933
v 0.037802 2.610261 0.271021
v -0.066322 2.660383 0.367933
v 0.042789 2.595039 0.288770
v 0.032081 2.595053 0.275688
v 0.037802 2.610261 0.271021
v 0.042789 2.595039 0.288770
v -0.072022 2.660390 0.360968
v -0.066322 2.660383 0.367933
v -0.068976 2.668486 0.358484
v 0.042789 2.595039 0.288770
v -0.066322 2.660383 0.367933
v -0.075068 2.652294 0.363453
v 0.042789 2.595039 0.288770
v -0.075068 2.652294 0.363453
v 0.026360 2.579846 0.280355
v 0.032081 2.595053 0.275688
v 0.042789 2.595039 0.288770
v 0.026360 2.579846 0.280355
v -0.072022 2.660390 0.360968
v -0.075068 2.652294 0.363453
v -0.066322 2.660383 0.367933
v 0.026360 2.579846 0.280355
v -0.075068 2.652294 0.363453
v -0.077723 2.660397 0.354004
v 0.026360 2.579846 0.280355
v -0.077723 2.660397 0.354004
v 0.021373 2.595067 0.262607
v 0.032081 2.595053 0.275688
v 0.026360 2.579846 0.280355
v 0.021373 2.595067 0.262607
v -0.072022 2.660390 0.360968
v -0.077723 2.660397 0.354004
v -0.075068 2.652294 0.363453
v 0.024265 2.613073 0.324661
v 0.158736 2.695408 0.424012
v 0.161544 2.703276 0.414408
v 0.024265 2.613073 0.324661
v 0.161544 2.703276 0.414408
v 0.029537 2.627851 0.306623
v 0.035081 2.612700 0.311675
v 0.024265 2.613073 0.324661
v 0.029537 2.627851 0.306623
v 0.164495 2.695210 0.417098
v 0.161544 2.703276 0.414408
v 0.158736 2.695408 0.424012
v 0.029537 2.627851 0.306623
v 0.161544 2.703276 0.414408
v 0.170253 2.695012 0.410184
v 0.029537 2.627851 0.306623
v 0.170253 2.695012 0.410184
v 0.045897 2.612328 0.298689
v 0.035081 2.612700 0.311675
v 0.029537 2.627851 0.306623
v 0.045897 2.612328 0.298689
v 0.164495 2.695210 0.417098
v 0.170253 2.695012 0.410184
v 0.161544 2.703276 0.414408
v 0.045897 2.612328 0.298689
v 0.170253 2.695012 0.410184
v 0.167446 2.687144 0.419787
v 0.045897 2.612328 0.298689
v 0.167446 2.687144 0.419787
v 0.040625 2.597550 0.316727
v 0.035081 2.612700 0.311675
v 0.045897 2.612328 0.298689
v 0.040625 2.597550 0.316727
v 0.164495 2.695210 0.417098
v 0.167446 2.687144 0.419787
v 0.170253 2.695012 0.410184
v 0.040625 2.597550 0.316727
v 0.167446 2.687144 0.419787
v 0.158736 2.695408 0.424012
v 0.040625 2.597550 0.316727
v 0.158736 2.695408 0.424012
v 0.024265 2.613073 0.324661
v 0.035081 2.612700 0.311675
v 0.040625 2.597550 0.316727
v 0.024265 2.613073 0.324661
v 0.164495 2.695210 0.417098
v 0.158736 2.695408 0.424012
v 0.167446 2.687144 0.419787
v 0.006945 2.565794 -0.035410
v -0.437768 2.805835 0.061011
v -0.428054 2.819646 0.074844
v 0.006945 2.565794 -0.035410
v -0.428054 2.819646 0.074844
v 0.030075 2.598679 -0.002475
v 0.013240 2.566176 0.000795
v 0.006945 2.565794 -0.035410
v 0.030075 2.598679 -0.002475
v -0.435124 2.805995 0.076217
v -0.428054 2.819646 0.074844
v -0.437768 2.805835 0.061011
v 0.030075 2.598679 -0.002475
v -0.428054 2.819646 0.074844
v -0.432481 2.806155 0.091424
v 0.030075 2.598679 -0.002475
v -0.432481 2.806155 0.091424
v 0.019535 2.566558 0.036999
v 0.013240 2.566176 0.000795
v 0.030075 2.598679 -0.002475
v 0.019535 2.566558 0.036999
v -0.435124 2.805995 0.076217
v -0.432481 2.806155 0.091424
v -0.428054 2.819646 0.074844
v 0.019535 2.566558 0.036999
v -0.432481 2.806155 0.091424
v -0.442195 2.792343 0.077591
v 0.019535 2.566558 0.036999
v -0.442195 2.792343 0.077591
v -0.003595 2.533673 0.004065
v 0.013240 2.566176 0.000795
v 0.019535 2.566558 0.036999
v -0.003595 2.533673 0.004065
v -0.435124 2.805995 0.076217
v -0.442195 2.792343 0.077591
v -0.432481 2.806155 0.091424
v -0.003595 2.533673 0.004065
v -0.442195 2.792343 0.077591
v -0.437768 2.805835 0.061011
v -0.003595 2.533673 0.004065
v -0.437768 2.805835 0.061011
v 0.006945 2.565794 -0.035410
v 0.013240 2.566176 0.000795
v -0.003595 2.533673 0.004065
v 0.006945 2.565794 -0.035410
v -0.435124 2.805995 0.076217
v -0.437768 2.805835 0.061011
v -0.442195 2.792343 0.077591
v -0.212732 2.683149 0.022279
v -0.386084 2.791983 0.111017
v -0.378323 2.799882 0.117293
v -0.212732 2.683149 0.022279
v -0.378323 2.799882 0.117293
v -0.198155 2.697986 0.034066
v -0.205605 2.683231 0.037608
v -0.212732 2.683149 0.022279
v -0.198155 2.697986 0.034066
v -0.382290 2.792026 0.119178
v -0.378323 2.799882 0.117293
v -0.386084 2.791983 0.111017
v -0.198155 2.697986 0.034066
v -0.378323 2.799882 0.117293
v -0.378495 2.792069 0.127339
v -0.198155 2.697986 0.034066
v -0.378495 2.792069 0.127339
v -0.198478 2.683312 0.052937
v -0.205605 2.683231 0.037608
v -0.198155 2.697986 0.034066
v -0.198478 2.683312 0.052937
v -0.382290 2.792026 0.119178
v -0.378495 2.792069 0.127339
v -0.378323 2.799882 0.117293
v -0.198478 2.683312 0.052937
v -0.378495 2.792069 0.127339
v -0.386256 2.784171 0.121064
v -0.198478 2.683312 0.052937
v -0.386256 2.784171 0.121064
v -0.213055 2.668475 0.041151
v -0.205605 2.683231 0.037608
v -0.198478 2.683312 0.052937
v -0.213055 2.668475 0.041151
v -0.382290 2.792026 0.119178
v -0.386256 2.784171 0.121064
v -0.378495 2.792069 0.127339
v -0.213055 2.668475 0.041151
v -0.386256 2.784171 0.121064
v -0.386084 2.791983 0.111017
v -0.213055 2.668475 0.041151
v -0.386084 2.791983 0.111017
v -0.212732 2.683149 0.022279
v -0.205605 2.683231 0.037608
v -0.213055 2.668475 0.041151
v -0.212732 2.683149 0.022279
v -0.382290 2.792026 0.119178
v -0.386084 2.791983 0.111017
v -0.386256 2.784171 0.121064
v -0.243790 2.704330 0.027514
v -0.468519 2.833737 0.010031
v -0.464984 2.841681 0.019325
v -0.243790 2.704330 0.027514
v -0.464984 2.841681 0.019325
v -0.237150 2.719252 0.044973
v -0.245542 2.704592 0.044326
v -0.243790 2.704330 0.027514
v -0.237150 2.719252 0.044973
v -0.469452 2.833876 0.018981
v -0.464984 2.841681 0.019325
v -0.468519 2.833737 0.010031
v -0.237150 2.719252 0.044973
v -0.464984 2.841681 0.019325
v -0.470385 2.834015 0.027931
v -0.237150 2.719252 0.044973
v -0.470385 2.834015 0.027931
v -0.247294 2.704854 0.061138
v -0.245542 2.704592 0.044326
v -0.237150 2.719252 0.044973
v -0.247294 2.704854 0.061138
v -0.469452 2.833876 0.018981
v -0.470385 2.834015 0.027931
v -0.464984 2.841681 0.019325
v -0.247294 2.704854 0.061138
v -0.470385 2.834015 0.027931
v -0.473920 2.826071 0.018637
v -0.247294 2.704854 0.061138
v -0.473920 2.826071 0.018637
v -0.253934 2.689931 0.043680
v -0.245542 2.704592 0.044326
v -0.247294 2.704854 0.061138
v -0.253934 2.689931 0.043680
v -0.469452 2.833876 0.018981
v -0.473920 2.826071 0.018637
v -0.470385 2.834015 0.027931
v -0.253934 2.689931 0.043680
v -0.473920 2.826071 0.018637
v -0.468519 2.833737 0.010031
v -0.253934 2.689931 0.043680
v -0.468519 2.833737 0.010031
v -0.243790 2.704330 0.027514
v -0.245542 2.704592 0.044326
v -0.253934 2.689931 0.043680
v -0.243790 2.704330 0.027514
v -0.469452 2.833876 0.018981
v -0.468519 2.833737 0.010031
v -0.473920 2.826071 0.018637
v -0.275344 2.725586 0.037519
v -0.381401 2.783191 -0.033629
v -0.383731 2.791591 -0.024354
v -0.275344 2.725586 0.037519
v -0.383731 2.791591 -0.024354
v -0.279721 2.741363 0.054939
v -0.285478 2.725953 0.051044
v -0.275344 2.725586 0.037519
v -0.279721 2.741363 0.054939
v -0.386796 2.783386 -0.026428
v -0.383731 2.791591 -0.024354
v -0.381401 2.783191 -0.033629
v -0.279721 2.741363 0.054939
v -0.383731 2.791591 -0.024354
v -0.392192 2.783582 -0.019227
v -0.279721 2.741363 0.054939
v -0.392192 2.783582 -0.019227
v -0.295612 2.726321 0.064570
v -0.285478 2.725953 0.051044
v -0.279721 2.741363 0.054939
v -0.295612 2.726321 0.064570
v -0.386796 2.783386 -0.026428
v -0.392192 2.783582 -0.019227
v -0.383731 2.791591 -0.024354
v -0.295612 2.726321 0.064570
v -0.392192 2.783582 -0.019227
v -0.389861 2.775182 -0.028501
v -0.295612 2.726321 0.064570
v -0.389861 2.775182 -0.028501
v -0.291236 2.710543 0.047149
v -0.285478 2.725953 0.051044
v -0.295612 2.726321 0.064570
v -0.291236 2.710543 0.047149
v -0.386796 2.783386 -0.026428
v -0.389861 2.775182 -0.028501
v -0.392192 2.783582 -0.019227
v -0.291236 2.710543 0.047149
v -0.389861 2.775182 -0.028501
v -0.381401 2.783191 -0.033629
v -0.291236 2.710543 0.047149
v -0.381401 2.783191 -0.033629
v -0.275344 2.725586 0.037519
v -0.285478 2.725953 0.051044
v -0.291236 2.710543 0.047149
v -0.275344 2.725586 0.037519
v -0.386796 2.783386 -0.026428
v -0.381401 2.783191 -0.033629
v -0.389861 2.775182 -0.028501
v 0.053048 2.673230 -0.005129
v -0.101894 2.777512 -0.493325
v -0.115642 2.792960 -0.486336
v 0.053048 2.673230 -0.005129
v -0.115642 2.792960 -0.486336
v 0.020315 2.710010 0.011512
v 0.017637 2.674002 0.004670
v 0.053048 2.673230 -0.005129
v 0.020315 2.710010 0.011512
v -0.116767 2.777836 -0.489209
v -0.115642 2.792960 -0.486336
v -0.101894 2.777512 -0.493325
v 0.020315 2.710010 0.011512
v -0.115642 2.792960 -0.486336
v -0.131640 2.778160 -0.485093
v 0.020315 2.710010 0.011512
v -0.131640 2.778160 -0.485093
v -0.017774 2.674773 0.014469
v 0.017637 2.674002 0.004670
v 0.020315 2.710010 0.011512
v -0.017774 2.674773 0.014469
v -0.116767 2.777836 -0.489209
v -0.131640 2.778160 -0.485093
v -0.115642 2.792960 -0.486336
v -0.017774 2.674773 0.014469
v -0.131640 2.778160 -0.485093
v -0.117892 2.762713 -0.492083
v -0.017774 2.674773 0.014469
v -0.117892 2.762713 -0.492083
v 0.014960 2.637994 -0.002171
v 0.017637 2.674002 0.004670
v -0.017774 2.674773 0.014469
v 0.014960 2.637994 -0.002171
v -0.116767 2.777836 -0.489209
v -0.117892 2.762713 -0.492083
v -0.131640 2.778160 -0.485093
v 0.014960 2.637994 -0.002171
v -0.117892 2.762713 -0.492083
v -0.101894 2.777512 -0.493325
v 0.014960 2.637994 -0.002171
v -0.101894 2.777512 -0.493325
v 0.053048 2.673230 -0.005129
v 0.017637 2.674002 0.004670
v 0.014960 2.637994 -0.002171
v 0.053048 2.673230 -0.005129
v -0.116767 2.777836 -0.489209
v -0.101894 2.777512 -0.493325
v -0.117892 2.762713 -0.492083
v -0.078011 2.752106 -0.384213
v -0.227841 2.831909 -0.432886
v -0.227101 2.840109 -0.423180
v -0.078011 2.752106 -0.384213
v -0.227101 2.840109 -0.423180
v -0.076621 2.767509 -0.365982
v -0.083880 2.752429 -0.368363
v -0.078011 2.752106 -0.384213
v -0.076621 2.767509 -0.365982
v -0.230965 2.832081 -0.424448
v -0.227101 2.840109 -0.423180
v -0.227841 2.831909 -0.432886
v -0.076621 2.767509 -0.365982
v -0.227101 2.840109 -0.423180
v -0.234090 2.832253 -0.416010
v -0.076621 2.767509 -0.365982
v -0.234090 2.832253 -0.416010
v -0.089749 2.752752 -0.352513
v -0.083880 2.752429 -0.368363
v -0.076621 2.767509 -0.365982
v -0.089749 2.752752 -0.352513
v -0.230965 2.832081 -0.424448
v -0.234090 2.832253 -0.416010
v -0.227101 2.840109 -0.423180
v -0.089749 2.752752 -0.352513
v -0.234090 2.832253 -0.416010
v -0.234830 2.824052 -0.425716
v -0.089749 2.752752 -0.352513
v -0.234830 2.824052 -0.425716
v -0.091139 2.737349 -0.370744
v -0.083880 2.752429 -0.368363
v -0.089749 2.752752 -0.352513
v -0.091139 2.737349 -0.370744
v -0.230965 2.832081 -0.424448
v -0.234830 2.824052 -0.425716
v -0.234090 2.832253 -0.416010
v -0.091139 2.737349 -0.370744
v -0.234830 2.824052 -0.425716
v -0.227841 2.831909 -0.432886
v -0.091139 2.737349 -0.370744
v -0.227841 2.831909 -0.432886
v -0.078011 2.752106 -0.384213
v -0.083880 2.752429 -0.368363
v -0.091139 2.737349 -0.370744
v -0.078011 2.752106 -0.384213
v -0.230965 2.832081 -0.424448
v -0.227841 2.831909 -0.432886
v -0.234830 2.824052 -0.425716
v -0.031599 2.721835 -0.235247
v -0.154265 2.820951 -0.378847
v -0.158521 2.829123 -0.370066
v -0.031599 2.721835 -0.235247
v -0.158521 2.829123 -0.370066
v -0.039592 2.737185 -0.218754
v -0.044773 2.722217 -0.224661
v -0.031599 2.721835 -0.235247
v -0.039592 2.737185 -0.218754
v -0.161279 2.821154 -0.373211
v -0.158521 2.829123 -0.370066
v -0.154265 2.820951 -0.378847
v -0.039592 2.737185 -0.218754
v -0.158521 2.829123 -0.370066
v -0.168292 2.821357 -0.367575
v -0.039592 2.737185 -0.218754
v -0.168292 2.821357 -0.367575
v -0.057947 2.722599 -0.214074
v -0.044773 2.722217 -0.224661
v -0.039592 2.737185 -0.218754
v -0.057947 2.722599 -0.214074
v -0.161279 2.821154 -0.373211
v -0.168292 2.821357 -0.367575
v -0.158521 2.829123 -0.370066
v -0.057947 2.722599 -0.214074
v -0.168292 2.821357 -0.367575
v -0.164037 2.813185 -0.376355
v -0.057947 2.722599 -0.214074
v -0.164037 2.813185 -0.376355
v -0.049953 2.707248 -0.230567
v -0.044773 2.722217 -0.224661
v -0.057947 2.722599 -0.214074
v -0.049953 2.707248 -0.230567
v -0.161279 2.821154 -0.373211
v -0.164037 2.813185 -0.376355
v -0.168292 2.821357 -0.367575
v -0.049953 2.707248 -0.230567
v -0.164037 2.813185 -0.376355
v -0.154265 2.820951 -0.378847
v -0.049953 2.707248 -0.230567
v -0.154265 2.820951 -0.378847
v -0.031599 2.721835 -0.235247
v -0.044773 2.722217 -0.224661
v -0.049953 2.707248 -0.230567
v -0.031599 2.721835 -0.235247
v -0.161279 2.821154 -0.373211
v -0.154265 2.820951 -0.378847
v -0.164037 2.813185 -0.376355
f 1 2 3
f 4 5 6
f 7 8 9
f 10 11 12
f 13 14 15
f 16 17 18
f 19 20 21
f 22 23 24
f 25 26 27
f 28 29 30
f 31 32 33
f 34 35 36
f 37 38 39
f 40 41 42
f 43 44 45
f 46 47 48
f 49 50 51
f 52 53 54
f 55 56 57
f 58 59 60
f 61 62 63
f 64 65 66
f 67 68 69
f 70 71 72
f 73 74 75
f 76 77 78
f 79 80 81
f 82 83 84
f 85 86 87
f 88 89 90
f 91 92 93
f 94 95 96
f 97 98 99
f 100 101 102
f 103 104 105
f 106 107 108
f 109 110 111
f 112 113 114
f 115 116 117
f 118 119 120
f 121 122 123
f 124 125 126
f 127 128 129
f 130 131 132
f 133 134 135
f 136 137 138
f 139 140 141
f 142 143 144
f 145 146 147
f 148 149 150
f 151 152 153
f 154 155 156
f 157 158 159
f 160 161 162
f 163 164 165
f 166 167 168
f 169 170 171
f 172 173 174
f 175 176 177
f 178 179 180
f 181 182 183
f 184 185 186
f 187 188 189
f 190 191 192
f 193 194 195
f 196 197 198
f 199 200 201
f 202 203 204
f 205 206 207
f 208 209 210
f 211 212 213
f 214 215 216
f 217 218 219
f 220 221 222
f 223 224 225
f 226 227 228
f 229 230 231
f 232 233 234
f 235 236 237
f 238 239 240
f 241 242 243
f 244 245 246
f 247 248 249
f 250 251 252
f 253 254 255
f 256 257 258
f 259 260 261
f 262 263 264
f 265 266 267
f 268 269 270
f 271 272 273
f 274 275 276
f 277 278 279
f 280 281 282
f 283 284 285
f 286 287 288
f 289 290 291
f 292 293 294
f 295 296 297
f 298 299 300
f 301 302 303
f 304 305 306
f 307 308 309
f 310 311 312
f 313 314 315
f 316 317 318
f 319 320 321
f 322 323 324
f 325 326 327
f 328 329 330
f 331 332 333
f 334 335 336
f 337 338 339
f 340 341 342
f 343 344 345
f 346 347 348
f 349 350 351
f 352 353 354
f 355 356 357
f 358 359 360
f 361 362 363
f 364 365 366
f 367 368 369
f 370 371 372
f 373 374 375
f 376 377 378
f 379 380 381
f 382 383 384
f 385 386 387
f 388 389 390
f 391 392 393
f 394 395 396
f 397 398 399
f 400 401 402
f 403 404 405
f 406 407 408
f 409 410 411
f 412 413 414
f 415 416 417
f 418 419 420
f 421 422 423
f 424 425 426
f 427 428 429
f 430 431 432
f 433 434 435
f 436 437 438
f 439 440 441
f 442 443 444
f 445 446 447
f 448 449 450
f 451 452 453
f 454 455 456
f 457 458 459
f 460 461 462
f 463 464 465
f 466 467 468
f 469 470 471
f 472 473 474
f 475 476 477
f 478 479 480
f 481 482 483
f 484 485 486
f 487 488 489
f 490 491 492
f 493 494 495
f 496 497 498
f 499 500 501
f 502 503 504
f 505 506 507
f 508 509 510
f 511 512 513
f 514 515 516
f 517 518 519
f 520 521 522
f 523 524 525
f 526 527 528
f 529 530 531
f 532 533 534
f 535 536 537
f 538 539 540
f 541 542 543
f 544 545 546
f 547 548 549
f 550 551 552
f 553 554 555
f 556 557 558
f 559 560 561
f 562 563 564
f 565 566 567
f 568 569 570
f 571 572 573
f 574 575 576
f 577 578 579
f 580 581 582
f 583 584 585
f 586 587 588
f 589 590 591
f 592 593 594
f 595 596 597
f 598 599 600
f 601 602 603
f 604 605 606
f 607 608 609
f 610 611 612
f 613 614 615
f 616 617 618
f 619 620 621
f 622 623 624
f 625 626 627
f 628 629 630
f 631 632 633
f 634 635 636
f 637 638 639
f 640 641 642
f 643 644 645
f 646 647 648
f 649 650 651
f 652 653 654
f 655 656 657
f 658 659 660
f 661 662 663
f 664 665 666
f 667 668 669
f 670 671 672
f 673 674 675
f 676 677 678
f 679 680 681
f 682 683 684
f 685 686 687
f 688 689 690
f 691 692 693
f 694 695 696
f 697 698 699
f 700 701 702
f 703 704 705
f 706 707 708
f 709 710 711
f 712 713 714
f 715 716 717
f 718 719 720
f 721 722 723
f 724 725 726
f 727 728 729
f 730 731 732
f 733 734 735
f 736 737 738
f 739 740 741
f 742 743 744
f 745 746 747
f 748 749 750
f 751 752 753
f 754 755 756
f 757 758 759
f 760 761 762
f 763 764 765
f 766 767 768
f 769 770 771
f 772 773 774
f 775 776 777
f 778 779 780
f 781 782 783
f 784 785 786
f 787 788 789
f 790 791 792
f 793 794 795
f 796 797 798
f 799 800 801
f 802 803 804
f 805 806 807
f 808 809 810
f 811 812 813
f 814 815 816

o TreeFoliage
v 0.027078 2.785348 0.019346
v 0.244697 2.873740 0.018137
v 0.181445 2.877163 0.185113
v 0.027078 2.785348 0.019346
v 0.181445 2.877163 0.185113
v 0.027078 2.785348 0.019346
v 0.027078 2.785348 0.019346
v 0.181445 2.877163 0.185113
v 0.028739 2.880858 0.254245
v 0.027078 2.785348 0.019346
v 0.028739 2.880858 0.254245
v 0.027078 2.785348 0.019346
v 0.027078 2.785348 0.019346
v 0.028739 2.880858 0.254245
v -0.123966 2.882660 0.185038
v 0.027078 2.785348 0.019346
v -0.123966 2.882660 0.185038
v 0.027078 2.785348 0.019346
v 0.027078 2.785348 0.019346
v -0.123966 2.882660 0.185038
v -0.187218 2.881514 0.018031
v 0.027078 2.785348 0.019346
v -0.187218 2.881514 0.018031
v 0.027078 2.785348 0.019346
v 0.027078 2.785348 0.019346
v -0.187218 2.881514 0.018031
v -0.123966 2.878091 -0.148945
v 0.027078 2.785348 0.019346
v -0.123966 2.878091 -0.148945
v 0.027078 2.785348 0.019346
v 0.027078 2.785348 0.019346
v -0.123966 2.878091 -0.148945
v 0.028739 2.874396 -0.218078
v 0.027078 2.785348 0.019346
v 0.028739 2.874396 -0.218078
v 0.027078 2.785348 0.019346
v 0.027078 2.785348 0.019346
v 0.028739 2.874396 -0.218078
v 0.181445 2.872594 -0.148870
v 0.027078 2.785348 0.019346
v 0.181445 2.872594 -0.148870
v 0.027078 2.785348 0.019346
v 0.027078 2.785348 0.019346
v 0.181445 2.872594 -0.148870
v 0.244697 2.873740 0.018137
v 0.027078 2.785348 0.019346
v 0.244697 2.873740 0.018137
v 0.027078 2.785348 0.019346
v 0.244697 2.873740 0.018137
v 0.338161 3.094911 0.015111
v 0.248708 3.099752 0.251251
v 0.244697 2.873740 0.018137
v 0.248708 3.099752 0.251251
v 0.181445 2.877163 0.185113
v 0.181445 2.877163 0.185113
v 0.248708 3.099752 0.251251
v 0.032750 3.104978 0.349019
v 0.181445 2.877163 0.185113
v 0.032750 3.104978 0.349019
v 0.028739 2.880858 0.254245
v 0.028739 2.880858 0.254245
v 0.032750 3.104978 0.349019
v -0.183208 3.107527 0.251144
v 0.028739 2.880858 0.254245
v -0.183208 3.107527 0.251144
v -0.123966 2.882660 0.185038
v -0.123966 2.882660 0.185038
v -0.183208 3.107527 0.251144
v -0.272660 3.105906 0.014961
v -0.123966 2.882660 0.185038
v -0.272660 3.105906 0.014961
v -0.187218 2.881514 0.018031
v -0.187218 2.881514 0.018031
v -0.272660 3.105906 0.014961
v -0.183208 3.101065 -0.221179
v -0.187218 2.881514 0.018031
v -0.183208 3.101065 -0.221179
v -0.123966 2.878091 -0.148945
v -0.123966 2.878091 -0.148945
v -0.183208 3.101065 -0.221179
v 0.032750 3.095839 -0.318947
v -0.123966 2.878091 -0.148945
v 0.032750 3.095839 -0.318947
v 0.028739 2.874396 -0.218078
v 0.028739 2.874396 -0.218078
v 0.032750 3.095839 -0.318947
v 0.248708 3.093290 -0.221073
v 0.028739 2.874396 -0.218078
v 0.248708 3.093290 -0.221073
v 0.181445 2.872594 -0.148870
v 0.181445 2.872594 -0.148870
v 0.248708 3.093290 -0.221073
v 0.338161 3.094911 0.015111
v 0.181445 2.872594 -0.148870
v 0.338161 3.094911 0.015111
v 0.244697 2.873740 0.018137
v 0.338161 3.094911 0.015111
v 0.252719 3.319303 0.012041
v 0.189466 3.322726 0.179017
v 0.338161 3.094911 0.015111
v 0.189466 3.322726 0.179017
v 0.248708 3.099752 0.251251
v 0.248708 3.099752 0.251251
v 0.189466 3.322726 0.179017
v 0.036761 3.326421 0.248150
v 0.248708 3.099752 0.251251
v 0.036761 3.326421 0.248150
v 0.032750 3.104978 0.349019
v 0.032750 3.104978 0.349019
v 0.036761 3.326421 0.248150
v -0.115944 3.328223 0.178942
v 0.032750 3.104978 0.349019
v -0.115944 3.328223 0.178942
v -0.183208 3.107527 0.251144
v -0.183208 3.107527 0.251144
v -0.115944 3.328223 0.178942
v -0.179197 3.327077 0.011935
v -0.183208 3.107527 0.251144
v -0.179197 3.327077 0.011935
v -0.272660 3.105906 0.014961
v -0.272660 3.105906 0.014961
v -0.179197 3.327077 0.011935
v -0.115944 3.323654 -0.155041
v -0.272660 3.105906 0.014961
v -0.115944 3.323654 -0.155041
v -0.183208 3.101065 -0.221179
v -0.183208 3.101065 -0.221179
v -0.115944 3.323654 -0.155041
v 0.036761 3.319959 -0.224174
v -0.183208 3.101065 -0.221179
v 0.036761 3.319959 -0.224174
v 0.032750 3.095839 -0.318947
v 0.032750 3.095839 -0.318947
v 0.036761 3.319959 -0.224174
v 0.189466 3.318156 -0.154966
v 0.032750 3.095839 -0.318947
v 0.189466 3.318156 -0.154966
v 0.248708 3.093290 -0.221073
v 0.248708 3.093290 -0.221073
v 0.189466 3.318156 -0.154966
v 0.252719 3.319303 0.012041
v 0.248708 3.093290 -0.221073
v 0.252719 3.319303 0.012041
v 0.338161 3.094911 0.015111
v 0.252719 3.319303 0.012041
v 0.038422 3.415469 0.010726
v 0.038422 3.415469 0.010726
v 0.252719 3.319303 0.012041
v 0.038422 3.415469 0.010726
v 0.189466 3.322726 0.179017
v 0.189466 3.322726 0.179017
v 0.038422 3.415469 0.010726
v 0.038422 3.415469 0.010726
v 0.189466 3.322726 0.179017
v 0.038422 3.415469 0.010726
v 0.036761 3.326421 0.248150
v 0.036761 3.326421 0.248150
v 0.038422 3.415469 0.010726
v 0.038422 3.415469 0.010726
v 0.036761 3.326421 0.248150
v 0.038422 3.415469 0.010726
v -0.115944 3.328223 0.178942
v -0.115944 3.328223 0.178942
v 0.038422 3.415469 0.010726
v 0.038422 3.415469 0.010726
v -0.115944 3.328223 0.178942
v 0.038422 3.415469 0.010726
v -0.179197 3.327077 0.011935
v -0.179197 3.327077 0.011935
v 0.038422 3.415469 0.010726
v 0.038422 3.415469 0.010726
v -0.179197 3.327077 0.011935
v 0.038422 3.415469 0.010726
v -0.115944 3.323654 -0.155041
v -0.115944 3.323654 -0.155041
v 0.038422 3.415469 0.010726
v 0.038422 3.415469 0.010726
v -0.115944 3.323654 -0.155041
v 0.038422 3.415469 0.010726
v 0.036761 3.319959 -0.224174
v 0.036761 3.319959 -0.224174
v 0.038422 3.415469 0.010726
v 0.038422 3.415469 0.010726
v 0.036761 3.319959 -0.224174
v 0.038422 3.415469 0.010726
v 0.189466 3.318156 -0.154966
v 0.189466 3.318156 -0.154966
v 0.038422 3.415469 0.010726
v 0.038422 3.415469 0.010726
v 0.189466 3.318156 -0.154966
v 0.038422 3.415469 0.010726
v 0.252719 3.319303 0.012041
v -0.142884 2.707213 0.206529
v 0.094758 2.802797 0.205221
v 0.025681 2.806116 0.356925
v -0.142884 2.707213 0.206529
v 0.025681 2.806116 0.356925
v -0.142884 2.707213 0.206529
v -0.142884 2.707213 0.206529
v 0.025681 2.806116 0.356925
v -0.141086 2.809978 0.419728
v -0.142884 2.707213 0.206529
v -0.141086 2.809978 0.419728
v -0.142884 2.707213 0.206529
v -0.142884 2.707213 0.206529
v -0.141086 2.809978 0.419728
v -0.307853 2.812120 0.356843
v -0.142884 2.707213 0.206529
v -0.307853 2.812120 0.356843
v -0.142884 2.707213 0.206529
v -0.142884 2.707213 0.206529
v -0.307853 2.812120 0.356843
v -0.376930 2.811287 0.205105
v -0.142884 2.707213 0.206529
v -0.376930 2.811287 0.205105
v -0.142884 2.707213 0.206529
v -0.142884 2.707213 0.206529
v -0.376930 2.811287 0.205105
v -0.307853 2.807968 0.053402
v -0.142884 2.707213 0.206529
v -0.307853 2.807968 0.053402
v -0.142884 2.707213 0.206529
v -0.142884 2.707213 0.206529
v -0.307853 2.807968 0.053402
v -0.141086 2.804107 -0.009402
v -0.142884 2.707213 0.206529
v -0.141086 2.804107 -0.009402
v -0.142884 2.707213 0.206529
v -0.142884 2.707213 0.206529
v -0.141086 2.804107 -0.009402
v 0.025681 2.801965 0.053484
v -0.142884 2.707213 0.206529
v 0.025681 2.801965 0.053484
v -0.142884 2.707213 0.206529
v -0.142884 2.707213 0.206529
v 0.025681 2.801965 0.053484
v 0.094758 2.802797 0.205221
v -0.142884 2.707213 0.206529
v 0.094758 2.802797 0.205221
v -0.142884 2.707213 0.206529
v 0.094758 2.802797 0.205221
v 0.196787 3.042048 0.201948
v 0.099097 3.046741 0.416489
v 0.094758 2.802797 0.205221
v 0.099097 3.046741 0.416489
v 0.025681 2.806116 0.356925
v 0.025681 2.806116 0.356925
v 0.099097 3.046741 0.416489
v -0.136747 3.052202 0.505307
v 0.025681 2.806116 0.356925
v -0.136747 3.052202 0.505307
v -0.141086 2.809978 0.419728
v -0.141086 2.809978 0.419728
v -0.136747 3.052202 0.505307
v -0.372591 3.055232 0.416373
v -0.141086 2.809978 0.419728
v -0.372591 3.055232 0.416373
v -0.307853 2.812120 0.356843
v -0.307853 2.812120 0.356843
v -0.372591 3.055232 0.416373
v -0.470281 3.054054 0.201784
v -0.307853 2.812120 0.356843
v -0.470281 3.054054 0.201784
v -0.376930 2.811287 0.205105
v -0.376930 2.811287 0.205105
v -0.470281 3.054054 0.201784
v -0.372591 3.049361 -0.012757
v -0.376930 2.811287 0.205105
v -0.372591 3.049361 -0.012757
v -0.307853 2.807968 0.053402
v -0.307853 2.807968 0.053402
v -0.372591 3.049361 -0.012757
v -0.136747 3.043900 -0.101574
v -0.307853 2.807968 0.053402
v -0.136747 3.043900 -0.101574
v -0.141086 2.804107 -0.009402
v -0.141086 2.804107 -0.009402
v -0.136747 3.043900 -0.101574
v 0.099097 3.040870 -0.012641
v -0.141086 2.804107 -0.009402
v 0.099097 3.040870 -0.012641
v 0.025681 2.801965 0.053484
v 0.025681 2.801965 0.053484
v 0.099097 3.040870 -0.012641
v 0.196787 3.042048 0.201948
v 0.025681 2.801965 0.053484
v 0.196787 3.042048 0.201948
v 0.094758 2.802797 0.205221
v 0.196787 3.042048 0.201948
v 0.103436 3.284814 0.198627
v 0.034359 3.288133 0.350330
v 0.196787 3.042048 0.201948
v 0.034359 3.288133 0.350330
v 0.099097 3.046741 0.416489
v 0.099097 3.046741 0.416489
v 0.034359 3.288133 0.350330
v -0.132408 3.291995 0.413134
v 0.099097 3.046741 0.416489
v -0.132408 3.291995 0.413134
v -0.136747 3.052202 0.505307
v -0.136747 3.052202 0.505307
v -0.132408 3.291995 0.413134
v -0.299175 3.294137 0.350248
v -0.136747 3.052202 0.505307
v -0.299175 3.294137 0.350248
v -0.372591 3.055232 0.416373
v -0.372591 3.055232 0.416373
v -0.299175 3.294137 0.350248
v -0.368253 3.293305 0.198511
v -0.372591 3.055232 0.416373
v -0.368253 3.293305 0.198511
v -0.470281 3.054054 0.201784
v -0.470281 3.054054 0.201784
v -0.368253 3.293305 0.198511
v -0.299175 3.289986 0.046808
v -0.470281 3.054054 0.201784
v -0.299175 3.289986 0.046808
v -0.372591 3.049361 -0.012757
v -0.372591 3.049361 -0.012757
v -0.299175 3.289986 0.046808
v -0.132408 3.286124 -0.015996
v -0.372591 3.049361 -0.012757
v -0.132408 3.286124 -0.015996
v -0.136747 3.043900 -0.101574
v -0.136747 3.043900 -0.101574
v -0.132408 3.286124 -0.015996
v 0.034359 3.283982 0.046890
v -0.136747 3.043900 -0.101574
v 0.034359 3.283982 0.046890
v 0.099097 3.040870 -0.012641
v 0.099097 3.040870 -0.012641
v 0.034359 3.283982 0.046890
v 0.103436 3.284814 0.198627
v 0.099097 3.040870 -0.012641
v 0.103436 3.284814 0.198627
v 0.196787 3.042048 0.201948
v 0.103436 3.284814 0.198627
v -0.130611 3.388889 0.197203
v -0.130611 3.388889 0.197203
v 0.103436 3.284814 0.198627
v -0.130611 3.388889 0.197203
v 0.034359 3.288133 0.350330
v 0.034359 3.288133 0.350330
v -0.130611 3.388889 0.197203
v -0.130611 3.388889 0.197203
v 0.034359 3.288133 0.350330
v -0.130611 3.388889 0.197203
v -0.132408 3.291995 0.413134
v -0.132408 3.291995 0.413134
v -0.130611 3.388889 0.197203
v -0.130611 3.388889 0.197203
v -0.132408 3.291995 0.413134
v -0.130611 3.388889 0.197203
v -0.299175 3.294137 0.350248
v -0.299175 3.294137 0.350248
v -0.130611 3.388889 0.197203
v -0.130611 3.388889 0.197203
v -0.299175 3.294137 0.350248
v -0.130611 3.388889 0.197203
v -0.368253 3.293305 0.198511
v -0.368253 3.293305 0.198511
v -0.130611 3.388889 0.197203
v -0.130611 3.388889 0.197203
v -0.368253 3.293305 0.198511
v -0.130611 3.388889 0.197203
v -0.299175 3.289986 0.046808
v -0.299175 3.289986 0.046808
v -0.130611 3.388889 0.197203
v -0.130611 3.388889 0.197203
v -0.299175 3.289986 0.046808
v -0.130611 3.388889 0.197203
v -0.132408 3.286124 -0.015996
v -0.132408 3.286124 -0.015996
v -0.130611 3.388889 0.197203
v -0.130611 3.388889 0.197203
v -0.132408 3.286124 -0.015996
v -0.130611 3.388889 0.197203
v 0.034359 3.283982 0.046890
v 0.034359 3.283982 0.046890
v -0.130611 3.388889 0.197203
v -0.130611 3.388889 0.197203
v 0.034359 3.283982 0.046890
v -0.130611 3.388889 0.197203
v 0.103436 3.284814 0.198627
v -0.214731 2.858054 -0.161830
v -0.042495 2.930144 -0.162816
v -0.092545 2.932642 -0.046100
v -0.214731 2.858054 -0.161830
v -0.092545 2.932642 -0.046100
v -0.214731 2.858054 -0.161830
v -0.214731 2.858054 -0.161830
v -0.092545 2.932642 -0.046100
v -0.213378 2.935478 0.002221
v -0.214731 2.858054 -0.161830
v -0.213378 2.935478 0.002221
v -0.214731 2.858054 -0.161830
v -0.214731 2.858054 -0.161830
v -0.213378 2.935478 0.002221
v -0.334210 2.936991 -0.046160
v -0.214731 2.858054 -0.161830
v -0.334210 2.936991 -0.046160
v -0.214731 2.858054 -0.161830
v -0.214731 2.858054 -0.161830
v -0.334210 2.936991 -0.046160
v -0.384261 2.936296 -0.162900
v -0.214731 2.858054 -0.161830
v -0.384261 2.936296 -0.162900
v -0.214731 2.858054 -0.161830
v -0.214731 2.858054 -0.161830
v -0.384261 2.936296 -0.162900
v -0.334210 2.933798 -0.279616
v -0.214731 2.858054 -0.161830
v -0.334210 2.933798 -0.279616
v -0.214731 2.858054 -0.161830
v -0.214731 2.858054 -0.161830
v -0.334210 2.933798 -0.279616
v -0.213378 2.930961 -0.327937
v -0.214731 2.858054 -0.161830
v -0.213378 2.930961 -0.327937
v -0.214731 2.858054 -0.161830
v -0.214731 2.858054 -0.161830
v -0.213378 2.930961 -0.327937
v -0.092545 2.929448 -0.279557
v -0.214731 2.858054 -0.161830
v -0.092545 2.929448 -0.279557
v -0.214731 2.858054 -0.161830
v -0.214731 2.858054 -0.161830
v -0.092545 2.929448 -0.279557
v -0.042495 2.930144 -0.162816
v -0.214731 2.858054 -0.161830
v -0.042495 2.930144 -0.162816
v -0.214731 2.858054 -0.161830
v -0.042495 2.930144 -0.162816
v 0.031554 3.110336 -0.165281
v -0.039228 3.113869 -0.000220
v -0.042495 2.930144 -0.162816
v -0.039228 3.113869 -0.000220
v -0.092545 2.932642 -0.046100
v -0.092545 2.932642 -0.046100
v -0.039228 3.113869 -0.000220
v -0.210111 3.117880 0.068116
v -0.092545 2.932642 -0.046100
v -0.210111 3.117880 0.068116
v -0.213378 2.935478 0.002221
v -0.213378 2.935478 0.002221
v -0.210111 3.117880 0.068116
v -0.380994 3.120020 -0.000304
v -0.213378 2.935478 0.002221
v -0.380994 3.120020 -0.000304
v -0.334210 2.936991 -0.046160
v -0.334210 2.936991 -0.046160
v -0.380994 3.120020 -0.000304
v -0.451776 3.119036 -0.165400
v -0.334210 2.936991 -0.046160
v -0.451776 3.119036 -0.165400
v -0.384261 2.936296 -0.162900
v -0.384261 2.936296 -0.162900
v -0.451776 3.119036 -0.165400
v -0.380994 3.115504 -0.330461
v -0.384261 2.936296 -0.162900
v -0.380994 3.115504 -0.330461
v -0.334210 2.933798 -0.279616
v -0.334210 2.933798 -0.279616
v -0.380994 3.115504 -0.330461
v -0.210111 3.111492 -0.398797
v -0.334210 2.933798 -0.279616
v -0.210111 3.111492 -0.398797
v -0.213378 2.930961 -0.327937
v -0.213378 2.930961 -0.327937
v -0.210111 3.111492 -0.398797
v -0.039228 3.109352 -0.330377
v -0.213378 2.930961 -0.327937
v -0.039228 3.109352 -0.330377
v -0.092545 2.929448 -0.279557
v -0.092545 2.929448 -0.279557
v -0.039228 3.109352 -0.330377
v 0.031554 3.110336 -0.165281
v -0.092545 2.929448 -0.279557
v 0.031554 3.110336 -0.165281
v -0.042495 2.930144 -0.162816
v 0.031554 3.110336 -0.165281
v -0.035961 3.293077 -0.167781
v -0.086011 3.295574 -0.051065
v 0.031554 3.110336 -0.165281
v -0.086011 3.295574 -0.051065
v -0.039228 3.113869 -0.000220
v -0.039228 3.113869 -0.000220
v -0.086011 3.295574 -0.051065
v -0.206844 3.298411 -0.002745
v -0.039228 3.113869 -0.000220
v -0.206844 3.298411 -0.002745
v -0.210111 3.117880 0.068116
v -0.210111 3.117880 0.068116
v -0.206844 3.298411 -0.002745
v -0.327676 3.299924 -0.051125
v -0.210111 3.117880 0.068116
v -0.327676 3.299924 -0.051125
v -0.380994 3.120020 -0.000304
v -0.380994 3.120020 -0.000304
v -0.327676 3.299924 -0.051125
v -0.377727 3.299228 -0.167865
v -0.380994 3.120020 -0.000304
v -0.377727 3.299228 -0.167865
v -0.451776 3.119036 -0.165400
v -0.451776 3.119036 -0.165400
v -0.377727 3.299228 -0.167865
v -0.327676 3.296731 -0.284581
v -0.451776 3.119036 -0.165400
v -0.327676 3.296731 -0.284581
v -0.380994 3.115504 -0.330461
v -0.380994 3.115504 -0.330461
v -0.327676 3.296731 -0.284581
v -0.206844 3.293894 -0.332902
v -0.380994 3.115504 -0.330461
v -0.206844 3.293894 -0.332902
v -0.210111 3.111492 -0.398797
v -0.210111 3.111492 -0.398797
v -0.206844 3.293894 -0.332902
v -0.086011 3.292381 -0.284522
v -0.210111 3.111492 -0.398797
v -0.086011 3.292381 -0.284522
v -0.039228 3.109352 -0.330377
v -0.039228 3.109352 -0.330377
v -0.086011 3.292381 -0.284522
v -0.035961 3.293077 -0.167781
v -0.039228 3.109352 -0.330377
v -0.035961 3.293077 -0.167781
v 0.031554 3.110336 -0.165281
v -0.035961 3.293077 -0.167781
v -0.205491 3.371319 -0.168852
v -0.205491 3.371319 -0.168852
v -0.035961 3.293077 -0.167781
v -0.205491 3.371319 -0.168852
v -0.086011 3.295574 -0.051065
v -0.086011 3.295574 -0.051065
v -0.205491 3.371319 -0.168852
v -0.205491 3.371319 -0.168852
v -0.086011 3.295574 -0.051065
v -0.205491 3.371319 -0.168852
v -0.206844 3.298411 -0.002745
v -0.206844 3.298411 -0.002745
v -0.205491 3.371319 -0.168852
v -0.205491 3.371319 -0.168852
v -0.206844 3.298411 -0.002745
v -0.205491 3.371319 -0.168852
v -0.327676 3.299924 -0.051125
v -0.327676 3.299924 -0.051125
v -0.205491 3.371319 -0.168852
v -0.205491 3.371319 -0.168852
v -0.327676 3.299924 -0.051125
v -0.205491 3.371319 -0.168852
v -0.377727 3.299228 -0.167865
v -0.377727 3.299228 -0.167865
v -0.205491 3.371319 -0.168852
v -0.205491 3.371319 -0.168852
v -0.377727 3.299228 -0.167865
v -0.205491 3.371319 -0.168852
v -0.327676 3.296731 -0.284581
v -0.327676 3.296731 -0.284581
v -0.205491 3.371319 -0.168852
v -0.205491 3.371319 -0.168852
v -0.327676 3.296731 -0.284581
v -0.205491 3.371319 -0.168852
v -0.206844 3.293894 -0.332902
v -0.206844 3.293894 -0.332902
v -0.205491 3.371319 -0.168852
v -0.205491 3.371319 -0.168852
v -0.206844 3.293894 -0.332902
v -0.205491 3.371319 -0.168852
v -0.086011 3.292381 -0.284522
v -0.086011 3.292381 -0.284522
v -0.205491 3.371319 -0.168852
v -0.205491 3.371319 -0.168852
v -0.086011 3.292381 -0.284522
v -0.205491 3.371319 -0.168852
v -0.035961 3.293077 -0.167781
v 0.205733 2.593282 -0.281879
v 0.397991 2.672565 -0.282964
v 0.342116 2.675457 -0.145076
v 0.205733 2.593282 -0.281879
v 0.342116 2.675457 -0.145076
v 0.205733 2.593282 -0.281879
v 0.205733 2.593282 -0.281879
v 0.342116 2.675457 -0.145076
v 0.207222 2.678666 -0.087989
v 0.205733 2.593282 -0.281879
v 0.207222 2.678666 -0.087989
v 0.205733 2.593282 -0.281879
v 0.205733 2.593282 -0.281879
v 0.207222 2.678666 -0.087989
v 0.072328 2.680313 -0.145143
v 0.205733 2.593282 -0.281879
v 0.072328 2.680313 -0.145143
v 0.205733 2.593282 -0.281879
v 0.205733 2.593282 -0.281879
v 0.072328 2.680313 -0.145143
v 0.016453 2.679432 -0.283058
v 0.205733 2.593282 -0.281879
v 0.016453 2.679432 -0.283058
v 0.205733 2.593282 -0.281879
v 0.205733 2.593282 -0.281879
v 0.016453 2.679432 -0.283058
v 0.072328 2.676540 -0.420946
v 0.205733 2.593282 -0.281879
v 0.072328 2.676540 -0.420946
v 0.205733 2.593282 -0.281879
v 0.205733 2.593282 -0.281879
v 0.072328 2.676540 -0.420946
v 0.207222 2.673330 -0.478033
v 0.205733 2.593282 -0.281879
v 0.207222 2.673330 -0.478033
v 0.205733 2.593282 -0.281879
v 0.205733 2.593282 -0.281879
v 0.207222 2.673330 -0.478033
v 0.342116 2.671684 -0.420879
v 0.205733 2.593282 -0.281879
v 0.342116 2.671684 -0.420879
v 0.205733 2.593282 -0.281879
v 0.205733 2.593282 -0.281879
v 0.342116 2.671684 -0.420879
v 0.397991 2.672565 -0.282964
v 0.205733 2.593282 -0.281879
v 0.397991 2.672565 -0.282964
v 0.205733 2.593282 -0.281879
v 0.397991 2.672565 -0.282964
v 0.480605 2.870836 -0.285676
v 0.401586 2.874926 -0.090674
v 0.397991 2.672565 -0.282964
v 0.401586 2.874926 -0.090674
v 0.342116 2.675457 -0.145076
v 0.342116 2.675457 -0.145076
v 0.401586 2.874926 -0.090674
v 0.210817 2.879465 -0.009940
v 0.342116 2.675457 -0.145076
v 0.210817 2.879465 -0.009940
v 0.207222 2.678666 -0.087989
v 0.207222 2.678666 -0.087989
v 0.210817 2.879465 -0.009940
v 0.020048 2.881794 -0.090768
v 0.207222 2.678666 -0.087989
v 0.020048 2.881794 -0.090768
v 0.072328 2.680313 -0.145143
v 0.072328 2.680313 -0.145143
v 0.020048 2.881794 -0.090768
v -0.058971 2.880548 -0.285809
v 0.072328 2.680313 -0.145143
v -0.058971 2.880548 -0.285809
v 0.016453 2.679432 -0.283058
v 0.016453 2.679432 -0.283058
v -0.058971 2.880548 -0.285809
v 0.020048 2.876458 -0.480812
v 0.016453 2.679432 -0.283058
v 0.020048 2.876458 -0.480812
v 0.072328 2.676540 -0.420946
v 0.072328 2.676540 -0.420946
v 0.020048 2.876458 -0.480812
v 0.210817 2.871919 -0.561546
v 0.072328 2.676540 -0.420946
v 0.210817 2.871919 -0.561546
v 0.207222 2.673330 -0.478033
v 0.207222 2.673330 -0.478033
v 0.210817 2.871919 -0.561546
v 0.401586 2.869590 -0.480718
v 0.207222 2.673330 -0.478033
v 0.401586 2.869590 -0.480718
v 0.342116 2.671684 -0.420879
v 0.342116 2.671684 -0.420879
v 0.401586 2.869590 -0.480718
v 0.480605 2.870836 -0.285676
v 0.342116 2.671684 -0.420879
v 0.480605 2.870836 -0.285676
v 0.397991 2.672565 -0.282964
v 0.480605 2.870836 -0.285676
v 0.405181 3.071952 -0.288428
v 0.349306 3.074845 -0.150540
v 0.480605 2.870836 -0.285676
v 0.349306 3.074845 -0.150540
v 0.401586 2.874926 -0.090674
v 0.401586 2.874926 -0.090674
v 0.349306 3.074845 -0.150540
v 0.214412 3.078054 -0.093453
v 0.401586 2.874926 -0.090674
v 0.214412 3.078054 -0.093453
v 0.210817 2.879465 -0.009940
v 0.210817 2.879465 -0.009940
v 0.214412 3.078054 -0.093453
v 0.079518 3.079701 -0.150607
v 0.210817 2.879465 -0.009940
v 0.079518 3.079701 -0.150607
v 0.020048 2.881794 -0.090768
v 0.020048 2.881794 -0.090768
v 0.079518 3.079701 -0.150607
v 0.023643 3.078820 -0.288522
v 0.020048 2.881794 -0.090768
v 0.023643 3.078820 -0.288522
v -0.058971 2.880548 -0.285809
v -0.058971 2.880548 -0.285809
v 0.023643 3.078820 -0.288522
v 0.079518 3.075927 -0.426410
v -0.058971 2.880548 -0.285809
v 0.079518 3.075927 -0.426410
v 0.020048 2.876458 -0.480812
v 0.020048 2.876458 -0.480812
v 0.079518 3.075927 -0.426410
v 0.214412 3.072718 -0.483497
v 0.020048 2.876458 -0.480812
v 0.214412 3.072718 -0.483497
v 0.210817 2.871919 -0.561546
v 0.210817 2.871919 -0.561546
v 0.214412 3.072718 -0.483497
v 0.349306 3.071071 -0.426343
v 0.210817 2.871919 -0.561546
v 0.349306 3.071071 -0.426343
v 0.401586 2.869590 -0.480718
v 0.401586 2.869590 -0.480718
v 0.349306 3.071071 -0.426343
v 0.405181 3.071952 -0.288428
v 0.401586 2.869590 -0.480718
v 0.405181 3.071952 -0.288428
v 0.480605 2.870836 -0.285676
v 0.405181 3.071952 -0.288428
v 0.215901 3.158102 -0.289607
v 0.215901 3.158102 -0.289607
v 0.405181 3.071952 -0.288428
v 0.215901 3.158102 -0.289607
v 0.349306 3.074845 -0.150540
v 0.349306 3.074845 -0.150540
v 0.215901 3.158102 -0.289607
v 0.215901 3.158102 -0.289607
v 0.349306 3.074845 -0.150540
v 0.215901 3.158102 -0.289607
v 0.214412 3.078054 -0.093453
v 0.214412 3.078054 -0.093453
v 0.215901 3.158102 -0.289607
v 0.215901 3.158102 -0.289607
v 0.214412 3.078054 -0.093453
v 0.215901 3.158102 -0.289607
v 0.079518 3.079701 -0.150607
v 0.079518 3.079701 -0.150607
v 0.215901 3.158102 -0.289607
v 0.215901 3.158102 -0.289607
v 0.079518 3.079701 -0.150607
v 0.215901 3.158102 -0.289607
v 0.023643 3.078820 -0.288522
v 0.023643 3.078820 -0.288522
v 0.215901 3.158102 -0.289607
v 0.215901 3.158102 -0.289607
v 0.023643 3.078820 -0.288522
v 0.215901 3.158102 -0.289607
v 0.079518 3.075927 -0.426410
v 0.079518 3.075927 -0.426410
v 0.215901 3.158102 -0.289607
v 0.215901 3.158102 -0.289607
v 0.079518 3.075927 -0.426410
v 0.215901 3.158102 -0.289607
v 0.214412 3.072718 -0.483497
v 0.214412 3.072718 -0.483497
v 0.215901 3.158102 -0.289607
v 0.215901 3.158102 -0.289607
v 0.214412 3.072718 -0.483497
v 0.215901 3.158102 -0.289607
v 0.349306 3.071071 -0.426343
v 0.349306 3.071071 -0.426343
v 0.215901 3.158102 -0.289607
v 0.215901 3.158102 -0.289607
v 0.349306 3.071071 -0.426343
v 0.215901 3.158102 -0.289607
v 0.405181 3.071952 -0.288428
v 0.192470 2.643301 0.100582
v 0.404750 2.729775 0.099399
v 0.343051 2.733083 0.260041
v 0.192470 2.643301 0.100582
v 0.343051 2.733083 0.260041
v 0.192470 2.643301 0.100582
v 0.192470 2.643301 0.100582
v 0.343051 2.733083 0.260041
v 0.194095 2.736675 0.326550
v 0.192470 2.643301 0.100582
v 0.194095 2.736675 0.326550
v 0.192470 2.643301 0.100582
v 0.192470 2.643301 0.100582
v 0.194095 2.736675 0.326550
v 0.045139 2.738446 0.259967
v 0.192470 2.643301 0.100582
v 0.045139 2.738446 0.259967
v 0.192470 2.643301 0.100582
v 0.192470 2.643301 0.100582
v 0.045139 2.738446 0.259967
v -0.016560 2.737359 0.099295
v 0.192470 2.643301 0.100582
v -0.016560 2.737359 0.099295
v 0.192470 2.643301 0.100582
v 0.192470 2.643301 0.100582
v -0.016560 2.737359 0.099295
v 0.045139 2.734050 -0.061346
v 0.192470 2.643301 0.100582
v 0.045139 2.734050 -0.061346
v 0.192470 2.643301 0.100582
v 0.192470 2.643301 0.100582
v 0.045139 2.734050 -0.061346
v 0.194095 2.730458 -0.127856
v 0.192470 2.643301 0.100582
v 0.194095 2.730458 -0.127856
v 0.192470 2.643301 0.100582
v 0.192470 2.643301 0.100582
v 0.194095 2.730458 -0.127856
v 0.343051 2.728688 -0.061273
v 0.192470 2.643301 0.100582
v 0.343051 2.728688 -0.061273
v 0.192470 2.643301 0.100582
v 0.192470 2.643301 0.100582
v 0.343051 2.728688 -0.061273
v 0.404750 2.729775 0.099399
v 0.192470 2.643301 0.100582
v 0.404750 2.729775 0.099399
v 0.192470 2.643301 0.100582
v 0.404750 2.729775 0.099399
v 0.495930 2.946126 0.096439
v 0.408674 2.950805 0.323621
v 0.404750 2.729775 0.099399
v 0.408674 2.950805 0.323621
v 0.343051 2.733083 0.260041
v 0.343051 2.733083 0.260041
v 0.408674 2.950805 0.323621
v 0.198018 2.955884 0.417680
v 0.343051 2.733083 0.260041
v 0.198018 2.955884 0.417680
v 0.194095 2.736675 0.326550
v 0.194095 2.736675 0.326550
v 0.198018 2.955884 0.417680
v -0.012637 2.958388 0.323517
v 0.194095 2.736675 0.326550
v -0.012637 2.958388 0.323517
v 0.045139 2.738446 0.259967
v 0.045139 2.738446 0.259967
v -0.012637 2.958388 0.323517
v -0.099894 2.956850 0.096292
v 0.045139 2.738446 0.259967
v -0.099894 2.956850 0.096292
v -0.016560 2.737359 0.099295
v -0.016560 2.737359 0.099295
v -0.099894 2.956850 0.096292
v -0.012637 2.952172 -0.130889
v -0.016560 2.737359 0.099295
v -0.012637 2.952172 -0.130889
v 0.045139 2.734050 -0.061346
v 0.045139 2.734050 -0.061346
v -0.012637 2.952172 -0.130889
v 0.198018 2.947092 -0.224948
v 0.045139 2.734050 -0.061346
v 0.198018 2.947092 -0.224948
v 0.194095 2.730458 -0.127856
v 0.194095 2.730458 -0.127856
v 0.198018 2.947092 -0.224948
v 0.408674 2.944588 -0.130786
v 0.194095 2.730458 -0.127856
v 0.408674 2.944588 -0.130786
v 0.343051 2.728688 -0.061273
v 0.343051 2.728688 -0.061273
v 0.408674 2.944588 -0.130786
v 0.495930 2.946126 0.096439
v 0.343051 2.728688 -0.061273
v 0.495930 2.946126 0.096439
v 0.404750 2.729775 0.099399
v 0.495930 2.946126 0.096439
v 0.412597 3.165618 0.093436
v 0.350897 3.168926 0.254078
v 0.495930 2.946126 0.096439
v 0.350897 3.168926 0.254078
v 0.408674 2.950805 0.323621
v 0.408674 2.950805 0.323621
v 0.350897 3.168926 0.254078
v 0.201941 3.172518 0.320588
v 0.408674 2.950805 0.323621
v 0.201941 3.172518 0.320588
v 0.198018 2.955884 0.417680
v 0.198018 2.955884 0.417680
v 0.201941 3.172518 0.320588
v 0.052986 3.174289 0.254005
v 0.198018 2.955884 0.417680
v 0.052986 3.174289 0.254005
v -0.012637 2.958388 0.323517
v -0.012637 2.958388 0.323517
v 0.052986 3.174289 0.254005
v -0.008714 3.173201 0.093333
v -0.012637 2.958388 0.323517
v -0.008714 3.173201 0.093333
v -0.099894 2.956850 0.096292
v -0.099894 2.956850 0.096292
v -0.008714 3.173201 0.093333
v 0.052986 3.169893 -0.067309
v -0.099894 2.956850 0.096292
v 0.052986 3.169893 -0.067309
v -0.012637 2.952172 -0.130889
v -0.012637 2.952172 -0.130889
v 0.052986 3.169893 -0.067309
v 0.201941 3.166301 -0.133819
v -0.012637 2.952172 -0.130889
v 0.201941 3.166301 -0.133819
v 0.198018 2.947092 -0.224948
v 0.198018 2.947092 -0.224948
v 0.201941 3.166301 -0.133819
v 0.350897 3.164530 -0.067236
v 0.198018 2.947092 -0.224948
v 0.350897 3.164530 -0.067236
v 0.408674 2.944588 -0.130786
v 0.408674 2.944588 -0.130786
v 0.350897 3.164530 -0.067236
v 0.412597 3.165618 0.093436
v 0.408674 2.944588 -0.130786
v 0.412597 3.165618 0.093436
v 0.495930 2.946126 0.096439
v 0.412597 3.165618 0.093436
v 0.203567 3.259675 0.092149
v 0.203567 3.259675 0.092149
v 0.412597 3.165618 0.093436
v 0.203567 3.259675 0.092149
v 0.350897 3.168926 0.254078
v 0.350897 3.168926 0.254078
v 0.203567 3.259675 0.092149
v 0.203567 3.259675 0.092149
v 0.350897 3.168926 0.254078
v 0.203567 3.259675 0.092149
v 0.201941 3.172518 0.320588
v 0.201941 3.172518 0.320588
v 0.203567 3.259675 0.092149
v 0.203567 3.259675 0.092149
v 0.201941 3.172518 0.320588
v 0.203567 3.259675 0.092149
v 0.052986 3.174289 0.254005
v 0.052986 3.174289 0.254005
v 0.203567 3.259675 0.092149
v 0.203567 3.259675 0.092149
v 0.052986 3.174289 0.254005
v 0.203567 3.259675 0.092149
v -0.008714 3.173201 0.093333
v -0.008714 3.173201 0.093333
v 0.203567 3.259675 0.092149
v 0.203567 3.259675 0.092149
v -0.008714 3.173201 0.093333
v 0.203567 3.259675 0.092149
v 0.052986 3.169893 -0.067309
v 0.052986 3.169893 -0.067309
v 0.203567 3.259675 0.092149
v 0.203567 3.259675 0.092149
v 0.052986 3.169893 -0.067309
v 0.203567 3.259675 0.092149
v 0.201941 3.166301 -0.133819
v 0.201941 3.166301 -0.133819
v 0.203567 3.259675 0.092149
v 0.203567 3.259675 0.092149
v 0.201941 3.166301 -0.133819
v 0.203567 3.259675 0.092149
v 0.350897 3.164530 -0.067236
v 0.350897 3.164530 -0.067236
v 0.203567 3.259675 0.092149
v 0.203567 3.259675 0.092149
v 0.350897 3.164530 -0.067236
v 0.203567 3.259675 0.092149
v 0.412597 3.165618 0.093436
v -0.054445 2.694257 0.244071
v 0.177857 2.787923 0.242789
v 0.110333 2.791134 0.388636
v -0.054445 2.694257 0.244071
v 0.110333 2.791134 0.388636
v -0.054445 2.694257 0.244071
v -0.054445 2.694257 0.244071
v 0.110333 2.791134 0.388636
v -0.052684 2.794895 0.449015
v -0.054445 2.694257 0.244071
v -0.052684 2.794895 0.449015
v -0.054445 2.694257 0.244071
v -0.054445 2.694257 0.244071
v -0.052684 2.794895 0.449015
v -0.215702 2.797002 0.388556
v -0.054445 2.694257 0.244071
v -0.215702 2.797002 0.388556
v -0.054445 2.694257 0.244071
v -0.054445 2.694257 0.244071
v -0.215702 2.797002 0.388556
v -0.283226 2.796222 0.242676
v -0.054445 2.694257 0.244071
v -0.283226 2.796222 0.242676
v -0.054445 2.694257 0.244071
v -0.054445 2.694257 0.244071
v -0.283226 2.796222 0.242676
v -0.215702 2.793011 0.096828
v -0.054445 2.694257 0.244071
v -0.215702 2.793011 0.096828
v -0.054445 2.694257 0.244071
v -0.054445 2.694257 0.244071
v -0.215702 2.793011 0.096828
v -0.052684 2.789250 0.036450
v -0.054445 2.694257 0.244071
v -0.052684 2.789250 0.036450
v -0.054445 2.694257 0.244071
v -0.054445 2.694257 0.244071
v -0.052684 2.789250 0.036450
v 0.110333 2.787143 0.096909
v -0.054445 2.694257 0.244071
v 0.110333 2.787143 0.096909
v -0.054445 2.694257 0.244071
v -0.054445 2.694257 0.244071
v 0.110333 2.787143 0.096909
v 0.177857 2.787923 0.242789
v -0.054445 2.694257 0.244071
v 0.177857 2.787923 0.242789
v -0.054445 2.694257 0.244071
v 0.177857 2.787923 0.242789
v 0.277602 3.022352 0.239582
v 0.182109 3.026894 0.445841
v 0.177857 2.787923 0.242789
v 0.182109 3.026894 0.445841
v 0.110333 2.791134 0.388636
v 0.110333 2.791134 0.388636
v 0.182109 3.026894 0.445841
v -0.048433 3.032212 0.531229
v 0.110333 2.791134 0.388636
v -0.048433 3.032212 0.531229
v -0.052684 2.794895 0.449015
v -0.052684 2.794895 0.449015
v -0.048433 3.032212 0.531229
v -0.278975 3.035193 0.445727
v -0.052684 2.794895 0.449015
v -0.278975 3.035193 0.445727
v -0.215702 2.797002 0.388556
v -0.215702 2.797002 0.388556
v -0.278975 3.035193 0.445727
v -0.374468 3.034090 0.239421
v -0.215702 2.797002 0.388556
v -0.374468 3.034090 0.239421
v -0.283226 2.796222 0.242676
v -0.283226 2.796222 0.242676
v -0.374468 3.034090 0.239421
v -0.278975 3.029549 0.033162
v -0.283226 2.796222 0.242676
v -0.278975 3.029549 0.033162
v -0.215702 2.793011 0.096828
v -0.215702 2.793011 0.096828
v -0.278975 3.029549 0.033162
v -0.048433 3.024230 -0.052226
v -0.215702 2.793011 0.096828
v -0.048433 3.024230 -0.052226
v -0.052684 2.789250 0.036450
v -0.052684 2.789250 0.036450
v -0.048433 3.024230 -0.052226
v 0.182109 3.021249 0.033276
v -0.052684 2.789250 0.036450
v 0.182109 3.021249 0.033276
v 0.110333 2.787143 0.096909
v 0.110333 2.787143 0.096909
v 0.182109 3.021249 0.033276
v 0.277602 3.022352 0.239582
v 0.110333 2.787143 0.096909
v 0.277602 3.022352 0.239582
v 0.177857 2.787923 0.242789
v 0.277602 3.022352 0.239582
v 0.186360 3.260220 0.236328
v 0.118836 3.263431 0.382175
v 0.277602 3.022352 0.239582
v 0.118836 3.263431 0.382175
v 0.182109 3.026894 0.445841
v 0.182109 3.026894 0.445841
v 0.118836 3.263431 0.382175
v -0.044182 3.267192 0.442553
v 0.182109 3.026894 0.445841
v -0.044182 3.267192 0.442553
v -0.048433 3.032212 0.531229
v -0.048433 3.032212 0.531229
v -0.044182 3.267192 0.442553
v -0.207199 3.269300 0.382095
v -0.048433 3.032212 0.531229
v -0.207199 3.269300 0.382095
v -0.278975 3.035193 0.445727
v -0.278975 3.035193 0.445727
v -0.207199 3.269300 0.382095
v -0.274723 3.268519 0.236214
v -0.278975 3.035193 0.445727
v -0.274723 3.268519 0.236214
v -0.374468 3.034090 0.239421
v -0.374468 3.034090 0.239421
v -0.274723 3.268519 0.236214
v -0.207199 3.265308 0.090367
v -0.374468 3.034090 0.239421
v -0.207199 3.265308 0.090367
v -0.278975 3.029549 0.033162
v -0.278975 3.029549 0.033162
v -0.207199 3.265308 0.090367
v -0.044182 3.261548 0.029988
v -0.278975 3.029549 0.033162
v -0.044182 3.261548 0.029988
v -0.048433 3.024230 -0.052226
v -0.048433 3.024230 -0.052226
v -0.044182 3.261548 0.029988
v 0.118836 3.259440 0.090447
v -0.048433 3.024230 -0.052226
v 0.118836 3.259440 0.090447
v 0.182109 3.021249 0.033276
v 0.182109 3.021249 0.033276
v 0.118836 3.259440 0.090447
v 0.186360 3.260220 0.236328
v 0.182109 3.021249 0.033276
v 0.186360 3.260220 0.236328
v 0.277602 3.022352 0.239582
v 0.186360 3.260220 0.236328
v -0.042421 3.362186 0.234933
v -0.042421 3.362186 0.234933
v 0.186360 3.260220 0.236328
v -0.042421 3.362186 0.234933
v 0.118836 3.263431 0.382175
v 0.118836 3.263431 0.382175
v -0.042421 3.362186 0.234933
v -0.042421 3.362186 0.234933
v 0.118836 3.263431 0.382175
v -0.042421 3.362186 0.234933
v -0.044182 3.267192 0.442553
v -0.044182 3.267192 0.442553
v -0.042421 3.362186 0.234933
v -0.042421 3.362186 0.234933
v -0.044182 3.267192 0.442553
v -0.042421 3.362186 0.234933
v -0.207199 3.269300 0.382095
v -0.207199 3.269300 0.382095
v -0.042421 3.362186 0.234933
v -0.042421 3.362186 0.234933
v -0.207199 3.269300 0.382095
v -0.042421 3.362186 0.234933
v -0.274723 3.268519 0.236214
v -0.274723 3.268519 0.236214
v -0.042421 3.362186 0.234933
v -0.042421 3.362186 0.234933
v -0.274723 3.268519 0.236214
v -0.042421 3.362186 0.234933
v -0.207199 3.265308 0.090367
v -0.207199 3.265308 0.090367
v -0.042421 3.362186 0.234933
v -0.042421 3.362186 0.234933
v -0.207199 3.265308 0.090367
v -0.042421 3.362186 0.234933
v -0.044182 3.261548 0.029988
v -0.044182 3.261548 0.029988
v -0.042421 3.362186 0.234933
v -0.042421 3.362186 0.234933
v -0.044182 3.261548 0.029988
v -0.042421 3.362186 0.234933
v 0.118836 3.259440 0.090447
v 0.118836 3.259440 0.090447
v -0.042421 3.362186 0.234933
v -0.042421 3.362186 0.234933
v 0.118836 3.259440 0.090447
v -0.042421 3.362186 0.234933
v 0.186360 3.260220 0.236328
v -0.252039 2.848355 -0.051598
v -0.000294 2.917001 -0.052537
v -0.073642 2.920625 0.115853
v -0.252039 2.848355 -0.051598
v -0.073642 2.920625 0.115853
v -0.252039 2.848355 -0.051598
v -0.252039 2.848355 -0.051598
v -0.073642 2.920625 0.115853
v -0.250722 2.924767 0.185567
v -0.252039 2.848355 -0.051598
v -0.250722 2.924767 0.185567
v -0.252039 2.848355 -0.051598
v -0.252039 2.848355 -0.051598
v -0.250722 2.924767 0.185567
v -0.427801 2.927000 0.115766
v -0.252039 2.848355 -0.051598
v -0.427801 2.927000 0.115766
v -0.252039 2.848355 -0.051598
v -0.252039 2.848355 -0.051598
v -0.427801 2.927000 0.115766
v -0.501150 2.926016 -0.052660
v -0.252039 2.848355 -0.051598
v -0.501150 2.926016 -0.052660
v -0.252039 2.848355 -0.051598
v -0.252039 2.848355 -0.051598
v -0.501150 2.926016 -0.052660
v -0.427801 2.922392 -0.221050
v -0.252039 2.848355 -0.051598
v -0.427801 2.922392 -0.221050
v -0.252039 2.848355 -0.051598
v -0.252039 2.848355 -0.051598
v -0.427801 2.922392 -0.221050
v -0.250722 2.918250 -0.290764
v -0.252039 2.848355 -0.051598
v -0.250722 2.918250 -0.290764
v -0.252039 2.848355 -0.051598
v -0.252039 2.848355 -0.051598
v -0.250722 2.918250 -0.290764
v -0.073642 2.916017 -0.220963
v -0.252039 2.848355 -0.051598
v -0.073642 2.916017 -0.220963
v -0.252039 2.848355 -0.051598
v -0.252039 2.848355 -0.051598
v -0.073642 2.916017 -0.220963
v -0.000294 2.917001 -0.052537
v -0.252039 2.848355 -0.051598
v -0.000294 2.917001 -0.052537
v -0.252039 2.848355 -0.051598
v -0.000294 2.917001 -0.052537
v 0.106616 3.091740 -0.054927
v 0.002886 3.096865 0.183212
v -0.000294 2.917001 -0.052537
v 0.002886 3.096865 0.183212
v -0.073642 2.920625 0.115853
v -0.073642 2.920625 0.115853
v 0.002886 3.096865 0.183212
v -0.247542 3.102723 0.281802
v -0.073642 2.920625 0.115853
v -0.247542 3.102723 0.281802
v -0.250722 2.924767 0.185567
v -0.250722 2.924767 0.185567
v -0.247542 3.102723 0.281802
v -0.497970 3.105881 0.183089
v -0.250722 2.924767 0.185567
v -0.497970 3.105881 0.183089
v -0.427801 2.927000 0.115766
v -0.427801 2.927000 0.115766
v -0.497970 3.105881 0.183089
v -0.601701 3.104489 -0.055102
v -0.427801 2.927000 0.115766
v -0.601701 3.104489 -0.055102
v -0.501150 2.926016 -0.052660
v -0.501150 2.926016 -0.052660
v -0.601701 3.104489 -0.055102
v -0.497970 3.099364 -0.293242
v -0.501150 2.926016 -0.052660
v -0.497970 3.099364 -0.293242
v -0.427801 2.922392 -0.221050
v -0.427801 2.922392 -0.221050
v -0.497970 3.099364 -0.293242
v -0.247542 3.093507 -0.391831
v -0.427801 2.922392 -0.221050
v -0.247542 3.093507 -0.391831
v -0.250722 2.918250 -0.290764
v -0.250722 2.918250 -0.290764
v -0.247542 3.093507 -0.391831
v 0.002886 3.090349 -0.293118
v -0.250722 2.918250 -0.290764
v 0.002886 3.090349 -0.293118
v -0.073642 2.916017 -0.220963
v -0.073642 2.916017 -0.220963
v 0.002886 3.090349 -0.293118
v 0.106616 3.091740 -0.054927
v -0.073642 2.916017 -0.220963
v 0.106616 3.091740 -0.054927
v -0.000294 2.917001 -0.052537
v 0.106616 3.091740 -0.054927
v 0.006065 3.270213 -0.057369
v -0.067283 3.273837 0.111021
v 0.106616 3.091740 -0.054927
v -0.067283 3.273837 0.111021
v 0.002886 3.096865 0.183212
v 0.002886 3.096865 0.183212
v -0.067283 3.273837 0.111021
v -0.244363 3.277979 0.180735
v 0.002886 3.096865 0.183212
v -0.244363 3.277979 0.180735
v -0.247542 3.102723 0.281802
v -0.247542 3.102723 0.281802
v -0.244363 3.277979 0.180735
v -0.421442 3.280212 0.110934
v -0.247542 3.102723 0.281802
v -0.421442 3.280212 0.110934
v -0.497970 3.105881 0.183089
v -0.497970 3.105881 0.183089
v -0.421442 3.280212 0.110934
v -0.494791 3.279228 -0.057492
v -0.497970 3.105881 0.183089
v -0.494791 3.279228 -0.057492
v -0.601701 3.104489 -0.055102
v -0.601701 3.104489 -0.055102
v -0.494791 3.279228 -0.057492
v -0.421442 3.275604 -0.225883
v -0.601701 3.104489 -0.055102
v -0.421442 3.275604 -0.225883
v -0.497970 3.099364 -0.293242
v -0.497970 3.099364 -0.293242
v -0.421442 3.275604 -0.225883
v -0.244363 3.271462 -0.295596
v -0.497970 3.099364 -0.293242
v -0.244363 3.271462 -0.295596
v -0.247542 3.093507 -0.391831
v -0.247542 3.093507 -0.391831
v -0.244363 3.271462 -0.295596
v -0.067283 3.269229 -0.225795
v -0.247542 3.093507 -0.391831
v -0.067283 3.269229 -0.225795
v 0.002886 3.090349 -0.293118
v 0.002886 3.090349 -0.293118
v -0.067283 3.269229 -0.225795
v 0.006065 3.270213 -0.057369
v 0.002886 3.090349 -0.293118
v 0.006065 3.270213 -0.057369
v 0.106616 3.091740 -0.054927
v 0.006065 3.270213 -0.057369
v -0.243046 3.347874 -0.058432
v -0.243046 3.347874 -0.058432
v 0.006065 3.270213 -0.057369
v -0.243046 3.347874 -0.058432
v -0.067283 3.273837 0.111021
v -0.067283 3.273837 0.111021
v -0.243046 3.347874 -0.058432
v -0.243046 3.347874 -0.058432
v -0.067283 3.273837 0.111021
v -0.243046 3.347874 -0.058432
v -0.244363 3.277979 0.180735
v -0.244363 3.277979 0.180735
v -0.243046 3.347874 -0.058432
v -0.243046 3.347874 -0.058432
v -0.244363 3.277979 0.180735
v -0.243046 3.347874 -0.058432
v -0.421442 3.280212 0.110934
v -0.421442 3.280212 0.110934
v -0.243046 3.347874 -0.058432
v -0.243046 3.347874 -0.058432
v -0.421442 3.280212 0.110934
v -0.243046 3.347874 -0.058432
v -0.494791 3.279228 -0.057492
v -0.494791 3.279228 -0.057492
v -0.243046 3.347874 -0.058432
v -0.243046 3.347874 -0.058432
v -0.494791 3.279228 -0.057492
v -0.243046 3.347874 -0.058432
v -0.421442 3.275604 -0.225883
v -0.421442 3.275604 -0.225883
v -0.243046 3.347874 -0.058432
v -0.243046 3.347874 -0.058432
v -0.421442 3.275604 -0.225883
v -0.243046 3.347874 -0.058432
v -0.244363 3.271462 -0.295596
v -0.244363 3.271462 -0.295596
v -0.243046 3.347874 -0.058432
v -0.243046 3.347874 -0.058432
v -0.244363 3.271462 -0.295596
v -0.243046 3.347874 -0.058432
v -0.067283 3.269229 -0.225795
v -0.067283 3.269229 -0.225795
v -0.243046 3.347874 -0.058432
v -0.243046 3.347874 -0.058432
v -0.067283 3.269229 -0.225795
v -0.243046 3.347874 -0.058432
v 0.006065 3.270213 -0.057369
v 0.078803 2.883291 -0.318773
v 0.265723 2.960656 -0.319831
v 0.211401 2.963441 -0.187743
v 0.078803 2.883291 -0.318773
v 0.211401 2.963441 -0.187743
v 0.078803 2.883291 -0.318773
v 0.078803 2.883291 -0.318773
v 0.211401 2.963441 -0.187743
v 0.080256 2.966550 -0.133057
v 0.078803 2.883291 -0.318773
v 0.080256 2.966550 -0.133057
v 0.078803 2.883291 -0.318773
v 0.078803 2.883291 -0.318773
v 0.080256 2.966550 -0.133057
v -0.050889 2.968162 -0.187808
v 0.078803 2.883291 -0.318773
v -0.050889 2.968162 -0.187808
v 0.078803 2.883291 -0.318773
v 0.078803 2.883291 -0.318773
v -0.050889 2.968162 -0.187808
v -0.105211 2.967332 -0.319922
v 0.078803 2.883291 -0.318773
v -0.105211 2.967332 -0.319922
v 0.078803 2.883291 -0.318773
v 0.078803 2.883291 -0.318773
v -0.105211 2.967332 -0.319922
v -0.050889 2.964547 -0.452010
v 0.078803 2.883291 -0.318773
v -0.050889 2.964547 -0.452010
v 0.078803 2.883291 -0.318773
v 0.078803 2.883291 -0.318773
v -0.050889 2.964547 -0.452010
v 0.080256 2.961438 -0.506696
v 0.078803 2.883291 -0.318773
v 0.080256 2.961438 -0.506696
v 0.078803 2.883291 -0.318773
v 0.078803 2.883291 -0.318773
v 0.080256 2.961438 -0.506696
v 0.211401 2.959826 -0.451945
v 0.078803 2.883291 -0.318773
v 0.211401 2.959826 -0.451945
v 0.078803 2.883291 -0.318773
v 0.078803 2.883291 -0.318773
v 0.211401 2.959826 -0.451945
v 0.265723 2.960656 -0.319831
v 0.078803 2.883291 -0.318773
v 0.265723 2.960656 -0.319831
v 0.078803 2.883291 -0.318773
v 0.265723 2.960656 -0.319831
v 0.346053 3.154107 -0.322478
v 0.269230 3.158045 -0.135677
v 0.265723 2.960656 -0.319831
v 0.269230 3.158045 -0.135677
v 0.211401 2.963441 -0.187743
v 0.211401 2.963441 -0.187743
v 0.269230 3.158045 -0.135677
v 0.083764 3.162442 -0.058340
v 0.211401 2.963441 -0.187743
v 0.083764 3.162442 -0.058340
v 0.080256 2.966550 -0.133057
v 0.080256 2.966550 -0.133057
v 0.083764 3.162442 -0.058340
v -0.101703 3.164722 -0.135769
v 0.080256 2.966550 -0.133057
v -0.101703 3.164722 -0.135769
v -0.050889 2.968162 -0.187808
v -0.050889 2.968162 -0.187808
v -0.101703 3.164722 -0.135769
v -0.178526 3.163549 -0.322607
v -0.050889 2.968162 -0.187808
v -0.178526 3.163549 -0.322607
v -0.105211 2.967332 -0.319922
v -0.105211 2.967332 -0.319922
v -0.178526 3.163549 -0.322607
v -0.101703 3.159610 -0.509407
v -0.105211 2.967332 -0.319922
v -0.101703 3.159610 -0.509407
v -0.050889 2.964547 -0.452010
v -0.050889 2.964547 -0.452010
v -0.101703 3.159610 -0.509407
v 0.083764 3.155213 -0.586744
v -0.050889 2.964547 -0.452010
v 0.083764 3.155213 -0.586744
v 0.080256 2.961438 -0.506696
v 0.080256 2.961438 -0.506696
v 0.083764 3.155213 -0.586744
v 0.269230 3.152934 -0.509316
v 0.080256 2.961438 -0.506696
v 0.269230 3.152934 -0.509316
v 0.211401 2.959826 -0.451945
v 0.211401 2.959826 -0.451945
v 0.269230 3.152934 -0.509316
v 0.346053 3.154107 -0.322478
v 0.211401 2.959826 -0.451945
v 0.346053 3.154107 -0.322478
v 0.265723 2.960656 -0.319831
v 0.346053 3.154107 -0.322478
v 0.272738 3.350323 -0.325162
v 0.218416 3.353108 -0.193074
v 0.346053 3.154107 -0.322478
v 0.218416 3.353108 -0.193074
v 0.269230 3.158045 -0.135677
v 0.269230 3.158045 -0.135677
v 0.218416 3.353108 -0.193074
v 0.087271 3.356217 -0.138388
v 0.269230 3.158045 -0.135677
v 0.087271 3.356217 -0.138388
v 0.083764 3.162442 -0.058340
v 0.083764 3.162442 -0.058340
v 0.087271 3.356217 -0.138388
v -0.043874 3.357829 -0.193139
v 0.083764 3.162442 -0.058340
v -0.043874 3.357829 -0.193139
v -0.101703 3.164722 -0.135769
v -0.101703 3.164722 -0.135769
v -0.043874 3.357829 -0.193139
v -0.098195 3.357000 -0.325253
v -0.101703 3.164722 -0.135769
v -0.098195 3.357000 -0.325253
v -0.178526 3.163549 -0.322607
v -0.178526 3.163549 -0.322607
v -0.098195 3.357000 -0.325253
v -0.043874 3.354215 -0.457341
v -0.178526 3.163549 -0.322607
v -0.043874 3.354215 -0.457341
v -0.101703 3.159610 -0.509407
v -0.101703 3.159610 -0.509407
v -0.043874 3.354215 -0.457341
v 0.087271 3.351106 -0.512027
v -0.101703 3.159610 -0.509407
v 0.087271 3.351106 -0.512027
v 0.083764 3.155213 -0.586744
v 0.083764 3.155213 -0.586744
v 0.087271 3.351106 -0.512027
v 0.218416 3.349494 -0.457277
v 0.083764 3.155213 -0.586744
v 0.218416 3.349494 -0.457277
v 0.269230 3.152934 -0.509316
v 0.269230 3.152934 -0.509316
v 0.218416 3.349494 -0.457277
v 0.272738 3.350323 -0.325162
v 0.269230 3.152934 -0.509316
v 0.272738 3.350323 -0.325162
v 0.346053 3.154107 -0.322478
v 0.272738 3.350323 -0.325162
v 0.088724 3.434365 -0.326312
v 0.088724 3.434365 -0.326312
v 0.272738 3.350323 -0.325162
v 0.088724 3.434365 -0.326312
v 0.218416 3.353108 -0.193074
v 0.218416 3.353108 -0.193074
v 0.088724 3.434365 -0.326312
v 0.088724 3.434365 -0.326312
v 0.218416 3.353108 -0.193074
v 0.088724 3.434365 -0.326312
v 0.087271 3.356217 -0.138388
v 0.087271 3.356217 -0.138388
v 0.088724 3.434365 -0.326312
v 0.088724 3.434365 -0.326312
v 0.087271 3.356217 -0.138388
v 0.088724 3.434365 -0.326312
v -0.043874 3.357829 -0.193139
v -0.043874 3.357829 -0.193139
v 0.088724 3.434365 -0.326312
v 0.088724 3.434365 -0.326312
v -0.043874 3.357829 -0.193139
v 0.088724 3.434365 -0.326312
v -0.098195 3.357000 -0.325253
v -0.098195 3.357000 -0.325253
v 0.088724 3.434365 -0.326312
v 0.088724 3.434365 -0.326312
v -0.098195 3.357000 -0.325253
v 0.088724 3.434365 -0.326312
v -0.043874 3.354215 -0.457341
v -0.043874 3.354215 -0.457341
v 0.088724 3.434365 -0.326312
v 0.088724 3.434365 -0.326312
v -0.043874 3.354215 -0.457341
v 0.088724 3.434365 -0.326312
v 0.087271 3.351106 -0.512027
v 0.087271 3.351106 -0.512027
v 0.088724 3.434365 -0.326312
v 0.088724 3.434365 -0.326312
v 0.087271 3.351106 -0.512027
v 0.088724 3.434365 -0.326312
v 0.218416 3.349494 -0.457277
v 0.218416 3.349494 -0.457277
v 0.088724 3.434365 -0.326312
v 0.088724 3.434365 -0.326312
v 0.218416 3.349494 -0.457277
v 0.088724 3.434365 -0.326312
v 0.272738 3.350323 -0.325162
v 0.196079 2.630389 0.029783
v 0.403021 2.714946 0.028627
v 0.342874 2.718141 0.183047
v 0.196079 2.630389 0.029783
v 0.342874 2.718141 0.183047
v 0.196079 2.630389 0.029783
v 0.196079 2.630389 0.029783
v 0.342874 2.718141 0.183047
v 0.197668 2.721630 0.246980
v 0.196079 2.630389 0.029783
v 0.197668 2.721630 0.246980
v 0.196079 2.630389 0.029783
v 0.196079 2.630389 0.029783
v 0.197668 2.721630 0.246980
v 0.052461 2.723369 0.182975
v 0.196079 2.630389 0.029783
v 0.052461 2.723369 0.182975
v 0.196079 2.630389 0.029783
v 0.196079 2.630389 0.029783
v 0.052461 2.723369 0.182975
v -0.007685 2.722338 0.028526
v 0.196079 2.630389 0.029783
v -0.007685 2.722338 0.028526
v 0.196079 2.630389 0.029783
v 0.196079 2.630389 0.029783
v -0.007685 2.722338 0.028526
v 0.052461 2.719143 -0.125894
v 0.196079 2.630389 0.029783
v 0.052461 2.719143 -0.125894
v 0.196079 2.630389 0.029783
v 0.196079 2.630389 0.029783
v 0.052461 2.719143 -0.125894
v 0.197668 2.715654 -0.189828
v 0.196079 2.630389 0.029783
v 0.197668 2.715654 -0.189828
v 0.196079 2.630389 0.029783
v 0.196079 2.630389 0.029783
v 0.197668 2.715654 -0.189828
v 0.342874 2.713916 -0.125823
v 0.196079 2.630389 0.029783
v 0.342874 2.713916 -0.125823
v 0.196079 2.630389 0.029783
v 0.196079 2.630389 0.029783
v 0.342874 2.713916 -0.125823
v 0.403021 2.714946 0.028627
v 0.196079 2.630389 0.029783
v 0.403021 2.714946 0.028627
v 0.196079 2.630389 0.029783
v 0.403021 2.714946 0.028627
v 0.491917 2.926476 0.025733
v 0.406857 2.930995 0.244116
v 0.403021 2.714946 0.028627
v 0.406857 2.930995 0.244116
v 0.342874 2.718141 0.183047
v 0.342874 2.718141 0.183047
v 0.406857 2.930995 0.244116
v 0.201504 2.935929 0.334531
v 0.342874 2.718141 0.183047
v 0.201504 2.935929 0.334531
v 0.197668 2.721630 0.246980
v 0.197668 2.721630 0.246980
v 0.201504 2.935929 0.334531
v -0.003849 2.938388 0.244014
v 0.197668 2.721630 0.246980
v -0.003849 2.938388 0.244014
v 0.052461 2.723369 0.182975
v 0.052461 2.723369 0.182975
v -0.003849 2.938388 0.244014
v -0.088909 2.936931 0.025590
v 0.052461 2.723369 0.182975
v -0.088909 2.936931 0.025590
v -0.007685 2.722338 0.028526
v -0.007685 2.722338 0.028526
v -0.088909 2.936931 0.025590
v -0.003849 2.932412 -0.192793
v -0.007685 2.722338 0.028526
v -0.003849 2.932412 -0.192793
v 0.052461 2.719143 -0.125894
v 0.052461 2.719143 -0.125894
v -0.003849 2.932412 -0.192793
v 0.201504 2.927478 -0.283208
v 0.052461 2.719143 -0.125894
v 0.201504 2.927478 -0.283208
v 0.197668 2.715654 -0.189828
v 0.197668 2.715654 -0.189828
v 0.201504 2.927478 -0.283208
v 0.406857 2.925019 -0.192692
v 0.197668 2.715654 -0.189828
v 0.406857 2.925019 -0.192692
v 0.342874 2.713916 -0.125823
v 0.342874 2.713916 -0.125823
v 0.406857 2.925019 -0.192692
v 0.491917 2.926476 0.025733
v 0.342874 2.713916 -0.125823
v 0.491917 2.926476 0.025733
v 0.403021 2.714946 0.028627
v 0.491917 2.926476 0.025733
v 0.410692 3.141068 0.022797
v 0.350546 3.144264 0.177217
v 0.491917 2.926476 0.025733
v 0.350546 3.144264 0.177217
v 0.406857 2.930995 0.244116
v 0.406857 2.930995 0.244116
v 0.350546 3.144264 0.177217
v 0.205339 3.147753 0.241150
v 0.406857 2.930995 0.244116
v 0.205339 3.147753 0.241150
v 0.201504 2.935929 0.334531
v 0.201504 2.935929 0.334531
v 0.205339 3.147753 0.241150
v 0.060133 3.149491 0.177145
v 0.201504 2.935929 0.334531
v 0.060133 3.149491 0.177145
v -0.003849 2.938388 0.244014
v -0.003849 2.938388 0.244014
v 0.060133 3.149491 0.177145
v -0.000014 3.148461 0.022696
v -0.003849 2.938388 0.244014
v -0.000014 3.148461 0.022696
v -0.088909 2.936931 0.025590
v -0.088909 2.936931 0.025590
v -0.000014 3.148461 0.022696
v 0.060133 3.145266 -0.131724
v -0.088909 2.936931 0.025590
v 0.060133 3.145266 -0.131724
v -0.003849 2.932412 -0.192793
v -0.003849 2.932412 -0.192793
v 0.060133 3.145266 -0.131724
v 0.205339 3.141777 -0.195657
v -0.003849 2.932412 -0.192793
v 0.205339 3.141777 -0.195657
v 0.201504 2.927478 -0.283208
v 0.201504 2.927478 -0.283208
v 0.205339 3.141777 -0.195657
v 0.350546 3.140038 -0.131653
v 0.201504 2.927478 -0.283208
v 0.350546 3.140038 -0.131653
v 0.406857 2.925019 -0.192692
v 0.406857 2.925019 -0.192692
v 0.350546 3.140038 -0.131653
v 0.410692 3.141068 0.022797
v 0.406857 2.925019 -0.192692
v 0.410692 3.141068 0.022797
v 0.491917 2.926476 0.025733
v 0.410692 3.141068 0.022797
v 0.206928 3.233017 0.021539
v 0.206928 3.233017 0.021539
v 0.410692 3.141068 0.022797
v 0.206928 3.233017 0.021539
v 0.350546 3.144264 0.177217
v 0.350546 3.144264 0.177217
v 0.206928 3.233017 0.021539
v 0.206928 3.233017 0.021539
v 0.350546 3.144264 0.177217
v 0.206928 3.233017 0.021539
v 0.205339 3.147753 0.241150
v 0.205339 3.147753 0.241150
v 0.206928 3.233017 0.021539
v 0.206928 3.233017 0.021539
v 0.205339 3.147753 0.241150
v 0.206928 3.233017 0.021539
v 0.060133 3.149491 0.177145
v 0.060133 3.149491 0.177145
v 0.206928 3.233017 0.021539
v 0.206928 3.233017 0.021539
v 0.060133 3.149491 0.177145
v 0.206928 3.233017 0.021539
v -0.000014 3.148461 0.022696
v -0.000014 3.148461 0.022696
v 0.206928 3.233017 0.021539
v 0.206928 3.233017 0.021539
v -0.000014 3.148461 0.022696
v 0.206928 3.233017 0.021539
v 0.060133 3.145266 -0.131724
v 0.060133 3.145266 -0.131724
v 0.206928 3.233017 0.021539
v 0.206928 3.233017 0.021539
v 0.060133 3.145266 -0.131724
v 0.206928 3.233017 0.021539
v 0.205339 3.141777 -0.195657
v 0.205339 3.141777 -0.195657
v 0.206928 3.233017 0.021539
v 0.206928 3.233017 0.021539
v 0.205339 3.141777 -0.195657
v 0.206928 3.233017 0.021539
v 0.350546 3.140038 -0.131653
v 0.350546 3.140038 -0.131653
v 0.206928 3.233017 0.021539
v 0.206928 3.233017 0.021539
v 0.350546 3.140038 -0.131653
v 0.206928 3.233017 0.021539
v 0.410692 3.141068 0.022797
f 817 818 819
f 820 821 822
f 823 824 825
f 826 827 828
f 829 830 831
f 832 833 834
f 835 836 837
f 838 839 840
f 841 842 843
f 844 845 846
f 847 848 849
f 850 851 852
f 853 854 855
f 856 857 858
f 859 860 861
f 862 863 864
f 865 866 867
f 868 869 870
f 871 872 873
f 874 875 876
f 877 878 879
f 880 881 882
f 883 884 885
f 886 887 888
f 889 890 891
f 892 893 894
f 895 896 897
f 898 899 900
f 901 902 903
f 904 905 906
f 907 908 909
f 910 911 912
f 913 914 915
f 916 917 918
f 919 920 921
f 922 923 924
f 925 926 927
f 928 929 930
f 931 932 933
f 934 935 936
f 937 938 939
f 940 941 942
f 943 944 945
f 946 947 948
f 949 950 951
f 952 953 954
f 955 956 957
f 958 959 960
f 961 962 963
f 964 965 966
f 967 968 969
f 970 971 972
f 973 974 975
f 976 977 978
f 979 980 981
f 982 983 984
f 985 986 987
f 988 989 990
f 991 992 993
f 994 995 996
f 997 998 999
f 1000 1001 1002
f 1003 1004 1005
f 1006 1007 1008
f 1009 1010 1011
f 1012 1013 1014
f 1015 1016 1017
f 1018 1019 1020
f 1021 1022 1023
f 1024 1025 1026
f 1027 1028 1029
f 1030 1031 1032
f 1033 1034 1035
f 1036 1037 1038
f 1039 1040 1041
f 1042 1043 1044
f 1045 1046 1047
f 1048 1049 1050
f 1051 1052 1053
f 1054 1055 1056
f 1057 1058 1059
f 1060 1061 1062
f 1063 1064 1065
f 1066 1067 1068
f 1069 1070 1071
f 1072 1073 1074
f 1075 1076 1077
f 1078 1079 1080
f 1081 1082 1083
f 1084 1085 1086
f 1087 1088 1089
f 1090 1091 1092
f 1093 1094 1095
f 1096 1097 1098
f 1099 1100 1101
f 1102 1103 1104
f 1105 1106 1107
f 1108 1109 1110
f 1111 1112 1113
f 1114 1115 1116
f 1117 1118 1119
f 1120 1121 1122
f 1123 1124 1125
f 1126 1127 1128
f 1129 1130 1131
f 1132 1133 1134
f 1135 1136 1137
f 1138 1139 1140
f 1141 1142 1143
f 1144 1145 1146
f 1147 1148 1149
f 1150 1151 1152
f 1153 1154 1155
f 1156 1157 1158
f 1159 1160 1161
f 1162 1163 1164
f 1165 1166 1167
f 1168 1169 1170
f 1171 1172 1173
f 1174 1175 1176
f 1177 1178 1179
f 1180 1181 1182
f 1183 1184 1185
f 1186 1187 1188
f 1189 1190 1191
f 1192 1193 1194
f 1195 1196 1197
f 1198 1199 1200
f 1201 1202 1203
f 1204 1205 1206
f 1207 1208 1209
f 1210 1211 1212
f 1213 1214 1215
f 1216 1217 1218
f 1219 1220 1221
f 1222 1223 1224
f 1225 1226 1227
f 1228 1229 1230
f 1231 1232 1233
f 1234 1235 1236
f 1237 1238 1239
f 1240 1241 1242
f 1243 1244 1245
f 1246 1247 1248
f 1249 1250 1251
f 1252 1253 1254
f 1255 1256 1257
f 1258 1259 1260
f 1261 1262 1263
f 1264 1265 1266
f 1267 1268 1269
f 1270 1271 1272
f 1273 1274 1275
f 1276 1277 1278
f 1279 1280 1281
f 1282 1283 1284
f 1285 1286 1287
f 1288 1289 1290
f 1291 1292 1293
f 1294 1295 1296
f 1297 1298 1299
f 1300 1301 1302
f 1303 1304 1305
f 1306 1307 1308
f 1309 1310 1311
f 1312 1313 1314
f 1315 1316 1317
f 1318 1319 1320
f 1321 1322 1323
f 1324 1325 1326
f 1327 1328 1329
f 1330 1331 1332
f 1333 1334 1335
f 1336 1337 1338
f 1339 1340 1341
f 1342 1343 1344
f 1345 1346 1347
f 1348 1349 1350
f 1351 1352 1353
f 1354 1355 1356
f 1357 1358 1359
f 1360 1361 1362
f 1363 1364 1365
f 1366 1367 1368
f 1369 1370 1371
f 1372 1373 1374
f 1375 1376 1377
f 1378 1379 1380
f 1381 1382 1383
f 1384 1385 1386
f 1387 1388 1389
f 1390 1391 1392
f 1393 1394 1395
f 1396 1397 1398
f 1399 1400 1401
f 1402 1403 1404
f 1405 1406 1407
f 1408 1409 1410
f 1411 1412 1413
f 1414 1415 1416
f 1417 1418 1419
f 1420 1421 1422
f 1423 1424 1425
f 1426 1427 1428
f 1429 1430 1431
f 1432 1433 1434
f 1435 1436 1437
f 1438 1439 1440
f 1441 1442 1443
f 1444 1445 1446
f 1447 1448 1449
f 1450 1451 1452
f 1453 1454 1455
f 1456 1457 1458
f 1459 1460 1461
f 1462 1463 1464
f 1465 1466 1467
f 1468 1469 1470
f 1471 1472 1473
f 1474 1475 1476
f 1477 1478 1479
f 1480 1481 1482
f 1483 1484 1485
f 1486 1487 1488
f 1489 1490 1491
f 1492 1493 1494
f 1495 1496 1497
f 1498 1499 1500
f 1501 1502 1503
f 1504 1505 1506
f 1507 1508 1509
f 1510 1511 1512
f 1513 1514 1515
f 1516 1517 1518
f 1519 1520 1521
f 1522 1523 1524
f 1525 1526 1527
f 1528 1529 1530
f 1531 1532 1533
f 1534 1535 1536
f 1537 1538 1539
f 1540 1541 1542
f 1543 1544 1545
f 1546 1547 1548
f 1549 1550 1551
f 1552 1553 1554
f 1555 1556 1557
f 1558 1559 1560
f 1561 1562 1563
f 1564 1565 1566
f 1567 1568 1569
f 1570 1571 1572
f 1573 1574 1575
f 1576 1577 1578
f 1579 1580 1581
f 1582 1583 1584
f 1585 1586 1587
f 1588 1589 1590
f 1591 1592 1593
f 1594 1595 1596
f 1597 1598 1599
f 1600 1601 1602
f 1603 1604 1605
f 1606 1607 1608
f 1609 1610 1611
f 1612 1613 1614
f 1615 1616 1617
f 1618 1619 1620
f 1621 1622 1623
f 1624 1625 1626
f 1627 1628 1629
f 1630 1631 1632
f 1633 1634 1635
f 1636 1637 1638
f 1639 1640 1641
f 1642 1643 1644
f 1645 1646 1647
f 1648 1649 1650
f 1651 1652 1653
f 1654 1655 1656
f 1657 1658 1659
f 1660 1661 1662
f 1663 1664 1665
f 1666 1667 1668
f 1669 1670 1671
f 1672 1673 1674
f 1675 1676 1677
f 1678 1679 1680
f 1681 1682 1683
f 1684 1685 1686
f 1687 1688 1689
f 1690 1691 1692
f 1693 1694 1695
f 1696 1697 1698
f 1699 1700 1701
f 1702 1703 1704
f 1705 1706 1707
f 1708 1709 1710
f 1711 1712 1713
f 1714 1715 1716
f 1717 1718 1719
f 1720 1721 1722
f 1723 1724 1725
f 1726 1727 1728
f 1729 1730 1731
f 1732 1733 1734
f 1735 1736 1737
f 1738 1739 1740
f 1741 1742 1743
f 1744 1745 1746
f 1747 1748 1749
f 1750 1751 1752
f 1753 1754 1755
f 1756 1757 1758
f 1759 1760 1761
f 1762 1763 1764
f 1765 1766 1767
f 1768 1769 1770
f 1771 1772 1773
f 1774 1775 1776
f 1777 1778 1779
f 1780 1781 1782
f 1783 1784 1785
f 1786 1787 1788
f 1789 1790 1791
f 1792 1793 1794
f 1795 1796 1797
f 1798 1799 1800
f 1801 1802 1803
f 1804 1805 1806
f 1807 1808 1809
f 1810 1811 1812
f 1813 1814 1815
f 1816 1817 1818
f 1819 1820 1821
f 1822 1823 1824
f 1825 1826 1827
f 1828 1829 1830
f 1831 1832 1833
f 1834 1835 1836
f 1837 1838 1839
f 1840 1841 1842
f 1843 1844 1845
f 1846 1847 1848
f 1849 1850 1851
f 1852 1853 1854
f 1855 1856 1857
f 1858 1859 1860
f 1861 1862 1863
f 1864 1865 1866
f 1867 1868 1869
f 1870 1871 1872
f 1873 1874 1875
f 1876 1877 1878
f 1879 1880 1881
f 1882 1883 1884
f 1885 1886 1887
f 1888 1889 1890
f 1891 1892 1893
f 1894 1895 1896
f 1897 1898 1899
f 1900 1901 1902
f 1903 1904 1905
f 1906 1907 1908
f 1909 1910 1911
f 1912 1913 1914
f 1915 1916 1917
f 1918 1919 1920
f 1921 1922 1923
f 1924 1925 1926
f 1927 1928 1929
f 1930 1931 1932
f 1933 1934 1935
f 1936 1937 1938
f 1939 1940 1941
f 1942 1943 1944
f 1945 1946 1947
f 1948 1949 1950
f 1951 1952 1953
f 1954 1955 1956
f 1957 1958 1959
f 1960 1961 1962
f 1963 1964 1965
f 1966 1967 1968
f 1969 1970 1971
f 1972 1973 1974
f 1975 1976 1977
f 1978 1979 1980
f 1981 1982 1983
f 1984 1985 1986
f 1987 1988 1989
f 1990 1991 1992
f 1993 1994 1995
f 1996 1997 1998
f 1999 2000 2001
f 2002 2003 2004
f 2005 2006 2007
f 2008 2009 2010
f 2011 2012 2013
f 2014 2015 2016
f 2017 2018 2019
f 2020 2021 2022
f 2023 2024 2025
f 2026 2027 2028
f 2029 2030 2031
f 2032 2033 2034
f 2035 2036 2037
f 2038 2039 2040
f 2041 2042 2043
f 2044 2045 2046
f 2047 2048 2049
f 2050 2051 2052
f 2053 2054 2055
f 2056 2057 2058
f 2059 2060 2061
f 2062 2063 2064
f 2065 2066 2067
f 2068 2069 2070
f 2071 2072 2073
f 2074 2075 2076
f 2077 2078 2079
f 2080 2081 2082
f 2083 2084 2085
f 2086 2087 2088
f 2089 2090 2091
f 2092 2093 2094
f 2095 2096 2097
f 2098 2099 2100
f 2101 2102 2103
f 2104 2105 2106
f 2107 2108 2109
f 2110 2111 2112
f 2113 2114 2115
f 2116 2117 2118
f 2119 2120 2121
f 2122 2123 2124
f 2125 2126 2127
f 2128 2129 2130
f 2131 2132 2133
f 2134 2135 2136
f 2137 2138 2139
f 2140 2141 2142
f 2143 2144 2145
f 2146 2147 2148
f 2149 2150 2151
f 2152 2153 2154
f 2155 2156 2157
f 2158 2159 2160
f 2161 2162 2163
f 2164 2165 2166
f 2167 2168 2169
f 2170 2171 2172
f 2173 2174 2175
f 2176 2177 2178
f 2179 2180 2181
f 2182 2183 2184
f 2185 2186 2187
f 2188 2189 2190
f 2191 2192 2193
f 2194 2195 2196
f 2197 2198 2199
f 2200 2201 2202
f 2203 2204 2205
f 2206 2207 2208
f 2209 2210 2211
f 2212 2213 2214
f 2215 2216 2217
f 2218 2219 2220
f 2221 2222 2223
f 2224 2225 2226
f 2227 2228 2229
f 2230 2231 2232
f 2233 2234 2235
f 2236 2237 2238
f 2239 2240 2241
f 2242 2243 2244
f 2245 2246 2247
f 2248 2249 2250
f 2251 2252 2253
f 2254 2255 2256
f 2257 2258 2259
f 2260 2261 2262
f 2263 2264 2265
f 2266 2267 2268
f 2269 2270 2271
f 2272 2273 2274
f 2275 2276 2277
f 2278 2279 2280
f 2281 2282 2283
f 2284 2285 2286
f 2287 2288 2289
f 2290 2291 2292
f 2293 2294 2295
f 2296 2297 2298
f 2299 2300 2301
f 2302 2303 2304
f 2305 2306 2307
f 2308 2309 2310
f 2311 2312 2313
f 2314 2315 2316
f 2317 2318 2319
f 2320 2321 2322
f 2323 2324 2325
f 2326 2327 2328
f 2329 2330 2331
f 2332 2333 2334
f 2335 2336 2337
f 2338 2339 2340
f 2341 2342 2343
f 2344 2345 2346
f 2347 2348 2349
f 2350 2351 2352
f 2353 2354 2355
f 2356 2357 2358
f 2359 2360 2361
f 2362 2363 2364
f 2365 2366 2367
f 2368 2369 2370
f 2371 2372 2373
f 2374 2375 2376
f 2377 2378 2379
f 2380 2381 2382
f 2383 2384 2385
f 2386 2387 2388
f 2389 2390 2391
f 2392 2393 2394
f 2395 2396 2397
f 2398 2399 2400
f 2401 2402 2403
f 2404 2405 2406
f 2407 2408 2409
f 2410 2411 2412
f 2413 2414 2415
f 2416 2417 2418
f 2419 2420 2421
f 2422 2423 2424
f 2425 2426 2427
f 2428 2429 2430
f 2431 2432 2433
f 2434 2435 2436
f 2437 2438 2439
f 2440 2441 2442
f 2443 2444 2445
f 2446 2447 2448
f 2449 2450 2451
f 2452 2453 2454
f 2455 2456 2457
f 2458 2459 2460
f 2461 2462 2463
f 2464 2465 2466
f 2467 2468 2469
f 2470 2471 2472
f 2473 2474 2475
f 2476 2477 2478
f 2479 2480 2481
f 2482 2483 2484
f 2485 2486 2487
f 2488 2489 2490
f 2491 2492 2493
f 2494 2495 2496
f 2497 2498 2499
f 2500 2501 2502
f 2503 2504 2505
f 2506 2507 2508
f 2509 2510 2511
f 2512 2513 2514
f 2515 2516 2517
f 2518 2519 2520
f 2521 2522 2523
f 2524 2525 2526
f 2527 2528 2529
f 2530 2531 2532
f 2533 2534 2535
f 2536 2537 2538
f 2539 2540 2541
f 2542 2543 2544
