# Pyramida editable prop source
# units: 1 OBJ unit = 1 Pyramida World Unit = 1 Blender metre

o TreeTrunk
v 0.061556 0.074391 0.096705
v 0.238128 0.020872 -0.016977
v 0.240448 0.044247 -0.041478
v 0.061556 0.074391 0.096705
v 0.240448 0.044247 -0.041478
v 0.071707 0.176653 -0.010484
v 0.043495 0.075584 -0.006723
v 0.061556 0.074391 0.096705
v 0.071707 0.176653 -0.010484
v 0.234000 0.021145 -0.040618
v 0.240448 0.044247 -0.041478
v 0.238128 0.020872 -0.016977
v 0.071707 0.176653 -0.010484
v 0.240448 0.044247 -0.041478
v 0.229872 0.021418 -0.064259
v 0.071707 0.176653 -0.010484
v 0.229872 0.021418 -0.064259
v 0.025434 0.076778 -0.110151
v 0.043495 0.075584 -0.006723
v 0.071707 0.176653 -0.010484
v 0.025434 0.076778 -0.110151
v 0.234000 0.021145 -0.040618
v 0.229872 0.021418 -0.064259
v 0.240448 0.044247 -0.041478
v 0.025434 0.076778 -0.110151
v 0.229872 0.021418 -0.064259
v 0.227551 -0.001956 -0.039758
v 0.025434 0.076778 -0.110151
v 0.227551 -0.001956 -0.039758
v 0.015282 -0.025484 -0.002963
v 0.043495 0.075584 -0.006723
v 0.025434 0.076778 -0.110151
v 0.015282 -0.025484 -0.002963
v 0.234000 0.021145 -0.040618
v 0.227551 -0.001956 -0.039758
v 0.229872 0.021418 -0.064259
v 0.015282 -0.025484 -0.002963
v 0.227551 -0.001956 -0.039758
v 0.238128 0.020872 -0.016977
v 0.015282 -0.025484 -0.002963
v 0.238128 0.020872 -0.016977
v 0.061556 0.074391 0.096705
v 0.043495 0.075584 -0.006723
v 0.015282 -0.025484 -0.002963
v 0.061556 0.074391 0.096705
v 0.234000 0.021145 -0.040618
v 0.238128 0.020872 -0.016977
v 0.227551 -0.001956 -0.039758
v -0.114972 0.073784 -0.003527
v -0.137195 0.013355 0.232049
v -0.118339 0.036606 0.248044
v -0.114972 0.073784 -0.003527
v -0.118339 0.036606 0.248044
v -0.032477 0.175507 0.066451
v -0.020180 0.074227 0.041631
v -0.114972 0.073784 -0.003527
v -0.032477 0.175507 0.066451
v -0.115528 0.013456 0.242371
v -0.118339 0.036606 0.248044
v -0.137195 0.013355 0.232049
v -0.032477 0.175507 0.066451
v -0.118339 0.036606 0.248044
v -0.093861 0.013557 0.252693
v -0.032477 0.175507 0.066451
v -0.093861 0.013557 0.252693
v 0.074612 0.074669 0.086790
v -0.020180 0.074227 0.041631
v -0.032477 0.175507 0.066451
v 0.074612 0.074669 0.086790
v -0.115528 0.013456 0.242371
v -0.093861 0.013557 0.252693
v -0.118339 0.036606 0.248044
v 0.074612 0.074669 0.086790
v -0.093861 0.013557 0.252693
v -0.112717 -0.009694 0.236698
v 0.074612 0.074669 0.086790
v -0.112717 -0.009694 0.236698
v -0.007882 -0.027054 0.016811
v -0.020180 0.074227 0.041631
v 0.074612 0.074669 0.086790
v -0.007882 -0.027054 0.016811
v -0.115528 0.013456 0.242371
v -0.112717 -0.009694 0.236698
v -0.093861 0.013557 0.252693
v -0.007882 -0.027054 0.016811
v -0.112717 -0.009694 0.236698
v -0.137195 0.013355 0.232049
v -0.007882 -0.027054 0.016811
v -0.137195 0.013355 0.232049
v -0.114972 0.073784 -0.003527
v -0.020180 0.074227 0.041631
v -0.007882 -0.027054 0.016811
v -0.114972 0.073784 -0.003527
v -0.115528 0.013456 0.242371
v -0.137195 0.013355 0.232049
v -0.112717 -0.009694 0.236698
v 0.068928 0.076981 -0.089430
v -0.124782 0.020288 -0.272288
v -0.148562 0.043344 -0.264876
v 0.068928 0.076981 -0.089430
v -0.148562 0.043344 -0.264876
v -0.035108 0.177852 -0.057005
v -0.022757 0.075275 -0.038286
v 0.068928 0.076981 -0.089430
v -0.035108 0.177852 -0.057005
v -0.145739 0.019898 -0.260598
v -0.148562 0.043344 -0.264876
v -0.124782 0.020288 -0.272288
v -0.035108 0.177852 -0.057005
v -0.148562 0.043344 -0.264876
v -0.166695 0.019508 -0.248908
v -0.035108 0.177852 -0.057005
v -0.166695 0.019508 -0.248908
v -0.114443 0.073569 0.012859
v -0.022757 0.075275 -0.038286
v -0.035108 0.177852 -0.057005
v -0.114443 0.073569 0.012859
v -0.145739 0.019898 -0.260598
v -0.166695 0.019508 -0.248908
v -0.148562 0.043344 -0.264876
v -0.114443 0.073569 0.012859
v -0.166695 0.019508 -0.248908
v -0.142916 -0.003548 -0.256319
v -0.114443 0.073569 0.012859
v -0.142916 -0.003548 -0.256319
v -0.010407 -0.027302 -0.019566
v -0.022757 0.075275 -0.038286
v -0.114443 0.073569 0.012859
v -0.010407 -0.027302 -0.019566
v -0.145739 0.019898 -0.260598
v -0.142916 -0.003548 -0.256319
v -0.166695 0.019508 -0.248908
v -0.010407 -0.027302 -0.019566
v -0.142916 -0.003548 -0.256319
v -0.124782 0.020288 -0.272288
v -0.010407 -0.027302 -0.019566
v -0.124782 0.020288 -0.272288
v 0.068928 0.076981 -0.089430
v -0.022757 0.075275 -0.038286
v -0.010407 -0.027302 -0.019566
v 0.068928 0.076981 -0.089430
v -0.145739 0.019898 -0.260598
v -0.124782 0.020288 -0.272288
v -0.142916 -0.003548 -0.256319
v -0.000093 0.010531 -0.159653
v 0.014443 1.008091 -0.065468
v 0.128496 1.002113 0.000047
v -0.000093 0.010531 -0.159653
v 0.128496 1.002113 0.000047
v 0.138503 0.003266 -0.080039
v 0.000000 0.000000 0.000000
v -0.000093 0.010531 -0.159653
v 0.138503 0.003266 -0.080039
v 0.138503 0.003266 -0.080039
v 0.128496 1.002113 0.000047
v 0.128573 0.993447 0.131429
v 0.138503 0.003266 -0.080039
v 0.128573 0.993447 0.131429
v 0.138596 -0.007264 0.079614
v 0.000000 0.000000 0.000000
v 0.138503 0.003266 -0.080039
v 0.138596 -0.007264 0.079614
v 0.138596 -0.007264 0.079614
v 0.128573 0.993447 0.131429
v 0.014596 0.990759 0.197294
v 0.138596 -0.007264 0.079614
v 0.014596 0.990759 0.197294
v 0.000093 -0.010531 0.159653
v 0.000000 0.000000 0.000000
v 0.138596 -0.007264 0.079614
v 0.000093 -0.010531 0.159653
v 0.000093 -0.010531 0.159653
v 0.014596 0.990759 0.197294
v -0.099457 0.996737 0.131778
v 0.000093 -0.010531 0.159653
v -0.099457 0.996737 0.131778
v -0.138503 -0.003266 0.080039
v 0.000000 0.000000 0.000000
v 0.000093 -0.010531 0.159653
v -0.138503 -0.003266 0.080039
v -0.138503 -0.003266 0.080039
v -0.099457 0.996737 0.131778
v -0.099533 1.005403 0.000397
v -0.138503 -0.003266 0.080039
v -0.099533 1.005403 0.000397
v -0.138596 0.007264 -0.079614
v 0.000000 0.000000 0.000000
v -0.138503 -0.003266 0.080039
v -0.138596 0.007264 -0.079614
v -0.138596 0.007264 -0.079614
v -0.099533 1.005403 0.000397
v 0.014443 1.008091 -0.065468
v -0.138596 0.007264 -0.079614
v 0.014443 1.008091 -0.065468
v -0.000093 0.010531 -0.159653
v 0.000000 0.000000 0.000000
v -0.138596 0.007264 -0.079614
v -0.000093 0.010531 -0.159653
v 0.014588 0.995004 -0.065679
v 0.059564 1.997059 -0.070977
v 0.148936 1.994783 -0.019158
v 0.014588 0.995004 -0.065679
v 0.148936 1.994783 -0.019158
v 0.128466 0.992103 0.000348
v 0.059510 2.000529 0.032298
v 0.148936 1.994783 -0.019158
v 0.059564 1.997059 -0.070977
v 0.128466 0.992103 0.000348
v 0.148936 1.994783 -0.019158
v 0.148882 1.998253 0.084117
v 0.128466 0.992103 0.000348
v 0.148882 1.998253 0.084117
v 0.128397 0.996525 0.131940
v 0.059510 2.000529 0.032298
v 0.148882 1.998253 0.084117
v 0.148936 1.994783 -0.019158
v 0.128397 0.996525 0.131940
v 0.148882 1.998253 0.084117
v 0.059456 2.003999 0.135573
v 0.128397 0.996525 0.131940
v 0.059456 2.003999 0.135573
v 0.014451 1.003847 0.197505
v 0.059510 2.000529 0.032298
v 0.059456 2.003999 0.135573
v 0.148882 1.998253 0.084117
v 0.014451 1.003847 0.197505
v 0.059456 2.003999 0.135573
v -0.029917 2.006276 0.083754
v 0.014451 1.003847 0.197505
v -0.029917 2.006276 0.083754
v -0.099426 1.006747 0.131478
v 0.059510 2.000529 0.032298
v -0.029917 2.006276 0.083754
v 0.059456 2.003999 0.135573
v -0.099426 1.006747 0.131478
v -0.029917 2.006276 0.083754
v -0.029863 2.002806 -0.019521
v -0.099426 1.006747 0.131478
v -0.029863 2.002806 -0.019521
v -0.099358 1.002326 -0.000114
v 0.059510 2.000529 0.032298
v -0.029863 2.002806 -0.019521
v -0.029917 2.006276 0.083754
v -0.099358 1.002326 -0.000114
v -0.029863 2.002806 -0.019521
v 0.059564 1.997059 -0.070977
v -0.099358 1.002326 -0.000114
v 0.059564 1.997059 -0.070977
v 0.014588 0.995004 -0.065679
v 0.059510 2.000529 0.032298
v 0.059564 1.997059 -0.070977
v -0.029863 2.002806 -0.019521
v 0.059945 1.605434 -0.003294
v -0.401099 1.846309 -0.138661
v -0.399630 1.865519 -0.114381
v 0.059945 1.605434 -0.003294
v -0.399630 1.865519 -0.114381
v 0.063442 1.651172 0.054516
v 0.041715 1.604573 0.045594
v 0.059945 1.605434 -0.003294
v 0.063442 1.651172 0.054516
v -0.408755 1.845948 -0.118128
v -0.399630 1.865519 -0.114381
v -0.401099 1.846309 -0.138661
v 0.063442 1.651172 0.054516
v -0.399630 1.865519 -0.114381
v -0.416412 1.845586 -0.097595
v 0.063442 1.651172 0.054516
v -0.416412 1.845586 -0.097595
v 0.023486 1.603712 0.094482
v 0.041715 1.604573 0.045594
v 0.063442 1.651172 0.054516
v 0.023486 1.603712 0.094482
v -0.408755 1.845948 -0.118128
v -0.416412 1.845586 -0.097595
v -0.399630 1.865519 -0.114381
v 0.023486 1.603712 0.094482
v -0.416412 1.845586 -0.097595
v -0.417881 1.826376 -0.121876
v 0.023486 1.603712 0.094482
v -0.417881 1.826376 -0.121876
v 0.019989 1.557974 0.036672
v 0.041715 1.604573 0.045594
v 0.023486 1.603712 0.094482
v 0.019989 1.557974 0.036672
v -0.408755 1.845948 -0.118128
v -0.417881 1.826376 -0.121876
v -0.416412 1.845586 -0.097595
v 0.019989 1.557974 0.036672
v -0.417881 1.826376 -0.121876
v -0.401099 1.846309 -0.138661
v 0.019989 1.557974 0.036672
v -0.401099 1.846309 -0.138661
v 0.059945 1.605434 -0.003294
v 0.041715 1.604573 0.045594
v 0.019989 1.557974 0.036672
v 0.059945 1.605434 -0.003294
v -0.408755 1.845948 -0.118128
v -0.401099 1.846309 -0.138661
v -0.417881 1.826376 -0.121876
v -0.208864 1.747727 -0.069286
v -0.394994 1.876492 -0.209201
v -0.397719 1.884201 -0.199447
v -0.208864 1.747727 -0.069286
v -0.397719 1.884201 -0.199447
v -0.216132 1.768287 -0.043269
v -0.224667 1.747308 -0.051222
v -0.208864 1.747727 -0.069286
v -0.216132 1.768287 -0.043269
v -0.400919 1.876335 -0.202429
v -0.397719 1.884201 -0.199447
v -0.394994 1.876492 -0.209201
v -0.216132 1.768287 -0.043269
v -0.397719 1.884201 -0.199447
v -0.406844 1.876178 -0.195656
v -0.216132 1.768287 -0.043269
v -0.406844 1.876178 -0.195656
v -0.240470 1.746889 -0.033159
v -0.224667 1.747308 -0.051222
v -0.216132 1.768287 -0.043269
v -0.240470 1.746889 -0.033159
v -0.400919 1.876335 -0.202429
v -0.406844 1.876178 -0.195656
v -0.397719 1.884201 -0.199447
v -0.240470 1.746889 -0.033159
v -0.406844 1.876178 -0.195656
v -0.404119 1.868470 -0.205410
v -0.240470 1.746889 -0.033159
v -0.404119 1.868470 -0.205410
v -0.233202 1.726329 -0.059175
v -0.224667 1.747308 -0.051222
v -0.240470 1.746889 -0.033159
v -0.233202 1.726329 -0.059175
v -0.400919 1.876335 -0.202429
v -0.404119 1.868470 -0.205410
v -0.406844 1.876178 -0.195656
v -0.233202 1.726329 -0.059175
v -0.404119 1.868470 -0.205410
v -0.394994 1.876492 -0.209201
v -0.233202 1.726329 -0.059175
v -0.394994 1.876492 -0.209201
v -0.208864 1.747727 -0.069286
v -0.224667 1.747308 -0.051222
v -0.233202 1.726329 -0.059175
v -0.208864 1.747727 -0.069286
v -0.400919 1.876335 -0.202429
v -0.394994 1.876492 -0.209201
v -0.404119 1.868470 -0.205410
v -0.241955 1.769161 -0.073192
v -0.297765 1.830191 -0.194052
v -0.305276 1.838224 -0.187644
v -0.241955 1.769161 -0.073192
v -0.305276 1.838224 -0.187644
v -0.261989 1.790584 -0.056103
v -0.264791 1.768808 -0.065805
v -0.241955 1.769161 -0.073192
v -0.261989 1.790584 -0.056103
v -0.306327 1.830059 -0.191282
v -0.305276 1.838224 -0.187644
v -0.297765 1.830191 -0.194052
v -0.261989 1.790584 -0.056103
v -0.305276 1.838224 -0.187644
v -0.314889 1.829926 -0.188512
v -0.261989 1.790584 -0.056103
v -0.314889 1.829926 -0.188512
v -0.287628 1.768455 -0.058418
v -0.264791 1.768808 -0.065805
v -0.261989 1.790584 -0.056103
v -0.287628 1.768455 -0.058418
v -0.306327 1.830059 -0.191282
v -0.314889 1.829926 -0.188512
v -0.305276 1.838224 -0.187644
v -0.287628 1.768455 -0.058418
v -0.314889 1.829926 -0.188512
v -0.307378 1.821894 -0.194920
v -0.287628 1.768455 -0.058418
v -0.307378 1.821894 -0.194920
v -0.267594 1.747031 -0.075508
v -0.264791 1.768808 -0.065805
v -0.287628 1.768455 -0.058418
v -0.267594 1.747031 -0.075508
v -0.306327 1.830059 -0.191282
v -0.307378 1.821894 -0.194920
v -0.314889 1.829926 -0.188512
v -0.267594 1.747031 -0.075508
v -0.307378 1.821894 -0.194920
v -0.297765 1.830191 -0.194052
v -0.267594 1.747031 -0.075508
v -0.297765 1.830191 -0.194052
v -0.241955 1.769161 -0.073192
v -0.264791 1.768808 -0.065805
v -0.267594 1.747031 -0.075508
v -0.241955 1.769161 -0.073192
v -0.306327 1.830059 -0.191282
v -0.297765 1.830191 -0.194052
v -0.307378 1.821894 -0.194920
v -0.316493 1.790462 -0.101416
v -0.453119 1.868815 -0.008486
v -0.445359 1.876881 -0.002424
v -0.316493 1.790462 -0.101416
v -0.445359 1.876881 -0.002424
v -0.295797 1.811974 -0.085249
v -0.304916 1.790308 -0.080388
v -0.316493 1.790462 -0.101416
v -0.295797 1.811974 -0.085249
v -0.448778 1.868757 -0.000602
v -0.445359 1.876881 -0.002424
v -0.453119 1.868815 -0.008486
v -0.295797 1.811974 -0.085249
v -0.445359 1.876881 -0.002424
v -0.444437 1.868699 0.007282
v -0.295797 1.811974 -0.085249
v -0.444437 1.868699 0.007282
v -0.293338 1.790153 -0.059361
v -0.304916 1.790308 -0.080388
v -0.295797 1.811974 -0.085249
v -0.293338 1.790153 -0.059361
v -0.448778 1.868757 -0.000602
v -0.444437 1.868699 0.007282
v -0.445359 1.876881 -0.002424
v -0.293338 1.790153 -0.059361
v -0.444437 1.868699 0.007282
v -0.452197 1.860634 0.001221
v -0.293338 1.790153 -0.059361
v -0.452197 1.860634 0.001221
v -0.314035 1.768641 -0.075527
v -0.304916 1.790308 -0.080388
v -0.293338 1.790153 -0.059361
v -0.314035 1.768641 -0.075527
v -0.448778 1.868757 -0.000602
v -0.452197 1.860634 0.001221
v -0.444437 1.868699 0.007282
v -0.314035 1.768641 -0.075527
v -0.452197 1.860634 0.001221
v -0.453119 1.868815 -0.008486
v -0.314035 1.768641 -0.075527
v -0.453119 1.868815 -0.008486
v -0.316493 1.790462 -0.101416
v -0.304916 1.790308 -0.080388
v -0.314035 1.768641 -0.075527
v -0.316493 1.790462 -0.101416
v -0.448778 1.868757 -0.000602
v -0.453119 1.868815 -0.008486
v -0.452197 1.860634 0.001221
v 0.097008 1.712895 0.055334
v 0.201932 1.842671 -0.462543
v 0.179254 1.863791 -0.463126
v 0.097008 1.712895 0.055334
v 0.179254 1.863791 -0.463126
v 0.043012 1.763181 0.053946
v 0.046566 1.712516 0.041969
v 0.097008 1.712895 0.055334
v 0.043012 1.763181 0.053946
v 0.180747 1.842512 -0.468156
v 0.179254 1.863791 -0.463126
v 0.201932 1.842671 -0.462543
v 0.043012 1.763181 0.053946
v 0.179254 1.863791 -0.463126
v 0.159561 1.842352 -0.473769
v 0.043012 1.763181 0.053946
v 0.159561 1.842352 -0.473769
v -0.003875 1.712136 0.028605
v 0.046566 1.712516 0.041969
v 0.043012 1.763181 0.053946
v -0.003875 1.712136 0.028605
v 0.180747 1.842512 -0.468156
v 0.159561 1.842352 -0.473769
v 0.179254 1.863791 -0.463126
v -0.003875 1.712136 0.028605
v 0.159561 1.842352 -0.473769
v 0.182239 1.821232 -0.473186
v -0.003875 1.712136 0.028605
v 0.182239 1.821232 -0.473186
v 0.050120 1.661850 0.029993
v 0.046566 1.712516 0.041969
v -0.003875 1.712136 0.028605
v 0.050120 1.661850 0.029993
v 0.180747 1.842512 -0.468156
v 0.182239 1.821232 -0.473186
v 0.159561 1.842352 -0.473769
v 0.050120 1.661850 0.029993
v 0.182239 1.821232 -0.473186
v 0.201932 1.842671 -0.462543
v 0.050120 1.661850 0.029993
v 0.201932 1.842671 -0.462543
v 0.097008 1.712895 0.055334
v 0.046566 1.712516 0.041969
v 0.050120 1.661850 0.029993
v 0.097008 1.712895 0.055334
v 0.180747 1.842512 -0.468156
v 0.201932 1.842671 -0.462543
v 0.182239 1.821232 -0.473186
v 0.134731 1.775007 -0.203625
v 0.106582 1.879488 -0.394611
v 0.097773 1.887285 -0.389754
v 0.134731 1.775007 -0.203625
v 0.097773 1.887285 -0.389754
v 0.111235 1.795805 -0.190670
v 0.110774 1.774721 -0.202136
v 0.134731 1.775007 -0.203625
v 0.111235 1.795805 -0.190670
v 0.097600 1.879381 -0.394053
v 0.097773 1.887285 -0.389754
v 0.106582 1.879488 -0.394611
v 0.111235 1.795805 -0.190670
v 0.097773 1.887285 -0.389754
v 0.088618 1.879274 -0.393494
v 0.111235 1.795805 -0.190670
v 0.088618 1.879274 -0.393494
v 0.086818 1.774436 -0.200647
v 0.110774 1.774721 -0.202136
v 0.111235 1.795805 -0.190670
v 0.086818 1.774436 -0.200647
v 0.097600 1.879381 -0.394053
v 0.088618 1.879274 -0.393494
v 0.097773 1.887285 -0.389754
v 0.086818 1.774436 -0.200647
v 0.088618 1.879274 -0.393494
v 0.097427 1.871476 -0.398352
v 0.086818 1.774436 -0.200647
v 0.097427 1.871476 -0.398352
v 0.110313 1.753638 -0.213602
v 0.110774 1.774721 -0.202136
v 0.086818 1.774436 -0.200647
v 0.110313 1.753638 -0.213602
v 0.097600 1.879381 -0.394053
v 0.097427 1.871476 -0.398352
v 0.088618 1.879274 -0.393494
v 0.110313 1.753638 -0.213602
v 0.097427 1.871476 -0.398352
v 0.106582 1.879488 -0.394611
v 0.110313 1.753638 -0.213602
v 0.106582 1.879488 -0.394611
v 0.134731 1.775007 -0.203625
v 0.110774 1.774721 -0.202136
v 0.110313 1.753638 -0.213602
v 0.134731 1.775007 -0.203625
v 0.097600 1.879381 -0.394053
v 0.106582 1.879488 -0.394611
v 0.097427 1.871476 -0.398352
v 0.144050 1.786388 -0.236553
v 0.232243 1.913438 -0.440892
v 0.222169 1.921216 -0.441064
v 0.144050 1.786388 -0.236553
v 0.222169 1.921216 -0.441064
v 0.117182 1.807132 -0.237014
v 0.122726 1.786300 -0.247574
v 0.144050 1.786388 -0.236553
v 0.117182 1.807132 -0.237014
v 0.224248 1.913405 -0.445024
v 0.222169 1.921216 -0.441064
v 0.232243 1.913438 -0.440892
v 0.117182 1.807132 -0.237014
v 0.222169 1.921216 -0.441064
v 0.216252 1.913372 -0.449156
v 0.117182 1.807132 -0.237014
v 0.216252 1.913372 -0.449156
v 0.101401 1.786212 -0.258595
v 0.122726 1.786300 -0.247574
v 0.117182 1.807132 -0.237014
v 0.101401 1.786212 -0.258595
v 0.224248 1.913405 -0.445024
v 0.216252 1.913372 -0.449156
v 0.222169 1.921216 -0.441064
v 0.101401 1.786212 -0.258595
v 0.216252 1.913372 -0.449156
v 0.226326 1.905595 -0.448983
v 0.101401 1.786212 -0.258595
v 0.226326 1.905595 -0.448983
v 0.128269 1.765468 -0.258134
v 0.122726 1.786300 -0.247574
v 0.101401 1.786212 -0.258595
v 0.128269 1.765468 -0.258134
v 0.224248 1.913405 -0.445024
v 0.226326 1.905595 -0.448983
v 0.216252 1.913372 -0.449156
v 0.128269 1.765468 -0.258134
v 0.226326 1.905595 -0.448983
v 0.232243 1.913438 -0.440892
v 0.128269 1.765468 -0.258134
v 0.232243 1.913438 -0.440892
v 0.144050 1.786388 -0.236553
v 0.122726 1.786300 -0.247574
v 0.128269 1.765468 -0.258134
v 0.144050 1.786388 -0.236553
v 0.224248 1.913405 -0.445024
v 0.232243 1.913438 -0.440892
v 0.226326 1.905595 -0.448983
v 0.043093 1.819672 0.089854
v 0.402529 1.982400 0.119766
v 0.397077 2.002705 0.096991
v 0.043093 1.819672 0.089854
v 0.397077 2.002705 0.096991
v 0.030112 1.868017 0.035628
v 0.051417 1.820459 0.038345
v 0.043093 1.819672 0.089854
v 0.030112 1.868017 0.035628
v 0.406025 1.982730 0.098132
v 0.397077 2.002705 0.096991
v 0.402529 1.982400 0.119766
v 0.030112 1.868017 0.035628
v 0.397077 2.002705 0.096991
v 0.409521 1.983060 0.076498
v 0.030112 1.868017 0.035628
v 0.409521 1.983060 0.076498
v 0.059742 1.821245 -0.013164
v 0.051417 1.820459 0.038345
v 0.030112 1.868017 0.035628
v 0.059742 1.821245 -0.013164
v 0.406025 1.982730 0.098132
v 0.409521 1.983060 0.076498
v 0.397077 2.002705 0.096991
v 0.059742 1.821245 -0.013164
v 0.409521 1.983060 0.076498
v 0.414973 1.962755 0.099273
v 0.059742 1.821245 -0.013164
v 0.414973 1.962755 0.099273
v 0.072722 1.772900 0.041062
v 0.051417 1.820459 0.038345
v 0.059742 1.821245 -0.013164
v 0.072722 1.772900 0.041062
v 0.406025 1.982730 0.098132
v 0.414973 1.962755 0.099273
v 0.409521 1.983060 0.076498
v 0.072722 1.772900 0.041062
v 0.414973 1.962755 0.099273
v 0.402529 1.982400 0.119766
v 0.072722 1.772900 0.041062
v 0.402529 1.982400 0.119766
v 0.043093 1.819672 0.089854
v 0.051417 1.820459 0.038345
v 0.072722 1.772900 0.041062
v 0.043093 1.819672 0.089854
v 0.406025 1.982730 0.098132
v 0.402529 1.982400 0.119766
v 0.414973 1.962755 0.099273
v 0.333794 1.941454 0.098887
v 0.424825 2.019640 -0.025914
v 0.415394 2.027668 -0.028846
v 0.333794 1.941454 0.098887
v 0.415394 2.027668 -0.028846
v 0.308640 1.962867 0.091068
v 0.315861 1.941470 0.082930
v 0.333794 1.941454 0.098887
v 0.308640 1.962867 0.091068
v 0.418101 2.019646 -0.031897
v 0.415394 2.027668 -0.028846
v 0.424825 2.019640 -0.025914
v 0.308640 1.962867 0.091068
v 0.415394 2.027668 -0.028846
v 0.411377 2.019652 -0.037879
v 0.308640 1.962867 0.091068
v 0.411377 2.019652 -0.037879
v 0.297928 1.941486 0.066974
v 0.315861 1.941470 0.082930
v 0.308640 1.962867 0.091068
v 0.297928 1.941486 0.066974
v 0.418101 2.019646 -0.031897
v 0.411377 2.019652 -0.037879
v 0.415394 2.027668 -0.028846
v 0.297928 1.941486 0.066974
v 0.411377 2.019652 -0.037879
v 0.420809 2.011623 -0.034948
v 0.297928 1.941486 0.066974
v 0.420809 2.011623 -0.034948
v 0.323082 1.920073 0.074793
v 0.315861 1.941470 0.082930
v 0.297928 1.941486 0.066974
v 0.323082 1.920073 0.074793
v 0.418101 2.019646 -0.031897
v 0.420809 2.011623 -0.034948
v 0.411377 2.019652 -0.037879
v 0.323082 1.920073 0.074793
v 0.420809 2.011623 -0.034948
v 0.424825 2.019640 -0.025914
v 0.323082 1.920073 0.074793
v 0.424825 2.019640 -0.025914
v 0.333794 1.941454 0.098887
v 0.315861 1.941470 0.082930
v 0.323082 1.920073 0.074793
v 0.333794 1.941454 0.098887
v 0.418101 2.019646 -0.031897
v 0.424825 2.019640 -0.025914
v 0.420809 2.011623 -0.034948
v 0.219881 1.894026 0.088432
v 0.391316 1.993446 0.019799
v 0.384565 2.001453 0.012567
v 0.219881 1.894026 0.088432
v 0.384565 2.001453 0.012567
v 0.201874 1.915383 0.069143
v 0.212682 1.894255 0.065534
v 0.219881 1.894026 0.088432
v 0.201874 1.915383 0.069143
v 0.388617 1.993532 0.011214
v 0.384565 2.001453 0.012567
v 0.391316 1.993446 0.019799
v 0.201874 1.915383 0.069143
v 0.384565 2.001453 0.012567
v 0.385918 1.993617 0.002629
v 0.201874 1.915383 0.069143
v 0.385918 1.993617 0.002629
v 0.205483 1.894483 0.042636
v 0.212682 1.894255 0.065534
v 0.201874 1.915383 0.069143
v 0.205483 1.894483 0.042636
v 0.388617 1.993532 0.011214
v 0.385918 1.993617 0.002629
v 0.384565 2.001453 0.012567
v 0.205483 1.894483 0.042636
v 0.385918 1.993617 0.002629
v 0.392669 1.985610 0.009861
v 0.205483 1.894483 0.042636
v 0.392669 1.985610 0.009861
v 0.223490 1.873127 0.061925
v 0.212682 1.894255 0.065534
v 0.205483 1.894483 0.042636
v 0.223490 1.873127 0.061925
v 0.388617 1.993532 0.011214
v 0.392669 1.985610 0.009861
v 0.385918 1.993617 0.002629
v 0.223490 1.873127 0.061925
v 0.392669 1.985610 0.009861
v 0.391316 1.993446 0.019799
v 0.223490 1.873127 0.061925
v 0.391316 1.993446 0.019799
v 0.219881 1.894026 0.088432
v 0.212682 1.894255 0.065534
v 0.223490 1.873127 0.061925
v 0.219881 1.894026 0.088432
v 0.388617 1.993532 0.011214
v 0.391316 1.993446 0.019799
v 0.392669 1.985610 0.009861
f 1 2 3
f 4 5 6
f 7 8 9
f 10 11 12
f 13 14 15
f 16 17 18
f 19 20 21
f 22 23 24
f 25 26 27
f 28 29 30
f 31 32 33
f 34 35 36
f 37 38 39
f 40 41 42
f 43 44 45
f 46 47 48
f 49 50 51
f 52 53 54
f 55 56 57
f 58 59 60
f 61 62 63
f 64 65 66
f 67 68 69
f 70 71 72
f 73 74 75
f 76 77 78
f 79 80 81
f 82 83 84
f 85 86 87
f 88 89 90
f 91 92 93
f 94 95 96
f 97 98 99
f 100 101 102
f 103 104 105
f 106 107 108
f 109 110 111
f 112 113 114
f 115 116 117
f 118 119 120
f 121 122 123
f 124 125 126
f 127 128 129
f 130 131 132
f 133 134 135
f 136 137 138
f 139 140 141
f 142 143 144
f 145 146 147
f 148 149 150
f 151 152 153
f 154 155 156
f 157 158 159
f 160 161 162
f 163 164 165
f 166 167 168
f 169 170 171
f 172 173 174
f 175 176 177
f 178 179 180
f 181 182 183
f 184 185 186
f 187 188 189
f 190 191 192
f 193 194 195
f 196 197 198
f 199 200 201
f 202 203 204
f 205 206 207
f 208 209 210
f 211 212 213
f 214 215 216
f 217 218 219
f 220 221 222
f 223 224 225
f 226 227 228
f 229 230 231
f 232 233 234
f 235 236 237
f 238 239 240
f 241 242 243
f 244 245 246
f 247 248 249
f 250 251 252
f 253 254 255
f 256 257 258
f 259 260 261
f 262 263 264
f 265 266 267
f 268 269 270
f 271 272 273
f 274 275 276
f 277 278 279
f 280 281 282
f 283 284 285
f 286 287 288
f 289 290 291
f 292 293 294
f 295 296 297
f 298 299 300
f 301 302 303
f 304 305 306
f 307 308 309
f 310 311 312
f 313 314 315
f 316 317 318
f 319 320 321
f 322 323 324
f 325 326 327
f 328 329 330
f 331 332 333
f 334 335 336
f 337 338 339
f 340 341 342
f 343 344 345
f 346 347 348
f 349 350 351
f 352 353 354
f 355 356 357
f 358 359 360
f 361 362 363
f 364 365 366
f 367 368 369
f 370 371 372
f 373 374 375
f 376 377 378
f 379 380 381
f 382 383 384
f 385 386 387
f 388 389 390
f 391 392 393
f 394 395 396
f 397 398 399
f 400 401 402
f 403 404 405
f 406 407 408
f 409 410 411
f 412 413 414
f 415 416 417
f 418 419 420
f 421 422 423
f 424 425 426
f 427 428 429
f 430 431 432
f 433 434 435
f 436 437 438
f 439 440 441
f 442 443 444
f 445 446 447
f 448 449 450
f 451 452 453
f 454 455 456
f 457 458 459
f 460 461 462
f 463 464 465
f 466 467 468
f 469 470 471
f 472 473 474
f 475 476 477
f 478 479 480
f 481 482 483
f 484 485 486
f 487 488 489
f 490 491 492
f 493 494 495
f 496 497 498
f 499 500 501
f 502 503 504
f 505 506 507
f 508 509 510
f 511 512 513
f 514 515 516
f 517 518 519
f 520 521 522
f 523 524 525
f 526 527 528
f 529 530 531
f 532 533 534
f 535 536 537
f 538 539 540
f 541 542 543
f 544 545 546
f 547 548 549
f 550 551 552
f 553 554 555
f 556 557 558
f 559 560 561
f 562 563 564
f 565 566 567
f 568 569 570
f 571 572 573
f 574 575 576
f 577 578 579
f 580 581 582
f 583 584 585
f 586 587 588
f 589 590 591
f 592 593 594
f 595 596 597
f 598 599 600
f 601 602 603
f 604 605 606
f 607 608 609
f 610 611 612
f 613 614 615
f 616 617 618
f 619 620 621
f 622 623 624
f 625 626 627
f 628 629 630
f 631 632 633
f 634 635 636
f 637 638 639
f 640 641 642
f 643 644 645
f 646 647 648
f 649 650 651
f 652 653 654
f 655 656 657
f 658 659 660
f 661 662 663
f 664 665 666
f 667 668 669
f 670 671 672
f 673 674 675
f 676 677 678
f 679 680 681
f 682 683 684
f 685 686 687
f 688 689 690
f 691 692 693
f 694 695 696
f 697 698 699
f 700 701 702
f 703 704 705
f 706 707 708
f 709 710 711
f 712 713 714
f 715 716 717
f 718 719 720
f 721 722 723
f 724 725 726
f 727 728 729
f 730 731 732

o TreeFoliage
v 0.061274 1.841468 0.030155
v 0.233173 1.919257 0.031203
v 0.182579 1.917097 0.149818
v 0.061274 1.841468 0.030155
v 0.182579 1.917097 0.149818
v 0.061274 1.841468 0.030155
v 0.061274 1.841468 0.030155
v 0.182579 1.917097 0.149818
v 0.060432 1.915081 0.198935
v 0.061274 1.841468 0.030155
v 0.060432 1.915081 0.198935
v 0.061274 1.841468 0.030155
v 0.061274 1.841468 0.030155
v 0.060432 1.915081 0.198935
v -0.061714 1.914389 0.149782
v 0.061274 1.841468 0.030155
v -0.061714 1.914389 0.149782
v 0.061274 1.841468 0.030155
v 0.061274 1.841468 0.030155
v -0.061714 1.914389 0.149782
v -0.112309 1.915426 0.031152
v 0.061274 1.841468 0.030155
v -0.112309 1.915426 0.031152
v 0.061274 1.841468 0.030155
v 0.061274 1.841468 0.030155
v -0.112309 1.915426 0.031152
v -0.061714 1.917585 -0.087463
v 0.061274 1.841468 0.030155
v -0.061714 1.917585 -0.087463
v 0.061274 1.841468 0.030155
v 0.061274 1.841468 0.030155
v -0.061714 1.917585 -0.087463
v 0.060432 1.919601 -0.136580
v 0.061274 1.841468 0.030155
v 0.060432 1.919601 -0.136580
v 0.061274 1.841468 0.030155
v 0.061274 1.841468 0.030155
v 0.060432 1.919601 -0.136580
v 0.182579 1.920294 -0.087426
v 0.061274 1.841468 0.030155
v 0.182579 1.920294 -0.087426
v 0.061274 1.841468 0.030155
v 0.061274 1.841468 0.030155
v 0.182579 1.920294 -0.087426
v 0.233173 1.919257 0.031203
v 0.061274 1.841468 0.030155
v 0.233173 1.919257 0.031203
v 0.061274 1.841468 0.030155
v 0.233173 1.919257 0.031203
v 0.302694 2.103223 0.033682
v 0.231142 2.100169 0.201429
v 0.233173 1.919257 0.031203
v 0.231142 2.100169 0.201429
v 0.182579 1.917097 0.149818
v 0.182579 1.917097 0.149818
v 0.231142 2.100169 0.201429
v 0.058401 2.097317 0.270890
v 0.182579 1.917097 0.149818
v 0.058401 2.097317 0.270890
v 0.060432 1.915081 0.198935
v 0.060432 1.915081 0.198935
v 0.058401 2.097317 0.270890
v -0.114340 2.096338 0.201377
v 0.060432 1.915081 0.198935
v -0.114340 2.096338 0.201377
v -0.061714 1.914389 0.149782
v -0.061714 1.914389 0.149782
v -0.114340 2.096338 0.201377
v -0.185892 2.097805 0.033609
v -0.061714 1.914389 0.149782
v -0.185892 2.097805 0.033609
v -0.112309 1.915426 0.031152
v -0.112309 1.915426 0.031152
v -0.185892 2.097805 0.033609
v -0.114340 2.100859 -0.134137
v -0.112309 1.915426 0.031152
v -0.114340 2.100859 -0.134137
v -0.061714 1.917585 -0.087463
v -0.061714 1.917585 -0.087463
v -0.114340 2.100859 -0.134137
v 0.058401 2.103711 -0.203599
v -0.061714 1.917585 -0.087463
v 0.058401 2.103711 -0.203599
v 0.060432 1.919601 -0.136580
v 0.060432 1.919601 -0.136580
v 0.058401 2.103711 -0.203599
v 0.231142 2.104690 -0.134086
v 0.060432 1.919601 -0.136580
v 0.231142 2.104690 -0.134086
v 0.182579 1.920294 -0.087426
v 0.182579 1.920294 -0.087426
v 0.231142 2.104690 -0.134086
v 0.302694 2.103223 0.033682
v 0.182579 1.920294 -0.087426
v 0.302694 2.103223 0.033682
v 0.233173 1.919257 0.031203
v 0.302694 2.103223 0.033682
v 0.229110 2.285602 0.036139
v 0.178516 2.283443 0.154754
v 0.302694 2.103223 0.033682
v 0.178516 2.283443 0.154754
v 0.231142 2.100169 0.201429
v 0.231142 2.100169 0.201429
v 0.178516 2.283443 0.154754
v 0.056369 2.281427 0.203871
v 0.231142 2.100169 0.201429
v 0.056369 2.281427 0.203871
v 0.058401 2.097317 0.270890
v 0.058401 2.097317 0.270890
v 0.056369 2.281427 0.203871
v -0.065777 2.280734 0.154718
v 0.058401 2.097317 0.270890
v -0.065777 2.280734 0.154718
v -0.114340 2.096338 0.201377
v -0.114340 2.096338 0.201377
v -0.065777 2.280734 0.154718
v -0.116372 2.281771 0.036088
v -0.114340 2.096338 0.201377
v -0.116372 2.281771 0.036088
v -0.185892 2.097805 0.033609
v -0.185892 2.097805 0.033609
v -0.116372 2.281771 0.036088
v -0.065777 2.283931 -0.082527
v -0.185892 2.097805 0.033609
v -0.065777 2.283931 -0.082527
v -0.114340 2.100859 -0.134137
v -0.114340 2.100859 -0.134137
v -0.065777 2.283931 -0.082527
v 0.056369 2.285947 -0.131644
v -0.114340 2.100859 -0.134137
v 0.056369 2.285947 -0.131644
v 0.058401 2.103711 -0.203599
v 0.058401 2.103711 -0.203599
v 0.056369 2.285947 -0.131644
v 0.178516 2.286640 -0.082490
v 0.058401 2.103711 -0.203599
v 0.178516 2.286640 -0.082490
v 0.231142 2.104690 -0.134086
v 0.231142 2.104690 -0.134086
v 0.178516 2.286640 -0.082490
v 0.229110 2.285602 0.036139
v 0.231142 2.104690 -0.134086
v 0.229110 2.285602 0.036139
v 0.302694 2.103223 0.033682
v 0.229110 2.285602 0.036139
v 0.055528 2.359560 0.037136
v 0.055528 2.359560 0.037136
v 0.229110 2.285602 0.036139
v 0.055528 2.359560 0.037136
v 0.178516 2.283443 0.154754
v 0.178516 2.283443 0.154754
v 0.055528 2.359560 0.037136
v 0.055528 2.359560 0.037136
v 0.178516 2.283443 0.154754
v 0.055528 2.359560 0.037136
v 0.056369 2.281427 0.203871
v 0.056369 2.281427 0.203871
v 0.055528 2.359560 0.037136
v 0.055528 2.359560 0.037136
v 0.056369 2.281427 0.203871
v 0.055528 2.359560 0.037136
v -0.065777 2.280734 0.154718
v -0.065777 2.280734 0.154718
v 0.055528 2.359560 0.037136
v 0.055528 2.359560 0.037136
v -0.065777 2.280734 0.154718
v 0.055528 2.359560 0.037136
v -0.116372 2.281771 0.036088
v -0.116372 2.281771 0.036088
v 0.055528 2.359560 0.037136
v 0.055528 2.359560 0.037136
v -0.116372 2.281771 0.036088
v 0.055528 2.359560 0.037136
v -0.065777 2.283931 -0.082527
v -0.065777 2.283931 -0.082527
v 0.055528 2.359560 0.037136
v 0.055528 2.359560 0.037136
v -0.065777 2.283931 -0.082527
v 0.055528 2.359560 0.037136
v 0.056369 2.285947 -0.131644
v 0.056369 2.285947 -0.131644
v 0.055528 2.359560 0.037136
v 0.055528 2.359560 0.037136
v 0.056369 2.285947 -0.131644
v 0.055528 2.359560 0.037136
v 0.178516 2.286640 -0.082490
v 0.178516 2.286640 -0.082490
v 0.055528 2.359560 0.037136
v 0.055528 2.359560 0.037136
v 0.178516 2.286640 -0.082490
v 0.055528 2.359560 0.037136
v 0.229110 2.285602 0.036139
v 0.288487 1.611153 -0.252963
v 0.480191 1.696713 -0.251810
v 0.423771 1.694201 -0.111877
v 0.288487 1.611153 -0.252963
v 0.423771 1.694201 -0.111877
v 0.288487 1.611153 -0.252963
v 0.288487 1.611153 -0.252963
v 0.423771 1.694201 -0.111877
v 0.287561 1.691910 -0.053931
v 0.288487 1.611153 -0.252963
v 0.287561 1.691910 -0.053931
v 0.288487 1.611153 -0.252963
v 0.288487 1.611153 -0.252963
v 0.287561 1.691910 -0.053931
v 0.151352 1.691181 -0.111917
v 0.288487 1.611153 -0.252963
v 0.151352 1.691181 -0.111917
v 0.288487 1.611153 -0.252963
v 0.288487 1.611153 -0.252963
v 0.151352 1.691181 -0.111917
v 0.094932 1.692441 -0.251868
v 0.288487 1.611153 -0.252963
v 0.094932 1.692441 -0.251868
v 0.288487 1.611153 -0.252963
v 0.288487 1.611153 -0.252963
v 0.094932 1.692441 -0.251868
v 0.151352 1.694952 -0.391802
v 0.288487 1.611153 -0.252963
v 0.151352 1.694952 -0.391802
v 0.288487 1.611153 -0.252963
v 0.288487 1.611153 -0.252963
v 0.151352 1.694952 -0.391802
v 0.287561 1.697243 -0.449747
v 0.288487 1.611153 -0.252963
v 0.287561 1.697243 -0.449747
v 0.288487 1.611153 -0.252963
v 0.288487 1.611153 -0.252963
v 0.287561 1.697243 -0.449747
v 0.423771 1.697973 -0.391761
v 0.288487 1.611153 -0.252963
v 0.423771 1.697973 -0.391761
v 0.288487 1.611153 -0.252963
v 0.288487 1.611153 -0.252963
v 0.423771 1.697973 -0.391761
v 0.480191 1.696713 -0.251810
v 0.288487 1.611153 -0.252963
v 0.480191 1.696713 -0.251810
v 0.288487 1.611153 -0.252963
v 0.480191 1.696713 -0.251810
v 0.557747 1.899000 -0.249085
v 0.477957 1.895448 -0.051189
v 0.480191 1.696713 -0.251810
v 0.477957 1.895448 -0.051189
v 0.423771 1.694201 -0.111877
v 0.423771 1.694201 -0.111877
v 0.477957 1.895448 -0.051189
v 0.285328 1.892208 0.030759
v 0.423771 1.694201 -0.111877
v 0.285328 1.892208 0.030759
v 0.287561 1.691910 -0.053931
v 0.287561 1.691910 -0.053931
v 0.285328 1.892208 0.030759
v 0.092698 1.891176 -0.051246
v 0.287561 1.691910 -0.053931
v 0.092698 1.891176 -0.051246
v 0.151352 1.691181 -0.111917
v 0.151352 1.691181 -0.111917
v 0.092698 1.891176 -0.051246
v 0.012909 1.892958 -0.249166
v 0.151352 1.691181 -0.111917
v 0.012909 1.892958 -0.249166
v 0.094932 1.692441 -0.251868
v 0.094932 1.692441 -0.251868
v 0.012909 1.892958 -0.249166
v 0.092698 1.896510 -0.447062
v 0.094932 1.692441 -0.251868
v 0.092698 1.896510 -0.447062
v 0.151352 1.694952 -0.391802
v 0.151352 1.694952 -0.391802
v 0.092698 1.896510 -0.447062
v 0.285328 1.899750 -0.529010
v 0.151352 1.694952 -0.391802
v 0.285328 1.899750 -0.529010
v 0.287561 1.697243 -0.449747
v 0.287561 1.697243 -0.449747
v 0.285328 1.899750 -0.529010
v 0.477957 1.900781 -0.447005
v 0.287561 1.697243 -0.449747
v 0.477957 1.900781 -0.447005
v 0.423771 1.697973 -0.391761
v 0.423771 1.697973 -0.391761
v 0.477957 1.900781 -0.447005
v 0.557747 1.899000 -0.249085
v 0.423771 1.697973 -0.391761
v 0.557747 1.899000 -0.249085
v 0.480191 1.696713 -0.251810
v 0.557747 1.899000 -0.249085
v 0.475724 2.099517 -0.246383
v 0.419304 2.097006 -0.106449
v 0.557747 1.899000 -0.249085
v 0.419304 2.097006 -0.106449
v 0.477957 1.895448 -0.051189
v 0.477957 1.895448 -0.051189
v 0.419304 2.097006 -0.106449
v 0.283094 2.094714 -0.048504
v 0.477957 1.895448 -0.051189
v 0.283094 2.094714 -0.048504
v 0.285328 1.892208 0.030759
v 0.285328 1.892208 0.030759
v 0.283094 2.094714 -0.048504
v 0.146885 2.093985 -0.106490
v 0.285328 1.892208 0.030759
v 0.146885 2.093985 -0.106490
v 0.092698 1.891176 -0.051246
v 0.092698 1.891176 -0.051246
v 0.146885 2.093985 -0.106490
v 0.090465 2.095245 -0.246441
v 0.092698 1.891176 -0.051246
v 0.090465 2.095245 -0.246441
v 0.012909 1.892958 -0.249166
v 0.012909 1.892958 -0.249166
v 0.090465 2.095245 -0.246441
v 0.146885 2.097756 -0.386374
v 0.012909 1.892958 -0.249166
v 0.146885 2.097756 -0.386374
v 0.092698 1.896510 -0.447062
v 0.092698 1.896510 -0.447062
v 0.146885 2.097756 -0.386374
v 0.283094 2.100047 -0.444320
v 0.092698 1.896510 -0.447062
v 0.283094 2.100047 -0.444320
v 0.285328 1.899750 -0.529010
v 0.285328 1.899750 -0.529010
v 0.283094 2.100047 -0.444320
v 0.419304 2.100777 -0.386333
v 0.285328 1.899750 -0.529010
v 0.419304 2.100777 -0.386333
v 0.477957 1.900781 -0.447005
v 0.477957 1.900781 -0.447005
v 0.419304 2.100777 -0.386333
v 0.475724 2.099517 -0.246383
v 0.477957 1.900781 -0.447005
v 0.475724 2.099517 -0.246383
v 0.557747 1.899000 -0.249085
v 0.475724 2.099517 -0.246383
v 0.282169 2.180804 -0.245288
v 0.282169 2.180804 -0.245288
v 0.475724 2.099517 -0.246383
v 0.282169 2.180804 -0.245288
v 0.419304 2.097006 -0.106449
v 0.419304 2.097006 -0.106449
v 0.282169 2.180804 -0.245288
v 0.282169 2.180804 -0.245288
v 0.419304 2.097006 -0.106449
v 0.282169 2.180804 -0.245288
v 0.283094 2.094714 -0.048504
v 0.283094 2.094714 -0.048504
v 0.282169 2.180804 -0.245288
v 0.282169 2.180804 -0.245288
v 0.283094 2.094714 -0.048504
v 0.282169 2.180804 -0.245288
v 0.146885 2.093985 -0.106490
v 0.146885 2.093985 -0.106490
v 0.282169 2.180804 -0.245288
v 0.282169 2.180804 -0.245288
v 0.146885 2.093985 -0.106490
v 0.282169 2.180804 -0.245288
v 0.090465 2.095245 -0.246441
v 0.090465 2.095245 -0.246441
v 0.282169 2.180804 -0.245288
v 0.282169 2.180804 -0.245288
v 0.090465 2.095245 -0.246441
v 0.282169 2.180804 -0.245288
v 0.146885 2.097756 -0.386374
v 0.146885 2.097756 -0.386374
v 0.282169 2.180804 -0.245288
v 0.282169 2.180804 -0.245288
v 0.146885 2.097756 -0.386374
v 0.282169 2.180804 -0.245288
v 0.283094 2.100047 -0.444320
v 0.283094 2.100047 -0.444320
v 0.282169 2.180804 -0.245288
v 0.282169 2.180804 -0.245288
v 0.283094 2.100047 -0.444320
v 0.282169 2.180804 -0.245288
v 0.419304 2.100777 -0.386333
v 0.419304 2.100777 -0.386333
v 0.282169 2.180804 -0.245288
v 0.282169 2.180804 -0.245288
v 0.419304 2.100777 -0.386333
v 0.282169 2.180804 -0.245288
v 0.475724 2.099517 -0.246383
v 0.223000 1.649788 0.131564
v 0.434509 1.743119 0.132822
v 0.372264 1.740235 0.295657
v 0.223000 1.649788 0.131564
v 0.372264 1.740235 0.295657
v 0.223000 1.649788 0.131564
v 0.223000 1.649788 0.131564
v 0.372264 1.740235 0.295657
v 0.221991 1.737660 0.363086
v 0.223000 1.649788 0.131564
v 0.221991 1.737660 0.363086
v 0.223000 1.649788 0.131564
v 0.223000 1.649788 0.131564
v 0.221991 1.737660 0.363086
v 0.071718 1.736902 0.295612
v 0.223000 1.649788 0.131564
v 0.071718 1.736902 0.295612
v 0.223000 1.649788 0.131564
v 0.223000 1.649788 0.131564
v 0.071718 1.736902 0.295612
v 0.009473 1.738406 0.132758
v 0.223000 1.649788 0.131564
v 0.009473 1.738406 0.132758
v 0.223000 1.649788 0.131564
v 0.223000 1.649788 0.131564
v 0.009473 1.738406 0.132758
v 0.071718 1.741291 -0.030076
v 0.223000 1.649788 0.131564
v 0.071718 1.741291 -0.030076
v 0.223000 1.649788 0.131564
v 0.223000 1.649788 0.131564
v 0.071718 1.741291 -0.030076
v 0.221991 1.743866 -0.097506
v 0.223000 1.649788 0.131564
v 0.221991 1.743866 -0.097506
v 0.223000 1.649788 0.131564
v 0.223000 1.649788 0.131564
v 0.221991 1.743866 -0.097506
v 0.372264 1.744623 -0.030031
v 0.223000 1.649788 0.131564
v 0.372264 1.744623 -0.030031
v 0.223000 1.649788 0.131564
v 0.223000 1.649788 0.131564
v 0.372264 1.744623 -0.030031
v 0.434509 1.743119 0.132822
v 0.223000 1.649788 0.131564
v 0.434509 1.743119 0.132822
v 0.223000 1.649788 0.131564
v 0.434509 1.743119 0.132822
v 0.520101 1.963727 0.135794
v 0.432073 1.959648 0.366077
v 0.434509 1.743119 0.132822
v 0.432073 1.959648 0.366077
v 0.372264 1.740235 0.295657
v 0.372264 1.740235 0.295657
v 0.432073 1.959648 0.366077
v 0.219555 1.956006 0.461437
v 0.372264 1.740235 0.295657
v 0.219555 1.956006 0.461437
v 0.221991 1.737660 0.363086
v 0.221991 1.737660 0.363086
v 0.219555 1.956006 0.461437
v 0.007037 1.954935 0.366014
v 0.221991 1.737660 0.363086
v 0.007037 1.954935 0.366014
v 0.071718 1.736902 0.295612
v 0.071718 1.736902 0.295612
v 0.007037 1.954935 0.366014
v -0.080990 1.957062 0.135705
v 0.071718 1.736902 0.295612
v -0.080990 1.957062 0.135705
v 0.009473 1.738406 0.132758
v 0.009473 1.738406 0.132758
v -0.080990 1.957062 0.135705
v 0.007037 1.961141 -0.094579
v 0.009473 1.738406 0.132758
v 0.007037 1.961141 -0.094579
v 0.071718 1.741291 -0.030076
v 0.071718 1.741291 -0.030076
v 0.007037 1.961141 -0.094579
v 0.219555 1.964783 -0.189939
v 0.071718 1.741291 -0.030076
v 0.219555 1.964783 -0.189939
v 0.221991 1.743866 -0.097506
v 0.221991 1.743866 -0.097506
v 0.219555 1.964783 -0.189939
v 0.432073 1.965854 -0.094515
v 0.221991 1.743866 -0.097506
v 0.432073 1.965854 -0.094515
v 0.372264 1.744623 -0.030031
v 0.372264 1.744623 -0.030031
v 0.432073 1.965854 -0.094515
v 0.520101 1.963727 0.135794
v 0.372264 1.744623 -0.030031
v 0.520101 1.963727 0.135794
v 0.434509 1.743119 0.132822
v 0.520101 1.963727 0.135794
v 0.429637 2.182382 0.138740
v 0.367392 2.179498 0.301575
v 0.520101 1.963727 0.135794
v 0.367392 2.179498 0.301575
v 0.432073 1.959648 0.366077
v 0.432073 1.959648 0.366077
v 0.367392 2.179498 0.301575
v 0.217119 2.176923 0.369005
v 0.432073 1.959648 0.366077
v 0.217119 2.176923 0.369005
v 0.219555 1.956006 0.461437
v 0.219555 1.956006 0.461437
v 0.217119 2.176923 0.369005
v 0.066847 2.176165 0.301530
v 0.219555 1.956006 0.461437
v 0.066847 2.176165 0.301530
v 0.007037 1.954935 0.366014
v 0.007037 1.954935 0.366014
v 0.066847 2.176165 0.301530
v 0.004602 2.177669 0.138677
v 0.007037 1.954935 0.366014
v 0.004602 2.177669 0.138677
v -0.080990 1.957062 0.135705
v -0.080990 1.957062 0.135705
v 0.004602 2.177669 0.138677
v 0.066847 2.180554 -0.024158
v -0.080990 1.957062 0.135705
v 0.066847 2.180554 -0.024158
v 0.007037 1.961141 -0.094579
v 0.007037 1.961141 -0.094579
v 0.066847 2.180554 -0.024158
v 0.217119 2.183129 -0.091587
v 0.007037 1.961141 -0.094579
v 0.217119 2.183129 -0.091587
v 0.219555 1.964783 -0.189939
v 0.219555 1.964783 -0.189939
v 0.217119 2.183129 -0.091587
v 0.367392 2.183886 -0.024113
v 0.219555 1.964783 -0.189939
v 0.367392 2.183886 -0.024113
v 0.432073 1.965854 -0.094515
v 0.432073 1.965854 -0.094515
v 0.367392 2.183886 -0.024113
v 0.429637 2.182382 0.138740
v 0.432073 1.965854 -0.094515
v 0.429637 2.182382 0.138740
v 0.520101 1.963727 0.135794
v 0.429637 2.182382 0.138740
v 0.216110 2.271000 0.139935
v 0.216110 2.271000 0.139935
v 0.429637 2.182382 0.138740
v 0.216110 2.271000 0.139935
v 0.367392 2.179498 0.301575
v 0.367392 2.179498 0.301575
v 0.216110 2.271000 0.139935
v 0.216110 2.271000 0.139935
v 0.367392 2.179498 0.301575
v 0.216110 2.271000 0.139935
v 0.217119 2.176923 0.369005
v 0.217119 2.176923 0.369005
v 0.216110 2.271000 0.139935
v 0.216110 2.271000 0.139935
v 0.217119 2.176923 0.369005
v 0.216110 2.271000 0.139935
v 0.066847 2.176165 0.301530
v 0.066847 2.176165 0.301530
v 0.216110 2.271000 0.139935
v 0.216110 2.271000 0.139935
v 0.066847 2.176165 0.301530
v 0.216110 2.271000 0.139935
v 0.004602 2.177669 0.138677
v 0.004602 2.177669 0.138677
v 0.216110 2.271000 0.139935
v 0.216110 2.271000 0.139935
v 0.004602 2.177669 0.138677
v 0.216110 2.271000 0.139935
v 0.066847 2.180554 -0.024158
v 0.066847 2.180554 -0.024158
v 0.216110 2.271000 0.139935
v 0.216110 2.271000 0.139935
v 0.066847 2.180554 -0.024158
v 0.216110 2.271000 0.139935
v 0.217119 2.183129 -0.091587
v 0.217119 2.183129 -0.091587
v 0.216110 2.271000 0.139935
v 0.216110 2.271000 0.139935
v 0.217119 2.183129 -0.091587
v 0.216110 2.271000 0.139935
v 0.367392 2.183886 -0.024113
v 0.367392 2.183886 -0.024113
v 0.216110 2.271000 0.139935
v 0.216110 2.271000 0.139935
v 0.367392 2.183886 -0.024113
v 0.216110 2.271000 0.139935
v 0.429637 2.182382 0.138740
v -0.048733 1.689818 0.242902
v 0.182580 1.790920 0.244264
v 0.114510 1.788172 0.392139
v -0.048733 1.689818 0.242902
v 0.114510 1.788172 0.392139
v -0.048733 1.689818 0.242902
v -0.048733 1.689818 0.242902
v 0.114510 1.788172 0.392139
v -0.049826 1.785525 0.453370
v -0.048733 1.689818 0.242902
v -0.049826 1.785525 0.453370
v -0.048733 1.689818 0.242902
v -0.048733 1.689818 0.242902
v -0.049826 1.785525 0.453370
v -0.214162 1.784528 0.392090
v -0.048733 1.689818 0.242902
v -0.214162 1.784528 0.392090
v -0.048733 1.689818 0.242902
v -0.048733 1.689818 0.242902
v -0.214162 1.784528 0.392090
v -0.282232 1.785766 0.244195
v -0.048733 1.689818 0.242902
v -0.282232 1.785766 0.244195
v -0.048733 1.689818 0.242902
v -0.048733 1.689818 0.242902
v -0.282232 1.785766 0.244195
v -0.214162 1.788513 0.096320
v -0.048733 1.689818 0.242902
v -0.214162 1.788513 0.096320
v -0.048733 1.689818 0.242902
v -0.048733 1.689818 0.242902
v -0.214162 1.788513 0.096320
v -0.049826 1.791161 0.035089
v -0.048733 1.689818 0.242902
v -0.049826 1.791161 0.035089
v -0.048733 1.689818 0.242902
v -0.048733 1.689818 0.242902
v -0.049826 1.791161 0.035089
v 0.114510 1.792157 0.096369
v -0.048733 1.689818 0.242902
v 0.114510 1.792157 0.096369
v -0.048733 1.689818 0.242902
v -0.048733 1.689818 0.242902
v 0.114510 1.792157 0.096369
v 0.182580 1.790920 0.244264
v -0.048733 1.689818 0.242902
v 0.182580 1.790920 0.244264
v -0.048733 1.689818 0.242902
v 0.182580 1.790920 0.244264
v 0.276208 2.029848 0.247483
v 0.179942 2.025962 0.456610
v 0.182580 1.790920 0.244264
v 0.179942 2.025962 0.456610
v 0.114510 1.788172 0.392139
v 0.114510 1.788172 0.392139
v 0.179942 2.025962 0.456610
v -0.052464 2.022218 0.543204
v 0.114510 1.788172 0.392139
v -0.052464 2.022218 0.543204
v -0.049826 1.785525 0.453370
v -0.049826 1.785525 0.453370
v -0.052464 2.022218 0.543204
v -0.284870 2.020808 0.456540
v -0.049826 1.785525 0.453370
v -0.284870 2.020808 0.456540
v -0.214162 1.784528 0.392090
v -0.214162 1.784528 0.392090
v -0.284870 2.020808 0.456540
v -0.381136 2.022559 0.247385
v -0.214162 1.784528 0.392090
v -0.381136 2.022559 0.247385
v -0.282232 1.785766 0.244195
v -0.282232 1.785766 0.244195
v -0.381136 2.022559 0.247385
v -0.284870 2.026444 0.038259
v -0.282232 1.785766 0.244195
v -0.284870 2.026444 0.038259
v -0.214162 1.788513 0.096320
v -0.214162 1.788513 0.096320
v -0.284870 2.026444 0.038259
v -0.052464 2.030189 -0.048335
v -0.214162 1.788513 0.096320
v -0.052464 2.030189 -0.048335
v -0.049826 1.791161 0.035089
v -0.049826 1.791161 0.035089
v -0.052464 2.030189 -0.048335
v 0.179942 2.031598 0.038328
v -0.049826 1.791161 0.035089
v 0.179942 2.031598 0.038328
v 0.114510 1.792157 0.096369
v 0.114510 1.792157 0.096369
v 0.179942 2.031598 0.038328
v 0.276208 2.029848 0.247483
v 0.114510 1.792157 0.096369
v 0.276208 2.029848 0.247483
v 0.182580 1.790920 0.244264
v 0.276208 2.029848 0.247483
v 0.177304 2.266641 0.250674
v 0.109234 2.263894 0.398549
v 0.276208 2.029848 0.247483
v 0.109234 2.263894 0.398549
v 0.179942 2.025962 0.456610
v 0.179942 2.025962 0.456610
v 0.109234 2.263894 0.398549
v -0.055102 2.261246 0.459780
v 0.179942 2.025962 0.456610
v -0.055102 2.261246 0.459780
v -0.052464 2.022218 0.543204
v -0.052464 2.022218 0.543204
v -0.055102 2.261246 0.459780
v -0.219438 2.260249 0.398499
v -0.052464 2.022218 0.543204
v -0.219438 2.260249 0.398499
v -0.284870 2.020808 0.456540
v -0.284870 2.020808 0.456540
v -0.219438 2.260249 0.398499
v -0.287508 2.261487 0.250604
v -0.284870 2.020808 0.456540
v -0.287508 2.261487 0.250604
v -0.381136 2.022559 0.247385
v -0.381136 2.022559 0.247385
v -0.287508 2.261487 0.250604
v -0.219438 2.264234 0.102730
v -0.381136 2.022559 0.247385
v -0.219438 2.264234 0.102730
v -0.284870 2.026444 0.038259
v -0.284870 2.026444 0.038259
v -0.219438 2.264234 0.102730
v -0.055102 2.266882 0.041498
v -0.284870 2.026444 0.038259
v -0.055102 2.266882 0.041498
v -0.052464 2.030189 -0.048335
v -0.052464 2.030189 -0.048335
v -0.055102 2.266882 0.041498
v 0.109234 2.267879 0.102779
v -0.052464 2.030189 -0.048335
v 0.109234 2.267879 0.102779
v 0.179942 2.031598 0.038328
v 0.179942 2.031598 0.038328
v 0.109234 2.267879 0.102779
v 0.177304 2.266641 0.250674
v 0.179942 2.031598 0.038328
v 0.177304 2.266641 0.250674
v 0.276208 2.029848 0.247483
v 0.177304 2.266641 0.250674
v -0.056195 2.362589 0.251967
v -0.056195 2.362589 0.251967
v 0.177304 2.266641 0.250674
v -0.056195 2.362589 0.251967
v 0.109234 2.263894 0.398549
v 0.109234 2.263894 0.398549
v -0.056195 2.362589 0.251967
v -0.056195 2.362589 0.251967
v 0.109234 2.263894 0.398549
v -0.056195 2.362589 0.251967
v -0.055102 2.261246 0.459780
v -0.055102 2.261246 0.459780
v -0.056195 2.362589 0.251967
v -0.056195 2.362589 0.251967
v -0.055102 2.261246 0.459780
v -0.056195 2.362589 0.251967
v -0.219438 2.260249 0.398499
v -0.219438 2.260249 0.398499
v -0.056195 2.362589 0.251967
v -0.056195 2.362589 0.251967
v -0.219438 2.260249 0.398499
v -0.056195 2.362589 0.251967
v -0.287508 2.261487 0.250604
v -0.287508 2.261487 0.250604
v -0.056195 2.362589 0.251967
v -0.056195 2.362589 0.251967
v -0.287508 2.261487 0.250604
v -0.056195 2.362589 0.251967
v -0.219438 2.264234 0.102730
v -0.219438 2.264234 0.102730
v -0.056195 2.362589 0.251967
v -0.056195 2.362589 0.251967
v -0.219438 2.264234 0.102730
v -0.056195 2.362589 0.251967
v -0.055102 2.266882 0.041498
v -0.055102 2.266882 0.041498
v -0.056195 2.362589 0.251967
v -0.056195 2.362589 0.251967
v -0.055102 2.266882 0.041498
v -0.056195 2.362589 0.251967
v 0.109234 2.267879 0.102779
v 0.109234 2.267879 0.102779
v -0.056195 2.362589 0.251967
v -0.056195 2.362589 0.251967
v 0.109234 2.267879 0.102779
v -0.056195 2.362589 0.251967
v 0.177304 2.266641 0.250674
v -0.211316 1.846923 -0.079072
v 0.040159 1.923580 -0.078039
v -0.033736 1.920462 0.092526
v -0.211316 1.846923 -0.079072
v -0.033736 1.920462 0.092526
v -0.211316 1.846923 -0.079072
v -0.211316 1.846923 -0.079072
v -0.033736 1.920462 0.092526
v -0.212135 1.917532 0.163154
v -0.211316 1.846923 -0.079072
v -0.212135 1.917532 0.163154
v -0.211316 1.846923 -0.079072
v -0.211316 1.846923 -0.079072
v -0.212135 1.917532 0.163154
v -0.390534 1.916506 0.092473
v -0.211316 1.846923 -0.079072
v -0.390534 1.916506 0.092473
v -0.211316 1.846923 -0.079072
v -0.211316 1.846923 -0.079072
v -0.390534 1.916506 0.092473
v -0.464429 1.917985 -0.078114
v -0.211316 1.846923 -0.079072
v -0.464429 1.917985 -0.078114
v -0.211316 1.846923 -0.079072
v -0.211316 1.846923 -0.079072
v -0.464429 1.917985 -0.078114
v -0.390534 1.921103 -0.248679
v -0.211316 1.846923 -0.079072
v -0.390534 1.921103 -0.248679
v -0.211316 1.846923 -0.079072
v -0.211316 1.846923 -0.079072
v -0.390534 1.921103 -0.248679
v -0.212135 1.924033 -0.319307
v -0.211316 1.846923 -0.079072
v -0.212135 1.924033 -0.319307
v -0.211316 1.846923 -0.079072
v -0.211316 1.846923 -0.079072
v -0.212135 1.924033 -0.319307
v -0.033736 1.925059 -0.248626
v -0.211316 1.846923 -0.079072
v -0.033736 1.925059 -0.248626
v -0.211316 1.846923 -0.079072
v -0.211316 1.846923 -0.079072
v -0.033736 1.925059 -0.248626
v 0.040159 1.923580 -0.078039
v -0.211316 1.846923 -0.079072
v 0.040159 1.923580 -0.078039
v -0.211316 1.846923 -0.079072
v 0.040159 1.923580 -0.078039
v 0.142686 2.103051 -0.075621
v 0.038182 2.098642 0.165594
v 0.040159 1.923580 -0.078039
v 0.038182 2.098642 0.165594
v -0.033736 1.920462 0.092526
v -0.033736 1.920462 0.092526
v 0.038182 2.098642 0.165594
v -0.214112 2.094498 0.265478
v -0.033736 1.920462 0.092526
v -0.214112 2.094498 0.265478
v -0.212135 1.917532 0.163154
v -0.212135 1.917532 0.163154
v -0.214112 2.094498 0.265478
v -0.466407 2.093047 0.165519
v -0.212135 1.917532 0.163154
v -0.466407 2.093047 0.165519
v -0.390534 1.916506 0.092473
v -0.390534 1.916506 0.092473
v -0.466407 2.093047 0.165519
v -0.570911 2.095139 -0.075727
v -0.390534 1.916506 0.092473
v -0.570911 2.095139 -0.075727
v -0.464429 1.917985 -0.078114
v -0.464429 1.917985 -0.078114
v -0.570911 2.095139 -0.075727
v -0.466407 2.099548 -0.316943
v -0.464429 1.917985 -0.078114
v -0.466407 2.099548 -0.316943
v -0.390534 1.921103 -0.248679
v -0.390534 1.921103 -0.248679
v -0.466407 2.099548 -0.316943
v -0.214112 2.103692 -0.416826
v -0.390534 1.921103 -0.248679
v -0.214112 2.103692 -0.416826
v -0.212135 1.924033 -0.319307
v -0.212135 1.924033 -0.319307
v -0.214112 2.103692 -0.416826
v 0.038182 2.105143 -0.316867
v -0.212135 1.924033 -0.319307
v 0.038182 2.105143 -0.316867
v -0.033736 1.925059 -0.248626
v -0.033736 1.925059 -0.248626
v 0.038182 2.105143 -0.316867
v 0.142686 2.103051 -0.075621
v -0.033736 1.925059 -0.248626
v 0.142686 2.103051 -0.075621
v 0.040159 1.923580 -0.078039
v 0.142686 2.103051 -0.075621
v 0.036204 2.280205 -0.073234
v -0.037691 2.277087 0.097331
v 0.142686 2.103051 -0.075621
v -0.037691 2.277087 0.097331
v 0.038182 2.098642 0.165594
v 0.038182 2.098642 0.165594
v -0.037691 2.277087 0.097331
v -0.216090 2.274157 0.167959
v 0.038182 2.098642 0.165594
v -0.216090 2.274157 0.167959
v -0.214112 2.094498 0.265478
v -0.214112 2.094498 0.265478
v -0.216090 2.274157 0.167959
v -0.394489 2.273131 0.097278
v -0.214112 2.094498 0.265478
v -0.394489 2.273131 0.097278
v -0.466407 2.093047 0.165519
v -0.466407 2.093047 0.165519
v -0.394489 2.273131 0.097278
v -0.468384 2.274610 -0.073309
v -0.466407 2.093047 0.165519
v -0.468384 2.274610 -0.073309
v -0.570911 2.095139 -0.075727
v -0.570911 2.095139 -0.075727
v -0.468384 2.274610 -0.073309
v -0.394489 2.277727 -0.243874
v -0.570911 2.095139 -0.075727
v -0.394489 2.277727 -0.243874
v -0.466407 2.099548 -0.316943
v -0.466407 2.099548 -0.316943
v -0.394489 2.277727 -0.243874
v -0.216090 2.280658 -0.314502
v -0.466407 2.099548 -0.316943
v -0.216090 2.280658 -0.314502
v -0.214112 2.103692 -0.416826
v -0.214112 2.103692 -0.416826
v -0.216090 2.280658 -0.314502
v -0.037691 2.281684 -0.243821
v -0.214112 2.103692 -0.416826
v -0.037691 2.281684 -0.243821
v 0.038182 2.105143 -0.316867
v 0.038182 2.105143 -0.316867
v -0.037691 2.281684 -0.243821
v 0.036204 2.280205 -0.073234
v 0.038182 2.105143 -0.316867
v 0.036204 2.280205 -0.073234
v 0.142686 2.103051 -0.075621
v 0.036204 2.280205 -0.073234
v -0.216909 2.351266 -0.072276
v -0.216909 2.351266 -0.072276
v 0.036204 2.280205 -0.073234
v -0.216909 2.351266 -0.072276
v -0.037691 2.277087 0.097331
v -0.037691 2.277087 0.097331
v -0.216909 2.351266 -0.072276
v -0.216909 2.351266 -0.072276
v -0.037691 2.277087 0.097331
v -0.216909 2.351266 -0.072276
v -0.216090 2.274157 0.167959
v -0.216090 2.274157 0.167959
v -0.216909 2.351266 -0.072276
v -0.216909 2.351266 -0.072276
v -0.216090 2.274157 0.167959
v -0.216909 2.351266 -0.072276
v -0.394489 2.273131 0.097278
v -0.394489 2.273131 0.097278
v -0.216909 2.351266 -0.072276
v -0.216909 2.351266 -0.072276
v -0.394489 2.273131 0.097278
v -0.216909 2.351266 -0.072276
v -0.468384 2.274610 -0.073309
v -0.468384 2.274610 -0.073309
v -0.216909 2.351266 -0.072276
v -0.216909 2.351266 -0.072276
v -0.468384 2.274610 -0.073309
v -0.216909 2.351266 -0.072276
v -0.394489 2.277727 -0.243874
v -0.394489 2.277727 -0.243874
v -0.216909 2.351266 -0.072276
v -0.216909 2.351266 -0.072276
v -0.394489 2.277727 -0.243874
v -0.216909 2.351266 -0.072276
v -0.216090 2.280658 -0.314502
v -0.216090 2.280658 -0.314502
v -0.216909 2.351266 -0.072276
v -0.216909 2.351266 -0.072276
v -0.216090 2.280658 -0.314502
v -0.216909 2.351266 -0.072276
v -0.037691 2.281684 -0.243821
v -0.037691 2.281684 -0.243821
v -0.216909 2.351266 -0.072276
v -0.216909 2.351266 -0.072276
v -0.037691 2.281684 -0.243821
v -0.216909 2.351266 -0.072276
v 0.036204 2.280205 -0.073234
v 0.160537 1.598553 -0.304575
v 0.346961 1.682040 -0.303450
v 0.292094 1.679625 -0.169356
v 0.160537 1.598553 -0.304575
v 0.292094 1.679625 -0.169356
v 0.160537 1.598553 -0.304575
v 0.160537 1.598553 -0.304575
v 0.292094 1.679625 -0.169356
v 0.159635 1.677407 -0.113828
v 0.160537 1.598553 -0.304575
v 0.159635 1.677407 -0.113828
v 0.160537 1.598553 -0.304575
v 0.160537 1.598553 -0.304575
v 0.159635 1.677407 -0.113828
v 0.027175 1.676687 -0.169395
v 0.160537 1.598553 -0.304575
v 0.027175 1.676687 -0.169395
v 0.160537 1.598553 -0.304575
v 0.160537 1.598553 -0.304575
v 0.027175 1.676687 -0.169395
v -0.027692 1.677886 -0.303506
v 0.160537 1.598553 -0.304575
v -0.027692 1.677886 -0.303506
v 0.160537 1.598553 -0.304575
v 0.160537 1.598553 -0.304575
v -0.027692 1.677886 -0.303506
v 0.027175 1.680301 -0.437600
v 0.160537 1.598553 -0.304575
v 0.027175 1.680301 -0.437600
v 0.160537 1.598553 -0.304575
v 0.160537 1.598553 -0.304575
v 0.027175 1.680301 -0.437600
v 0.159635 1.682518 -0.493128
v 0.160537 1.598553 -0.304575
v 0.159635 1.682518 -0.493128
v 0.160537 1.598553 -0.304575
v 0.160537 1.598553 -0.304575
v 0.159635 1.682518 -0.493128
v 0.292094 1.683238 -0.437561
v 0.160537 1.598553 -0.304575
v 0.292094 1.683238 -0.437561
v 0.160537 1.598553 -0.304575
v 0.160537 1.598553 -0.304575
v 0.292094 1.683238 -0.437561
v 0.346961 1.682040 -0.303450
v 0.160537 1.598553 -0.304575
v 0.346961 1.682040 -0.303450
v 0.160537 1.598553 -0.304575
v 0.346961 1.682040 -0.303450
v 0.422375 1.879442 -0.300790
v 0.344781 1.876026 -0.111152
v 0.346961 1.682040 -0.303450
v 0.344781 1.876026 -0.111152
v 0.292094 1.679625 -0.169356
v 0.292094 1.679625 -0.169356
v 0.344781 1.876026 -0.111152
v 0.157455 1.872891 -0.032624
v 0.292094 1.679625 -0.169356
v 0.157455 1.872891 -0.032624
v 0.159635 1.677407 -0.113828
v 0.159635 1.677407 -0.113828
v 0.157455 1.872891 -0.032624
v -0.029872 1.871872 -0.111208
v 0.159635 1.677407 -0.113828
v -0.029872 1.871872 -0.111208
v 0.027175 1.676687 -0.169395
v 0.027175 1.676687 -0.169395
v -0.029872 1.871872 -0.111208
v -0.107465 1.873567 -0.300869
v 0.027175 1.676687 -0.169395
v -0.107465 1.873567 -0.300869
v -0.027692 1.677886 -0.303506
v -0.027692 1.677886 -0.303506
v -0.107465 1.873567 -0.300869
v -0.029872 1.876983 -0.490508
v -0.027692 1.677886 -0.303506
v -0.029872 1.876983 -0.490508
v 0.027175 1.680301 -0.437600
v 0.027175 1.680301 -0.437600
v -0.029872 1.876983 -0.490508
v 0.157455 1.880118 -0.569035
v 0.027175 1.680301 -0.437600
v 0.157455 1.880118 -0.569035
v 0.159635 1.682518 -0.493128
v 0.159635 1.682518 -0.493128
v 0.157455 1.880118 -0.569035
v 0.344781 1.881137 -0.490452
v 0.159635 1.682518 -0.493128
v 0.344781 1.881137 -0.490452
v 0.292094 1.683238 -0.437561
v 0.292094 1.683238 -0.437561
v 0.344781 1.881137 -0.490452
v 0.422375 1.879442 -0.300790
v 0.292094 1.683238 -0.437561
v 0.422375 1.879442 -0.300790
v 0.346961 1.682040 -0.303450
v 0.422375 1.879442 -0.300790
v 0.342602 2.075123 -0.298154
v 0.287735 2.072708 -0.164059
v 0.422375 1.879442 -0.300790
v 0.287735 2.072708 -0.164059
v 0.344781 1.876026 -0.111152
v 0.344781 1.876026 -0.111152
v 0.287735 2.072708 -0.164059
v 0.155275 2.070491 -0.108532
v 0.344781 1.876026 -0.111152
v 0.155275 2.070491 -0.108532
v 0.157455 1.872891 -0.032624
v 0.157455 1.872891 -0.032624
v 0.155275 2.070491 -0.108532
v 0.022815 2.069770 -0.164099
v 0.157455 1.872891 -0.032624
v 0.022815 2.069770 -0.164099
v -0.029872 1.871872 -0.111208
v -0.029872 1.871872 -0.111208
v 0.022815 2.069770 -0.164099
v -0.032051 2.070969 -0.298210
v -0.029872 1.871872 -0.111208
v -0.032051 2.070969 -0.298210
v -0.107465 1.873567 -0.300869
v -0.107465 1.873567 -0.300869
v -0.032051 2.070969 -0.298210
v 0.022815 2.073384 -0.432304
v -0.107465 1.873567 -0.300869
v 0.022815 2.073384 -0.432304
v -0.029872 1.876983 -0.490508
v -0.029872 1.876983 -0.490508
v 0.022815 2.073384 -0.432304
v 0.155275 2.075601 -0.487831
v -0.029872 1.876983 -0.490508
v 0.155275 2.075601 -0.487831
v 0.157455 1.880118 -0.569035
v 0.157455 1.880118 -0.569035
v 0.155275 2.075601 -0.487831
v 0.287735 2.076321 -0.432265
v 0.157455 1.880118 -0.569035
v 0.287735 2.076321 -0.432265
v 0.344781 1.881137 -0.490452
v 0.344781 1.881137 -0.490452
v 0.287735 2.076321 -0.432265
v 0.342602 2.075123 -0.298154
v 0.344781 1.881137 -0.490452
v 0.342602 2.075123 -0.298154
v 0.422375 1.879442 -0.300790
v 0.342602 2.075123 -0.298154
v 0.154372 2.154456 -0.297085
v 0.154372 2.154456 -0.297085
v 0.342602 2.075123 -0.298154
v 0.154372 2.154456 -0.297085
v 0.287735 2.072708 -0.164059
v 0.287735 2.072708 -0.164059
v 0.154372 2.154456 -0.297085
v 0.154372 2.154456 -0.297085
v 0.287735 2.072708 -0.164059
v 0.154372 2.154456 -0.297085
v 0.155275 2.070491 -0.108532
v 0.155275 2.070491 -0.108532
v 0.154372 2.154456 -0.297085
v 0.154372 2.154456 -0.297085
v 0.155275 2.070491 -0.108532
v 0.154372 2.154456 -0.297085
v 0.022815 2.069770 -0.164099
v 0.022815 2.069770 -0.164099
v 0.154372 2.154456 -0.297085
v 0.154372 2.154456 -0.297085
v 0.022815 2.069770 -0.164099
v 0.154372 2.154456 -0.297085
v -0.032051 2.070969 -0.298210
v -0.032051 2.070969 -0.298210
v 0.154372 2.154456 -0.297085
v 0.154372 2.154456 -0.297085
v -0.032051 2.070969 -0.298210
v 0.154372 2.154456 -0.297085
v 0.022815 2.073384 -0.432304
v 0.022815 2.073384 -0.432304
v 0.154372 2.154456 -0.297085
v 0.154372 2.154456 -0.297085
v 0.022815 2.073384 -0.432304
v 0.154372 2.154456 -0.297085
v 0.155275 2.075601 -0.487831
v 0.155275 2.075601 -0.487831
v 0.154372 2.154456 -0.297085
v 0.154372 2.154456 -0.297085
v 0.155275 2.075601 -0.487831
v 0.154372 2.154456 -0.297085
v 0.287735 2.076321 -0.432265
v 0.287735 2.076321 -0.432265
v 0.154372 2.154456 -0.297085
v 0.154372 2.154456 -0.297085
v 0.287735 2.076321 -0.432265
v 0.154372 2.154456 -0.297085
v 0.342602 2.075123 -0.298154
v 0.237258 1.639035 0.059894
v 0.443486 1.730294 0.061123
v 0.382794 1.727511 0.217697
v 0.237258 1.639035 0.059894
v 0.382794 1.727511 0.217697
v 0.237258 1.639035 0.059894
v 0.237258 1.639035 0.059894
v 0.382794 1.727511 0.217697
v 0.236271 1.725013 0.282534
v 0.237258 1.639035 0.059894
v 0.236271 1.725013 0.282534
v 0.237258 1.639035 0.059894
v 0.237258 1.639035 0.059894
v 0.236271 1.725013 0.282534
v 0.089748 1.724262 0.217653
v 0.237258 1.639035 0.059894
v 0.089748 1.724262 0.217653
v 0.237258 1.639035 0.059894
v 0.237258 1.639035 0.059894
v 0.089748 1.724262 0.217653
v 0.029056 1.725699 0.061061
v 0.237258 1.639035 0.059894
v 0.029056 1.725699 0.061061
v 0.237258 1.639035 0.059894
v 0.237258 1.639035 0.059894
v 0.029056 1.725699 0.061061
v 0.089748 1.728482 -0.095512
v 0.237258 1.639035 0.059894
v 0.089748 1.728482 -0.095512
v 0.237258 1.639035 0.059894
v 0.237258 1.639035 0.059894
v 0.089748 1.728482 -0.095512
v 0.236271 1.730980 -0.160349
v 0.237258 1.639035 0.059894
v 0.236271 1.730980 -0.160349
v 0.237258 1.639035 0.059894
v 0.237258 1.639035 0.059894
v 0.236271 1.730980 -0.160349
v 0.382794 1.731731 -0.095469
v 0.237258 1.639035 0.059894
v 0.382794 1.731731 -0.095469
v 0.237258 1.639035 0.059894
v 0.237258 1.639035 0.059894
v 0.382794 1.731731 -0.095469
v 0.443486 1.730294 0.061123
v 0.237258 1.639035 0.059894
v 0.443486 1.730294 0.061123
v 0.237258 1.639035 0.059894
v 0.443486 1.730294 0.061123
v 0.526935 1.946017 0.064030
v 0.441104 1.942081 0.285459
v 0.443486 1.730294 0.061123
v 0.441104 1.942081 0.285459
v 0.382794 1.727511 0.217697
v 0.382794 1.727511 0.217697
v 0.441104 1.942081 0.285459
v 0.233889 1.938548 0.377152
v 0.382794 1.727511 0.217697
v 0.233889 1.938548 0.377152
v 0.236271 1.725013 0.282534
v 0.236271 1.725013 0.282534
v 0.233889 1.938548 0.377152
v 0.026674 1.937486 0.285397
v 0.236271 1.725013 0.282534
v 0.026674 1.937486 0.285397
v 0.089748 1.724262 0.217653
v 0.089748 1.724262 0.217653
v 0.026674 1.937486 0.285397
v -0.059157 1.939518 0.063942
v 0.089748 1.724262 0.217653
v -0.059157 1.939518 0.063942
v 0.029056 1.725699 0.061061
v 0.029056 1.725699 0.061061
v -0.059157 1.939518 0.063942
v 0.026674 1.943453 -0.157486
v 0.029056 1.725699 0.061061
v 0.026674 1.943453 -0.157486
v 0.089748 1.728482 -0.095512
v 0.089748 1.728482 -0.095512
v 0.026674 1.943453 -0.157486
v 0.233889 1.946987 -0.249179
v 0.089748 1.728482 -0.095512
v 0.233889 1.946987 -0.249179
v 0.236271 1.730980 -0.160349
v 0.236271 1.730980 -0.160349
v 0.233889 1.946987 -0.249179
v 0.441104 1.948049 -0.157424
v 0.236271 1.730980 -0.160349
v 0.441104 1.948049 -0.157424
v 0.382794 1.731731 -0.095469
v 0.382794 1.731731 -0.095469
v 0.441104 1.948049 -0.157424
v 0.526935 1.946017 0.064030
v 0.382794 1.731731 -0.095469
v 0.526935 1.946017 0.064030
v 0.443486 1.730294 0.061123
v 0.526935 1.946017 0.064030
v 0.438722 2.159836 0.066911
v 0.378030 2.157053 0.223485
v 0.526935 1.946017 0.064030
v 0.378030 2.157053 0.223485
v 0.441104 1.942081 0.285459
v 0.441104 1.942081 0.285459
v 0.378030 2.157053 0.223485
v 0.231507 2.154555 0.288321
v 0.441104 1.942081 0.285459
v 0.231507 2.154555 0.288321
v 0.233889 1.938548 0.377152
v 0.233889 1.938548 0.377152
v 0.231507 2.154555 0.288321
v 0.084984 2.153804 0.223441
v 0.233889 1.938548 0.377152
v 0.084984 2.153804 0.223441
v 0.026674 1.937486 0.285397
v 0.026674 1.937486 0.285397
v 0.084984 2.153804 0.223441
v 0.024292 2.155241 0.066849
v 0.026674 1.937486 0.285397
v 0.024292 2.155241 0.066849
v -0.059157 1.939518 0.063942
v -0.059157 1.939518 0.063942
v 0.024292 2.155241 0.066849
v 0.084984 2.158023 -0.089725
v -0.059157 1.939518 0.063942
v 0.084984 2.158023 -0.089725
v 0.026674 1.943453 -0.157486
v 0.026674 1.943453 -0.157486
v 0.084984 2.158023 -0.089725
v 0.231507 2.160522 -0.154562
v 0.026674 1.943453 -0.157486
v 0.231507 2.160522 -0.154562
v 0.233889 1.946987 -0.249179
v 0.233889 1.946987 -0.249179
v 0.231507 2.160522 -0.154562
v 0.378030 2.161273 -0.089681
v 0.233889 1.946987 -0.249179
v 0.378030 2.161273 -0.089681
v 0.441104 1.948049 -0.157424
v 0.441104 1.948049 -0.157424
v 0.378030 2.161273 -0.089681
v 0.438722 2.159836 0.066911
v 0.441104 1.948049 -0.157424
v 0.438722 2.159836 0.066911
v 0.526935 1.946017 0.064030
v 0.438722 2.159836 0.066911
v 0.230521 2.246499 0.068079
v 0.230521 2.246499 0.068079
v 0.438722 2.159836 0.066911
v 0.230521 2.246499 0.068079
v 0.378030 2.157053 0.223485
v 0.378030 2.157053 0.223485
v 0.230521 2.246499 0.068079
v 0.230521 2.246499 0.068079
v 0.378030 2.157053 0.223485
v 0.230521 2.246499 0.068079
v 0.231507 2.154555 0.288321
v 0.231507 2.154555 0.288321
v 0.230521 2.246499 0.068079
v 0.230521 2.246499 0.068079
v 0.231507 2.154555 0.288321
v 0.230521 2.246499 0.068079
v 0.084984 2.153804 0.223441
v 0.084984 2.153804 0.223441
v 0.230521 2.246499 0.068079
v 0.230521 2.246499 0.068079
v 0.084984 2.153804 0.223441
v 0.230521 2.246499 0.068079
v 0.024292 2.155241 0.066849
v 0.024292 2.155241 0.066849
v 0.230521 2.246499 0.068079
v 0.230521 2.246499 0.068079
v 0.024292 2.155241 0.066849
v 0.230521 2.246499 0.068079
v 0.084984 2.158023 -0.089725
v 0.084984 2.158023 -0.089725
v 0.230521 2.246499 0.068079
v 0.230521 2.246499 0.068079
v 0.084984 2.158023 -0.089725
v 0.230521 2.246499 0.068079
v 0.231507 2.160522 -0.154562
v 0.231507 2.160522 -0.154562
v 0.230521 2.246499 0.068079
v 0.230521 2.246499 0.068079
v 0.231507 2.160522 -0.154562
v 0.230521 2.246499 0.068079
v 0.378030 2.161273 -0.089681
v 0.378030 2.161273 -0.089681
v 0.230521 2.246499 0.068079
v 0.230521 2.246499 0.068079
v 0.378030 2.161273 -0.089681
v 0.230521 2.246499 0.068079
v 0.438722 2.159836 0.066911
f 733 734 735
f 736 737 738
f 739 740 741
f 742 743 744
f 745 746 747
f 748 749 750
f 751 752 753
f 754 755 756
f 757 758 759
f 760 761 762
f 763 764 765
f 766 767 768
f 769 770 771
f 772 773 774
f 775 776 777
f 778 779 780
f 781 782 783
f 784 785 786
f 787 788 789
f 790 791 792
f 793 794 795
f 796 797 798
f 799 800 801
f 802 803 804
f 805 806 807
f 808 809 810
f 811 812 813
f 814 815 816
f 817 818 819
f 820 821 822
f 823 824 825
f 826 827 828
f 829 830 831
f 832 833 834
f 835 836 837
f 838 839 840
f 841 842 843
f 844 845 846
f 847 848 849
f 850 851 852
f 853 854 855
f 856 857 858
f 859 860 861
f 862 863 864
f 865 866 867
f 868 869 870
f 871 872 873
f 874 875 876
f 877 878 879
f 880 881 882
f 883 884 885
f 886 887 888
f 889 890 891
f 892 893 894
f 895 896 897
f 898 899 900
f 901 902 903
f 904 905 906
f 907 908 909
f 910 911 912
f 913 914 915
f 916 917 918
f 919 920 921
f 922 923 924
f 925 926 927
f 928 929 930
f 931 932 933
f 934 935 936
f 937 938 939
f 940 941 942
f 943 944 945
f 946 947 948
f 949 950 951
f 952 953 954
f 955 956 957
f 958 959 960
f 961 962 963
f 964 965 966
f 967 968 969
f 970 971 972
f 973 974 975
f 976 977 978
f 979 980 981
f 982 983 984
f 985 986 987
f 988 989 990
f 991 992 993
f 994 995 996
f 997 998 999
f 1000 1001 1002
f 1003 1004 1005
f 1006 1007 1008
f 1009 1010 1011
f 1012 1013 1014
f 1015 1016 1017
f 1018 1019 1020
f 1021 1022 1023
f 1024 1025 1026
f 1027 1028 1029
f 1030 1031 1032
f 1033 1034 1035
f 1036 1037 1038
f 1039 1040 1041
f 1042 1043 1044
f 1045 1046 1047
f 1048 1049 1050
f 1051 1052 1053
f 1054 1055 1056
f 1057 1058 1059
f 1060 1061 1062
f 1063 1064 1065
f 1066 1067 1068
f 1069 1070 1071
f 1072 1073 1074
f 1075 1076 1077
f 1078 1079 1080
f 1081 1082 1083
f 1084 1085 1086
f 1087 1088 1089
f 1090 1091 1092
f 1093 1094 1095
f 1096 1097 1098
f 1099 1100 1101
f 1102 1103 1104
f 1105 1106 1107
f 1108 1109 1110
f 1111 1112 1113
f 1114 1115 1116
f 1117 1118 1119
f 1120 1121 1122
f 1123 1124 1125
f 1126 1127 1128
f 1129 1130 1131
f 1132 1133 1134
f 1135 1136 1137
f 1138 1139 1140
f 1141 1142 1143
f 1144 1145 1146
f 1147 1148 1149
f 1150 1151 1152
f 1153 1154 1155
f 1156 1157 1158
f 1159 1160 1161
f 1162 1163 1164
f 1165 1166 1167
f 1168 1169 1170
f 1171 1172 1173
f 1174 1175 1176
f 1177 1178 1179
f 1180 1181 1182
f 1183 1184 1185
f 1186 1187 1188
f 1189 1190 1191
f 1192 1193 1194
f 1195 1196 1197
f 1198 1199 1200
f 1201 1202 1203
f 1204 1205 1206
f 1207 1208 1209
f 1210 1211 1212
f 1213 1214 1215
f 1216 1217 1218
f 1219 1220 1221
f 1222 1223 1224
f 1225 1226 1227
f 1228 1229 1230
f 1231 1232 1233
f 1234 1235 1236
f 1237 1238 1239
f 1240 1241 1242
f 1243 1244 1245
f 1246 1247 1248
f 1249 1250 1251
f 1252 1253 1254
f 1255 1256 1257
f 1258 1259 1260
f 1261 1262 1263
f 1264 1265 1266
f 1267 1268 1269
f 1270 1271 1272
f 1273 1274 1275
f 1276 1277 1278
f 1279 1280 1281
f 1282 1283 1284
f 1285 1286 1287
f 1288 1289 1290
f 1291 1292 1293
f 1294 1295 1296
f 1297 1298 1299
f 1300 1301 1302
f 1303 1304 1305
f 1306 1307 1308
f 1309 1310 1311
f 1312 1313 1314
f 1315 1316 1317
f 1318 1319 1320
f 1321 1322 1323
f 1324 1325 1326
f 1327 1328 1329
f 1330 1331 1332
f 1333 1334 1335
f 1336 1337 1338
f 1339 1340 1341
f 1342 1343 1344
f 1345 1346 1347
f 1348 1349 1350
f 1351 1352 1353
f 1354 1355 1356
f 1357 1358 1359
f 1360 1361 1362
f 1363 1364 1365
f 1366 1367 1368
f 1369 1370 1371
f 1372 1373 1374
f 1375 1376 1377
f 1378 1379 1380
f 1381 1382 1383
f 1384 1385 1386
f 1387 1388 1389
f 1390 1391 1392
f 1393 1394 1395
f 1396 1397 1398
f 1399 1400 1401
f 1402 1403 1404
f 1405 1406 1407
f 1408 1409 1410
f 1411 1412 1413
f 1414 1415 1416
f 1417 1418 1419
f 1420 1421 1422
f 1423 1424 1425
f 1426 1427 1428
f 1429 1430 1431
f 1432 1433 1434
f 1435 1436 1437
f 1438 1439 1440
f 1441 1442 1443
f 1444 1445 1446
f 1447 1448 1449
f 1450 1451 1452
f 1453 1454 1455
f 1456 1457 1458
f 1459 1460 1461
f 1462 1463 1464
f 1465 1466 1467
f 1468 1469 1470
f 1471 1472 1473
f 1474 1475 1476
f 1477 1478 1479
f 1480 1481 1482
f 1483 1484 1485
f 1486 1487 1488
f 1489 1490 1491
f 1492 1493 1494
f 1495 1496 1497
f 1498 1499 1500
f 1501 1502 1503
f 1504 1505 1506
f 1507 1508 1509
f 1510 1511 1512
f 1513 1514 1515
f 1516 1517 1518
f 1519 1520 1521
f 1522 1523 1524
f 1525 1526 1527
f 1528 1529 1530
f 1531 1532 1533
f 1534 1535 1536
f 1537 1538 1539
f 1540 1541 1542
f 1543 1544 1545
f 1546 1547 1548
f 1549 1550 1551
f 1552 1553 1554
f 1555 1556 1557
f 1558 1559 1560
f 1561 1562 1563
f 1564 1565 1566
f 1567 1568 1569
f 1570 1571 1572
f 1573 1574 1575
f 1576 1577 1578
f 1579 1580 1581
f 1582 1583 1584
f 1585 1586 1587
f 1588 1589 1590
f 1591 1592 1593
f 1594 1595 1596
f 1597 1598 1599
f 1600 1601 1602
f 1603 1604 1605
f 1606 1607 1608
f 1609 1610 1611
f 1612 1613 1614
f 1615 1616 1617
f 1618 1619 1620
f 1621 1622 1623
f 1624 1625 1626
f 1627 1628 1629
f 1630 1631 1632
f 1633 1634 1635
f 1636 1637 1638
f 1639 1640 1641
f 1642 1643 1644
f 1645 1646 1647
f 1648 1649 1650
f 1651 1652 1653
f 1654 1655 1656
f 1657 1658 1659
f 1660 1661 1662
f 1663 1664 1665
f 1666 1667 1668
f 1669 1670 1671
f 1672 1673 1674
f 1675 1676 1677
f 1678 1679 1680
f 1681 1682 1683
f 1684 1685 1686
f 1687 1688 1689
f 1690 1691 1692
f 1693 1694 1695
f 1696 1697 1698
f 1699 1700 1701
f 1702 1703 1704
f 1705 1706 1707
f 1708 1709 1710
f 1711 1712 1713
f 1714 1715 1716
f 1717 1718 1719
f 1720 1721 1722
f 1723 1724 1725
f 1726 1727 1728
f 1729 1730 1731
f 1732 1733 1734
f 1735 1736 1737
f 1738 1739 1740
f 1741 1742 1743
f 1744 1745 1746
f 1747 1748 1749
f 1750 1751 1752
f 1753 1754 1755
f 1756 1757 1758
f 1759 1760 1761
f 1762 1763 1764
f 1765 1766 1767
f 1768 1769 1770
f 1771 1772 1773
f 1774 1775 1776
f 1777 1778 1779
f 1780 1781 1782
f 1783 1784 1785
f 1786 1787 1788
f 1789 1790 1791
f 1792 1793 1794
f 1795 1796 1797
f 1798 1799 1800
f 1801 1802 1803
f 1804 1805 1806
f 1807 1808 1809
f 1810 1811 1812
f 1813 1814 1815
f 1816 1817 1818
f 1819 1820 1821
f 1822 1823 1824
f 1825 1826 1827
f 1828 1829 1830
f 1831 1832 1833
f 1834 1835 1836
f 1837 1838 1839
f 1840 1841 1842
f 1843 1844 1845
f 1846 1847 1848
f 1849 1850 1851
f 1852 1853 1854
f 1855 1856 1857
f 1858 1859 1860
f 1861 1862 1863
f 1864 1865 1866
f 1867 1868 1869
f 1870 1871 1872
f 1873 1874 1875
f 1876 1877 1878
f 1879 1880 1881
f 1882 1883 1884
f 1885 1886 1887
f 1888 1889 1890
f 1891 1892 1893
f 1894 1895 1896
f 1897 1898 1899
f 1900 1901 1902
f 1903 1904 1905
f 1906 1907 1908
f 1909 1910 1911
f 1912 1913 1914
f 1915 1916 1917
f 1918 1919 1920
f 1921 1922 1923
f 1924 1925 1926
f 1927 1928 1929
f 1930 1931 1932
f 1933 1934 1935
f 1936 1937 1938
f 1939 1940 1941
f 1942 1943 1944
f 1945 1946 1947
f 1948 1949 1950
f 1951 1952 1953
f 1954 1955 1956
f 1957 1958 1959
f 1960 1961 1962
f 1963 1964 1965
f 1966 1967 1968
f 1969 1970 1971
f 1972 1973 1974
f 1975 1976 1977
f 1978 1979 1980
f 1981 1982 1983
f 1984 1985 1986
f 1987 1988 1989
f 1990 1991 1992
f 1993 1994 1995
f 1996 1997 1998
f 1999 2000 2001
f 2002 2003 2004
f 2005 2006 2007
f 2008 2009 2010
f 2011 2012 2013
f 2014 2015 2016
f 2017 2018 2019
f 2020 2021 2022
f 2023 2024 2025
f 2026 2027 2028
f 2029 2030 2031
f 2032 2033 2034
f 2035 2036 2037
f 2038 2039 2040
f 2041 2042 2043
f 2044 2045 2046
f 2047 2048 2049
f 2050 2051 2052
f 2053 2054 2055
f 2056 2057 2058
f 2059 2060 2061
f 2062 2063 2064
f 2065 2066 2067
f 2068 2069 2070
f 2071 2072 2073
f 2074 2075 2076
