# Pyramida editable prop source
# units: 1 OBJ unit = 1 Pyramida World Unit = 1 Blender metre

o TreeTrunk
v 0.043071 0.075684 0.105317
v 0.303392 0.012997 0.033224
v 0.309712 0.035998 0.009079
v 0.043071 0.075684 0.105317
v 0.309712 0.035998 0.009079
v 0.070720 0.176314 -0.000320
v 0.046321 0.074190 0.000378
v 0.043071 0.075684 0.105317
v 0.070720 0.176314 -0.000320
v 0.304135 0.012656 0.009238
v 0.309712 0.035998 0.009079
v 0.303392 0.012997 0.033224
v 0.070720 0.176314 -0.000320
v 0.309712 0.035998 0.009079
v 0.304878 0.012314 -0.014748
v 0.070720 0.176314 -0.000320
v 0.304878 0.012314 -0.014748
v 0.049571 0.072697 -0.104561
v 0.046321 0.074190 0.000378
v 0.070720 0.176314 -0.000320
v 0.049571 0.072697 -0.104561
v 0.304135 0.012656 0.009238
v 0.304878 0.012314 -0.014748
v 0.309712 0.035998 0.009079
v 0.049571 0.072697 -0.104561
v 0.304878 0.012314 -0.014748
v 0.298558 -0.010687 0.009398
v 0.049571 0.072697 -0.104561
v 0.298558 -0.010687 0.009398
v 0.021922 -0.027933 0.001077
v 0.046321 0.074190 0.000378
v 0.049571 0.072697 -0.104561
v 0.021922 -0.027933 0.001077
v 0.304135 0.012656 0.009238
v 0.298558 -0.010687 0.009398
v 0.304878 0.012314 -0.014748
v 0.021922 -0.027933 0.001077
v 0.298558 -0.010687 0.009398
v 0.303392 0.012997 0.033224
v 0.021922 -0.027933 0.001077
v 0.303392 0.012997 0.033224
v 0.043071 0.075684 0.105317
v 0.046321 0.074190 0.000378
v 0.021922 -0.027933 0.001077
v 0.043071 0.075684 0.105317
v 0.304135 0.012656 0.009238
v 0.303392 0.012997 0.033224
v 0.298558 -0.010687 0.009398
v -0.109501 0.076600 -0.028585
v -0.220744 0.025423 0.251796
v -0.203992 0.048920 0.269665
v -0.109501 0.076600 -0.028585
v -0.203992 0.048920 0.269665
v -0.036212 0.179398 0.049590
v -0.025819 0.075960 0.034834
v -0.109501 0.076600 -0.028585
v -0.036212 0.179398 0.049590
v -0.201617 0.025277 0.266292
v -0.203992 0.048920 0.269665
v -0.220744 0.025423 0.251796
v -0.036212 0.179398 0.049590
v -0.203992 0.048920 0.269665
v -0.182490 0.025131 0.280787
v -0.036212 0.179398 0.049590
v -0.182490 0.025131 0.280787
v 0.057863 0.075321 0.098252
v -0.025819 0.075960 0.034834
v -0.036212 0.179398 0.049590
v 0.057863 0.075321 0.098252
v -0.201617 0.025277 0.266292
v -0.182490 0.025131 0.280787
v -0.203992 0.048920 0.269665
v 0.057863 0.075321 0.098252
v -0.182490 0.025131 0.280787
v -0.199241 0.001634 0.262919
v 0.057863 0.075321 0.098252
v -0.199241 0.001634 0.262919
v -0.015426 -0.027477 0.020078
v -0.025819 0.075960 0.034834
v 0.057863 0.075321 0.098252
v -0.015426 -0.027477 0.020078
v -0.201617 0.025277 0.266292
v -0.199241 0.001634 0.262919
v -0.182490 0.025131 0.280787
v -0.015426 -0.027477 0.020078
v -0.199241 0.001634 0.262919
v -0.220744 0.025423 0.251796
v -0.015426 -0.027477 0.020078
v -0.220744 0.025423 0.251796
v -0.109501 0.076600 -0.028585
v -0.025819 0.075960 0.034834
v -0.015426 -0.027477 0.020078
v -0.109501 0.076600 -0.028585
v -0.201617 0.025277 0.266292
v -0.220744 0.025423 0.251796
v -0.199241 0.001634 0.262919
v 0.052133 0.072667 -0.103328
v -0.133654 0.017747 -0.194723
v -0.155984 0.041279 -0.184742
v 0.052133 0.072667 -0.103328
v -0.155984 0.041279 -0.184742
v -0.045561 0.175618 -0.059658
v -0.027812 0.075037 -0.035297
v 0.052133 0.072667 -0.103328
v -0.045561 0.175618 -0.059658
v -0.151927 0.018289 -0.179173
v -0.155984 0.041279 -0.184742
v -0.133654 0.017747 -0.194723
v -0.045561 0.175618 -0.059658
v -0.155984 0.041279 -0.184742
v -0.170200 0.018831 -0.163624
v -0.045561 0.175618 -0.059658
v -0.170200 0.018831 -0.163624
v -0.107758 0.077407 0.032733
v -0.027812 0.075037 -0.035297
v -0.045561 0.175618 -0.059658
v -0.107758 0.077407 0.032733
v -0.151927 0.018289 -0.179173
v -0.170200 0.018831 -0.163624
v -0.155984 0.041279 -0.184742
v -0.107758 0.077407 0.032733
v -0.170200 0.018831 -0.163624
v -0.147870 -0.004701 -0.173605
v -0.107758 0.077407 0.032733
v -0.147870 -0.004701 -0.173605
v -0.010064 -0.025544 -0.010937
v -0.027812 0.075037 -0.035297
v -0.107758 0.077407 0.032733
v -0.010064 -0.025544 -0.010937
v -0.151927 0.018289 -0.179173
v -0.147870 -0.004701 -0.173605
v -0.170200 0.018831 -0.163624
v -0.010064 -0.025544 -0.010937
v -0.147870 -0.004701 -0.173605
v -0.133654 0.017747 -0.194723
v -0.010064 -0.025544 -0.010937
v -0.133654 0.017747 -0.194723
v 0.052133 0.072667 -0.103328
v -0.027812 0.075037 -0.035297
v -0.010064 -0.025544 -0.010937
v 0.052133 0.072667 -0.103328
v -0.151927 0.018289 -0.179173
v -0.133654 0.017747 -0.194723
v -0.147870 -0.004701 -0.173605
v -0.000033 -0.003999 -0.159950
v -0.020177 0.996985 -0.156632
v 0.093840 1.000925 -0.090899
v -0.000033 -0.003999 -0.159950
v 0.093840 1.000925 -0.090899
v 0.138520 0.000789 -0.080073
v 0.000000 0.000000 0.000000
v -0.000033 -0.003999 -0.159950
v 0.138520 0.000789 -0.080073
v 0.138520 0.000789 -0.080073
v 0.093840 1.000925 -0.090899
v 0.093867 1.004216 0.040726
v 0.138520 0.000789 -0.080073
v 0.093867 1.004216 0.040726
v 0.138552 0.004788 0.079877
v 0.000000 0.000000 0.000000
v 0.138520 0.000789 -0.080073
v 0.138552 0.004788 0.079877
v 0.138552 0.004788 0.079877
v 0.093867 1.004216 0.040726
v -0.020123 1.003567 0.106619
v 0.138552 0.004788 0.079877
v -0.020123 1.003567 0.106619
v 0.000033 0.003999 0.159950
v 0.000000 0.000000 0.000000
v 0.138552 0.004788 0.079877
v 0.000033 0.003999 0.159950
v 0.000033 0.003999 0.159950
v -0.020123 1.003567 0.106619
v -0.134140 0.999627 0.040887
v 0.000033 0.003999 0.159950
v -0.134140 0.999627 0.040887
v -0.138520 -0.000789 0.080073
v 0.000000 0.000000 0.000000
v 0.000033 0.003999 0.159950
v -0.138520 -0.000789 0.080073
v -0.138520 -0.000789 0.080073
v -0.134140 0.999627 0.040887
v -0.134167 0.996336 -0.090738
v -0.138520 -0.000789 0.080073
v -0.134167 0.996336 -0.090738
v -0.138552 -0.004788 -0.079877
v 0.000000 0.000000 0.000000
v -0.138520 -0.000789 0.080073
v -0.138552 -0.004788 -0.079877
v -0.138552 -0.004788 -0.079877
v -0.134167 0.996336 -0.090738
v -0.020177 0.996985 -0.156632
v -0.138552 -0.004788 -0.079877
v -0.020177 0.996985 -0.156632
v -0.000033 -0.003999 -0.159950
v 0.000000 0.000000 0.000000
v -0.138552 -0.004788 -0.079877
v -0.000033 -0.003999 -0.159950
v -0.020060 1.003514 -0.156633
v -0.018761 1.503090 -0.116000
v 0.070692 1.501582 -0.064293
v -0.020060 1.003514 -0.156633
v 0.070692 1.501582 -0.064293
v 0.093921 1.001593 -0.090748
v -0.018833 1.500549 -0.012698
v 0.070692 1.501582 -0.064293
v -0.018761 1.503090 -0.116000
v 0.093921 1.001593 -0.090748
v 0.070692 1.501582 -0.064293
v 0.070621 1.499041 0.039009
v 0.093921 1.001593 -0.090748
v 0.070621 1.499041 0.039009
v 0.093831 0.998355 0.040879
v -0.018833 1.500549 -0.012698
v 0.070621 1.499041 0.039009
v 0.070692 1.501582 -0.064293
v 0.093831 0.998355 0.040879
v 0.070621 1.499041 0.039009
v -0.018904 1.498007 0.090604
v 0.093831 0.998355 0.040879
v -0.018904 1.498007 0.090604
v -0.020241 0.997038 0.106621
v -0.018833 1.500549 -0.012698
v -0.018904 1.498007 0.090604
v 0.070621 1.499041 0.039009
v -0.020241 0.997038 0.106621
v -0.018904 1.498007 0.090604
v -0.108357 1.499515 0.038897
v -0.020241 0.997038 0.106621
v -0.108357 1.499515 0.038897
v -0.134222 0.998959 0.040736
v -0.018833 1.500549 -0.012698
v -0.108357 1.499515 0.038897
v -0.018904 1.498007 0.090604
v -0.134222 0.998959 0.040736
v -0.108357 1.499515 0.038897
v -0.108286 1.502056 -0.064405
v -0.134222 0.998959 0.040736
v -0.108286 1.502056 -0.064405
v -0.134131 1.002198 -0.090891
v -0.018833 1.500549 -0.012698
v -0.108286 1.502056 -0.064405
v -0.108357 1.499515 0.038897
v -0.134131 1.002198 -0.090891
v -0.108286 1.502056 -0.064405
v -0.018761 1.503090 -0.116000
v -0.134131 1.002198 -0.090891
v -0.018761 1.503090 -0.116000
v -0.020060 1.003514 -0.156633
v -0.018833 1.500549 -0.012698
v -0.018761 1.503090 -0.116000
v -0.108286 1.502056 -0.064405
v -0.040156 1.420985 0.033030
v 0.313367 1.581950 0.152873
v 0.314405 1.601613 0.128935
v -0.040156 1.420985 0.033030
v 0.314405 1.601613 0.128935
v -0.037684 1.467801 -0.023964
v -0.019045 1.419953 -0.014681
v -0.040156 1.420985 0.033030
v -0.037684 1.467801 -0.023964
v 0.322234 1.581517 0.132834
v 0.314405 1.601613 0.128935
v 0.313367 1.581950 0.152873
v -0.037684 1.467801 -0.023964
v 0.314405 1.601613 0.128935
v 0.331101 1.581083 0.112796
v -0.037684 1.467801 -0.023964
v 0.331101 1.581083 0.112796
v 0.002067 1.418920 -0.062392
v -0.019045 1.419953 -0.014681
v -0.037684 1.467801 -0.023964
v 0.002067 1.418920 -0.062392
v 0.322234 1.581517 0.132834
v 0.331101 1.581083 0.112796
v 0.314405 1.601613 0.128935
v 0.002067 1.418920 -0.062392
v 0.331101 1.581083 0.112796
v 0.330062 1.561420 0.136733
v 0.002067 1.418920 -0.062392
v 0.330062 1.561420 0.136733
v -0.000406 1.372104 -0.005398
v -0.019045 1.419953 -0.014681
v 0.002067 1.418920 -0.062392
v -0.000406 1.372104 -0.005398
v 0.322234 1.581517 0.132834
v 0.330062 1.561420 0.136733
v 0.331101 1.581083 0.112796
v -0.000406 1.372104 -0.005398
v 0.330062 1.561420 0.136733
v 0.313367 1.581950 0.152873
v -0.000406 1.372104 -0.005398
v 0.313367 1.581950 0.152873
v -0.040156 1.420985 0.033030
v -0.019045 1.419953 -0.014681
v -0.000406 1.372104 -0.005398
v -0.040156 1.420985 0.033030
v 0.322234 1.581517 0.132834
v 0.313367 1.581950 0.152873
v 0.330062 1.561420 0.136733
v 0.257080 1.546939 0.123668
v 0.411751 1.627959 0.050707
v 0.405013 1.636024 0.043527
v 0.257080 1.546939 0.123668
v 0.405013 1.636024 0.043527
v 0.239108 1.568450 0.104518
v 0.248856 1.546779 0.101117
v 0.257080 1.546939 0.123668
v 0.239108 1.568450 0.104518
v 0.408668 1.627898 0.042252
v 0.405013 1.636024 0.043527
v 0.411751 1.627959 0.050707
v 0.239108 1.568450 0.104518
v 0.405013 1.636024 0.043527
v 0.405584 1.627838 0.033797
v 0.239108 1.568450 0.104518
v 0.405584 1.627838 0.033797
v 0.240631 1.546619 0.078566
v 0.248856 1.546779 0.101117
v 0.239108 1.568450 0.104518
v 0.240631 1.546619 0.078566
v 0.408668 1.627898 0.042252
v 0.405584 1.627838 0.033797
v 0.405013 1.636024 0.043527
v 0.240631 1.546619 0.078566
v 0.405584 1.627838 0.033797
v 0.412322 1.619773 0.040977
v 0.240631 1.546619 0.078566
v 0.412322 1.619773 0.040977
v 0.258603 1.525108 0.097716
v 0.248856 1.546779 0.101117
v 0.240631 1.546619 0.078566
v 0.258603 1.525108 0.097716
v 0.408668 1.627898 0.042252
v 0.412322 1.619773 0.040977
v 0.405584 1.627838 0.033797
v 0.258603 1.525108 0.097716
v 0.412322 1.619773 0.040977
v 0.411751 1.627959 0.050707
v 0.258603 1.525108 0.097716
v 0.411751 1.627959 0.050707
v 0.257080 1.546939 0.123668
v 0.248856 1.546779 0.101117
v 0.258603 1.525108 0.097716
v 0.257080 1.546939 0.123668
v 0.408668 1.627898 0.042252
v 0.411751 1.627959 0.050707
v 0.412322 1.619773 0.040977
v 0.145038 1.500173 0.081767
v 0.345167 1.602765 0.103081
v 0.342853 1.610620 0.093337
v 0.145038 1.500173 0.081767
v 0.342853 1.610620 0.093337
v 0.138864 1.521126 0.055781
v 0.149555 1.499769 0.058195
v 0.145038 1.500173 0.081767
v 0.138864 1.521126 0.055781
v 0.346861 1.602613 0.094243
v 0.342853 1.610620 0.093337
v 0.345167 1.602765 0.103081
v 0.138864 1.521126 0.055781
v 0.342853 1.610620 0.093337
v 0.348555 1.602462 0.085405
v 0.138864 1.521126 0.055781
v 0.348555 1.602462 0.085405
v 0.154072 1.499366 0.034623
v 0.149555 1.499769 0.058195
v 0.138864 1.521126 0.055781
v 0.154072 1.499366 0.034623
v 0.346861 1.602613 0.094243
v 0.348555 1.602462 0.085405
v 0.342853 1.610620 0.093337
v 0.154072 1.499366 0.034623
v 0.348555 1.602462 0.085405
v 0.350869 1.594606 0.095148
v 0.154072 1.499366 0.034623
v 0.350869 1.594606 0.095148
v 0.160246 1.478413 0.060609
v 0.149555 1.499769 0.058195
v 0.154072 1.499366 0.034623
v 0.160246 1.478413 0.060609
v 0.346861 1.602613 0.094243
v 0.350869 1.594606 0.095148
v 0.348555 1.602462 0.085405
v 0.160246 1.478413 0.060609
v 0.350869 1.594606 0.095148
v 0.345167 1.602765 0.103081
v 0.160246 1.478413 0.060609
v 0.345167 1.602765 0.103081
v 0.145038 1.500173 0.081767
v 0.149555 1.499769 0.058195
v 0.160246 1.478413 0.060609
v 0.145038 1.500173 0.081767
v 0.346861 1.602613 0.094243
v 0.345167 1.602765 0.103081
v 0.350869 1.594606 0.095148
v -0.069059 1.244414 -0.035370
v -0.168674 1.454978 0.371620
v -0.144528 1.474260 0.369184
v -0.069059 1.244414 -0.035370
v -0.144528 1.474260 0.369184
v -0.011569 1.290321 -0.041169
v -0.019509 1.243746 -0.019016
v -0.069059 1.244414 -0.035370
v -0.011569 1.290321 -0.041169
v -0.147863 1.454698 0.378488
v -0.144528 1.474260 0.369184
v -0.168674 1.454978 0.371620
v -0.011569 1.290321 -0.041169
v -0.144528 1.474260 0.369184
v -0.127052 1.454417 0.385357
v -0.011569 1.290321 -0.041169
v -0.127052 1.454417 0.385357
v 0.030041 1.243078 -0.002662
v -0.019509 1.243746 -0.019016
v -0.011569 1.290321 -0.041169
v 0.030041 1.243078 -0.002662
v -0.147863 1.454698 0.378488
v -0.127052 1.454417 0.385357
v -0.144528 1.474260 0.369184
v 0.030041 1.243078 -0.002662
v -0.127052 1.454417 0.385357
v -0.151198 1.435136 0.387793
v 0.030041 1.243078 -0.002662
v -0.151198 1.435136 0.387793
v -0.027449 1.197170 0.003137
v -0.019509 1.243746 -0.019016
v 0.030041 1.243078 -0.002662
v -0.027449 1.197170 0.003137
v -0.147863 1.454698 0.378488
v -0.151198 1.435136 0.387793
v -0.127052 1.454417 0.385357
v -0.027449 1.197170 0.003137
v -0.151198 1.435136 0.387793
v -0.168674 1.454978 0.371620
v -0.027449 1.197170 0.003137
v -0.168674 1.454978 0.371620
v -0.069059 1.244414 -0.035370
v -0.019509 1.243746 -0.019016
v -0.027449 1.197170 0.003137
v -0.069059 1.244414 -0.035370
v -0.147863 1.454698 0.378488
v -0.168674 1.454978 0.371620
v -0.151198 1.435136 0.387793
v -0.115158 1.385407 0.226076
v -0.227835 1.446382 0.289801
v -0.220793 1.454566 0.296541
v -0.115158 1.385407 0.226076
v -0.220793 1.454566 0.296541
v -0.096376 1.407236 0.244052
v -0.105784 1.385541 0.248174
v -0.115158 1.385407 0.226076
v -0.096376 1.407236 0.244052
v -0.224321 1.446432 0.298087
v -0.220793 1.454566 0.296541
v -0.227835 1.446382 0.289801
v -0.096376 1.407236 0.244052
v -0.220793 1.454566 0.296541
v -0.220806 1.446482 0.306372
v -0.096376 1.407236 0.244052
v -0.220806 1.446482 0.306372
v -0.096411 1.385675 0.270272
v -0.105784 1.385541 0.248174
v -0.096376 1.407236 0.244052
v -0.096411 1.385675 0.270272
v -0.224321 1.446432 0.298087
v -0.220806 1.446482 0.306372
v -0.220793 1.454566 0.296541
v -0.096411 1.385675 0.270272
v -0.220806 1.446482 0.306372
v -0.227848 1.438297 0.299632
v -0.096411 1.385675 0.270272
v -0.227848 1.438297 0.299632
v -0.115193 1.363846 0.252296
v -0.105784 1.385541 0.248174
v -0.096411 1.385675 0.270272
v -0.115193 1.363846 0.252296
v -0.224321 1.446432 0.298087
v -0.227848 1.438297 0.299632
v -0.220806 1.446482 0.306372
v -0.115193 1.363846 0.252296
v -0.227848 1.438297 0.299632
v -0.227835 1.446382 0.289801
v -0.115193 1.363846 0.252296
v -0.227835 1.446382 0.289801
v -0.115158 1.385407 0.226076
v -0.105784 1.385541 0.248174
v -0.115193 1.363846 0.252296
v -0.115158 1.385407 0.226076
v -0.224321 1.446432 0.298087
v -0.227835 1.446382 0.289801
v -0.227848 1.438297 0.299632
v -0.137139 1.404873 0.296960
v -0.033834 1.483880 0.420661
v -0.028440 1.491740 0.412227
v -0.137139 1.404873 0.296960
v -0.028440 1.491740 0.412227
v -0.122753 1.425837 0.274467
v -0.117217 1.404331 0.283580
v -0.137139 1.404873 0.296960
v -0.122753 1.425837 0.274467
v -0.026365 1.483677 0.415644
v -0.028440 1.491740 0.412227
v -0.033834 1.483880 0.420661
v -0.122753 1.425837 0.274467
v -0.028440 1.491740 0.412227
v -0.018895 1.483474 0.410628
v -0.122753 1.425837 0.274467
v -0.018895 1.483474 0.410628
v -0.097295 1.403789 0.270200
v -0.117217 1.404331 0.283580
v -0.122753 1.425837 0.274467
v -0.097295 1.403789 0.270200
v -0.026365 1.483677 0.415644
v -0.018895 1.483474 0.410628
v -0.028440 1.491740 0.412227
v -0.097295 1.403789 0.270200
v -0.018895 1.483474 0.410628
v -0.024289 1.475613 0.419061
v -0.097295 1.403789 0.270200
v -0.024289 1.475613 0.419061
v -0.111682 1.382825 0.292693
v -0.117217 1.404331 0.283580
v -0.097295 1.403789 0.270200
v -0.111682 1.382825 0.292693
v -0.026365 1.483677 0.415644
v -0.024289 1.475613 0.419061
v -0.018895 1.483474 0.410628
v -0.111682 1.382825 0.292693
v -0.024289 1.475613 0.419061
v -0.033834 1.483880 0.420661
v -0.111682 1.382825 0.292693
v -0.033834 1.483880 0.420661
v -0.137139 1.404873 0.296960
v -0.117217 1.404331 0.283580
v -0.111682 1.382825 0.292693
v -0.137139 1.404873 0.296960
v -0.026365 1.483677 0.415644
v -0.033834 1.483880 0.420661
v -0.024289 1.475613 0.419061
v -0.103838 1.343400 0.169172
v -0.077051 1.445771 0.357604
v -0.068141 1.453516 0.352846
v -0.103838 1.343400 0.169172
v -0.068141 1.453516 0.352846
v -0.080073 1.364055 0.156483
v -0.079871 1.342951 0.167920
v -0.103838 1.343400 0.169172
v -0.080073 1.364055 0.156483
v -0.068065 1.445603 0.357134
v -0.068141 1.453516 0.352846
v -0.077051 1.445771 0.357604
v -0.080073 1.364055 0.156483
v -0.068141 1.453516 0.352846
v -0.059079 1.445435 0.356665
v -0.080073 1.364055 0.156483
v -0.059079 1.445435 0.356665
v -0.055903 1.342503 0.166668
v -0.079871 1.342951 0.167920
v -0.080073 1.364055 0.156483
v -0.055903 1.342503 0.166668
v -0.068065 1.445603 0.357134
v -0.059079 1.445435 0.356665
v -0.068141 1.453516 0.352846
v -0.055903 1.342503 0.166668
v -0.059079 1.445435 0.356665
v -0.067989 1.437691 0.361422
v -0.055903 1.342503 0.166668
v -0.067989 1.437691 0.361422
v -0.079668 1.321847 0.179357
v -0.079871 1.342951 0.167920
v -0.055903 1.342503 0.166668
v -0.079668 1.321847 0.179357
v -0.068065 1.445603 0.357134
v -0.067989 1.437691 0.361422
v -0.059079 1.445435 0.356665
v -0.079668 1.321847 0.179357
v -0.067989 1.437691 0.361422
v -0.077051 1.445771 0.357604
v -0.079668 1.321847 0.179357
v -0.077051 1.445771 0.357604
v -0.103838 1.343400 0.169172
v -0.079871 1.342951 0.167920
v -0.079668 1.321847 0.179357
v -0.103838 1.343400 0.169172
v -0.068065 1.445603 0.357134
v -0.077051 1.445771 0.357604
v -0.067989 1.437691 0.361422
v -0.007953 1.296785 -0.068601
v -0.471837 1.544796 -0.145967
v -0.466585 1.564560 -0.122675
v -0.007953 1.296785 -0.068601
v -0.466585 1.564560 -0.122675
v 0.004552 1.343843 -0.013144
v -0.019367 1.297687 -0.017689
v -0.007953 1.296785 -0.068601
v 0.004552 1.343843 -0.013144
v -0.476631 1.545175 -0.124584
v -0.466585 1.564560 -0.122675
v -0.471837 1.544796 -0.145967
v 0.004552 1.343843 -0.013144
v -0.466585 1.564560 -0.122675
v -0.481425 1.545554 -0.103201
v 0.004552 1.343843 -0.013144
v -0.481425 1.545554 -0.103201
v -0.030780 1.298589 0.033223
v -0.019367 1.297687 -0.017689
v 0.004552 1.343843 -0.013144
v -0.030780 1.298589 0.033223
v -0.476631 1.545175 -0.124584
v -0.481425 1.545554 -0.103201
v -0.466585 1.564560 -0.122675
v -0.030780 1.298589 0.033223
v -0.481425 1.545554 -0.103201
v -0.486677 1.525789 -0.126493
v -0.030780 1.298589 0.033223
v -0.486677 1.525789 -0.126493
v -0.043286 1.251531 -0.022234
v -0.019367 1.297687 -0.017689
v -0.030780 1.298589 0.033223
v -0.043286 1.251531 -0.022234
v -0.476631 1.545175 -0.124584
v -0.486677 1.525789 -0.126493
v -0.481425 1.545554 -0.103201
v -0.043286 1.251531 -0.022234
v -0.486677 1.525789 -0.126493
v -0.471837 1.544796 -0.145967
v -0.043286 1.251531 -0.022234
v -0.471837 1.544796 -0.145967
v -0.007953 1.296785 -0.068601
v -0.019367 1.297687 -0.017689
v -0.043286 1.251531 -0.022234
v -0.007953 1.296785 -0.068601
v -0.476631 1.545175 -0.124584
v -0.471837 1.544796 -0.145967
v -0.486677 1.525789 -0.126493
v -0.266041 1.435651 -0.099690
v -0.474335 1.559798 -0.171386
v -0.473600 1.567814 -0.161526
v -0.266041 1.435651 -0.099690
v -0.473600 1.567814 -0.161526
v -0.264080 1.457029 -0.073393
v -0.275136 1.436118 -0.077480
v -0.266041 1.435651 -0.099690
v -0.264080 1.457029 -0.073393
v -0.477745 1.559973 -0.163059
v -0.473600 1.567814 -0.161526
v -0.474335 1.559798 -0.171386
v -0.264080 1.457029 -0.073393
v -0.473600 1.567814 -0.161526
v -0.481155 1.560149 -0.154732
v -0.264080 1.457029 -0.073393
v -0.481155 1.560149 -0.154732
v -0.284231 1.436586 -0.055271
v -0.275136 1.436118 -0.077480
v -0.264080 1.457029 -0.073393
v -0.284231 1.436586 -0.055271
v -0.477745 1.559973 -0.163059
v -0.481155 1.560149 -0.154732
v -0.473600 1.567814 -0.161526
v -0.284231 1.436586 -0.055271
v -0.481155 1.560149 -0.154732
v -0.481890 1.552133 -0.164591
v -0.284231 1.436586 -0.055271
v -0.481890 1.552133 -0.164591
v -0.286192 1.415208 -0.081568
v -0.275136 1.436118 -0.077480
v -0.284231 1.436586 -0.055271
v -0.286192 1.415208 -0.081568
v -0.477745 1.559973 -0.163059
v -0.481890 1.552133 -0.164591
v -0.481155 1.560149 -0.154732
v -0.286192 1.415208 -0.081568
v -0.481890 1.552133 -0.164591
v -0.474335 1.559798 -0.171386
v -0.286192 1.415208 -0.081568
v -0.474335 1.559798 -0.171386
v -0.266041 1.435651 -0.099690
v -0.275136 1.436118 -0.077480
v -0.286192 1.415208 -0.081568
v -0.266041 1.435651 -0.099690
v -0.477745 1.559973 -0.163059
v -0.474335 1.559798 -0.171386
v -0.481890 1.552133 -0.164591
v -0.296658 1.457620 -0.101389
v -0.380736 1.510361 -0.190593
v -0.385656 1.518829 -0.182464
v -0.296658 1.457620 -0.101389
v -0.385656 1.518829 -0.182464
v -0.309778 1.480206 -0.079706
v -0.315865 1.458163 -0.087002
v -0.296658 1.457620 -0.101389
v -0.309778 1.480206 -0.079706
v -0.387938 1.510564 -0.185199
v -0.385656 1.518829 -0.182464
v -0.380736 1.510361 -0.190593
v -0.309778 1.480206 -0.079706
v -0.385656 1.518829 -0.182464
v -0.395139 1.510768 -0.179805
v -0.309778 1.480206 -0.079706
v -0.395139 1.510768 -0.179805
v -0.335073 1.458705 -0.072615
v -0.315865 1.458163 -0.087002
v -0.309778 1.480206 -0.079706
v -0.335073 1.458705 -0.072615
v -0.387938 1.510564 -0.185199
v -0.395139 1.510768 -0.179805
v -0.385656 1.518829 -0.182464
v -0.335073 1.458705 -0.072615
v -0.395139 1.510768 -0.179805
v -0.390220 1.502299 -0.187934
v -0.335073 1.458705 -0.072615
v -0.390220 1.502299 -0.187934
v -0.321953 1.436119 -0.094297
v -0.315865 1.458163 -0.087002
v -0.335073 1.458705 -0.072615
v -0.321953 1.436119 -0.094297
v -0.387938 1.510564 -0.185199
v -0.390220 1.502299 -0.187934
v -0.395139 1.510768 -0.179805
v -0.321953 1.436119 -0.094297
v -0.390220 1.502299 -0.187934
v -0.380736 1.510361 -0.190593
v -0.321953 1.436119 -0.094297
v -0.380736 1.510361 -0.190593
v -0.296658 1.457620 -0.101389
v -0.315865 1.458163 -0.087002
v -0.321953 1.436119 -0.094297
v -0.296658 1.457620 -0.101389
v -0.387938 1.510564 -0.185199
v -0.380736 1.510361 -0.190593
v -0.390220 1.502299 -0.187934
v -0.374359 1.480306 -0.112667
v -0.464302 1.557139 0.009085
v -0.454865 1.565117 0.012131
v -0.374359 1.480306 -0.112667
v -0.454865 1.565117 0.012131
v -0.349188 1.501585 -0.104542
v -0.356595 1.480207 -0.096523
v -0.374359 1.480306 -0.112667
v -0.349188 1.501585 -0.104542
v -0.457642 1.557102 0.015138
v -0.454865 1.565117 0.012131
v -0.464302 1.557139 0.009085
v -0.349188 1.501585 -0.104542
v -0.454865 1.565117 0.012131
v -0.450981 1.557065 0.021191
v -0.349188 1.501585 -0.104542
v -0.450981 1.557065 0.021191
v -0.338830 1.480108 -0.080379
v -0.356595 1.480207 -0.096523
v -0.349188 1.501585 -0.104542
v -0.338830 1.480108 -0.080379
v -0.457642 1.557102 0.015138
v -0.450981 1.557065 0.021191
v -0.454865 1.565117 0.012131
v -0.338830 1.480108 -0.080379
v -0.450981 1.557065 0.021191
v -0.460419 1.549087 0.018145
v -0.338830 1.480108 -0.080379
v -0.460419 1.549087 0.018145
v -0.364002 1.458828 -0.088504
v -0.356595 1.480207 -0.096523
v -0.338830 1.480108 -0.080379
v -0.364002 1.458828 -0.088504
v -0.457642 1.557102 0.015138
v -0.460419 1.549087 0.018145
v -0.450981 1.557065 0.021191
v -0.364002 1.458828 -0.088504
v -0.460419 1.549087 0.018145
v -0.464302 1.557139 0.009085
v -0.364002 1.458828 -0.088504
v -0.464302 1.557139 0.009085
v -0.374359 1.480306 -0.112667
v -0.356595 1.480207 -0.096523
v -0.364002 1.458828 -0.088504
v -0.374359 1.480306 -0.112667
v -0.457642 1.557102 0.015138
v -0.464302 1.557139 0.009085
v -0.460419 1.549087 0.018145
v 0.032559 1.350784 -0.009972
v 0.068767 1.461111 -0.535994
v 0.046814 1.482918 -0.534192
v 0.032559 1.350784 -0.009972
v 0.046814 1.482918 -0.534192
v -0.019709 1.402705 -0.005682
v -0.019225 1.351629 -0.016362
v 0.032559 1.350784 -0.009972
v -0.019709 1.402705 -0.005682
v 0.047018 1.461466 -0.538678
v 0.046814 1.482918 -0.534192
v 0.068767 1.461111 -0.535994
v -0.019709 1.402705 -0.005682
v 0.046814 1.482918 -0.534192
v 0.025268 1.461821 -0.541361
v -0.019709 1.402705 -0.005682
v 0.025268 1.461821 -0.541361
v -0.071009 1.352473 -0.022752
v -0.019225 1.351629 -0.016362
v -0.019709 1.402705 -0.005682
v -0.071009 1.352473 -0.022752
v 0.047018 1.461466 -0.538678
v 0.025268 1.461821 -0.541361
v 0.046814 1.482918 -0.534192
v -0.071009 1.352473 -0.022752
v 0.025268 1.461821 -0.541361
v 0.047221 1.440014 -0.543163
v -0.071009 1.352473 -0.022752
v 0.047221 1.440014 -0.543163
v -0.018740 1.300552 -0.027041
v -0.019225 1.351629 -0.016362
v -0.071009 1.352473 -0.022752
v -0.018740 1.300552 -0.027041
v 0.047018 1.461466 -0.538678
v 0.047221 1.440014 -0.543163
v 0.025268 1.461821 -0.541361
v -0.018740 1.300552 -0.027041
v 0.047221 1.440014 -0.543163
v 0.068767 1.461111 -0.535994
v -0.018740 1.300552 -0.027041
v 0.068767 1.461111 -0.535994
v 0.032559 1.350784 -0.009972
v -0.019225 1.351629 -0.016362
v -0.018740 1.300552 -0.027041
v 0.032559 1.350784 -0.009972
v 0.047018 1.461466 -0.538678
v 0.068767 1.461111 -0.535994
v 0.047221 1.440014 -0.543163
v 0.032532 1.400149 -0.258757
v -0.049466 1.494026 -0.423183
v -0.056056 1.502237 -0.416030
v 0.032532 1.400149 -0.258757
v -0.056056 1.502237 -0.416030
v 0.014956 1.422048 -0.239680
v 0.010354 1.400674 -0.249588
v 0.032532 1.400149 -0.258757
v 0.014956 1.422048 -0.239680
v -0.057781 1.494223 -0.419745
v -0.056056 1.502237 -0.416030
v -0.049466 1.494026 -0.423183
v 0.014956 1.422048 -0.239680
v -0.056056 1.502237 -0.416030
v -0.066096 1.494420 -0.416308
v 0.014956 1.422048 -0.239680
v -0.066096 1.494420 -0.416308
v -0.011824 1.401198 -0.240419
v 0.010354 1.400674 -0.249588
v 0.014956 1.422048 -0.239680
v -0.011824 1.401198 -0.240419
v -0.057781 1.494223 -0.419745
v -0.066096 1.494420 -0.416308
v -0.056056 1.502237 -0.416030
v -0.011824 1.401198 -0.240419
v -0.066096 1.494420 -0.416308
v -0.059507 1.486209 -0.423460
v -0.011824 1.401198 -0.240419
v -0.059507 1.486209 -0.423460
v 0.005752 1.379299 -0.259497
v 0.010354 1.400674 -0.249588
v -0.011824 1.401198 -0.240419
v 0.005752 1.379299 -0.259497
v -0.057781 1.494223 -0.419745
v -0.059507 1.486209 -0.423460
v -0.066096 1.494420 -0.416308
v 0.005752 1.379299 -0.259497
v -0.059507 1.486209 -0.423460
v -0.049466 1.494026 -0.423183
v 0.005752 1.379299 -0.259497
v -0.049466 1.494026 -0.423183
v 0.032532 1.400149 -0.258757
v 0.010354 1.400674 -0.249588
v 0.005752 1.379299 -0.259497
v 0.032532 1.400149 -0.258757
v -0.057781 1.494223 -0.419745
v -0.049466 1.494026 -0.423183
v -0.059507 1.486209 -0.423460
v 0.039996 1.410078 -0.292593
v 0.058442 1.522561 -0.507261
v 0.049055 1.530680 -0.504442
v 0.039996 1.410078 -0.292593
v 0.049055 1.530680 -0.504442
v 0.014958 1.431734 -0.285075
v 0.016254 1.410457 -0.296112
v 0.039996 1.410078 -0.292593
v 0.014958 1.431734 -0.285075
v 0.049541 1.522703 -0.508581
v 0.049055 1.530680 -0.504442
v 0.058442 1.522561 -0.507261
v 0.014958 1.431734 -0.285075
v 0.049055 1.530680 -0.504442
v 0.040639 1.522845 -0.509900
v 0.014958 1.431734 -0.285075
v 0.040639 1.522845 -0.509900
v -0.007488 1.410836 -0.299631
v 0.016254 1.410457 -0.296112
v 0.014958 1.431734 -0.285075
v -0.007488 1.410836 -0.299631
v 0.049541 1.522703 -0.508581
v 0.040639 1.522845 -0.509900
v 0.049055 1.530680 -0.504442
v -0.007488 1.410836 -0.299631
v 0.040639 1.522845 -0.509900
v 0.050027 1.514726 -0.512719
v -0.007488 1.410836 -0.299631
v 0.050027 1.514726 -0.512719
v 0.017550 1.389180 -0.307149
v 0.016254 1.410457 -0.296112
v -0.007488 1.410836 -0.299631
v 0.017550 1.389180 -0.307149
v 0.049541 1.522703 -0.508581
v 0.050027 1.514726 -0.512719
v 0.040639 1.522845 -0.509900
v 0.017550 1.389180 -0.307149
v 0.050027 1.514726 -0.512719
v 0.058442 1.522561 -0.507261
v 0.017550 1.389180 -0.307149
v 0.058442 1.522561 -0.507261
v 0.039996 1.410078 -0.292593
v 0.016254 1.410457 -0.296112
v 0.017550 1.389180 -0.307149
v 0.039996 1.410078 -0.292593
v 0.049541 1.522703 -0.508581
v 0.058442 1.522561 -0.507261
v 0.050027 1.514726 -0.512719
f 1 2 3
f 4 5 6
f 7 8 9
f 10 11 12
f 13 14 15
f 16 17 18
f 19 20 21
f 22 23 24
f 25 26 27
f 28 29 30
f 31 32 33
f 34 35 36
f 37 38 39
f 40 41 42
f 43 44 45
f 46 47 48
f 49 50 51
f 52 53 54
f 55 56 57
f 58 59 60
f 61 62 63
f 64 65 66
f 67 68 69
f 70 71 72
f 73 74 75
f 76 77 78
f 79 80 81
f 82 83 84
f 85 86 87
f 88 89 90
f 91 92 93
f 94 95 96
f 97 98 99
f 100 101 102
f 103 104 105
f 106 107 108
f 109 110 111
f 112 113 114
f 115 116 117
f 118 119 120
f 121 122 123
f 124 125 126
f 127 128 129
f 130 131 132
f 133 134 135
f 136 137 138
f 139 140 141
f 142 143 144
f 145 146 147
f 148 149 150
f 151 152 153
f 154 155 156
f 157 158 159
f 160 161 162
f 163 164 165
f 166 167 168
f 169 170 171
f 172 173 174
f 175 176 177
f 178 179 180
f 181 182 183
f 184 185 186
f 187 188 189
f 190 191 192
f 193 194 195
f 196 197 198
f 199 200 201
f 202 203 204
f 205 206 207
f 208 209 210
f 211 212 213
f 214 215 216
f 217 218 219
f 220 221 222
f 223 224 225
f 226 227 228
f 229 230 231
f 232 233 234
f 235 236 237
f 238 239 240
f 241 242 243
f 244 245 246
f 247 248 249
f 250 251 252
f 253 254 255
f 256 257 258
f 259 260 261
f 262 263 264
f 265 266 267
f 268 269 270
f 271 272 273
f 274 275 276
f 277 278 279
f 280 281 282
f 283 284 285
f 286 287 288
f 289 290 291
f 292 293 294
f 295 296 297
f 298 299 300
f 301 302 303
f 304 305 306
f 307 308 309
f 310 311 312
f 313 314 315
f 316 317 318
f 319 320 321
f 322 323 324
f 325 326 327
f 328 329 330
f 331 332 333
f 334 335 336
f 337 338 339
f 340 341 342
f 343 344 345
f 346 347 348
f 349 350 351
f 352 353 354
f 355 356 357
f 358 359 360
f 361 362 363
f 364 365 366
f 367 368 369
f 370 371 372
f 373 374 375
f 376 377 378
f 379 380 381
f 382 383 384
f 385 386 387
f 388 389 390
f 391 392 393
f 394 395 396
f 397 398 399
f 400 401 402
f 403 404 405
f 406 407 408
f 409 410 411
f 412 413 414
f 415 416 417
f 418 419 420
f 421 422 423
f 424 425 426
f 427 428 429
f 430 431 432
f 433 434 435
f 436 437 438
f 439 440 441
f 442 443 444
f 445 446 447
f 448 449 450
f 451 452 453
f 454 455 456
f 457 458 459
f 460 461 462
f 463 464 465
f 466 467 468
f 469 470 471
f 472 473 474
f 475 476 477
f 478 479 480
f 481 482 483
f 484 485 486
f 487 488 489
f 490 491 492
f 493 494 495
f 496 497 498
f 499 500 501
f 502 503 504
f 505 506 507
f 508 509 510
f 511 512 513
f 514 515 516
f 517 518 519
f 520 521 522
f 523 524 525
f 526 527 528
f 529 530 531
f 532 533 534
f 535 536 537
f 538 539 540
f 541 542 543
f 544 545 546
f 547 548 549
f 550 551 552
f 553 554 555
f 556 557 558
f 559 560 561
f 562 563 564
f 565 566 567
f 568 569 570
f 571 572 573
f 574 575 576
f 577 578 579
f 580 581 582
f 583 584 585
f 586 587 588
f 589 590 591
f 592 593 594
f 595 596 597
f 598 599 600
f 601 602 603
f 604 605 606
f 607 608 609
f 610 611 612
f 613 614 615
f 616 617 618
f 619 620 621
f 622 623 624
f 625 626 627
f 628 629 630
f 631 632 633
f 634 635 636
f 637 638 639
f 640 641 642
f 643 644 645
f 646 647 648
f 649 650 651
f 652 653 654
f 655 656 657
f 658 659 660
f 661 662 663
f 664 665 666
f 667 668 669
f 670 671 672
f 673 674 675
f 676 677 678
f 679 680 681
f 682 683 684
f 685 686 687
f 688 689 690
f 691 692 693
f 694 695 696
f 697 698 699
f 700 701 702
f 703 704 705
f 706 707 708
f 709 710 711
f 712 713 714
f 715 716 717
f 718 719 720
f 721 722 723
f 724 725 726
f 727 728 729
f 730 731 732
f 733 734 735
f 736 737 738
f 739 740 741
f 742 743 744
f 745 746 747
f 748 749 750
f 751 752 753
f 754 755 756
f 757 758 759
f 760 761 762
f 763 764 765
f 766 767 768
f 769 770 771
f 772 773 774
f 775 776 777
f 778 779 780
f 781 782 783
f 784 785 786
f 787 788 789
f 790 791 792
f 793 794 795
f 796 797 798
f 799 800 801
f 802 803 804
f 805 806 807
f 808 809 810
f 811 812 813
f 814 815 816
f 817 818 819
f 820 821 822
f 823 824 825
f 826 827 828
f 829 830 831
f 832 833 834
f 835 836 837
f 838 839 840
f 841 842 843
f 844 845 846
f 847 848 849
f 850 851 852
f 853 854 855
f 856 857 858
f 859 860 861
f 862 863 864
f 865 866 867
f 868 869 870
f 871 872 873
f 874 875 876
f 877 878 879
f 880 881 882
f 883 884 885
f 886 887 888
f 889 890 891
f 892 893 894
f 895 896 897
f 898 899 900
f 901 902 903
f 904 905 906
f 907 908 909
f 910 911 912
f 913 914 915
f 916 917 918
f 919 920 921
f 922 923 924

o TreeFoliage
v -0.022705 1.285463 -0.009756
v 0.194914 1.373855 -0.010965
v 0.131662 1.377277 0.156011
v -0.022705 1.285463 -0.009756
v 0.131662 1.377277 0.156011
v -0.022705 1.285463 -0.009756
v -0.022705 1.285463 -0.009756
v 0.131662 1.377277 0.156011
v -0.021044 1.380972 0.225143
v -0.022705 1.285463 -0.009756
v -0.021044 1.380972 0.225143
v -0.022705 1.285463 -0.009756
v -0.022705 1.285463 -0.009756
v -0.021044 1.380972 0.225143
v -0.173749 1.382775 0.155936
v -0.022705 1.285463 -0.009756
v -0.173749 1.382775 0.155936
v -0.022705 1.285463 -0.009756
v -0.022705 1.285463 -0.009756
v -0.173749 1.382775 0.155936
v -0.237001 1.381629 -0.011071
v -0.022705 1.285463 -0.009756
v -0.237001 1.381629 -0.011071
v -0.022705 1.285463 -0.009756
v -0.022705 1.285463 -0.009756
v -0.237001 1.381629 -0.011071
v -0.173749 1.378206 -0.178047
v -0.022705 1.285463 -0.009756
v -0.173749 1.378206 -0.178047
v -0.022705 1.285463 -0.009756
v -0.022705 1.285463 -0.009756
v -0.173749 1.378206 -0.178047
v -0.021044 1.374511 -0.247180
v -0.022705 1.285463 -0.009756
v -0.021044 1.374511 -0.247180
v -0.022705 1.285463 -0.009756
v -0.022705 1.285463 -0.009756
v -0.021044 1.374511 -0.247180
v 0.131662 1.372709 -0.177972
v -0.022705 1.285463 -0.009756
v 0.131662 1.372709 -0.177972
v -0.022705 1.285463 -0.009756
v -0.022705 1.285463 -0.009756
v 0.131662 1.372709 -0.177972
v 0.194914 1.373855 -0.010965
v -0.022705 1.285463 -0.009756
v 0.194914 1.373855 -0.010965
v -0.022705 1.285463 -0.009756
v 0.194914 1.373855 -0.010965
v 0.288378 1.595026 -0.013990
v 0.198925 1.599866 0.222149
v 0.194914 1.373855 -0.010965
v 0.198925 1.599866 0.222149
v 0.131662 1.377277 0.156011
v 0.131662 1.377277 0.156011
v 0.198925 1.599866 0.222149
v -0.017033 1.605091 0.319918
v 0.131662 1.377277 0.156011
v -0.017033 1.605091 0.319918
v -0.021044 1.380972 0.225143
v -0.021044 1.380972 0.225143
v -0.017033 1.605091 0.319918
v -0.232991 1.607641 0.222043
v -0.021044 1.380972 0.225143
v -0.232991 1.607641 0.222043
v -0.173749 1.382775 0.155936
v -0.173749 1.382775 0.155936
v -0.232991 1.607641 0.222043
v -0.322443 1.606020 -0.014141
v -0.173749 1.382775 0.155936
v -0.322443 1.606020 -0.014141
v -0.237001 1.381629 -0.011071
v -0.237001 1.381629 -0.011071
v -0.322443 1.606020 -0.014141
v -0.232991 1.601180 -0.250280
v -0.237001 1.381629 -0.011071
v -0.232991 1.601180 -0.250280
v -0.173749 1.378206 -0.178047
v -0.173749 1.378206 -0.178047
v -0.232991 1.601180 -0.250280
v -0.017033 1.595955 -0.348049
v -0.173749 1.378206 -0.178047
v -0.017033 1.595955 -0.348049
v -0.021044 1.374511 -0.247180
v -0.021044 1.374511 -0.247180
v -0.017033 1.595955 -0.348049
v 0.198925 1.593406 -0.250174
v -0.021044 1.374511 -0.247180
v 0.198925 1.593406 -0.250174
v 0.131662 1.372709 -0.177972
v 0.131662 1.372709 -0.177972
v 0.198925 1.593406 -0.250174
v 0.288378 1.595026 -0.013990
v 0.131662 1.372709 -0.177972
v 0.288378 1.595026 -0.013990
v 0.194914 1.373855 -0.010965
v 0.288378 1.595026 -0.013990
v 0.202936 1.819417 -0.017060
v 0.139683 1.822840 0.149916
v 0.288378 1.595026 -0.013990
v 0.139683 1.822840 0.149916
v 0.198925 1.599866 0.222149
v 0.198925 1.599866 0.222149
v 0.139683 1.822840 0.149916
v -0.013022 1.826535 0.219049
v 0.198925 1.599866 0.222149
v -0.013022 1.826535 0.219049
v -0.017033 1.605091 0.319918
v -0.017033 1.605091 0.319918
v -0.013022 1.826535 0.219049
v -0.165727 1.828337 0.149841
v -0.017033 1.605091 0.319918
v -0.165727 1.828337 0.149841
v -0.232991 1.607641 0.222043
v -0.232991 1.607641 0.222043
v -0.165727 1.828337 0.149841
v -0.228980 1.827192 -0.017166
v -0.232991 1.607641 0.222043
v -0.228980 1.827192 -0.017166
v -0.322443 1.606020 -0.014141
v -0.322443 1.606020 -0.014141
v -0.228980 1.827192 -0.017166
v -0.165727 1.823769 -0.184142
v -0.322443 1.606020 -0.014141
v -0.165727 1.823769 -0.184142
v -0.232991 1.601180 -0.250280
v -0.232991 1.601180 -0.250280
v -0.165727 1.823769 -0.184142
v -0.013022 1.820074 -0.253275
v -0.232991 1.601180 -0.250280
v -0.013022 1.820074 -0.253275
v -0.017033 1.595955 -0.348049
v -0.017033 1.595955 -0.348049
v -0.013022 1.820074 -0.253275
v 0.139683 1.818272 -0.184067
v -0.017033 1.595955 -0.348049
v 0.139683 1.818272 -0.184067
v 0.198925 1.593406 -0.250174
v 0.198925 1.593406 -0.250174
v 0.139683 1.818272 -0.184067
v 0.202936 1.819417 -0.017060
v 0.198925 1.593406 -0.250174
v 0.202936 1.819417 -0.017060
v 0.288378 1.595026 -0.013990
v 0.202936 1.819417 -0.017060
v -0.011361 1.915584 -0.018375
v -0.011361 1.915584 -0.018375
v 0.202936 1.819417 -0.017060
v -0.011361 1.915584 -0.018375
v 0.139683 1.822840 0.149916
v 0.139683 1.822840 0.149916
v -0.011361 1.915584 -0.018375
v -0.011361 1.915584 -0.018375
v 0.139683 1.822840 0.149916
v -0.011361 1.915584 -0.018375
v -0.013022 1.826535 0.219049
v -0.013022 1.826535 0.219049
v -0.011361 1.915584 -0.018375
v -0.011361 1.915584 -0.018375
v -0.013022 1.826535 0.219049
v -0.011361 1.915584 -0.018375
v -0.165727 1.828337 0.149841
v -0.165727 1.828337 0.149841
v -0.011361 1.915584 -0.018375
v -0.011361 1.915584 -0.018375
v -0.165727 1.828337 0.149841
v -0.011361 1.915584 -0.018375
v -0.228980 1.827192 -0.017166
v -0.228980 1.827192 -0.017166
v -0.011361 1.915584 -0.018375
v -0.011361 1.915584 -0.018375
v -0.228980 1.827192 -0.017166
v -0.011361 1.915584 -0.018375
v -0.165727 1.823769 -0.184142
v -0.165727 1.823769 -0.184142
v -0.011361 1.915584 -0.018375
v -0.011361 1.915584 -0.018375
v -0.165727 1.823769 -0.184142
v -0.011361 1.915584 -0.018375
v -0.013022 1.820074 -0.253275
v -0.013022 1.820074 -0.253275
v -0.011361 1.915584 -0.018375
v -0.011361 1.915584 -0.018375
v -0.013022 1.820074 -0.253275
v -0.011361 1.915584 -0.018375
v 0.139683 1.818272 -0.184067
v 0.139683 1.818272 -0.184067
v -0.011361 1.915584 -0.018375
v -0.011361 1.915584 -0.018375
v 0.139683 1.818272 -0.184067
v -0.011361 1.915584 -0.018375
v 0.202936 1.819417 -0.017060
v -0.192667 1.207327 0.177427
v 0.044975 1.302911 0.176119
v -0.024102 1.306230 0.327823
v -0.192667 1.207327 0.177427
v -0.024102 1.306230 0.327823
v -0.192667 1.207327 0.177427
v -0.192667 1.207327 0.177427
v -0.024102 1.306230 0.327823
v -0.190869 1.310091 0.390626
v -0.192667 1.207327 0.177427
v -0.190869 1.310091 0.390626
v -0.192667 1.207327 0.177427
v -0.192667 1.207327 0.177427
v -0.190869 1.310091 0.390626
v -0.357636 1.312233 0.327740
v -0.192667 1.207327 0.177427
v -0.357636 1.312233 0.327740
v -0.192667 1.207327 0.177427
v -0.192667 1.207327 0.177427
v -0.357636 1.312233 0.327740
v -0.426713 1.311402 0.176003
v -0.192667 1.207327 0.177427
v -0.426713 1.311402 0.176003
v -0.192667 1.207327 0.177427
v -0.192667 1.207327 0.177427
v -0.426713 1.311402 0.176003
v -0.357636 1.308083 0.024300
v -0.192667 1.207327 0.177427
v -0.357636 1.308083 0.024300
v -0.192667 1.207327 0.177427
v -0.192667 1.207327 0.177427
v -0.357636 1.308083 0.024300
v -0.190869 1.304222 -0.038504
v -0.192667 1.207327 0.177427
v -0.190869 1.304222 -0.038504
v -0.192667 1.207327 0.177427
v -0.192667 1.207327 0.177427
v -0.190869 1.304222 -0.038504
v -0.024102 1.302079 0.024382
v -0.192667 1.207327 0.177427
v -0.024102 1.302079 0.024382
v -0.192667 1.207327 0.177427
v -0.192667 1.207327 0.177427
v -0.024102 1.302079 0.024382
v 0.044975 1.302911 0.176119
v -0.192667 1.207327 0.177427
v 0.044975 1.302911 0.176119
v -0.192667 1.207327 0.177427
v 0.044975 1.302911 0.176119
v 0.147004 1.542162 0.172847
v 0.049314 1.546855 0.387388
v 0.044975 1.302911 0.176119
v 0.049314 1.546855 0.387388
v -0.024102 1.306230 0.327823
v -0.024102 1.306230 0.327823
v 0.049314 1.546855 0.387388
v -0.186530 1.552316 0.476205
v -0.024102 1.306230 0.327823
v -0.186530 1.552316 0.476205
v -0.190869 1.310091 0.390626
v -0.190869 1.310091 0.390626
v -0.186530 1.552316 0.476205
v -0.422374 1.555345 0.387271
v -0.190869 1.310091 0.390626
v -0.422374 1.555345 0.387271
v -0.357636 1.312233 0.327740
v -0.357636 1.312233 0.327740
v -0.422374 1.555345 0.387271
v -0.520064 1.554169 0.172683
v -0.357636 1.312233 0.327740
v -0.520064 1.554169 0.172683
v -0.426713 1.311402 0.176003
v -0.426713 1.311402 0.176003
v -0.520064 1.554169 0.172683
v -0.422374 1.549476 -0.041858
v -0.426713 1.311402 0.176003
v -0.422374 1.549476 -0.041858
v -0.357636 1.308083 0.024300
v -0.357636 1.308083 0.024300
v -0.422374 1.549476 -0.041858
v -0.186530 1.544015 -0.130676
v -0.357636 1.308083 0.024300
v -0.186530 1.544015 -0.130676
v -0.190869 1.304222 -0.038504
v -0.190869 1.304222 -0.038504
v -0.186530 1.544015 -0.130676
v 0.049314 1.540985 -0.041742
v -0.190869 1.304222 -0.038504
v 0.049314 1.540985 -0.041742
v -0.024102 1.302079 0.024382
v -0.024102 1.302079 0.024382
v 0.049314 1.540985 -0.041742
v 0.147004 1.542162 0.172847
v -0.024102 1.302079 0.024382
v 0.147004 1.542162 0.172847
v 0.044975 1.302911 0.176119
v 0.147004 1.542162 0.172847
v 0.053653 1.784929 0.169526
v -0.015424 1.788248 0.321229
v 0.147004 1.542162 0.172847
v -0.015424 1.788248 0.321229
v 0.049314 1.546855 0.387388
v 0.049314 1.546855 0.387388
v -0.015424 1.788248 0.321229
v -0.182191 1.792109 0.384033
v 0.049314 1.546855 0.387388
v -0.182191 1.792109 0.384033
v -0.186530 1.552316 0.476205
v -0.186530 1.552316 0.476205
v -0.182191 1.792109 0.384033
v -0.348958 1.794251 0.321147
v -0.186530 1.552316 0.476205
v -0.348958 1.794251 0.321147
v -0.422374 1.555345 0.387271
v -0.422374 1.555345 0.387271
v -0.348958 1.794251 0.321147
v -0.418036 1.793419 0.169410
v -0.422374 1.555345 0.387271
v -0.418036 1.793419 0.169410
v -0.520064 1.554169 0.172683
v -0.520064 1.554169 0.172683
v -0.418036 1.793419 0.169410
v -0.348958 1.790101 0.017707
v -0.520064 1.554169 0.172683
v -0.348958 1.790101 0.017707
v -0.422374 1.549476 -0.041858
v -0.422374 1.549476 -0.041858
v -0.348958 1.790101 0.017707
v -0.182191 1.786239 -0.045097
v -0.422374 1.549476 -0.041858
v -0.182191 1.786239 -0.045097
v -0.186530 1.544015 -0.130676
v -0.186530 1.544015 -0.130676
v -0.182191 1.786239 -0.045097
v -0.015424 1.784097 0.017789
v -0.186530 1.544015 -0.130676
v -0.015424 1.784097 0.017789
v 0.049314 1.540985 -0.041742
v 0.049314 1.540985 -0.041742
v -0.015424 1.784097 0.017789
v 0.053653 1.784929 0.169526
v 0.049314 1.540985 -0.041742
v 0.053653 1.784929 0.169526
v 0.147004 1.542162 0.172847
v 0.053653 1.784929 0.169526
v -0.180394 1.889003 0.168103
v -0.180394 1.889003 0.168103
v 0.053653 1.784929 0.169526
v -0.180394 1.889003 0.168103
v -0.015424 1.788248 0.321229
v -0.015424 1.788248 0.321229
v -0.180394 1.889003 0.168103
v -0.180394 1.889003 0.168103
v -0.015424 1.788248 0.321229
v -0.180394 1.889003 0.168103
v -0.182191 1.792109 0.384033
v -0.182191 1.792109 0.384033
v -0.180394 1.889003 0.168103
v -0.180394 1.889003 0.168103
v -0.182191 1.792109 0.384033
v -0.180394 1.889003 0.168103
v -0.348958 1.794251 0.321147
v -0.348958 1.794251 0.321147
v -0.180394 1.889003 0.168103
v -0.180394 1.889003 0.168103
v -0.348958 1.794251 0.321147
v -0.180394 1.889003 0.168103
v -0.418036 1.793419 0.169410
v -0.418036 1.793419 0.169410
v -0.180394 1.889003 0.168103
v -0.180394 1.889003 0.168103
v -0.418036 1.793419 0.169410
v -0.180394 1.889003 0.168103
v -0.348958 1.790101 0.017707
v -0.348958 1.790101 0.017707
v -0.180394 1.889003 0.168103
v -0.180394 1.889003 0.168103
v -0.348958 1.790101 0.017707
v -0.180394 1.889003 0.168103
v -0.182191 1.786239 -0.045097
v -0.182191 1.786239 -0.045097
v -0.180394 1.889003 0.168103
v -0.180394 1.889003 0.168103
v -0.182191 1.786239 -0.045097
v -0.180394 1.889003 0.168103
v -0.015424 1.784097 0.017789
v -0.015424 1.784097 0.017789
v -0.180394 1.889003 0.168103
v -0.180394 1.889003 0.168103
v -0.015424 1.784097 0.017789
v -0.180394 1.889003 0.168103
v 0.053653 1.784929 0.169526
v -0.264514 1.358169 -0.190932
v -0.092278 1.430259 -0.191918
v -0.142328 1.432756 -0.075202
v -0.264514 1.358169 -0.190932
v -0.142328 1.432756 -0.075202
v -0.264514 1.358169 -0.190932
v -0.264514 1.358169 -0.190932
v -0.142328 1.432756 -0.075202
v -0.263161 1.435593 -0.026881
v -0.264514 1.358169 -0.190932
v -0.263161 1.435593 -0.026881
v -0.264514 1.358169 -0.190932
v -0.264514 1.358169 -0.190932
v -0.263161 1.435593 -0.026881
v -0.383993 1.437106 -0.075261
v -0.264514 1.358169 -0.190932
v -0.383993 1.437106 -0.075261
v -0.264514 1.358169 -0.190932
v -0.264514 1.358169 -0.190932
v -0.383993 1.437106 -0.075261
v -0.434044 1.436411 -0.192002
v -0.264514 1.358169 -0.190932
v -0.434044 1.436411 -0.192002
v -0.264514 1.358169 -0.190932
v -0.264514 1.358169 -0.190932
v -0.434044 1.436411 -0.192002
v -0.383993 1.433913 -0.308718
v -0.264514 1.358169 -0.190932
v -0.383993 1.433913 -0.308718
v -0.264514 1.358169 -0.190932
v -0.264514 1.358169 -0.190932
v -0.383993 1.433913 -0.308718
v -0.263161 1.431077 -0.357039
v -0.264514 1.358169 -0.190932
v -0.263161 1.431077 -0.357039
v -0.264514 1.358169 -0.190932
v -0.264514 1.358169 -0.190932
v -0.263161 1.431077 -0.357039
v -0.142328 1.429563 -0.308658
v -0.264514 1.358169 -0.190932
v -0.142328 1.429563 -0.308658
v -0.264514 1.358169 -0.190932
v -0.264514 1.358169 -0.190932
v -0.142328 1.429563 -0.308658
v -0.092278 1.430259 -0.191918
v -0.264514 1.358169 -0.190932
v -0.092278 1.430259 -0.191918
v -0.264514 1.358169 -0.190932
v -0.092278 1.430259 -0.191918
v -0.018229 1.610451 -0.194383
v -0.089011 1.613984 -0.029321
v -0.092278 1.430259 -0.191918
v -0.089011 1.613984 -0.029321
v -0.142328 1.432756 -0.075202
v -0.142328 1.432756 -0.075202
v -0.089011 1.613984 -0.029321
v -0.259894 1.617995 0.039014
v -0.142328 1.432756 -0.075202
v -0.259894 1.617995 0.039014
v -0.263161 1.435593 -0.026881
v -0.263161 1.435593 -0.026881
v -0.259894 1.617995 0.039014
v -0.430777 1.620135 -0.029405
v -0.263161 1.435593 -0.026881
v -0.430777 1.620135 -0.029405
v -0.383993 1.437106 -0.075261
v -0.383993 1.437106 -0.075261
v -0.430777 1.620135 -0.029405
v -0.501559 1.619151 -0.194502
v -0.383993 1.437106 -0.075261
v -0.501559 1.619151 -0.194502
v -0.434044 1.436411 -0.192002
v -0.434044 1.436411 -0.192002
v -0.501559 1.619151 -0.194502
v -0.430777 1.615619 -0.359563
v -0.434044 1.436411 -0.192002
v -0.430777 1.615619 -0.359563
v -0.383993 1.433913 -0.308718
v -0.383993 1.433913 -0.308718
v -0.430777 1.615619 -0.359563
v -0.259894 1.611608 -0.427899
v -0.383993 1.433913 -0.308718
v -0.259894 1.611608 -0.427899
v -0.263161 1.431077 -0.357039
v -0.263161 1.431077 -0.357039
v -0.259894 1.611608 -0.427899
v -0.089011 1.609468 -0.359479
v -0.263161 1.431077 -0.357039
v -0.089011 1.609468 -0.359479
v -0.142328 1.429563 -0.308658
v -0.142328 1.429563 -0.308658
v -0.089011 1.609468 -0.359479
v -0.018229 1.610451 -0.194383
v -0.142328 1.429563 -0.308658
v -0.018229 1.610451 -0.194383
v -0.092278 1.430259 -0.191918
v -0.018229 1.610451 -0.194383
v -0.085744 1.793192 -0.196882
v -0.135794 1.795690 -0.080166
v -0.018229 1.610451 -0.194383
v -0.135794 1.795690 -0.080166
v -0.089011 1.613984 -0.029321
v -0.089011 1.613984 -0.029321
v -0.135794 1.795690 -0.080166
v -0.256627 1.798526 -0.031845
v -0.089011 1.613984 -0.029321
v -0.256627 1.798526 -0.031845
v -0.259894 1.617995 0.039014
v -0.259894 1.617995 0.039014
v -0.256627 1.798526 -0.031845
v -0.377459 1.800040 -0.080226
v -0.259894 1.617995 0.039014
v -0.377459 1.800040 -0.080226
v -0.430777 1.620135 -0.029405
v -0.430777 1.620135 -0.029405
v -0.377459 1.800040 -0.080226
v -0.427510 1.799344 -0.196966
v -0.430777 1.620135 -0.029405
v -0.427510 1.799344 -0.196966
v -0.501559 1.619151 -0.194502
v -0.501559 1.619151 -0.194502
v -0.427510 1.799344 -0.196966
v -0.377459 1.796846 -0.313682
v -0.501559 1.619151 -0.194502
v -0.377459 1.796846 -0.313682
v -0.430777 1.615619 -0.359563
v -0.430777 1.615619 -0.359563
v -0.377459 1.796846 -0.313682
v -0.256627 1.794010 -0.362003
v -0.430777 1.615619 -0.359563
v -0.256627 1.794010 -0.362003
v -0.259894 1.611608 -0.427899
v -0.259894 1.611608 -0.427899
v -0.256627 1.794010 -0.362003
v -0.135794 1.792496 -0.313623
v -0.259894 1.611608 -0.427899
v -0.135794 1.792496 -0.313623
v -0.089011 1.609468 -0.359479
v -0.089011 1.609468 -0.359479
v -0.135794 1.792496 -0.313623
v -0.085744 1.793192 -0.196882
v -0.089011 1.609468 -0.359479
v -0.085744 1.793192 -0.196882
v -0.018229 1.610451 -0.194383
v -0.085744 1.793192 -0.196882
v -0.255274 1.871434 -0.197952
v -0.255274 1.871434 -0.197952
v -0.085744 1.793192 -0.196882
v -0.255274 1.871434 -0.197952
v -0.135794 1.795690 -0.080166
v -0.135794 1.795690 -0.080166
v -0.255274 1.871434 -0.197952
v -0.255274 1.871434 -0.197952
v -0.135794 1.795690 -0.080166
v -0.255274 1.871434 -0.197952
v -0.256627 1.798526 -0.031845
v -0.256627 1.798526 -0.031845
v -0.255274 1.871434 -0.197952
v -0.255274 1.871434 -0.197952
v -0.256627 1.798526 -0.031845
v -0.255274 1.871434 -0.197952
v -0.377459 1.800040 -0.080226
v -0.377459 1.800040 -0.080226
v -0.255274 1.871434 -0.197952
v -0.255274 1.871434 -0.197952
v -0.377459 1.800040 -0.080226
v -0.255274 1.871434 -0.197952
v -0.427510 1.799344 -0.196966
v -0.427510 1.799344 -0.196966
v -0.255274 1.871434 -0.197952
v -0.255274 1.871434 -0.197952
v -0.427510 1.799344 -0.196966
v -0.255274 1.871434 -0.197952
v -0.377459 1.796846 -0.313682
v -0.377459 1.796846 -0.313682
v -0.255274 1.871434 -0.197952
v -0.255274 1.871434 -0.197952
v -0.377459 1.796846 -0.313682
v -0.255274 1.871434 -0.197952
v -0.256627 1.794010 -0.362003
v -0.256627 1.794010 -0.362003
v -0.255274 1.871434 -0.197952
v -0.255274 1.871434 -0.197952
v -0.256627 1.794010 -0.362003
v -0.255274 1.871434 -0.197952
v -0.135794 1.792496 -0.313623
v -0.135794 1.792496 -0.313623
v -0.255274 1.871434 -0.197952
v -0.255274 1.871434 -0.197952
v -0.135794 1.792496 -0.313623
v -0.255274 1.871434 -0.197952
v -0.085744 1.793192 -0.196882
v 0.155950 1.093398 -0.310982
v 0.348208 1.172680 -0.312066
v 0.292333 1.175572 -0.174179
v 0.155950 1.093398 -0.310982
v 0.292333 1.175572 -0.174179
v 0.155950 1.093398 -0.310982
v 0.155950 1.093398 -0.310982
v 0.292333 1.175572 -0.174179
v 0.157439 1.178781 -0.117091
v 0.155950 1.093398 -0.310982
v 0.157439 1.178781 -0.117091
v 0.155950 1.093398 -0.310982
v 0.155950 1.093398 -0.310982
v 0.157439 1.178781 -0.117091
v 0.022545 1.180428 -0.174245
v 0.155950 1.093398 -0.310982
v 0.022545 1.180428 -0.174245
v 0.155950 1.093398 -0.310982
v 0.155950 1.093398 -0.310982
v 0.022545 1.180428 -0.174245
v -0.033330 1.179548 -0.312160
v 0.155950 1.093398 -0.310982
v -0.033330 1.179548 -0.312160
v 0.155950 1.093398 -0.310982
v 0.155950 1.093398 -0.310982
v -0.033330 1.179548 -0.312160
v 0.022545 1.176656 -0.450048
v 0.155950 1.093398 -0.310982
v 0.022545 1.176656 -0.450048
v 0.155950 1.093398 -0.310982
v 0.155950 1.093398 -0.310982
v 0.022545 1.176656 -0.450048
v 0.157439 1.173446 -0.507136
v 0.155950 1.093398 -0.310982
v 0.157439 1.173446 -0.507136
v 0.155950 1.093398 -0.310982
v 0.155950 1.093398 -0.310982
v 0.157439 1.173446 -0.507136
v 0.292333 1.171799 -0.449982
v 0.155950 1.093398 -0.310982
v 0.292333 1.171799 -0.449982
v 0.155950 1.093398 -0.310982
v 0.155950 1.093398 -0.310982
v 0.292333 1.171799 -0.449982
v 0.348208 1.172680 -0.312066
v 0.155950 1.093398 -0.310982
v 0.348208 1.172680 -0.312066
v 0.155950 1.093398 -0.310982
v 0.348208 1.172680 -0.312066
v 0.430822 1.370952 -0.314778
v 0.351803 1.375041 -0.119776
v 0.348208 1.172680 -0.312066
v 0.351803 1.375041 -0.119776
v 0.292333 1.175572 -0.174179
v 0.292333 1.175572 -0.174179
v 0.351803 1.375041 -0.119776
v 0.161034 1.379580 -0.039042
v 0.292333 1.175572 -0.174179
v 0.161034 1.379580 -0.039042
v 0.157439 1.178781 -0.117091
v 0.157439 1.178781 -0.117091
v 0.161034 1.379580 -0.039042
v -0.029735 1.381909 -0.119870
v 0.157439 1.178781 -0.117091
v -0.029735 1.381909 -0.119870
v 0.022545 1.180428 -0.174245
v 0.022545 1.180428 -0.174245
v -0.029735 1.381909 -0.119870
v -0.108754 1.380664 -0.314911
v 0.022545 1.180428 -0.174245
v -0.108754 1.380664 -0.314911
v -0.033330 1.179548 -0.312160
v -0.033330 1.179548 -0.312160
v -0.108754 1.380664 -0.314911
v -0.029735 1.376574 -0.509914
v -0.033330 1.179548 -0.312160
v -0.029735 1.376574 -0.509914
v 0.022545 1.176656 -0.450048
v 0.022545 1.176656 -0.450048
v -0.029735 1.376574 -0.509914
v 0.161034 1.372035 -0.590648
v 0.022545 1.176656 -0.450048
v 0.161034 1.372035 -0.590648
v 0.157439 1.173446 -0.507136
v 0.157439 1.173446 -0.507136
v 0.161034 1.372035 -0.590648
v 0.351803 1.369706 -0.509820
v 0.157439 1.173446 -0.507136
v 0.351803 1.369706 -0.509820
v 0.292333 1.171799 -0.449982
v 0.292333 1.171799 -0.449982
v 0.351803 1.369706 -0.509820
v 0.430822 1.370952 -0.314778
v 0.292333 1.171799 -0.449982
v 0.430822 1.370952 -0.314778
v 0.348208 1.172680 -0.312066
v 0.430822 1.370952 -0.314778
v 0.355398 1.572068 -0.317529
v 0.299523 1.574960 -0.179642
v 0.430822 1.370952 -0.314778
v 0.299523 1.574960 -0.179642
v 0.351803 1.375041 -0.119776
v 0.351803 1.375041 -0.119776
v 0.299523 1.574960 -0.179642
v 0.164629 1.578169 -0.122554
v 0.351803 1.375041 -0.119776
v 0.164629 1.578169 -0.122554
v 0.161034 1.379580 -0.039042
v 0.161034 1.379580 -0.039042
v 0.164629 1.578169 -0.122554
v 0.029735 1.579816 -0.179708
v 0.161034 1.379580 -0.039042
v 0.029735 1.579816 -0.179708
v -0.029735 1.381909 -0.119870
v -0.029735 1.381909 -0.119870
v 0.029735 1.579816 -0.179708
v -0.026140 1.578935 -0.317623
v -0.029735 1.381909 -0.119870
v -0.026140 1.578935 -0.317623
v -0.108754 1.380664 -0.314911
v -0.108754 1.380664 -0.314911
v -0.026140 1.578935 -0.317623
v 0.029735 1.576043 -0.455511
v -0.108754 1.380664 -0.314911
v 0.029735 1.576043 -0.455511
v -0.029735 1.376574 -0.509914
v -0.029735 1.376574 -0.509914
v 0.029735 1.576043 -0.455511
v 0.164629 1.572834 -0.512598
v -0.029735 1.376574 -0.509914
v 0.164629 1.572834 -0.512598
v 0.161034 1.372035 -0.590648
v 0.161034 1.372035 -0.590648
v 0.164629 1.572834 -0.512598
v 0.299523 1.571187 -0.455445
v 0.161034 1.372035 -0.590648
v 0.299523 1.571187 -0.455445
v 0.351803 1.369706 -0.509820
v 0.351803 1.369706 -0.509820
v 0.299523 1.571187 -0.455445
v 0.355398 1.572068 -0.317529
v 0.351803 1.369706 -0.509820
v 0.355398 1.572068 -0.317529
v 0.430822 1.370952 -0.314778
v 0.355398 1.572068 -0.317529
v 0.166118 1.658218 -0.318708
v 0.166118 1.658218 -0.318708
v 0.355398 1.572068 -0.317529
v 0.166118 1.658218 -0.318708
v 0.299523 1.574960 -0.179642
v 0.299523 1.574960 -0.179642
v 0.166118 1.658218 -0.318708
v 0.166118 1.658218 -0.318708
v 0.299523 1.574960 -0.179642
v 0.166118 1.658218 -0.318708
v 0.164629 1.578169 -0.122554
v 0.164629 1.578169 -0.122554
v 0.166118 1.658218 -0.318708
v 0.166118 1.658218 -0.318708
v 0.164629 1.578169 -0.122554
v 0.166118 1.658218 -0.318708
v 0.029735 1.579816 -0.179708
v 0.029735 1.579816 -0.179708
v 0.166118 1.658218 -0.318708
v 0.166118 1.658218 -0.318708
v 0.029735 1.579816 -0.179708
v 0.166118 1.658218 -0.318708
v -0.026140 1.578935 -0.317623
v -0.026140 1.578935 -0.317623
v 0.166118 1.658218 -0.318708
v 0.166118 1.658218 -0.318708
v -0.026140 1.578935 -0.317623
v 0.166118 1.658218 -0.318708
v 0.029735 1.576043 -0.455511
v 0.029735 1.576043 -0.455511
v 0.166118 1.658218 -0.318708
v 0.166118 1.658218 -0.318708
v 0.029735 1.576043 -0.455511
v 0.166118 1.658218 -0.318708
v 0.164629 1.572834 -0.512598
v 0.164629 1.572834 -0.512598
v 0.166118 1.658218 -0.318708
v 0.166118 1.658218 -0.318708
v 0.164629 1.572834 -0.512598
v 0.166118 1.658218 -0.318708
v 0.299523 1.571187 -0.455445
v 0.299523 1.571187 -0.455445
v 0.166118 1.658218 -0.318708
v 0.166118 1.658218 -0.318708
v 0.299523 1.571187 -0.455445
v 0.166118 1.658218 -0.318708
v 0.355398 1.572068 -0.317529
v 0.142687 1.143415 0.071479
v 0.354967 1.229890 0.070297
v 0.293268 1.233198 0.230938
v 0.142687 1.143415 0.071479
v 0.293268 1.233198 0.230938
v 0.142687 1.143415 0.071479
v 0.142687 1.143415 0.071479
v 0.293268 1.233198 0.230938
v 0.144312 1.236789 0.297448
v 0.142687 1.143415 0.071479
v 0.144312 1.236789 0.297448
v 0.142687 1.143415 0.071479
v 0.142687 1.143415 0.071479
v 0.144312 1.236789 0.297448
v -0.004644 1.238560 0.230865
v 0.142687 1.143415 0.071479
v -0.004644 1.238560 0.230865
v 0.142687 1.143415 0.071479
v 0.142687 1.143415 0.071479
v -0.004644 1.238560 0.230865
v -0.066343 1.237473 0.070193
v 0.142687 1.143415 0.071479
v -0.066343 1.237473 0.070193
v 0.142687 1.143415 0.071479
v 0.142687 1.143415 0.071479
v -0.066343 1.237473 0.070193
v -0.004644 1.234165 -0.090449
v 0.142687 1.143415 0.071479
v -0.004644 1.234165 -0.090449
v 0.142687 1.143415 0.071479
v 0.142687 1.143415 0.071479
v -0.004644 1.234165 -0.090449
v 0.144312 1.230574 -0.156958
v 0.142687 1.143415 0.071479
v 0.144312 1.230574 -0.156958
v 0.142687 1.143415 0.071479
v 0.142687 1.143415 0.071479
v 0.144312 1.230574 -0.156958
v 0.293268 1.228803 -0.090375
v 0.142687 1.143415 0.071479
v 0.293268 1.228803 -0.090375
v 0.142687 1.143415 0.071479
v 0.142687 1.143415 0.071479
v 0.293268 1.228803 -0.090375
v 0.354967 1.229890 0.070297
v 0.142687 1.143415 0.071479
v 0.354967 1.229890 0.070297
v 0.142687 1.143415 0.071479
v 0.354967 1.229890 0.070297
v 0.446147 1.446240 0.067337
v 0.358891 1.450919 0.294519
v 0.354967 1.229890 0.070297
v 0.358891 1.450919 0.294519
v 0.293268 1.233198 0.230938
v 0.293268 1.233198 0.230938
v 0.358891 1.450919 0.294519
v 0.148235 1.455998 0.388578
v 0.293268 1.233198 0.230938
v 0.148235 1.455998 0.388578
v 0.144312 1.236789 0.297448
v 0.144312 1.236789 0.297448
v 0.148235 1.455998 0.388578
v -0.062420 1.458502 0.294415
v 0.144312 1.236789 0.297448
v -0.062420 1.458502 0.294415
v -0.004644 1.238560 0.230865
v -0.004644 1.238560 0.230865
v -0.062420 1.458502 0.294415
v -0.149677 1.456965 0.067191
v -0.004644 1.238560 0.230865
v -0.149677 1.456965 0.067191
v -0.066343 1.237473 0.070193
v -0.066343 1.237473 0.070193
v -0.149677 1.456965 0.067191
v -0.062420 1.452287 -0.159991
v -0.066343 1.237473 0.070193
v -0.062420 1.452287 -0.159991
v -0.004644 1.234165 -0.090449
v -0.004644 1.234165 -0.090449
v -0.062420 1.452287 -0.159991
v 0.148235 1.447208 -0.254050
v -0.004644 1.234165 -0.090449
v 0.148235 1.447208 -0.254050
v 0.144312 1.230574 -0.156958
v 0.144312 1.230574 -0.156958
v 0.148235 1.447208 -0.254050
v 0.358891 1.444703 -0.159887
v 0.144312 1.230574 -0.156958
v 0.358891 1.444703 -0.159887
v 0.293268 1.228803 -0.090375
v 0.293268 1.228803 -0.090375
v 0.358891 1.444703 -0.159887
v 0.446147 1.446240 0.067337
v 0.293268 1.228803 -0.090375
v 0.446147 1.446240 0.067337
v 0.354967 1.229890 0.070297
v 0.446147 1.446240 0.067337
v 0.362814 1.665732 0.064335
v 0.301114 1.669040 0.224977
v 0.446147 1.446240 0.067337
v 0.301114 1.669040 0.224977
v 0.358891 1.450919 0.294519
v 0.358891 1.450919 0.294519
v 0.301114 1.669040 0.224977
v 0.152159 1.672632 0.291486
v 0.358891 1.450919 0.294519
v 0.152159 1.672632 0.291486
v 0.148235 1.455998 0.388578
v 0.148235 1.455998 0.388578
v 0.152159 1.672632 0.291486
v 0.003203 1.674403 0.224903
v 0.148235 1.455998 0.388578
v 0.003203 1.674403 0.224903
v -0.062420 1.458502 0.294415
v -0.062420 1.458502 0.294415
v 0.003203 1.674403 0.224903
v -0.058497 1.673316 0.064231
v -0.062420 1.458502 0.294415
v -0.058497 1.673316 0.064231
v -0.149677 1.456965 0.067191
v -0.149677 1.456965 0.067191
v -0.058497 1.673316 0.064231
v 0.003203 1.670008 -0.096410
v -0.149677 1.456965 0.067191
v 0.003203 1.670008 -0.096410
v -0.062420 1.452287 -0.159991
v -0.062420 1.452287 -0.159991
v 0.003203 1.670008 -0.096410
v 0.152159 1.666416 -0.162920
v -0.062420 1.452287 -0.159991
v 0.152159 1.666416 -0.162920
v 0.148235 1.447208 -0.254050
v 0.148235 1.447208 -0.254050
v 0.152159 1.666416 -0.162920
v 0.301114 1.664645 -0.096337
v 0.148235 1.447208 -0.254050
v 0.301114 1.664645 -0.096337
v 0.358891 1.444703 -0.159887
v 0.358891 1.444703 -0.159887
v 0.301114 1.664645 -0.096337
v 0.362814 1.665732 0.064335
v 0.358891 1.444703 -0.159887
v 0.362814 1.665732 0.064335
v 0.446147 1.446240 0.067337
v 0.362814 1.665732 0.064335
v 0.153784 1.759790 0.063049
v 0.153784 1.759790 0.063049
v 0.362814 1.665732 0.064335
v 0.153784 1.759790 0.063049
v 0.301114 1.669040 0.224977
v 0.301114 1.669040 0.224977
v 0.153784 1.759790 0.063049
v 0.153784 1.759790 0.063049
v 0.301114 1.669040 0.224977
v 0.153784 1.759790 0.063049
v 0.152159 1.672632 0.291486
v 0.152159 1.672632 0.291486
v 0.153784 1.759790 0.063049
v 0.153784 1.759790 0.063049
v 0.152159 1.672632 0.291486
v 0.153784 1.759790 0.063049
v 0.003203 1.674403 0.224903
v 0.003203 1.674403 0.224903
v 0.153784 1.759790 0.063049
v 0.153784 1.759790 0.063049
v 0.003203 1.674403 0.224903
v 0.153784 1.759790 0.063049
v -0.058497 1.673316 0.064231
v -0.058497 1.673316 0.064231
v 0.153784 1.759790 0.063049
v 0.153784 1.759790 0.063049
v -0.058497 1.673316 0.064231
v 0.153784 1.759790 0.063049
v 0.003203 1.670008 -0.096410
v 0.003203 1.670008 -0.096410
v 0.153784 1.759790 0.063049
v 0.153784 1.759790 0.063049
v 0.003203 1.670008 -0.096410
v 0.153784 1.759790 0.063049
v 0.152159 1.666416 -0.162920
v 0.152159 1.666416 -0.162920
v 0.153784 1.759790 0.063049
v 0.153784 1.759790 0.063049
v 0.152159 1.666416 -0.162920
v 0.153784 1.759790 0.063049
v 0.301114 1.664645 -0.096337
v 0.301114 1.664645 -0.096337
v 0.153784 1.759790 0.063049
v 0.153784 1.759790 0.063049
v 0.301114 1.664645 -0.096337
v 0.153784 1.759790 0.063049
v 0.362814 1.665732 0.064335
v -0.104229 1.194371 0.214968
v 0.128074 1.288037 0.213687
v 0.060550 1.291248 0.359534
v -0.104229 1.194371 0.214968
v 0.060550 1.291248 0.359534
v -0.104229 1.194371 0.214968
v -0.104229 1.194371 0.214968
v 0.060550 1.291248 0.359534
v -0.102468 1.295008 0.419913
v -0.104229 1.194371 0.214968
v -0.102468 1.295008 0.419913
v -0.104229 1.194371 0.214968
v -0.104229 1.194371 0.214968
v -0.102468 1.295008 0.419913
v -0.265485 1.297116 0.359454
v -0.104229 1.194371 0.214968
v -0.265485 1.297116 0.359454
v -0.104229 1.194371 0.214968
v -0.104229 1.194371 0.214968
v -0.265485 1.297116 0.359454
v -0.333009 1.296336 0.213573
v -0.104229 1.194371 0.214968
v -0.333009 1.296336 0.213573
v -0.104229 1.194371 0.214968
v -0.104229 1.194371 0.214968
v -0.333009 1.296336 0.213573
v -0.265485 1.293126 0.067726
v -0.104229 1.194371 0.214968
v -0.265485 1.293126 0.067726
v -0.104229 1.194371 0.214968
v -0.104229 1.194371 0.214968
v -0.265485 1.293126 0.067726
v -0.102468 1.289365 0.007348
v -0.104229 1.194371 0.214968
v -0.102468 1.289365 0.007348
v -0.104229 1.194371 0.214968
v -0.104229 1.194371 0.214968
v -0.102468 1.289365 0.007348
v 0.060550 1.287257 0.067806
v -0.104229 1.194371 0.214968
v 0.060550 1.287257 0.067806
v -0.104229 1.194371 0.214968
v -0.104229 1.194371 0.214968
v 0.060550 1.287257 0.067806
v 0.128074 1.288037 0.213687
v -0.104229 1.194371 0.214968
v 0.128074 1.288037 0.213687
v -0.104229 1.194371 0.214968
v 0.128074 1.288037 0.213687
v 0.227819 1.522467 0.210480
v 0.132326 1.527007 0.416739
v 0.128074 1.288037 0.213687
v 0.132326 1.527007 0.416739
v 0.060550 1.291248 0.359534
v 0.060550 1.291248 0.359534
v 0.132326 1.527007 0.416739
v -0.098216 1.532326 0.502128
v 0.060550 1.291248 0.359534
v -0.098216 1.532326 0.502128
v -0.102468 1.295008 0.419913
v -0.102468 1.295008 0.419913
v -0.098216 1.532326 0.502128
v -0.328758 1.535307 0.416626
v -0.102468 1.295008 0.419913
v -0.328758 1.535307 0.416626
v -0.265485 1.297116 0.359454
v -0.265485 1.297116 0.359454
v -0.328758 1.535307 0.416626
v -0.424251 1.534204 0.210320
v -0.265485 1.297116 0.359454
v -0.424251 1.534204 0.210320
v -0.333009 1.296336 0.213573
v -0.333009 1.296336 0.213573
v -0.424251 1.534204 0.210320
v -0.328758 1.529664 0.004061
v -0.333009 1.296336 0.213573
v -0.328758 1.529664 0.004061
v -0.265485 1.293126 0.067726
v -0.265485 1.293126 0.067726
v -0.328758 1.529664 0.004061
v -0.098216 1.524345 -0.081328
v -0.265485 1.293126 0.067726
v -0.098216 1.524345 -0.081328
v -0.102468 1.289365 0.007348
v -0.102468 1.289365 0.007348
v -0.098216 1.524345 -0.081328
v 0.132326 1.521364 0.004174
v -0.102468 1.289365 0.007348
v 0.132326 1.521364 0.004174
v 0.060550 1.287257 0.067806
v 0.060550 1.287257 0.067806
v 0.132326 1.521364 0.004174
v 0.227819 1.522467 0.210480
v 0.060550 1.287257 0.067806
v 0.227819 1.522467 0.210480
v 0.128074 1.288037 0.213687
v 0.227819 1.522467 0.210480
v 0.136577 1.760334 0.207227
v 0.069053 1.763545 0.353074
v 0.227819 1.522467 0.210480
v 0.069053 1.763545 0.353074
v 0.132326 1.527007 0.416739
v 0.132326 1.527007 0.416739
v 0.069053 1.763545 0.353074
v -0.093965 1.767306 0.413452
v 0.132326 1.527007 0.416739
v -0.093965 1.767306 0.413452
v -0.098216 1.532326 0.502128
v -0.098216 1.532326 0.502128
v -0.093965 1.767306 0.413452
v -0.256982 1.769413 0.352994
v -0.098216 1.532326 0.502128
v -0.256982 1.769413 0.352994
v -0.328758 1.535307 0.416626
v -0.328758 1.535307 0.416626
v -0.256982 1.769413 0.352994
v -0.324506 1.768634 0.207113
v -0.328758 1.535307 0.416626
v -0.324506 1.768634 0.207113
v -0.424251 1.534204 0.210320
v -0.424251 1.534204 0.210320
v -0.324506 1.768634 0.207113
v -0.256982 1.765423 0.061266
v -0.424251 1.534204 0.210320
v -0.256982 1.765423 0.061266
v -0.328758 1.529664 0.004061
v -0.328758 1.529664 0.004061
v -0.256982 1.765423 0.061266
v -0.093965 1.761662 0.000887
v -0.328758 1.529664 0.004061
v -0.093965 1.761662 0.000887
v -0.098216 1.524345 -0.081328
v -0.098216 1.524345 -0.081328
v -0.093965 1.761662 0.000887
v 0.069053 1.759555 0.061346
v -0.098216 1.524345 -0.081328
v 0.069053 1.759555 0.061346
v 0.132326 1.521364 0.004174
v 0.132326 1.521364 0.004174
v 0.069053 1.759555 0.061346
v 0.136577 1.760334 0.207227
v 0.132326 1.521364 0.004174
v 0.136577 1.760334 0.207227
v 0.227819 1.522467 0.210480
v 0.136577 1.760334 0.207227
v -0.092204 1.862300 0.205832
v -0.092204 1.862300 0.205832
v 0.136577 1.760334 0.207227
v -0.092204 1.862300 0.205832
v 0.069053 1.763545 0.353074
v 0.069053 1.763545 0.353074
v -0.092204 1.862300 0.205832
v -0.092204 1.862300 0.205832
v 0.069053 1.763545 0.353074
v -0.092204 1.862300 0.205832
v -0.093965 1.767306 0.413452
v -0.093965 1.767306 0.413452
v -0.092204 1.862300 0.205832
v -0.092204 1.862300 0.205832
v -0.093965 1.767306 0.413452
v -0.092204 1.862300 0.205832
v -0.256982 1.769413 0.352994
v -0.256982 1.769413 0.352994
v -0.092204 1.862300 0.205832
v -0.092204 1.862300 0.205832
v -0.256982 1.769413 0.352994
v -0.092204 1.862300 0.205832
v -0.324506 1.768634 0.207113
v -0.324506 1.768634 0.207113
v -0.092204 1.862300 0.205832
v -0.092204 1.862300 0.205832
v -0.324506 1.768634 0.207113
v -0.092204 1.862300 0.205832
v -0.256982 1.765423 0.061266
v -0.256982 1.765423 0.061266
v -0.092204 1.862300 0.205832
v -0.092204 1.862300 0.205832
v -0.256982 1.765423 0.061266
v -0.092204 1.862300 0.205832
v -0.093965 1.761662 0.000887
v -0.093965 1.761662 0.000887
v -0.092204 1.862300 0.205832
v -0.092204 1.862300 0.205832
v -0.093965 1.761662 0.000887
v -0.092204 1.862300 0.205832
v 0.069053 1.759555 0.061346
v 0.069053 1.759555 0.061346
v -0.092204 1.862300 0.205832
v -0.092204 1.862300 0.205832
v 0.069053 1.759555 0.061346
v -0.092204 1.862300 0.205832
v 0.136577 1.760334 0.207227
v -0.301822 1.348470 -0.080700
v -0.050077 1.417116 -0.081639
v -0.123425 1.420739 0.086752
v -0.301822 1.348470 -0.080700
v -0.123425 1.420739 0.086752
v -0.301822 1.348470 -0.080700
v -0.301822 1.348470 -0.080700
v -0.123425 1.420739 0.086752
v -0.300505 1.424881 0.156465
v -0.301822 1.348470 -0.080700
v -0.300505 1.424881 0.156465
v -0.301822 1.348470 -0.080700
v -0.301822 1.348470 -0.080700
v -0.300505 1.424881 0.156465
v -0.477584 1.427114 0.086664
v -0.301822 1.348470 -0.080700
v -0.477584 1.427114 0.086664
v -0.301822 1.348470 -0.080700
v -0.301822 1.348470 -0.080700
v -0.477584 1.427114 0.086664
v -0.550933 1.426131 -0.081762
v -0.301822 1.348470 -0.080700
v -0.550933 1.426131 -0.081762
v -0.301822 1.348470 -0.080700
v -0.301822 1.348470 -0.080700
v -0.550933 1.426131 -0.081762
v -0.477584 1.422507 -0.250152
v -0.301822 1.348470 -0.080700
v -0.477584 1.422507 -0.250152
v -0.301822 1.348470 -0.080700
v -0.301822 1.348470 -0.080700
v -0.477584 1.422507 -0.250152
v -0.300505 1.418366 -0.319866
v -0.301822 1.348470 -0.080700
v -0.300505 1.418366 -0.319866
v -0.301822 1.348470 -0.080700
v -0.301822 1.348470 -0.080700
v -0.300505 1.418366 -0.319866
v -0.123425 1.416132 -0.250065
v -0.301822 1.348470 -0.080700
v -0.123425 1.416132 -0.250065
v -0.301822 1.348470 -0.080700
v -0.301822 1.348470 -0.080700
v -0.123425 1.416132 -0.250065
v -0.050077 1.417116 -0.081639
v -0.301822 1.348470 -0.080700
v -0.050077 1.417116 -0.081639
v -0.301822 1.348470 -0.080700
v -0.050077 1.417116 -0.081639
v 0.056833 1.591855 -0.084029
v -0.046897 1.596979 0.154111
v -0.050077 1.417116 -0.081639
v -0.046897 1.596979 0.154111
v -0.123425 1.420739 0.086752
v -0.123425 1.420739 0.086752
v -0.046897 1.596979 0.154111
v -0.297325 1.602837 0.252701
v -0.123425 1.420739 0.086752
v -0.297325 1.602837 0.252701
v -0.300505 1.424881 0.156465
v -0.300505 1.424881 0.156465
v -0.297325 1.602837 0.252701
v -0.547753 1.605995 0.153988
v -0.300505 1.424881 0.156465
v -0.547753 1.605995 0.153988
v -0.477584 1.427114 0.086664
v -0.477584 1.427114 0.086664
v -0.547753 1.605995 0.153988
v -0.651484 1.604604 -0.084203
v -0.477584 1.427114 0.086664
v -0.651484 1.604604 -0.084203
v -0.550933 1.426131 -0.081762
v -0.550933 1.426131 -0.081762
v -0.651484 1.604604 -0.084203
v -0.547753 1.599480 -0.322343
v -0.550933 1.426131 -0.081762
v -0.547753 1.599480 -0.322343
v -0.477584 1.422507 -0.250152
v -0.477584 1.422507 -0.250152
v -0.547753 1.599480 -0.322343
v -0.297325 1.593622 -0.420933
v -0.477584 1.422507 -0.250152
v -0.297325 1.593622 -0.420933
v -0.300505 1.418366 -0.319866
v -0.300505 1.418366 -0.319866
v -0.297325 1.593622 -0.420933
v -0.046897 1.590464 -0.322220
v -0.300505 1.418366 -0.319866
v -0.046897 1.590464 -0.322220
v -0.123425 1.416132 -0.250065
v -0.123425 1.416132 -0.250065
v -0.046897 1.590464 -0.322220
v 0.056833 1.591855 -0.084029
v -0.123425 1.416132 -0.250065
v 0.056833 1.591855 -0.084029
v -0.050077 1.417116 -0.081639
v 0.056833 1.591855 -0.084029
v -0.043718 1.770328 -0.086470
v -0.117066 1.773952 0.081920
v 0.056833 1.591855 -0.084029
v -0.117066 1.773952 0.081920
v -0.046897 1.596979 0.154111
v -0.046897 1.596979 0.154111
v -0.117066 1.773952 0.081920
v -0.294146 1.778093 0.151634
v -0.046897 1.596979 0.154111
v -0.294146 1.778093 0.151634
v -0.297325 1.602837 0.252701
v -0.297325 1.602837 0.252701
v -0.294146 1.778093 0.151634
v -0.471225 1.780327 0.081833
v -0.297325 1.602837 0.252701
v -0.471225 1.780327 0.081833
v -0.547753 1.605995 0.153988
v -0.547753 1.605995 0.153988
v -0.471225 1.780327 0.081833
v -0.544574 1.779343 -0.086593
v -0.547753 1.605995 0.153988
v -0.544574 1.779343 -0.086593
v -0.651484 1.604604 -0.084203
v -0.651484 1.604604 -0.084203
v -0.544574 1.779343 -0.086593
v -0.471225 1.775720 -0.254984
v -0.651484 1.604604 -0.084203
v -0.471225 1.775720 -0.254984
v -0.547753 1.599480 -0.322343
v -0.547753 1.599480 -0.322343
v -0.471225 1.775720 -0.254984
v -0.294146 1.771578 -0.324697
v -0.547753 1.599480 -0.322343
v -0.294146 1.771578 -0.324697
v -0.297325 1.593622 -0.420933
v -0.297325 1.593622 -0.420933
v -0.294146 1.771578 -0.324697
v -0.117066 1.769345 -0.254896
v -0.297325 1.593622 -0.420933
v -0.117066 1.769345 -0.254896
v -0.046897 1.590464 -0.322220
v -0.046897 1.590464 -0.322220
v -0.117066 1.769345 -0.254896
v -0.043718 1.770328 -0.086470
v -0.046897 1.590464 -0.322220
v -0.043718 1.770328 -0.086470
v 0.056833 1.591855 -0.084029
v -0.043718 1.770328 -0.086470
v -0.292829 1.847989 -0.087532
v -0.292829 1.847989 -0.087532
v -0.043718 1.770328 -0.086470
v -0.292829 1.847989 -0.087532
v -0.117066 1.773952 0.081920
v -0.117066 1.773952 0.081920
v -0.292829 1.847989 -0.087532
v -0.292829 1.847989 -0.087532
v -0.117066 1.773952 0.081920
v -0.292829 1.847989 -0.087532
v -0.294146 1.778093 0.151634
v -0.294146 1.778093 0.151634
v -0.292829 1.847989 -0.087532
v -0.292829 1.847989 -0.087532
v -0.294146 1.778093 0.151634
v -0.292829 1.847989 -0.087532
v -0.471225 1.780327 0.081833
v -0.471225 1.780327 0.081833
v -0.292829 1.847989 -0.087532
v -0.292829 1.847989 -0.087532
v -0.471225 1.780327 0.081833
v -0.292829 1.847989 -0.087532
v -0.544574 1.779343 -0.086593
v -0.544574 1.779343 -0.086593
v -0.292829 1.847989 -0.087532
v -0.292829 1.847989 -0.087532
v -0.544574 1.779343 -0.086593
v -0.292829 1.847989 -0.087532
v -0.471225 1.775720 -0.254984
v -0.471225 1.775720 -0.254984
v -0.292829 1.847989 -0.087532
v -0.292829 1.847989 -0.087532
v -0.471225 1.775720 -0.254984
v -0.292829 1.847989 -0.087532
v -0.294146 1.771578 -0.324697
v -0.294146 1.771578 -0.324697
v -0.292829 1.847989 -0.087532
v -0.292829 1.847989 -0.087532
v -0.294146 1.771578 -0.324697
v -0.292829 1.847989 -0.087532
v -0.117066 1.769345 -0.254896
v -0.117066 1.769345 -0.254896
v -0.292829 1.847989 -0.087532
v -0.292829 1.847989 -0.087532
v -0.117066 1.769345 -0.254896
v -0.292829 1.847989 -0.087532
v -0.043718 1.770328 -0.086470
f 925 926 927
f 928 929 930
f 931 932 933
f 934 935 936
f 937 938 939
f 940 941 942
f 943 944 945
f 946 947 948
f 949 950 951
f 952 953 954
f 955 956 957
f 958 959 960
f 961 962 963
f 964 965 966
f 967 968 969
f 970 971 972
f 973 974 975
f 976 977 978
f 979 980 981
f 982 983 984
f 985 986 987
f 988 989 990
f 991 992 993
f 994 995 996
f 997 998 999
f 1000 1001 1002
f 1003 1004 1005
f 1006 1007 1008
f 1009 1010 1011
f 1012 1013 1014
f 1015 1016 1017
f 1018 1019 1020
f 1021 1022 1023
f 1024 1025 1026
f 1027 1028 1029
f 1030 1031 1032
f 1033 1034 1035
f 1036 1037 1038
f 1039 1040 1041
f 1042 1043 1044
f 1045 1046 1047
f 1048 1049 1050
f 1051 1052 1053
f 1054 1055 1056
f 1057 1058 1059
f 1060 1061 1062
f 1063 1064 1065
f 1066 1067 1068
f 1069 1070 1071
f 1072 1073 1074
f 1075 1076 1077
f 1078 1079 1080
f 1081 1082 1083
f 1084 1085 1086
f 1087 1088 1089
f 1090 1091 1092
f 1093 1094 1095
f 1096 1097 1098
f 1099 1100 1101
f 1102 1103 1104
f 1105 1106 1107
f 1108 1109 1110
f 1111 1112 1113
f 1114 1115 1116
f 1117 1118 1119
f 1120 1121 1122
f 1123 1124 1125
f 1126 1127 1128
f 1129 1130 1131
f 1132 1133 1134
f 1135 1136 1137
f 1138 1139 1140
f 1141 1142 1143
f 1144 1145 1146
f 1147 1148 1149
f 1150 1151 1152
f 1153 1154 1155
f 1156 1157 1158
f 1159 1160 1161
f 1162 1163 1164
f 1165 1166 1167
f 1168 1169 1170
f 1171 1172 1173
f 1174 1175 1176
f 1177 1178 1179
f 1180 1181 1182
f 1183 1184 1185
f 1186 1187 1188
f 1189 1190 1191
f 1192 1193 1194
f 1195 1196 1197
f 1198 1199 1200
f 1201 1202 1203
f 1204 1205 1206
f 1207 1208 1209
f 1210 1211 1212
f 1213 1214 1215
f 1216 1217 1218
f 1219 1220 1221
f 1222 1223 1224
f 1225 1226 1227
f 1228 1229 1230
f 1231 1232 1233
f 1234 1235 1236
f 1237 1238 1239
f 1240 1241 1242
f 1243 1244 1245
f 1246 1247 1248
f 1249 1250 1251
f 1252 1253 1254
f 1255 1256 1257
f 1258 1259 1260
f 1261 1262 1263
f 1264 1265 1266
f 1267 1268 1269
f 1270 1271 1272
f 1273 1274 1275
f 1276 1277 1278
f 1279 1280 1281
f 1282 1283 1284
f 1285 1286 1287
f 1288 1289 1290
f 1291 1292 1293
f 1294 1295 1296
f 1297 1298 1299
f 1300 1301 1302
f 1303 1304 1305
f 1306 1307 1308
f 1309 1310 1311
f 1312 1313 1314
f 1315 1316 1317
f 1318 1319 1320
f 1321 1322 1323
f 1324 1325 1326
f 1327 1328 1329
f 1330 1331 1332
f 1333 1334 1335
f 1336 1337 1338
f 1339 1340 1341
f 1342 1343 1344
f 1345 1346 1347
f 1348 1349 1350
f 1351 1352 1353
f 1354 1355 1356
f 1357 1358 1359
f 1360 1361 1362
f 1363 1364 1365
f 1366 1367 1368
f 1369 1370 1371
f 1372 1373 1374
f 1375 1376 1377
f 1378 1379 1380
f 1381 1382 1383
f 1384 1385 1386
f 1387 1388 1389
f 1390 1391 1392
f 1393 1394 1395
f 1396 1397 1398
f 1399 1400 1401
f 1402 1403 1404
f 1405 1406 1407
f 1408 1409 1410
f 1411 1412 1413
f 1414 1415 1416
f 1417 1418 1419
f 1420 1421 1422
f 1423 1424 1425
f 1426 1427 1428
f 1429 1430 1431
f 1432 1433 1434
f 1435 1436 1437
f 1438 1439 1440
f 1441 1442 1443
f 1444 1445 1446
f 1447 1448 1449
f 1450 1451 1452
f 1453 1454 1455
f 1456 1457 1458
f 1459 1460 1461
f 1462 1463 1464
f 1465 1466 1467
f 1468 1469 1470
f 1471 1472 1473
f 1474 1475 1476
f 1477 1478 1479
f 1480 1481 1482
f 1483 1484 1485
f 1486 1487 1488
f 1489 1490 1491
f 1492 1493 1494
f 1495 1496 1497
f 1498 1499 1500
f 1501 1502 1503
f 1504 1505 1506
f 1507 1508 1509
f 1510 1511 1512
f 1513 1514 1515
f 1516 1517 1518
f 1519 1520 1521
f 1522 1523 1524
f 1525 1526 1527
f 1528 1529 1530
f 1531 1532 1533
f 1534 1535 1536
f 1537 1538 1539
f 1540 1541 1542
f 1543 1544 1545
f 1546 1547 1548
f 1549 1550 1551
f 1552 1553 1554
f 1555 1556 1557
f 1558 1559 1560
f 1561 1562 1563
f 1564 1565 1566
f 1567 1568 1569
f 1570 1571 1572
f 1573 1574 1575
f 1576 1577 1578
f 1579 1580 1581
f 1582 1583 1584
f 1585 1586 1587
f 1588 1589 1590
f 1591 1592 1593
f 1594 1595 1596
f 1597 1598 1599
f 1600 1601 1602
f 1603 1604 1605
f 1606 1607 1608
f 1609 1610 1611
f 1612 1613 1614
f 1615 1616 1617
f 1618 1619 1620
f 1621 1622 1623
f 1624 1625 1626
f 1627 1628 1629
f 1630 1631 1632
f 1633 1634 1635
f 1636 1637 1638
f 1639 1640 1641
f 1642 1643 1644
f 1645 1646 1647
f 1648 1649 1650
f 1651 1652 1653
f 1654 1655 1656
f 1657 1658 1659
f 1660 1661 1662
f 1663 1664 1665
f 1666 1667 1668
f 1669 1670 1671
f 1672 1673 1674
f 1675 1676 1677
f 1678 1679 1680
f 1681 1682 1683
f 1684 1685 1686
f 1687 1688 1689
f 1690 1691 1692
f 1693 1694 1695
f 1696 1697 1698
f 1699 1700 1701
f 1702 1703 1704
f 1705 1706 1707
f 1708 1709 1710
f 1711 1712 1713
f 1714 1715 1716
f 1717 1718 1719
f 1720 1721 1722
f 1723 1724 1725
f 1726 1727 1728
f 1729 1730 1731
f 1732 1733 1734
f 1735 1736 1737
f 1738 1739 1740
f 1741 1742 1743
f 1744 1745 1746
f 1747 1748 1749
f 1750 1751 1752
f 1753 1754 1755
f 1756 1757 1758
f 1759 1760 1761
f 1762 1763 1764
f 1765 1766 1767
f 1768 1769 1770
f 1771 1772 1773
f 1774 1775 1776
f 1777 1778 1779
f 1780 1781 1782
f 1783 1784 1785
f 1786 1787 1788
f 1789 1790 1791
f 1792 1793 1794
f 1795 1796 1797
f 1798 1799 1800
f 1801 1802 1803
f 1804 1805 1806
f 1807 1808 1809
f 1810 1811 1812
f 1813 1814 1815
f 1816 1817 1818
f 1819 1820 1821
f 1822 1823 1824
f 1825 1826 1827
f 1828 1829 1830
f 1831 1832 1833
f 1834 1835 1836
f 1837 1838 1839
f 1840 1841 1842
f 1843 1844 1845
f 1846 1847 1848
f 1849 1850 1851
f 1852 1853 1854
f 1855 1856 1857
f 1858 1859 1860
f 1861 1862 1863
f 1864 1865 1866
f 1867 1868 1869
f 1870 1871 1872
f 1873 1874 1875
f 1876 1877 1878
f 1879 1880 1881
f 1882 1883 1884
f 1885 1886 1887
f 1888 1889 1890
f 1891 1892 1893
f 1894 1895 1896
f 1897 1898 1899
f 1900 1901 1902
f 1903 1904 1905
f 1906 1907 1908
f 1909 1910 1911
f 1912 1913 1914
f 1915 1916 1917
f 1918 1919 1920
f 1921 1922 1923
f 1924 1925 1926
f 1927 1928 1929
f 1930 1931 1932
f 1933 1934 1935
f 1936 1937 1938
f 1939 1940 1941
f 1942 1943 1944
f 1945 1946 1947
f 1948 1949 1950
f 1951 1952 1953
f 1954 1955 1956
f 1957 1958 1959
f 1960 1961 1962
f 1963 1964 1965
f 1966 1967 1968
f 1969 1970 1971
f 1972 1973 1974
f 1975 1976 1977
f 1978 1979 1980
f 1981 1982 1983
f 1984 1985 1986
f 1987 1988 1989
f 1990 1991 1992
f 1993 1994 1995
f 1996 1997 1998
f 1999 2000 2001
f 2002 2003 2004
f 2005 2006 2007
f 2008 2009 2010
f 2011 2012 2013
f 2014 2015 2016
f 2017 2018 2019
f 2020 2021 2022
f 2023 2024 2025
f 2026 2027 2028
f 2029 2030 2031
f 2032 2033 2034
f 2035 2036 2037
f 2038 2039 2040
f 2041 2042 2043
f 2044 2045 2046
f 2047 2048 2049
f 2050 2051 2052
f 2053 2054 2055
f 2056 2057 2058
f 2059 2060 2061
f 2062 2063 2064
f 2065 2066 2067
f 2068 2069 2070
f 2071 2072 2073
f 2074 2075 2076
f 2077 2078 2079
f 2080 2081 2082
f 2083 2084 2085
f 2086 2087 2088
f 2089 2090 2091
f 2092 2093 2094
f 2095 2096 2097
f 2098 2099 2100
f 2101 2102 2103
f 2104 2105 2106
f 2107 2108 2109
f 2110 2111 2112
f 2113 2114 2115
f 2116 2117 2118
f 2119 2120 2121
f 2122 2123 2124
f 2125 2126 2127
f 2128 2129 2130
f 2131 2132 2133
f 2134 2135 2136
f 2137 2138 2139
f 2140 2141 2142
f 2143 2144 2145
f 2146 2147 2148
f 2149 2150 2151
f 2152 2153 2154
f 2155 2156 2157
f 2158 2159 2160
f 2161 2162 2163
f 2164 2165 2166
f 2167 2168 2169
f 2170 2171 2172
f 2173 2174 2175
f 2176 2177 2178
f 2179 2180 2181
f 2182 2183 2184
f 2185 2186 2187
f 2188 2189 2190
f 2191 2192 2193
f 2194 2195 2196
f 2197 2198 2199
f 2200 2201 2202
f 2203 2204 2205
f 2206 2207 2208
f 2209 2210 2211
f 2212 2213 2214
f 2215 2216 2217
f 2218 2219 2220
f 2221 2222 2223
f 2224 2225 2226
f 2227 2228 2229
f 2230 2231 2232
f 2233 2234 2235
f 2236 2237 2238
f 2239 2240 2241
f 2242 2243 2244
f 2245 2246 2247
f 2248 2249 2250
f 2251 2252 2253
f 2254 2255 2256
f 2257 2258 2259
f 2260 2261 2262
f 2263 2264 2265
f 2266 2267 2268
