# Pyramida editable prop source
# units: 1 OBJ unit = 1 Pyramida World Unit = 1 Blender metre

o TreeTrunk
v 0.043071 0.075684 0.105317
v 0.303392 0.012997 0.033224
v 0.309712 0.035998 0.009079
v 0.043071 0.075684 0.105317
v 0.309712 0.035998 0.009079
v 0.070720 0.176314 -0.000320
v 0.046321 0.074190 0.000378
v 0.043071 0.075684 0.105317
v 0.070720 0.176314 -0.000320
v 0.304135 0.012656 0.009238
v 0.309712 0.035998 0.009079
v 0.303392 0.012997 0.033224
v 0.070720 0.176314 -0.000320
v 0.309712 0.035998 0.009079
v 0.304878 0.012314 -0.014748
v 0.070720 0.176314 -0.000320
v 0.304878 0.012314 -0.014748
v 0.049571 0.072696 -0.104561
v 0.046321 0.074190 0.000378
v 0.070720 0.176314 -0.000320
v 0.049571 0.072696 -0.104561
v 0.304135 0.012656 0.009238
v 0.304878 0.012314 -0.014748
v 0.309712 0.035998 0.009079
v 0.049571 0.072696 -0.104561
v 0.304878 0.012314 -0.014748
v 0.298558 -0.010687 0.009398
v 0.049571 0.072696 -0.104561
v 0.298558 -0.010687 0.009398
v 0.021922 -0.027933 0.001077
v 0.046321 0.074190 0.000378
v 0.049571 0.072696 -0.104561
v 0.021922 -0.027933 0.001077
v 0.304135 0.012656 0.009238
v 0.298558 -0.010687 0.009398
v 0.304878 0.012314 -0.014748
v 0.021922 -0.027933 0.001077
v 0.298558 -0.010687 0.009398
v 0.303392 0.012997 0.033224
v 0.021922 -0.027933 0.001077
v 0.303392 0.012997 0.033224
v 0.043071 0.075684 0.105317
v 0.046321 0.074190 0.000378
v 0.021922 -0.027933 0.001077
v 0.043071 0.075684 0.105317
v 0.304135 0.012656 0.009238
v 0.303392 0.012997 0.033224
v 0.298558 -0.010687 0.009398
v -0.109501 0.076600 -0.028585
v -0.220744 0.025423 0.251796
v -0.203992 0.048920 0.269665
v -0.109501 0.076600 -0.028585
v -0.203992 0.048920 0.269665
v -0.036212 0.179398 0.049590
v -0.025819 0.075960 0.034834
v -0.109501 0.076600 -0.028585
v -0.036212 0.179398 0.049590
v -0.201617 0.025277 0.266292
v -0.203992 0.048920 0.269665
v -0.220744 0.025423 0.251796
v -0.036212 0.179398 0.049590
v -0.203992 0.048920 0.269665
v -0.182490 0.025131 0.280787
v -0.036212 0.179398 0.049590
v -0.182490 0.025131 0.280787
v 0.057863 0.075321 0.098252
v -0.025819 0.075960 0.034834
v -0.036212 0.179398 0.049590
v 0.057863 0.075321 0.098252
v -0.201617 0.025277 0.266292
v -0.182490 0.025131 0.280787
v -0.203992 0.048920 0.269665
v 0.057863 0.075321 0.098252
v -0.182490 0.025131 0.280787
v -0.199241 0.001634 0.262919
v 0.057863 0.075321 0.098252
v -0.199241 0.001634 0.262919
v -0.015426 -0.027477 0.020078
v -0.025819 0.075960 0.034834
v 0.057863 0.075321 0.098252
v -0.015426 -0.027477 0.020078
v -0.201617 0.025277 0.266292
v -0.199241 0.001634 0.262919
v -0.182490 0.025131 0.280787
v -0.015426 -0.027477 0.020078
v -0.199241 0.001634 0.262919
v -0.220744 0.025423 0.251796
v -0.015426 -0.027477 0.020078
v -0.220744 0.025423 0.251796
v -0.109501 0.076600 -0.028585
v -0.025819 0.075960 0.034834
v -0.015426 -0.027477 0.020078
v -0.109501 0.076600 -0.028585
v -0.201617 0.025277 0.266292
v -0.220744 0.025423 0.251796
v -0.199241 0.001634 0.262919
v 0.052133 0.072667 -0.103328
v -0.133654 0.017747 -0.194723
v -0.155984 0.041279 -0.184742
v 0.052133 0.072667 -0.103328
v -0.155984 0.041279 -0.184742
v -0.045561 0.175618 -0.059658
v -0.027812 0.075037 -0.035297
v 0.052133 0.072667 -0.103328
v -0.045561 0.175618 -0.059658
v -0.151927 0.018289 -0.179173
v -0.155984 0.041279 -0.184742
v -0.133654 0.017747 -0.194723
v -0.045561 0.175618 -0.059658
v -0.155984 0.041279 -0.184742
v -0.170200 0.018831 -0.163624
v -0.045561 0.175618 -0.059658
v -0.170200 0.018831 -0.163624
v -0.107758 0.077407 0.032733
v -0.027812 0.075037 -0.035297
v -0.045561 0.175618 -0.059658
v -0.107758 0.077407 0.032733
v -0.151927 0.018289 -0.179173
v -0.170200 0.018831 -0.163624
v -0.155984 0.041279 -0.184742
v -0.107758 0.077407 0.032733
v -0.170200 0.018831 -0.163624
v -0.147870 -0.004701 -0.173605
v -0.107758 0.077407 0.032733
v -0.147870 -0.004701 -0.173605
v -0.010064 -0.025544 -0.010937
v -0.027812 0.075037 -0.035297
v -0.107758 0.077407 0.032733
v -0.010064 -0.025544 -0.010937
v -0.151927 0.018289 -0.179173
v -0.147870 -0.004701 -0.173605
v -0.170200 0.018831 -0.163624
v -0.010064 -0.025544 -0.010937
v -0.147870 -0.004701 -0.173605
v -0.133654 0.017747 -0.194723
v -0.010064 -0.025544 -0.010937
v -0.133654 0.017747 -0.194723
v 0.052133 0.072667 -0.103328
v -0.027812 0.075037 -0.035297
v -0.010064 -0.025544 -0.010937
v 0.052133 0.072667 -0.103328
v -0.151927 0.018289 -0.179173
v -0.133654 0.017747 -0.194723
v -0.147870 -0.004701 -0.173605
v -0.000033 -0.003999 -0.159950
v -0.020177 0.996985 -0.156632
v 0.093840 1.000925 -0.090900
v -0.000033 -0.003999 -0.159950
v 0.093840 1.000925 -0.090900
v 0.138520 0.000789 -0.080073
v 0.000000 0.000000 0.000000
v -0.000033 -0.003999 -0.159950
v 0.138520 0.000789 -0.080073
v 0.138520 0.000789 -0.080073
v 0.093840 1.000925 -0.090900
v 0.093867 1.004216 0.040726
v 0.138520 0.000789 -0.080073
v 0.093867 1.004216 0.040726
v 0.138552 0.004788 0.079877
v 0.000000 0.000000 0.000000
v 0.138520 0.000789 -0.080073
v 0.138552 0.004788 0.079877
v 0.138552 0.004788 0.079877
v 0.093867 1.004216 0.040726
v -0.020123 1.003567 0.106619
v 0.138552 0.004788 0.079877
v -0.020123 1.003567 0.106619
v 0.000033 0.003999 0.159950
v 0.000000 0.000000 0.000000
v 0.138552 0.004788 0.079877
v 0.000033 0.003999 0.159950
v 0.000033 0.003999 0.159950
v -0.020123 1.003567 0.106619
v -0.134140 0.999627 0.040887
v 0.000033 0.003999 0.159950
v -0.134140 0.999627 0.040887
v -0.138520 -0.000789 0.080073
v 0.000000 0.000000 0.000000
v 0.000033 0.003999 0.159950
v -0.138520 -0.000789 0.080073
v -0.138520 -0.000789 0.080073
v -0.134140 0.999627 0.040887
v -0.134167 0.996336 -0.090739
v -0.138520 -0.000789 0.080073
v -0.134167 0.996336 -0.090739
v -0.138552 -0.004788 -0.079877
v 0.000000 0.000000 0.000000
v -0.138520 -0.000789 0.080073
v -0.138552 -0.004788 -0.079877
v -0.138552 -0.004788 -0.079877
v -0.134167 0.996336 -0.090739
v -0.020177 0.996985 -0.156632
v -0.138552 -0.004788 -0.079877
v -0.020177 0.996985 -0.156632
v -0.000033 -0.003999 -0.159950
v 0.000000 0.000000 0.000000
v -0.138552 -0.004788 -0.079877
v -0.000033 -0.003999 -0.159950
v -0.020105 1.000996 -0.156671
v -0.009798 2.000986 -0.122868
v 0.079669 1.999780 -0.071176
v -0.020105 1.000996 -0.156671
v 0.079669 1.999780 -0.071176
v 0.093893 0.999460 -0.090806
v 0.093893 0.999460 -0.090806
v 0.079669 1.999780 -0.071176
v 0.079633 1.999215 0.032155
v 0.093893 0.999460 -0.090806
v 0.079633 1.999215 0.032155
v 0.093848 0.998740 0.040859
v 0.093848 0.998740 0.040859
v 0.079633 1.999215 0.032155
v -0.009869 1.999856 0.083795
v 0.093848 0.998740 0.040859
v -0.009869 1.999856 0.083795
v -0.020196 0.999557 0.106658
v -0.020196 0.999557 0.106658
v -0.009869 1.999856 0.083795
v -0.099336 2.001062 0.032104
v -0.020196 0.999557 0.106658
v -0.099336 2.001062 0.032104
v -0.134193 1.001093 0.040793
v -0.134193 1.001093 0.040793
v -0.099336 2.001062 0.032104
v -0.099300 2.001626 -0.071228
v -0.134193 1.001093 0.040793
v -0.099300 2.001626 -0.071228
v -0.134148 1.001812 -0.090872
v -0.134148 1.001812 -0.090872
v -0.099300 2.001626 -0.071228
v -0.009798 2.000986 -0.122868
v -0.134148 1.001812 -0.090872
v -0.009798 2.000986 -0.122868
v -0.020105 1.000996 -0.156671
v -0.009650 2.009217 -0.122494
v 0.022085 2.506946 -0.051480
v 0.086840 2.499654 -0.014350
v -0.009650 2.009217 -0.122494
v 0.086840 2.499654 -0.014350
v 0.079569 1.999171 -0.071339
v 0.021951 2.500562 0.023248
v 0.086840 2.499654 -0.014350
v 0.022085 2.506946 -0.051480
v 0.079569 1.999171 -0.071339
v 0.086840 2.499654 -0.014350
v 0.086707 2.493270 0.060377
v 0.079569 1.999171 -0.071339
v 0.086707 2.493270 0.060377
v 0.079385 1.990375 0.031620
v 0.021951 2.500562 0.023248
v 0.086707 2.493270 0.060377
v 0.086840 2.499654 -0.014350
v 0.079385 1.990375 0.031620
v 0.086707 2.493270 0.060377
v 0.021818 2.494178 0.097976
v 0.079385 1.990375 0.031620
v 0.021818 2.494178 0.097976
v -0.010017 1.991625 0.083422
v 0.021951 2.500562 0.023248
v 0.021818 2.494178 0.097976
v 0.086707 2.493270 0.060377
v -0.010017 1.991625 0.083422
v 0.021818 2.494178 0.097976
v -0.042937 2.501469 0.060847
v -0.010017 1.991625 0.083422
v -0.042937 2.501469 0.060847
v -0.099235 2.001671 0.032266
v 0.021951 2.500562 0.023248
v -0.042937 2.501469 0.060847
v 0.021818 2.494178 0.097976
v -0.099235 2.001671 0.032266
v -0.042937 2.501469 0.060847
v -0.042804 2.507853 -0.013881
v -0.099235 2.001671 0.032266
v -0.042804 2.507853 -0.013881
v -0.099052 2.010467 -0.070692
v 0.021951 2.500562 0.023248
v -0.042804 2.507853 -0.013881
v -0.042937 2.501469 0.060847
v -0.099052 2.010467 -0.070692
v -0.042804 2.507853 -0.013881
v 0.022085 2.506946 -0.051480
v -0.099052 2.010467 -0.070692
v 0.022085 2.506946 -0.051480
v -0.009650 2.009217 -0.122494
v 0.021951 2.500562 0.023248
v 0.022085 2.506946 -0.051480
v -0.042804 2.507853 -0.013881
v -0.031922 2.230144 0.002769
v 0.023011 2.427861 0.405215
v 0.038163 2.441433 0.397296
v -0.031922 2.230144 0.002769
v 0.038163 2.441433 0.397296
v 0.004154 2.262459 -0.016085
v 0.004722 2.229447 0.000056
v -0.031922 2.230144 0.002769
v 0.004154 2.262459 -0.016085
v 0.038401 2.427569 0.404075
v 0.038163 2.441433 0.397296
v 0.023011 2.427861 0.405215
v 0.004154 2.262459 -0.016085
v 0.038163 2.441433 0.397296
v 0.053791 2.427276 0.402936
v 0.004154 2.262459 -0.016085
v 0.053791 2.427276 0.402936
v 0.041365 2.228750 -0.002657
v 0.004722 2.229447 0.000056
v 0.004154 2.262459 -0.016085
v 0.041365 2.228750 -0.002657
v 0.038401 2.427569 0.404075
v 0.053791 2.427276 0.402936
v 0.038163 2.441433 0.397296
v 0.041365 2.228750 -0.002657
v 0.053791 2.427276 0.402936
v 0.038640 2.413704 0.410854
v 0.041365 2.228750 -0.002657
v 0.038640 2.413704 0.410854
v 0.005289 2.196436 0.016196
v 0.004722 2.229447 0.000056
v 0.041365 2.228750 -0.002657
v 0.005289 2.196436 0.016196
v 0.038401 2.427569 0.404075
v 0.038640 2.413704 0.410854
v 0.053791 2.427276 0.402936
v 0.005289 2.196436 0.016196
v 0.038640 2.413704 0.410854
v 0.023011 2.427861 0.405215
v 0.005289 2.196436 0.016196
v 0.023011 2.427861 0.405215
v -0.031922 2.230144 0.002769
v 0.004722 2.229447 0.000056
v 0.005289 2.196436 0.016196
v -0.031922 2.230144 0.002769
v 0.038401 2.427569 0.404075
v 0.023011 2.427861 0.405215
v 0.038640 2.413704 0.410854
v 0.009058 2.348710 0.237108
v -0.060931 2.484240 0.459582
v -0.050840 2.491907 0.458405
v 0.009058 2.348710 0.237108
v -0.050840 2.491907 0.458405
v 0.028012 2.363111 0.234899
v 0.024960 2.348502 0.242838
v 0.009058 2.348710 0.237108
v 0.028012 2.363111 0.234899
v -0.052465 2.484129 0.462632
v -0.050840 2.491907 0.458405
v -0.060931 2.484240 0.459582
v 0.028012 2.363111 0.234899
v -0.050840 2.491907 0.458405
v -0.043998 2.484018 0.465683
v 0.028012 2.363111 0.234899
v -0.043998 2.484018 0.465683
v 0.040863 2.348294 0.248569
v 0.024960 2.348502 0.242838
v 0.028012 2.363111 0.234899
v 0.040863 2.348294 0.248569
v -0.052465 2.484129 0.462632
v -0.043998 2.484018 0.465683
v -0.050840 2.491907 0.458405
v 0.040863 2.348294 0.248569
v -0.043998 2.484018 0.465683
v -0.054090 2.476351 0.466859
v 0.040863 2.348294 0.248569
v -0.054090 2.476351 0.466859
v 0.021908 2.333893 0.250778
v 0.024960 2.348502 0.242838
v 0.040863 2.348294 0.248569
v 0.021908 2.333893 0.250778
v -0.052465 2.484129 0.462632
v -0.054090 2.476351 0.466859
v -0.043998 2.484018 0.465683
v 0.021908 2.333893 0.250778
v -0.054090 2.476351 0.466859
v -0.060931 2.484240 0.459582
v 0.021908 2.333893 0.250778
v -0.060931 2.484240 0.459582
v 0.009058 2.348710 0.237108
v 0.024960 2.348502 0.242838
v 0.021908 2.333893 0.250778
v 0.009058 2.348710 0.237108
v -0.052465 2.484129 0.462632
v -0.060931 2.484240 0.459582
v -0.054090 2.476351 0.466859
v 0.017253 2.366163 0.265744
v -0.081844 2.431493 0.357141
v -0.073097 2.439582 0.361621
v 0.017253 2.366163 0.265744
v -0.073097 2.439582 0.361621
v 0.033682 2.381357 0.274158
v 0.027960 2.366149 0.278825
v 0.017253 2.366163 0.265744
v 0.033682 2.381357 0.274158
v -0.076143 2.431486 0.364106
v -0.073097 2.439582 0.361621
v -0.081844 2.431493 0.357141
v 0.033682 2.381357 0.274158
v -0.073097 2.439582 0.361621
v -0.070443 2.431479 0.371070
v 0.033682 2.381357 0.274158
v -0.070443 2.431479 0.371070
v 0.038668 2.366135 0.291907
v 0.027960 2.366149 0.278825
v 0.033682 2.381357 0.274158
v 0.038668 2.366135 0.291907
v -0.076143 2.431486 0.364106
v -0.070443 2.431479 0.371070
v -0.073097 2.439582 0.361621
v 0.038668 2.366135 0.291907
v -0.070443 2.431479 0.371070
v -0.079189 2.423389 0.366590
v 0.038668 2.366135 0.291907
v -0.079189 2.423389 0.366590
v 0.022239 2.350942 0.283492
v 0.027960 2.366149 0.278825
v 0.038668 2.366135 0.291907
v 0.022239 2.350942 0.283492
v -0.076143 2.431486 0.364106
v -0.079189 2.423389 0.366590
v -0.070443 2.431479 0.371070
v 0.022239 2.350942 0.283492
v -0.079189 2.423389 0.366590
v -0.081844 2.431493 0.357141
v 0.022239 2.350942 0.283492
v -0.081844 2.431493 0.357141
v 0.017253 2.366163 0.265744
v 0.027960 2.366149 0.278825
v 0.022239 2.350942 0.283492
v 0.017253 2.366163 0.265744
v -0.076143 2.431486 0.364106
v -0.081844 2.431493 0.357141
v -0.079189 2.423389 0.366590
v 0.020144 2.384169 0.327798
v 0.154616 2.466504 0.427149
v 0.157423 2.474372 0.417546
v 0.020144 2.384169 0.327798
v 0.157423 2.474372 0.417546
v 0.025416 2.398947 0.309760
v 0.030960 2.383796 0.314812
v 0.020144 2.384169 0.327798
v 0.025416 2.398947 0.309760
v 0.160374 2.466305 0.420235
v 0.157423 2.474372 0.417546
v 0.154616 2.466504 0.427149
v 0.025416 2.398947 0.309760
v 0.157423 2.474372 0.417546
v 0.166133 2.466107 0.413321
v 0.025416 2.398947 0.309760
v 0.166133 2.466107 0.413321
v 0.041777 2.383424 0.301826
v 0.030960 2.383796 0.314812
v 0.025416 2.398947 0.309760
v 0.041777 2.383424 0.301826
v 0.160374 2.466305 0.420235
v 0.166133 2.466107 0.413321
v 0.157423 2.474372 0.417546
v 0.041777 2.383424 0.301826
v 0.166133 2.466107 0.413321
v 0.163326 2.458240 0.422925
v 0.041777 2.383424 0.301826
v 0.163326 2.458240 0.422925
v 0.036504 2.368646 0.319864
v 0.030960 2.383796 0.314812
v 0.041777 2.383424 0.301826
v 0.036504 2.368646 0.319864
v 0.160374 2.466305 0.420235
v 0.163326 2.458240 0.422925
v 0.166133 2.466107 0.413321
v 0.036504 2.368646 0.319864
v 0.163326 2.458240 0.422925
v 0.154616 2.466504 0.427149
v 0.036504 2.368646 0.319864
v 0.154616 2.466504 0.427149
v 0.020144 2.384169 0.327798
v 0.030960 2.383796 0.314812
v 0.036504 2.368646 0.319864
v 0.020144 2.384169 0.327798
v 0.160374 2.466305 0.420235
v 0.154616 2.466504 0.427149
v 0.163326 2.458240 0.422925
v 0.001854 2.282993 -0.031536
v -0.442859 2.523033 0.064886
v -0.433145 2.536844 0.078719
v 0.001854 2.282993 -0.031536
v -0.433145 2.536844 0.078719
v 0.024984 2.315878 0.001399
v 0.008149 2.283375 0.004669
v 0.001854 2.282993 -0.031536
v 0.024984 2.315878 0.001399
v -0.440216 2.523193 0.080092
v -0.433145 2.536844 0.078719
v -0.442859 2.523033 0.064886
v 0.024984 2.315878 0.001399
v -0.433145 2.536844 0.078719
v -0.437572 2.523354 0.095298
v 0.024984 2.315878 0.001399
v -0.437572 2.523354 0.095298
v 0.014443 2.283756 0.040874
v 0.008149 2.283375 0.004669
v 0.024984 2.315878 0.001399
v 0.014443 2.283756 0.040874
v -0.440216 2.523193 0.080092
v -0.437572 2.523354 0.095298
v -0.433145 2.536844 0.078719
v 0.014443 2.283756 0.040874
v -0.437572 2.523354 0.095298
v -0.447286 2.509542 0.081466
v 0.014443 2.283756 0.040874
v -0.447286 2.509542 0.081466
v -0.008686 2.250871 0.007939
v 0.008149 2.283375 0.004669
v 0.014443 2.283756 0.040874
v -0.008686 2.250871 0.007939
v -0.440216 2.523193 0.080092
v -0.447286 2.509542 0.081466
v -0.437572 2.523354 0.095298
v -0.008686 2.250871 0.007939
v -0.447286 2.509542 0.081466
v -0.442859 2.523033 0.064886
v -0.008686 2.250871 0.007939
v -0.442859 2.523033 0.064886
v 0.001854 2.282993 -0.031536
v 0.008149 2.283375 0.004669
v -0.008686 2.250871 0.007939
v 0.001854 2.282993 -0.031536
v -0.440216 2.523193 0.080092
v -0.442859 2.523033 0.064886
v -0.447286 2.509542 0.081466
v -0.217823 2.400348 0.026154
v -0.391175 2.509181 0.114892
v -0.383414 2.517080 0.121167
v -0.217823 2.400348 0.026154
v -0.383414 2.517080 0.121167
v -0.203246 2.415185 0.037940
v -0.210696 2.400429 0.041483
v -0.217823 2.400348 0.026154
v -0.203246 2.415185 0.037940
v -0.387381 2.509224 0.123053
v -0.383414 2.517080 0.121167
v -0.391175 2.509181 0.114892
v -0.203246 2.415185 0.037940
v -0.383414 2.517080 0.121167
v -0.383586 2.509268 0.131214
v -0.203246 2.415185 0.037940
v -0.383586 2.509268 0.131214
v -0.203569 2.400511 0.056812
v -0.210696 2.400429 0.041483
v -0.203246 2.415185 0.037940
v -0.203569 2.400511 0.056812
v -0.387381 2.509224 0.123053
v -0.383586 2.509268 0.131214
v -0.383414 2.517080 0.121167
v -0.203569 2.400511 0.056812
v -0.383586 2.509268 0.131214
v -0.391347 2.501369 0.124939
v -0.203569 2.400511 0.056812
v -0.391347 2.501369 0.124939
v -0.218146 2.385674 0.045025
v -0.210696 2.400429 0.041483
v -0.203569 2.400511 0.056812
v -0.218146 2.385674 0.045025
v -0.387381 2.509224 0.123053
v -0.391347 2.501369 0.124939
v -0.383586 2.509268 0.131214
v -0.218146 2.385674 0.045025
v -0.391347 2.501369 0.124939
v -0.391175 2.509181 0.114892
v -0.218146 2.385674 0.045025
v -0.391175 2.509181 0.114892
v -0.217823 2.400348 0.026154
v -0.210696 2.400429 0.041483
v -0.218146 2.385674 0.045025
v -0.217823 2.400348 0.026154
v -0.387381 2.509224 0.123053
v -0.391175 2.509181 0.114892
v -0.391347 2.501369 0.124939
v -0.248881 2.421529 0.031389
v -0.473610 2.550936 0.013905
v -0.470075 2.558880 0.023200
v -0.248881 2.421529 0.031389
v -0.470075 2.558880 0.023200
v -0.242241 2.436451 0.048847
v -0.250633 2.421790 0.048201
v -0.248881 2.421529 0.031389
v -0.242241 2.436451 0.048847
v -0.474543 2.551075 0.022856
v -0.470075 2.558880 0.023200
v -0.473610 2.550936 0.013905
v -0.242241 2.436451 0.048847
v -0.470075 2.558880 0.023200
v -0.475476 2.551214 0.031806
v -0.242241 2.436451 0.048847
v -0.475476 2.551214 0.031806
v -0.252385 2.422052 0.065013
v -0.250633 2.421790 0.048201
v -0.242241 2.436451 0.048847
v -0.252385 2.422052 0.065013
v -0.474543 2.551075 0.022856
v -0.475476 2.551214 0.031806
v -0.470075 2.558880 0.023200
v -0.252385 2.422052 0.065013
v -0.475476 2.551214 0.031806
v -0.479011 2.543270 0.022512
v -0.252385 2.422052 0.065013
v -0.479011 2.543270 0.022512
v -0.259025 2.407130 0.047554
v -0.250633 2.421790 0.048201
v -0.252385 2.422052 0.065013
v -0.259025 2.407130 0.047554
v -0.474543 2.551075 0.022856
v -0.479011 2.543270 0.022512
v -0.475476 2.551214 0.031806
v -0.259025 2.407130 0.047554
v -0.479011 2.543270 0.022512
v -0.473610 2.550936 0.013905
v -0.259025 2.407130 0.047554
v -0.473610 2.550936 0.013905
v -0.248881 2.421529 0.031389
v -0.250633 2.421790 0.048201
v -0.259025 2.407130 0.047554
v -0.248881 2.421529 0.031389
v -0.474543 2.551075 0.022856
v -0.473610 2.550936 0.013905
v -0.479011 2.543270 0.022512
v -0.280435 2.442784 0.041393
v -0.386492 2.500390 -0.029754
v -0.388822 2.508789 -0.020480
v -0.280435 2.442784 0.041393
v -0.388822 2.508789 -0.020480
v -0.284812 2.458561 0.058814
v -0.290570 2.443151 0.054919
v -0.280435 2.442784 0.041393
v -0.284812 2.458561 0.058814
v -0.391887 2.500585 -0.022553
v -0.388822 2.508789 -0.020480
v -0.386492 2.500390 -0.029754
v -0.284812 2.458561 0.058814
v -0.388822 2.508789 -0.020480
v -0.397283 2.500781 -0.015352
v -0.284812 2.458561 0.058814
v -0.397283 2.500781 -0.015352
v -0.300704 2.443519 0.068445
v -0.290570 2.443151 0.054919
v -0.284812 2.458561 0.058814
v -0.300704 2.443519 0.068445
v -0.391887 2.500585 -0.022553
v -0.397283 2.500781 -0.015352
v -0.388822 2.508789 -0.020480
v -0.300704 2.443519 0.068445
v -0.397283 2.500781 -0.015352
v -0.394953 2.492381 -0.024627
v -0.300704 2.443519 0.068445
v -0.394953 2.492381 -0.024627
v -0.296327 2.427742 0.051024
v -0.290570 2.443151 0.054919
v -0.300704 2.443519 0.068445
v -0.296327 2.427742 0.051024
v -0.391887 2.500585 -0.022553
v -0.394953 2.492381 -0.024627
v -0.397283 2.500781 -0.015352
v -0.296327 2.427742 0.051024
v -0.394953 2.492381 -0.024627
v -0.386492 2.500390 -0.029754
v -0.296327 2.427742 0.051024
v -0.386492 2.500390 -0.029754
v -0.280435 2.442784 0.041393
v -0.290570 2.443151 0.054919
v -0.296327 2.427742 0.051024
v -0.280435 2.442784 0.041393
v -0.391887 2.500585 -0.022553
v -0.386492 2.500390 -0.029754
v -0.394953 2.492381 -0.024627
v 0.046987 2.336530 -0.000517
v -0.107956 2.440814 -0.488713
v -0.121704 2.456261 -0.481723
v 0.046987 2.336530 -0.000517
v -0.121704 2.456261 -0.481723
v 0.014254 2.373310 0.016124
v 0.011576 2.337302 0.009282
v 0.046987 2.336530 -0.000517
v 0.014254 2.373310 0.016124
v -0.122829 2.441138 -0.484597
v -0.121704 2.456261 -0.481723
v -0.107956 2.440814 -0.488713
v 0.014254 2.373310 0.016124
v -0.121704 2.456261 -0.481723
v -0.137701 2.441462 -0.480481
v 0.014254 2.373310 0.016124
v -0.137701 2.441462 -0.480481
v -0.023835 2.338073 0.019081
v 0.011576 2.337302 0.009282
v 0.014254 2.373310 0.016124
v -0.023835 2.338073 0.019081
v -0.122829 2.441138 -0.484597
v -0.137701 2.441462 -0.480481
v -0.121704 2.456261 -0.481723
v -0.023835 2.338073 0.019081
v -0.137701 2.441462 -0.480481
v -0.123953 2.426014 -0.487471
v -0.023835 2.338073 0.019081
v -0.123953 2.426014 -0.487471
v 0.008898 2.301294 0.002440
v 0.011576 2.337302 0.009282
v -0.023835 2.338073 0.019081
v 0.008898 2.301294 0.002440
v -0.122829 2.441138 -0.484597
v -0.123953 2.426014 -0.487471
v -0.137701 2.441462 -0.480481
v 0.008898 2.301294 0.002440
v -0.123953 2.426014 -0.487471
v -0.107956 2.440814 -0.488713
v 0.008898 2.301294 0.002440
v -0.107956 2.440814 -0.488713
v 0.046987 2.336530 -0.000517
v 0.011576 2.337302 0.009282
v 0.008898 2.301294 0.002440
v 0.046987 2.336530 -0.000517
v -0.122829 2.441138 -0.484597
v -0.107956 2.440814 -0.488713
v -0.123953 2.426014 -0.487471
v -0.084072 2.415408 -0.379601
v -0.233902 2.495210 -0.428274
v -0.233162 2.503410 -0.418568
v -0.084072 2.415408 -0.379601
v -0.233162 2.503410 -0.418568
v -0.082683 2.430811 -0.361370
v -0.089941 2.415730 -0.363751
v -0.084072 2.415408 -0.379601
v -0.082683 2.430811 -0.361370
v -0.237027 2.495382 -0.419836
v -0.233162 2.503410 -0.418568
v -0.233902 2.495210 -0.428274
v -0.082683 2.430811 -0.361370
v -0.233162 2.503410 -0.418568
v -0.240152 2.495554 -0.411397
v -0.082683 2.430811 -0.361370
v -0.240152 2.495554 -0.411397
v -0.095811 2.416053 -0.347901
v -0.089941 2.415730 -0.363751
v -0.082683 2.430811 -0.361370
v -0.095811 2.416053 -0.347901
v -0.237027 2.495382 -0.419836
v -0.240152 2.495554 -0.411397
v -0.233162 2.503410 -0.418568
v -0.095811 2.416053 -0.347901
v -0.240152 2.495554 -0.411397
v -0.240891 2.487353 -0.421103
v -0.095811 2.416053 -0.347901
v -0.240891 2.487353 -0.421103
v -0.097200 2.400650 -0.366132
v -0.089941 2.415730 -0.363751
v -0.095811 2.416053 -0.347901
v -0.097200 2.400650 -0.366132
v -0.237027 2.495382 -0.419836
v -0.240891 2.487353 -0.421103
v -0.240152 2.495554 -0.411397
v -0.097200 2.400650 -0.366132
v -0.240891 2.487353 -0.421103
v -0.233902 2.495210 -0.428274
v -0.097200 2.400650 -0.366132
v -0.233902 2.495210 -0.428274
v -0.084072 2.415408 -0.379601
v -0.089941 2.415730 -0.363751
v -0.097200 2.400650 -0.366132
v -0.084072 2.415408 -0.379601
v -0.237027 2.495382 -0.419836
v -0.233902 2.495210 -0.428274
v -0.240891 2.487353 -0.421103
v -0.037660 2.385136 -0.230635
v -0.160326 2.484252 -0.374235
v -0.164582 2.492424 -0.365454
v -0.037660 2.385136 -0.230635
v -0.164582 2.492424 -0.365454
v -0.045654 2.400486 -0.214142
v -0.050834 2.385517 -0.220049
v -0.037660 2.385136 -0.230635
v -0.045654 2.400486 -0.214142
v -0.167340 2.484455 -0.368599
v -0.164582 2.492424 -0.365454
v -0.160326 2.484252 -0.374235
v -0.045654 2.400486 -0.214142
v -0.164582 2.492424 -0.365454
v -0.174354 2.484658 -0.362963
v -0.045654 2.400486 -0.214142
v -0.174354 2.484658 -0.362963
v -0.064008 2.385900 -0.209462
v -0.050834 2.385517 -0.220049
v -0.045654 2.400486 -0.214142
v -0.064008 2.385900 -0.209462
v -0.167340 2.484455 -0.368599
v -0.174354 2.484658 -0.362963
v -0.164582 2.492424 -0.365454
v -0.064008 2.385900 -0.209462
v -0.174354 2.484658 -0.362963
v -0.170098 2.476486 -0.371743
v -0.064008 2.385900 -0.209462
v -0.170098 2.476486 -0.371743
v -0.056015 2.370549 -0.225955
v -0.050834 2.385517 -0.220049
v -0.064008 2.385900 -0.209462
v -0.056015 2.370549 -0.225955
v -0.167340 2.484455 -0.368599
v -0.170098 2.476486 -0.371743
v -0.174354 2.484658 -0.362963
v -0.056015 2.370549 -0.225955
v -0.170098 2.476486 -0.371743
v -0.160326 2.484252 -0.374235
v -0.056015 2.370549 -0.225955
v -0.160326 2.484252 -0.374235
v -0.037660 2.385136 -0.230635
v -0.050834 2.385517 -0.220049
v -0.056015 2.370549 -0.225955
v -0.037660 2.385136 -0.230635
v -0.167340 2.484455 -0.368599
v -0.160326 2.484252 -0.374235
v -0.170098 2.476486 -0.371743
f 1 2 3
f 4 5 6
f 7 8 9
f 10 11 12
f 13 14 15
f 16 17 18
f 19 20 21
f 22 23 24
f 25 26 27
f 28 29 30
f 31 32 33
f 34 35 36
f 37 38 39
f 40 41 42
f 43 44 45
f 46 47 48
f 49 50 51
f 52 53 54
f 55 56 57
f 58 59 60
f 61 62 63
f 64 65 66
f 67 68 69
f 70 71 72
f 73 74 75
f 76 77 78
f 79 80 81
f 82 83 84
f 85 86 87
f 88 89 90
f 91 92 93
f 94 95 96
f 97 98 99
f 100 101 102
f 103 104 105
f 106 107 108
f 109 110 111
f 112 113 114
f 115 116 117
f 118 119 120
f 121 122 123
f 124 125 126
f 127 128 129
f 130 131 132
f 133 134 135
f 136 137 138
f 139 140 141
f 142 143 144
f 145 146 147
f 148 149 150
f 151 152 153
f 154 155 156
f 157 158 159
f 160 161 162
f 163 164 165
f 166 167 168
f 169 170 171
f 172 173 174
f 175 176 177
f 178 179 180
f 181 182 183
f 184 185 186
f 187 188 189
f 190 191 192
f 193 194 195
f 196 197 198
f 199 200 201
f 202 203 204
f 205 206 207
f 208 209 210
f 211 212 213
f 214 215 216
f 217 218 219
f 220 221 222
f 223 224 225
f 226 227 228
f 229 230 231
f 232 233 234
f 235 236 237
f 238 239 240
f 241 242 243
f 244 245 246
f 247 248 249
f 250 251 252
f 253 254 255
f 256 257 258
f 259 260 261
f 262 263 264
f 265 266 267
f 268 269 270
f 271 272 273
f 274 275 276
f 277 278 279
f 280 281 282
f 283 284 285
f 286 287 288
f 289 290 291
f 292 293 294
f 295 296 297
f 298 299 300
f 301 302 303
f 304 305 306
f 307 308 309
f 310 311 312
f 313 314 315
f 316 317 318
f 319 320 321
f 322 323 324
f 325 326 327
f 328 329 330
f 331 332 333
f 334 335 336
f 337 338 339
f 340 341 342
f 343 344 345
f 346 347 348
f 349 350 351
f 352 353 354
f 355 356 357
f 358 359 360
f 361 362 363
f 364 365 366
f 367 368 369
f 370 371 372
f 373 374 375
f 376 377 378
f 379 380 381
f 382 383 384
f 385 386 387
f 388 389 390
f 391 392 393
f 394 395 396
f 397 398 399
f 400 401 402
f 403 404 405
f 406 407 408
f 409 410 411
f 412 413 414
f 415 416 417
f 418 419 420
f 421 422 423
f 424 425 426
f 427 428 429
f 430 431 432
f 433 434 435
f 436 437 438
f 439 440 441
f 442 443 444
f 445 446 447
f 448 449 450
f 451 452 453
f 454 455 456
f 457 458 459
f 460 461 462
f 463 464 465
f 466 467 468
f 469 470 471
f 472 473 474
f 475 476 477
f 478 479 480
f 481 482 483
f 484 485 486
f 487 488 489
f 490 491 492
f 493 494 495
f 496 497 498
f 499 500 501
f 502 503 504
f 505 506 507
f 508 509 510
f 511 512 513
f 514 515 516
f 517 518 519
f 520 521 522
f 523 524 525
f 526 527 528
f 529 530 531
f 532 533 534
f 535 536 537
f 538 539 540
f 541 542 543
f 544 545 546
f 547 548 549
f 550 551 552
f 553 554 555
f 556 557 558
f 559 560 561
f 562 563 564
f 565 566 567
f 568 569 570
f 571 572 573
f 574 575 576
f 577 578 579
f 580 581 582
f 583 584 585
f 586 587 588
f 589 590 591
f 592 593 594
f 595 596 597
f 598 599 600
f 601 602 603
f 604 605 606
f 607 608 609
f 610 611 612
f 613 614 615
f 616 617 618
f 619 620 621
f 622 623 624
f 625 626 627
f 628 629 630
f 631 632 633
f 634 635 636
f 637 638 639
f 640 641 642
f 643 644 645
f 646 647 648
f 649 650 651
f 652 653 654
f 655 656 657
f 658 659 660
f 661 662 663
f 664 665 666
f 667 668 669
f 670 671 672
f 673 674 675
f 676 677 678
f 679 680 681
f 682 683 684
f 685 686 687
f 688 689 690
f 691 692 693
f 694 695 696
f 697 698 699
f 700 701 702
f 703 704 705
f 706 707 708
f 709 710 711
f 712 713 714
f 715 716 717
f 718 719 720
f 721 722 723
f 724 725 726
f 727 728 729
f 730 731 732
f 733 734 735
f 736 737 738
f 739 740 741
f 742 743 744
f 745 746 747
f 748 749 750
f 751 752 753
f 754 755 756
f 757 758 759
f 760 761 762
f 763 764 765
f 766 767 768
f 769 770 771
f 772 773 774
f 775 776 777
f 778 779 780
f 781 782 783
f 784 785 786
f 787 788 789
f 790 791 792
f 793 794 795
f 796 797 798
f 799 800 801
f 802 803 804
f 805 806 807
f 808 809 810
f 811 812 813
f 814 815 816

o TreeFoliage
v 0.018079 2.285476 0.026190
v 0.235698 2.373868 0.024981
v 0.172446 2.377290 0.191957
v 0.018079 2.285476 0.026190
v 0.172446 2.377290 0.191957
v 0.018079 2.285476 0.026190
v 0.018079 2.285476 0.026190
v 0.172446 2.377290 0.191957
v 0.019740 2.380985 0.261090
v 0.018079 2.285476 0.026190
v 0.019740 2.380985 0.261090
v 0.018079 2.285476 0.026190
v 0.018079 2.285476 0.026190
v 0.019740 2.380985 0.261090
v -0.132965 2.382787 0.191882
v 0.018079 2.285476 0.026190
v -0.132965 2.382787 0.191882
v 0.018079 2.285476 0.026190
v 0.018079 2.285476 0.026190
v -0.132965 2.382787 0.191882
v -0.196217 2.381642 0.024875
v 0.018079 2.285476 0.026190
v -0.196217 2.381642 0.024875
v 0.018079 2.285476 0.026190
v 0.018079 2.285476 0.026190
v -0.196217 2.381642 0.024875
v -0.132965 2.378219 -0.142101
v 0.018079 2.285476 0.026190
v -0.132965 2.378219 -0.142101
v 0.018079 2.285476 0.026190
v 0.018079 2.285476 0.026190
v -0.132965 2.378219 -0.142101
v 0.019740 2.374524 -0.211234
v 0.018079 2.285476 0.026190
v 0.019740 2.374524 -0.211234
v 0.018079 2.285476 0.026190
v 0.018079 2.285476 0.026190
v 0.019740 2.374524 -0.211234
v 0.172446 2.372722 -0.142026
v 0.018079 2.285476 0.026190
v 0.172446 2.372722 -0.142026
v 0.018079 2.285476 0.026190
v 0.018079 2.285476 0.026190
v 0.172446 2.372722 -0.142026
v 0.235698 2.373868 0.024981
v 0.018079 2.285476 0.026190
v 0.235698 2.373868 0.024981
v 0.018079 2.285476 0.026190
v 0.235698 2.373868 0.024981
v 0.329162 2.595039 0.021956
v 0.239709 2.599879 0.258096
v 0.235698 2.373868 0.024981
v 0.239709 2.599879 0.258096
v 0.172446 2.377290 0.191957
v 0.172446 2.377290 0.191957
v 0.239709 2.599879 0.258096
v 0.023751 2.605104 0.355864
v 0.172446 2.377290 0.191957
v 0.023751 2.605104 0.355864
v 0.019740 2.380985 0.261090
v 0.019740 2.380985 0.261090
v 0.023751 2.605104 0.355864
v -0.192207 2.607654 0.257989
v 0.019740 2.380985 0.261090
v -0.192207 2.607654 0.257989
v -0.132965 2.382787 0.191882
v -0.132965 2.382787 0.191882
v -0.192207 2.607654 0.257989
v -0.281659 2.606033 0.021805
v -0.132965 2.382787 0.191882
v -0.281659 2.606033 0.021805
v -0.196217 2.381642 0.024875
v -0.196217 2.381642 0.024875
v -0.281659 2.606033 0.021805
v -0.192207 2.601193 -0.214334
v -0.196217 2.381642 0.024875
v -0.192207 2.601193 -0.214334
v -0.132965 2.378219 -0.142101
v -0.132965 2.378219 -0.142101
v -0.192207 2.601193 -0.214334
v 0.023751 2.595968 -0.312103
v -0.132965 2.378219 -0.142101
v 0.023751 2.595968 -0.312103
v 0.019740 2.374524 -0.211234
v 0.019740 2.374524 -0.211234
v 0.023751 2.595968 -0.312103
v 0.239709 2.593418 -0.214228
v 0.019740 2.374524 -0.211234
v 0.239709 2.593418 -0.214228
v 0.172446 2.372722 -0.142026
v 0.172446 2.372722 -0.142026
v 0.239709 2.593418 -0.214228
v 0.329162 2.595039 0.021956
v 0.172446 2.372722 -0.142026
v 0.329162 2.595039 0.021956
v 0.235698 2.373868 0.024981
v 0.329162 2.595039 0.021956
v 0.243720 2.819431 0.018886
v 0.180467 2.822853 0.185862
v 0.329162 2.595039 0.021956
v 0.180467 2.822853 0.185862
v 0.239709 2.599879 0.258096
v 0.239709 2.599879 0.258096
v 0.180467 2.822853 0.185862
v 0.027762 2.826548 0.254995
v 0.239709 2.599879 0.258096
v 0.027762 2.826548 0.254995
v 0.023751 2.605104 0.355864
v 0.023751 2.605104 0.355864
v 0.027762 2.826548 0.254995
v -0.124943 2.828351 0.185787
v 0.023751 2.605104 0.355864
v -0.124943 2.828351 0.185787
v -0.192207 2.607654 0.257989
v -0.192207 2.607654 0.257989
v -0.124943 2.828351 0.185787
v -0.188196 2.827205 0.018780
v -0.192207 2.607654 0.257989
v -0.188196 2.827205 0.018780
v -0.281659 2.606033 0.021805
v -0.281659 2.606033 0.021805
v -0.188196 2.827205 0.018780
v -0.124943 2.823782 -0.148196
v -0.281659 2.606033 0.021805
v -0.124943 2.823782 -0.148196
v -0.192207 2.601193 -0.214334
v -0.192207 2.601193 -0.214334
v -0.124943 2.823782 -0.148196
v 0.027762 2.820087 -0.217329
v -0.192207 2.601193 -0.214334
v 0.027762 2.820087 -0.217329
v 0.023751 2.595968 -0.312103
v 0.023751 2.595968 -0.312103
v 0.027762 2.820087 -0.217329
v 0.180467 2.818285 -0.148121
v 0.023751 2.595968 -0.312103
v 0.180467 2.818285 -0.148121
v 0.239709 2.593418 -0.214228
v 0.239709 2.593418 -0.214228
v 0.180467 2.818285 -0.148121
v 0.243720 2.819431 0.018886
v 0.239709 2.593418 -0.214228
v 0.243720 2.819431 0.018886
v 0.329162 2.595039 0.021956
v 0.243720 2.819431 0.018886
v 0.029423 2.915597 0.017571
v 0.029423 2.915597 0.017571
v 0.243720 2.819431 0.018886
v 0.029423 2.915597 0.017571
v 0.180467 2.822853 0.185862
v 0.180467 2.822853 0.185862
v 0.029423 2.915597 0.017571
v 0.029423 2.915597 0.017571
v 0.180467 2.822853 0.185862
v 0.029423 2.915597 0.017571
v 0.027762 2.826548 0.254995
v 0.027762 2.826548 0.254995
v 0.029423 2.915597 0.017571
v 0.029423 2.915597 0.017571
v 0.027762 2.826548 0.254995
v 0.029423 2.915597 0.017571
v -0.124943 2.828351 0.185787
v -0.124943 2.828351 0.185787
v 0.029423 2.915597 0.017571
v 0.029423 2.915597 0.017571
v -0.124943 2.828351 0.185787
v 0.029423 2.915597 0.017571
v -0.188196 2.827205 0.018780
v -0.188196 2.827205 0.018780
v 0.029423 2.915597 0.017571
v 0.029423 2.915597 0.017571
v -0.188196 2.827205 0.018780
v 0.029423 2.915597 0.017571
v -0.124943 2.823782 -0.148196
v -0.124943 2.823782 -0.148196
v 0.029423 2.915597 0.017571
v 0.029423 2.915597 0.017571
v -0.124943 2.823782 -0.148196
v 0.029423 2.915597 0.017571
v 0.027762 2.820087 -0.217329
v 0.027762 2.820087 -0.217329
v 0.029423 2.915597 0.017571
v 0.029423 2.915597 0.017571
v 0.027762 2.820087 -0.217329
v 0.029423 2.915597 0.017571
v 0.180467 2.818285 -0.148121
v 0.180467 2.818285 -0.148121
v 0.029423 2.915597 0.017571
v 0.029423 2.915597 0.017571
v 0.180467 2.818285 -0.148121
v 0.029423 2.915597 0.017571
v 0.243720 2.819431 0.018886
v -0.151883 2.207340 0.213373
v 0.085759 2.302924 0.212066
v 0.016682 2.306243 0.363769
v -0.151883 2.207340 0.213373
v 0.016682 2.306243 0.363769
v -0.151883 2.207340 0.213373
v -0.151883 2.207340 0.213373
v 0.016682 2.306243 0.363769
v -0.150085 2.310105 0.426572
v -0.151883 2.207340 0.213373
v -0.150085 2.310105 0.426572
v -0.151883 2.207340 0.213373
v -0.151883 2.207340 0.213373
v -0.150085 2.310105 0.426572
v -0.316852 2.312247 0.363687
v -0.151883 2.207340 0.213373
v -0.316852 2.312247 0.363687
v -0.151883 2.207340 0.213373
v -0.151883 2.207340 0.213373
v -0.316852 2.312247 0.363687
v -0.385929 2.311415 0.211949
v -0.151883 2.207340 0.213373
v -0.385929 2.311415 0.211949
v -0.151883 2.207340 0.213373
v -0.151883 2.207340 0.213373
v -0.385929 2.311415 0.211949
v -0.316852 2.308096 0.060246
v -0.151883 2.207340 0.213373
v -0.316852 2.308096 0.060246
v -0.151883 2.207340 0.213373
v -0.151883 2.207340 0.213373
v -0.316852 2.308096 0.060246
v -0.150085 2.304235 -0.002557
v -0.151883 2.207340 0.213373
v -0.150085 2.304235 -0.002557
v -0.151883 2.207340 0.213373
v -0.151883 2.207340 0.213373
v -0.150085 2.304235 -0.002557
v 0.016682 2.302093 0.060328
v -0.151883 2.207340 0.213373
v 0.016682 2.302093 0.060328
v -0.151883 2.207340 0.213373
v -0.151883 2.207340 0.213373
v 0.016682 2.302093 0.060328
v 0.085759 2.302924 0.212066
v -0.151883 2.207340 0.213373
v 0.085759 2.302924 0.212066
v -0.151883 2.207340 0.213373
v 0.085759 2.302924 0.212066
v 0.187788 2.542175 0.208793
v 0.090098 2.546868 0.423334
v 0.085759 2.302924 0.212066
v 0.090098 2.546868 0.423334
v 0.016682 2.306243 0.363769
v 0.016682 2.306243 0.363769
v 0.090098 2.546868 0.423334
v -0.145746 2.552329 0.512151
v 0.016682 2.306243 0.363769
v -0.145746 2.552329 0.512151
v -0.150085 2.310105 0.426572
v -0.150085 2.310105 0.426572
v -0.145746 2.552329 0.512151
v -0.381591 2.555358 0.423218
v -0.150085 2.310105 0.426572
v -0.381591 2.555358 0.423218
v -0.316852 2.312247 0.363687
v -0.316852 2.312247 0.363687
v -0.381591 2.555358 0.423218
v -0.479280 2.554182 0.208629
v -0.316852 2.312247 0.363687
v -0.479280 2.554182 0.208629
v -0.385929 2.311415 0.211949
v -0.385929 2.311415 0.211949
v -0.479280 2.554182 0.208629
v -0.381591 2.549489 -0.005912
v -0.385929 2.311415 0.211949
v -0.381591 2.549489 -0.005912
v -0.316852 2.308096 0.060246
v -0.316852 2.308096 0.060246
v -0.381591 2.549489 -0.005912
v -0.145746 2.544028 -0.094730
v -0.316852 2.308096 0.060246
v -0.145746 2.544028 -0.094730
v -0.150085 2.304235 -0.002557
v -0.150085 2.304235 -0.002557
v -0.145746 2.544028 -0.094730
v 0.090098 2.540998 -0.005796
v -0.150085 2.304235 -0.002557
v 0.090098 2.540998 -0.005796
v 0.016682 2.302093 0.060328
v 0.016682 2.302093 0.060328
v 0.090098 2.540998 -0.005796
v 0.187788 2.542175 0.208793
v 0.016682 2.302093 0.060328
v 0.187788 2.542175 0.208793
v 0.085759 2.302924 0.212066
v 0.187788 2.542175 0.208793
v 0.094437 2.784942 0.205472
v 0.025359 2.788260 0.357175
v 0.187788 2.542175 0.208793
v 0.025359 2.788260 0.357175
v 0.090098 2.546868 0.423334
v 0.090098 2.546868 0.423334
v 0.025359 2.788260 0.357175
v -0.141408 2.792122 0.419979
v 0.090098 2.546868 0.423334
v -0.141408 2.792122 0.419979
v -0.145746 2.552329 0.512151
v -0.145746 2.552329 0.512151
v -0.141408 2.792122 0.419979
v -0.308174 2.794264 0.357093
v -0.145746 2.552329 0.512151
v -0.308174 2.794264 0.357093
v -0.381591 2.555358 0.423218
v -0.381591 2.555358 0.423218
v -0.308174 2.794264 0.357093
v -0.377252 2.793432 0.205356
v -0.381591 2.555358 0.423218
v -0.377252 2.793432 0.205356
v -0.479280 2.554182 0.208629
v -0.479280 2.554182 0.208629
v -0.377252 2.793432 0.205356
v -0.308174 2.790113 0.053653
v -0.479280 2.554182 0.208629
v -0.308174 2.790113 0.053653
v -0.381591 2.549489 -0.005912
v -0.381591 2.549489 -0.005912
v -0.308174 2.790113 0.053653
v -0.141408 2.786252 -0.009151
v -0.381591 2.549489 -0.005912
v -0.141408 2.786252 -0.009151
v -0.145746 2.544028 -0.094730
v -0.145746 2.544028 -0.094730
v -0.141408 2.786252 -0.009151
v 0.025359 2.784110 0.053735
v -0.145746 2.544028 -0.094730
v 0.025359 2.784110 0.053735
v 0.090098 2.540998 -0.005796
v 0.090098 2.540998 -0.005796
v 0.025359 2.784110 0.053735
v 0.094437 2.784942 0.205472
v 0.090098 2.540998 -0.005796
v 0.094437 2.784942 0.205472
v 0.187788 2.542175 0.208793
v 0.094437 2.784942 0.205472
v -0.139610 2.889016 0.204049
v -0.139610 2.889016 0.204049
v 0.094437 2.784942 0.205472
v -0.139610 2.889016 0.204049
v 0.025359 2.788260 0.357175
v 0.025359 2.788260 0.357175
v -0.139610 2.889016 0.204049
v -0.139610 2.889016 0.204049
v 0.025359 2.788260 0.357175
v -0.139610 2.889016 0.204049
v -0.141408 2.792122 0.419979
v -0.141408 2.792122 0.419979
v -0.139610 2.889016 0.204049
v -0.139610 2.889016 0.204049
v -0.141408 2.792122 0.419979
v -0.139610 2.889016 0.204049
v -0.308174 2.794264 0.357093
v -0.308174 2.794264 0.357093
v -0.139610 2.889016 0.204049
v -0.139610 2.889016 0.204049
v -0.308174 2.794264 0.357093
v -0.139610 2.889016 0.204049
v -0.377252 2.793432 0.205356
v -0.377252 2.793432 0.205356
v -0.139610 2.889016 0.204049
v -0.139610 2.889016 0.204049
v -0.377252 2.793432 0.205356
v -0.139610 2.889016 0.204049
v -0.308174 2.790113 0.053653
v -0.308174 2.790113 0.053653
v -0.139610 2.889016 0.204049
v -0.139610 2.889016 0.204049
v -0.308174 2.790113 0.053653
v -0.139610 2.889016 0.204049
v -0.141408 2.786252 -0.009151
v -0.141408 2.786252 -0.009151
v -0.139610 2.889016 0.204049
v -0.139610 2.889016 0.204049
v -0.141408 2.786252 -0.009151
v -0.139610 2.889016 0.204049
v 0.025359 2.784110 0.053735
v 0.025359 2.784110 0.053735
v -0.139610 2.889016 0.204049
v -0.139610 2.889016 0.204049
v 0.025359 2.784110 0.053735
v -0.139610 2.889016 0.204049
v 0.094437 2.784942 0.205472
v -0.223730 2.358182 -0.154986
v -0.051494 2.430272 -0.155972
v -0.101544 2.432770 -0.039256
v -0.223730 2.358182 -0.154986
v -0.101544 2.432770 -0.039256
v -0.223730 2.358182 -0.154986
v -0.223730 2.358182 -0.154986
v -0.101544 2.432770 -0.039256
v -0.222377 2.435606 0.009065
v -0.223730 2.358182 -0.154986
v -0.222377 2.435606 0.009065
v -0.223730 2.358182 -0.154986
v -0.223730 2.358182 -0.154986
v -0.222377 2.435606 0.009065
v -0.343209 2.437119 -0.039315
v -0.223730 2.358182 -0.154986
v -0.343209 2.437119 -0.039315
v -0.223730 2.358182 -0.154986
v -0.223730 2.358182 -0.154986
v -0.343209 2.437119 -0.039315
v -0.393260 2.436424 -0.156056
v -0.223730 2.358182 -0.154986
v -0.393260 2.436424 -0.156056
v -0.223730 2.358182 -0.154986
v -0.223730 2.358182 -0.154986
v -0.393260 2.436424 -0.156056
v -0.343209 2.433926 -0.272772
v -0.223730 2.358182 -0.154986
v -0.343209 2.433926 -0.272772
v -0.223730 2.358182 -0.154986
v -0.223730 2.358182 -0.154986
v -0.343209 2.433926 -0.272772
v -0.222377 2.431090 -0.321092
v -0.223730 2.358182 -0.154986
v -0.222377 2.431090 -0.321092
v -0.223730 2.358182 -0.154986
v -0.223730 2.358182 -0.154986
v -0.222377 2.431090 -0.321092
v -0.101544 2.429576 -0.272712
v -0.223730 2.358182 -0.154986
v -0.101544 2.429576 -0.272712
v -0.223730 2.358182 -0.154986
v -0.223730 2.358182 -0.154986
v -0.101544 2.429576 -0.272712
v -0.051494 2.430272 -0.155972
v -0.223730 2.358182 -0.154986
v -0.051494 2.430272 -0.155972
v -0.223730 2.358182 -0.154986
v -0.051494 2.430272 -0.155972
v 0.022555 2.610464 -0.158436
v -0.048227 2.613997 0.006625
v -0.051494 2.430272 -0.155972
v -0.048227 2.613997 0.006625
v -0.101544 2.432770 -0.039256
v -0.101544 2.432770 -0.039256
v -0.048227 2.613997 0.006625
v -0.219110 2.618008 0.074961
v -0.101544 2.432770 -0.039256
v -0.219110 2.618008 0.074961
v -0.222377 2.435606 0.009065
v -0.222377 2.435606 0.009065
v -0.219110 2.618008 0.074961
v -0.389993 2.620148 0.006541
v -0.222377 2.435606 0.009065
v -0.389993 2.620148 0.006541
v -0.343209 2.437119 -0.039315
v -0.343209 2.437119 -0.039315
v -0.389993 2.620148 0.006541
v -0.460775 2.619164 -0.158555
v -0.343209 2.437119 -0.039315
v -0.460775 2.619164 -0.158555
v -0.393260 2.436424 -0.156056
v -0.393260 2.436424 -0.156056
v -0.460775 2.619164 -0.158555
v -0.389993 2.615632 -0.323617
v -0.393260 2.436424 -0.156056
v -0.389993 2.615632 -0.323617
v -0.343209 2.433926 -0.272772
v -0.343209 2.433926 -0.272772
v -0.389993 2.615632 -0.323617
v -0.219110 2.611621 -0.391952
v -0.343209 2.433926 -0.272772
v -0.219110 2.611621 -0.391952
v -0.222377 2.431090 -0.321092
v -0.222377 2.431090 -0.321092
v -0.219110 2.611621 -0.391952
v -0.048227 2.609480 -0.323533
v -0.222377 2.431090 -0.321092
v -0.048227 2.609480 -0.323533
v -0.101544 2.429576 -0.272712
v -0.101544 2.429576 -0.272712
v -0.048227 2.609480 -0.323533
v 0.022555 2.610464 -0.158436
v -0.101544 2.429576 -0.272712
v 0.022555 2.610464 -0.158436
v -0.051494 2.430272 -0.155972
v 0.022555 2.610464 -0.158436
v -0.044960 2.793205 -0.160936
v -0.095010 2.795702 -0.044220
v 0.022555 2.610464 -0.158436
v -0.095010 2.795702 -0.044220
v -0.048227 2.613997 0.006625
v -0.048227 2.613997 0.006625
v -0.095010 2.795702 -0.044220
v -0.215843 2.798539 0.004101
v -0.048227 2.613997 0.006625
v -0.215843 2.798539 0.004101
v -0.219110 2.618008 0.074961
v -0.219110 2.618008 0.074961
v -0.215843 2.798539 0.004101
v -0.336675 2.800052 -0.044280
v -0.219110 2.618008 0.074961
v -0.336675 2.800052 -0.044280
v -0.389993 2.620148 0.006541
v -0.389993 2.620148 0.006541
v -0.336675 2.800052 -0.044280
v -0.386726 2.799357 -0.161020
v -0.389993 2.620148 0.006541
v -0.386726 2.799357 -0.161020
v -0.460775 2.619164 -0.158555
v -0.460775 2.619164 -0.158555
v -0.386726 2.799357 -0.161020
v -0.336675 2.796859 -0.277736
v -0.460775 2.619164 -0.158555
v -0.336675 2.796859 -0.277736
v -0.389993 2.615632 -0.323617
v -0.389993 2.615632 -0.323617
v -0.336675 2.796859 -0.277736
v -0.215843 2.794023 -0.326057
v -0.389993 2.615632 -0.323617
v -0.215843 2.794023 -0.326057
v -0.219110 2.611621 -0.391952
v -0.219110 2.611621 -0.391952
v -0.215843 2.794023 -0.326057
v -0.095010 2.792509 -0.277677
v -0.219110 2.611621 -0.391952
v -0.095010 2.792509 -0.277677
v -0.048227 2.609480 -0.323533
v -0.048227 2.609480 -0.323533
v -0.095010 2.792509 -0.277677
v -0.044960 2.793205 -0.160936
v -0.048227 2.609480 -0.323533
v -0.044960 2.793205 -0.160936
v 0.022555 2.610464 -0.158436
v -0.044960 2.793205 -0.160936
v -0.214490 2.871447 -0.162006
v -0.214490 2.871447 -0.162006
v -0.044960 2.793205 -0.160936
v -0.214490 2.871447 -0.162006
v -0.095010 2.795702 -0.044220
v -0.095010 2.795702 -0.044220
v -0.214490 2.871447 -0.162006
v -0.214490 2.871447 -0.162006
v -0.095010 2.795702 -0.044220
v -0.214490 2.871447 -0.162006
v -0.215843 2.798539 0.004101
v -0.215843 2.798539 0.004101
v -0.214490 2.871447 -0.162006
v -0.214490 2.871447 -0.162006
v -0.215843 2.798539 0.004101
v -0.214490 2.871447 -0.162006
v -0.336675 2.800052 -0.044280
v -0.336675 2.800052 -0.044280
v -0.214490 2.871447 -0.162006
v -0.214490 2.871447 -0.162006
v -0.336675 2.800052 -0.044280
v -0.214490 2.871447 -0.162006
v -0.386726 2.799357 -0.161020
v -0.386726 2.799357 -0.161020
v -0.214490 2.871447 -0.162006
v -0.214490 2.871447 -0.162006
v -0.386726 2.799357 -0.161020
v -0.214490 2.871447 -0.162006
v -0.336675 2.796859 -0.277736
v -0.336675 2.796859 -0.277736
v -0.214490 2.871447 -0.162006
v -0.214490 2.871447 -0.162006
v -0.336675 2.796859 -0.277736
v -0.214490 2.871447 -0.162006
v -0.215843 2.794023 -0.326057
v -0.215843 2.794023 -0.326057
v -0.214490 2.871447 -0.162006
v -0.214490 2.871447 -0.162006
v -0.215843 2.794023 -0.326057
v -0.214490 2.871447 -0.162006
v -0.095010 2.792509 -0.277677
v -0.095010 2.792509 -0.277677
v -0.214490 2.871447 -0.162006
v -0.214490 2.871447 -0.162006
v -0.095010 2.792509 -0.277677
v -0.214490 2.871447 -0.162006
v -0.044960 2.793205 -0.160936
v 0.196734 2.093411 -0.275036
v 0.388992 2.172693 -0.276120
v 0.333117 2.175585 -0.138232
v 0.196734 2.093411 -0.275036
v 0.333117 2.175585 -0.138232
v 0.196734 2.093411 -0.275036
v 0.196734 2.093411 -0.275036
v 0.333117 2.175585 -0.138232
v 0.198223 2.178794 -0.081145
v 0.196734 2.093411 -0.275036
v 0.198223 2.178794 -0.081145
v 0.196734 2.093411 -0.275036
v 0.196734 2.093411 -0.275036
v 0.198223 2.178794 -0.081145
v 0.063329 2.180441 -0.138299
v 0.196734 2.093411 -0.275036
v 0.063329 2.180441 -0.138299
v 0.196734 2.093411 -0.275036
v 0.196734 2.093411 -0.275036
v 0.063329 2.180441 -0.138299
v 0.007454 2.179560 -0.276214
v 0.196734 2.093411 -0.275036
v 0.007454 2.179560 -0.276214
v 0.196734 2.093411 -0.275036
v 0.196734 2.093411 -0.275036
v 0.007454 2.179560 -0.276214
v 0.063329 2.176668 -0.414102
v 0.196734 2.093411 -0.275036
v 0.063329 2.176668 -0.414102
v 0.196734 2.093411 -0.275036
v 0.196734 2.093411 -0.275036
v 0.063329 2.176668 -0.414102
v 0.198223 2.173459 -0.471189
v 0.196734 2.093411 -0.275036
v 0.198223 2.173459 -0.471189
v 0.196734 2.093411 -0.275036
v 0.196734 2.093411 -0.275036
v 0.198223 2.173459 -0.471189
v 0.333117 2.171812 -0.414035
v 0.196734 2.093411 -0.275036
v 0.333117 2.171812 -0.414035
v 0.196734 2.093411 -0.275036
v 0.196734 2.093411 -0.275036
v 0.333117 2.171812 -0.414035
v 0.388992 2.172693 -0.276120
v 0.196734 2.093411 -0.275036
v 0.388992 2.172693 -0.276120
v 0.196734 2.093411 -0.275036
v 0.388992 2.172693 -0.276120
v 0.471606 2.370964 -0.278832
v 0.392587 2.375054 -0.083830
v 0.388992 2.172693 -0.276120
v 0.392587 2.375054 -0.083830
v 0.333117 2.175585 -0.138232
v 0.333117 2.175585 -0.138232
v 0.392587 2.375054 -0.083830
v 0.201818 2.379593 -0.003096
v 0.333117 2.175585 -0.138232
v 0.201818 2.379593 -0.003096
v 0.198223 2.178794 -0.081145
v 0.198223 2.178794 -0.081145
v 0.201818 2.379593 -0.003096
v 0.011049 2.381922 -0.083924
v 0.198223 2.178794 -0.081145
v 0.011049 2.381922 -0.083924
v 0.063329 2.180441 -0.138299
v 0.063329 2.180441 -0.138299
v 0.011049 2.381922 -0.083924
v -0.067970 2.380677 -0.278965
v 0.063329 2.180441 -0.138299
v -0.067970 2.380677 -0.278965
v 0.007454 2.179560 -0.276214
v 0.007454 2.179560 -0.276214
v -0.067970 2.380677 -0.278965
v 0.011049 2.376586 -0.473968
v 0.007454 2.179560 -0.276214
v 0.011049 2.376586 -0.473968
v 0.063329 2.176668 -0.414102
v 0.063329 2.176668 -0.414102
v 0.011049 2.376586 -0.473968
v 0.201818 2.372048 -0.554702
v 0.063329 2.176668 -0.414102
v 0.201818 2.372048 -0.554702
v 0.198223 2.173459 -0.471189
v 0.198223 2.173459 -0.471189
v 0.201818 2.372048 -0.554702
v 0.392587 2.369719 -0.473874
v 0.198223 2.173459 -0.471189
v 0.392587 2.369719 -0.473874
v 0.333117 2.171812 -0.414035
v 0.333117 2.171812 -0.414035
v 0.392587 2.369719 -0.473874
v 0.471606 2.370964 -0.278832
v 0.333117 2.171812 -0.414035
v 0.471606 2.370964 -0.278832
v 0.388992 2.172693 -0.276120
v 0.471606 2.370964 -0.278832
v 0.396182 2.572081 -0.281583
v 0.340307 2.574973 -0.143696
v 0.471606 2.370964 -0.278832
v 0.340307 2.574973 -0.143696
v 0.392587 2.375054 -0.083830
v 0.392587 2.375054 -0.083830
v 0.340307 2.574973 -0.143696
v 0.205413 2.578182 -0.086608
v 0.392587 2.375054 -0.083830
v 0.205413 2.578182 -0.086608
v 0.201818 2.379593 -0.003096
v 0.201818 2.379593 -0.003096
v 0.205413 2.578182 -0.086608
v 0.070519 2.579829 -0.143762
v 0.201818 2.379593 -0.003096
v 0.070519 2.579829 -0.143762
v 0.011049 2.381922 -0.083924
v 0.011049 2.381922 -0.083924
v 0.070519 2.579829 -0.143762
v 0.014644 2.578948 -0.281677
v 0.011049 2.381922 -0.083924
v 0.014644 2.578948 -0.281677
v -0.067970 2.380677 -0.278965
v -0.067970 2.380677 -0.278965
v 0.014644 2.578948 -0.281677
v 0.070519 2.576056 -0.419565
v -0.067970 2.380677 -0.278965
v 0.070519 2.576056 -0.419565
v 0.011049 2.376586 -0.473968
v 0.011049 2.376586 -0.473968
v 0.070519 2.576056 -0.419565
v 0.205413 2.572847 -0.476652
v 0.011049 2.376586 -0.473968
v 0.205413 2.572847 -0.476652
v 0.201818 2.372048 -0.554702
v 0.201818 2.372048 -0.554702
v 0.205413 2.572847 -0.476652
v 0.340307 2.571200 -0.419498
v 0.201818 2.372048 -0.554702
v 0.340307 2.571200 -0.419498
v 0.392587 2.369719 -0.473874
v 0.392587 2.369719 -0.473874
v 0.340307 2.571200 -0.419498
v 0.396182 2.572081 -0.281583
v 0.392587 2.369719 -0.473874
v 0.396182 2.572081 -0.281583
v 0.471606 2.370964 -0.278832
v 0.396182 2.572081 -0.281583
v 0.206902 2.658230 -0.282762
v 0.206902 2.658230 -0.282762
v 0.396182 2.572081 -0.281583
v 0.206902 2.658230 -0.282762
v 0.340307 2.574973 -0.143696
v 0.340307 2.574973 -0.143696
v 0.206902 2.658230 -0.282762
v 0.206902 2.658230 -0.282762
v 0.340307 2.574973 -0.143696
v 0.206902 2.658230 -0.282762
v 0.205413 2.578182 -0.086608
v 0.205413 2.578182 -0.086608
v 0.206902 2.658230 -0.282762
v 0.206902 2.658230 -0.282762
v 0.205413 2.578182 -0.086608
v 0.206902 2.658230 -0.282762
v 0.070519 2.579829 -0.143762
v 0.070519 2.579829 -0.143762
v 0.206902 2.658230 -0.282762
v 0.206902 2.658230 -0.282762
v 0.070519 2.579829 -0.143762
v 0.206902 2.658230 -0.282762
v 0.014644 2.578948 -0.281677
v 0.014644 2.578948 -0.281677
v 0.206902 2.658230 -0.282762
v 0.206902 2.658230 -0.282762
v 0.014644 2.578948 -0.281677
v 0.206902 2.658230 -0.282762
v 0.070519 2.576056 -0.419565
v 0.070519 2.576056 -0.419565
v 0.206902 2.658230 -0.282762
v 0.206902 2.658230 -0.282762
v 0.070519 2.576056 -0.419565
v 0.206902 2.658230 -0.282762
v 0.205413 2.572847 -0.476652
v 0.205413 2.572847 -0.476652
v 0.206902 2.658230 -0.282762
v 0.206902 2.658230 -0.282762
v 0.205413 2.572847 -0.476652
v 0.206902 2.658230 -0.282762
v 0.340307 2.571200 -0.419498
v 0.340307 2.571200 -0.419498
v 0.206902 2.658230 -0.282762
v 0.206902 2.658230 -0.282762
v 0.340307 2.571200 -0.419498
v 0.206902 2.658230 -0.282762
v 0.396182 2.572081 -0.281583
v 0.183471 2.143429 0.107426
v 0.395751 2.229903 0.106243
v 0.334052 2.233211 0.266885
v 0.183471 2.143429 0.107426
v 0.334052 2.233211 0.266885
v 0.183471 2.143429 0.107426
v 0.183471 2.143429 0.107426
v 0.334052 2.233211 0.266885
v 0.185096 2.236802 0.333394
v 0.183471 2.143429 0.107426
v 0.185096 2.236802 0.333394
v 0.183471 2.143429 0.107426
v 0.183471 2.143429 0.107426
v 0.185096 2.236802 0.333394
v 0.036140 2.238573 0.266811
v 0.183471 2.143429 0.107426
v 0.036140 2.238573 0.266811
v 0.183471 2.143429 0.107426
v 0.183471 2.143429 0.107426
v 0.036140 2.238573 0.266811
v -0.025560 2.237486 0.106139
v 0.183471 2.143429 0.107426
v -0.025560 2.237486 0.106139
v 0.183471 2.143429 0.107426
v 0.183471 2.143429 0.107426
v -0.025560 2.237486 0.106139
v 0.036140 2.234178 -0.054503
v 0.183471 2.143429 0.107426
v 0.036140 2.234178 -0.054503
v 0.183471 2.143429 0.107426
v 0.183471 2.143429 0.107426
v 0.036140 2.234178 -0.054503
v 0.185096 2.230587 -0.121012
v 0.183471 2.143429 0.107426
v 0.185096 2.230587 -0.121012
v 0.183471 2.143429 0.107426
v 0.183471 2.143429 0.107426
v 0.185096 2.230587 -0.121012
v 0.334052 2.228816 -0.054429
v 0.183471 2.143429 0.107426
v 0.334052 2.228816 -0.054429
v 0.183471 2.143429 0.107426
v 0.183471 2.143429 0.107426
v 0.334052 2.228816 -0.054429
v 0.395751 2.229903 0.106243
v 0.183471 2.143429 0.107426
v 0.395751 2.229903 0.106243
v 0.183471 2.143429 0.107426
v 0.395751 2.229903 0.106243
v 0.486931 2.446253 0.103284
v 0.399675 2.450932 0.330465
v 0.395751 2.229903 0.106243
v 0.399675 2.450932 0.330465
v 0.334052 2.233211 0.266885
v 0.334052 2.233211 0.266885
v 0.399675 2.450932 0.330465
v 0.189019 2.456011 0.424524
v 0.334052 2.233211 0.266885
v 0.189019 2.456011 0.424524
v 0.185096 2.236802 0.333394
v 0.185096 2.236802 0.333394
v 0.189019 2.456011 0.424524
v -0.021636 2.458515 0.330361
v 0.185096 2.236802 0.333394
v -0.021636 2.458515 0.330361
v 0.036140 2.238573 0.266811
v 0.036140 2.238573 0.266811
v -0.021636 2.458515 0.330361
v -0.108893 2.456978 0.103137
v 0.036140 2.238573 0.266811
v -0.108893 2.456978 0.103137
v -0.025560 2.237486 0.106139
v -0.025560 2.237486 0.106139
v -0.108893 2.456978 0.103137
v -0.021636 2.452300 -0.124045
v -0.025560 2.237486 0.106139
v -0.021636 2.452300 -0.124045
v 0.036140 2.234178 -0.054503
v 0.036140 2.234178 -0.054503
v -0.021636 2.452300 -0.124045
v 0.189019 2.447221 -0.218104
v 0.036140 2.234178 -0.054503
v 0.189019 2.447221 -0.218104
v 0.185096 2.230587 -0.121012
v 0.185096 2.230587 -0.121012
v 0.189019 2.447221 -0.218104
v 0.399675 2.444716 -0.123941
v 0.185096 2.230587 -0.121012
v 0.399675 2.444716 -0.123941
v 0.334052 2.228816 -0.054429
v 0.334052 2.228816 -0.054429
v 0.399675 2.444716 -0.123941
v 0.486931 2.446253 0.103284
v 0.334052 2.228816 -0.054429
v 0.486931 2.446253 0.103284
v 0.395751 2.229903 0.106243
v 0.486931 2.446253 0.103284
v 0.403598 2.665745 0.100281
v 0.341898 2.669053 0.260923
v 0.486931 2.446253 0.103284
v 0.341898 2.669053 0.260923
v 0.399675 2.450932 0.330465
v 0.399675 2.450932 0.330465
v 0.341898 2.669053 0.260923
v 0.192942 2.672645 0.327432
v 0.399675 2.450932 0.330465
v 0.192942 2.672645 0.327432
v 0.189019 2.456011 0.424524
v 0.189019 2.456011 0.424524
v 0.192942 2.672645 0.327432
v 0.043987 2.674416 0.260850
v 0.189019 2.456011 0.424524
v 0.043987 2.674416 0.260850
v -0.021636 2.458515 0.330361
v -0.021636 2.458515 0.330361
v 0.043987 2.674416 0.260850
v -0.017713 2.673329 0.100177
v -0.021636 2.458515 0.330361
v -0.017713 2.673329 0.100177
v -0.108893 2.456978 0.103137
v -0.108893 2.456978 0.103137
v -0.017713 2.673329 0.100177
v 0.043987 2.670021 -0.060464
v -0.108893 2.456978 0.103137
v 0.043987 2.670021 -0.060464
v -0.021636 2.452300 -0.124045
v -0.021636 2.452300 -0.124045
v 0.043987 2.670021 -0.060464
v 0.192942 2.666429 -0.126974
v -0.021636 2.452300 -0.124045
v 0.192942 2.666429 -0.126974
v 0.189019 2.447221 -0.218104
v 0.189019 2.447221 -0.218104
v 0.192942 2.666429 -0.126974
v 0.341898 2.664658 -0.060391
v 0.189019 2.447221 -0.218104
v 0.341898 2.664658 -0.060391
v 0.399675 2.444716 -0.123941
v 0.399675 2.444716 -0.123941
v 0.341898 2.664658 -0.060391
v 0.403598 2.665745 0.100281
v 0.399675 2.444716 -0.123941
v 0.403598 2.665745 0.100281
v 0.486931 2.446253 0.103284
v 0.403598 2.665745 0.100281
v 0.194568 2.759803 0.098995
v 0.194568 2.759803 0.098995
v 0.403598 2.665745 0.100281
v 0.194568 2.759803 0.098995
v 0.341898 2.669053 0.260923
v 0.341898 2.669053 0.260923
v 0.194568 2.759803 0.098995
v 0.194568 2.759803 0.098995
v 0.341898 2.669053 0.260923
v 0.194568 2.759803 0.098995
v 0.192942 2.672645 0.327432
v 0.192942 2.672645 0.327432
v 0.194568 2.759803 0.098995
v 0.194568 2.759803 0.098995
v 0.192942 2.672645 0.327432
v 0.194568 2.759803 0.098995
v 0.043987 2.674416 0.260850
v 0.043987 2.674416 0.260850
v 0.194568 2.759803 0.098995
v 0.194568 2.759803 0.098995
v 0.043987 2.674416 0.260850
v 0.194568 2.759803 0.098995
v -0.017713 2.673329 0.100177
v -0.017713 2.673329 0.100177
v 0.194568 2.759803 0.098995
v 0.194568 2.759803 0.098995
v -0.017713 2.673329 0.100177
v 0.194568 2.759803 0.098995
v 0.043987 2.670021 -0.060464
v 0.043987 2.670021 -0.060464
v 0.194568 2.759803 0.098995
v 0.194568 2.759803 0.098995
v 0.043987 2.670021 -0.060464
v 0.194568 2.759803 0.098995
v 0.192942 2.666429 -0.126974
v 0.192942 2.666429 -0.126974
v 0.194568 2.759803 0.098995
v 0.194568 2.759803 0.098995
v 0.192942 2.666429 -0.126974
v 0.194568 2.759803 0.098995
v 0.341898 2.664658 -0.060391
v 0.341898 2.664658 -0.060391
v 0.194568 2.759803 0.098995
v 0.194568 2.759803 0.098995
v 0.341898 2.664658 -0.060391
v 0.194568 2.759803 0.098995
v 0.403598 2.665745 0.100281
v -0.063445 2.194384 0.250914
v 0.168858 2.288050 0.249633
v 0.101334 2.291261 0.395480
v -0.063445 2.194384 0.250914
v 0.101334 2.291261 0.395480
v -0.063445 2.194384 0.250914
v -0.063445 2.194384 0.250914
v 0.101334 2.291261 0.395480
v -0.061684 2.295022 0.455859
v -0.063445 2.194384 0.250914
v -0.061684 2.295022 0.455859
v -0.063445 2.194384 0.250914
v -0.063445 2.194384 0.250914
v -0.061684 2.295022 0.455859
v -0.224701 2.297129 0.395400
v -0.063445 2.194384 0.250914
v -0.224701 2.297129 0.395400
v -0.063445 2.194384 0.250914
v -0.063445 2.194384 0.250914
v -0.224701 2.297129 0.395400
v -0.292225 2.296350 0.249520
v -0.063445 2.194384 0.250914
v -0.292225 2.296350 0.249520
v -0.063445 2.194384 0.250914
v -0.063445 2.194384 0.250914
v -0.292225 2.296350 0.249520
v -0.224701 2.293139 0.103672
v -0.063445 2.194384 0.250914
v -0.224701 2.293139 0.103672
v -0.063445 2.194384 0.250914
v -0.063445 2.194384 0.250914
v -0.224701 2.293139 0.103672
v -0.061684 2.289378 0.043294
v -0.063445 2.194384 0.250914
v -0.061684 2.289378 0.043294
v -0.063445 2.194384 0.250914
v -0.063445 2.194384 0.250914
v -0.061684 2.289378 0.043294
v 0.101334 2.287270 0.103753
v -0.063445 2.194384 0.250914
v 0.101334 2.287270 0.103753
v -0.063445 2.194384 0.250914
v -0.063445 2.194384 0.250914
v 0.101334 2.287270 0.103753
v 0.168858 2.288050 0.249633
v -0.063445 2.194384 0.250914
v 0.168858 2.288050 0.249633
v -0.063445 2.194384 0.250914
v 0.168858 2.288050 0.249633
v 0.268603 2.522480 0.246426
v 0.173110 2.527021 0.452686
v 0.168858 2.288050 0.249633
v 0.173110 2.527021 0.452686
v 0.101334 2.291261 0.395480
v 0.101334 2.291261 0.395480
v 0.173110 2.527021 0.452686
v -0.057432 2.532339 0.538074
v 0.101334 2.291261 0.395480
v -0.057432 2.532339 0.538074
v -0.061684 2.295022 0.455859
v -0.061684 2.295022 0.455859
v -0.057432 2.532339 0.538074
v -0.287974 2.535320 0.452572
v -0.061684 2.295022 0.455859
v -0.287974 2.535320 0.452572
v -0.224701 2.297129 0.395400
v -0.224701 2.297129 0.395400
v -0.287974 2.535320 0.452572
v -0.383467 2.534217 0.246266
v -0.224701 2.297129 0.395400
v -0.383467 2.534217 0.246266
v -0.292225 2.296350 0.249520
v -0.292225 2.296350 0.249520
v -0.383467 2.534217 0.246266
v -0.287974 2.529677 0.040007
v -0.292225 2.296350 0.249520
v -0.287974 2.529677 0.040007
v -0.224701 2.293139 0.103672
v -0.224701 2.293139 0.103672
v -0.287974 2.529677 0.040007
v -0.057432 2.524358 -0.045381
v -0.224701 2.293139 0.103672
v -0.057432 2.524358 -0.045381
v -0.061684 2.289378 0.043294
v -0.061684 2.289378 0.043294
v -0.057432 2.524358 -0.045381
v 0.173110 2.521377 0.040120
v -0.061684 2.289378 0.043294
v 0.173110 2.521377 0.040120
v 0.101334 2.287270 0.103753
v 0.101334 2.287270 0.103753
v 0.173110 2.521377 0.040120
v 0.268603 2.522480 0.246426
v 0.101334 2.287270 0.103753
v 0.268603 2.522480 0.246426
v 0.168858 2.288050 0.249633
v 0.268603 2.522480 0.246426
v 0.177361 2.760347 0.243173
v 0.109837 2.763558 0.389020
v 0.268603 2.522480 0.246426
v 0.109837 2.763558 0.389020
v 0.173110 2.527021 0.452686
v 0.173110 2.527021 0.452686
v 0.109837 2.763558 0.389020
v -0.053181 2.767319 0.449399
v 0.173110 2.527021 0.452686
v -0.053181 2.767319 0.449399
v -0.057432 2.532339 0.538074
v -0.057432 2.532339 0.538074
v -0.053181 2.767319 0.449399
v -0.216198 2.769426 0.388940
v -0.057432 2.532339 0.538074
v -0.216198 2.769426 0.388940
v -0.287974 2.535320 0.452572
v -0.287974 2.535320 0.452572
v -0.216198 2.769426 0.388940
v -0.283722 2.768647 0.243059
v -0.287974 2.535320 0.452572
v -0.283722 2.768647 0.243059
v -0.383467 2.534217 0.246266
v -0.383467 2.534217 0.246266
v -0.283722 2.768647 0.243059
v -0.216198 2.765436 0.097212
v -0.383467 2.534217 0.246266
v -0.216198 2.765436 0.097212
v -0.287974 2.529677 0.040007
v -0.287974 2.529677 0.040007
v -0.216198 2.765436 0.097212
v -0.053181 2.761675 0.036833
v -0.287974 2.529677 0.040007
v -0.053181 2.761675 0.036833
v -0.057432 2.524358 -0.045381
v -0.057432 2.524358 -0.045381
v -0.053181 2.761675 0.036833
v 0.109837 2.759567 0.097292
v -0.057432 2.524358 -0.045381
v 0.109837 2.759567 0.097292
v 0.173110 2.521377 0.040120
v 0.173110 2.521377 0.040120
v 0.109837 2.759567 0.097292
v 0.177361 2.760347 0.243173
v 0.173110 2.521377 0.040120
v 0.177361 2.760347 0.243173
v 0.268603 2.522480 0.246426
v 0.177361 2.760347 0.243173
v -0.051420 2.862313 0.241778
v -0.051420 2.862313 0.241778
v 0.177361 2.760347 0.243173
v -0.051420 2.862313 0.241778
v 0.109837 2.763558 0.389020
v 0.109837 2.763558 0.389020
v -0.051420 2.862313 0.241778
v -0.051420 2.862313 0.241778
v 0.109837 2.763558 0.389020
v -0.051420 2.862313 0.241778
v -0.053181 2.767319 0.449399
v -0.053181 2.767319 0.449399
v -0.051420 2.862313 0.241778
v -0.051420 2.862313 0.241778
v -0.053181 2.767319 0.449399
v -0.051420 2.862313 0.241778
v -0.216198 2.769426 0.388940
v -0.216198 2.769426 0.388940
v -0.051420 2.862313 0.241778
v -0.051420 2.862313 0.241778
v -0.216198 2.769426 0.388940
v -0.051420 2.862313 0.241778
v -0.283722 2.768647 0.243059
v -0.283722 2.768647 0.243059
v -0.051420 2.862313 0.241778
v -0.051420 2.862313 0.241778
v -0.283722 2.768647 0.243059
v -0.051420 2.862313 0.241778
v -0.216198 2.765436 0.097212
v -0.216198 2.765436 0.097212
v -0.051420 2.862313 0.241778
v -0.051420 2.862313 0.241778
v -0.216198 2.765436 0.097212
v -0.051420 2.862313 0.241778
v -0.053181 2.761675 0.036833
v -0.053181 2.761675 0.036833
v -0.051420 2.862313 0.241778
v -0.051420 2.862313 0.241778
v -0.053181 2.761675 0.036833
v -0.051420 2.862313 0.241778
v 0.109837 2.759567 0.097292
v 0.109837 2.759567 0.097292
v -0.051420 2.862313 0.241778
v -0.051420 2.862313 0.241778
v 0.109837 2.759567 0.097292
v -0.051420 2.862313 0.241778
v 0.177361 2.760347 0.243173
v -0.261038 2.348483 -0.044754
v -0.009293 2.417129 -0.045692
v -0.082641 2.420753 0.122698
v -0.261038 2.348483 -0.044754
v -0.082641 2.420753 0.122698
v -0.261038 2.348483 -0.044754
v -0.261038 2.348483 -0.044754
v -0.082641 2.420753 0.122698
v -0.259721 2.424894 0.192411
v -0.261038 2.348483 -0.044754
v -0.259721 2.424894 0.192411
v -0.261038 2.348483 -0.044754
v -0.261038 2.348483 -0.044754
v -0.259721 2.424894 0.192411
v -0.436800 2.427127 0.122611
v -0.261038 2.348483 -0.044754
v -0.436800 2.427127 0.122611
v -0.261038 2.348483 -0.044754
v -0.261038 2.348483 -0.044754
v -0.436800 2.427127 0.122611
v -0.510149 2.426144 -0.045816
v -0.261038 2.348483 -0.044754
v -0.510149 2.426144 -0.045816
v -0.261038 2.348483 -0.044754
v -0.261038 2.348483 -0.044754
v -0.510149 2.426144 -0.045816
v -0.436800 2.422520 -0.214206
v -0.261038 2.348483 -0.044754
v -0.436800 2.422520 -0.214206
v -0.261038 2.348483 -0.044754
v -0.261038 2.348483 -0.044754
v -0.436800 2.422520 -0.214206
v -0.259721 2.418378 -0.283919
v -0.261038 2.348483 -0.044754
v -0.259721 2.418378 -0.283919
v -0.261038 2.348483 -0.044754
v -0.261038 2.348483 -0.044754
v -0.259721 2.418378 -0.283919
v -0.082641 2.416145 -0.214119
v -0.261038 2.348483 -0.044754
v -0.082641 2.416145 -0.214119
v -0.261038 2.348483 -0.044754
v -0.261038 2.348483 -0.044754
v -0.082641 2.416145 -0.214119
v -0.009293 2.417129 -0.045692
v -0.261038 2.348483 -0.044754
v -0.009293 2.417129 -0.045692
v -0.261038 2.348483 -0.044754
v -0.009293 2.417129 -0.045692
v 0.097617 2.591868 -0.048083
v -0.006113 2.596993 0.190057
v -0.009293 2.417129 -0.045692
v -0.006113 2.596993 0.190057
v -0.082641 2.420753 0.122698
v -0.082641 2.420753 0.122698
v -0.006113 2.596993 0.190057
v -0.256541 2.602850 0.288647
v -0.082641 2.420753 0.122698
v -0.256541 2.602850 0.288647
v -0.259721 2.424894 0.192411
v -0.259721 2.424894 0.192411
v -0.256541 2.602850 0.288647
v -0.506969 2.606008 0.189934
v -0.259721 2.424894 0.192411
v -0.506969 2.606008 0.189934
v -0.436800 2.427127 0.122611
v -0.436800 2.427127 0.122611
v -0.506969 2.606008 0.189934
v -0.610700 2.604617 -0.048257
v -0.436800 2.427127 0.122611
v -0.610700 2.604617 -0.048257
v -0.510149 2.426144 -0.045816
v -0.510149 2.426144 -0.045816
v -0.610700 2.604617 -0.048257
v -0.506969 2.599492 -0.286397
v -0.510149 2.426144 -0.045816
v -0.506969 2.599492 -0.286397
v -0.436800 2.422520 -0.214206
v -0.436800 2.422520 -0.214206
v -0.506969 2.599492 -0.286397
v -0.256541 2.593635 -0.384986
v -0.436800 2.422520 -0.214206
v -0.256541 2.593635 -0.384986
v -0.259721 2.418378 -0.283919
v -0.259721 2.418378 -0.283919
v -0.256541 2.593635 -0.384986
v -0.006113 2.590477 -0.286274
v -0.259721 2.418378 -0.283919
v -0.006113 2.590477 -0.286274
v -0.082641 2.416145 -0.214119
v -0.082641 2.416145 -0.214119
v -0.006113 2.590477 -0.286274
v 0.097617 2.591868 -0.048083
v -0.082641 2.416145 -0.214119
v 0.097617 2.591868 -0.048083
v -0.009293 2.417129 -0.045692
v 0.097617 2.591868 -0.048083
v -0.002934 2.770341 -0.050524
v -0.076283 2.773965 0.117866
v 0.097617 2.591868 -0.048083
v -0.076283 2.773965 0.117866
v -0.006113 2.596993 0.190057
v -0.006113 2.596993 0.190057
v -0.076283 2.773965 0.117866
v -0.253362 2.778107 0.187580
v -0.006113 2.596993 0.190057
v -0.253362 2.778107 0.187580
v -0.256541 2.602850 0.288647
v -0.256541 2.602850 0.288647
v -0.253362 2.778107 0.187580
v -0.430441 2.780340 0.117779
v -0.256541 2.602850 0.288647
v -0.430441 2.780340 0.117779
v -0.506969 2.606008 0.189934
v -0.506969 2.606008 0.189934
v -0.430441 2.780340 0.117779
v -0.503790 2.779357 -0.050647
v -0.506969 2.606008 0.189934
v -0.503790 2.779357 -0.050647
v -0.610700 2.604617 -0.048257
v -0.610700 2.604617 -0.048257
v -0.503790 2.779357 -0.050647
v -0.430441 2.775733 -0.219037
v -0.610700 2.604617 -0.048257
v -0.430441 2.775733 -0.219037
v -0.506969 2.599492 -0.286397
v -0.506969 2.599492 -0.286397
v -0.430441 2.775733 -0.219037
v -0.253362 2.771591 -0.288751
v -0.506969 2.599492 -0.286397
v -0.253362 2.771591 -0.288751
v -0.256541 2.593635 -0.384986
v -0.256541 2.593635 -0.384986
v -0.253362 2.771591 -0.288751
v -0.076283 2.769358 -0.218950
v -0.256541 2.593635 -0.384986
v -0.076283 2.769358 -0.218950
v -0.006113 2.590477 -0.286274
v -0.006113 2.590477 -0.286274
v -0.076283 2.769358 -0.218950
v -0.002934 2.770341 -0.050524
v -0.006113 2.590477 -0.286274
v -0.002934 2.770341 -0.050524
v 0.097617 2.591868 -0.048083
v -0.002934 2.770341 -0.050524
v -0.252045 2.848002 -0.051586
v -0.252045 2.848002 -0.051586
v -0.002934 2.770341 -0.050524
v -0.252045 2.848002 -0.051586
v -0.076283 2.773965 0.117866
v -0.076283 2.773965 0.117866
v -0.252045 2.848002 -0.051586
v -0.252045 2.848002 -0.051586
v -0.076283 2.773965 0.117866
v -0.252045 2.848002 -0.051586
v -0.253362 2.778107 0.187580
v -0.253362 2.778107 0.187580
v -0.252045 2.848002 -0.051586
v -0.252045 2.848002 -0.051586
v -0.253362 2.778107 0.187580
v -0.252045 2.848002 -0.051586
v -0.430441 2.780340 0.117779
v -0.430441 2.780340 0.117779
v -0.252045 2.848002 -0.051586
v -0.252045 2.848002 -0.051586
v -0.430441 2.780340 0.117779
v -0.252045 2.848002 -0.051586
v -0.503790 2.779357 -0.050647
v -0.503790 2.779357 -0.050647
v -0.252045 2.848002 -0.051586
v -0.252045 2.848002 -0.051586
v -0.503790 2.779357 -0.050647
v -0.252045 2.848002 -0.051586
v -0.430441 2.775733 -0.219037
v -0.430441 2.775733 -0.219037
v -0.252045 2.848002 -0.051586
v -0.252045 2.848002 -0.051586
v -0.430441 2.775733 -0.219037
v -0.252045 2.848002 -0.051586
v -0.253362 2.771591 -0.288751
v -0.253362 2.771591 -0.288751
v -0.252045 2.848002 -0.051586
v -0.252045 2.848002 -0.051586
v -0.253362 2.771591 -0.288751
v -0.252045 2.848002 -0.051586
v -0.076283 2.769358 -0.218950
v -0.076283 2.769358 -0.218950
v -0.252045 2.848002 -0.051586
v -0.252045 2.848002 -0.051586
v -0.076283 2.769358 -0.218950
v -0.252045 2.848002 -0.051586
v -0.002934 2.770341 -0.050524
v 0.069804 2.383420 -0.311928
v 0.256724 2.460784 -0.312987
v 0.202402 2.463569 -0.180899
v 0.069804 2.383420 -0.311928
v 0.202402 2.463569 -0.180899
v 0.069804 2.383420 -0.311928
v 0.069804 2.383420 -0.311928
v 0.202402 2.463569 -0.180899
v 0.071257 2.466678 -0.126213
v 0.069804 2.383420 -0.311928
v 0.071257 2.466678 -0.126213
v 0.069804 2.383420 -0.311928
v 0.069804 2.383420 -0.311928
v 0.071257 2.466678 -0.126213
v -0.059888 2.468290 -0.180963
v 0.069804 2.383420 -0.311928
v -0.059888 2.468290 -0.180963
v 0.069804 2.383420 -0.311928
v 0.069804 2.383420 -0.311928
v -0.059888 2.468290 -0.180963
v -0.114210 2.467461 -0.313078
v 0.069804 2.383420 -0.311928
v -0.114210 2.467461 -0.313078
v 0.069804 2.383420 -0.311928
v 0.069804 2.383420 -0.311928
v -0.114210 2.467461 -0.313078
v -0.059888 2.464676 -0.445166
v 0.069804 2.383420 -0.311928
v -0.059888 2.464676 -0.445166
v 0.069804 2.383420 -0.311928
v 0.069804 2.383420 -0.311928
v -0.059888 2.464676 -0.445166
v 0.071257 2.461567 -0.499851
v 0.069804 2.383420 -0.311928
v 0.071257 2.461567 -0.499851
v 0.069804 2.383420 -0.311928
v 0.069804 2.383420 -0.311928
v 0.071257 2.461567 -0.499851
v 0.202402 2.459955 -0.445101
v 0.069804 2.383420 -0.311928
v 0.202402 2.459955 -0.445101
v 0.069804 2.383420 -0.311928
v 0.069804 2.383420 -0.311928
v 0.202402 2.459955 -0.445101
v 0.256724 2.460784 -0.312987
v 0.069804 2.383420 -0.311928
v 0.256724 2.460784 -0.312987
v 0.069804 2.383420 -0.311928
v 0.256724 2.460784 -0.312987
v 0.337054 2.654235 -0.315633
v 0.260231 2.658174 -0.128832
v 0.256724 2.460784 -0.312987
v 0.260231 2.658174 -0.128832
v 0.202402 2.463569 -0.180899
v 0.202402 2.463569 -0.180899
v 0.260231 2.658174 -0.128832
v 0.074765 2.662570 -0.051495
v 0.202402 2.463569 -0.180899
v 0.074765 2.662570 -0.051495
v 0.071257 2.466678 -0.126213
v 0.071257 2.466678 -0.126213
v 0.074765 2.662570 -0.051495
v -0.110702 2.664850 -0.128924
v 0.071257 2.466678 -0.126213
v -0.110702 2.664850 -0.128924
v -0.059888 2.468290 -0.180963
v -0.059888 2.468290 -0.180963
v -0.110702 2.664850 -0.128924
v -0.187525 2.663677 -0.315762
v -0.059888 2.468290 -0.180963
v -0.187525 2.663677 -0.315762
v -0.114210 2.467461 -0.313078
v -0.114210 2.467461 -0.313078
v -0.187525 2.663677 -0.315762
v -0.110702 2.659739 -0.502562
v -0.114210 2.467461 -0.313078
v -0.110702 2.659739 -0.502562
v -0.059888 2.464676 -0.445166
v -0.059888 2.464676 -0.445166
v -0.110702 2.659739 -0.502562
v 0.074765 2.655342 -0.579900
v -0.059888 2.464676 -0.445166
v 0.074765 2.655342 -0.579900
v 0.071257 2.461567 -0.499851
v 0.071257 2.461567 -0.499851
v 0.074765 2.655342 -0.579900
v 0.260231 2.653063 -0.502471
v 0.071257 2.461567 -0.499851
v 0.260231 2.653063 -0.502471
v 0.202402 2.459955 -0.445101
v 0.202402 2.459955 -0.445101
v 0.260231 2.653063 -0.502471
v 0.337054 2.654235 -0.315633
v 0.202402 2.459955 -0.445101
v 0.337054 2.654235 -0.315633
v 0.256724 2.460784 -0.312987
v 0.337054 2.654235 -0.315633
v 0.263739 2.850452 -0.318317
v 0.209417 2.853236 -0.186229
v 0.337054 2.654235 -0.315633
v 0.209417 2.853236 -0.186229
v 0.260231 2.658174 -0.128832
v 0.260231 2.658174 -0.128832
v 0.209417 2.853236 -0.186229
v 0.078272 2.856346 -0.131543
v 0.260231 2.658174 -0.128832
v 0.078272 2.856346 -0.131543
v 0.074765 2.662570 -0.051495
v 0.074765 2.662570 -0.051495
v 0.078272 2.856346 -0.131543
v -0.052873 2.857958 -0.186293
v 0.074765 2.662570 -0.051495
v -0.052873 2.857958 -0.186293
v -0.110702 2.664850 -0.128924
v -0.110702 2.664850 -0.128924
v -0.052873 2.857958 -0.186293
v -0.107195 2.857129 -0.318408
v -0.110702 2.664850 -0.128924
v -0.107195 2.857129 -0.318408
v -0.187525 2.663677 -0.315762
v -0.187525 2.663677 -0.315762
v -0.107195 2.857129 -0.318408
v -0.052873 2.854344 -0.450496
v -0.187525 2.663677 -0.315762
v -0.052873 2.854344 -0.450496
v -0.110702 2.659739 -0.502562
v -0.110702 2.659739 -0.502562
v -0.052873 2.854344 -0.450496
v 0.078272 2.851235 -0.505182
v -0.110702 2.659739 -0.502562
v 0.078272 2.851235 -0.505182
v 0.074765 2.655342 -0.579900
v 0.074765 2.655342 -0.579900
v 0.078272 2.851235 -0.505182
v 0.209417 2.849622 -0.450431
v 0.074765 2.655342 -0.579900
v 0.209417 2.849622 -0.450431
v 0.260231 2.653063 -0.502471
v 0.260231 2.653063 -0.502471
v 0.209417 2.849622 -0.450431
v 0.263739 2.850452 -0.318317
v 0.260231 2.653063 -0.502471
v 0.263739 2.850452 -0.318317
v 0.337054 2.654235 -0.315633
v 0.263739 2.850452 -0.318317
v 0.079725 2.934493 -0.319466
v 0.079725 2.934493 -0.319466
v 0.263739 2.850452 -0.318317
v 0.079725 2.934493 -0.319466
v 0.209417 2.853236 -0.186229
v 0.209417 2.853236 -0.186229
v 0.079725 2.934493 -0.319466
v 0.079725 2.934493 -0.319466
v 0.209417 2.853236 -0.186229
v 0.079725 2.934493 -0.319466
v 0.078272 2.856346 -0.131543
v 0.078272 2.856346 -0.131543
v 0.079725 2.934493 -0.319466
v 0.079725 2.934493 -0.319466
v 0.078272 2.856346 -0.131543
v 0.079725 2.934493 -0.319466
v -0.052873 2.857958 -0.186293
v -0.052873 2.857958 -0.186293
v 0.079725 2.934493 -0.319466
v 0.079725 2.934493 -0.319466
v -0.052873 2.857958 -0.186293
v 0.079725 2.934493 -0.319466
v -0.107195 2.857129 -0.318408
v -0.107195 2.857129 -0.318408
v 0.079725 2.934493 -0.319466
v 0.079725 2.934493 -0.319466
v -0.107195 2.857129 -0.318408
v 0.079725 2.934493 -0.319466
v -0.052873 2.854344 -0.450496
v -0.052873 2.854344 -0.450496
v 0.079725 2.934493 -0.319466
v 0.079725 2.934493 -0.319466
v -0.052873 2.854344 -0.450496
v 0.079725 2.934493 -0.319466
v 0.078272 2.851235 -0.505182
v 0.078272 2.851235 -0.505182
v 0.079725 2.934493 -0.319466
v 0.079725 2.934493 -0.319466
v 0.078272 2.851235 -0.505182
v 0.079725 2.934493 -0.319466
v 0.209417 2.849622 -0.450431
v 0.209417 2.849622 -0.450431
v 0.079725 2.934493 -0.319466
v 0.079725 2.934493 -0.319466
v 0.209417 2.849622 -0.450431
v 0.079725 2.934493 -0.319466
v 0.263739 2.850452 -0.318317
v 0.187080 2.130517 0.036627
v 0.394022 2.215074 0.035471
v 0.333875 2.218269 0.189890
v 0.187080 2.130517 0.036627
v 0.333875 2.218269 0.189890
v 0.187080 2.130517 0.036627
v 0.187080 2.130517 0.036627
v 0.333875 2.218269 0.189890
v 0.188669 2.221757 0.253824
v 0.187080 2.130517 0.036627
v 0.188669 2.221757 0.253824
v 0.187080 2.130517 0.036627
v 0.187080 2.130517 0.036627
v 0.188669 2.221757 0.253824
v 0.043462 2.223496 0.189819
v 0.187080 2.130517 0.036627
v 0.043462 2.223496 0.189819
v 0.187080 2.130517 0.036627
v 0.187080 2.130517 0.036627
v 0.043462 2.223496 0.189819
v -0.016684 2.222466 0.035369
v 0.187080 2.130517 0.036627
v -0.016684 2.222466 0.035369
v 0.187080 2.130517 0.036627
v 0.187080 2.130517 0.036627
v -0.016684 2.222466 0.035369
v 0.043462 2.219271 -0.119051
v 0.187080 2.130517 0.036627
v 0.043462 2.219271 -0.119051
v 0.187080 2.130517 0.036627
v 0.187080 2.130517 0.036627
v 0.043462 2.219271 -0.119051
v 0.188669 2.215782 -0.182984
v 0.187080 2.130517 0.036627
v 0.188669 2.215782 -0.182984
v 0.187080 2.130517 0.036627
v 0.187080 2.130517 0.036627
v 0.188669 2.215782 -0.182984
v 0.333875 2.214044 -0.118979
v 0.187080 2.130517 0.036627
v 0.333875 2.214044 -0.118979
v 0.187080 2.130517 0.036627
v 0.187080 2.130517 0.036627
v 0.333875 2.214044 -0.118979
v 0.394022 2.215074 0.035471
v 0.187080 2.130517 0.036627
v 0.394022 2.215074 0.035471
v 0.187080 2.130517 0.036627
v 0.394022 2.215074 0.035471
v 0.482917 2.426604 0.032577
v 0.397857 2.431122 0.250960
v 0.394022 2.215074 0.035471
v 0.397857 2.431122 0.250960
v 0.333875 2.218269 0.189890
v 0.333875 2.218269 0.189890
v 0.397857 2.431122 0.250960
v 0.192504 2.436056 0.341375
v 0.333875 2.218269 0.189890
v 0.192504 2.436056 0.341375
v 0.188669 2.221757 0.253824
v 0.188669 2.221757 0.253824
v 0.192504 2.436056 0.341375
v -0.012849 2.438515 0.250859
v 0.188669 2.221757 0.253824
v -0.012849 2.438515 0.250859
v 0.043462 2.223496 0.189819
v 0.043462 2.223496 0.189819
v -0.012849 2.438515 0.250859
v -0.097908 2.437059 0.032434
v 0.043462 2.223496 0.189819
v -0.097908 2.437059 0.032434
v -0.016684 2.222466 0.035369
v -0.016684 2.222466 0.035369
v -0.097908 2.437059 0.032434
v -0.012849 2.432540 -0.185949
v -0.016684 2.222466 0.035369
v -0.012849 2.432540 -0.185949
v 0.043462 2.219271 -0.119051
v 0.043462 2.219271 -0.119051
v -0.012849 2.432540 -0.185949
v 0.192504 2.427606 -0.276364
v 0.043462 2.219271 -0.119051
v 0.192504 2.427606 -0.276364
v 0.188669 2.215782 -0.182984
v 0.188669 2.215782 -0.182984
v 0.192504 2.427606 -0.276364
v 0.397857 2.425147 -0.185848
v 0.188669 2.215782 -0.182984
v 0.397857 2.425147 -0.185848
v 0.333875 2.214044 -0.118979
v 0.333875 2.214044 -0.118979
v 0.397857 2.425147 -0.185848
v 0.482917 2.426604 0.032577
v 0.333875 2.214044 -0.118979
v 0.482917 2.426604 0.032577
v 0.394022 2.215074 0.035471
v 0.482917 2.426604 0.032577
v 0.401693 2.641196 0.029642
v 0.341547 2.644391 0.184062
v 0.482917 2.426604 0.032577
v 0.341547 2.644391 0.184062
v 0.397857 2.431122 0.250960
v 0.397857 2.431122 0.250960
v 0.341547 2.644391 0.184062
v 0.196340 2.647880 0.247995
v 0.397857 2.431122 0.250960
v 0.196340 2.647880 0.247995
v 0.192504 2.436056 0.341375
v 0.192504 2.436056 0.341375
v 0.196340 2.647880 0.247995
v 0.051134 2.649619 0.183990
v 0.192504 2.436056 0.341375
v 0.051134 2.649619 0.183990
v -0.012849 2.438515 0.250859
v -0.012849 2.438515 0.250859
v 0.051134 2.649619 0.183990
v -0.009013 2.648589 0.029541
v -0.012849 2.438515 0.250859
v -0.009013 2.648589 0.029541
v -0.097908 2.437059 0.032434
v -0.097908 2.437059 0.032434
v -0.009013 2.648589 0.029541
v 0.051134 2.645394 -0.124879
v -0.097908 2.437059 0.032434
v 0.051134 2.645394 -0.124879
v -0.012849 2.432540 -0.185949
v -0.012849 2.432540 -0.185949
v 0.051134 2.645394 -0.124879
v 0.196340 2.641905 -0.188813
v -0.012849 2.432540 -0.185949
v 0.196340 2.641905 -0.188813
v 0.192504 2.427606 -0.276364
v 0.192504 2.427606 -0.276364
v 0.196340 2.641905 -0.188813
v 0.341547 2.640166 -0.124808
v 0.192504 2.427606 -0.276364
v 0.341547 2.640166 -0.124808
v 0.397857 2.425147 -0.185848
v 0.397857 2.425147 -0.185848
v 0.341547 2.640166 -0.124808
v 0.401693 2.641196 0.029642
v 0.397857 2.425147 -0.185848
v 0.401693 2.641196 0.029642
v 0.482917 2.426604 0.032577
v 0.401693 2.641196 0.029642
v 0.197929 2.733145 0.028384
v 0.197929 2.733145 0.028384
v 0.401693 2.641196 0.029642
v 0.197929 2.733145 0.028384
v 0.341547 2.644391 0.184062
v 0.341547 2.644391 0.184062
v 0.197929 2.733145 0.028384
v 0.197929 2.733145 0.028384
v 0.341547 2.644391 0.184062
v 0.197929 2.733145 0.028384
v 0.196340 2.647880 0.247995
v 0.196340 2.647880 0.247995
v 0.197929 2.733145 0.028384
v 0.197929 2.733145 0.028384
v 0.196340 2.647880 0.247995
v 0.197929 2.733145 0.028384
v 0.051134 2.649619 0.183990
v 0.051134 2.649619 0.183990
v 0.197929 2.733145 0.028384
v 0.197929 2.733145 0.028384
v 0.051134 2.649619 0.183990
v 0.197929 2.733145 0.028384
v -0.009013 2.648589 0.029541
v -0.009013 2.648589 0.029541
v 0.197929 2.733145 0.028384
v 0.197929 2.733145 0.028384
v -0.009013 2.648589 0.029541
v 0.197929 2.733145 0.028384
v 0.051134 2.645394 -0.124879
v 0.051134 2.645394 -0.124879
v 0.197929 2.733145 0.028384
v 0.197929 2.733145 0.028384
v 0.051134 2.645394 -0.124879
v 0.197929 2.733145 0.028384
v 0.196340 2.641905 -0.188813
v 0.196340 2.641905 -0.188813
v 0.197929 2.733145 0.028384
v 0.197929 2.733145 0.028384
v 0.196340 2.641905 -0.188813
v 0.197929 2.733145 0.028384
v 0.341547 2.640166 -0.124808
v 0.341547 2.640166 -0.124808
v 0.197929 2.733145 0.028384
v 0.197929 2.733145 0.028384
v 0.341547 2.640166 -0.124808
v 0.197929 2.733145 0.028384
v 0.401693 2.641196 0.029642
f 817 818 819
f 820 821 822
f 823 824 825
f 826 827 828
f 829 830 831
f 832 833 834
f 835 836 837
f 838 839 840
f 841 842 843
f 844 845 846
f 847 848 849
f 850 851 852
f 853 854 855
f 856 857 858
f 859 860 861
f 862 863 864
f 865 866 867
f 868 869 870
f 871 872 873
f 874 875 876
f 877 878 879
f 880 881 882
f 883 884 885
f 886 887 888
f 889 890 891
f 892 893 894
f 895 896 897
f 898 899 900
f 901 902 903
f 904 905 906
f 907 908 909
f 910 911 912
f 913 914 915
f 916 917 918
f 919 920 921
f 922 923 924
f 925 926 927
f 928 929 930
f 931 932 933
f 934 935 936
f 937 938 939
f 940 941 942
f 943 944 945
f 946 947 948
f 949 950 951
f 952 953 954
f 955 956 957
f 958 959 960
f 961 962 963
f 964 965 966
f 967 968 969
f 970 971 972
f 973 974 975
f 976 977 978
f 979 980 981
f 982 983 984
f 985 986 987
f 988 989 990
f 991 992 993
f 994 995 996
f 997 998 999
f 1000 1001 1002
f 1003 1004 1005
f 1006 1007 1008
f 1009 1010 1011
f 1012 1013 1014
f 1015 1016 1017
f 1018 1019 1020
f 1021 1022 1023
f 1024 1025 1026
f 1027 1028 1029
f 1030 1031 1032
f 1033 1034 1035
f 1036 1037 1038
f 1039 1040 1041
f 1042 1043 1044
f 1045 1046 1047
f 1048 1049 1050
f 1051 1052 1053
f 1054 1055 1056
f 1057 1058 1059
f 1060 1061 1062
f 1063 1064 1065
f 1066 1067 1068
f 1069 1070 1071
f 1072 1073 1074
f 1075 1076 1077
f 1078 1079 1080
f 1081 1082 1083
f 1084 1085 1086
f 1087 1088 1089
f 1090 1091 1092
f 1093 1094 1095
f 1096 1097 1098
f 1099 1100 1101
f 1102 1103 1104
f 1105 1106 1107
f 1108 1109 1110
f 1111 1112 1113
f 1114 1115 1116
f 1117 1118 1119
f 1120 1121 1122
f 1123 1124 1125
f 1126 1127 1128
f 1129 1130 1131
f 1132 1133 1134
f 1135 1136 1137
f 1138 1139 1140
f 1141 1142 1143
f 1144 1145 1146
f 1147 1148 1149
f 1150 1151 1152
f 1153 1154 1155
f 1156 1157 1158
f 1159 1160 1161
f 1162 1163 1164
f 1165 1166 1167
f 1168 1169 1170
f 1171 1172 1173
f 1174 1175 1176
f 1177 1178 1179
f 1180 1181 1182
f 1183 1184 1185
f 1186 1187 1188
f 1189 1190 1191
f 1192 1193 1194
f 1195 1196 1197
f 1198 1199 1200
f 1201 1202 1203
f 1204 1205 1206
f 1207 1208 1209
f 1210 1211 1212
f 1213 1214 1215
f 1216 1217 1218
f 1219 1220 1221
f 1222 1223 1224
f 1225 1226 1227
f 1228 1229 1230
f 1231 1232 1233
f 1234 1235 1236
f 1237 1238 1239
f 1240 1241 1242
f 1243 1244 1245
f 1246 1247 1248
f 1249 1250 1251
f 1252 1253 1254
f 1255 1256 1257
f 1258 1259 1260
f 1261 1262 1263
f 1264 1265 1266
f 1267 1268 1269
f 1270 1271 1272
f 1273 1274 1275
f 1276 1277 1278
f 1279 1280 1281
f 1282 1283 1284
f 1285 1286 1287
f 1288 1289 1290
f 1291 1292 1293
f 1294 1295 1296
f 1297 1298 1299
f 1300 1301 1302
f 1303 1304 1305
f 1306 1307 1308
f 1309 1310 1311
f 1312 1313 1314
f 1315 1316 1317
f 1318 1319 1320
f 1321 1322 1323
f 1324 1325 1326
f 1327 1328 1329
f 1330 1331 1332
f 1333 1334 1335
f 1336 1337 1338
f 1339 1340 1341
f 1342 1343 1344
f 1345 1346 1347
f 1348 1349 1350
f 1351 1352 1353
f 1354 1355 1356
f 1357 1358 1359
f 1360 1361 1362
f 1363 1364 1365
f 1366 1367 1368
f 1369 1370 1371
f 1372 1373 1374
f 1375 1376 1377
f 1378 1379 1380
f 1381 1382 1383
f 1384 1385 1386
f 1387 1388 1389
f 1390 1391 1392
f 1393 1394 1395
f 1396 1397 1398
f 1399 1400 1401
f 1402 1403 1404
f 1405 1406 1407
f 1408 1409 1410
f 1411 1412 1413
f 1414 1415 1416
f 1417 1418 1419
f 1420 1421 1422
f 1423 1424 1425
f 1426 1427 1428
f 1429 1430 1431
f 1432 1433 1434
f 1435 1436 1437
f 1438 1439 1440
f 1441 1442 1443
f 1444 1445 1446
f 1447 1448 1449
f 1450 1451 1452
f 1453 1454 1455
f 1456 1457 1458
f 1459 1460 1461
f 1462 1463 1464
f 1465 1466 1467
f 1468 1469 1470
f 1471 1472 1473
f 1474 1475 1476
f 1477 1478 1479
f 1480 1481 1482
f 1483 1484 1485
f 1486 1487 1488
f 1489 1490 1491
f 1492 1493 1494
f 1495 1496 1497
f 1498 1499 1500
f 1501 1502 1503
f 1504 1505 1506
f 1507 1508 1509
f 1510 1511 1512
f 1513 1514 1515
f 1516 1517 1518
f 1519 1520 1521
f 1522 1523 1524
f 1525 1526 1527
f 1528 1529 1530
f 1531 1532 1533
f 1534 1535 1536
f 1537 1538 1539
f 1540 1541 1542
f 1543 1544 1545
f 1546 1547 1548
f 1549 1550 1551
f 1552 1553 1554
f 1555 1556 1557
f 1558 1559 1560
f 1561 1562 1563
f 1564 1565 1566
f 1567 1568 1569
f 1570 1571 1572
f 1573 1574 1575
f 1576 1577 1578
f 1579 1580 1581
f 1582 1583 1584
f 1585 1586 1587
f 1588 1589 1590
f 1591 1592 1593
f 1594 1595 1596
f 1597 1598 1599
f 1600 1601 1602
f 1603 1604 1605
f 1606 1607 1608
f 1609 1610 1611
f 1612 1613 1614
f 1615 1616 1617
f 1618 1619 1620
f 1621 1622 1623
f 1624 1625 1626
f 1627 1628 1629
f 1630 1631 1632
f 1633 1634 1635
f 1636 1637 1638
f 1639 1640 1641
f 1642 1643 1644
f 1645 1646 1647
f 1648 1649 1650
f 1651 1652 1653
f 1654 1655 1656
f 1657 1658 1659
f 1660 1661 1662
f 1663 1664 1665
f 1666 1667 1668
f 1669 1670 1671
f 1672 1673 1674
f 1675 1676 1677
f 1678 1679 1680
f 1681 1682 1683
f 1684 1685 1686
f 1687 1688 1689
f 1690 1691 1692
f 1693 1694 1695
f 1696 1697 1698
f 1699 1700 1701
f 1702 1703 1704
f 1705 1706 1707
f 1708 1709 1710
f 1711 1712 1713
f 1714 1715 1716
f 1717 1718 1719
f 1720 1721 1722
f 1723 1724 1725
f 1726 1727 1728
f 1729 1730 1731
f 1732 1733 1734
f 1735 1736 1737
f 1738 1739 1740
f 1741 1742 1743
f 1744 1745 1746
f 1747 1748 1749
f 1750 1751 1752
f 1753 1754 1755
f 1756 1757 1758
f 1759 1760 1761
f 1762 1763 1764
f 1765 1766 1767
f 1768 1769 1770
f 1771 1772 1773
f 1774 1775 1776
f 1777 1778 1779
f 1780 1781 1782
f 1783 1784 1785
f 1786 1787 1788
f 1789 1790 1791
f 1792 1793 1794
f 1795 1796 1797
f 1798 1799 1800
f 1801 1802 1803
f 1804 1805 1806
f 1807 1808 1809
f 1810 1811 1812
f 1813 1814 1815
f 1816 1817 1818
f 1819 1820 1821
f 1822 1823 1824
f 1825 1826 1827
f 1828 1829 1830
f 1831 1832 1833
f 1834 1835 1836
f 1837 1838 1839
f 1840 1841 1842
f 1843 1844 1845
f 1846 1847 1848
f 1849 1850 1851
f 1852 1853 1854
f 1855 1856 1857
f 1858 1859 1860
f 1861 1862 1863
f 1864 1865 1866
f 1867 1868 1869
f 1870 1871 1872
f 1873 1874 1875
f 1876 1877 1878
f 1879 1880 1881
f 1882 1883 1884
f 1885 1886 1887
f 1888 1889 1890
f 1891 1892 1893
f 1894 1895 1896
f 1897 1898 1899
f 1900 1901 1902
f 1903 1904 1905
f 1906 1907 1908
f 1909 1910 1911
f 1912 1913 1914
f 1915 1916 1917
f 1918 1919 1920
f 1921 1922 1923
f 1924 1925 1926
f 1927 1928 1929
f 1930 1931 1932
f 1933 1934 1935
f 1936 1937 1938
f 1939 1940 1941
f 1942 1943 1944
f 1945 1946 1947
f 1948 1949 1950
f 1951 1952 1953
f 1954 1955 1956
f 1957 1958 1959
f 1960 1961 1962
f 1963 1964 1965
f 1966 1967 1968
f 1969 1970 1971
f 1972 1973 1974
f 1975 1976 1977
f 1978 1979 1980
f 1981 1982 1983
f 1984 1985 1986
f 1987 1988 1989
f 1990 1991 1992
f 1993 1994 1995
f 1996 1997 1998
f 1999 2000 2001
f 2002 2003 2004
f 2005 2006 2007
f 2008 2009 2010
f 2011 2012 2013
f 2014 2015 2016
f 2017 2018 2019
f 2020 2021 2022
f 2023 2024 2025
f 2026 2027 2028
f 2029 2030 2031
f 2032 2033 2034
f 2035 2036 2037
f 2038 2039 2040
f 2041 2042 2043
f 2044 2045 2046
f 2047 2048 2049
f 2050 2051 2052
f 2053 2054 2055
f 2056 2057 2058
f 2059 2060 2061
f 2062 2063 2064
f 2065 2066 2067
f 2068 2069 2070
f 2071 2072 2073
f 2074 2075 2076
f 2077 2078 2079
f 2080 2081 2082
f 2083 2084 2085
f 2086 2087 2088
f 2089 2090 2091
f 2092 2093 2094
f 2095 2096 2097
f 2098 2099 2100
f 2101 2102 2103
f 2104 2105 2106
f 2107 2108 2109
f 2110 2111 2112
f 2113 2114 2115
f 2116 2117 2118
f 2119 2120 2121
f 2122 2123 2124
f 2125 2126 2127
f 2128 2129 2130
f 2131 2132 2133
f 2134 2135 2136
f 2137 2138 2139
f 2140 2141 2142
f 2143 2144 2145
f 2146 2147 2148
f 2149 2150 2151
f 2152 2153 2154
f 2155 2156 2157
f 2158 2159 2160
f 2161 2162 2163
f 2164 2165 2166
f 2167 2168 2169
f 2170 2171 2172
f 2173 2174 2175
f 2176 2177 2178
f 2179 2180 2181
f 2182 2183 2184
f 2185 2186 2187
f 2188 2189 2190
f 2191 2192 2193
f 2194 2195 2196
f 2197 2198 2199
f 2200 2201 2202
f 2203 2204 2205
f 2206 2207 2208
f 2209 2210 2211
f 2212 2213 2214
f 2215 2216 2217
f 2218 2219 2220
f 2221 2222 2223
f 2224 2225 2226
f 2227 2228 2229
f 2230 2231 2232
f 2233 2234 2235
f 2236 2237 2238
f 2239 2240 2241
f 2242 2243 2244
f 2245 2246 2247
f 2248 2249 2250
f 2251 2252 2253
f 2254 2255 2256
f 2257 2258 2259
f 2260 2261 2262
f 2263 2264 2265
f 2266 2267 2268
f 2269 2270 2271
f 2272 2273 2274
f 2275 2276 2277
f 2278 2279 2280
f 2281 2282 2283
f 2284 2285 2286
f 2287 2288 2289
f 2290 2291 2292
f 2293 2294 2295
f 2296 2297 2298
f 2299 2300 2301
f 2302 2303 2304
f 2305 2306 2307
f 2308 2309 2310
f 2311 2312 2313
f 2314 2315 2316
f 2317 2318 2319
f 2320 2321 2322
f 2323 2324 2325
f 2326 2327 2328
f 2329 2330 2331
f 2332 2333 2334
f 2335 2336 2337
f 2338 2339 2340
f 2341 2342 2343
f 2344 2345 2346
f 2347 2348 2349
f 2350 2351 2352
f 2353 2354 2355
f 2356 2357 2358
f 2359 2360 2361
f 2362 2363 2364
f 2365 2366 2367
f 2368 2369 2370
f 2371 2372 2373
f 2374 2375 2376
f 2377 2378 2379
f 2380 2381 2382
f 2383 2384 2385
f 2386 2387 2388
f 2389 2390 2391
f 2392 2393 2394
f 2395 2396 2397
f 2398 2399 2400
f 2401 2402 2403
f 2404 2405 2406
f 2407 2408 2409
f 2410 2411 2412
f 2413 2414 2415
f 2416 2417 2418
f 2419 2420 2421
f 2422 2423 2424
f 2425 2426 2427
f 2428 2429 2430
f 2431 2432 2433
f 2434 2435 2436
f 2437 2438 2439
f 2440 2441 2442
f 2443 2444 2445
f 2446 2447 2448
f 2449 2450 2451
f 2452 2453 2454
f 2455 2456 2457
f 2458 2459 2460
f 2461 2462 2463
f 2464 2465 2466
f 2467 2468 2469
f 2470 2471 2472
f 2473 2474 2475
f 2476 2477 2478
f 2479 2480 2481
f 2482 2483 2484
f 2485 2486 2487
f 2488 2489 2490
f 2491 2492 2493
f 2494 2495 2496
f 2497 2498 2499
f 2500 2501 2502
f 2503 2504 2505
f 2506 2507 2508
f 2509 2510 2511
f 2512 2513 2514
f 2515 2516 2517
f 2518 2519 2520
f 2521 2522 2523
f 2524 2525 2526
f 2527 2528 2529
f 2530 2531 2532
f 2533 2534 2535
f 2536 2537 2538
f 2539 2540 2541
f 2542 2543 2544
