# Pyramida editable prop source
# units: 1 OBJ unit = 1 Pyramida World Unit = 1 Blender metre

o TreeTrunk
v 0.043071 0.075684 0.105317
v 0.303392 0.012997 0.033224
v 0.309712 0.035998 0.009079
v 0.043071 0.075684 0.105317
v 0.309712 0.035998 0.009079
v 0.070720 0.176314 -0.000320
v 0.046321 0.074190 0.000378
v 0.043071 0.075684 0.105317
v 0.070720 0.176314 -0.000320
v 0.304135 0.012656 0.009238
v 0.309712 0.035998 0.009079
v 0.303392 0.012997 0.033224
v 0.070720 0.176314 -0.000320
v 0.309712 0.035998 0.009079
v 0.304878 0.012314 -0.014748
v 0.070720 0.176314 -0.000320
v 0.304878 0.012314 -0.014748
v 0.049571 0.072697 -0.104561
v 0.046321 0.074190 0.000378
v 0.070720 0.176314 -0.000320
v 0.049571 0.072697 -0.104561
v 0.304135 0.012656 0.009238
v 0.304878 0.012314 -0.014748
v 0.309712 0.035998 0.009079
v 0.049571 0.072697 -0.104561
v 0.304878 0.012314 -0.014748
v 0.298558 -0.010687 0.009398
v 0.049571 0.072697 -0.104561
v 0.298558 -0.010687 0.009398
v 0.021922 -0.027933 0.001077
v 0.046321 0.074190 0.000378
v 0.049571 0.072697 -0.104561
v 0.021922 -0.027933 0.001077
v 0.304135 0.012656 0.009238
v 0.298558 -0.010687 0.009398
v 0.304878 0.012314 -0.014748
v 0.021922 -0.027933 0.001077
v 0.298558 -0.010687 0.009398
v 0.303392 0.012997 0.033224
v 0.021922 -0.027933 0.001077
v 0.303392 0.012997 0.033224
v 0.043071 0.075684 0.105317
v 0.046321 0.074190 0.000378
v 0.021922 -0.027933 0.001077
v 0.043071 0.075684 0.105317
v 0.304135 0.012656 0.009238
v 0.303392 0.012997 0.033224
v 0.298558 -0.010687 0.009398
v -0.109501 0.076600 -0.028585
v -0.220744 0.025423 0.251796
v -0.203992 0.048920 0.269665
v -0.109501 0.076600 -0.028585
v -0.203992 0.048920 0.269665
v -0.036212 0.179398 0.049590
v -0.025819 0.075960 0.034834
v -0.109501 0.076600 -0.028585
v -0.036212 0.179398 0.049590
v -0.201617 0.025277 0.266292
v -0.203992 0.048920 0.269665
v -0.220744 0.025423 0.251796
v -0.036212 0.179398 0.049590
v -0.203992 0.048920 0.269665
v -0.182490 0.025131 0.280787
v -0.036212 0.179398 0.049590
v -0.182490 0.025131 0.280787
v 0.057863 0.075321 0.098252
v -0.025819 0.075960 0.034834
v -0.036212 0.179398 0.049590
v 0.057863 0.075321 0.098252
v -0.201617 0.025277 0.266292
v -0.182490 0.025131 0.280787
v -0.203992 0.048920 0.269665
v 0.057863 0.075321 0.098252
v -0.182490 0.025131 0.280787
v -0.199241 0.001634 0.262919
v 0.057863 0.075321 0.098252
v -0.199241 0.001634 0.262919
v -0.015426 -0.027477 0.020078
v -0.025819 0.075960 0.034834
v 0.057863 0.075321 0.098252
v -0.015426 -0.027477 0.020078
v -0.201617 0.025277 0.266292
v -0.199241 0.001634 0.262919
v -0.182490 0.025131 0.280787
v -0.015426 -0.027477 0.020078
v -0.199241 0.001634 0.262919
v -0.220744 0.025423 0.251796
v -0.015426 -0.027477 0.020078
v -0.220744 0.025423 0.251796
v -0.109501 0.076600 -0.028585
v -0.025819 0.075960 0.034834
v -0.015426 -0.027477 0.020078
v -0.109501 0.076600 -0.028585
v -0.201617 0.025277 0.266292
v -0.220744 0.025423 0.251796
v -0.199241 0.001634 0.262919
v 0.052133 0.072667 -0.103328
v -0.133654 0.017747 -0.194723
v -0.155984 0.041279 -0.184742
v 0.052133 0.072667 -0.103328
v -0.155984 0.041279 -0.184742
v -0.045561 0.175618 -0.059658
v -0.027812 0.075037 -0.035297
v 0.052133 0.072667 -0.103328
v -0.045561 0.175618 -0.059658
v -0.151927 0.018289 -0.179173
v -0.155984 0.041279 -0.184742
v -0.133654 0.017747 -0.194723
v -0.045561 0.175618 -0.059658
v -0.155984 0.041279 -0.184742
v -0.170200 0.018831 -0.163624
v -0.045561 0.175618 -0.059658
v -0.170200 0.018831 -0.163624
v -0.107758 0.077407 0.032733
v -0.027812 0.075037 -0.035297
v -0.045561 0.175618 -0.059658
v -0.107758 0.077407 0.032733
v -0.151927 0.018289 -0.179173
v -0.170200 0.018831 -0.163624
v -0.155984 0.041279 -0.184742
v -0.107758 0.077407 0.032733
v -0.170200 0.018831 -0.163624
v -0.147870 -0.004701 -0.173605
v -0.107758 0.077407 0.032733
v -0.147870 -0.004701 -0.173605
v -0.010064 -0.025544 -0.010937
v -0.027812 0.075037 -0.035297
v -0.107758 0.077407 0.032733
v -0.010064 -0.025544 -0.010937
v -0.151927 0.018289 -0.179173
v -0.147870 -0.004701 -0.173605
v -0.170200 0.018831 -0.163624
v -0.010064 -0.025544 -0.010937
v -0.147870 -0.004701 -0.173605
v -0.133654 0.017747 -0.194723
v -0.010064 -0.025544 -0.010937
v -0.133654 0.017747 -0.194723
v 0.052133 0.072667 -0.103328
v -0.027812 0.075037 -0.035297
v -0.010064 -0.025544 -0.010937
v 0.052133 0.072667 -0.103328
v -0.151927 0.018289 -0.179173
v -0.133654 0.017747 -0.194723
v -0.147870 -0.004701 -0.173605
v -0.000033 -0.003999 -0.159950
v -0.020177 0.996985 -0.156632
v 0.093840 1.000925 -0.090899
v -0.000033 -0.003999 -0.159950
v 0.093840 1.000925 -0.090899
v 0.138520 0.000789 -0.080073
v 0.000000 0.000000 0.000000
v -0.000033 -0.003999 -0.159950
v 0.138520 0.000789 -0.080073
v -0.020150 1.000276 -0.025006
v 0.093840 1.000925 -0.090899
v -0.020177 0.996985 -0.156632
v 0.138520 0.000789 -0.080073
v 0.093840 1.000925 -0.090899
v 0.093867 1.004216 0.040726
v 0.138520 0.000789 -0.080073
v 0.093867 1.004216 0.040726
v 0.138552 0.004788 0.079877
v 0.000000 0.000000 0.000000
v 0.138520 0.000789 -0.080073
v 0.138552 0.004788 0.079877
v -0.020150 1.000276 -0.025006
v 0.093867 1.004216 0.040726
v 0.093840 1.000925 -0.090899
v 0.138552 0.004788 0.079877
v 0.093867 1.004216 0.040726
v -0.020123 1.003567 0.106619
v 0.138552 0.004788 0.079877
v -0.020123 1.003567 0.106619
v 0.000033 0.003999 0.159950
v 0.000000 0.000000 0.000000
v 0.138552 0.004788 0.079877
v 0.000033 0.003999 0.159950
v -0.020150 1.000276 -0.025006
v -0.020123 1.003567 0.106619
v 0.093867 1.004216 0.040726
v 0.000033 0.003999 0.159950
v -0.020123 1.003567 0.106619
v -0.134140 0.999627 0.040887
v 0.000033 0.003999 0.159950
v -0.134140 0.999627 0.040887
v -0.138520 -0.000789 0.080073
v 0.000000 0.000000 0.000000
v 0.000033 0.003999 0.159950
v -0.138520 -0.000789 0.080073
v -0.020150 1.000276 -0.025006
v -0.134140 0.999627 0.040887
v -0.020123 1.003567 0.106619
v -0.138520 -0.000789 0.080073
v -0.134140 0.999627 0.040887
v -0.134167 0.996336 -0.090738
v -0.138520 -0.000789 0.080073
v -0.134167 0.996336 -0.090738
v -0.138552 -0.004788 -0.079877
v 0.000000 0.000000 0.000000
v -0.138520 -0.000789 0.080073
v -0.138552 -0.004788 -0.079877
v -0.020150 1.000276 -0.025006
v -0.134167 0.996336 -0.090738
v -0.134140 0.999627 0.040887
v -0.138552 -0.004788 -0.079877
v -0.134167 0.996336 -0.090738
v -0.020177 0.996985 -0.156632
v -0.138552 -0.004788 -0.079877
v -0.020177 0.996985 -0.156632
v -0.000033 -0.003999 -0.159950
v 0.000000 0.000000 0.000000
v -0.138552 -0.004788 -0.079877
v -0.000033 -0.003999 -0.159950
v -0.020150 1.000276 -0.025006
v -0.020177 0.996985 -0.156632
v -0.134167 0.996336 -0.090738
v 0.026816 0.760012 0.034972
v 0.266656 0.890624 -0.202554
v 0.240739 0.917427 -0.218793
v 0.026816 0.760012 0.034972
v 0.240739 0.917427 -0.218793
v -0.034892 0.823828 -0.003692
v -0.015311 0.760032 -0.019000
v 0.026816 0.760012 0.034972
v -0.034892 0.823828 -0.003692
v 0.248963 0.890633 -0.225222
v 0.240739 0.917427 -0.218793
v 0.266656 0.890624 -0.202554
v -0.034892 0.823828 -0.003692
v 0.240739 0.917427 -0.218793
v 0.231270 0.890641 -0.247891
v -0.034892 0.823828 -0.003692
v 0.231270 0.890641 -0.247891
v -0.057437 0.760052 -0.072973
v -0.015311 0.760032 -0.019000
v -0.034892 0.823828 -0.003692
v -0.057437 0.760052 -0.072973
v 0.248963 0.890633 -0.225222
v 0.231270 0.890641 -0.247891
v 0.240739 0.917427 -0.218793
v -0.057437 0.760052 -0.072973
v 0.231270 0.890641 -0.247891
v 0.257187 0.863838 -0.231652
v -0.057437 0.760052 -0.072973
v 0.257187 0.863838 -0.231652
v 0.004271 0.696236 -0.034308
v -0.015311 0.760032 -0.019000
v -0.057437 0.760052 -0.072973
v 0.004271 0.696236 -0.034308
v 0.248963 0.890633 -0.225222
v 0.257187 0.863838 -0.231652
v 0.231270 0.890641 -0.247891
v 0.004271 0.696236 -0.034308
v 0.257187 0.863838 -0.231652
v 0.266656 0.890624 -0.202554
v 0.004271 0.696236 -0.034308
v 0.266656 0.890624 -0.202554
v 0.026816 0.760012 0.034972
v -0.015311 0.760032 -0.019000
v 0.004271 0.696236 -0.034308
v 0.026816 0.760012 0.034972
v 0.248963 0.890633 -0.225222
v 0.266656 0.890624 -0.202554
v 0.257187 0.863838 -0.231652
v 0.150112 0.837193 -0.110526
v 0.365506 0.960427 -0.205352
v 0.358710 0.968322 -0.212665
v 0.150112 0.837193 -0.110526
v 0.358710 0.968322 -0.212665
v 0.126329 0.864821 -0.136117
v 0.140353 0.836959 -0.140470
v 0.150112 0.837193 -0.110526
v 0.126329 0.864821 -0.136117
v 0.362718 0.960360 -0.213909
v 0.358710 0.968322 -0.212665
v 0.365506 0.960427 -0.205352
v 0.126329 0.864821 -0.136117
v 0.358710 0.968322 -0.212665
v 0.359929 0.960293 -0.222466
v 0.126329 0.864821 -0.136117
v 0.359929 0.960293 -0.222466
v 0.130593 0.836725 -0.170413
v 0.140353 0.836959 -0.140470
v 0.126329 0.864821 -0.136117
v 0.130593 0.836725 -0.170413
v 0.362718 0.960360 -0.213909
v 0.359929 0.960293 -0.222466
v 0.358710 0.968322 -0.212665
v 0.130593 0.836725 -0.170413
v 0.359929 0.960293 -0.222466
v 0.366725 0.952398 -0.215153
v 0.130593 0.836725 -0.170413
v 0.366725 0.952398 -0.215153
v 0.154377 0.809097 -0.144823
v 0.140353 0.836959 -0.140470
v 0.130593 0.836725 -0.170413
v 0.154377 0.809097 -0.144823
v 0.362718 0.960360 -0.213909
v 0.366725 0.952398 -0.215153
v 0.359929 0.960293 -0.222466
v 0.154377 0.809097 -0.144823
v 0.366725 0.952398 -0.215153
v 0.365506 0.960427 -0.205352
v 0.154377 0.809097 -0.144823
v 0.365506 0.960427 -0.205352
v 0.150112 0.837193 -0.110526
v 0.140353 0.836959 -0.140470
v 0.154377 0.809097 -0.144823
v 0.150112 0.837193 -0.110526
v 0.362718 0.960360 -0.213909
v 0.365506 0.960427 -0.205352
v 0.366725 0.952398 -0.215153
v 0.156897 0.849138 -0.128135
v 0.291593 0.906281 -0.121539
v 0.290135 0.914382 -0.131247
v 0.156897 0.849138 -0.128135
v 0.290135 0.914382 -0.131247
v 0.151794 0.877486 -0.162108
v 0.163892 0.848592 -0.158839
v 0.156897 0.849138 -0.128135
v 0.151794 0.877486 -0.162108
v 0.293592 0.906125 -0.130313
v 0.290135 0.914382 -0.131247
v 0.291593 0.906281 -0.121539
v 0.151794 0.877486 -0.162108
v 0.290135 0.914382 -0.131247
v 0.295591 0.905969 -0.139086
v 0.151794 0.877486 -0.162108
v 0.295591 0.905969 -0.139086
v 0.170887 0.848046 -0.189542
v 0.163892 0.848592 -0.158839
v 0.151794 0.877486 -0.162108
v 0.170887 0.848046 -0.189542
v 0.293592 0.906125 -0.130313
v 0.295591 0.905969 -0.139086
v 0.290135 0.914382 -0.131247
v 0.170887 0.848046 -0.189542
v 0.295591 0.905969 -0.139086
v 0.297049 0.897868 -0.129378
v 0.170887 0.848046 -0.189542
v 0.297049 0.897868 -0.129378
v 0.175990 0.819698 -0.155569
v 0.163892 0.848592 -0.158839
v 0.170887 0.848046 -0.189542
v 0.175990 0.819698 -0.155569
v 0.293592 0.906125 -0.130313
v 0.297049 0.897868 -0.129378
v 0.295591 0.905969 -0.139086
v 0.175990 0.819698 -0.155569
v 0.297049 0.897868 -0.129378
v 0.291593 0.906281 -0.121539
v 0.175990 0.819698 -0.155569
v 0.291593 0.906281 -0.121539
v 0.156897 0.849138 -0.128135
v 0.163892 0.848592 -0.158839
v 0.175990 0.819698 -0.155569
v 0.156897 0.849138 -0.128135
v 0.293592 0.906125 -0.130313
v 0.291593 0.906281 -0.121539
v 0.297049 0.897868 -0.129378
v -0.057760 0.409251 0.037035
v 0.238888 0.582995 0.285029
v 0.251911 0.608520 0.256172
v -0.057760 0.409251 0.037035
v 0.251911 0.608520 0.256172
v -0.026752 0.470024 -0.031671
v -0.008213 0.407713 -0.010192
v -0.057760 0.409251 0.037035
v -0.026752 0.470024 -0.031671
v 0.259698 0.582349 0.265194
v 0.251911 0.608520 0.256172
v 0.238888 0.582995 0.285029
v -0.026752 0.470024 -0.031671
v 0.251911 0.608520 0.256172
v 0.280508 0.581703 0.245358
v -0.026752 0.470024 -0.031671
v 0.280508 0.581703 0.245358
v 0.041334 0.406175 -0.057419
v -0.008213 0.407713 -0.010192
v -0.026752 0.470024 -0.031671
v 0.041334 0.406175 -0.057419
v 0.259698 0.582349 0.265194
v 0.280508 0.581703 0.245358
v 0.251911 0.608520 0.256172
v 0.041334 0.406175 -0.057419
v 0.280508 0.581703 0.245358
v 0.267484 0.556178 0.274215
v 0.041334 0.406175 -0.057419
v 0.267484 0.556178 0.274215
v 0.010326 0.345402 0.011286
v -0.008213 0.407713 -0.010192
v 0.041334 0.406175 -0.057419
v 0.010326 0.345402 0.011286
v 0.259698 0.582349 0.265194
v 0.267484 0.556178 0.274215
v 0.280508 0.581703 0.245358
v 0.010326 0.345402 0.011286
v 0.267484 0.556178 0.274215
v 0.238888 0.582995 0.285029
v 0.010326 0.345402 0.011286
v 0.238888 0.582995 0.285029
v -0.057760 0.409251 0.037035
v -0.008213 0.407713 -0.010192
v 0.010326 0.345402 0.011286
v -0.057760 0.409251 0.037035
v 0.259698 0.582349 0.265194
v 0.238888 0.582995 0.285029
v 0.267484 0.556178 0.274215
v 0.104989 0.491517 0.148961
v 0.288670 0.590803 0.215669
v 0.289189 0.598621 0.205638
v 0.104989 0.491517 0.148961
v 0.289189 0.598621 0.205638
v 0.106807 0.518873 0.113859
v 0.119367 0.490875 0.120947
v 0.104989 0.491517 0.148961
v 0.106807 0.518873 0.113859
v 0.292779 0.590620 0.207664
v 0.289189 0.598621 0.205638
v 0.288670 0.590803 0.215669
v 0.106807 0.518873 0.113859
v 0.289189 0.598621 0.205638
v 0.296887 0.590436 0.199659
v 0.106807 0.518873 0.113859
v 0.296887 0.590436 0.199659
v 0.133745 0.490233 0.092933
v 0.119367 0.490875 0.120947
v 0.106807 0.518873 0.113859
v 0.133745 0.490233 0.092933
v 0.292779 0.590620 0.207664
v 0.296887 0.590436 0.199659
v 0.289189 0.598621 0.205638
v 0.133745 0.490233 0.092933
v 0.296887 0.590436 0.199659
v 0.296368 0.582619 0.209689
v 0.133745 0.490233 0.092933
v 0.296368 0.582619 0.209689
v 0.131927 0.462876 0.128035
v 0.119367 0.490875 0.120947
v 0.133745 0.490233 0.092933
v 0.131927 0.462876 0.128035
v 0.292779 0.590620 0.207664
v 0.296368 0.582619 0.209689
v 0.296887 0.590436 0.199659
v 0.131927 0.462876 0.128035
v 0.296368 0.582619 0.209689
v 0.288670 0.590803 0.215669
v 0.131927 0.462876 0.128035
v 0.288670 0.590803 0.215669
v 0.104989 0.491517 0.148961
v 0.119367 0.490875 0.120947
v 0.131927 0.462876 0.128035
v 0.104989 0.491517 0.148961
v 0.292779 0.590620 0.207664
v 0.288670 0.590803 0.215669
v 0.296368 0.582619 0.209689
v 0.116509 0.507139 0.162131
v 0.255960 0.629818 0.338108
v 0.261445 0.637492 0.329563
v 0.116509 0.507139 0.162131
v 0.261445 0.637492 0.329563
v 0.135703 0.533993 0.132226
v 0.143230 0.506430 0.145476
v 0.116509 0.507139 0.162131
v 0.135703 0.533993 0.132226
v 0.263596 0.629615 0.333349
v 0.261445 0.637492 0.329563
v 0.255960 0.629818 0.338108
v 0.135703 0.533993 0.132226
v 0.261445 0.637492 0.329563
v 0.271232 0.629413 0.328590
v 0.135703 0.533993 0.132226
v 0.271232 0.629413 0.328590
v 0.169951 0.505721 0.128821
v 0.143230 0.506430 0.145476
v 0.135703 0.533993 0.132226
v 0.169951 0.505721 0.128821
v 0.263596 0.629615 0.333349
v 0.271232 0.629413 0.328590
v 0.261445 0.637492 0.329563
v 0.169951 0.505721 0.128821
v 0.271232 0.629413 0.328590
v 0.265747 0.621739 0.337135
v 0.169951 0.505721 0.128821
v 0.265747 0.621739 0.337135
v 0.150757 0.478867 0.158726
v 0.143230 0.506430 0.145476
v 0.169951 0.505721 0.128821
v 0.150757 0.478867 0.158726
v 0.263596 0.629615 0.333349
v 0.265747 0.621739 0.337135
v 0.271232 0.629413 0.328590
v 0.150757 0.478867 0.158726
v 0.265747 0.621739 0.337135
v 0.255960 0.629818 0.338108
v 0.150757 0.478867 0.158726
v 0.255960 0.629818 0.338108
v 0.116509 0.507139 0.162131
v 0.143230 0.506430 0.145476
v 0.150757 0.478867 0.158726
v 0.116509 0.507139 0.162131
v 0.263596 0.629615 0.333349
v 0.255960 0.629818 0.338108
v 0.265747 0.621739 0.337135
v -0.062244 0.515889 -0.057591
v -0.312449 0.738424 0.295088
v -0.281951 0.763828 0.303933
v -0.062244 0.515889 -0.057591
v -0.281951 0.763828 0.303933
v 0.010373 0.576376 -0.036532
v -0.010386 0.515566 -0.012889
v -0.062244 0.515889 -0.057591
v 0.010373 0.576376 -0.036532
v -0.290669 0.738288 0.313863
v -0.281951 0.763828 0.303933
v -0.312449 0.738424 0.295088
v 0.010373 0.576376 -0.036532
v -0.281951 0.763828 0.303933
v -0.268889 0.738153 0.332638
v 0.010373 0.576376 -0.036532
v -0.268889 0.738153 0.332638
v 0.041472 0.515244 0.031814
v -0.010386 0.515566 -0.012889
v 0.010373 0.576376 -0.036532
v 0.041472 0.515244 0.031814
v -0.290669 0.738288 0.313863
v -0.268889 0.738153 0.332638
v -0.281951 0.763828 0.303933
v 0.041472 0.515244 0.031814
v -0.268889 0.738153 0.332638
v -0.299388 0.712748 0.323793
v 0.041472 0.515244 0.031814
v -0.299388 0.712748 0.323793
v -0.031144 0.454757 0.010754
v -0.010386 0.515566 -0.012889
v 0.041472 0.515244 0.031814
v -0.031144 0.454757 0.010754
v -0.290669 0.738288 0.313863
v -0.299388 0.712748 0.323793
v -0.268889 0.738153 0.332638
v -0.031144 0.454757 0.010754
v -0.299388 0.712748 0.323793
v -0.312449 0.738424 0.295088
v -0.031144 0.454757 0.010754
v -0.312449 0.738424 0.295088
v -0.062244 0.515889 -0.057591
v -0.010386 0.515566 -0.012889
v -0.031144 0.454757 0.010754
v -0.062244 0.515889 -0.057591
v -0.290669 0.738288 0.313863
v -0.312449 0.738424 0.295088
v -0.299388 0.712748 0.323793
v -0.248773 0.681812 0.239525
v -0.179404 0.757422 0.378805
v -0.171867 0.765294 0.372231
v -0.248773 0.681812 0.239525
v -0.171867 0.765294 0.372231
v -0.222397 0.709360 0.216520
v -0.218753 0.681142 0.230024
v -0.248773 0.681812 0.239525
v -0.222397 0.709360 0.216520
v -0.170825 0.757230 0.376090
v -0.171867 0.765294 0.372231
v -0.179404 0.757422 0.378805
v -0.222397 0.709360 0.216520
v -0.171867 0.765294 0.372231
v -0.162247 0.757039 0.373375
v -0.222397 0.709360 0.216520
v -0.162247 0.757039 0.373375
v -0.188734 0.680471 0.220523
v -0.218753 0.681142 0.230024
v -0.222397 0.709360 0.216520
v -0.188734 0.680471 0.220523
v -0.170825 0.757230 0.376090
v -0.162247 0.757039 0.373375
v -0.171867 0.765294 0.372231
v -0.188734 0.680471 0.220523
v -0.162247 0.757039 0.373375
v -0.169784 0.749166 0.379949
v -0.188734 0.680471 0.220523
v -0.169784 0.749166 0.379949
v -0.215110 0.652923 0.243528
v -0.218753 0.681142 0.230024
v -0.188734 0.680471 0.220523
v -0.215110 0.652923 0.243528
v -0.170825 0.757230 0.376090
v -0.169784 0.749166 0.379949
v -0.162247 0.757039 0.373375
v -0.215110 0.652923 0.243528
v -0.169784 0.749166 0.379949
v -0.179404 0.757422 0.378805
v -0.215110 0.652923 0.243528
v -0.179404 0.757422 0.378805
v -0.248773 0.681812 0.239525
v -0.218753 0.681142 0.230024
v -0.215110 0.652923 0.243528
v -0.248773 0.681812 0.239525
v -0.170825 0.757230 0.376090
v -0.179404 0.757422 0.378805
v -0.169784 0.749166 0.379949
v -0.167844 0.616790 0.127690
v -0.186775 0.715697 0.311334
v -0.176919 0.723479 0.309262
v -0.167844 0.616790 0.127690
v -0.176919 0.723479 0.309262
v -0.133353 0.644022 0.120437
v -0.137201 0.616337 0.134951
v -0.167844 0.616790 0.127690
v -0.133353 0.644022 0.120437
v -0.178019 0.715568 0.313409
v -0.176919 0.723479 0.309262
v -0.186775 0.715697 0.311334
v -0.133353 0.644022 0.120437
v -0.176919 0.723479 0.309262
v -0.169262 0.715438 0.315484
v -0.133353 0.644022 0.120437
v -0.169262 0.715438 0.315484
v -0.106558 0.615885 0.142211
v -0.137201 0.616337 0.134951
v -0.133353 0.644022 0.120437
v -0.106558 0.615885 0.142211
v -0.178019 0.715568 0.313409
v -0.169262 0.715438 0.315484
v -0.176919 0.723479 0.309262
v -0.106558 0.615885 0.142211
v -0.169262 0.715438 0.315484
v -0.179118 0.707656 0.317557
v -0.106558 0.615885 0.142211
v -0.179118 0.707656 0.317557
v -0.141048 0.588652 0.149465
v -0.137201 0.616337 0.134951
v -0.106558 0.615885 0.142211
v -0.141048 0.588652 0.149465
v -0.178019 0.715568 0.313409
v -0.179118 0.707656 0.317557
v -0.169262 0.715438 0.315484
v -0.141048 0.588652 0.149465
v -0.179118 0.707656 0.317557
v -0.186775 0.715697 0.311334
v -0.141048 0.588652 0.149465
v -0.186775 0.715697 0.311334
v -0.167844 0.616790 0.127690
v -0.137201 0.616337 0.134951
v -0.141048 0.588652 0.149465
v -0.167844 0.616790 0.127690
v -0.178019 0.715568 0.313409
v -0.186775 0.715697 0.311334
v -0.179118 0.707656 0.317557
v -0.184739 0.636282 0.142093
v -0.316553 0.758113 0.310420
v -0.306961 0.765890 0.313505
v -0.184739 0.636282 0.142093
v -0.306961 0.765890 0.313505
v -0.151174 0.663496 0.152889
v -0.162166 0.636176 0.164055
v -0.184739 0.636282 0.142093
v -0.151174 0.663496 0.152889
v -0.310102 0.758083 0.316696
v -0.306961 0.765890 0.313505
v -0.316553 0.758113 0.310420
v -0.151174 0.663496 0.152889
v -0.306961 0.765890 0.313505
v -0.303652 0.758052 0.322972
v -0.151174 0.663496 0.152889
v -0.303652 0.758052 0.322972
v -0.139593 0.636070 0.186017
v -0.162166 0.636176 0.164055
v -0.151174 0.663496 0.152889
v -0.139593 0.636070 0.186017
v -0.310102 0.758083 0.316696
v -0.303652 0.758052 0.322972
v -0.306961 0.765890 0.313505
v -0.139593 0.636070 0.186017
v -0.303652 0.758052 0.322972
v -0.313244 0.750276 0.319887
v -0.139593 0.636070 0.186017
v -0.313244 0.750276 0.319887
v -0.173158 0.608855 0.175221
v -0.162166 0.636176 0.164055
v -0.139593 0.636070 0.186017
v -0.173158 0.608855 0.175221
v -0.310102 0.758083 0.316696
v -0.313244 0.750276 0.319887
v -0.303652 0.758052 0.322972
v -0.173158 0.608855 0.175221
v -0.313244 0.750276 0.319887
v -0.316553 0.758113 0.310420
v -0.173158 0.608855 0.175221
v -0.316553 0.758113 0.310420
v -0.184739 0.636282 0.142093
v -0.162166 0.636176 0.164055
v -0.173158 0.608855 0.175221
v -0.184739 0.636282 0.142093
v -0.310102 0.758083 0.316696
v -0.316553 0.758113 0.310420
v -0.313244 0.750276 0.319887
v 0.026839 0.621945 -0.071561
v -0.389600 0.876726 -0.322803
v -0.394925 0.902816 -0.292066
v 0.026839 0.621945 -0.071561
v -0.394925 0.902816 -0.292066
v 0.014161 0.684063 0.001623
v -0.012559 0.623420 -0.015585
v 0.026839 0.621945 -0.071561
v 0.014161 0.684063 0.001623
v -0.406147 0.877346 -0.299293
v -0.394925 0.902816 -0.292066
v -0.389600 0.876726 -0.322803
v 0.014161 0.684063 0.001623
v -0.394925 0.902816 -0.292066
v -0.422694 0.877965 -0.275783
v 0.014161 0.684063 0.001623
v -0.422694 0.877965 -0.275783
v -0.051956 0.624895 0.040391
v -0.012559 0.623420 -0.015585
v 0.014161 0.684063 0.001623
v -0.051956 0.624895 0.040391
v -0.406147 0.877346 -0.299293
v -0.422694 0.877965 -0.275783
v -0.394925 0.902816 -0.292066
v -0.051956 0.624895 0.040391
v -0.422694 0.877965 -0.275783
v -0.417370 0.851875 -0.306521
v -0.051956 0.624895 0.040391
v -0.417370 0.851875 -0.306521
v -0.039279 0.562777 -0.032793
v -0.012559 0.623420 -0.015585
v -0.051956 0.624895 0.040391
v -0.039279 0.562777 -0.032793
v -0.406147 0.877346 -0.299293
v -0.417370 0.851875 -0.306521
v -0.422694 0.877965 -0.275783
v -0.039279 0.562777 -0.032793
v -0.417370 0.851875 -0.306521
v -0.389600 0.876726 -0.322803
v -0.039279 0.562777 -0.032793
v -0.389600 0.876726 -0.322803
v 0.026839 0.621945 -0.071561
v -0.012559 0.623420 -0.015585
v -0.039279 0.562777 -0.032793
v 0.026839 0.621945 -0.071561
v -0.406147 0.877346 -0.299293
v -0.389600 0.876726 -0.322803
v -0.417370 0.851875 -0.306521
v -0.231263 0.782863 -0.205523
v -0.337583 0.829953 -0.428419
v -0.345244 0.838989 -0.423764
v -0.231263 0.782863 -0.205523
v -0.345244 0.838989 -0.423764
v -0.258072 0.814481 -0.189233
v -0.260754 0.783544 -0.194490
v -0.231263 0.782863 -0.205523
v -0.258072 0.814481 -0.189233
v -0.346010 0.830148 -0.425266
v -0.345244 0.838989 -0.423764
v -0.337583 0.829953 -0.428419
v -0.258072 0.814481 -0.189233
v -0.345244 0.838989 -0.423764
v -0.354438 0.830343 -0.422113
v -0.258072 0.814481 -0.189233
v -0.354438 0.830343 -0.422113
v -0.290245 0.784226 -0.183458
v -0.260754 0.783544 -0.194490
v -0.258072 0.814481 -0.189233
v -0.290245 0.784226 -0.183458
v -0.346010 0.830148 -0.425266
v -0.354438 0.830343 -0.422113
v -0.345244 0.838989 -0.423764
v -0.290245 0.784226 -0.183458
v -0.354438 0.830343 -0.422113
v -0.346777 0.821308 -0.426768
v -0.290245 0.784226 -0.183458
v -0.346777 0.821308 -0.426768
v -0.263436 0.752608 -0.199747
v -0.260754 0.783544 -0.194490
v -0.290245 0.784226 -0.183458
v -0.263436 0.752608 -0.199747
v -0.346010 0.830148 -0.425266
v -0.346777 0.821308 -0.426768
v -0.354438 0.830343 -0.422113
v -0.263436 0.752608 -0.199747
v -0.346777 0.821308 -0.426768
v -0.337583 0.829953 -0.428419
v -0.263436 0.752608 -0.199747
v -0.337583 0.829953 -0.428419
v -0.231263 0.782863 -0.205523
v -0.260754 0.783544 -0.194490
v -0.263436 0.752608 -0.199747
v -0.231263 0.782863 -0.205523
v -0.346010 0.830148 -0.425266
v -0.337583 0.829953 -0.428419
v -0.346777 0.821308 -0.426768
v -0.264836 0.805682 -0.214086
v -0.259413 0.872876 -0.362850
v -0.268812 0.881208 -0.360790
v -0.264836 0.805682 -0.214086
v -0.268812 0.881208 -0.360790
v -0.297727 0.834838 -0.206878
v -0.295812 0.806162 -0.219761
v -0.264836 0.805682 -0.214086
v -0.297727 0.834838 -0.206878
v -0.268264 0.873013 -0.364471
v -0.268812 0.881208 -0.360790
v -0.259413 0.872876 -0.362850
v -0.297727 0.834838 -0.206878
v -0.268812 0.881208 -0.360790
v -0.277116 0.873151 -0.366093
v -0.297727 0.834838 -0.206878
v -0.277116 0.873151 -0.366093
v -0.326787 0.806642 -0.225435
v -0.295812 0.806162 -0.219761
v -0.297727 0.834838 -0.206878
v -0.326787 0.806642 -0.225435
v -0.268264 0.873013 -0.364471
v -0.277116 0.873151 -0.366093
v -0.268812 0.881208 -0.360790
v -0.326787 0.806642 -0.225435
v -0.277116 0.873151 -0.366093
v -0.267717 0.864819 -0.368153
v -0.326787 0.806642 -0.225435
v -0.267717 0.864819 -0.368153
v -0.293896 0.777487 -0.232643
v -0.295812 0.806162 -0.219761
v -0.326787 0.806642 -0.225435
v -0.293896 0.777487 -0.232643
v -0.268264 0.873013 -0.364471
v -0.267717 0.864819 -0.368153
v -0.277116 0.873151 -0.366093
v -0.293896 0.777487 -0.232643
v -0.267717 0.864819 -0.368153
v -0.259413 0.872876 -0.362850
v -0.293896 0.777487 -0.232643
v -0.259413 0.872876 -0.362850
v -0.264836 0.805682 -0.214086
v -0.295812 0.806162 -0.219761
v -0.293896 0.777487 -0.232643
v -0.264836 0.805682 -0.214086
v -0.268264 0.873013 -0.364471
v -0.259413 0.872876 -0.362850
v -0.267717 0.864819 -0.368153
f 1 2 3
f 4 5 6
f 7 8 9
f 10 11 12
f 13 14 15
f 16 17 18
f 19 20 21
f 22 23 24
f 25 26 27
f 28 29 30
f 31 32 33
f 34 35 36
f 37 38 39
f 40 41 42
f 43 44 45
f 46 47 48
f 49 50 51
f 52 53 54
f 55 56 57
f 58 59 60
f 61 62 63
f 64 65 66
f 67 68 69
f 70 71 72
f 73 74 75
f 76 77 78
f 79 80 81
f 82 83 84
f 85 86 87
f 88 89 90
f 91 92 93
f 94 95 96
f 97 98 99
f 100 101 102
f 103 104 105
f 106 107 108
f 109 110 111
f 112 113 114
f 115 116 117
f 118 119 120
f 121 122 123
f 124 125 126
f 127 128 129
f 130 131 132
f 133 134 135
f 136 137 138
f 139 140 141
f 142 143 144
f 145 146 147
f 148 149 150
f 151 152 153
f 154 155 156
f 157 158 159
f 160 161 162
f 163 164 165
f 166 167 168
f 169 170 171
f 172 173 174
f 175 176 177
f 178 179 180
f 181 182 183
f 184 185 186
f 187 188 189
f 190 191 192
f 193 194 195
f 196 197 198
f 199 200 201
f 202 203 204
f 205 206 207
f 208 209 210
f 211 212 213
f 214 215 216
f 217 218 219
f 220 221 222
f 223 224 225
f 226 227 228
f 229 230 231
f 232 233 234
f 235 236 237
f 238 239 240
f 241 242 243
f 244 245 246
f 247 248 249
f 250 251 252
f 253 254 255
f 256 257 258
f 259 260 261
f 262 263 264
f 265 266 267
f 268 269 270
f 271 272 273
f 274 275 276
f 277 278 279
f 280 281 282
f 283 284 285
f 286 287 288
f 289 290 291
f 292 293 294
f 295 296 297
f 298 299 300
f 301 302 303
f 304 305 306
f 307 308 309
f 310 311 312
f 313 314 315
f 316 317 318
f 319 320 321
f 322 323 324
f 325 326 327
f 328 329 330
f 331 332 333
f 334 335 336
f 337 338 339
f 340 341 342
f 343 344 345
f 346 347 348
f 349 350 351
f 352 353 354
f 355 356 357
f 358 359 360
f 361 362 363
f 364 365 366
f 367 368 369
f 370 371 372
f 373 374 375
f 376 377 378
f 379 380 381
f 382 383 384
f 385 386 387
f 388 389 390
f 391 392 393
f 394 395 396
f 397 398 399
f 400 401 402
f 403 404 405
f 406 407 408
f 409 410 411
f 412 413 414
f 415 416 417
f 418 419 420
f 421 422 423
f 424 425 426
f 427 428 429
f 430 431 432
f 433 434 435
f 436 437 438
f 439 440 441
f 442 443 444
f 445 446 447
f 448 449 450
f 451 452 453
f 454 455 456
f 457 458 459
f 460 461 462
f 463 464 465
f 466 467 468
f 469 470 471
f 472 473 474
f 475 476 477
f 478 479 480
f 481 482 483
f 484 485 486
f 487 488 489
f 490 491 492
f 493 494 495
f 496 497 498
f 499 500 501
f 502 503 504
f 505 506 507
f 508 509 510
f 511 512 513
f 514 515 516
f 517 518 519
f 520 521 522
f 523 524 525
f 526 527 528
f 529 530 531
f 532 533 534
f 535 536 537
f 538 539 540
f 541 542 543
f 544 545 546
f 547 548 549
f 550 551 552
f 553 554 555
f 556 557 558
f 559 560 561
f 562 563 564
f 565 566 567
f 568 569 570
f 571 572 573
f 574 575 576
f 577 578 579
f 580 581 582
f 583 584 585
f 586 587 588
f 589 590 591
f 592 593 594
f 595 596 597
f 598 599 600
f 601 602 603
f 604 605 606
f 607 608 609
f 610 611 612
f 613 614 615
f 616 617 618
f 619 620 621
f 622 623 624
f 625 626 627
f 628 629 630
f 631 632 633
f 634 635 636
f 637 638 639
f 640 641 642
f 643 644 645
f 646 647 648
f 649 650 651
f 652 653 654
f 655 656 657
f 658 659 660
f 661 662 663
f 664 665 666
f 667 668 669
f 670 671 672
f 673 674 675
f 676 677 678
f 679 680 681
f 682 683 684
f 685 686 687
f 688 689 690
f 691 692 693
f 694 695 696
f 697 698 699
f 700 701 702
f 703 704 705
f 706 707 708
f 709 710 711
f 712 713 714
f 715 716 717
f 718 719 720
f 721 722 723
f 724 725 726
f 727 728 729
f 730 731 732
f 733 734 735
f 736 737 738
f 739 740 741
f 742 743 744
f 745 746 747
f 748 749 750
f 751 752 753
f 754 755 756
f 757 758 759
f 760 761 762
f 763 764 765
f 766 767 768
f 769 770 771
f 772 773 774
f 775 776 777
f 778 779 780
f 781 782 783
f 784 785 786
f 787 788 789
f 790 791 792
f 793 794 795
f 796 797 798
f 799 800 801
f 802 803 804
f 805 806 807
f 808 809 810
f 811 812 813
f 814 815 816
f 817 818 819
f 820 821 822
f 823 824 825
f 826 827 828
f 829 830 831
f 832 833 834
f 835 836 837
f 838 839 840

o TreeFoliage
v -0.024022 0.785190 -0.022064
v 0.193597 0.873582 -0.023273
v 0.130344 0.877005 0.143703
v -0.024022 0.785190 -0.022064
v 0.130344 0.877005 0.143703
v -0.024022 0.785190 -0.022064
v -0.024022 0.785190 -0.022064
v 0.130344 0.877005 0.143703
v -0.022361 0.880700 0.212835
v -0.024022 0.785190 -0.022064
v -0.022361 0.880700 0.212835
v -0.024022 0.785190 -0.022064
v -0.024022 0.785190 -0.022064
v -0.022361 0.880700 0.212835
v -0.175066 0.882502 0.143628
v -0.024022 0.785190 -0.022064
v -0.175066 0.882502 0.143628
v -0.024022 0.785190 -0.022064
v -0.024022 0.785190 -0.022064
v -0.175066 0.882502 0.143628
v -0.238319 0.881357 -0.023379
v -0.024022 0.785190 -0.022064
v -0.238319 0.881357 -0.023379
v -0.024022 0.785190 -0.022064
v -0.024022 0.785190 -0.022064
v -0.238319 0.881357 -0.023379
v -0.175066 0.877934 -0.190355
v -0.024022 0.785190 -0.022064
v -0.175066 0.877934 -0.190355
v -0.024022 0.785190 -0.022064
v -0.024022 0.785190 -0.022064
v -0.175066 0.877934 -0.190355
v -0.022361 0.874239 -0.259488
v -0.024022 0.785190 -0.022064
v -0.022361 0.874239 -0.259488
v -0.024022 0.785190 -0.022064
v -0.024022 0.785190 -0.022064
v -0.022361 0.874239 -0.259488
v 0.130344 0.872437 -0.190280
v -0.024022 0.785190 -0.022064
v 0.130344 0.872437 -0.190280
v -0.024022 0.785190 -0.022064
v -0.024022 0.785190 -0.022064
v 0.130344 0.872437 -0.190280
v 0.193597 0.873582 -0.023273
v -0.024022 0.785190 -0.022064
v 0.193597 0.873582 -0.023273
v -0.024022 0.785190 -0.022064
v 0.193597 0.873582 -0.023273
v 0.287060 1.094753 -0.026298
v 0.197608 1.099594 0.209841
v 0.193597 0.873582 -0.023273
v 0.197608 1.099594 0.209841
v 0.130344 0.877005 0.143703
v 0.130344 0.877005 0.143703
v 0.197608 1.099594 0.209841
v -0.018350 1.104819 0.307610
v 0.130344 0.877005 0.143703
v -0.018350 1.104819 0.307610
v -0.022361 0.880700 0.212835
v -0.022361 0.880700 0.212835
v -0.018350 1.104819 0.307610
v -0.234308 1.107368 0.209735
v -0.022361 0.880700 0.212835
v -0.234308 1.107368 0.209735
v -0.175066 0.882502 0.143628
v -0.175066 0.882502 0.143628
v -0.234308 1.107368 0.209735
v -0.323761 1.105748 -0.026449
v -0.175066 0.882502 0.143628
v -0.323761 1.105748 -0.026449
v -0.238319 0.881357 -0.023379
v -0.238319 0.881357 -0.023379
v -0.323761 1.105748 -0.026449
v -0.234308 1.100908 -0.262588
v -0.238319 0.881357 -0.023379
v -0.234308 1.100908 -0.262588
v -0.175066 0.877934 -0.190355
v -0.175066 0.877934 -0.190355
v -0.234308 1.100908 -0.262588
v -0.018350 1.095682 -0.360357
v -0.175066 0.877934 -0.190355
v -0.018350 1.095682 -0.360357
v -0.022361 0.874239 -0.259488
v -0.022361 0.874239 -0.259488
v -0.018350 1.095682 -0.360357
v 0.197608 1.093133 -0.262482
v -0.022361 0.874239 -0.259488
v 0.197608 1.093133 -0.262482
v 0.130344 0.872437 -0.190280
v 0.130344 0.872437 -0.190280
v 0.197608 1.093133 -0.262482
v 0.287060 1.094753 -0.026298
v 0.130344 0.872437 -0.190280
v 0.287060 1.094753 -0.026298
v 0.193597 0.873582 -0.023273
v 0.287060 1.094753 -0.026298
v 0.201618 1.319145 -0.029368
v 0.138366 1.322568 0.137608
v 0.287060 1.094753 -0.026298
v 0.138366 1.322568 0.137608
v 0.197608 1.099594 0.209841
v 0.197608 1.099594 0.209841
v 0.138366 1.322568 0.137608
v -0.014340 1.326262 0.206741
v 0.197608 1.099594 0.209841
v -0.014340 1.326262 0.206741
v -0.018350 1.104819 0.307610
v -0.018350 1.104819 0.307610
v -0.014340 1.326262 0.206741
v -0.167045 1.328065 0.137533
v -0.018350 1.104819 0.307610
v -0.167045 1.328065 0.137533
v -0.234308 1.107368 0.209735
v -0.234308 1.107368 0.209735
v -0.167045 1.328065 0.137533
v -0.230297 1.326919 -0.029474
v -0.234308 1.107368 0.209735
v -0.230297 1.326919 -0.029474
v -0.323761 1.105748 -0.026449
v -0.323761 1.105748 -0.026449
v -0.230297 1.326919 -0.029474
v -0.167045 1.323497 -0.196450
v -0.323761 1.105748 -0.026449
v -0.167045 1.323497 -0.196450
v -0.234308 1.100908 -0.262588
v -0.234308 1.100908 -0.262588
v -0.167045 1.323497 -0.196450
v -0.014340 1.319802 -0.265583
v -0.234308 1.100908 -0.262588
v -0.014340 1.319802 -0.265583
v -0.018350 1.095682 -0.360357
v -0.018350 1.095682 -0.360357
v -0.014340 1.319802 -0.265583
v 0.138366 1.317999 -0.196375
v -0.018350 1.095682 -0.360357
v 0.138366 1.317999 -0.196375
v 0.197608 1.093133 -0.262482
v 0.197608 1.093133 -0.262482
v 0.138366 1.317999 -0.196375
v 0.201618 1.319145 -0.029368
v 0.197608 1.093133 -0.262482
v 0.201618 1.319145 -0.029368
v 0.287060 1.094753 -0.026298
v 0.201618 1.319145 -0.029368
v -0.012678 1.415311 -0.030683
v -0.012678 1.415311 -0.030683
v 0.201618 1.319145 -0.029368
v -0.012678 1.415311 -0.030683
v 0.138366 1.322568 0.137608
v 0.138366 1.322568 0.137608
v -0.012678 1.415311 -0.030683
v -0.012678 1.415311 -0.030683
v 0.138366 1.322568 0.137608
v -0.012678 1.415311 -0.030683
v -0.014340 1.326262 0.206741
v -0.014340 1.326262 0.206741
v -0.012678 1.415311 -0.030683
v -0.012678 1.415311 -0.030683
v -0.014340 1.326262 0.206741
v -0.012678 1.415311 -0.030683
v -0.167045 1.328065 0.137533
v -0.167045 1.328065 0.137533
v -0.012678 1.415311 -0.030683
v -0.012678 1.415311 -0.030683
v -0.167045 1.328065 0.137533
v -0.012678 1.415311 -0.030683
v -0.230297 1.326919 -0.029474
v -0.230297 1.326919 -0.029474
v -0.012678 1.415311 -0.030683
v -0.012678 1.415311 -0.030683
v -0.230297 1.326919 -0.029474
v -0.012678 1.415311 -0.030683
v -0.167045 1.323497 -0.196450
v -0.167045 1.323497 -0.196450
v -0.012678 1.415311 -0.030683
v -0.012678 1.415311 -0.030683
v -0.167045 1.323497 -0.196450
v -0.012678 1.415311 -0.030683
v -0.014340 1.319802 -0.265583
v -0.014340 1.319802 -0.265583
v -0.012678 1.415311 -0.030683
v -0.012678 1.415311 -0.030683
v -0.014340 1.319802 -0.265583
v -0.012678 1.415311 -0.030683
v 0.138366 1.317999 -0.196375
v 0.138366 1.317999 -0.196375
v -0.012678 1.415311 -0.030683
v -0.012678 1.415311 -0.030683
v 0.138366 1.317999 -0.196375
v -0.012678 1.415311 -0.030683
v 0.201618 1.319145 -0.029368
v -0.193984 0.707055 0.165119
v 0.043657 0.802639 0.163811
v -0.025420 0.805958 0.315515
v -0.193984 0.707055 0.165119
v -0.025420 0.805958 0.315515
v -0.193984 0.707055 0.165119
v -0.193984 0.707055 0.165119
v -0.025420 0.805958 0.315515
v -0.192187 0.809819 0.378318
v -0.193984 0.707055 0.165119
v -0.192187 0.809819 0.378318
v -0.193984 0.707055 0.165119
v -0.193984 0.707055 0.165119
v -0.192187 0.809819 0.378318
v -0.358954 0.811961 0.315432
v -0.193984 0.707055 0.165119
v -0.358954 0.811961 0.315432
v -0.193984 0.707055 0.165119
v -0.193984 0.707055 0.165119
v -0.358954 0.811961 0.315432
v -0.428031 0.811129 0.163695
v -0.193984 0.707055 0.165119
v -0.428031 0.811129 0.163695
v -0.193984 0.707055 0.165119
v -0.193984 0.707055 0.165119
v -0.428031 0.811129 0.163695
v -0.358954 0.807811 0.011992
v -0.193984 0.707055 0.165119
v -0.358954 0.807811 0.011992
v -0.193984 0.707055 0.165119
v -0.193984 0.707055 0.165119
v -0.358954 0.807811 0.011992
v -0.192187 0.803949 -0.050812
v -0.193984 0.707055 0.165119
v -0.192187 0.803949 -0.050812
v -0.193984 0.707055 0.165119
v -0.193984 0.707055 0.165119
v -0.192187 0.803949 -0.050812
v -0.025420 0.801807 0.012074
v -0.193984 0.707055 0.165119
v -0.025420 0.801807 0.012074
v -0.193984 0.707055 0.165119
v -0.193984 0.707055 0.165119
v -0.025420 0.801807 0.012074
v 0.043657 0.802639 0.163811
v -0.193984 0.707055 0.165119
v 0.043657 0.802639 0.163811
v -0.193984 0.707055 0.165119
v 0.043657 0.802639 0.163811
v 0.145686 1.041889 0.160539
v 0.047996 1.046583 0.375080
v 0.043657 0.802639 0.163811
v 0.047996 1.046583 0.375080
v -0.025420 0.805958 0.315515
v -0.025420 0.805958 0.315515
v 0.047996 1.046583 0.375080
v -0.187848 1.052043 0.463897
v -0.025420 0.805958 0.315515
v -0.187848 1.052043 0.463897
v -0.192187 0.809819 0.378318
v -0.192187 0.809819 0.378318
v -0.187848 1.052043 0.463897
v -0.423692 1.055073 0.374964
v -0.192187 0.809819 0.378318
v -0.423692 1.055073 0.374964
v -0.358954 0.811961 0.315432
v -0.358954 0.811961 0.315432
v -0.423692 1.055073 0.374964
v -0.521382 1.053896 0.160375
v -0.358954 0.811961 0.315432
v -0.521382 1.053896 0.160375
v -0.428031 0.811129 0.163695
v -0.428031 0.811129 0.163695
v -0.521382 1.053896 0.160375
v -0.423692 1.049203 -0.054166
v -0.428031 0.811129 0.163695
v -0.423692 1.049203 -0.054166
v -0.358954 0.807811 0.011992
v -0.358954 0.807811 0.011992
v -0.423692 1.049203 -0.054166
v -0.187848 1.043742 -0.142984
v -0.358954 0.807811 0.011992
v -0.187848 1.043742 -0.142984
v -0.192187 0.803949 -0.050812
v -0.192187 0.803949 -0.050812
v -0.187848 1.043742 -0.142984
v 0.047996 1.040713 -0.054050
v -0.192187 0.803949 -0.050812
v 0.047996 1.040713 -0.054050
v -0.025420 0.801807 0.012074
v -0.025420 0.801807 0.012074
v 0.047996 1.040713 -0.054050
v 0.145686 1.041889 0.160539
v -0.025420 0.801807 0.012074
v 0.145686 1.041889 0.160539
v 0.043657 0.802639 0.163811
v 0.145686 1.041889 0.160539
v 0.052335 1.284657 0.157218
v -0.016742 1.287975 0.308921
v 0.145686 1.041889 0.160539
v -0.016742 1.287975 0.308921
v 0.047996 1.046583 0.375080
v 0.047996 1.046583 0.375080
v -0.016742 1.287975 0.308921
v -0.183509 1.291837 0.371725
v 0.047996 1.046583 0.375080
v -0.183509 1.291837 0.371725
v -0.187848 1.052043 0.463897
v -0.187848 1.052043 0.463897
v -0.183509 1.291837 0.371725
v -0.350276 1.293979 0.308839
v -0.187848 1.052043 0.463897
v -0.350276 1.293979 0.308839
v -0.423692 1.055073 0.374964
v -0.423692 1.055073 0.374964
v -0.350276 1.293979 0.308839
v -0.419353 1.293147 0.157102
v -0.423692 1.055073 0.374964
v -0.419353 1.293147 0.157102
v -0.521382 1.053896 0.160375
v -0.521382 1.053896 0.160375
v -0.419353 1.293147 0.157102
v -0.350276 1.289828 0.005399
v -0.521382 1.053896 0.160375
v -0.350276 1.289828 0.005399
v -0.423692 1.049203 -0.054166
v -0.423692 1.049203 -0.054166
v -0.350276 1.289828 0.005399
v -0.183509 1.285967 -0.057405
v -0.423692 1.049203 -0.054166
v -0.183509 1.285967 -0.057405
v -0.187848 1.043742 -0.142984
v -0.187848 1.043742 -0.142984
v -0.183509 1.285967 -0.057405
v -0.016742 1.283825 0.005481
v -0.187848 1.043742 -0.142984
v -0.016742 1.283825 0.005481
v 0.047996 1.040713 -0.054050
v 0.047996 1.040713 -0.054050
v -0.016742 1.283825 0.005481
v 0.052335 1.284657 0.157218
v 0.047996 1.040713 -0.054050
v 0.052335 1.284657 0.157218
v 0.145686 1.041889 0.160539
v 0.052335 1.284657 0.157218
v -0.181712 1.388731 0.155795
v -0.181712 1.388731 0.155795
v 0.052335 1.284657 0.157218
v -0.181712 1.388731 0.155795
v -0.016742 1.287975 0.308921
v -0.016742 1.287975 0.308921
v -0.181712 1.388731 0.155795
v -0.181712 1.388731 0.155795
v -0.016742 1.287975 0.308921
v -0.181712 1.388731 0.155795
v -0.183509 1.291837 0.371725
v -0.183509 1.291837 0.371725
v -0.181712 1.388731 0.155795
v -0.181712 1.388731 0.155795
v -0.183509 1.291837 0.371725
v -0.181712 1.388731 0.155795
v -0.350276 1.293979 0.308839
v -0.350276 1.293979 0.308839
v -0.181712 1.388731 0.155795
v -0.181712 1.388731 0.155795
v -0.350276 1.293979 0.308839
v -0.181712 1.388731 0.155795
v -0.419353 1.293147 0.157102
v -0.419353 1.293147 0.157102
v -0.181712 1.388731 0.155795
v -0.181712 1.388731 0.155795
v -0.419353 1.293147 0.157102
v -0.181712 1.388731 0.155795
v -0.350276 1.289828 0.005399
v -0.350276 1.289828 0.005399
v -0.181712 1.388731 0.155795
v -0.181712 1.388731 0.155795
v -0.350276 1.289828 0.005399
v -0.181712 1.388731 0.155795
v -0.183509 1.285967 -0.057405
v -0.183509 1.285967 -0.057405
v -0.181712 1.388731 0.155795
v -0.181712 1.388731 0.155795
v -0.183509 1.285967 -0.057405
v -0.181712 1.388731 0.155795
v -0.016742 1.283825 0.005481
v -0.016742 1.283825 0.005481
v -0.181712 1.388731 0.155795
v -0.181712 1.388731 0.155795
v -0.016742 1.283825 0.005481
v -0.181712 1.388731 0.155795
v 0.052335 1.284657 0.157218
v -0.265832 0.857897 -0.203240
v -0.093595 0.929987 -0.204226
v -0.143646 0.932484 -0.087510
v -0.265832 0.857897 -0.203240
v -0.143646 0.932484 -0.087510
v -0.265832 0.857897 -0.203240
v -0.265832 0.857897 -0.203240
v -0.143646 0.932484 -0.087510
v -0.264478 0.935320 -0.039189
v -0.265832 0.857897 -0.203240
v -0.264478 0.935320 -0.039189
v -0.265832 0.857897 -0.203240
v -0.265832 0.857897 -0.203240
v -0.264478 0.935320 -0.039189
v -0.385311 0.936834 -0.087569
v -0.265832 0.857897 -0.203240
v -0.385311 0.936834 -0.087569
v -0.265832 0.857897 -0.203240
v -0.265832 0.857897 -0.203240
v -0.385311 0.936834 -0.087569
v -0.435361 0.936138 -0.204310
v -0.265832 0.857897 -0.203240
v -0.435361 0.936138 -0.204310
v -0.265832 0.857897 -0.203240
v -0.265832 0.857897 -0.203240
v -0.435361 0.936138 -0.204310
v -0.385311 0.933641 -0.321026
v -0.265832 0.857897 -0.203240
v -0.385311 0.933641 -0.321026
v -0.265832 0.857897 -0.203240
v -0.265832 0.857897 -0.203240
v -0.385311 0.933641 -0.321026
v -0.264478 0.930804 -0.369347
v -0.265832 0.857897 -0.203240
v -0.264478 0.930804 -0.369347
v -0.265832 0.857897 -0.203240
v -0.265832 0.857897 -0.203240
v -0.264478 0.930804 -0.369347
v -0.143646 0.929291 -0.320966
v -0.265832 0.857897 -0.203240
v -0.143646 0.929291 -0.320966
v -0.265832 0.857897 -0.203240
v -0.265832 0.857897 -0.203240
v -0.143646 0.929291 -0.320966
v -0.093595 0.929987 -0.204226
v -0.265832 0.857897 -0.203240
v -0.093595 0.929987 -0.204226
v -0.265832 0.857897 -0.203240
v -0.093595 0.929987 -0.204226
v -0.019546 1.110179 -0.206690
v -0.090328 1.113711 -0.041629
v -0.093595 0.929987 -0.204226
v -0.090328 1.113711 -0.041629
v -0.143646 0.932484 -0.087510
v -0.143646 0.932484 -0.087510
v -0.090328 1.113711 -0.041629
v -0.261211 1.117722 0.026706
v -0.143646 0.932484 -0.087510
v -0.261211 1.117722 0.026706
v -0.264478 0.935320 -0.039189
v -0.264478 0.935320 -0.039189
v -0.261211 1.117722 0.026706
v -0.432094 1.119863 -0.041713
v -0.264478 0.935320 -0.039189
v -0.432094 1.119863 -0.041713
v -0.385311 0.936834 -0.087569
v -0.385311 0.936834 -0.087569
v -0.432094 1.119863 -0.041713
v -0.502876 1.118879 -0.206809
v -0.385311 0.936834 -0.087569
v -0.502876 1.118879 -0.206809
v -0.435361 0.936138 -0.204310
v -0.435361 0.936138 -0.204310
v -0.502876 1.118879 -0.206809
v -0.432094 1.115347 -0.371871
v -0.435361 0.936138 -0.204310
v -0.432094 1.115347 -0.371871
v -0.385311 0.933641 -0.321026
v -0.385311 0.933641 -0.321026
v -0.432094 1.115347 -0.371871
v -0.261211 1.111336 -0.440206
v -0.385311 0.933641 -0.321026
v -0.261211 1.111336 -0.440206
v -0.264478 0.930804 -0.369347
v -0.264478 0.930804 -0.369347
v -0.261211 1.111336 -0.440206
v -0.090328 1.109195 -0.371787
v -0.264478 0.930804 -0.369347
v -0.090328 1.109195 -0.371787
v -0.143646 0.929291 -0.320966
v -0.143646 0.929291 -0.320966
v -0.090328 1.109195 -0.371787
v -0.019546 1.110179 -0.206690
v -0.143646 0.929291 -0.320966
v -0.019546 1.110179 -0.206690
v -0.093595 0.929987 -0.204226
v -0.019546 1.110179 -0.206690
v -0.087061 1.292920 -0.209190
v -0.137112 1.295417 -0.092474
v -0.019546 1.110179 -0.206690
v -0.137112 1.295417 -0.092474
v -0.090328 1.113711 -0.041629
v -0.090328 1.113711 -0.041629
v -0.137112 1.295417 -0.092474
v -0.257944 1.298254 -0.044153
v -0.090328 1.113711 -0.041629
v -0.257944 1.298254 -0.044153
v -0.261211 1.117722 0.026706
v -0.261211 1.117722 0.026706
v -0.257944 1.298254 -0.044153
v -0.378777 1.299767 -0.092534
v -0.261211 1.117722 0.026706
v -0.378777 1.299767 -0.092534
v -0.432094 1.119863 -0.041713
v -0.432094 1.119863 -0.041713
v -0.378777 1.299767 -0.092534
v -0.428827 1.299072 -0.209274
v -0.432094 1.119863 -0.041713
v -0.428827 1.299072 -0.209274
v -0.502876 1.118879 -0.206809
v -0.502876 1.118879 -0.206809
v -0.428827 1.299072 -0.209274
v -0.378777 1.296574 -0.325990
v -0.502876 1.118879 -0.206809
v -0.378777 1.296574 -0.325990
v -0.432094 1.115347 -0.371871
v -0.432094 1.115347 -0.371871
v -0.378777 1.296574 -0.325990
v -0.257944 1.293738 -0.374311
v -0.432094 1.115347 -0.371871
v -0.257944 1.293738 -0.374311
v -0.261211 1.111336 -0.440206
v -0.261211 1.111336 -0.440206
v -0.257944 1.293738 -0.374311
v -0.137112 1.292224 -0.325931
v -0.261211 1.111336 -0.440206
v -0.137112 1.292224 -0.325931
v -0.090328 1.109195 -0.371787
v -0.090328 1.109195 -0.371787
v -0.137112 1.292224 -0.325931
v -0.087061 1.292920 -0.209190
v -0.090328 1.109195 -0.371787
v -0.087061 1.292920 -0.209190
v -0.019546 1.110179 -0.206690
v -0.087061 1.292920 -0.209190
v -0.256591 1.371161 -0.210260
v -0.256591 1.371161 -0.210260
v -0.087061 1.292920 -0.209190
v -0.256591 1.371161 -0.210260
v -0.137112 1.295417 -0.092474
v -0.137112 1.295417 -0.092474
v -0.256591 1.371161 -0.210260
v -0.256591 1.371161 -0.210260
v -0.137112 1.295417 -0.092474
v -0.256591 1.371161 -0.210260
v -0.257944 1.298254 -0.044153
v -0.257944 1.298254 -0.044153
v -0.256591 1.371161 -0.210260
v -0.256591 1.371161 -0.210260
v -0.257944 1.298254 -0.044153
v -0.256591 1.371161 -0.210260
v -0.378777 1.299767 -0.092534
v -0.378777 1.299767 -0.092534
v -0.256591 1.371161 -0.210260
v -0.256591 1.371161 -0.210260
v -0.378777 1.299767 -0.092534
v -0.256591 1.371161 -0.210260
v -0.428827 1.299072 -0.209274
v -0.428827 1.299072 -0.209274
v -0.256591 1.371161 -0.210260
v -0.256591 1.371161 -0.210260
v -0.428827 1.299072 -0.209274
v -0.256591 1.371161 -0.210260
v -0.378777 1.296574 -0.325990
v -0.378777 1.296574 -0.325990
v -0.256591 1.371161 -0.210260
v -0.256591 1.371161 -0.210260
v -0.378777 1.296574 -0.325990
v -0.256591 1.371161 -0.210260
v -0.257944 1.293738 -0.374311
v -0.257944 1.293738 -0.374311
v -0.256591 1.371161 -0.210260
v -0.256591 1.371161 -0.210260
v -0.257944 1.293738 -0.374311
v -0.256591 1.371161 -0.210260
v -0.137112 1.292224 -0.325931
v -0.137112 1.292224 -0.325931
v -0.256591 1.371161 -0.210260
v -0.256591 1.371161 -0.210260
v -0.137112 1.292224 -0.325931
v -0.256591 1.371161 -0.210260
v -0.087061 1.292920 -0.209190
v 0.154632 0.593125 -0.323290
v 0.346891 0.672408 -0.324374
v 0.291016 0.675300 -0.186487
v 0.154632 0.593125 -0.323290
v 0.291016 0.675300 -0.186487
v 0.154632 0.593125 -0.323290
v 0.154632 0.593125 -0.323290
v 0.291016 0.675300 -0.186487
v 0.156121 0.678509 -0.129399
v 0.154632 0.593125 -0.323290
v 0.156121 0.678509 -0.129399
v 0.154632 0.593125 -0.323290
v 0.154632 0.593125 -0.323290
v 0.156121 0.678509 -0.129399
v 0.021227 0.680156 -0.186553
v 0.154632 0.593125 -0.323290
v 0.021227 0.680156 -0.186553
v 0.154632 0.593125 -0.323290
v 0.154632 0.593125 -0.323290
v 0.021227 0.680156 -0.186553
v -0.034648 0.679275 -0.324468
v 0.154632 0.593125 -0.323290
v -0.034648 0.679275 -0.324468
v 0.154632 0.593125 -0.323290
v 0.154632 0.593125 -0.323290
v -0.034648 0.679275 -0.324468
v 0.021227 0.676383 -0.462356
v 0.154632 0.593125 -0.323290
v 0.021227 0.676383 -0.462356
v 0.154632 0.593125 -0.323290
v 0.154632 0.593125 -0.323290
v 0.021227 0.676383 -0.462356
v 0.156121 0.673174 -0.519444
v 0.154632 0.593125 -0.323290
v 0.156121 0.673174 -0.519444
v 0.154632 0.593125 -0.323290
v 0.154632 0.593125 -0.323290
v 0.156121 0.673174 -0.519444
v 0.291016 0.671527 -0.462290
v 0.154632 0.593125 -0.323290
v 0.291016 0.671527 -0.462290
v 0.154632 0.593125 -0.323290
v 0.154632 0.593125 -0.323290
v 0.291016 0.671527 -0.462290
v 0.346891 0.672408 -0.324374
v 0.154632 0.593125 -0.323290
v 0.346891 0.672408 -0.324374
v 0.154632 0.593125 -0.323290
v 0.346891 0.672408 -0.324374
v 0.429505 0.870679 -0.327086
v 0.350486 0.874769 -0.132084
v 0.346891 0.672408 -0.324374
v 0.350486 0.874769 -0.132084
v 0.291016 0.675300 -0.186487
v 0.291016 0.675300 -0.186487
v 0.350486 0.874769 -0.132084
v 0.159717 0.879308 -0.051350
v 0.291016 0.675300 -0.186487
v 0.159717 0.879308 -0.051350
v 0.156121 0.678509 -0.129399
v 0.156121 0.678509 -0.129399
v 0.159717 0.879308 -0.051350
v -0.031053 0.881637 -0.132178
v 0.156121 0.678509 -0.129399
v -0.031053 0.881637 -0.132178
v 0.021227 0.680156 -0.186553
v 0.021227 0.680156 -0.186553
v -0.031053 0.881637 -0.132178
v -0.110072 0.880391 -0.327219
v 0.021227 0.680156 -0.186553
v -0.110072 0.880391 -0.327219
v -0.034648 0.679275 -0.324468
v -0.034648 0.679275 -0.324468
v -0.110072 0.880391 -0.327219
v -0.031053 0.876302 -0.522222
v -0.034648 0.679275 -0.324468
v -0.031053 0.876302 -0.522222
v 0.021227 0.676383 -0.462356
v 0.021227 0.676383 -0.462356
v -0.031053 0.876302 -0.522222
v 0.159717 0.871763 -0.602956
v 0.021227 0.676383 -0.462356
v 0.159717 0.871763 -0.602956
v 0.156121 0.673174 -0.519444
v 0.156121 0.673174 -0.519444
v 0.159717 0.871763 -0.602956
v 0.350486 0.869434 -0.522128
v 0.156121 0.673174 -0.519444
v 0.350486 0.869434 -0.522128
v 0.291016 0.671527 -0.462290
v 0.291016 0.671527 -0.462290
v 0.350486 0.869434 -0.522128
v 0.429505 0.870679 -0.327086
v 0.291016 0.671527 -0.462290
v 0.429505 0.870679 -0.327086
v 0.346891 0.672408 -0.324374
v 0.429505 0.870679 -0.327086
v 0.354081 1.071795 -0.329837
v 0.298206 1.074687 -0.191950
v 0.429505 0.870679 -0.327086
v 0.298206 1.074687 -0.191950
v 0.350486 0.874769 -0.132084
v 0.350486 0.874769 -0.132084
v 0.298206 1.074687 -0.191950
v 0.163312 1.077897 -0.134862
v 0.350486 0.874769 -0.132084
v 0.163312 1.077897 -0.134862
v 0.159717 0.879308 -0.051350
v 0.159717 0.879308 -0.051350
v 0.163312 1.077897 -0.134862
v 0.028418 1.079544 -0.192016
v 0.159717 0.879308 -0.051350
v 0.028418 1.079544 -0.192016
v -0.031053 0.881637 -0.132178
v -0.031053 0.881637 -0.132178
v 0.028418 1.079544 -0.192016
v -0.027457 1.078663 -0.329931
v -0.031053 0.881637 -0.132178
v -0.027457 1.078663 -0.329931
v -0.110072 0.880391 -0.327219
v -0.110072 0.880391 -0.327219
v -0.027457 1.078663 -0.329931
v 0.028418 1.075771 -0.467819
v -0.110072 0.880391 -0.327219
v 0.028418 1.075771 -0.467819
v -0.031053 0.876302 -0.522222
v -0.031053 0.876302 -0.522222
v 0.028418 1.075771 -0.467819
v 0.163312 1.072562 -0.524906
v -0.031053 0.876302 -0.522222
v 0.163312 1.072562 -0.524906
v 0.159717 0.871763 -0.602956
v 0.159717 0.871763 -0.602956
v 0.163312 1.072562 -0.524906
v 0.298206 1.070915 -0.467753
v 0.159717 0.871763 -0.602956
v 0.298206 1.070915 -0.467753
v 0.350486 0.869434 -0.522128
v 0.350486 0.869434 -0.522128
v 0.298206 1.070915 -0.467753
v 0.354081 1.071795 -0.329837
v 0.350486 0.869434 -0.522128
v 0.354081 1.071795 -0.329837
v 0.429505 0.870679 -0.327086
v 0.354081 1.071795 -0.329837
v 0.164801 1.157945 -0.331016
v 0.164801 1.157945 -0.331016
v 0.354081 1.071795 -0.329837
v 0.164801 1.157945 -0.331016
v 0.298206 1.074687 -0.191950
v 0.298206 1.074687 -0.191950
v 0.164801 1.157945 -0.331016
v 0.164801 1.157945 -0.331016
v 0.298206 1.074687 -0.191950
v 0.164801 1.157945 -0.331016
v 0.163312 1.077897 -0.134862
v 0.163312 1.077897 -0.134862
v 0.164801 1.157945 -0.331016
v 0.164801 1.157945 -0.331016
v 0.163312 1.077897 -0.134862
v 0.164801 1.157945 -0.331016
v 0.028418 1.079544 -0.192016
v 0.028418 1.079544 -0.192016
v 0.164801 1.157945 -0.331016
v 0.164801 1.157945 -0.331016
v 0.028418 1.079544 -0.192016
v 0.164801 1.157945 -0.331016
v -0.027457 1.078663 -0.329931
v -0.027457 1.078663 -0.329931
v 0.164801 1.157945 -0.331016
v 0.164801 1.157945 -0.331016
v -0.027457 1.078663 -0.329931
v 0.164801 1.157945 -0.331016
v 0.028418 1.075771 -0.467819
v 0.028418 1.075771 -0.467819
v 0.164801 1.157945 -0.331016
v 0.164801 1.157945 -0.331016
v 0.028418 1.075771 -0.467819
v 0.164801 1.157945 -0.331016
v 0.163312 1.072562 -0.524906
v 0.163312 1.072562 -0.524906
v 0.164801 1.157945 -0.331016
v 0.164801 1.157945 -0.331016
v 0.163312 1.072562 -0.524906
v 0.164801 1.157945 -0.331016
v 0.298206 1.070915 -0.467753
v 0.298206 1.070915 -0.467753
v 0.164801 1.157945 -0.331016
v 0.164801 1.157945 -0.331016
v 0.298206 1.070915 -0.467753
v 0.164801 1.157945 -0.331016
v 0.354081 1.071795 -0.329837
v 0.141369 0.643143 0.059171
v 0.353650 0.729617 0.057989
v 0.291950 0.732925 0.218630
v 0.141369 0.643143 0.059171
v 0.291950 0.732925 0.218630
v 0.141369 0.643143 0.059171
v 0.141369 0.643143 0.059171
v 0.291950 0.732925 0.218630
v 0.142994 0.736517 0.285140
v 0.141369 0.643143 0.059171
v 0.142994 0.736517 0.285140
v 0.141369 0.643143 0.059171
v 0.141369 0.643143 0.059171
v 0.142994 0.736517 0.285140
v -0.005961 0.738288 0.218557
v 0.141369 0.643143 0.059171
v -0.005961 0.738288 0.218557
v 0.141369 0.643143 0.059171
v 0.141369 0.643143 0.059171
v -0.005961 0.738288 0.218557
v -0.067661 0.737201 0.057885
v 0.141369 0.643143 0.059171
v -0.067661 0.737201 0.057885
v 0.141369 0.643143 0.059171
v 0.141369 0.643143 0.059171
v -0.067661 0.737201 0.057885
v -0.005961 0.733893 -0.102757
v 0.141369 0.643143 0.059171
v -0.005961 0.733893 -0.102757
v 0.141369 0.643143 0.059171
v 0.141369 0.643143 0.059171
v -0.005961 0.733893 -0.102757
v 0.142994 0.730301 -0.169266
v 0.141369 0.643143 0.059171
v 0.142994 0.730301 -0.169266
v 0.141369 0.643143 0.059171
v 0.141369 0.643143 0.059171
v 0.142994 0.730301 -0.169266
v 0.291950 0.728530 -0.102683
v 0.141369 0.643143 0.059171
v 0.291950 0.728530 -0.102683
v 0.141369 0.643143 0.059171
v 0.141369 0.643143 0.059171
v 0.291950 0.728530 -0.102683
v 0.353650 0.729617 0.057989
v 0.141369 0.643143 0.059171
v 0.353650 0.729617 0.057989
v 0.141369 0.643143 0.059171
v 0.353650 0.729617 0.057989
v 0.444829 0.945968 0.055029
v 0.357573 0.950646 0.282211
v 0.353650 0.729617 0.057989
v 0.357573 0.950646 0.282211
v 0.291950 0.732925 0.218630
v 0.291950 0.732925 0.218630
v 0.357573 0.950646 0.282211
v 0.146918 0.955725 0.376270
v 0.291950 0.732925 0.218630
v 0.146918 0.955725 0.376270
v 0.142994 0.736517 0.285140
v 0.142994 0.736517 0.285140
v 0.146918 0.955725 0.376270
v -0.063738 0.958230 0.282107
v 0.142994 0.736517 0.285140
v -0.063738 0.958230 0.282107
v -0.005961 0.738288 0.218557
v -0.005961 0.738288 0.218557
v -0.063738 0.958230 0.282107
v -0.150994 0.956693 0.054883
v -0.005961 0.738288 0.218557
v -0.150994 0.956693 0.054883
v -0.067661 0.737201 0.057885
v -0.067661 0.737201 0.057885
v -0.150994 0.956693 0.054883
v -0.063738 0.952014 -0.172299
v -0.067661 0.737201 0.057885
v -0.063738 0.952014 -0.172299
v -0.005961 0.733893 -0.102757
v -0.005961 0.733893 -0.102757
v -0.063738 0.952014 -0.172299
v 0.146918 0.946935 -0.266358
v -0.005961 0.733893 -0.102757
v 0.146918 0.946935 -0.266358
v 0.142994 0.730301 -0.169266
v 0.142994 0.730301 -0.169266
v 0.146918 0.946935 -0.266358
v 0.357573 0.944431 -0.172195
v 0.142994 0.730301 -0.169266
v 0.357573 0.944431 -0.172195
v 0.291950 0.728530 -0.102683
v 0.291950 0.728530 -0.102683
v 0.357573 0.944431 -0.172195
v 0.444829 0.945968 0.055029
v 0.291950 0.728530 -0.102683
v 0.444829 0.945968 0.055029
v 0.353650 0.729617 0.057989
v 0.444829 0.945968 0.055029
v 0.361496 1.165460 0.052027
v 0.299797 1.168768 0.212669
v 0.444829 0.945968 0.055029
v 0.299797 1.168768 0.212669
v 0.357573 0.950646 0.282211
v 0.357573 0.950646 0.282211
v 0.299797 1.168768 0.212669
v 0.150841 1.172359 0.279178
v 0.357573 0.950646 0.282211
v 0.150841 1.172359 0.279178
v 0.146918 0.955725 0.376270
v 0.146918 0.955725 0.376270
v 0.150841 1.172359 0.279178
v 0.001885 1.174130 0.212596
v 0.146918 0.955725 0.376270
v 0.001885 1.174130 0.212596
v -0.063738 0.958230 0.282107
v -0.063738 0.958230 0.282107
v 0.001885 1.174130 0.212596
v -0.059814 1.173043 0.051923
v -0.063738 0.958230 0.282107
v -0.059814 1.173043 0.051923
v -0.150994 0.956693 0.054883
v -0.150994 0.956693 0.054883
v -0.059814 1.173043 0.051923
v 0.001885 1.169735 -0.108718
v -0.150994 0.956693 0.054883
v 0.001885 1.169735 -0.108718
v -0.063738 0.952014 -0.172299
v -0.063738 0.952014 -0.172299
v 0.001885 1.169735 -0.108718
v 0.150841 1.166144 -0.175228
v -0.063738 0.952014 -0.172299
v 0.150841 1.166144 -0.175228
v 0.146918 0.946935 -0.266358
v 0.146918 0.946935 -0.266358
v 0.150841 1.166144 -0.175228
v 0.299797 1.164373 -0.108645
v 0.146918 0.946935 -0.266358
v 0.299797 1.164373 -0.108645
v 0.357573 0.944431 -0.172195
v 0.357573 0.944431 -0.172195
v 0.299797 1.164373 -0.108645
v 0.361496 1.165460 0.052027
v 0.357573 0.944431 -0.172195
v 0.361496 1.165460 0.052027
v 0.444829 0.945968 0.055029
v 0.361496 1.165460 0.052027
v 0.152466 1.259517 0.050741
v 0.152466 1.259517 0.050741
v 0.361496 1.165460 0.052027
v 0.152466 1.259517 0.050741
v 0.299797 1.168768 0.212669
v 0.299797 1.168768 0.212669
v 0.152466 1.259517 0.050741
v 0.152466 1.259517 0.050741
v 0.299797 1.168768 0.212669
v 0.152466 1.259517 0.050741
v 0.150841 1.172359 0.279178
v 0.150841 1.172359 0.279178
v 0.152466 1.259517 0.050741
v 0.152466 1.259517 0.050741
v 0.150841 1.172359 0.279178
v 0.152466 1.259517 0.050741
v 0.001885 1.174130 0.212596
v 0.001885 1.174130 0.212596
v 0.152466 1.259517 0.050741
v 0.152466 1.259517 0.050741
v 0.001885 1.174130 0.212596
v 0.152466 1.259517 0.050741
v -0.059814 1.173043 0.051923
v -0.059814 1.173043 0.051923
v 0.152466 1.259517 0.050741
v 0.152466 1.259517 0.050741
v -0.059814 1.173043 0.051923
v 0.152466 1.259517 0.050741
v 0.001885 1.169735 -0.108718
v 0.001885 1.169735 -0.108718
v 0.152466 1.259517 0.050741
v 0.152466 1.259517 0.050741
v 0.001885 1.169735 -0.108718
v 0.152466 1.259517 0.050741
v 0.150841 1.166144 -0.175228
v 0.150841 1.166144 -0.175228
v 0.152466 1.259517 0.050741
v 0.152466 1.259517 0.050741
v 0.150841 1.166144 -0.175228
v 0.152466 1.259517 0.050741
v 0.299797 1.164373 -0.108645
v 0.299797 1.164373 -0.108645
v 0.152466 1.259517 0.050741
v 0.152466 1.259517 0.050741
v 0.299797 1.164373 -0.108645
v 0.152466 1.259517 0.050741
v 0.361496 1.165460 0.052027
f 841 842 843
f 844 845 846
f 847 848 849
f 850 851 852
f 853 854 855
f 856 857 858
f 859 860 861
f 862 863 864
f 865 866 867
f 868 869 870
f 871 872 873
f 874 875 876
f 877 878 879
f 880 881 882
f 883 884 885
f 886 887 888
f 889 890 891
f 892 893 894
f 895 896 897
f 898 899 900
f 901 902 903
f 904 905 906
f 907 908 909
f 910 911 912
f 913 914 915
f 916 917 918
f 919 920 921
f 922 923 924
f 925 926 927
f 928 929 930
f 931 932 933
f 934 935 936
f 937 938 939
f 940 941 942
f 943 944 945
f 946 947 948
f 949 950 951
f 952 953 954
f 955 956 957
f 958 959 960
f 961 962 963
f 964 965 966
f 967 968 969
f 970 971 972
f 973 974 975
f 976 977 978
f 979 980 981
f 982 983 984
f 985 986 987
f 988 989 990
f 991 992 993
f 994 995 996
f 997 998 999
f 1000 1001 1002
f 1003 1004 1005
f 1006 1007 1008
f 1009 1010 1011
f 1012 1013 1014
f 1015 1016 1017
f 1018 1019 1020
f 1021 1022 1023
f 1024 1025 1026
f 1027 1028 1029
f 1030 1031 1032
f 1033 1034 1035
f 1036 1037 1038
f 1039 1040 1041
f 1042 1043 1044
f 1045 1046 1047
f 1048 1049 1050
f 1051 1052 1053
f 1054 1055 1056
f 1057 1058 1059
f 1060 1061 1062
f 1063 1064 1065
f 1066 1067 1068
f 1069 1070 1071
f 1072 1073 1074
f 1075 1076 1077
f 1078 1079 1080
f 1081 1082 1083
f 1084 1085 1086
f 1087 1088 1089
f 1090 1091 1092
f 1093 1094 1095
f 1096 1097 1098
f 1099 1100 1101
f 1102 1103 1104
f 1105 1106 1107
f 1108 1109 1110
f 1111 1112 1113
f 1114 1115 1116
f 1117 1118 1119
f 1120 1121 1122
f 1123 1124 1125
f 1126 1127 1128
f 1129 1130 1131
f 1132 1133 1134
f 1135 1136 1137
f 1138 1139 1140
f 1141 1142 1143
f 1144 1145 1146
f 1147 1148 1149
f 1150 1151 1152
f 1153 1154 1155
f 1156 1157 1158
f 1159 1160 1161
f 1162 1163 1164
f 1165 1166 1167
f 1168 1169 1170
f 1171 1172 1173
f 1174 1175 1176
f 1177 1178 1179
f 1180 1181 1182
f 1183 1184 1185
f 1186 1187 1188
f 1189 1190 1191
f 1192 1193 1194
f 1195 1196 1197
f 1198 1199 1200
f 1201 1202 1203
f 1204 1205 1206
f 1207 1208 1209
f 1210 1211 1212
f 1213 1214 1215
f 1216 1217 1218
f 1219 1220 1221
f 1222 1223 1224
f 1225 1226 1227
f 1228 1229 1230
f 1231 1232 1233
f 1234 1235 1236
f 1237 1238 1239
f 1240 1241 1242
f 1243 1244 1245
f 1246 1247 1248
f 1249 1250 1251
f 1252 1253 1254
f 1255 1256 1257
f 1258 1259 1260
f 1261 1262 1263
f 1264 1265 1266
f 1267 1268 1269
f 1270 1271 1272
f 1273 1274 1275
f 1276 1277 1278
f 1279 1280 1281
f 1282 1283 1284
f 1285 1286 1287
f 1288 1289 1290
f 1291 1292 1293
f 1294 1295 1296
f 1297 1298 1299
f 1300 1301 1302
f 1303 1304 1305
f 1306 1307 1308
f 1309 1310 1311
f 1312 1313 1314
f 1315 1316 1317
f 1318 1319 1320
f 1321 1322 1323
f 1324 1325 1326
f 1327 1328 1329
f 1330 1331 1332
f 1333 1334 1335
f 1336 1337 1338
f 1339 1340 1341
f 1342 1343 1344
f 1345 1346 1347
f 1348 1349 1350
f 1351 1352 1353
f 1354 1355 1356
f 1357 1358 1359
f 1360 1361 1362
f 1363 1364 1365
f 1366 1367 1368
f 1369 1370 1371
f 1372 1373 1374
f 1375 1376 1377
f 1378 1379 1380
f 1381 1382 1383
f 1384 1385 1386
f 1387 1388 1389
f 1390 1391 1392
f 1393 1394 1395
f 1396 1397 1398
f 1399 1400 1401
f 1402 1403 1404
f 1405 1406 1407
f 1408 1409 1410
f 1411 1412 1413
f 1414 1415 1416
f 1417 1418 1419
f 1420 1421 1422
f 1423 1424 1425
f 1426 1427 1428
f 1429 1430 1431
f 1432 1433 1434
f 1435 1436 1437
f 1438 1439 1440
f 1441 1442 1443
f 1444 1445 1446
f 1447 1448 1449
f 1450 1451 1452
f 1453 1454 1455
f 1456 1457 1458
f 1459 1460 1461
f 1462 1463 1464
f 1465 1466 1467
f 1468 1469 1470
f 1471 1472 1473
f 1474 1475 1476
f 1477 1478 1479
f 1480 1481 1482
f 1483 1484 1485
f 1486 1487 1488
f 1489 1490 1491
f 1492 1493 1494
f 1495 1496 1497
f 1498 1499 1500
f 1501 1502 1503
f 1504 1505 1506
f 1507 1508 1509
f 1510 1511 1512
f 1513 1514 1515
f 1516 1517 1518
f 1519 1520 1521
f 1522 1523 1524
f 1525 1526 1527
f 1528 1529 1530
f 1531 1532 1533
f 1534 1535 1536
f 1537 1538 1539
f 1540 1541 1542
f 1543 1544 1545
f 1546 1547 1548
f 1549 1550 1551
f 1552 1553 1554
f 1555 1556 1557
f 1558 1559 1560
f 1561 1562 1563
f 1564 1565 1566
f 1567 1568 1569
f 1570 1571 1572
f 1573 1574 1575
f 1576 1577 1578
f 1579 1580 1581
f 1582 1583 1584
f 1585 1586 1587
f 1588 1589 1590
f 1591 1592 1593
f 1594 1595 1596
f 1597 1598 1599
f 1600 1601 1602
f 1603 1604 1605
f 1606 1607 1608
f 1609 1610 1611
f 1612 1613 1614
f 1615 1616 1617
f 1618 1619 1620
f 1621 1622 1623
f 1624 1625 1626
f 1627 1628 1629
f 1630 1631 1632
f 1633 1634 1635
f 1636 1637 1638
f 1639 1640 1641
f 1642 1643 1644
f 1645 1646 1647
f 1648 1649 1650
f 1651 1652 1653
f 1654 1655 1656
f 1657 1658 1659
f 1660 1661 1662
f 1663 1664 1665
f 1666 1667 1668
f 1669 1670 1671
f 1672 1673 1674
f 1675 1676 1677
f 1678 1679 1680
f 1681 1682 1683
f 1684 1685 1686
f 1687 1688 1689
f 1690 1691 1692
f 1693 1694 1695
f 1696 1697 1698
f 1699 1700 1701
f 1702 1703 1704
f 1705 1706 1707
f 1708 1709 1710
f 1711 1712 1713
f 1714 1715 1716
f 1717 1718 1719
f 1720 1721 1722
f 1723 1724 1725
f 1726 1727 1728
f 1729 1730 1731
f 1732 1733 1734
f 1735 1736 1737
f 1738 1739 1740
f 1741 1742 1743
f 1744 1745 1746
f 1747 1748 1749
f 1750 1751 1752
f 1753 1754 1755
f 1756 1757 1758
f 1759 1760 1761
f 1762 1763 1764
f 1765 1766 1767
f 1768 1769 1770
f 1771 1772 1773
f 1774 1775 1776
f 1777 1778 1779
f 1780 1781 1782
f 1783 1784 1785
f 1786 1787 1788
f 1789 1790 1791
f 1792 1793 1794
f 1795 1796 1797
f 1798 1799 1800
