# Pyramida editable prop source
# units: 1 OBJ unit = 1 Pyramida World Unit = 1 Blender metre

o TreeTrunk
v 0.061556 0.074391 0.096705
v 0.238128 0.020872 -0.016977
v 0.240448 0.044247 -0.041478
v 0.061556 0.074391 0.096705
v 0.240448 0.044247 -0.041478
v 0.071707 0.176653 -0.010484
v 0.043495 0.075584 -0.006723
v 0.061556 0.074391 0.096705
v 0.071707 0.176653 -0.010484
v 0.234000 0.021145 -0.040618
v 0.240448 0.044247 -0.041478
v 0.238128 0.020872 -0.016977
v 0.071707 0.176653 -0.010484
v 0.240448 0.044247 -0.041478
v 0.229872 0.021418 -0.064259
v 0.071707 0.176653 -0.010484
v 0.229872 0.021418 -0.064259
v 0.025434 0.076778 -0.110151
v 0.043495 0.075584 -0.006723
v 0.071707 0.176653 -0.010484
v 0.025434 0.076778 -0.110151
v 0.234000 0.021145 -0.040618
v 0.229872 0.021418 -0.064259
v 0.240448 0.044247 -0.041478
v 0.025434 0.076778 -0.110151
v 0.229872 0.021418 -0.064259
v 0.227551 -0.001956 -0.039758
v 0.025434 0.076778 -0.110151
v 0.227551 -0.001956 -0.039758
v 0.015282 -0.025484 -0.002963
v 0.043495 0.075584 -0.006723
v 0.025434 0.076778 -0.110151
v 0.015282 -0.025484 -0.002963
v 0.234000 0.021145 -0.040618
v 0.227551 -0.001956 -0.039758
v 0.229872 0.021418 -0.064259
v 0.015282 -0.025484 -0.002963
v 0.227551 -0.001956 -0.039758
v 0.238128 0.020872 -0.016977
v 0.015282 -0.025484 -0.002963
v 0.238128 0.020872 -0.016977
v 0.061556 0.074391 0.096705
v 0.043495 0.075584 -0.006723
v 0.015282 -0.025484 -0.002963
v 0.061556 0.074391 0.096705
v 0.234000 0.021145 -0.040618
v 0.238128 0.020872 -0.016977
v 0.227551 -0.001956 -0.039758
v -0.114972 0.073784 -0.003527
v -0.137195 0.013355 0.232049
v -0.118339 0.036606 0.248044
v -0.114972 0.073784 -0.003527
v -0.118339 0.036606 0.248044
v -0.032477 0.175507 0.066451
v -0.020180 0.074227 0.041631
v -0.114972 0.073784 -0.003527
v -0.032477 0.175507 0.066451
v -0.115528 0.013456 0.242371
v -0.118339 0.036606 0.248044
v -0.137195 0.013355 0.232049
v -0.032477 0.175507 0.066451
v -0.118339 0.036606 0.248044
v -0.093861 0.013557 0.252693
v -0.032477 0.175507 0.066451
v -0.093861 0.013557 0.252693
v 0.074612 0.074669 0.086790
v -0.020180 0.074227 0.041631
v -0.032477 0.175507 0.066451
v 0.074612 0.074669 0.086790
v -0.115528 0.013456 0.242371
v -0.093861 0.013557 0.252693
v -0.118339 0.036606 0.248044
v 0.074612 0.074669 0.086790
v -0.093861 0.013557 0.252693
v -0.112717 -0.009694 0.236698
v 0.074612 0.074669 0.086790
v -0.112717 -0.009694 0.236698
v -0.007882 -0.027054 0.016811
v -0.020180 0.074227 0.041631
v 0.074612 0.074669 0.086790
v -0.007882 -0.027054 0.016811
v -0.115528 0.013456 0.242371
v -0.112717 -0.009694 0.236698
v -0.093861 0.013557 0.252693
v -0.007882 -0.027054 0.016811
v -0.112717 -0.009694 0.236698
v -0.137195 0.013355 0.232049
v -0.007882 -0.027054 0.016811
v -0.137195 0.013355 0.232049
v -0.114972 0.073784 -0.003527
v -0.020180 0.074227 0.041631
v -0.007882 -0.027054 0.016811
v -0.114972 0.073784 -0.003527
v -0.115528 0.013456 0.242371
v -0.137195 0.013355 0.232049
v -0.112717 -0.009694 0.236698
v 0.068928 0.076981 -0.089430
v -0.124782 0.020288 -0.272288
v -0.148562 0.043344 -0.264876
v 0.068928 0.076981 -0.089430
v -0.148562 0.043344 -0.264876
v -0.035108 0.177852 -0.057005
v -0.022757 0.075275 -0.038286
v 0.068928 0.076981 -0.089430
v -0.035108 0.177852 -0.057005
v -0.145739 0.019898 -0.260598
v -0.148562 0.043344 -0.264876
v -0.124782 0.020288 -0.272288
v -0.035108 0.177852 -0.057005
v -0.148562 0.043344 -0.264876
v -0.166695 0.019508 -0.248908
v -0.035108 0.177852 -0.057005
v -0.166695 0.019508 -0.248908
v -0.114443 0.073569 0.012859
v -0.022757 0.075275 -0.038286
v -0.035108 0.177852 -0.057005
v -0.114443 0.073569 0.012859
v -0.145739 0.019898 -0.260598
v -0.166695 0.019508 -0.248908
v -0.148562 0.043344 -0.264876
v -0.114443 0.073569 0.012859
v -0.166695 0.019508 -0.248908
v -0.142916 -0.003548 -0.256319
v -0.114443 0.073569 0.012859
v -0.142916 -0.003548 -0.256319
v -0.010407 -0.027302 -0.019566
v -0.022757 0.075275 -0.038286
v -0.114443 0.073569 0.012859
v -0.010407 -0.027302 -0.019566
v -0.145739 0.019898 -0.260598
v -0.142916 -0.003548 -0.256319
v -0.166695 0.019508 -0.248908
v -0.010407 -0.027302 -0.019566
v -0.142916 -0.003548 -0.256319
v -0.124782 0.020288 -0.272288
v -0.010407 -0.027302 -0.019566
v -0.124782 0.020288 -0.272288
v 0.068928 0.076981 -0.089430
v -0.022757 0.075275 -0.038286
v -0.010407 -0.027302 -0.019566
v 0.068928 0.076981 -0.089430
v -0.145739 0.019898 -0.260598
v -0.124782 0.020288 -0.272288
v -0.142916 -0.003548 -0.256319
v -0.000093 0.010531 -0.159653
v 0.014443 1.008091 -0.065468
v 0.128496 1.002113 0.000047
v -0.000093 0.010531 -0.159653
v 0.128496 1.002113 0.000047
v 0.138503 0.003266 -0.080039
v 0.000000 0.000000 0.000000
v -0.000093 0.010531 -0.159653
v 0.138503 0.003266 -0.080039
v 0.138503 0.003266 -0.080039
v 0.128496 1.002113 0.000047
v 0.128573 0.993447 0.131429
v 0.138503 0.003266 -0.080039
v 0.128573 0.993447 0.131429
v 0.138596 -0.007264 0.079614
v 0.000000 0.000000 0.000000
v 0.138503 0.003266 -0.080039
v 0.138596 -0.007264 0.079614
v 0.138596 -0.007264 0.079614
v 0.128573 0.993447 0.131429
v 0.014596 0.990759 0.197294
v 0.138596 -0.007264 0.079614
v 0.014596 0.990759 0.197294
v 0.000093 -0.010531 0.159653
v 0.000000 0.000000 0.000000
v 0.138596 -0.007264 0.079614
v 0.000093 -0.010531 0.159653
v 0.000093 -0.010531 0.159653
v 0.014596 0.990759 0.197294
v -0.099457 0.996737 0.131778
v 0.000093 -0.010531 0.159653
v -0.099457 0.996737 0.131778
v -0.138503 -0.003266 0.080039
v 0.000000 0.000000 0.000000
v 0.000093 -0.010531 0.159653
v -0.138503 -0.003266 0.080039
v -0.138503 -0.003266 0.080039
v -0.099457 0.996737 0.131778
v -0.099533 1.005403 0.000397
v -0.138503 -0.003266 0.080039
v -0.099533 1.005403 0.000397
v -0.138596 0.007264 -0.079614
v 0.000000 0.000000 0.000000
v -0.138503 -0.003266 0.080039
v -0.138596 0.007264 -0.079614
v -0.138596 0.007264 -0.079614
v -0.099533 1.005403 0.000397
v 0.014443 1.008091 -0.065468
v -0.138596 0.007264 -0.079614
v 0.014443 1.008091 -0.065468
v -0.000093 0.010531 -0.159653
v 0.000000 0.000000 0.000000
v -0.138596 0.007264 -0.079614
v -0.000093 0.010531 -0.159653
v 0.014588 0.995004 -0.065679
v 0.059564 1.997059 -0.070977
v 0.148936 1.994783 -0.019158
v 0.014588 0.995004 -0.065679
v 0.148936 1.994783 -0.019158
v 0.128466 0.992103 0.000348
v 0.128466 0.992103 0.000348
v 0.148936 1.994783 -0.019158
v 0.148882 1.998253 0.084117
v 0.128466 0.992103 0.000348
v 0.148882 1.998253 0.084117
v 0.128397 0.996525 0.131940
v 0.128397 0.996525 0.131940
v 0.148882 1.998253 0.084117
v 0.059456 2.003999 0.135573
v 0.128397 0.996525 0.131940
v 0.059456 2.003999 0.135573
v 0.014451 1.003847 0.197505
v 0.014451 1.003847 0.197505
v 0.059456 2.003999 0.135573
v -0.029917 2.006276 0.083754
v 0.014451 1.003847 0.197505
v -0.029917 2.006276 0.083754
v -0.099426 1.006747 0.131478
v -0.099426 1.006747 0.131478
v -0.029917 2.006276 0.083754
v -0.029863 2.002806 -0.019521
v -0.099426 1.006747 0.131478
v -0.029863 2.002806 -0.019521
v -0.099358 1.002326 -0.000114
v -0.099358 1.002326 -0.000114
v -0.029863 2.002806 -0.019521
v 0.059564 1.997059 -0.070977
v -0.099358 1.002326 -0.000114
v 0.059564 1.997059 -0.070977
v 0.014588 0.995004 -0.065679
v 0.059529 2.000204 -0.071034
v 0.004978 2.999883 -0.045861
v 0.069827 3.003540 -0.008361
v 0.059529 2.000204 -0.071034
v 0.069827 3.003540 -0.008361
v 0.148875 2.005243 -0.019367
v 0.004965 3.000119 0.029138
v 0.069827 3.003540 -0.008361
v 0.004978 2.999883 -0.045861
v 0.148875 2.005243 -0.019367
v 0.069827 3.003540 -0.008361
v 0.069813 3.003777 0.066639
v 0.148875 2.005243 -0.019367
v 0.069813 3.003777 0.066639
v 0.148856 2.005568 0.083966
v 0.004965 3.000119 0.029138
v 0.069813 3.003777 0.066639
v 0.069827 3.003540 -0.008361
v 0.148856 2.005568 0.083966
v 0.069813 3.003777 0.066639
v 0.004951 3.000356 0.104138
v 0.148856 2.005568 0.083966
v 0.004951 3.000356 0.104138
v 0.059491 2.000855 0.135631
v 0.004965 3.000119 0.029138
v 0.004951 3.000356 0.104138
v 0.069813 3.003777 0.066639
v 0.059491 2.000855 0.135631
v 0.004951 3.000356 0.104138
v -0.059898 2.996698 0.066637
v 0.059491 2.000855 0.135631
v -0.059898 2.996698 0.066637
v -0.029856 1.995816 0.083964
v 0.004965 3.000119 0.029138
v -0.059898 2.996698 0.066637
v 0.004951 3.000356 0.104138
v -0.029856 1.995816 0.083964
v -0.059898 2.996698 0.066637
v -0.059884 2.996462 -0.008362
v -0.029856 1.995816 0.083964
v -0.059884 2.996462 -0.008362
v -0.029837 1.995491 -0.019369
v 0.004965 3.000119 0.029138
v -0.059884 2.996462 -0.008362
v -0.059898 2.996698 0.066637
v -0.029837 1.995491 -0.019369
v -0.059884 2.996462 -0.008362
v 0.004978 2.999883 -0.045861
v -0.029837 1.995491 -0.019369
v 0.004978 2.999883 -0.045861
v 0.059529 2.000204 -0.071034
v 0.004965 3.000119 0.029138
v 0.004978 2.999883 -0.045861
v -0.059884 2.996462 -0.008362
f 1 2 3
f 4 5 6
f 7 8 9
f 10 11 12
f 13 14 15
f 16 17 18
f 19 20 21
f 22 23 24
f 25 26 27
f 28 29 30
f 31 32 33
f 34 35 36
f 37 38 39
f 40 41 42
f 43 44 45
f 46 47 48
f 49 50 51
f 52 53 54
f 55 56 57
f 58 59 60
f 61 62 63
f 64 65 66
f 67 68 69
f 70 71 72
f 73 74 75
f 76 77 78
f 79 80 81
f 82 83 84
f 85 86 87
f 88 89 90
f 91 92 93
f 94 95 96
f 97 98 99
f 100 101 102
f 103 104 105
f 106 107 108
f 109 110 111
f 112 113 114
f 115 116 117
f 118 119 120
f 121 122 123
f 124 125 126
f 127 128 129
f 130 131 132
f 133 134 135
f 136 137 138
f 139 140 141
f 142 143 144
f 145 146 147
f 148 149 150
f 151 152 153
f 154 155 156
f 157 158 159
f 160 161 162
f 163 164 165
f 166 167 168
f 169 170 171
f 172 173 174
f 175 176 177
f 178 179 180
f 181 182 183
f 184 185 186
f 187 188 189
f 190 191 192
f 193 194 195
f 196 197 198
f 199 200 201
f 202 203 204
f 205 206 207
f 208 209 210
f 211 212 213
f 214 215 216
f 217 218 219
f 220 221 222
f 223 224 225
f 226 227 228
f 229 230 231
f 232 233 234
f 235 236 237
f 238 239 240
f 241 242 243
f 244 245 246
f 247 248 249
f 250 251 252
f 253 254 255
f 256 257 258
f 259 260 261
f 262 263 264
f 265 266 267
f 268 269 270
f 271 272 273
f 274 275 276
f 277 278 279
f 280 281 282
f 283 284 285
f 286 287 288
