# Pyramida editable prop source
# units: 1 OBJ unit = 1 Pyramida World Unit = 1 Blender metre

o TreeTrunk
v 0.061557 0.074390 0.096705
v 0.238128 0.020870 -0.016977
v 0.240449 0.044244 -0.041477
v 0.061557 0.074390 0.096705
v 0.240449 0.044244 -0.041477
v 0.071710 0.176652 -0.010483
v 0.043496 0.075584 -0.006723
v 0.061557 0.074390 0.096705
v 0.071710 0.176652 -0.010483
v 0.234000 0.021142 -0.040618
v 0.240449 0.044244 -0.041477
v 0.238128 0.020870 -0.016977
v 0.071710 0.176652 -0.010483
v 0.240449 0.044244 -0.041477
v 0.229872 0.021415 -0.064259
v 0.071710 0.176652 -0.010483
v 0.229872 0.021415 -0.064259
v 0.025435 0.076778 -0.110151
v 0.043496 0.075584 -0.006723
v 0.071710 0.176652 -0.010483
v 0.025435 0.076778 -0.110151
v 0.234000 0.021142 -0.040618
v 0.229872 0.021415 -0.064259
v 0.240449 0.044244 -0.041477
v 0.025435 0.076778 -0.110151
v 0.229872 0.021415 -0.064259
v 0.227551 -0.001959 -0.039758
v 0.025435 0.076778 -0.110151
v 0.227551 -0.001959 -0.039758
v 0.015282 -0.025485 -0.002963
v 0.043496 0.075584 -0.006723
v 0.025435 0.076778 -0.110151
v 0.015282 -0.025485 -0.002963
v 0.234000 0.021142 -0.040618
v 0.227551 -0.001959 -0.039758
v 0.229872 0.021415 -0.064259
v 0.015282 -0.025485 -0.002963
v 0.227551 -0.001959 -0.039758
v 0.238128 0.020870 -0.016977
v 0.015282 -0.025485 -0.002963
v 0.238128 0.020870 -0.016977
v 0.061557 0.074390 0.096705
v 0.043496 0.075584 -0.006723
v 0.015282 -0.025485 -0.002963
v 0.061557 0.074390 0.096705
v 0.234000 0.021142 -0.040618
v 0.238128 0.020870 -0.016977
v 0.227551 -0.001959 -0.039758
v -0.114971 0.073785 -0.003527
v -0.137195 0.013355 0.232049
v -0.118338 0.036606 0.248044
v -0.114971 0.073785 -0.003527
v -0.118338 0.036606 0.248044
v -0.032475 0.175507 0.066452
v -0.020179 0.074227 0.041632
v -0.114971 0.073785 -0.003527
v -0.032475 0.175507 0.066452
v -0.115528 0.013456 0.242371
v -0.118338 0.036606 0.248044
v -0.137195 0.013355 0.232049
v -0.032475 0.175507 0.066452
v -0.118338 0.036606 0.248044
v -0.093861 0.013557 0.252693
v -0.032475 0.175507 0.066452
v -0.093861 0.013557 0.252693
v 0.074613 0.074668 0.086790
v -0.020179 0.074227 0.041632
v -0.032475 0.175507 0.066452
v 0.074613 0.074668 0.086790
v -0.115528 0.013456 0.242371
v -0.093861 0.013557 0.252693
v -0.118338 0.036606 0.248044
v 0.074613 0.074668 0.086790
v -0.093861 0.013557 0.252693
v -0.112717 -0.009694 0.236697
v 0.074613 0.074668 0.086790
v -0.112717 -0.009694 0.236697
v -0.007883 -0.027054 0.016811
v -0.020179 0.074227 0.041632
v 0.074613 0.074668 0.086790
v -0.007883 -0.027054 0.016811
v -0.115528 0.013456 0.242371
v -0.112717 -0.009694 0.236697
v -0.093861 0.013557 0.252693
v -0.007883 -0.027054 0.016811
v -0.112717 -0.009694 0.236697
v -0.137195 0.013355 0.232049
v -0.007883 -0.027054 0.016811
v -0.137195 0.013355 0.232049
v -0.114971 0.073785 -0.003527
v -0.020179 0.074227 0.041632
v -0.007883 -0.027054 0.016811
v -0.114971 0.073785 -0.003527
v -0.115528 0.013456 0.242371
v -0.137195 0.013355 0.232049
v -0.112717 -0.009694 0.236697
v 0.068929 0.076980 -0.089430
v -0.124782 0.020290 -0.272288
v -0.148561 0.043347 -0.264876
v 0.068929 0.076980 -0.089430
v -0.148561 0.043347 -0.264876
v -0.035106 0.177853 -0.057004
v -0.022756 0.075275 -0.038285
v 0.068929 0.076980 -0.089430
v -0.035106 0.177853 -0.057004
v -0.145738 0.019901 -0.260598
v -0.148561 0.043347 -0.264876
v -0.124782 0.020290 -0.272288
v -0.035106 0.177853 -0.057004
v -0.148561 0.043347 -0.264876
v -0.166695 0.019511 -0.248907
v -0.035106 0.177853 -0.057004
v -0.166695 0.019511 -0.248907
v -0.114442 0.073570 0.012859
v -0.022756 0.075275 -0.038285
v -0.035106 0.177853 -0.057004
v -0.114442 0.073570 0.012859
v -0.145738 0.019901 -0.260598
v -0.166695 0.019511 -0.248907
v -0.148561 0.043347 -0.264876
v -0.114442 0.073570 0.012859
v -0.166695 0.019511 -0.248907
v -0.142916 -0.003546 -0.256319
v -0.114442 0.073570 0.012859
v -0.142916 -0.003546 -0.256319
v -0.010407 -0.027302 -0.019567
v -0.022756 0.075275 -0.038285
v -0.114442 0.073570 0.012859
v -0.010407 -0.027302 -0.019567
v -0.145738 0.019901 -0.260598
v -0.142916 -0.003546 -0.256319
v -0.166695 0.019511 -0.248907
v -0.010407 -0.027302 -0.019567
v -0.142916 -0.003546 -0.256319
v -0.124782 0.020290 -0.272288
v -0.010407 -0.027302 -0.019567
v -0.124782 0.020290 -0.272288
v 0.068929 0.076980 -0.089430
v -0.022756 0.075275 -0.038285
v -0.010407 -0.027302 -0.019567
v 0.068929 0.076980 -0.089430
v -0.145738 0.019901 -0.260598
v -0.124782 0.020290 -0.272288
v -0.142916 -0.003546 -0.256319
v -0.000093 0.010531 -0.159653
v 0.014456 1.008091 -0.065464
v 0.128508 1.002112 0.000052
v -0.000093 0.010531 -0.159653
v 0.128508 1.002112 0.000052
v 0.138503 0.003265 -0.080039
v 0.000000 0.000000 0.000000
v -0.000093 0.010531 -0.159653
v 0.138503 0.003265 -0.080039
v 0.138503 0.003265 -0.080039
v 0.128508 1.002112 0.000052
v 0.128585 0.993445 0.131433
v 0.138503 0.003265 -0.080039
v 0.128585 0.993445 0.131433
v 0.138596 -0.007266 0.079614
v 0.000000 0.000000 0.000000
v 0.138503 0.003265 -0.080039
v 0.138596 -0.007266 0.079614
v 0.138596 -0.007266 0.079614
v 0.128585 0.993445 0.131433
v 0.014608 0.990758 0.197298
v 0.138596 -0.007266 0.079614
v 0.014608 0.990758 0.197298
v 0.000093 -0.010531 0.159653
v 0.000000 0.000000 0.000000
v 0.138596 -0.007266 0.079614
v 0.000093 -0.010531 0.159653
v 0.000093 -0.010531 0.159653
v 0.014608 0.990758 0.197298
v -0.099445 0.996738 0.131783
v 0.000093 -0.010531 0.159653
v -0.099445 0.996738 0.131783
v -0.138503 -0.003265 0.080039
v 0.000000 0.000000 0.000000
v 0.000093 -0.010531 0.159653
v -0.138503 -0.003265 0.080039
v -0.138503 -0.003265 0.080039
v -0.099445 0.996738 0.131783
v -0.099521 1.005404 0.000402
v -0.138503 -0.003265 0.080039
v -0.099521 1.005404 0.000402
v -0.138596 0.007266 -0.079614
v 0.000000 0.000000 0.000000
v -0.138503 -0.003265 0.080039
v -0.138596 0.007266 -0.079614
v -0.138596 0.007266 -0.079614
v -0.099521 1.005404 0.000402
v 0.014456 1.008091 -0.065464
v -0.138596 0.007266 -0.079614
v 0.014456 1.008091 -0.065464
v -0.000093 0.010531 -0.159653
v 0.000000 0.000000 0.000000
v -0.138596 0.007266 -0.079614
v -0.000093 0.010531 -0.159653
v 0.014601 0.995004 -0.065675
v 0.059588 1.997059 -0.070968
v 0.148960 1.994781 -0.019149
v 0.014601 0.995004 -0.065675
v 0.148960 1.994781 -0.019149
v 0.128478 0.992101 0.000352
v 0.128478 0.992101 0.000352
v 0.148960 1.994781 -0.019149
v 0.148906 1.998251 0.084126
v 0.128478 0.992101 0.000352
v 0.148906 1.998251 0.084126
v 0.128409 0.996522 0.131945
v 0.128409 0.996522 0.131945
v 0.148906 1.998251 0.084126
v 0.059480 2.003998 0.135582
v 0.128409 0.996522 0.131945
v 0.059480 2.003998 0.135582
v 0.014463 1.003846 0.197510
v 0.014463 1.003846 0.197510
v 0.059480 2.003998 0.135582
v -0.029892 2.006276 0.083763
v 0.014463 1.003846 0.197510
v -0.029892 2.006276 0.083763
v -0.099414 1.006748 0.131482
v -0.099414 1.006748 0.131482
v -0.029892 2.006276 0.083763
v -0.029838 2.002806 -0.019512
v -0.099414 1.006748 0.131482
v -0.029838 2.002806 -0.019512
v -0.099346 1.002327 -0.000110
v -0.099346 1.002327 -0.000110
v -0.029838 2.002806 -0.019512
v 0.059588 1.997059 -0.070968
v -0.099346 1.002327 -0.000110
v 0.059588 1.997059 -0.070968
v 0.014601 0.995004 -0.065675
v 0.059553 2.000203 -0.071026
v 0.005015 2.999883 -0.045848
v 0.069864 3.003539 -0.008347
v 0.059553 2.000203 -0.071026
v 0.069864 3.003539 -0.008347
v 0.148900 2.005241 -0.019358
v 0.005001 3.000119 0.029152
v 0.069864 3.003539 -0.008347
v 0.005015 2.999883 -0.045848
v 0.148900 2.005241 -0.019358
v 0.069864 3.003539 -0.008347
v 0.069850 3.003775 0.066652
v 0.148900 2.005241 -0.019358
v 0.069850 3.003775 0.066652
v 0.148881 2.005566 0.083975
v 0.005001 3.000119 0.029152
v 0.069850 3.003775 0.066652
v 0.069864 3.003539 -0.008347
v 0.148881 2.005566 0.083975
v 0.069850 3.003775 0.066652
v 0.004987 3.000355 0.104151
v 0.148881 2.005566 0.083975
v 0.004987 3.000355 0.104151
v 0.059515 2.000854 0.135640
v 0.005001 3.000119 0.029152
v 0.004987 3.000355 0.104151
v 0.069850 3.003775 0.066652
v 0.059515 2.000854 0.135640
v 0.004987 3.000355 0.104151
v -0.059861 2.996699 0.066651
v 0.059515 2.000854 0.135640
v -0.059861 2.996699 0.066651
v -0.029832 1.995816 0.083973
v 0.005001 3.000119 0.029152
v -0.059861 2.996699 0.066651
v 0.004987 3.000355 0.104151
v -0.029832 1.995816 0.083973
v -0.059861 2.996699 0.066651
v -0.059847 2.996463 -0.008349
v -0.029832 1.995816 0.083973
v -0.059847 2.996463 -0.008349
v -0.029813 1.995491 -0.019360
v 0.005001 3.000119 0.029152
v -0.059847 2.996463 -0.008349
v -0.059861 2.996699 0.066651
v -0.029813 1.995491 -0.019360
v -0.059847 2.996463 -0.008349
v 0.005015 2.999883 -0.045848
v -0.029813 1.995491 -0.019360
v 0.005015 2.999883 -0.045848
v 0.059553 2.000203 -0.071026
v 0.005001 3.000119 0.029152
v 0.005015 2.999883 -0.045848
v -0.059847 2.996463 -0.008349
v 0.058677 2.684272 0.025252
v -0.032492 2.801725 -0.481477
v -0.047520 2.816572 -0.475981
v 0.058677 2.684272 0.025252
v -0.047520 2.816572 -0.475981
v 0.022897 2.719623 0.038338
v 0.022258 2.683802 0.030150
v 0.058677 2.684272 0.025252
v 0.022897 2.719623 0.038338
v -0.047788 2.801528 -0.479420
v -0.047520 2.816572 -0.475981
v -0.032492 2.801725 -0.481477
v 0.022897 2.719623 0.038338
v -0.047520 2.816572 -0.475981
v -0.063084 2.801331 -0.477363
v 0.022897 2.719623 0.038338
v -0.063084 2.801331 -0.477363
v -0.014161 2.683333 0.035048
v 0.022258 2.683802 0.030150
v 0.022897 2.719623 0.038338
v -0.014161 2.683333 0.035048
v -0.047788 2.801528 -0.479420
v -0.063084 2.801331 -0.477363
v -0.047520 2.816572 -0.475981
v -0.014161 2.683333 0.035048
v -0.063084 2.801331 -0.477363
v -0.048057 2.786483 -0.482859
v -0.014161 2.683333 0.035048
v -0.048057 2.786483 -0.482859
v 0.021619 2.647982 0.021963
v 0.022258 2.683802 0.030150
v -0.014161 2.683333 0.035048
v 0.021619 2.647982 0.021963
v -0.047788 2.801528 -0.479420
v -0.048057 2.786483 -0.482859
v -0.063084 2.801331 -0.477363
v 0.021619 2.647982 0.021963
v -0.048057 2.786483 -0.482859
v -0.032492 2.801725 -0.481477
v 0.021619 2.647982 0.021963
v -0.032492 2.801725 -0.481477
v 0.058677 2.684272 0.025252
v 0.022258 2.683802 0.030150
v 0.021619 2.647982 0.021963
v 0.058677 2.684272 0.025252
v -0.047788 2.801528 -0.479420
v -0.032492 2.801725 -0.481477
v -0.048057 2.786483 -0.482859
v -0.022200 2.776783 -0.384131
v -0.159291 2.861952 -0.483938
v -0.161934 2.869831 -0.474298
v -0.022200 2.776783 -0.384131
v -0.161934 2.869831 -0.474298
v -0.027164 2.791583 -0.366023
v -0.032890 2.776488 -0.371038
v -0.022200 2.776783 -0.384131
v -0.027164 2.791583 -0.366023
v -0.164982 2.861795 -0.476968
v -0.161934 2.869831 -0.474298
v -0.159291 2.861952 -0.483938
v -0.027164 2.791583 -0.366023
v -0.161934 2.869831 -0.474298
v -0.170674 2.861638 -0.469997
v -0.027164 2.791583 -0.366023
v -0.170674 2.861638 -0.469997
v -0.043580 2.776194 -0.357946
v -0.032890 2.776488 -0.371038
v -0.027164 2.791583 -0.366023
v -0.043580 2.776194 -0.357946
v -0.164982 2.861795 -0.476968
v -0.170674 2.861638 -0.469997
v -0.161934 2.869831 -0.474298
v -0.043580 2.776194 -0.357946
v -0.170674 2.861638 -0.469997
v -0.168031 2.853759 -0.479638
v -0.043580 2.776194 -0.357946
v -0.168031 2.853759 -0.479638
v -0.038616 2.761394 -0.376054
v -0.032890 2.776488 -0.371038
v -0.043580 2.776194 -0.357946
v -0.038616 2.761394 -0.376054
v -0.164982 2.861795 -0.476968
v -0.168031 2.853759 -0.479638
v -0.170674 2.861638 -0.469997
v -0.038616 2.761394 -0.376054
v -0.168031 2.853759 -0.479638
v -0.159291 2.861952 -0.483938
v -0.038616 2.761394 -0.376054
v -0.159291 2.861952 -0.483938
v -0.022200 2.776783 -0.384131
v -0.032890 2.776488 -0.371038
v -0.038616 2.761394 -0.376054
v -0.022200 2.776783 -0.384131
v -0.164982 2.861795 -0.476968
v -0.159291 2.861952 -0.483938
v -0.168031 2.853759 -0.479638
v 0.003387 2.742488 -0.228518
v -0.073170 2.850558 -0.412260
v -0.080282 2.858327 -0.405114
v 0.003387 2.742488 -0.228518
v -0.080282 2.858327 -0.405114
v -0.009971 2.757081 -0.215096
v -0.012509 2.742234 -0.222771
v 0.003387 2.742488 -0.228518
v -0.009971 2.757081 -0.215096
v -0.081633 2.850423 -0.409200
v -0.080282 2.858327 -0.405114
v -0.073170 2.850558 -0.412260
v -0.009971 2.757081 -0.215096
v -0.080282 2.858327 -0.405114
v -0.090096 2.850288 -0.406141
v -0.009971 2.757081 -0.215096
v -0.090096 2.850288 -0.406141
v -0.028405 2.741981 -0.217024
v -0.012509 2.742234 -0.222771
v -0.009971 2.757081 -0.215096
v -0.028405 2.741981 -0.217024
v -0.081633 2.850423 -0.409200
v -0.090096 2.850288 -0.406141
v -0.080282 2.858327 -0.405114
v -0.028405 2.741981 -0.217024
v -0.090096 2.850288 -0.406141
v -0.082984 2.842518 -0.413286
v -0.028405 2.741981 -0.217024
v -0.082984 2.842518 -0.413286
v -0.015047 2.727387 -0.230446
v -0.012509 2.742234 -0.222771
v -0.028405 2.741981 -0.217024
v -0.015047 2.727387 -0.230446
v -0.081633 2.850423 -0.409200
v -0.082984 2.842518 -0.413286
v -0.090096 2.850288 -0.406141
v -0.015047 2.727387 -0.230446
v -0.082984 2.842518 -0.413286
v -0.073170 2.850558 -0.412260
v -0.015047 2.727387 -0.230446
v -0.073170 2.850558 -0.412260
v 0.003387 2.742488 -0.228518
v -0.012509 2.742234 -0.222771
v -0.015047 2.727387 -0.230446
v 0.003387 2.742488 -0.228518
v -0.081633 2.850423 -0.409200
v -0.073170 2.850558 -0.412260
v -0.082984 2.842518 -0.413286
v 0.024822 2.791194 0.065575
v 0.356228 2.945335 -0.032896
v 0.346598 2.959594 -0.046328
v 0.024822 2.791194 0.065575
v 0.346598 2.959594 -0.046328
v 0.001892 2.825145 0.033594
v 0.016378 2.791582 0.029810
v 0.024822 2.791194 0.065575
v 0.001892 2.825145 0.033594
v 0.352682 2.945498 -0.047917
v 0.346598 2.959594 -0.046328
v 0.356228 2.945335 -0.032896
v 0.001892 2.825145 0.033594
v 0.346598 2.959594 -0.046328
v 0.349135 2.945662 -0.062938
v 0.001892 2.825145 0.033594
v 0.349135 2.945662 -0.062938
v 0.007934 2.791971 -0.005955
v 0.016378 2.791582 0.029810
v 0.001892 2.825145 0.033594
v 0.007934 2.791971 -0.005955
v 0.352682 2.945498 -0.047917
v 0.349135 2.945662 -0.062938
v 0.346598 2.959594 -0.046328
v 0.007934 2.791971 -0.005955
v 0.349135 2.945662 -0.062938
v 0.358766 2.931402 -0.049507
v 0.007934 2.791971 -0.005955
v 0.358766 2.931402 -0.049507
v 0.030864 2.758020 0.026025
v 0.016378 2.791582 0.029810
v 0.007934 2.791971 -0.005955
v 0.030864 2.758020 0.026025
v 0.352682 2.945498 -0.047917
v 0.358766 2.931402 -0.049507
v 0.349135 2.945662 -0.062938
v 0.030864 2.758020 0.026025
v 0.358766 2.931402 -0.049507
v 0.356228 2.945335 -0.032896
v 0.030864 2.758020 0.026025
v 0.356228 2.945335 -0.032896
v 0.024822 2.791194 0.065575
v 0.016378 2.791582 0.029810
v 0.030864 2.758020 0.026025
v 0.024822 2.791194 0.065575
v 0.352682 2.945498 -0.047917
v 0.356228 2.945335 -0.032896
v 0.358766 2.931402 -0.049507
v 0.233208 2.895102 -0.008991
v 0.342603 2.953964 0.062780
v 0.344869 2.962328 0.053458
v 0.233208 2.895102 -0.008991
v 0.344869 2.962328 0.053458
v 0.237464 2.910813 -0.026501
v 0.243210 2.895397 -0.022616
v 0.233208 2.895102 -0.008991
v 0.237464 2.910813 -0.026501
v 0.347928 2.954121 0.055526
v 0.344869 2.962328 0.053458
v 0.342603 2.953964 0.062780
v 0.237464 2.910813 -0.026501
v 0.344869 2.962328 0.053458
v 0.353253 2.954277 0.048272
v 0.237464 2.910813 -0.026501
v 0.353253 2.954277 0.048272
v 0.253212 2.895691 -0.036241
v 0.243210 2.895397 -0.022616
v 0.237464 2.910813 -0.026501
v 0.253212 2.895691 -0.036241
v 0.347928 2.954121 0.055526
v 0.353253 2.954277 0.048272
v 0.344869 2.962328 0.053458
v 0.253212 2.895691 -0.036241
v 0.353253 2.954277 0.048272
v 0.350987 2.945913 0.057595
v 0.253212 2.895691 -0.036241
v 0.350987 2.945913 0.057595
v 0.248956 2.879980 -0.018731
v 0.243210 2.895397 -0.022616
v 0.253212 2.895691 -0.036241
v 0.248956 2.879980 -0.018731
v 0.347928 2.954121 0.055526
v 0.350987 2.945913 0.057595
v 0.353253 2.954277 0.048272
v 0.248956 2.879980 -0.018731
v 0.350987 2.945913 0.057595
v 0.342603 2.953964 0.062780
v 0.248956 2.879980 -0.018731
v 0.342603 2.953964 0.062780
v 0.233208 2.895102 -0.008991
v 0.243210 2.895397 -0.022616
v 0.248956 2.879980 -0.018731
v 0.233208 2.895102 -0.008991
v 0.347928 2.954121 0.055526
v 0.342603 2.953964 0.062780
v 0.350987 2.945913 0.057595
v 0.288439 2.909178 -0.022293
v 0.349482 2.991564 -0.170218
v 0.339552 2.999525 -0.170363
v 0.288439 2.909178 -0.022293
v 0.339552 2.999525 -0.170363
v 0.269787 2.924131 -0.022566
v 0.273165 2.909106 -0.029539
v 0.288439 2.909178 -0.022293
v 0.269787 2.924131 -0.022566
v 0.341351 2.991526 -0.174076
v 0.339552 2.999525 -0.170363
v 0.349482 2.991564 -0.170218
v 0.269787 2.924131 -0.022566
v 0.339552 2.999525 -0.170363
v 0.333219 2.991488 -0.177933
v 0.269787 2.924131 -0.022566
v 0.333219 2.991488 -0.177933
v 0.257892 2.909035 -0.036785
v 0.273165 2.909106 -0.029539
v 0.269787 2.924131 -0.022566
v 0.257892 2.909035 -0.036785
v 0.341351 2.991526 -0.174076
v 0.333219 2.991488 -0.177933
v 0.339552 2.999525 -0.170363
v 0.257892 2.909035 -0.036785
v 0.333219 2.991488 -0.177933
v 0.343149 2.983527 -0.177788
v 0.257892 2.909035 -0.036785
v 0.343149 2.983527 -0.177788
v 0.276544 2.894082 -0.036513
v 0.273165 2.909106 -0.029539
v 0.257892 2.909035 -0.036785
v 0.276544 2.894082 -0.036513
v 0.341351 2.991526 -0.174076
v 0.343149 2.983527 -0.177788
v 0.333219 2.991488 -0.177933
v 0.276544 2.894082 -0.036513
v 0.343149 2.983527 -0.177788
v 0.349482 2.991564 -0.170218
v 0.276544 2.894082 -0.036513
v 0.349482 2.991564 -0.170218
v 0.288439 2.909178 -0.022293
v 0.273165 2.909106 -0.029539
v 0.276544 2.894082 -0.036513
v 0.288439 2.909178 -0.022293
v 0.341351 2.991526 -0.174076
v 0.349482 2.991564 -0.170218
v 0.343149 2.983527 -0.177788
v 0.000827 2.438959 0.042841
v 0.148339 2.622221 0.415679
v 0.160660 2.636487 0.404674
v 0.000827 2.438959 0.042841
v 0.160660 2.636487 0.404674
v 0.030163 2.472929 0.016638
v 0.035586 2.439505 0.030921
v 0.000827 2.438959 0.042841
v 0.030163 2.472929 0.016638
v 0.162938 2.622450 0.410673
v 0.160660 2.636487 0.404674
v 0.148339 2.622221 0.415679
v 0.030163 2.472929 0.016638
v 0.160660 2.636487 0.404674
v 0.177536 2.622679 0.405667
v 0.030163 2.472929 0.016638
v 0.177536 2.622679 0.405667
v 0.070345 2.440050 0.019002
v 0.035586 2.439505 0.030921
v 0.030163 2.472929 0.016638
v 0.070345 2.440050 0.019002
v 0.162938 2.622450 0.410673
v 0.177536 2.622679 0.405667
v 0.160660 2.636487 0.404674
v 0.070345 2.440050 0.019002
v 0.177536 2.622679 0.405667
v 0.165215 2.608412 0.416672
v 0.070345 2.440050 0.019002
v 0.165215 2.608412 0.416672
v 0.041008 2.406081 0.045205
v 0.035586 2.439505 0.030921
v 0.070345 2.440050 0.019002
v 0.041008 2.406081 0.045205
v 0.162938 2.622450 0.410673
v 0.165215 2.608412 0.416672
v 0.177536 2.622679 0.405667
v 0.041008 2.406081 0.045205
v 0.165215 2.608412 0.416672
v 0.148339 2.622221 0.415679
v 0.041008 2.406081 0.045205
v 0.148339 2.622221 0.415679
v 0.000827 2.438959 0.042841
v 0.035586 2.439505 0.030921
v 0.041008 2.406081 0.045205
v 0.000827 2.438959 0.042841
v 0.162938 2.622450 0.410673
v 0.148339 2.622221 0.415679
v 0.165215 2.608412 0.416672
v 0.090396 2.542039 0.246710
v 0.129691 2.661422 0.466859
v 0.137864 2.669478 0.461355
v 0.090396 2.542039 0.246710
v 0.137864 2.669478 0.461355
v 0.105749 2.557171 0.236371
v 0.107115 2.542258 0.244214
v 0.090396 2.542039 0.246710
v 0.105749 2.557171 0.236371
v 0.138591 2.661539 0.465531
v 0.137864 2.669478 0.461355
v 0.129691 2.661422 0.466859
v 0.105749 2.557171 0.236371
v 0.137864 2.669478 0.461355
v 0.147492 2.661655 0.464202
v 0.105749 2.557171 0.236371
v 0.147492 2.661655 0.464202
v 0.123833 2.542477 0.241719
v 0.107115 2.542258 0.244214
v 0.105749 2.557171 0.236371
v 0.123833 2.542477 0.241719
v 0.138591 2.661539 0.465531
v 0.147492 2.661655 0.464202
v 0.137864 2.669478 0.461355
v 0.123833 2.542477 0.241719
v 0.147492 2.661655 0.464202
v 0.139318 2.653599 0.469706
v 0.123833 2.542477 0.241719
v 0.139318 2.653599 0.469706
v 0.108481 2.527345 0.252057
v 0.107115 2.542258 0.244214
v 0.123833 2.542477 0.241719
v 0.108481 2.527345 0.252057
v 0.138591 2.661539 0.465531
v 0.139318 2.653599 0.469706
v 0.147492 2.661655 0.464202
v 0.108481 2.527345 0.252057
v 0.139318 2.653599 0.469706
v 0.129691 2.661422 0.466859
v 0.108481 2.527345 0.252057
v 0.129691 2.661422 0.466859
v 0.090396 2.542039 0.246710
v 0.107115 2.542258 0.244214
v 0.108481 2.527345 0.252057
v 0.090396 2.542039 0.246710
v 0.138591 2.661539 0.465531
v 0.129691 2.661422 0.466859
v 0.139318 2.653599 0.469706
v 0.102829 2.558467 0.271598
v 0.062858 2.609438 0.388652
v 0.072448 2.617804 0.388892
v 0.102829 2.558467 0.271598
v 0.072448 2.617804 0.388892
v 0.120841 2.574181 0.272048
v 0.118458 2.558554 0.278040
v 0.102829 2.558467 0.271598
v 0.120841 2.574181 0.272048
v 0.071179 2.609484 0.392081
v 0.072448 2.617804 0.388892
v 0.062858 2.609438 0.388652
v 0.120841 2.574181 0.272048
v 0.072448 2.617804 0.388892
v 0.079500 2.609530 0.395511
v 0.120841 2.574181 0.272048
v 0.079500 2.609530 0.395511
v 0.134088 2.558640 0.284481
v 0.118458 2.558554 0.278040
v 0.120841 2.574181 0.272048
v 0.134088 2.558640 0.284481
v 0.071179 2.609484 0.392081
v 0.079500 2.609530 0.395511
v 0.072448 2.617804 0.388892
v 0.134088 2.558640 0.284481
v 0.079500 2.609530 0.395511
v 0.069910 2.601164 0.395271
v 0.134088 2.558640 0.284481
v 0.069910 2.601164 0.395271
v 0.116075 2.542926 0.284031
v 0.118458 2.558554 0.278040
v 0.134088 2.558640 0.284481
v 0.116075 2.542926 0.284031
v 0.071179 2.609484 0.392081
v 0.069910 2.601164 0.395271
v 0.079500 2.609530 0.395511
v 0.116075 2.542926 0.284031
v 0.069910 2.601164 0.395271
v 0.062858 2.609438 0.388652
v 0.116075 2.542926 0.284031
v 0.062858 2.609438 0.388652
v 0.102829 2.558467 0.271598
v 0.118458 2.558554 0.278040
v 0.116075 2.542926 0.284031
v 0.102829 2.558467 0.271598
v 0.071179 2.609484 0.392081
v 0.062858 2.609438 0.388652
v 0.069910 2.601164 0.395271
v 0.126435 2.574588 0.328429
v 0.277173 2.650028 0.352180
v 0.275034 2.658235 0.342689
v 0.126435 2.574588 0.328429
v 0.275034 2.658235 0.342689
v 0.122416 2.590003 0.310602
v 0.129802 2.574849 0.311865
v 0.126435 2.574588 0.328429
v 0.122416 2.590003 0.310602
v 0.278966 2.650167 0.343361
v 0.275034 2.658235 0.342689
v 0.277173 2.650028 0.352180
v 0.122416 2.590003 0.310602
v 0.275034 2.658235 0.342689
v 0.280758 2.650306 0.334543
v 0.122416 2.590003 0.310602
v 0.280758 2.650306 0.334543
v 0.133168 2.575109 0.295300
v 0.129802 2.574849 0.311865
v 0.122416 2.590003 0.310602
v 0.133168 2.575109 0.295300
v 0.278966 2.650167 0.343361
v 0.280758 2.650306 0.334543
v 0.275034 2.658235 0.342689
v 0.133168 2.575109 0.295300
v 0.280758 2.650306 0.334543
v 0.282897 2.642099 0.344034
v 0.133168 2.575109 0.295300
v 0.282897 2.642099 0.344034
v 0.137187 2.559695 0.313127
v 0.129802 2.574849 0.311865
v 0.133168 2.575109 0.295300
v 0.137187 2.559695 0.313127
v 0.278966 2.650167 0.343361
v 0.282897 2.642099 0.344034
v 0.280758 2.650306 0.334543
v 0.137187 2.559695 0.313127
v 0.282897 2.642099 0.344034
v 0.277173 2.650028 0.352180
v 0.137187 2.559695 0.313127
v 0.277173 2.650028 0.352180
v 0.126435 2.574588 0.328429
v 0.129802 2.574849 0.311865
v 0.137187 2.559695 0.313127
v 0.126435 2.574588 0.328429
v 0.278966 2.650167 0.343361
v 0.277173 2.650028 0.352180
v 0.282897 2.642099 0.344034
v 0.014436 2.547566 -0.002845
v -0.388845 2.764437 0.206636
v -0.376331 2.778243 0.218005
v 0.014436 2.547566 -0.002845
v -0.376331 2.778243 0.218005
v 0.044232 2.580437 0.024224
v 0.029706 2.547284 0.030581
v 0.014436 2.547566 -0.002845
v 0.044232 2.580437 0.024224
v -0.382432 2.764318 0.220675
v -0.376331 2.778243 0.218005
v -0.388845 2.764437 0.206636
v 0.044232 2.580437 0.024224
v -0.376331 2.778243 0.218005
v -0.376019 2.764200 0.234714
v 0.044232 2.580437 0.024224
v -0.376019 2.764200 0.234714
v 0.044975 2.547003 0.064008
v 0.029706 2.547284 0.030581
v 0.044232 2.580437 0.024224
v 0.044975 2.547003 0.064008
v -0.382432 2.764318 0.220675
v -0.376019 2.764200 0.234714
v -0.376331 2.778243 0.218005
v 0.044975 2.547003 0.064008
v -0.376019 2.764200 0.234714
v -0.388533 2.750394 0.223345
v 0.044975 2.547003 0.064008
v -0.388533 2.750394 0.223345
v 0.015179 2.514131 0.036938
v 0.029706 2.547284 0.030581
v 0.044975 2.547003 0.064008
v 0.015179 2.514131 0.036938
v -0.382432 2.764318 0.220675
v -0.388533 2.750394 0.223345
v -0.376019 2.764200 0.234714
v 0.015179 2.514131 0.036938
v -0.388533 2.750394 0.223345
v -0.388845 2.764437 0.206636
v 0.015179 2.514131 0.036938
v -0.388845 2.764437 0.206636
v 0.014436 2.547566 -0.002845
v 0.029706 2.547284 0.030581
v 0.015179 2.514131 0.036938
v 0.014436 2.547566 -0.002845
v -0.382432 2.764318 0.220675
v -0.388845 2.764437 0.206636
v -0.388533 2.750394 0.223345
v -0.168822 2.644685 0.105785
v -0.273372 2.736654 0.258806
v -0.263771 2.744722 0.260982
v -0.168822 2.644685 0.105785
v -0.263771 2.744722 0.260982
v -0.150788 2.659839 0.109872
v -0.155279 2.644699 0.115903
v -0.168822 2.644685 0.105785
v -0.150788 2.659839 0.109872
v -0.266162 2.736661 0.264193
v -0.263771 2.744722 0.260982
v -0.273372 2.736654 0.258806
v -0.150788 2.659839 0.109872
v -0.263771 2.744722 0.260982
v -0.258952 2.736668 0.269580
v -0.150788 2.659839 0.109872
v -0.258952 2.736668 0.269580
v -0.141736 2.644712 0.126021
v -0.155279 2.644699 0.115903
v -0.150788 2.659839 0.109872
v -0.141736 2.644712 0.126021
v -0.266162 2.736661 0.264193
v -0.258952 2.736668 0.269580
v -0.263771 2.744722 0.260982
v -0.141736 2.644712 0.126021
v -0.258952 2.736668 0.269580
v -0.268553 2.728601 0.267404
v -0.141736 2.644712 0.126021
v -0.268553 2.728601 0.267404
v -0.159770 2.629558 0.121935
v -0.155279 2.644699 0.115903
v -0.141736 2.644712 0.126021
v -0.159770 2.629558 0.121935
v -0.266162 2.736661 0.264193
v -0.268553 2.728601 0.267404
v -0.258952 2.736668 0.269580
v -0.159770 2.629558 0.121935
v -0.268553 2.728601 0.267404
v -0.273372 2.736654 0.258806
v -0.159770 2.629558 0.121935
v -0.273372 2.736654 0.258806
v -0.168822 2.644685 0.105785
v -0.155279 2.644699 0.115903
v -0.159770 2.629558 0.121935
v -0.168822 2.644685 0.105785
v -0.266162 2.736661 0.264193
v -0.273372 2.736654 0.258806
v -0.268553 2.728601 0.267404
v -0.198417 2.664170 0.117201
v -0.394612 2.777069 0.207423
v -0.387304 2.784967 0.214220
v -0.198417 2.664170 0.117201
v -0.387304 2.784967 0.214220
v -0.184690 2.679006 0.129968
v -0.191989 2.664030 0.132835
v -0.198417 2.664170 0.117201
v -0.184690 2.679006 0.129968
v -0.391190 2.776994 0.215747
v -0.387304 2.784967 0.214220
v -0.394612 2.777069 0.207423
v -0.184690 2.679006 0.129968
v -0.387304 2.784967 0.214220
v -0.387767 2.776920 0.224071
v -0.184690 2.679006 0.129968
v -0.387767 2.776920 0.224071
v -0.185561 2.663891 0.148470
v -0.191989 2.664030 0.132835
v -0.184690 2.679006 0.129968
v -0.185561 2.663891 0.148470
v -0.391190 2.776994 0.215747
v -0.387767 2.776920 0.224071
v -0.387304 2.784967 0.214220
v -0.185561 2.663891 0.148470
v -0.387767 2.776920 0.224071
v -0.395076 2.769022 0.217274
v -0.185561 2.663891 0.148470
v -0.395076 2.769022 0.217274
v -0.199288 2.649054 0.135703
v -0.191989 2.664030 0.132835
v -0.185561 2.663891 0.148470
v -0.199288 2.649054 0.135703
v -0.391190 2.776994 0.215747
v -0.395076 2.769022 0.217274
v -0.387767 2.776920 0.224071
v -0.199288 2.649054 0.135703
v -0.395076 2.769022 0.217274
v -0.394612 2.777069 0.207423
v -0.199288 2.649054 0.135703
v -0.394612 2.777069 0.207423
v -0.198417 2.664170 0.117201
v -0.191989 2.664030 0.132835
v -0.199288 2.649054 0.135703
v -0.198417 2.664170 0.117201
v -0.391190 2.776994 0.215747
v -0.394612 2.777069 0.207423
v -0.395076 2.769022 0.217274
v -0.226189 2.683615 0.133051
v -0.469638 2.728659 0.105177
v -0.469380 2.737374 0.114450
v -0.226189 2.683615 0.133051
v -0.469380 2.737374 0.114450
v -0.225704 2.699985 0.150469
v -0.228699 2.683362 0.149767
v -0.226189 2.683615 0.133051
v -0.225704 2.699985 0.150469
v -0.470974 2.728524 0.114076
v -0.469380 2.737374 0.114450
v -0.469638 2.728659 0.105177
v -0.225704 2.699985 0.150469
v -0.469380 2.737374 0.114450
v -0.472311 2.728389 0.122976
v -0.225704 2.699985 0.150469
v -0.472311 2.728389 0.122976
v -0.231209 2.683109 0.166483
v -0.228699 2.683362 0.149767
v -0.225704 2.699985 0.150469
v -0.231209 2.683109 0.166483
v -0.470974 2.728524 0.114076
v -0.472311 2.728389 0.122976
v -0.469380 2.737374 0.114450
v -0.231209 2.683109 0.166483
v -0.472311 2.728389 0.122976
v -0.472569 2.719674 0.113703
v -0.231209 2.683109 0.166483
v -0.472569 2.719674 0.113703
v -0.231694 2.666739 0.149066
v -0.228699 2.683362 0.149767
v -0.231209 2.683109 0.166483
v -0.231694 2.666739 0.149066
v -0.470974 2.728524 0.114076
v -0.472569 2.719674 0.113703
v -0.472311 2.728389 0.122976
v -0.231694 2.666739 0.149066
v -0.472569 2.719674 0.113703
v -0.469638 2.728659 0.105177
v -0.231694 2.666739 0.149066
v -0.469638 2.728659 0.105177
v -0.226189 2.683615 0.133051
v -0.228699 2.683362 0.149767
v -0.231694 2.666739 0.149066
v -0.226189 2.683615 0.133051
v -0.470974 2.728524 0.114076
v -0.469638 2.728659 0.105177
v -0.472569 2.719674 0.113703
f 1 2 3
f 4 5 6
f 7 8 9
f 10 11 12
f 13 14 15
f 16 17 18
f 19 20 21
f 22 23 24
f 25 26 27
f 28 29 30
f 31 32 33
f 34 35 36
f 37 38 39
f 40 41 42
f 43 44 45
f 46 47 48
f 49 50 51
f 52 53 54
f 55 56 57
f 58 59 60
f 61 62 63
f 64 65 66
f 67 68 69
f 70 71 72
f 73 74 75
f 76 77 78
f 79 80 81
f 82 83 84
f 85 86 87
f 88 89 90
f 91 92 93
f 94 95 96
f 97 98 99
f 100 101 102
f 103 104 105
f 106 107 108
f 109 110 111
f 112 113 114
f 115 116 117
f 118 119 120
f 121 122 123
f 124 125 126
f 127 128 129
f 130 131 132
f 133 134 135
f 136 137 138
f 139 140 141
f 142 143 144
f 145 146 147
f 148 149 150
f 151 152 153
f 154 155 156
f 157 158 159
f 160 161 162
f 163 164 165
f 166 167 168
f 169 170 171
f 172 173 174
f 175 176 177
f 178 179 180
f 181 182 183
f 184 185 186
f 187 188 189
f 190 191 192
f 193 194 195
f 196 197 198
f 199 200 201
f 202 203 204
f 205 206 207
f 208 209 210
f 211 212 213
f 214 215 216
f 217 218 219
f 220 221 222
f 223 224 225
f 226 227 228
f 229 230 231
f 232 233 234
f 235 236 237
f 238 239 240
f 241 242 243
f 244 245 246
f 247 248 249
f 250 251 252
f 253 254 255
f 256 257 258
f 259 260 261
f 262 263 264
f 265 266 267
f 268 269 270
f 271 272 273
f 274 275 276
f 277 278 279
f 280 281 282
f 283 284 285
f 286 287 288
f 289 290 291
f 292 293 294
f 295 296 297
f 298 299 300
f 301 302 303
f 304 305 306
f 307 308 309
f 310 311 312
f 313 314 315
f 316 317 318
f 319 320 321
f 322 323 324
f 325 326 327
f 328 329 330
f 331 332 333
f 334 335 336
f 337 338 339
f 340 341 342
f 343 344 345
f 346 347 348
f 349 350 351
f 352 353 354
f 355 356 357
f 358 359 360
f 361 362 363
f 364 365 366
f 367 368 369
f 370 371 372
f 373 374 375
f 376 377 378
f 379 380 381
f 382 383 384
f 385 386 387
f 388 389 390
f 391 392 393
f 394 395 396
f 397 398 399
f 400 401 402
f 403 404 405
f 406 407 408
f 409 410 411
f 412 413 414
f 415 416 417
f 418 419 420
f 421 422 423
f 424 425 426
f 427 428 429
f 430 431 432
f 433 434 435
f 436 437 438
f 439 440 441
f 442 443 444
f 445 446 447
f 448 449 450
f 451 452 453
f 454 455 456
f 457 458 459
f 460 461 462
f 463 464 465
f 466 467 468
f 469 470 471
f 472 473 474
f 475 476 477
f 478 479 480
f 481 482 483
f 484 485 486
f 487 488 489
f 490 491 492
f 493 494 495
f 496 497 498
f 499 500 501
f 502 503 504
f 505 506 507
f 508 509 510
f 511 512 513
f 514 515 516
f 517 518 519
f 520 521 522
f 523 524 525
f 526 527 528
f 529 530 531
f 532 533 534
f 535 536 537
f 538 539 540
f 541 542 543
f 544 545 546
f 547 548 549
f 550 551 552
f 553 554 555
f 556 557 558
f 559 560 561
f 562 563 564
f 565 566 567
f 568 569 570
f 571 572 573
f 574 575 576
f 577 578 579
f 580 581 582
f 583 584 585
f 586 587 588
f 589 590 591
f 592 593 594
f 595 596 597
f 598 599 600
f 601 602 603
f 604 605 606
f 607 608 609
f 610 611 612
f 613 614 615
f 616 617 618
f 619 620 621
f 622 623 624
f 625 626 627
f 628 629 630
f 631 632 633
f 634 635 636
f 637 638 639
f 640 641 642
f 643 644 645
f 646 647 648
f 649 650 651
f 652 653 654
f 655 656 657
f 658 659 660
f 661 662 663
f 664 665 666
f 667 668 669
f 670 671 672
f 673 674 675
f 676 677 678
f 679 680 681
f 682 683 684
f 685 686 687
f 688 689 690
f 691 692 693
f 694 695 696
f 697 698 699
f 700 701 702
f 703 704 705
f 706 707 708
f 709 710 711
f 712 713 714
f 715 716 717
f 718 719 720
f 721 722 723
f 724 725 726
f 727 728 729
f 730 731 732
f 733 734 735
f 736 737 738
f 739 740 741
f 742 743 744
f 745 746 747
f 748 749 750
f 751 752 753
f 754 755 756
f 757 758 759
f 760 761 762
f 763 764 765
f 766 767 768
f 769 770 771
f 772 773 774
f 775 776 777
f 778 779 780
f 781 782 783
f 784 785 786
f 787 788 789
f 790 791 792
f 793 794 795
f 796 797 798
f 799 800 801
f 802 803 804
f 805 806 807
f 808 809 810
f 811 812 813
f 814 815 816
f 817 818 819
f 820 821 822
f 823 824 825
f 826 827 828
f 829 830 831
f 832 833 834
f 835 836 837
f 838 839 840
f 841 842 843
f 844 845 846
f 847 848 849
f 850 851 852
f 853 854 855
f 856 857 858
f 859 860 861
f 862 863 864
f 865 866 867
f 868 869 870
f 871 872 873
f 874 875 876
f 877 878 879
f 880 881 882
f 883 884 885
f 886 887 888
f 889 890 891
f 892 893 894
f 895 896 897
f 898 899 900
f 901 902 903
f 904 905 906
f 907 908 909
f 910 911 912
f 913 914 915
f 916 917 918
f 919 920 921
f 922 923 924
f 925 926 927
f 928 929 930
f 931 932 933
f 934 935 936
f 937 938 939
f 940 941 942
f 943 944 945
f 946 947 948
f 949 950 951
f 952 953 954
f 955 956 957
f 958 959 960

o TreeFoliage
v 0.006763 2.841058 0.027008
v 0.178664 2.918844 0.028056
v 0.128069 2.916685 0.146671
v 0.006763 2.841058 0.027008
v 0.128069 2.916685 0.146671
v 0.006763 2.841058 0.027008
v 0.006763 2.841058 0.027008
v 0.128069 2.916685 0.146671
v 0.005923 2.914670 0.195788
v 0.006763 2.841058 0.027008
v 0.005923 2.914670 0.195788
v 0.006763 2.841058 0.027008
v 0.006763 2.841058 0.027008
v 0.005923 2.914670 0.195788
v -0.116224 2.913979 0.146634
v 0.006763 2.841058 0.027008
v -0.116224 2.913979 0.146634
v 0.006763 2.841058 0.027008
v 0.006763 2.841058 0.027008
v -0.116224 2.913979 0.146634
v -0.166818 2.915017 0.028005
v 0.006763 2.841058 0.027008
v -0.166818 2.915017 0.028005
v 0.006763 2.841058 0.027008
v 0.006763 2.841058 0.027008
v -0.166818 2.915017 0.028005
v -0.116224 2.917177 -0.090610
v 0.006763 2.841058 0.027008
v -0.116224 2.917177 -0.090610
v 0.006763 2.841058 0.027008
v 0.006763 2.841058 0.027008
v -0.116224 2.917177 -0.090610
v 0.005923 2.919192 -0.139727
v 0.006763 2.841058 0.027008
v 0.005923 2.919192 -0.139727
v 0.006763 2.841058 0.027008
v 0.006763 2.841058 0.027008
v 0.005923 2.919192 -0.139727
v 0.128069 2.919883 -0.090574
v 0.006763 2.841058 0.027008
v 0.128069 2.919883 -0.090574
v 0.006763 2.841058 0.027008
v 0.006763 2.841058 0.027008
v 0.128069 2.919883 -0.090574
v 0.178664 2.918844 0.028056
v 0.006763 2.841058 0.027008
v 0.178664 2.918844 0.028056
v 0.006763 2.841058 0.027008
v 0.178664 2.918844 0.028056
v 0.248187 3.102809 0.030536
v 0.176635 3.099756 0.198282
v 0.178664 2.918844 0.028056
v 0.176635 3.099756 0.198282
v 0.128069 2.916685 0.146671
v 0.128069 2.916685 0.146671
v 0.176635 3.099756 0.198282
v 0.003894 3.096906 0.267744
v 0.128069 2.916685 0.146671
v 0.003894 3.096906 0.267744
v 0.005923 2.914670 0.195788
v 0.005923 2.914670 0.195788
v 0.003894 3.096906 0.267744
v -0.168848 3.095929 0.198231
v 0.005923 2.914670 0.195788
v -0.168848 3.095929 0.198231
v -0.116224 2.913979 0.146634
v -0.116224 2.913979 0.146634
v -0.168848 3.095929 0.198231
v -0.240399 3.097398 0.030463
v -0.116224 2.913979 0.146634
v -0.240399 3.097398 0.030463
v -0.166818 2.915017 0.028005
v -0.166818 2.915017 0.028005
v -0.240399 3.097398 0.030463
v -0.168848 3.100451 -0.137284
v -0.166818 2.915017 0.028005
v -0.168848 3.100451 -0.137284
v -0.116224 2.917177 -0.090610
v -0.116224 2.917177 -0.090610
v -0.168848 3.100451 -0.137284
v 0.003894 3.103301 -0.206745
v -0.116224 2.917177 -0.090610
v 0.003894 3.103301 -0.206745
v 0.005923 2.919192 -0.139727
v 0.005923 2.919192 -0.139727
v 0.003894 3.103301 -0.206745
v 0.176635 3.104278 -0.137232
v 0.005923 2.919192 -0.139727
v 0.176635 3.104278 -0.137232
v 0.128069 2.919883 -0.090574
v 0.128069 2.919883 -0.090574
v 0.176635 3.104278 -0.137232
v 0.248187 3.102809 0.030536
v 0.128069 2.919883 -0.090574
v 0.248187 3.102809 0.030536
v 0.178664 2.918844 0.028056
v 0.248187 3.102809 0.030536
v 0.174606 3.285190 0.032994
v 0.124011 3.283031 0.151609
v 0.248187 3.102809 0.030536
v 0.124011 3.283031 0.151609
v 0.176635 3.099756 0.198282
v 0.176635 3.099756 0.198282
v 0.124011 3.283031 0.151609
v 0.001864 3.281015 0.200725
v 0.176635 3.099756 0.198282
v 0.001864 3.281015 0.200725
v 0.003894 3.096906 0.267744
v 0.003894 3.096906 0.267744
v 0.001864 3.281015 0.200725
v -0.120282 3.280325 0.151572
v 0.003894 3.096906 0.267744
v -0.120282 3.280325 0.151572
v -0.168848 3.095929 0.198231
v -0.168848 3.095929 0.198231
v -0.120282 3.280325 0.151572
v -0.170877 3.281363 0.032942
v -0.168848 3.095929 0.198231
v -0.170877 3.281363 0.032942
v -0.240399 3.097398 0.030463
v -0.240399 3.097398 0.030463
v -0.170877 3.281363 0.032942
v -0.120282 3.283523 -0.085672
v -0.240399 3.097398 0.030463
v -0.120282 3.283523 -0.085672
v -0.168848 3.100451 -0.137284
v -0.168848 3.100451 -0.137284
v -0.120282 3.283523 -0.085672
v 0.001864 3.285538 -0.134789
v -0.168848 3.100451 -0.137284
v 0.001864 3.285538 -0.134789
v 0.003894 3.103301 -0.206745
v 0.003894 3.103301 -0.206745
v 0.001864 3.285538 -0.134789
v 0.124011 3.286228 -0.085636
v 0.003894 3.103301 -0.206745
v 0.124011 3.286228 -0.085636
v 0.176635 3.104278 -0.137232
v 0.176635 3.104278 -0.137232
v 0.124011 3.286228 -0.085636
v 0.174606 3.285190 0.032994
v 0.176635 3.104278 -0.137232
v 0.174606 3.285190 0.032994
v 0.248187 3.102809 0.030536
v 0.174606 3.285190 0.032994
v 0.001024 3.359149 0.033991
v 0.001024 3.359149 0.033991
v 0.174606 3.285190 0.032994
v 0.001024 3.359149 0.033991
v 0.124011 3.283031 0.151609
v 0.124011 3.283031 0.151609
v 0.001024 3.359149 0.033991
v 0.001024 3.359149 0.033991
v 0.124011 3.283031 0.151609
v 0.001024 3.359149 0.033991
v 0.001864 3.281015 0.200725
v 0.001864 3.281015 0.200725
v 0.001024 3.359149 0.033991
v 0.001024 3.359149 0.033991
v 0.001864 3.281015 0.200725
v 0.001024 3.359149 0.033991
v -0.120282 3.280325 0.151572
v -0.120282 3.280325 0.151572
v 0.001024 3.359149 0.033991
v 0.001024 3.359149 0.033991
v -0.120282 3.280325 0.151572
v 0.001024 3.359149 0.033991
v -0.170877 3.281363 0.032942
v -0.170877 3.281363 0.032942
v 0.001024 3.359149 0.033991
v 0.001024 3.359149 0.033991
v -0.170877 3.281363 0.032942
v 0.001024 3.359149 0.033991
v -0.120282 3.283523 -0.085672
v -0.120282 3.283523 -0.085672
v 0.001024 3.359149 0.033991
v 0.001024 3.359149 0.033991
v -0.120282 3.283523 -0.085672
v 0.001024 3.359149 0.033991
v 0.001864 3.285538 -0.134789
v 0.001864 3.285538 -0.134789
v 0.001024 3.359149 0.033991
v 0.001024 3.359149 0.033991
v 0.001864 3.285538 -0.134789
v 0.001024 3.359149 0.033991
v 0.124011 3.286228 -0.085636
v 0.124011 3.286228 -0.085636
v 0.001024 3.359149 0.033991
v 0.001024 3.359149 0.033991
v 0.124011 3.286228 -0.085636
v 0.001024 3.359149 0.033991
v 0.174606 3.285190 0.032994
v 0.233973 2.610741 -0.256112
v 0.425679 2.696299 -0.254959
v 0.369259 2.693788 -0.115025
v 0.233973 2.610741 -0.256112
v 0.369259 2.693788 -0.115025
v 0.233973 2.610741 -0.256112
v 0.233973 2.610741 -0.256112
v 0.369259 2.693788 -0.115025
v 0.233049 2.691498 -0.057079
v 0.233973 2.610741 -0.256112
v 0.233049 2.691498 -0.057079
v 0.233973 2.610741 -0.256112
v 0.233973 2.610741 -0.256112
v 0.233049 2.691498 -0.057079
v 0.096840 2.690770 -0.115066
v 0.233973 2.610741 -0.256112
v 0.096840 2.690770 -0.115066
v 0.233973 2.610741 -0.256112
v 0.233973 2.610741 -0.256112
v 0.096840 2.690770 -0.115066
v 0.040420 2.692031 -0.255016
v 0.233973 2.610741 -0.256112
v 0.040420 2.692031 -0.255016
v 0.233973 2.610741 -0.256112
v 0.233973 2.610741 -0.256112
v 0.040420 2.692031 -0.255016
v 0.096840 2.694542 -0.394950
v 0.233973 2.610741 -0.256112
v 0.096840 2.694542 -0.394950
v 0.233973 2.610741 -0.256112
v 0.233973 2.610741 -0.256112
v 0.096840 2.694542 -0.394950
v 0.233049 2.696832 -0.452895
v 0.233973 2.610741 -0.256112
v 0.233049 2.696832 -0.452895
v 0.233973 2.610741 -0.256112
v 0.233973 2.610741 -0.256112
v 0.233049 2.696832 -0.452895
v 0.369259 2.697560 -0.394909
v 0.233973 2.610741 -0.256112
v 0.369259 2.697560 -0.394909
v 0.233973 2.610741 -0.256112
v 0.233973 2.610741 -0.256112
v 0.369259 2.697560 -0.394909
v 0.425679 2.696299 -0.254959
v 0.233973 2.610741 -0.256112
v 0.425679 2.696299 -0.254959
v 0.233973 2.610741 -0.256112
v 0.425679 2.696299 -0.254959
v 0.503237 2.898584 -0.252232
v 0.423448 2.895033 -0.054336
v 0.425679 2.696299 -0.254959
v 0.423448 2.895033 -0.054336
v 0.369259 2.693788 -0.115025
v 0.369259 2.693788 -0.115025
v 0.423448 2.895033 -0.054336
v 0.230818 2.891794 0.027611
v 0.369259 2.693788 -0.115025
v 0.230818 2.891794 0.027611
v 0.233049 2.691498 -0.057079
v 0.233049 2.691498 -0.057079
v 0.230818 2.891794 0.027611
v 0.038189 2.890766 -0.054394
v 0.233049 2.691498 -0.057079
v 0.038189 2.890766 -0.054394
v 0.096840 2.690770 -0.115066
v 0.096840 2.690770 -0.115066
v 0.038189 2.890766 -0.054394
v -0.041601 2.892550 -0.252313
v 0.096840 2.690770 -0.115066
v -0.041601 2.892550 -0.252313
v 0.040420 2.692031 -0.255016
v 0.040420 2.692031 -0.255016
v -0.041601 2.892550 -0.252313
v 0.038189 2.896101 -0.450209
v 0.040420 2.692031 -0.255016
v 0.038189 2.896101 -0.450209
v 0.096840 2.694542 -0.394950
v 0.096840 2.694542 -0.394950
v 0.038189 2.896101 -0.450209
v 0.230818 2.899339 -0.532157
v 0.096840 2.694542 -0.394950
v 0.230818 2.899339 -0.532157
v 0.233049 2.696832 -0.452895
v 0.233049 2.696832 -0.452895
v 0.230818 2.899339 -0.532157
v 0.423448 2.900368 -0.450152
v 0.233049 2.696832 -0.452895
v 0.423448 2.900368 -0.450152
v 0.369259 2.697560 -0.394909
v 0.369259 2.697560 -0.394909
v 0.423448 2.900368 -0.450152
v 0.503237 2.898584 -0.252232
v 0.369259 2.697560 -0.394909
v 0.503237 2.898584 -0.252232
v 0.425679 2.696299 -0.254959
v 0.503237 2.898584 -0.252232
v 0.421216 3.099102 -0.249529
v 0.364797 3.096591 -0.109596
v 0.503237 2.898584 -0.252232
v 0.364797 3.096591 -0.109596
v 0.423448 2.895033 -0.054336
v 0.423448 2.895033 -0.054336
v 0.364797 3.096591 -0.109596
v 0.228587 3.094301 -0.051650
v 0.423448 2.895033 -0.054336
v 0.228587 3.094301 -0.051650
v 0.230818 2.891794 0.027611
v 0.230818 2.891794 0.027611
v 0.228587 3.094301 -0.051650
v 0.092377 3.093574 -0.109637
v 0.230818 2.891794 0.027611
v 0.092377 3.093574 -0.109637
v 0.038189 2.890766 -0.054394
v 0.038189 2.890766 -0.054394
v 0.092377 3.093574 -0.109637
v 0.035957 3.094835 -0.249587
v 0.038189 2.890766 -0.054394
v 0.035957 3.094835 -0.249587
v -0.041601 2.892550 -0.252313
v -0.041601 2.892550 -0.252313
v 0.035957 3.094835 -0.249587
v 0.092377 3.097346 -0.389521
v -0.041601 2.892550 -0.252313
v 0.092377 3.097346 -0.389521
v 0.038189 2.896101 -0.450209
v 0.038189 2.896101 -0.450209
v 0.092377 3.097346 -0.389521
v 0.228587 3.099636 -0.447466
v 0.038189 2.896101 -0.450209
v 0.228587 3.099636 -0.447466
v 0.230818 2.899339 -0.532157
v 0.230818 2.899339 -0.532157
v 0.228587 3.099636 -0.447466
v 0.364797 3.100364 -0.389480
v 0.230818 2.899339 -0.532157
v 0.364797 3.100364 -0.389480
v 0.423448 2.900368 -0.450152
v 0.423448 2.900368 -0.450152
v 0.364797 3.100364 -0.389480
v 0.421216 3.099102 -0.249529
v 0.423448 2.900368 -0.450152
v 0.421216 3.099102 -0.249529
v 0.503237 2.898584 -0.252232
v 0.421216 3.099102 -0.249529
v 0.227663 3.180393 -0.248434
v 0.227663 3.180393 -0.248434
v 0.421216 3.099102 -0.249529
v 0.227663 3.180393 -0.248434
v 0.364797 3.096591 -0.109596
v 0.364797 3.096591 -0.109596
v 0.227663 3.180393 -0.248434
v 0.227663 3.180393 -0.248434
v 0.364797 3.096591 -0.109596
v 0.227663 3.180393 -0.248434
v 0.228587 3.094301 -0.051650
v 0.228587 3.094301 -0.051650
v 0.227663 3.180393 -0.248434
v 0.227663 3.180393 -0.248434
v 0.228587 3.094301 -0.051650
v 0.227663 3.180393 -0.248434
v 0.092377 3.093574 -0.109637
v 0.092377 3.093574 -0.109637
v 0.227663 3.180393 -0.248434
v 0.227663 3.180393 -0.248434
v 0.092377 3.093574 -0.109637
v 0.227663 3.180393 -0.248434
v 0.035957 3.094835 -0.249587
v 0.035957 3.094835 -0.249587
v 0.227663 3.180393 -0.248434
v 0.227663 3.180393 -0.248434
v 0.035957 3.094835 -0.249587
v 0.227663 3.180393 -0.248434
v 0.092377 3.097346 -0.389521
v 0.092377 3.097346 -0.389521
v 0.227663 3.180393 -0.248434
v 0.227663 3.180393 -0.248434
v 0.092377 3.097346 -0.389521
v 0.227663 3.180393 -0.248434
v 0.228587 3.099636 -0.447466
v 0.228587 3.099636 -0.447466
v 0.227663 3.180393 -0.248434
v 0.227663 3.180393 -0.248434
v 0.228587 3.099636 -0.447466
v 0.227663 3.180393 -0.248434
v 0.364797 3.100364 -0.389480
v 0.364797 3.100364 -0.389480
v 0.227663 3.180393 -0.248434
v 0.227663 3.180393 -0.248434
v 0.364797 3.100364 -0.389480
v 0.227663 3.180393 -0.248434
v 0.421216 3.099102 -0.249529
v 0.168487 2.649376 0.128416
v 0.379997 2.742704 0.129674
v 0.317752 2.739820 0.292509
v 0.168487 2.649376 0.128416
v 0.317752 2.739820 0.292509
v 0.168487 2.649376 0.128416
v 0.168487 2.649376 0.128416
v 0.317752 2.739820 0.292509
v 0.167479 2.737246 0.359938
v 0.168487 2.649376 0.128416
v 0.167479 2.737246 0.359938
v 0.168487 2.649376 0.128416
v 0.168487 2.649376 0.128416
v 0.167479 2.737246 0.359938
v 0.017207 2.736491 0.292464
v 0.168487 2.649376 0.128416
v 0.017207 2.736491 0.292464
v 0.168487 2.649376 0.128416
v 0.168487 2.649376 0.128416
v 0.017207 2.736491 0.292464
v -0.045038 2.737996 0.129610
v 0.168487 2.649376 0.128416
v -0.045038 2.737996 0.129610
v 0.168487 2.649376 0.128416
v 0.168487 2.649376 0.128416
v -0.045038 2.737996 0.129610
v 0.017207 2.740880 -0.033224
v 0.168487 2.649376 0.128416
v 0.017207 2.740880 -0.033224
v 0.168487 2.649376 0.128416
v 0.168487 2.649376 0.128416
v 0.017207 2.740880 -0.033224
v 0.167479 2.743454 -0.100654
v 0.168487 2.649376 0.128416
v 0.167479 2.743454 -0.100654
v 0.168487 2.649376 0.128416
v 0.168487 2.649376 0.128416
v 0.167479 2.743454 -0.100654
v 0.317752 2.744210 -0.033179
v 0.168487 2.649376 0.128416
v 0.317752 2.744210 -0.033179
v 0.168487 2.649376 0.128416
v 0.168487 2.649376 0.128416
v 0.317752 2.744210 -0.033179
v 0.379997 2.742704 0.129674
v 0.168487 2.649376 0.128416
v 0.379997 2.742704 0.129674
v 0.168487 2.649376 0.128416
v 0.379997 2.742704 0.129674
v 0.465592 2.963310 0.132647
v 0.377564 2.959231 0.362930
v 0.379997 2.742704 0.129674
v 0.377564 2.959231 0.362930
v 0.317752 2.739820 0.292509
v 0.317752 2.739820 0.292509
v 0.377564 2.959231 0.362930
v 0.165046 2.955592 0.458290
v 0.317752 2.739820 0.292509
v 0.165046 2.955592 0.458290
v 0.167479 2.737246 0.359938
v 0.167479 2.737246 0.359938
v 0.165046 2.955592 0.458290
v -0.047472 2.954524 0.362867
v 0.167479 2.737246 0.359938
v -0.047472 2.954524 0.362867
v 0.017207 2.736491 0.292464
v 0.017207 2.736491 0.292464
v -0.047472 2.954524 0.362867
v -0.135499 2.956653 0.132558
v 0.017207 2.736491 0.292464
v -0.135499 2.956653 0.132558
v -0.045038 2.737996 0.129610
v -0.045038 2.737996 0.129610
v -0.135499 2.956653 0.132558
v -0.047472 2.960732 -0.097725
v -0.045038 2.737996 0.129610
v -0.047472 2.960732 -0.097725
v 0.017207 2.740880 -0.033224
v 0.017207 2.740880 -0.033224
v -0.047472 2.960732 -0.097725
v 0.165046 2.964371 -0.193086
v 0.017207 2.740880 -0.033224
v 0.165046 2.964371 -0.193086
v 0.167479 2.743454 -0.100654
v 0.167479 2.743454 -0.100654
v 0.165046 2.964371 -0.193086
v 0.377564 2.965439 -0.097662
v 0.167479 2.743454 -0.100654
v 0.377564 2.965439 -0.097662
v 0.317752 2.744210 -0.033179
v 0.317752 2.744210 -0.033179
v 0.377564 2.965439 -0.097662
v 0.465592 2.963310 0.132647
v 0.317752 2.744210 -0.033179
v 0.465592 2.963310 0.132647
v 0.379997 2.742704 0.129674
v 0.465592 2.963310 0.132647
v 0.375131 3.181967 0.135594
v 0.312886 3.179083 0.298429
v 0.465592 2.963310 0.132647
v 0.312886 3.179083 0.298429
v 0.377564 2.959231 0.362930
v 0.377564 2.959231 0.362930
v 0.312886 3.179083 0.298429
v 0.162613 3.176509 0.365859
v 0.377564 2.959231 0.362930
v 0.162613 3.176509 0.365859
v 0.165046 2.955592 0.458290
v 0.165046 2.955592 0.458290
v 0.162613 3.176509 0.365859
v 0.012340 3.175754 0.298384
v 0.165046 2.955592 0.458290
v 0.012340 3.175754 0.298384
v -0.047472 2.954524 0.362867
v -0.047472 2.954524 0.362867
v 0.012340 3.175754 0.298384
v -0.049905 3.177259 0.135531
v -0.047472 2.954524 0.362867
v -0.049905 3.177259 0.135531
v -0.135499 2.956653 0.132558
v -0.135499 2.956653 0.132558
v -0.049905 3.177259 0.135531
v 0.012340 3.180143 -0.027304
v -0.135499 2.956653 0.132558
v 0.012340 3.180143 -0.027304
v -0.047472 2.960732 -0.097725
v -0.047472 2.960732 -0.097725
v 0.012340 3.180143 -0.027304
v 0.162613 3.182717 -0.094733
v -0.047472 2.960732 -0.097725
v 0.162613 3.182717 -0.094733
v 0.165046 2.964371 -0.193086
v 0.165046 2.964371 -0.193086
v 0.162613 3.182717 -0.094733
v 0.312886 3.183472 -0.027259
v 0.165046 2.964371 -0.193086
v 0.312886 3.183472 -0.027259
v 0.377564 2.965439 -0.097662
v 0.377564 2.965439 -0.097662
v 0.312886 3.183472 -0.027259
v 0.375131 3.181967 0.135594
v 0.377564 2.965439 -0.097662
v 0.375131 3.181967 0.135594
v 0.465592 2.963310 0.132647
v 0.375131 3.181967 0.135594
v 0.161605 3.270587 0.136789
v 0.161605 3.270587 0.136789
v 0.375131 3.181967 0.135594
v 0.161605 3.270587 0.136789
v 0.312886 3.179083 0.298429
v 0.312886 3.179083 0.298429
v 0.161605 3.270587 0.136789
v 0.161605 3.270587 0.136789
v 0.312886 3.179083 0.298429
v 0.161605 3.270587 0.136789
v 0.162613 3.176509 0.365859
v 0.162613 3.176509 0.365859
v 0.161605 3.270587 0.136789
v 0.161605 3.270587 0.136789
v 0.162613 3.176509 0.365859
v 0.161605 3.270587 0.136789
v 0.012340 3.175754 0.298384
v 0.012340 3.175754 0.298384
v 0.161605 3.270587 0.136789
v 0.161605 3.270587 0.136789
v 0.012340 3.175754 0.298384
v 0.161605 3.270587 0.136789
v -0.049905 3.177259 0.135531
v -0.049905 3.177259 0.135531
v 0.161605 3.270587 0.136789
v 0.161605 3.270587 0.136789
v -0.049905 3.177259 0.135531
v 0.161605 3.270587 0.136789
v 0.012340 3.180143 -0.027304
v 0.012340 3.180143 -0.027304
v 0.161605 3.270587 0.136789
v 0.161605 3.270587 0.136789
v 0.012340 3.180143 -0.027304
v 0.161605 3.270587 0.136789
v 0.162613 3.182717 -0.094733
v 0.162613 3.182717 -0.094733
v 0.161605 3.270587 0.136789
v 0.161605 3.270587 0.136789
v 0.162613 3.182717 -0.094733
v 0.161605 3.270587 0.136789
v 0.312886 3.183472 -0.027259
v 0.312886 3.183472 -0.027259
v 0.161605 3.270587 0.136789
v 0.161605 3.270587 0.136789
v 0.312886 3.183472 -0.027259
v 0.161605 3.270587 0.136789
v 0.375131 3.181967 0.135594
v -0.103246 2.689408 0.239754
v 0.128069 2.790507 0.241116
v 0.059999 2.787760 0.388991
v -0.103246 2.689408 0.239754
v 0.059999 2.787760 0.388991
v -0.103246 2.689408 0.239754
v -0.103246 2.689408 0.239754
v 0.059999 2.787760 0.388991
v -0.104337 2.785114 0.450222
v -0.103246 2.689408 0.239754
v -0.104337 2.785114 0.450222
v -0.103246 2.689408 0.239754
v -0.103246 2.689408 0.239754
v -0.104337 2.785114 0.450222
v -0.268673 2.784119 0.388942
v -0.103246 2.689408 0.239754
v -0.268673 2.784119 0.388942
v -0.103246 2.689408 0.239754
v -0.103246 2.689408 0.239754
v -0.268673 2.784119 0.388942
v -0.336743 2.785359 0.241047
v -0.103246 2.689408 0.239754
v -0.336743 2.785359 0.241047
v -0.103246 2.689408 0.239754
v -0.103246 2.689408 0.239754
v -0.336743 2.785359 0.241047
v -0.268673 2.788106 0.093172
v -0.103246 2.689408 0.239754
v -0.268673 2.788106 0.093172
v -0.103246 2.689408 0.239754
v -0.103246 2.689408 0.239754
v -0.268673 2.788106 0.093172
v -0.104337 2.790751 0.031941
v -0.103246 2.689408 0.239754
v -0.104337 2.790751 0.031941
v -0.103246 2.689408 0.239754
v -0.103246 2.689408 0.239754
v -0.104337 2.790751 0.031941
v 0.059999 2.791746 0.093221
v -0.103246 2.689408 0.239754
v 0.059999 2.791746 0.093221
v -0.103246 2.689408 0.239754
v -0.103246 2.689408 0.239754
v 0.059999 2.791746 0.093221
v 0.128069 2.790507 0.241116
v -0.103246 2.689408 0.239754
v 0.128069 2.790507 0.241116
v -0.103246 2.689408 0.239754
v 0.128069 2.790507 0.241116
v 0.221700 3.029434 0.244337
v 0.125434 3.025548 0.453463
v 0.128069 2.790507 0.241116
v 0.125434 3.025548 0.453463
v 0.059999 2.787760 0.388991
v 0.059999 2.787760 0.388991
v 0.125434 3.025548 0.453463
v -0.106972 3.021807 0.540057
v 0.059999 2.787760 0.388991
v -0.106972 3.021807 0.540057
v -0.104337 2.785114 0.450222
v -0.104337 2.785114 0.450222
v -0.106972 3.021807 0.540057
v -0.339378 3.020400 0.453394
v -0.104337 2.785114 0.450222
v -0.339378 3.020400 0.453394
v -0.268673 2.784119 0.388942
v -0.268673 2.784119 0.388942
v -0.339378 3.020400 0.453394
v -0.435644 3.022153 0.244239
v -0.268673 2.784119 0.388942
v -0.435644 3.022153 0.244239
v -0.336743 2.785359 0.241047
v -0.336743 2.785359 0.241047
v -0.435644 3.022153 0.244239
v -0.339378 3.026038 0.035112
v -0.336743 2.785359 0.241047
v -0.339378 3.026038 0.035112
v -0.268673 2.788106 0.093172
v -0.268673 2.788106 0.093172
v -0.339378 3.026038 0.035112
v -0.106972 3.029780 -0.051482
v -0.268673 2.788106 0.093172
v -0.106972 3.029780 -0.051482
v -0.104337 2.790751 0.031941
v -0.104337 2.790751 0.031941
v -0.106972 3.029780 -0.051482
v 0.125434 3.031186 0.035182
v -0.104337 2.790751 0.031941
v 0.125434 3.031186 0.035182
v 0.059999 2.791746 0.093221
v 0.059999 2.791746 0.093221
v 0.125434 3.031186 0.035182
v 0.221700 3.029434 0.244337
v 0.059999 2.791746 0.093221
v 0.221700 3.029434 0.244337
v 0.128069 2.790507 0.241116
v 0.221700 3.029434 0.244337
v 0.122799 3.266228 0.247528
v 0.054729 3.263481 0.395403
v 0.221700 3.029434 0.244337
v 0.054729 3.263481 0.395403
v 0.125434 3.025548 0.453463
v 0.125434 3.025548 0.453463
v 0.054729 3.263481 0.395403
v -0.109607 3.260835 0.456634
v 0.125434 3.025548 0.453463
v -0.109607 3.260835 0.456634
v -0.106972 3.021807 0.540057
v -0.106972 3.021807 0.540057
v -0.109607 3.260835 0.456634
v -0.273943 3.259840 0.395354
v -0.106972 3.021807 0.540057
v -0.273943 3.259840 0.395354
v -0.339378 3.020400 0.453394
v -0.339378 3.020400 0.453394
v -0.273943 3.259840 0.395354
v -0.342013 3.261080 0.247459
v -0.339378 3.020400 0.453394
v -0.342013 3.261080 0.247459
v -0.435644 3.022153 0.244239
v -0.435644 3.022153 0.244239
v -0.342013 3.261080 0.247459
v -0.273943 3.263827 0.099584
v -0.435644 3.022153 0.244239
v -0.273943 3.263827 0.099584
v -0.339378 3.026038 0.035112
v -0.339378 3.026038 0.035112
v -0.273943 3.263827 0.099584
v -0.109607 3.266473 0.038353
v -0.339378 3.026038 0.035112
v -0.109607 3.266473 0.038353
v -0.106972 3.029780 -0.051482
v -0.106972 3.029780 -0.051482
v -0.109607 3.266473 0.038353
v 0.054729 3.267467 0.099633
v -0.106972 3.029780 -0.051482
v 0.054729 3.267467 0.099633
v 0.125434 3.031186 0.035182
v 0.125434 3.031186 0.035182
v 0.054729 3.267467 0.099633
v 0.122799 3.266228 0.247528
v 0.125434 3.031186 0.035182
v 0.122799 3.266228 0.247528
v 0.221700 3.029434 0.244337
v 0.122799 3.266228 0.247528
v -0.110699 3.362179 0.248822
v -0.110699 3.362179 0.248822
v 0.122799 3.266228 0.247528
v -0.110699 3.362179 0.248822
v 0.054729 3.263481 0.395403
v 0.054729 3.263481 0.395403
v -0.110699 3.362179 0.248822
v -0.110699 3.362179 0.248822
v 0.054729 3.263481 0.395403
v -0.110699 3.362179 0.248822
v -0.109607 3.260835 0.456634
v -0.109607 3.260835 0.456634
v -0.110699 3.362179 0.248822
v -0.110699 3.362179 0.248822
v -0.109607 3.260835 0.456634
v -0.110699 3.362179 0.248822
v -0.273943 3.259840 0.395354
v -0.273943 3.259840 0.395354
v -0.110699 3.362179 0.248822
v -0.110699 3.362179 0.248822
v -0.273943 3.259840 0.395354
v -0.110699 3.362179 0.248822
v -0.342013 3.261080 0.247459
v -0.342013 3.261080 0.247459
v -0.110699 3.362179 0.248822
v -0.110699 3.362179 0.248822
v -0.342013 3.261080 0.247459
v -0.110699 3.362179 0.248822
v -0.273943 3.263827 0.099584
v -0.273943 3.263827 0.099584
v -0.110699 3.362179 0.248822
v -0.110699 3.362179 0.248822
v -0.273943 3.263827 0.099584
v -0.110699 3.362179 0.248822
v -0.109607 3.266473 0.038353
v -0.109607 3.266473 0.038353
v -0.110699 3.362179 0.248822
v -0.110699 3.362179 0.248822
v -0.109607 3.266473 0.038353
v -0.110699 3.362179 0.248822
v 0.054729 3.267467 0.099633
v 0.054729 3.267467 0.099633
v -0.110699 3.362179 0.248822
v -0.110699 3.362179 0.248822
v 0.054729 3.267467 0.099633
v -0.110699 3.362179 0.248822
v 0.122799 3.266228 0.247528
v -0.265826 2.846517 -0.082219
v -0.014350 2.923171 -0.081186
v -0.088245 2.920053 0.089379
v -0.265826 2.846517 -0.082219
v -0.088245 2.920053 0.089379
v -0.265826 2.846517 -0.082219
v -0.265826 2.846517 -0.082219
v -0.088245 2.920053 0.089379
v -0.266644 2.917125 0.160007
v -0.265826 2.846517 -0.082219
v -0.266644 2.917125 0.160007
v -0.265826 2.846517 -0.082219
v -0.265826 2.846517 -0.082219
v -0.266644 2.917125 0.160007
v -0.445043 2.916101 0.089325
v -0.265826 2.846517 -0.082219
v -0.445043 2.916101 0.089325
v -0.265826 2.846517 -0.082219
v -0.265826 2.846517 -0.082219
v -0.445043 2.916101 0.089325
v -0.518939 2.917582 -0.081261
v -0.265826 2.846517 -0.082219
v -0.518939 2.917582 -0.081261
v -0.265826 2.846517 -0.082219
v -0.265826 2.846517 -0.082219
v -0.518939 2.917582 -0.081261
v -0.445043 2.920699 -0.251826
v -0.265826 2.846517 -0.082219
v -0.445043 2.920699 -0.251826
v -0.265826 2.846517 -0.082219
v -0.265826 2.846517 -0.082219
v -0.445043 2.920699 -0.251826
v -0.266644 2.923627 -0.322454
v -0.265826 2.846517 -0.082219
v -0.266644 2.923627 -0.322454
v -0.265826 2.846517 -0.082219
v -0.265826 2.846517 -0.082219
v -0.266644 2.923627 -0.322454
v -0.088245 2.924651 -0.251773
v -0.265826 2.846517 -0.082219
v -0.088245 2.924651 -0.251773
v -0.265826 2.846517 -0.082219
v -0.265826 2.846517 -0.082219
v -0.088245 2.924651 -0.251773
v -0.014350 2.923171 -0.081186
v -0.265826 2.846517 -0.082219
v -0.014350 2.923171 -0.081186
v -0.265826 2.846517 -0.082219
v -0.014350 2.923171 -0.081186
v 0.088178 3.102640 -0.078767
v -0.016325 3.098231 0.162448
v -0.014350 2.923171 -0.081186
v -0.016325 3.098231 0.162448
v -0.088245 2.920053 0.089379
v -0.088245 2.920053 0.089379
v -0.016325 3.098231 0.162448
v -0.268620 3.094090 0.262331
v -0.088245 2.920053 0.089379
v -0.268620 3.094090 0.262331
v -0.266644 2.917125 0.160007
v -0.266644 2.917125 0.160007
v -0.268620 3.094090 0.262331
v -0.520914 3.092642 0.162373
v -0.266644 2.917125 0.160007
v -0.520914 3.092642 0.162373
v -0.445043 2.916101 0.089325
v -0.445043 2.916101 0.089325
v -0.520914 3.092642 0.162373
v -0.625418 3.094736 -0.078874
v -0.445043 2.916101 0.089325
v -0.625418 3.094736 -0.078874
v -0.518939 2.917582 -0.081261
v -0.518939 2.917582 -0.081261
v -0.625418 3.094736 -0.078874
v -0.520914 3.099145 -0.320089
v -0.518939 2.917582 -0.081261
v -0.520914 3.099145 -0.320089
v -0.445043 2.920699 -0.251826
v -0.445043 2.920699 -0.251826
v -0.520914 3.099145 -0.320089
v -0.268620 3.103287 -0.419972
v -0.445043 2.920699 -0.251826
v -0.268620 3.103287 -0.419972
v -0.266644 2.923627 -0.322454
v -0.266644 2.923627 -0.322454
v -0.268620 3.103287 -0.419972
v -0.016325 3.104734 -0.320013
v -0.266644 2.923627 -0.322454
v -0.016325 3.104734 -0.320013
v -0.088245 2.924651 -0.251773
v -0.088245 2.924651 -0.251773
v -0.016325 3.104734 -0.320013
v 0.088178 3.102640 -0.078767
v -0.088245 2.924651 -0.251773
v 0.088178 3.102640 -0.078767
v -0.014350 2.923171 -0.081186
v 0.088178 3.102640 -0.078767
v -0.018301 3.279795 -0.076379
v -0.092196 3.276678 0.094185
v 0.088178 3.102640 -0.078767
v -0.092196 3.276678 0.094185
v -0.016325 3.098231 0.162448
v -0.016325 3.098231 0.162448
v -0.092196 3.276678 0.094185
v -0.270595 3.273749 0.164814
v -0.016325 3.098231 0.162448
v -0.270595 3.273749 0.164814
v -0.268620 3.094090 0.262331
v -0.268620 3.094090 0.262331
v -0.270595 3.273749 0.164814
v -0.448994 3.272726 0.094132
v -0.268620 3.094090 0.262331
v -0.448994 3.272726 0.094132
v -0.520914 3.092642 0.162373
v -0.520914 3.092642 0.162373
v -0.448994 3.272726 0.094132
v -0.522889 3.274206 -0.076455
v -0.520914 3.092642 0.162373
v -0.522889 3.274206 -0.076455
v -0.625418 3.094736 -0.078874
v -0.625418 3.094736 -0.078874
v -0.522889 3.274206 -0.076455
v -0.448994 3.277324 -0.247020
v -0.625418 3.094736 -0.078874
v -0.448994 3.277324 -0.247020
v -0.520914 3.099145 -0.320089
v -0.520914 3.099145 -0.320089
v -0.448994 3.277324 -0.247020
v -0.270595 3.280252 -0.317648
v -0.520914 3.099145 -0.320089
v -0.270595 3.280252 -0.317648
v -0.268620 3.103287 -0.419972
v -0.268620 3.103287 -0.419972
v -0.270595 3.280252 -0.317648
v -0.092196 3.281276 -0.246966
v -0.268620 3.103287 -0.419972
v -0.092196 3.281276 -0.246966
v -0.016325 3.104734 -0.320013
v -0.016325 3.104734 -0.320013
v -0.092196 3.281276 -0.246966
v -0.018301 3.279795 -0.076379
v -0.016325 3.104734 -0.320013
v -0.018301 3.279795 -0.076379
v 0.088178 3.102640 -0.078767
v -0.018301 3.279795 -0.076379
v -0.271413 3.350860 -0.075422
v -0.271413 3.350860 -0.075422
v -0.018301 3.279795 -0.076379
v -0.271413 3.350860 -0.075422
v -0.092196 3.276678 0.094185
v -0.092196 3.276678 0.094185
v -0.271413 3.350860 -0.075422
v -0.271413 3.350860 -0.075422
v -0.092196 3.276678 0.094185
v -0.271413 3.350860 -0.075422
v -0.270595 3.273749 0.164814
v -0.270595 3.273749 0.164814
v -0.271413 3.350860 -0.075422
v -0.271413 3.350860 -0.075422
v -0.270595 3.273749 0.164814
v -0.271413 3.350860 -0.075422
v -0.448994 3.272726 0.094132
v -0.448994 3.272726 0.094132
v -0.271413 3.350860 -0.075422
v -0.271413 3.350860 -0.075422
v -0.448994 3.272726 0.094132
v -0.271413 3.350860 -0.075422
v -0.522889 3.274206 -0.076455
v -0.522889 3.274206 -0.076455
v -0.271413 3.350860 -0.075422
v -0.271413 3.350860 -0.075422
v -0.522889 3.274206 -0.076455
v -0.271413 3.350860 -0.075422
v -0.448994 3.277324 -0.247020
v -0.448994 3.277324 -0.247020
v -0.271413 3.350860 -0.075422
v -0.271413 3.350860 -0.075422
v -0.448994 3.277324 -0.247020
v -0.271413 3.350860 -0.075422
v -0.270595 3.280252 -0.317648
v -0.270595 3.280252 -0.317648
v -0.271413 3.350860 -0.075422
v -0.271413 3.350860 -0.075422
v -0.270595 3.280252 -0.317648
v -0.271413 3.350860 -0.075422
v -0.092196 3.281276 -0.246966
v -0.092196 3.281276 -0.246966
v -0.271413 3.350860 -0.075422
v -0.271413 3.350860 -0.075422
v -0.092196 3.281276 -0.246966
v -0.271413 3.350860 -0.075422
v -0.018301 3.279795 -0.076379
v 0.106024 2.598143 -0.307723
v 0.292449 2.681628 -0.306598
v 0.237582 2.679212 -0.172504
v 0.106024 2.598143 -0.307723
v 0.237582 2.679212 -0.172504
v 0.106024 2.598143 -0.307723
v 0.106024 2.598143 -0.307723
v 0.237582 2.679212 -0.172504
v 0.105122 2.676997 -0.116976
v 0.106024 2.598143 -0.307723
v 0.105122 2.676997 -0.116976
v 0.106024 2.598143 -0.307723
v 0.106024 2.598143 -0.307723
v 0.105122 2.676997 -0.116976
v -0.027338 2.676278 -0.172543
v 0.106024 2.598143 -0.307723
v -0.027338 2.676278 -0.172543
v 0.106024 2.598143 -0.307723
v 0.106024 2.598143 -0.307723
v -0.027338 2.676278 -0.172543
v -0.082204 2.677478 -0.306654
v 0.106024 2.598143 -0.307723
v -0.082204 2.677478 -0.306654
v 0.106024 2.598143 -0.307723
v 0.106024 2.598143 -0.307723
v -0.082204 2.677478 -0.306654
v -0.027338 2.679893 -0.440749
v 0.106024 2.598143 -0.307723
v -0.027338 2.679893 -0.440749
v 0.106024 2.598143 -0.307723
v 0.106024 2.598143 -0.307723
v -0.027338 2.679893 -0.440749
v 0.105122 2.682109 -0.496276
v 0.106024 2.598143 -0.307723
v 0.105122 2.682109 -0.496276
v 0.106024 2.598143 -0.307723
v 0.106024 2.598143 -0.307723
v 0.105122 2.682109 -0.496276
v 0.237582 2.682827 -0.440709
v 0.106024 2.598143 -0.307723
v 0.237582 2.682827 -0.440709
v 0.106024 2.598143 -0.307723
v 0.106024 2.598143 -0.307723
v 0.237582 2.682827 -0.440709
v 0.292449 2.681628 -0.306598
v 0.106024 2.598143 -0.307723
v 0.292449 2.681628 -0.306598
v 0.106024 2.598143 -0.307723
v 0.292449 2.681628 -0.306598
v 0.367865 2.879029 -0.303938
v 0.290271 2.875613 -0.114299
v 0.292449 2.681628 -0.306598
v 0.290271 2.875613 -0.114299
v 0.237582 2.679212 -0.172504
v 0.237582 2.679212 -0.172504
v 0.290271 2.875613 -0.114299
v 0.102945 2.872479 -0.035772
v 0.237582 2.679212 -0.172504
v 0.102945 2.872479 -0.035772
v 0.105122 2.676997 -0.116976
v 0.105122 2.676997 -0.116976
v 0.102945 2.872479 -0.035772
v -0.084382 2.871463 -0.114355
v 0.105122 2.676997 -0.116976
v -0.084382 2.871463 -0.114355
v -0.027338 2.676278 -0.172543
v -0.027338 2.676278 -0.172543
v -0.084382 2.871463 -0.114355
v -0.161975 2.873160 -0.304017
v -0.027338 2.676278 -0.172543
v -0.161975 2.873160 -0.304017
v -0.082204 2.677478 -0.306654
v -0.082204 2.677478 -0.306654
v -0.161975 2.873160 -0.304017
v -0.084382 2.876576 -0.493655
v -0.082204 2.677478 -0.306654
v -0.084382 2.876576 -0.493655
v -0.027338 2.679893 -0.440749
v -0.027338 2.679893 -0.440749
v -0.084382 2.876576 -0.493655
v 0.102945 2.879709 -0.572182
v -0.027338 2.679893 -0.440749
v 0.102945 2.879709 -0.572182
v 0.105122 2.682109 -0.496276
v 0.105122 2.682109 -0.496276
v 0.102945 2.879709 -0.572182
v 0.290271 2.880725 -0.493599
v 0.105122 2.682109 -0.496276
v 0.290271 2.880725 -0.493599
v 0.237582 2.682827 -0.440709
v 0.237582 2.682827 -0.440709
v 0.290271 2.880725 -0.493599
v 0.367865 2.879029 -0.303938
v 0.237582 2.682827 -0.440709
v 0.367865 2.879029 -0.303938
v 0.292449 2.681628 -0.306598
v 0.367865 2.879029 -0.303938
v 0.288094 3.074710 -0.301300
v 0.233227 3.072295 -0.167206
v 0.367865 2.879029 -0.303938
v 0.233227 3.072295 -0.167206
v 0.290271 2.875613 -0.114299
v 0.290271 2.875613 -0.114299
v 0.233227 3.072295 -0.167206
v 0.100768 3.070080 -0.111678
v 0.290271 2.875613 -0.114299
v 0.100768 3.070080 -0.111678
v 0.102945 2.872479 -0.035772
v 0.102945 2.872479 -0.035772
v 0.100768 3.070080 -0.111678
v -0.031692 3.069361 -0.167245
v 0.102945 2.872479 -0.035772
v -0.031692 3.069361 -0.167245
v -0.084382 2.871463 -0.114355
v -0.084382 2.871463 -0.114355
v -0.031692 3.069361 -0.167245
v -0.086559 3.070561 -0.301356
v -0.084382 2.871463 -0.114355
v -0.086559 3.070561 -0.301356
v -0.161975 2.873160 -0.304017
v -0.161975 2.873160 -0.304017
v -0.086559 3.070561 -0.301356
v -0.031692 3.072976 -0.435451
v -0.161975 2.873160 -0.304017
v -0.031692 3.072976 -0.435451
v -0.084382 2.876576 -0.493655
v -0.084382 2.876576 -0.493655
v -0.031692 3.072976 -0.435451
v 0.100768 3.075192 -0.490978
v -0.084382 2.876576 -0.493655
v 0.100768 3.075192 -0.490978
v 0.102945 2.879709 -0.572182
v 0.102945 2.879709 -0.572182
v 0.100768 3.075192 -0.490978
v 0.233227 3.075910 -0.435411
v 0.102945 2.879709 -0.572182
v 0.233227 3.075910 -0.435411
v 0.290271 2.880725 -0.493599
v 0.290271 2.880725 -0.493599
v 0.233227 3.075910 -0.435411
v 0.288094 3.074710 -0.301300
v 0.290271 2.880725 -0.493599
v 0.288094 3.074710 -0.301300
v 0.367865 2.879029 -0.303938
v 0.288094 3.074710 -0.301300
v 0.099866 3.154046 -0.300231
v 0.099866 3.154046 -0.300231
v 0.288094 3.074710 -0.301300
v 0.099866 3.154046 -0.300231
v 0.233227 3.072295 -0.167206
v 0.233227 3.072295 -0.167206
v 0.099866 3.154046 -0.300231
v 0.099866 3.154046 -0.300231
v 0.233227 3.072295 -0.167206
v 0.099866 3.154046 -0.300231
v 0.100768 3.070080 -0.111678
v 0.100768 3.070080 -0.111678
v 0.099866 3.154046 -0.300231
v 0.099866 3.154046 -0.300231
v 0.100768 3.070080 -0.111678
v 0.099866 3.154046 -0.300231
v -0.031692 3.069361 -0.167245
v -0.031692 3.069361 -0.167245
v 0.099866 3.154046 -0.300231
v 0.099866 3.154046 -0.300231
v -0.031692 3.069361 -0.167245
v 0.099866 3.154046 -0.300231
v -0.086559 3.070561 -0.301356
v -0.086559 3.070561 -0.301356
v 0.099866 3.154046 -0.300231
v 0.099866 3.154046 -0.300231
v -0.086559 3.070561 -0.301356
v 0.099866 3.154046 -0.300231
v -0.031692 3.072976 -0.435451
v -0.031692 3.072976 -0.435451
v 0.099866 3.154046 -0.300231
v 0.099866 3.154046 -0.300231
v -0.031692 3.072976 -0.435451
v 0.099866 3.154046 -0.300231
v 0.100768 3.075192 -0.490978
v 0.100768 3.075192 -0.490978
v 0.099866 3.154046 -0.300231
v 0.099866 3.154046 -0.300231
v 0.100768 3.075192 -0.490978
v 0.099866 3.154046 -0.300231
v 0.233227 3.075910 -0.435411
v 0.233227 3.075910 -0.435411
v 0.099866 3.154046 -0.300231
v 0.099866 3.154046 -0.300231
v 0.233227 3.075910 -0.435411
v 0.099866 3.154046 -0.300231
v 0.288094 3.074710 -0.301300
v 0.182745 2.638623 0.056745
v 0.388974 2.729879 0.057975
v 0.328282 2.727097 0.214549
v 0.182745 2.638623 0.056745
v 0.328282 2.727097 0.214549
v 0.182745 2.638623 0.056745
v 0.182745 2.638623 0.056745
v 0.328282 2.727097 0.214549
v 0.181759 2.724599 0.279386
v 0.182745 2.638623 0.056745
v 0.181759 2.724599 0.279386
v 0.182745 2.638623 0.056745
v 0.182745 2.638623 0.056745
v 0.181759 2.724599 0.279386
v 0.035236 2.723851 0.214505
v 0.182745 2.638623 0.056745
v 0.035236 2.723851 0.214505
v 0.182745 2.638623 0.056745
v 0.182745 2.638623 0.056745
v 0.035236 2.723851 0.214505
v -0.025456 2.725289 0.057913
v 0.182745 2.638623 0.056745
v -0.025456 2.725289 0.057913
v 0.182745 2.638623 0.056745
v 0.182745 2.638623 0.056745
v -0.025456 2.725289 0.057913
v 0.035236 2.728072 -0.098660
v 0.182745 2.638623 0.056745
v 0.035236 2.728072 -0.098660
v 0.182745 2.638623 0.056745
v 0.182745 2.638623 0.056745
v 0.035236 2.728072 -0.098660
v 0.181759 2.730569 -0.163497
v 0.182745 2.638623 0.056745
v 0.181759 2.730569 -0.163497
v 0.182745 2.638623 0.056745
v 0.182745 2.638623 0.056745
v 0.181759 2.730569 -0.163497
v 0.328282 2.731318 -0.098617
v 0.182745 2.638623 0.056745
v 0.328282 2.731318 -0.098617
v 0.182745 2.638623 0.056745
v 0.182745 2.638623 0.056745
v 0.328282 2.731318 -0.098617
v 0.388974 2.729879 0.057975
v 0.182745 2.638623 0.056745
v 0.388974 2.729879 0.057975
v 0.182745 2.638623 0.056745
v 0.388974 2.729879 0.057975
v 0.472426 2.945601 0.060883
v 0.386595 2.941665 0.282311
v 0.388974 2.729879 0.057975
v 0.386595 2.941665 0.282311
v 0.328282 2.727097 0.214549
v 0.328282 2.727097 0.214549
v 0.386595 2.941665 0.282311
v 0.179380 2.938134 0.374005
v 0.328282 2.727097 0.214549
v 0.179380 2.938134 0.374005
v 0.181759 2.724599 0.279386
v 0.181759 2.724599 0.279386
v 0.179380 2.938134 0.374005
v -0.027835 2.937075 0.282250
v 0.181759 2.724599 0.279386
v -0.027835 2.937075 0.282250
v 0.035236 2.723851 0.214505
v 0.035236 2.723851 0.214505
v -0.027835 2.937075 0.282250
v -0.113666 2.939109 0.060795
v 0.035236 2.723851 0.214505
v -0.113666 2.939109 0.060795
v -0.025456 2.725289 0.057913
v -0.025456 2.725289 0.057913
v -0.113666 2.939109 0.060795
v -0.027835 2.943044 -0.160633
v -0.025456 2.725289 0.057913
v -0.027835 2.943044 -0.160633
v 0.035236 2.728072 -0.098660
v 0.035236 2.728072 -0.098660
v -0.027835 2.943044 -0.160633
v 0.179380 2.946576 -0.252327
v 0.035236 2.728072 -0.098660
v 0.179380 2.946576 -0.252327
v 0.181759 2.730569 -0.163497
v 0.181759 2.730569 -0.163497
v 0.179380 2.946576 -0.252327
v 0.386595 2.947634 -0.160572
v 0.181759 2.730569 -0.163497
v 0.386595 2.947634 -0.160572
v 0.328282 2.731318 -0.098617
v 0.328282 2.731318 -0.098617
v 0.386595 2.947634 -0.160572
v 0.472426 2.945601 0.060883
v 0.328282 2.731318 -0.098617
v 0.472426 2.945601 0.060883
v 0.388974 2.729879 0.057975
v 0.472426 2.945601 0.060883
v 0.384216 3.159421 0.063765
v 0.323524 3.156638 0.220338
v 0.472426 2.945601 0.060883
v 0.323524 3.156638 0.220338
v 0.386595 2.941665 0.282311
v 0.386595 2.941665 0.282311
v 0.323524 3.156638 0.220338
v 0.177001 3.154141 0.285175
v 0.386595 2.941665 0.282311
v 0.177001 3.154141 0.285175
v 0.179380 2.938134 0.374005
v 0.179380 2.938134 0.374005
v 0.177001 3.154141 0.285175
v 0.030478 3.153392 0.220295
v 0.179380 2.938134 0.374005
v 0.030478 3.153392 0.220295
v -0.027835 2.937075 0.282250
v -0.027835 2.937075 0.282250
v 0.030478 3.153392 0.220295
v -0.030214 3.154830 0.063703
v -0.027835 2.937075 0.282250
v -0.030214 3.154830 0.063703
v -0.113666 2.939109 0.060795
v -0.113666 2.939109 0.060795
v -0.030214 3.154830 0.063703
v 0.030478 3.157613 -0.092871
v -0.113666 2.939109 0.060795
v 0.030478 3.157613 -0.092871
v -0.027835 2.943044 -0.160633
v -0.027835 2.943044 -0.160633
v 0.030478 3.157613 -0.092871
v 0.177001 3.160110 -0.157708
v -0.027835 2.943044 -0.160633
v 0.177001 3.160110 -0.157708
v 0.179380 2.946576 -0.252327
v 0.179380 2.946576 -0.252327
v 0.177001 3.160110 -0.157708
v 0.323524 3.160859 -0.092827
v 0.179380 2.946576 -0.252327
v 0.323524 3.160859 -0.092827
v 0.386595 2.947634 -0.160572
v 0.386595 2.947634 -0.160572
v 0.323524 3.160859 -0.092827
v 0.384216 3.159421 0.063765
v 0.386595 2.947634 -0.160572
v 0.384216 3.159421 0.063765
v 0.472426 2.945601 0.060883
v 0.384216 3.159421 0.063765
v 0.176015 3.246087 0.064933
v 0.176015 3.246087 0.064933
v 0.384216 3.159421 0.063765
v 0.176015 3.246087 0.064933
v 0.323524 3.156638 0.220338
v 0.323524 3.156638 0.220338
v 0.176015 3.246087 0.064933
v 0.176015 3.246087 0.064933
v 0.323524 3.156638 0.220338
v 0.176015 3.246087 0.064933
v 0.177001 3.154141 0.285175
v 0.177001 3.154141 0.285175
v 0.176015 3.246087 0.064933
v 0.176015 3.246087 0.064933
v 0.177001 3.154141 0.285175
v 0.176015 3.246087 0.064933
v 0.030478 3.153392 0.220295
v 0.030478 3.153392 0.220295
v 0.176015 3.246087 0.064933
v 0.176015 3.246087 0.064933
v 0.030478 3.153392 0.220295
v 0.176015 3.246087 0.064933
v -0.030214 3.154830 0.063703
v -0.030214 3.154830 0.063703
v 0.176015 3.246087 0.064933
v 0.176015 3.246087 0.064933
v -0.030214 3.154830 0.063703
v 0.176015 3.246087 0.064933
v 0.030478 3.157613 -0.092871
v 0.030478 3.157613 -0.092871
v 0.176015 3.246087 0.064933
v 0.176015 3.246087 0.064933
v 0.030478 3.157613 -0.092871
v 0.176015 3.246087 0.064933
v 0.177001 3.160110 -0.157708
v 0.177001 3.160110 -0.157708
v 0.176015 3.246087 0.064933
v 0.176015 3.246087 0.064933
v 0.177001 3.160110 -0.157708
v 0.176015 3.246087 0.064933
v 0.323524 3.160859 -0.092827
v 0.323524 3.160859 -0.092827
v 0.176015 3.246087 0.064933
v 0.176015 3.246087 0.064933
v 0.323524 3.160859 -0.092827
v 0.176015 3.246087 0.064933
v 0.384216 3.159421 0.063765
v -0.011241 2.678381 0.252286
v 0.214793 2.777408 0.253621
v 0.148276 2.774756 0.395713
v -0.011241 2.678381 0.252286
v 0.148276 2.774756 0.395713
v -0.011241 2.678381 0.252286
v -0.011241 2.678381 0.252286
v 0.148276 2.774756 0.395713
v -0.012310 2.772184 0.454549
v -0.011241 2.678381 0.252286
v -0.012310 2.772184 0.454549
v -0.011241 2.678381 0.252286
v -0.011241 2.678381 0.252286
v -0.012310 2.772184 0.454549
v -0.172896 2.771199 0.395665
v -0.011241 2.678381 0.252286
v -0.172896 2.771199 0.395665
v -0.011241 2.678381 0.252286
v -0.011241 2.678381 0.252286
v -0.172896 2.771199 0.395665
v -0.239413 2.772377 0.253553
v -0.011241 2.678381 0.252286
v -0.239413 2.772377 0.253553
v -0.011241 2.678381 0.252286
v -0.011241 2.678381 0.252286
v -0.239413 2.772377 0.253553
v -0.172896 2.775029 0.111461
v -0.011241 2.678381 0.252286
v -0.172896 2.775029 0.111461
v -0.011241 2.678381 0.252286
v -0.011241 2.678381 0.252286
v -0.172896 2.775029 0.111461
v -0.012310 2.777602 0.052625
v -0.011241 2.678381 0.252286
v -0.012310 2.777602 0.052625
v -0.011241 2.678381 0.252286
v -0.011241 2.678381 0.252286
v -0.012310 2.777602 0.052625
v 0.148276 2.778587 0.111509
v -0.011241 2.678381 0.252286
v 0.148276 2.778587 0.111509
v -0.011241 2.678381 0.252286
v -0.011241 2.678381 0.252286
v 0.148276 2.778587 0.111509
v 0.214793 2.777408 0.253621
v -0.011241 2.678381 0.252286
v 0.214793 2.777408 0.253621
v -0.011241 2.678381 0.252286
v 0.214793 2.777408 0.253621
v 0.306281 3.011450 0.256775
v 0.212212 3.007700 0.457723
v 0.214793 2.777408 0.253621
v 0.212212 3.007700 0.457723
v 0.148276 2.774756 0.395713
v 0.148276 2.774756 0.395713
v 0.212212 3.007700 0.457723
v -0.014891 3.004062 0.540931
v 0.148276 2.774756 0.395713
v -0.014891 3.004062 0.540931
v -0.012310 2.772184 0.454549
v -0.012310 2.772184 0.454549
v -0.014891 3.004062 0.540931
v -0.241995 3.002669 0.457656
v -0.012310 2.772184 0.454549
v -0.241995 3.002669 0.457656
v -0.172896 2.771199 0.395665
v -0.172896 2.771199 0.395665
v -0.241995 3.002669 0.457656
v -0.336064 3.004336 0.256679
v -0.172896 2.771199 0.395665
v -0.336064 3.004336 0.256679
v -0.239413 2.772377 0.253553
v -0.239413 2.772377 0.253553
v -0.336064 3.004336 0.256679
v -0.241995 3.008086 0.055731
v -0.239413 2.772377 0.253553
v -0.241995 3.008086 0.055731
v -0.172896 2.775029 0.111461
v -0.172896 2.775029 0.111461
v -0.241995 3.008086 0.055731
v -0.014891 3.011724 -0.027476
v -0.172896 2.775029 0.111461
v -0.014891 3.011724 -0.027476
v -0.012310 2.777602 0.052625
v -0.012310 2.777602 0.052625
v -0.014891 3.011724 -0.027476
v 0.212212 3.013117 0.055799
v -0.012310 2.777602 0.052625
v 0.212212 3.013117 0.055799
v 0.148276 2.778587 0.111509
v 0.148276 2.778587 0.111509
v 0.212212 3.013117 0.055799
v 0.306281 3.011450 0.256775
v 0.148276 2.778587 0.111509
v 0.306281 3.011450 0.256775
v 0.214793 2.777408 0.253621
v 0.306281 3.011450 0.256775
v 0.209630 3.243408 0.259902
v 0.143114 3.240756 0.401993
v 0.306281 3.011450 0.256775
v 0.143114 3.240756 0.401993
v 0.212212 3.007700 0.457723
v 0.212212 3.007700 0.457723
v 0.143114 3.240756 0.401993
v -0.017473 3.238184 0.460830
v 0.212212 3.007700 0.457723
v -0.017473 3.238184 0.460830
v -0.014891 3.004062 0.540931
v -0.014891 3.004062 0.540931
v -0.017473 3.238184 0.460830
v -0.178059 3.237199 0.401945
v -0.014891 3.004062 0.540931
v -0.178059 3.237199 0.401945
v -0.241995 3.002669 0.457656
v -0.241995 3.002669 0.457656
v -0.178059 3.237199 0.401945
v -0.244576 3.238378 0.259834
v -0.241995 3.002669 0.457656
v -0.244576 3.238378 0.259834
v -0.336064 3.004336 0.256679
v -0.336064 3.004336 0.256679
v -0.244576 3.238378 0.259834
v -0.178059 3.241030 0.117742
v -0.336064 3.004336 0.256679
v -0.178059 3.241030 0.117742
v -0.241995 3.008086 0.055731
v -0.241995 3.008086 0.055731
v -0.178059 3.241030 0.117742
v -0.017473 3.243602 0.058906
v -0.241995 3.008086 0.055731
v -0.017473 3.243602 0.058906
v -0.014891 3.011724 -0.027476
v -0.014891 3.011724 -0.027476
v -0.017473 3.243602 0.058906
v 0.143114 3.244587 0.117790
v -0.014891 3.011724 -0.027476
v 0.143114 3.244587 0.117790
v 0.212212 3.013117 0.055799
v 0.212212 3.013117 0.055799
v 0.143114 3.244587 0.117790
v 0.209630 3.243408 0.259902
v 0.212212 3.013117 0.055799
v 0.209630 3.243408 0.259902
v 0.306281 3.011450 0.256775
v 0.209630 3.243408 0.259902
v -0.018542 3.337405 0.261169
v -0.018542 3.337405 0.261169
v 0.209630 3.243408 0.259902
v -0.018542 3.337405 0.261169
v 0.143114 3.240756 0.401993
v 0.143114 3.240756 0.401993
v -0.018542 3.337405 0.261169
v -0.018542 3.337405 0.261169
v 0.143114 3.240756 0.401993
v -0.018542 3.337405 0.261169
v -0.017473 3.238184 0.460830
v -0.017473 3.238184 0.460830
v -0.018542 3.337405 0.261169
v -0.018542 3.337405 0.261169
v -0.017473 3.238184 0.460830
v -0.018542 3.337405 0.261169
v -0.178059 3.237199 0.401945
v -0.178059 3.237199 0.401945
v -0.018542 3.337405 0.261169
v -0.018542 3.337405 0.261169
v -0.178059 3.237199 0.401945
v -0.018542 3.337405 0.261169
v -0.244576 3.238378 0.259834
v -0.244576 3.238378 0.259834
v -0.018542 3.337405 0.261169
v -0.018542 3.337405 0.261169
v -0.244576 3.238378 0.259834
v -0.018542 3.337405 0.261169
v -0.178059 3.241030 0.117742
v -0.178059 3.241030 0.117742
v -0.018542 3.337405 0.261169
v -0.018542 3.337405 0.261169
v -0.178059 3.241030 0.117742
v -0.018542 3.337405 0.261169
v -0.017473 3.243602 0.058906
v -0.017473 3.243602 0.058906
v -0.018542 3.337405 0.261169
v -0.018542 3.337405 0.261169
v -0.017473 3.243602 0.058906
v -0.018542 3.337405 0.261169
v 0.143114 3.244587 0.117790
v 0.143114 3.244587 0.117790
v -0.018542 3.337405 0.261169
v -0.018542 3.337405 0.261169
v 0.143114 3.244587 0.117790
v -0.018542 3.337405 0.261169
v 0.209630 3.243408 0.259902
v -0.273024 2.833047 0.030065
v -0.026828 2.907628 0.031071
v -0.099170 2.904612 0.195431
v -0.273024 2.833047 0.030065
v -0.099170 2.904612 0.195431
v -0.273024 2.833047 0.030065
v -0.273024 2.833047 0.030065
v -0.099170 2.904612 0.195431
v -0.273820 2.901760 0.263489
v -0.273024 2.833047 0.030065
v -0.273820 2.901760 0.263489
v -0.273024 2.833047 0.030065
v -0.273024 2.833047 0.030065
v -0.273820 2.901760 0.263489
v -0.448469 2.900743 0.195378
v -0.273024 2.833047 0.030065
v -0.448469 2.900743 0.195378
v -0.273024 2.833047 0.030065
v -0.273024 2.833047 0.030065
v -0.448469 2.900743 0.195378
v -0.520811 2.902157 0.030997
v -0.273024 2.833047 0.030065
v -0.520811 2.902157 0.030997
v -0.273024 2.833047 0.030065
v -0.273024 2.833047 0.030065
v -0.520811 2.902157 0.030997
v -0.448469 2.905174 -0.133363
v -0.273024 2.833047 0.030065
v -0.448469 2.905174 -0.133363
v -0.273024 2.833047 0.030065
v -0.273024 2.833047 0.030065
v -0.448469 2.905174 -0.133363
v -0.273820 2.908026 -0.201422
v -0.273024 2.833047 0.030065
v -0.273820 2.908026 -0.201422
v -0.273024 2.833047 0.030065
v -0.273024 2.833047 0.030065
v -0.273820 2.908026 -0.201422
v -0.099170 2.909042 -0.133311
v -0.273024 2.833047 0.030065
v -0.099170 2.909042 -0.133311
v -0.273024 2.833047 0.030065
v -0.273024 2.833047 0.030065
v -0.099170 2.909042 -0.133311
v -0.026828 2.907628 0.031071
v -0.273024 2.833047 0.030065
v -0.026828 2.907628 0.031071
v -0.273024 2.833047 0.030065
v -0.026828 2.907628 0.031071
v 0.073557 3.082213 0.033424
v -0.028750 3.077947 0.265864
v -0.026828 2.907628 0.031071
v -0.028750 3.077947 0.265864
v -0.099170 2.904612 0.195431
v -0.099170 2.904612 0.195431
v -0.028750 3.077947 0.265864
v -0.275741 3.073913 0.362113
v -0.099170 2.904612 0.195431
v -0.275741 3.073913 0.362113
v -0.273820 2.901760 0.263489
v -0.273820 2.901760 0.263489
v -0.275741 3.073913 0.362113
v -0.522732 3.072475 0.265790
v -0.273820 2.901760 0.263489
v -0.522732 3.072475 0.265790
v -0.448469 2.900743 0.195378
v -0.448469 2.900743 0.195378
v -0.522732 3.072475 0.265790
v -0.625040 3.074475 0.033319
v -0.448469 2.900743 0.195378
v -0.625040 3.074475 0.033319
v -0.520811 2.902157 0.030997
v -0.520811 2.902157 0.030997
v -0.625040 3.074475 0.033319
v -0.522732 3.078742 -0.199121
v -0.520811 2.902157 0.030997
v -0.522732 3.078742 -0.199121
v -0.448469 2.905174 -0.133363
v -0.448469 2.905174 -0.133363
v -0.522732 3.078742 -0.199121
v -0.275741 3.082775 -0.295370
v -0.448469 2.905174 -0.133363
v -0.275741 3.082775 -0.295370
v -0.273820 2.908026 -0.201422
v -0.273820 2.908026 -0.201422
v -0.275741 3.082775 -0.295370
v -0.028750 3.084213 -0.199047
v -0.273820 2.908026 -0.201422
v -0.028750 3.084213 -0.199047
v -0.099170 2.909042 -0.133311
v -0.099170 2.909042 -0.133311
v -0.028750 3.084213 -0.199047
v 0.073557 3.082213 0.033424
v -0.099170 2.909042 -0.133311
v 0.073557 3.082213 0.033424
v -0.026828 2.907628 0.031071
v 0.073557 3.082213 0.033424
v -0.030671 3.254532 0.035746
v -0.103013 3.251515 0.200106
v 0.073557 3.082213 0.033424
v -0.103013 3.251515 0.200106
v -0.028750 3.077947 0.265864
v -0.028750 3.077947 0.265864
v -0.103013 3.251515 0.200106
v -0.277663 3.248663 0.268165
v -0.028750 3.077947 0.265864
v -0.277663 3.248663 0.268165
v -0.275741 3.073913 0.362113
v -0.275741 3.073913 0.362113
v -0.277663 3.248663 0.268165
v -0.452312 3.247646 0.200054
v -0.275741 3.073913 0.362113
v -0.452312 3.247646 0.200054
v -0.522732 3.072475 0.265790
v -0.522732 3.072475 0.265790
v -0.452312 3.247646 0.200054
v -0.524654 3.249060 0.035672
v -0.522732 3.072475 0.265790
v -0.524654 3.249060 0.035672
v -0.625040 3.074475 0.033319
v -0.625040 3.074475 0.033319
v -0.524654 3.249060 0.035672
v -0.452312 3.252077 -0.128688
v -0.625040 3.074475 0.033319
v -0.452312 3.252077 -0.128688
v -0.522732 3.078742 -0.199121
v -0.522732 3.078742 -0.199121
v -0.452312 3.252077 -0.128688
v -0.277663 3.254929 -0.196746
v -0.522732 3.078742 -0.199121
v -0.277663 3.254929 -0.196746
v -0.275741 3.082775 -0.295370
v -0.275741 3.082775 -0.295370
v -0.277663 3.254929 -0.196746
v -0.103013 3.255946 -0.128635
v -0.275741 3.082775 -0.295370
v -0.103013 3.255946 -0.128635
v -0.028750 3.084213 -0.199047
v -0.028750 3.084213 -0.199047
v -0.103013 3.255946 -0.128635
v -0.030671 3.254532 0.035746
v -0.028750 3.084213 -0.199047
v -0.030671 3.254532 0.035746
v 0.073557 3.082213 0.033424
v -0.030671 3.254532 0.035746
v -0.278459 3.323642 0.036678
v -0.278459 3.323642 0.036678
v -0.030671 3.254532 0.035746
v -0.278459 3.323642 0.036678
v -0.103013 3.251515 0.200106
v -0.103013 3.251515 0.200106
v -0.278459 3.323642 0.036678
v -0.278459 3.323642 0.036678
v -0.103013 3.251515 0.200106
v -0.278459 3.323642 0.036678
v -0.277663 3.248663 0.268165
v -0.277663 3.248663 0.268165
v -0.278459 3.323642 0.036678
v -0.278459 3.323642 0.036678
v -0.277663 3.248663 0.268165
v -0.278459 3.323642 0.036678
v -0.452312 3.247646 0.200054
v -0.452312 3.247646 0.200054
v -0.278459 3.323642 0.036678
v -0.278459 3.323642 0.036678
v -0.452312 3.247646 0.200054
v -0.278459 3.323642 0.036678
v -0.524654 3.249060 0.035672
v -0.524654 3.249060 0.035672
v -0.278459 3.323642 0.036678
v -0.278459 3.323642 0.036678
v -0.524654 3.249060 0.035672
v -0.278459 3.323642 0.036678
v -0.452312 3.252077 -0.128688
v -0.452312 3.252077 -0.128688
v -0.278459 3.323642 0.036678
v -0.278459 3.323642 0.036678
v -0.452312 3.252077 -0.128688
v -0.278459 3.323642 0.036678
v -0.277663 3.254929 -0.196746
v -0.277663 3.254929 -0.196746
v -0.278459 3.323642 0.036678
v -0.278459 3.323642 0.036678
v -0.277663 3.254929 -0.196746
v -0.278459 3.323642 0.036678
v -0.103013 3.255946 -0.128635
v -0.103013 3.255946 -0.128635
v -0.278459 3.323642 0.036678
v -0.278459 3.323642 0.036678
v -0.103013 3.255946 -0.128635
v -0.278459 3.323642 0.036678
v -0.030671 3.254532 0.035746
f 961 962 963
f 964 965 966
f 967 968 969
f 970 971 972
f 973 974 975
f 976 977 978
f 979 980 981
f 982 983 984
f 985 986 987
f 988 989 990
f 991 992 993
f 994 995 996
f 997 998 999
f 1000 1001 1002
f 1003 1004 1005
f 1006 1007 1008
f 1009 1010 1011
f 1012 1013 1014
f 1015 1016 1017
f 1018 1019 1020
f 1021 1022 1023
f 1024 1025 1026
f 1027 1028 1029
f 1030 1031 1032
f 1033 1034 1035
f 1036 1037 1038
f 1039 1040 1041
f 1042 1043 1044
f 1045 1046 1047
f 1048 1049 1050
f 1051 1052 1053
f 1054 1055 1056
f 1057 1058 1059
f 1060 1061 1062
f 1063 1064 1065
f 1066 1067 1068
f 1069 1070 1071
f 1072 1073 1074
f 1075 1076 1077
f 1078 1079 1080
f 1081 1082 1083
f 1084 1085 1086
f 1087 1088 1089
f 1090 1091 1092
f 1093 1094 1095
f 1096 1097 1098
f 1099 1100 1101
f 1102 1103 1104
f 1105 1106 1107
f 1108 1109 1110
f 1111 1112 1113
f 1114 1115 1116
f 1117 1118 1119
f 1120 1121 1122
f 1123 1124 1125
f 1126 1127 1128
f 1129 1130 1131
f 1132 1133 1134
f 1135 1136 1137
f 1138 1139 1140
f 1141 1142 1143
f 1144 1145 1146
f 1147 1148 1149
f 1150 1151 1152
f 1153 1154 1155
f 1156 1157 1158
f 1159 1160 1161
f 1162 1163 1164
f 1165 1166 1167
f 1168 1169 1170
f 1171 1172 1173
f 1174 1175 1176
f 1177 1178 1179
f 1180 1181 1182
f 1183 1184 1185
f 1186 1187 1188
f 1189 1190 1191
f 1192 1193 1194
f 1195 1196 1197
f 1198 1199 1200
f 1201 1202 1203
f 1204 1205 1206
f 1207 1208 1209
f 1210 1211 1212
f 1213 1214 1215
f 1216 1217 1218
f 1219 1220 1221
f 1222 1223 1224
f 1225 1226 1227
f 1228 1229 1230
f 1231 1232 1233
f 1234 1235 1236
f 1237 1238 1239
f 1240 1241 1242
f 1243 1244 1245
f 1246 1247 1248
f 1249 1250 1251
f 1252 1253 1254
f 1255 1256 1257
f 1258 1259 1260
f 1261 1262 1263
f 1264 1265 1266
f 1267 1268 1269
f 1270 1271 1272
f 1273 1274 1275
f 1276 1277 1278
f 1279 1280 1281
f 1282 1283 1284
f 1285 1286 1287
f 1288 1289 1290
f 1291 1292 1293
f 1294 1295 1296
f 1297 1298 1299
f 1300 1301 1302
f 1303 1304 1305
f 1306 1307 1308
f 1309 1310 1311
f 1312 1313 1314
f 1315 1316 1317
f 1318 1319 1320
f 1321 1322 1323
f 1324 1325 1326
f 1327 1328 1329
f 1330 1331 1332
f 1333 1334 1335
f 1336 1337 1338
f 1339 1340 1341
f 1342 1343 1344
f 1345 1346 1347
f 1348 1349 1350
f 1351 1352 1353
f 1354 1355 1356
f 1357 1358 1359
f 1360 1361 1362
f 1363 1364 1365
f 1366 1367 1368
f 1369 1370 1371
f 1372 1373 1374
f 1375 1376 1377
f 1378 1379 1380
f 1381 1382 1383
f 1384 1385 1386
f 1387 1388 1389
f 1390 1391 1392
f 1393 1394 1395
f 1396 1397 1398
f 1399 1400 1401
f 1402 1403 1404
f 1405 1406 1407
f 1408 1409 1410
f 1411 1412 1413
f 1414 1415 1416
f 1417 1418 1419
f 1420 1421 1422
f 1423 1424 1425
f 1426 1427 1428
f 1429 1430 1431
f 1432 1433 1434
f 1435 1436 1437
f 1438 1439 1440
f 1441 1442 1443
f 1444 1445 1446
f 1447 1448 1449
f 1450 1451 1452
f 1453 1454 1455
f 1456 1457 1458
f 1459 1460 1461
f 1462 1463 1464
f 1465 1466 1467
f 1468 1469 1470
f 1471 1472 1473
f 1474 1475 1476
f 1477 1478 1479
f 1480 1481 1482
f 1483 1484 1485
f 1486 1487 1488
f 1489 1490 1491
f 1492 1493 1494
f 1495 1496 1497
f 1498 1499 1500
f 1501 1502 1503
f 1504 1505 1506
f 1507 1508 1509
f 1510 1511 1512
f 1513 1514 1515
f 1516 1517 1518
f 1519 1520 1521
f 1522 1523 1524
f 1525 1526 1527
f 1528 1529 1530
f 1531 1532 1533
f 1534 1535 1536
f 1537 1538 1539
f 1540 1541 1542
f 1543 1544 1545
f 1546 1547 1548
f 1549 1550 1551
f 1552 1553 1554
f 1555 1556 1557
f 1558 1559 1560
f 1561 1562 1563
f 1564 1565 1566
f 1567 1568 1569
f 1570 1571 1572
f 1573 1574 1575
f 1576 1577 1578
f 1579 1580 1581
f 1582 1583 1584
f 1585 1586 1587
f 1588 1589 1590
f 1591 1592 1593
f 1594 1595 1596
f 1597 1598 1599
f 1600 1601 1602
f 1603 1604 1605
f 1606 1607 1608
f 1609 1610 1611
f 1612 1613 1614
f 1615 1616 1617
f 1618 1619 1620
f 1621 1622 1623
f 1624 1625 1626
f 1627 1628 1629
f 1630 1631 1632
f 1633 1634 1635
f 1636 1637 1638
f 1639 1640 1641
f 1642 1643 1644
f 1645 1646 1647
f 1648 1649 1650
f 1651 1652 1653
f 1654 1655 1656
f 1657 1658 1659
f 1660 1661 1662
f 1663 1664 1665
f 1666 1667 1668
f 1669 1670 1671
f 1672 1673 1674
f 1675 1676 1677
f 1678 1679 1680
f 1681 1682 1683
f 1684 1685 1686
f 1687 1688 1689
f 1690 1691 1692
f 1693 1694 1695
f 1696 1697 1698
f 1699 1700 1701
f 1702 1703 1704
f 1705 1706 1707
f 1708 1709 1710
f 1711 1712 1713
f 1714 1715 1716
f 1717 1718 1719
f 1720 1721 1722
f 1723 1724 1725
f 1726 1727 1728
f 1729 1730 1731
f 1732 1733 1734
f 1735 1736 1737
f 1738 1739 1740
f 1741 1742 1743
f 1744 1745 1746
f 1747 1748 1749
f 1750 1751 1752
f 1753 1754 1755
f 1756 1757 1758
f 1759 1760 1761
f 1762 1763 1764
f 1765 1766 1767
f 1768 1769 1770
f 1771 1772 1773
f 1774 1775 1776
f 1777 1778 1779
f 1780 1781 1782
f 1783 1784 1785
f 1786 1787 1788
f 1789 1790 1791
f 1792 1793 1794
f 1795 1796 1797
f 1798 1799 1800
f 1801 1802 1803
f 1804 1805 1806
f 1807 1808 1809
f 1810 1811 1812
f 1813 1814 1815
f 1816 1817 1818
f 1819 1820 1821
f 1822 1823 1824
f 1825 1826 1827
f 1828 1829 1830
f 1831 1832 1833
f 1834 1835 1836
f 1837 1838 1839
f 1840 1841 1842
f 1843 1844 1845
f 1846 1847 1848
f 1849 1850 1851
f 1852 1853 1854
f 1855 1856 1857
f 1858 1859 1860
f 1861 1862 1863
f 1864 1865 1866
f 1867 1868 1869
f 1870 1871 1872
f 1873 1874 1875
f 1876 1877 1878
f 1879 1880 1881
f 1882 1883 1884
f 1885 1886 1887
f 1888 1889 1890
f 1891 1892 1893
f 1894 1895 1896
f 1897 1898 1899
f 1900 1901 1902
f 1903 1904 1905
f 1906 1907 1908
f 1909 1910 1911
f 1912 1913 1914
f 1915 1916 1917
f 1918 1919 1920
f 1921 1922 1923
f 1924 1925 1926
f 1927 1928 1929
f 1930 1931 1932
f 1933 1934 1935
f 1936 1937 1938
f 1939 1940 1941
f 1942 1943 1944
f 1945 1946 1947
f 1948 1949 1950
f 1951 1952 1953
f 1954 1955 1956
f 1957 1958 1959
f 1960 1961 1962
f 1963 1964 1965
f 1966 1967 1968
f 1969 1970 1971
f 1972 1973 1974
f 1975 1976 1977
f 1978 1979 1980
f 1981 1982 1983
f 1984 1985 1986
f 1987 1988 1989
f 1990 1991 1992
f 1993 1994 1995
f 1996 1997 1998
f 1999 2000 2001
f 2002 2003 2004
f 2005 2006 2007
f 2008 2009 2010
f 2011 2012 2013
f 2014 2015 2016
f 2017 2018 2019
f 2020 2021 2022
f 2023 2024 2025
f 2026 2027 2028
f 2029 2030 2031
f 2032 2033 2034
f 2035 2036 2037
f 2038 2039 2040
f 2041 2042 2043
f 2044 2045 2046
f 2047 2048 2049
f 2050 2051 2052
f 2053 2054 2055
f 2056 2057 2058
f 2059 2060 2061
f 2062 2063 2064
f 2065 2066 2067
f 2068 2069 2070
f 2071 2072 2073
f 2074 2075 2076
f 2077 2078 2079
f 2080 2081 2082
f 2083 2084 2085
f 2086 2087 2088
f 2089 2090 2091
f 2092 2093 2094
f 2095 2096 2097
f 2098 2099 2100
f 2101 2102 2103
f 2104 2105 2106
f 2107 2108 2109
f 2110 2111 2112
f 2113 2114 2115
f 2116 2117 2118
f 2119 2120 2121
f 2122 2123 2124
f 2125 2126 2127
f 2128 2129 2130
f 2131 2132 2133
f 2134 2135 2136
f 2137 2138 2139
f 2140 2141 2142
f 2143 2144 2145
f 2146 2147 2148
f 2149 2150 2151
f 2152 2153 2154
f 2155 2156 2157
f 2158 2159 2160
f 2161 2162 2163
f 2164 2165 2166
f 2167 2168 2169
f 2170 2171 2172
f 2173 2174 2175
f 2176 2177 2178
f 2179 2180 2181
f 2182 2183 2184
f 2185 2186 2187
f 2188 2189 2190
f 2191 2192 2193
f 2194 2195 2196
f 2197 2198 2199
f 2200 2201 2202
f 2203 2204 2205
f 2206 2207 2208
f 2209 2210 2211
f 2212 2213 2214
f 2215 2216 2217
f 2218 2219 2220
f 2221 2222 2223
f 2224 2225 2226
f 2227 2228 2229
f 2230 2231 2232
f 2233 2234 2235
f 2236 2237 2238
f 2239 2240 2241
f 2242 2243 2244
f 2245 2246 2247
f 2248 2249 2250
f 2251 2252 2253
f 2254 2255 2256
f 2257 2258 2259
f 2260 2261 2262
f 2263 2264 2265
f 2266 2267 2268
f 2269 2270 2271
f 2272 2273 2274
f 2275 2276 2277
f 2278 2279 2280
f 2281 2282 2283
f 2284 2285 2286
f 2287 2288 2289
f 2290 2291 2292
f 2293 2294 2295
f 2296 2297 2298
f 2299 2300 2301
f 2302 2303 2304
f 2305 2306 2307
f 2308 2309 2310
f 2311 2312 2313
f 2314 2315 2316
f 2317 2318 2319
f 2320 2321 2322
f 2323 2324 2325
f 2326 2327 2328
f 2329 2330 2331
f 2332 2333 2334
f 2335 2336 2337
f 2338 2339 2340
f 2341 2342 2343
f 2344 2345 2346
f 2347 2348 2349
f 2350 2351 2352
f 2353 2354 2355
f 2356 2357 2358
f 2359 2360 2361
f 2362 2363 2364
f 2365 2366 2367
f 2368 2369 2370
f 2371 2372 2373
f 2374 2375 2376
f 2377 2378 2379
f 2380 2381 2382
f 2383 2384 2385
f 2386 2387 2388
f 2389 2390 2391
f 2392 2393 2394
f 2395 2396 2397
f 2398 2399 2400
f 2401 2402 2403
f 2404 2405 2406
f 2407 2408 2409
f 2410 2411 2412
f 2413 2414 2415
f 2416 2417 2418
f 2419 2420 2421
f 2422 2423 2424
f 2425 2426 2427
f 2428 2429 2430
f 2431 2432 2433
f 2434 2435 2436
f 2437 2438 2439
f 2440 2441 2442
f 2443 2444 2445
f 2446 2447 2448
f 2449 2450 2451
f 2452 2453 2454
f 2455 2456 2457
f 2458 2459 2460
f 2461 2462 2463
f 2464 2465 2466
f 2467 2468 2469
f 2470 2471 2472
f 2473 2474 2475
f 2476 2477 2478
f 2479 2480 2481
f 2482 2483 2484
f 2485 2486 2487
f 2488 2489 2490
f 2491 2492 2493
f 2494 2495 2496
f 2497 2498 2499
f 2500 2501 2502
f 2503 2504 2505
f 2506 2507 2508
f 2509 2510 2511
f 2512 2513 2514
f 2515 2516 2517
f 2518 2519 2520
f 2521 2522 2523
f 2524 2525 2526
f 2527 2528 2529
f 2530 2531 2532
f 2533 2534 2535
f 2536 2537 2538
f 2539 2540 2541
f 2542 2543 2544
f 2545 2546 2547
f 2548 2549 2550
f 2551 2552 2553
f 2554 2555 2556
f 2557 2558 2559
f 2560 2561 2562
f 2563 2564 2565
f 2566 2567 2568
f 2569 2570 2571
f 2572 2573 2574
f 2575 2576 2577
f 2578 2579 2580
f 2581 2582 2583
f 2584 2585 2586
f 2587 2588 2589
f 2590 2591 2592
f 2593 2594 2595
f 2596 2597 2598
f 2599 2600 2601
f 2602 2603 2604
f 2605 2606 2607
f 2608 2609 2610
f 2611 2612 2613
f 2614 2615 2616
f 2617 2618 2619
f 2620 2621 2622
f 2623 2624 2625
f 2626 2627 2628
f 2629 2630 2631
f 2632 2633 2634
f 2635 2636 2637
f 2638 2639 2640
f 2641 2642 2643
f 2644 2645 2646
f 2647 2648 2649
f 2650 2651 2652
f 2653 2654 2655
f 2656 2657 2658
f 2659 2660 2661
f 2662 2663 2664
f 2665 2666 2667
f 2668 2669 2670
f 2671 2672 2673
f 2674 2675 2676
f 2677 2678 2679
f 2680 2681 2682
f 2683 2684 2685
f 2686 2687 2688
