# Pyramida editable prop source
# units: 1 OBJ unit = 1 Pyramida World Unit = 1 Blender metre

o TreeTrunk
v 0.060916 0.074267 0.097204
v 0.240727 0.020591 -0.015561
v 0.243187 0.043996 -0.040019
v 0.060916 0.074267 0.097204
v 0.243187 0.043996 -0.040019
v 0.071676 0.176660 -0.009800
v 0.043645 0.075529 -0.006358
v 0.060916 0.074267 0.097204
v 0.071676 0.176660 -0.009800
v 0.236780 0.020880 -0.039232
v 0.243187 0.043996 -0.040019
v 0.240727 0.020591 -0.015561
v 0.071676 0.176660 -0.009800
v 0.243187 0.043996 -0.040019
v 0.232832 0.021168 -0.062903
v 0.071676 0.176660 -0.009800
v 0.232832 0.021168 -0.062903
v 0.026375 0.076791 -0.109920
v 0.043645 0.075529 -0.006358
v 0.071676 0.176660 -0.009800
v 0.026375 0.076791 -0.109920
v 0.236780 0.020880 -0.039232
v 0.232832 0.021168 -0.062903
v 0.243187 0.043996 -0.040019
v 0.026375 0.076791 -0.109920
v 0.232832 0.021168 -0.062903
v 0.230373 -0.002236 -0.038445
v 0.026375 0.076791 -0.109920
v 0.230373 -0.002236 -0.038445
v 0.015615 -0.025602 -0.002916
v 0.043645 0.075529 -0.006358
v 0.026375 0.076791 -0.109920
v 0.015615 -0.025602 -0.002916
v 0.236780 0.020880 -0.039232
v 0.230373 -0.002236 -0.038445
v 0.232832 0.021168 -0.062903
v 0.015615 -0.025602 -0.002916
v 0.230373 -0.002236 -0.038445
v 0.240727 0.020591 -0.015561
v 0.015615 -0.025602 -0.002916
v 0.240727 0.020591 -0.015561
v 0.060916 0.074267 0.097204
v 0.043645 0.075529 -0.006358
v 0.015615 -0.025602 -0.002916
v 0.060916 0.074267 0.097204
v 0.236780 0.020880 -0.039232
v 0.240727 0.020591 -0.015561
v 0.230373 -0.002236 -0.038445
v -0.114843 0.073939 -0.004371
v -0.140026 0.013396 0.233235
v -0.121235 0.036631 0.249329
v -0.114843 0.073939 -0.004371
v -0.121235 0.036631 0.249329
v -0.032632 0.175594 0.066039
v -0.020398 0.074236 0.041509
v -0.114843 0.073939 -0.004371
v -0.032632 0.175594 0.066039
v -0.118439 0.013463 0.243722
v -0.121235 0.036631 0.249329
v -0.140026 0.013396 0.233235
v -0.032632 0.175594 0.066039
v -0.121235 0.036631 0.249329
v -0.096851 0.013531 0.254209
v -0.032632 0.175594 0.066039
v -0.096851 0.013531 0.254209
v 0.074048 0.074532 0.087389
v -0.020398 0.074236 0.041509
v -0.032632 0.175594 0.066039
v 0.074048 0.074532 0.087389
v -0.118439 0.013463 0.243722
v -0.096851 0.013531 0.254209
v -0.121235 0.036631 0.249329
v 0.074048 0.074532 0.087389
v -0.096851 0.013531 0.254209
v -0.115642 -0.009704 0.238115
v 0.074048 0.074532 0.087389
v -0.115642 -0.009704 0.238115
v -0.008163 -0.027123 0.016979
v -0.020398 0.074236 0.041509
v 0.074048 0.074532 0.087389
v -0.008163 -0.027123 0.016979
v -0.118439 0.013463 0.243722
v -0.115642 -0.009704 0.238115
v -0.096851 0.013531 0.254209
v -0.008163 -0.027123 0.016979
v -0.115642 -0.009704 0.238115
v -0.140026 0.013396 0.233235
v -0.008163 -0.027123 0.016979
v -0.140026 0.013396 0.233235
v -0.114843 0.073939 -0.004371
v -0.020398 0.074236 0.041509
v -0.008163 -0.027123 0.016979
v -0.114843 0.073939 -0.004371
v -0.118439 0.013463 0.243722
v -0.140026 0.013396 0.233235
v -0.115642 -0.009704 0.238115
v 0.069711 0.076927 -0.088868
v -0.123869 0.020591 -0.275400
v -0.147651 0.043686 -0.268116
v 0.069711 0.076927 -0.088868
v -0.147651 0.043686 -0.268116
v -0.034334 0.177969 -0.057005
v -0.022365 0.075322 -0.038425
v 0.069711 0.076927 -0.088868
v -0.034334 0.177969 -0.057005
v -0.144915 0.020224 -0.263870
v -0.147651 0.043686 -0.268116
v -0.123869 0.020591 -0.275400
v -0.034334 0.177969 -0.057005
v -0.147651 0.043686 -0.268116
v -0.165960 0.019857 -0.252340
v -0.034334 0.177969 -0.057005
v -0.165960 0.019857 -0.252340
v -0.114440 0.073716 0.012019
v -0.022365 0.075322 -0.038425
v -0.034334 0.177969 -0.057005
v -0.114440 0.073716 0.012019
v -0.144915 0.020224 -0.263870
v -0.165960 0.019857 -0.252340
v -0.147651 0.043686 -0.268116
v -0.114440 0.073716 0.012019
v -0.165960 0.019857 -0.252340
v -0.142179 -0.003239 -0.259623
v -0.114440 0.073716 0.012019
v -0.142179 -0.003239 -0.259623
v -0.010395 -0.027326 -0.019844
v -0.022365 0.075322 -0.038425
v -0.114440 0.073716 0.012019
v -0.010395 -0.027326 -0.019844
v -0.144915 0.020224 -0.263870
v -0.142179 -0.003239 -0.259623
v -0.165960 0.019857 -0.252340
v -0.010395 -0.027326 -0.019844
v -0.142179 -0.003239 -0.259623
v -0.123869 0.020591 -0.275400
v -0.010395 -0.027326 -0.019844
v -0.123869 0.020591 -0.275400
v 0.069711 0.076927 -0.088868
v -0.022365 0.075322 -0.038425
v -0.010395 -0.027326 -0.019844
v 0.069711 0.076927 -0.088868
v -0.144915 0.020224 -0.263870
v -0.123869 0.020591 -0.275400
v -0.142179 -0.003239 -0.259623
v -0.000087 0.010983 -0.159623
v 0.018162 1.008411 -0.062602
v 0.132205 1.001826 0.002872
v -0.000087 0.010983 -0.159623
v 0.132205 1.001826 0.002872
v 0.138498 0.002981 -0.080059
v 0.000000 0.000000 0.000000
v -0.000087 0.010983 -0.159623
v 0.138498 0.002981 -0.080059
v 0.138498 0.002981 -0.080059
v 0.132205 1.001826 0.002872
v 0.132276 0.992788 0.134228
v 0.138498 0.002981 -0.080059
v 0.132276 0.992788 0.134228
v 0.138584 -0.008002 0.079563
v 0.000000 0.000000 0.000000
v 0.138498 0.002981 -0.080059
v 0.138584 -0.008002 0.079563
v 0.138584 -0.008002 0.079563
v 0.132276 0.992788 0.134228
v 0.018304 0.990335 0.200110
v 0.138584 -0.008002 0.079563
v 0.018304 0.990335 0.200110
v 0.000087 -0.010983 0.159623
v 0.000000 0.000000 0.000000
v 0.138584 -0.008002 0.079563
v 0.000087 -0.010983 0.159623
v 0.000087 -0.010983 0.159623
v 0.018304 0.990335 0.200110
v -0.095739 0.996920 0.134636
v 0.000087 -0.010983 0.159623
v -0.095739 0.996920 0.134636
v -0.138498 -0.002981 0.080059
v 0.000000 0.000000 0.000000
v 0.000087 -0.010983 0.159623
v -0.138498 -0.002981 0.080059
v -0.138498 -0.002981 0.080059
v -0.095739 0.996920 0.134636
v -0.095810 1.005958 0.003280
v -0.138498 -0.002981 0.080059
v -0.095810 1.005958 0.003280
v -0.138584 0.008002 -0.079563
v 0.000000 0.000000 0.000000
v -0.138498 -0.002981 0.080059
v -0.138584 0.008002 -0.079563
v -0.138584 0.008002 -0.079563
v -0.095810 1.005958 0.003280
v 0.018162 1.008411 -0.062602
v -0.138584 0.008002 -0.079563
v 0.018162 1.008411 -0.062602
v -0.000087 0.010983 -0.159623
v 0.000000 0.000000 0.000000
v -0.138584 0.008002 -0.079563
v -0.000087 0.010983 -0.159623
v 0.018291 0.995325 -0.062850
v 0.066982 1.997246 -0.065303
v 0.156343 1.994491 -0.013488
v 0.018291 0.995325 -0.062850
v 0.156343 1.994491 -0.013488
v 0.132154 0.991814 0.003172
v 0.132154 0.991814 0.003172
v 0.156343 1.994491 -0.013488
v 0.156297 1.997669 0.089797
v 0.132154 0.991814 0.003172
v 0.156297 1.997669 0.089797
v 0.132096 0.995863 0.134777
v 0.132096 0.995863 0.134777
v 0.156297 1.997669 0.089797
v 0.066891 2.003600 0.141266
v 0.132096 0.995863 0.134777
v 0.066891 2.003600 0.141266
v 0.018175 1.003421 0.200359
v 0.018175 1.003421 0.200359
v 0.066891 2.003600 0.141266
v -0.022470 2.006355 0.089451
v 0.018175 1.003421 0.200359
v -0.022470 2.006355 0.089451
v -0.095688 1.006932 0.134336
v -0.095688 1.006932 0.134336
v -0.022470 2.006355 0.089451
v -0.022425 2.003178 -0.013834
v -0.095688 1.006932 0.134336
v -0.022425 2.003178 -0.013834
v -0.095630 1.002883 0.002732
v -0.095630 1.002883 0.002732
v -0.022425 2.003178 -0.013834
v 0.066982 1.997246 -0.065303
v -0.095630 1.002883 0.002732
v 0.066982 1.997246 -0.065303
v 0.018291 0.995325 -0.062850
v 0.066965 1.998930 -0.065341
v 0.021054 2.499059 -0.044244
v 0.085723 2.505541 -0.006815
v 0.066965 1.998930 -0.065341
v 0.085723 2.505541 -0.006815
v 0.156065 2.007861 -0.013773
v 0.021033 2.500143 0.030749
v 0.085723 2.505541 -0.006815
v 0.021054 2.499059 -0.044244
v 0.156065 2.007861 -0.013773
v 0.085723 2.505541 -0.006815
v 0.085702 2.506625 0.068177
v 0.156065 2.007861 -0.013773
v 0.085702 2.506625 0.068177
v 0.156036 2.009354 0.089549
v 0.021033 2.500143 0.030749
v 0.085702 2.506625 0.068177
v 0.085723 2.505541 -0.006815
v 0.156036 2.009354 0.089549
v 0.085702 2.506625 0.068177
v 0.021012 2.501226 0.105741
v 0.156036 2.009354 0.089549
v 0.021012 2.501226 0.105741
v 0.066907 2.001916 0.141304
v 0.021033 2.500143 0.030749
v 0.021012 2.501226 0.105741
v 0.085702 2.506625 0.068177
v 0.066907 2.001916 0.141304
v 0.021012 2.501226 0.105741
v -0.043657 2.494744 0.068312
v 0.066907 2.001916 0.141304
v -0.043657 2.494744 0.068312
v -0.022192 1.992985 0.089736
v 0.021033 2.500143 0.030749
v -0.043657 2.494744 0.068312
v 0.021012 2.501226 0.105741
v -0.022192 1.992985 0.089736
v -0.043657 2.494744 0.068312
v -0.043636 2.493660 -0.006680
v -0.022192 1.992985 0.089736
v -0.043636 2.493660 -0.006680
v -0.022164 1.991492 -0.013586
v 0.021033 2.500143 0.030749
v -0.043636 2.493660 -0.006680
v -0.043657 2.494744 0.068312
v -0.022164 1.991492 -0.013586
v -0.043636 2.493660 -0.006680
v 0.021054 2.499059 -0.044244
v -0.022164 1.991492 -0.013586
v 0.021054 2.499059 -0.044244
v 0.066965 1.998930 -0.065341
v 0.021033 2.500143 0.030749
v 0.021054 2.499059 -0.044244
v -0.043636 2.493660 -0.006680
v 0.071900 2.346768 0.032471
v 0.042271 2.468329 -0.485477
v 0.026736 2.483199 -0.481734
v 0.071900 2.346768 0.032471
v 0.026736 2.483199 -0.481734
v 0.034911 2.382173 0.041384
v 0.035156 2.346399 0.032974
v 0.071900 2.346768 0.032471
v 0.034911 2.382173 0.041384
v 0.026839 2.468174 -0.485266
v 0.026736 2.483199 -0.481734
v 0.042271 2.468329 -0.485477
v 0.034911 2.382173 0.041384
v 0.026736 2.483199 -0.481734
v 0.011406 2.468019 -0.485055
v 0.034911 2.382173 0.041384
v 0.011406 2.468019 -0.485055
v -0.001589 2.346030 0.033477
v 0.035156 2.346399 0.032974
v 0.034911 2.382173 0.041384
v -0.001589 2.346030 0.033477
v 0.026839 2.468174 -0.485266
v 0.011406 2.468019 -0.485055
v 0.026736 2.483199 -0.481734
v -0.001589 2.346030 0.033477
v 0.011406 2.468019 -0.485055
v 0.026941 2.453149 -0.488798
v -0.001589 2.346030 0.033477
v 0.026941 2.453149 -0.488798
v 0.035400 2.310625 0.024564
v 0.035156 2.346399 0.032974
v -0.001589 2.346030 0.033477
v 0.035400 2.310625 0.024564
v 0.026839 2.468174 -0.485266
v 0.026941 2.453149 -0.488798
v 0.011406 2.468019 -0.485055
v 0.035400 2.310625 0.024564
v 0.026941 2.453149 -0.488798
v 0.042271 2.468329 -0.485477
v 0.035400 2.310625 0.024564
v 0.042271 2.468329 -0.485477
v 0.071900 2.346768 0.032471
v 0.035156 2.346399 0.032974
v 0.035400 2.310625 0.024564
v 0.071900 2.346768 0.032471
v 0.026839 2.468174 -0.485266
v 0.042271 2.468329 -0.485477
v 0.026941 2.453149 -0.488798
v 0.041231 2.443437 -0.389974
v -0.079117 2.531005 -0.512451
v -0.083259 2.538868 -0.503340
v 0.041231 2.443437 -0.389974
v -0.083259 2.538868 -0.503340
v 0.033449 2.458205 -0.372860
v 0.028547 2.443157 -0.378802
v 0.041231 2.443437 -0.389974
v 0.033449 2.458205 -0.372860
v -0.085869 2.530856 -0.506503
v -0.083259 2.538868 -0.503340
v -0.079117 2.531005 -0.512451
v 0.033449 2.458205 -0.372860
v -0.083259 2.538868 -0.503340
v -0.092622 2.530708 -0.500555
v 0.033449 2.458205 -0.372860
v -0.092622 2.530708 -0.500555
v 0.015863 2.442878 -0.367629
v 0.028547 2.443157 -0.378802
v 0.033449 2.458205 -0.372860
v 0.015863 2.442878 -0.367629
v -0.085869 2.530856 -0.506503
v -0.092622 2.530708 -0.500555
v -0.083259 2.538868 -0.503340
v 0.015863 2.442878 -0.367629
v -0.092622 2.530708 -0.500555
v -0.088479 2.522845 -0.509666
v 0.015863 2.442878 -0.367629
v -0.088479 2.522845 -0.509666
v 0.023645 2.428110 -0.384744
v 0.028547 2.443157 -0.378802
v 0.015863 2.442878 -0.367629
v 0.023645 2.428110 -0.384744
v -0.085869 2.530856 -0.506503
v -0.088479 2.522845 -0.509666
v -0.092622 2.530708 -0.500555
v 0.023645 2.428110 -0.384744
v -0.088479 2.522845 -0.509666
v -0.079117 2.531005 -0.512451
v 0.023645 2.428110 -0.384744
v -0.079117 2.531005 -0.512451
v 0.041231 2.443437 -0.389974
v 0.028547 2.443157 -0.378802
v 0.023645 2.428110 -0.384744
v 0.041231 2.443437 -0.389974
v -0.085869 2.530856 -0.506503
v -0.079117 2.531005 -0.512451
v -0.088479 2.522845 -0.509666
v 0.047589 2.407932 -0.231087
v 0.001923 2.518351 -0.427022
v -0.006231 2.526127 -0.421103
v 0.047589 2.407932 -0.231087
v -0.006231 2.526127 -0.421103
v 0.032271 2.422537 -0.219968
v 0.030967 2.407725 -0.228012
v 0.047589 2.407932 -0.231087
v 0.032271 2.422537 -0.219968
v -0.006926 2.518241 -0.425385
v -0.006231 2.526127 -0.421103
v 0.001923 2.518351 -0.427022
v 0.032271 2.422537 -0.219968
v -0.006231 2.526127 -0.421103
v -0.015775 2.518131 -0.423747
v 0.032271 2.422537 -0.219968
v -0.015775 2.518131 -0.423747
v 0.014346 2.407519 -0.224936
v 0.030967 2.407725 -0.228012
v 0.032271 2.422537 -0.219968
v 0.014346 2.407519 -0.224936
v -0.006926 2.518241 -0.425385
v -0.015775 2.518131 -0.423747
v -0.006231 2.526127 -0.421103
v 0.014346 2.407519 -0.224936
v -0.015775 2.518131 -0.423747
v -0.007620 2.510356 -0.429667
v 0.014346 2.407519 -0.224936
v -0.007620 2.510356 -0.429667
v 0.029663 2.392913 -0.236055
v 0.030967 2.407725 -0.228012
v 0.014346 2.407519 -0.224936
v 0.029663 2.392913 -0.236055
v -0.006926 2.518241 -0.425385
v -0.007620 2.510356 -0.429667
v -0.015775 2.518131 -0.423747
v 0.029663 2.392913 -0.236055
v -0.007620 2.510356 -0.429667
v 0.001923 2.518351 -0.427022
v 0.029663 2.392913 -0.236055
v 0.001923 2.518351 -0.427022
v 0.047589 2.407932 -0.231087
v 0.030967 2.407725 -0.228012
v 0.029663 2.392913 -0.236055
v 0.047589 2.407932 -0.231087
v -0.006926 2.518241 -0.425385
v 0.001923 2.518351 -0.427022
v -0.007620 2.510356 -0.429667
v 0.034307 2.399816 0.068711
v 0.379685 2.556225 0.010461
v 0.371729 2.570513 -0.003997
v 0.034307 2.399816 0.068711
v 0.371729 2.570513 -0.003997
v 0.015364 2.433835 0.034288
v 0.030206 2.400281 0.032194
v 0.034307 2.399816 0.068711
v 0.015364 2.433835 0.034288
v 0.377963 2.556421 -0.004877
v 0.371729 2.570513 -0.003997
v 0.379685 2.556225 0.010461
v 0.015364 2.433835 0.034288
v 0.371729 2.570513 -0.003997
v 0.376240 2.556616 -0.020214
v 0.015364 2.433835 0.034288
v 0.376240 2.556616 -0.020214
v 0.026105 2.400746 -0.004323
v 0.030206 2.400281 0.032194
v 0.015364 2.433835 0.034288
v 0.026105 2.400746 -0.004323
v 0.377963 2.556421 -0.004877
v 0.376240 2.556616 -0.020214
v 0.371729 2.570513 -0.003997
v 0.026105 2.400746 -0.004323
v 0.376240 2.556616 -0.020214
v 0.384197 2.542328 -0.005756
v 0.026105 2.400746 -0.004323
v 0.384197 2.542328 -0.005756
v 0.045048 2.366727 0.030100
v 0.030206 2.400281 0.032194
v 0.026105 2.400746 -0.004323
v 0.045048 2.366727 0.030100
v 0.377963 2.556421 -0.004877
v 0.384197 2.542328 -0.005756
v 0.376240 2.556616 -0.020214
v 0.045048 2.366727 0.030100
v 0.384197 2.542328 -0.005756
v 0.379685 2.556225 0.010461
v 0.045048 2.366727 0.030100
v 0.379685 2.556225 0.010461
v 0.034307 2.399816 0.068711
v 0.030206 2.400281 0.032194
v 0.045048 2.366727 0.030100
v 0.034307 2.399816 0.068711
v 0.377963 2.556421 -0.004877
v 0.379685 2.556225 0.010461
v 0.384197 2.542328 -0.005756
v 0.255195 2.506446 0.018731
v 0.353323 2.566496 0.109327
v 0.357085 2.574854 0.100497
v 0.255195 2.506446 0.018731
v 0.357085 2.574854 0.100497
v 0.262262 2.522146 0.002145
v 0.267287 2.506728 0.006921
v 0.255195 2.506446 0.018731
v 0.262262 2.522146 0.002145
v 0.359761 2.566646 0.103040
v 0.357085 2.574854 0.100497
v 0.353323 2.566496 0.109327
v 0.262262 2.522146 0.002145
v 0.357085 2.574854 0.100497
v 0.366198 2.566797 0.096752
v 0.262262 2.522146 0.002145
v 0.366198 2.566797 0.096752
v 0.279380 2.507011 -0.004889
v 0.267287 2.506728 0.006921
v 0.262262 2.522146 0.002145
v 0.279380 2.507011 -0.004889
v 0.359761 2.566646 0.103040
v 0.366198 2.566797 0.096752
v 0.357085 2.574854 0.100497
v 0.279380 2.507011 -0.004889
v 0.366198 2.566797 0.096752
v 0.362436 2.558438 0.105583
v 0.279380 2.507011 -0.004889
v 0.362436 2.558438 0.105583
v 0.272312 2.491310 0.011698
v 0.267287 2.506728 0.006921
v 0.279380 2.507011 -0.004889
v 0.272312 2.491310 0.011698
v 0.359761 2.566646 0.103040
v 0.362436 2.558438 0.105583
v 0.366198 2.566797 0.096752
v 0.272312 2.491310 0.011698
v 0.362436 2.558438 0.105583
v 0.353323 2.566496 0.109327
v 0.272312 2.491310 0.011698
v 0.353323 2.566496 0.109327
v 0.255195 2.506446 0.018731
v 0.267287 2.506728 0.006921
v 0.272312 2.491310 0.011698
v 0.255195 2.506446 0.018731
v 0.359761 2.566646 0.103040
v 0.353323 2.566496 0.109327
v 0.362436 2.558438 0.105583
v 0.312149 2.520639 0.013260
v 0.398179 2.604829 -0.124544
v 0.388421 2.612815 -0.126273
v 0.312149 2.520639 0.013260
v 0.388421 2.612815 -0.126273
v 0.293820 2.535641 0.010013
v 0.298263 2.520636 0.003619
v 0.312149 2.520639 0.013260
v 0.293820 2.535641 0.010013
v 0.390786 2.604827 -0.129677
v 0.388421 2.612815 -0.126273
v 0.398179 2.604829 -0.124544
v 0.293820 2.535641 0.010013
v 0.388421 2.612815 -0.126273
v 0.383393 2.604825 -0.134810
v 0.293820 2.535641 0.010013
v 0.383393 2.604825 -0.134810
v 0.284376 2.520632 -0.006022
v 0.298263 2.520636 0.003619
v 0.293820 2.535641 0.010013
v 0.284376 2.520632 -0.006022
v 0.390786 2.604827 -0.129677
v 0.383393 2.604825 -0.134810
v 0.388421 2.612815 -0.126273
v 0.284376 2.520632 -0.006022
v 0.383393 2.604825 -0.134810
v 0.393151 2.596838 -0.133081
v 0.284376 2.520632 -0.006022
v 0.393151 2.596838 -0.133081
v 0.302705 2.505630 -0.002774
v 0.298263 2.520636 0.003619
v 0.284376 2.520632 -0.006022
v 0.302705 2.505630 -0.002774
v 0.390786 2.604827 -0.129677
v 0.393151 2.596838 -0.133081
v 0.383393 2.604825 -0.134810
v 0.302705 2.505630 -0.002774
v 0.393151 2.596838 -0.133081
v 0.398179 2.604829 -0.124544
v 0.302705 2.505630 -0.002774
v 0.398179 2.604829 -0.124544
v 0.312149 2.520639 0.013260
v 0.298263 2.520636 0.003619
v 0.302705 2.505630 -0.002774
v 0.312149 2.520639 0.013260
v 0.390786 2.604827 -0.129677
v 0.398179 2.604829 -0.124544
v 0.393151 2.596838 -0.133081
v 0.010437 2.223808 0.042414
v 0.113616 2.409106 0.434704
v 0.127198 2.423339 0.425247
v 0.010437 2.223808 0.042414
v 0.127198 2.423339 0.425247
v 0.042777 2.257694 0.019899
v 0.046374 2.224268 0.034742
v 0.010437 2.223808 0.042414
v 0.042777 2.257694 0.019899
v 0.128709 2.409300 0.431481
v 0.127198 2.423339 0.425247
v 0.113616 2.409106 0.434704
v 0.042777 2.257694 0.019899
v 0.127198 2.423339 0.425247
v 0.143803 2.409493 0.428259
v 0.042777 2.257694 0.019899
v 0.143803 2.409493 0.428259
v 0.082311 2.224729 0.027069
v 0.046374 2.224268 0.034742
v 0.042777 2.257694 0.019899
v 0.082311 2.224729 0.027069
v 0.128709 2.409300 0.431481
v 0.143803 2.409493 0.428259
v 0.127198 2.423339 0.425247
v 0.082311 2.224729 0.027069
v 0.143803 2.409493 0.428259
v 0.130220 2.395261 0.437715
v 0.082311 2.224729 0.027069
v 0.130220 2.395261 0.437715
v 0.049972 2.190842 0.049584
v 0.046374 2.224268 0.034742
v 0.082311 2.224729 0.027069
v 0.049972 2.190842 0.049584
v 0.128709 2.409300 0.431481
v 0.130220 2.395261 0.437715
v 0.143803 2.409493 0.428259
v 0.049972 2.190842 0.049584
v 0.130220 2.395261 0.437715
v 0.113616 2.409106 0.434704
v 0.049972 2.190842 0.049584
v 0.113616 2.409106 0.434704
v 0.010437 2.223808 0.042414
v 0.046374 2.224268 0.034742
v 0.049972 2.190842 0.049584
v 0.010437 2.223808 0.042414
v 0.128709 2.409300 0.431481
v 0.113616 2.409106 0.434704
v 0.130220 2.395261 0.437715
v 0.076314 2.329374 0.260190
v 0.079495 2.449906 0.486585
v 0.088483 2.457938 0.482498
v 0.076314 2.329374 0.260190
v 0.088483 2.457938 0.482498
v 0.093198 2.344459 0.252511
v 0.093216 2.329537 0.260456
v 0.076314 2.329374 0.260190
v 0.093198 2.344459 0.252511
v 0.088493 2.449993 0.486727
v 0.088483 2.457938 0.482498
v 0.079495 2.449906 0.486585
v 0.093198 2.344459 0.252511
v 0.088483 2.457938 0.482498
v 0.097492 2.450080 0.486869
v 0.093198 2.344459 0.252511
v 0.097492 2.450080 0.486869
v 0.110119 2.329700 0.260722
v 0.093216 2.329537 0.260456
v 0.093198 2.344459 0.252511
v 0.110119 2.329700 0.260722
v 0.088493 2.449993 0.486727
v 0.097492 2.450080 0.486869
v 0.088483 2.457938 0.482498
v 0.110119 2.329700 0.260722
v 0.097492 2.450080 0.486869
v 0.088503 2.442049 0.490956
v 0.110119 2.329700 0.260722
v 0.088503 2.442049 0.490956
v 0.093235 2.314615 0.268400
v 0.093216 2.329537 0.260456
v 0.110119 2.329700 0.260722
v 0.093235 2.314615 0.268400
v 0.088493 2.449993 0.486727
v 0.088503 2.442049 0.490956
v 0.097492 2.450080 0.486869
v 0.093235 2.314615 0.268400
v 0.088503 2.442049 0.490956
v 0.079495 2.449906 0.486585
v 0.093235 2.314615 0.268400
v 0.079495 2.449906 0.486585
v 0.076314 2.329374 0.260190
v 0.093216 2.329537 0.260456
v 0.093235 2.314615 0.268400
v 0.076314 2.329374 0.260190
v 0.088493 2.449993 0.486727
v 0.079495 2.449906 0.486585
v 0.088503 2.442049 0.490956
v 0.086181 2.345999 0.286889
v 0.026489 2.398582 0.398106
v 0.035957 2.406898 0.399896
v 0.086181 2.345999 0.286889
v 0.035957 2.406898 0.399896
v 0.103965 2.361619 0.290251
v 0.100550 2.346018 0.295794
v 0.086181 2.345999 0.286889
v 0.103965 2.361619 0.290251
v 0.034139 2.398592 0.402847
v 0.035957 2.406898 0.399896
v 0.026489 2.398582 0.398106
v 0.103965 2.361619 0.290251
v 0.035957 2.406898 0.399896
v 0.041789 2.398602 0.407588
v 0.103965 2.361619 0.290251
v 0.041789 2.398602 0.407588
v 0.114919 2.346036 0.304699
v 0.100550 2.346018 0.295794
v 0.103965 2.361619 0.290251
v 0.114919 2.346036 0.304699
v 0.034139 2.398592 0.402847
v 0.041789 2.398602 0.407588
v 0.035957 2.406898 0.399896
v 0.114919 2.346036 0.304699
v 0.041789 2.398602 0.407588
v 0.032320 2.390287 0.405798
v 0.114919 2.346036 0.304699
v 0.032320 2.390287 0.405798
v 0.097135 2.330417 0.301337
v 0.100550 2.346018 0.295794
v 0.114919 2.346036 0.304699
v 0.097135 2.330417 0.301337
v 0.034139 2.398592 0.402847
v 0.032320 2.390287 0.405798
v 0.041789 2.398602 0.407588
v 0.097135 2.330417 0.301337
v 0.032320 2.390287 0.405798
v 0.026489 2.398582 0.398106
v 0.097135 2.330417 0.301337
v 0.026489 2.398582 0.398106
v 0.086181 2.345999 0.286889
v 0.100550 2.346018 0.295794
v 0.097135 2.330417 0.301337
v 0.086181 2.345999 0.286889
v 0.034139 2.398592 0.402847
v 0.026489 2.398582 0.398106
v 0.032320 2.390287 0.405798
v 0.101859 2.362221 0.346925
v 0.249250 2.438804 0.396038
v 0.248694 2.447025 0.386337
v 0.101859 2.362221 0.346925
v 0.248694 2.447025 0.386337
v 0.100815 2.377662 0.328703
v 0.107884 2.362499 0.331132
v 0.101859 2.362221 0.346925
v 0.100815 2.377662 0.328703
v 0.252458 2.438952 0.387630
v 0.248694 2.447025 0.386337
v 0.249250 2.438804 0.396038
v 0.100815 2.377662 0.328703
v 0.248694 2.447025 0.386337
v 0.255665 2.439100 0.379222
v 0.100815 2.377662 0.328703
v 0.255665 2.439100 0.379222
v 0.113909 2.362777 0.315340
v 0.107884 2.362499 0.331132
v 0.100815 2.377662 0.328703
v 0.113909 2.362777 0.315340
v 0.252458 2.438952 0.387630
v 0.255665 2.439100 0.379222
v 0.248694 2.447025 0.386337
v 0.113909 2.362777 0.315340
v 0.255665 2.439100 0.379222
v 0.256221 2.430880 0.388924
v 0.113909 2.362777 0.315340
v 0.256221 2.430880 0.388924
v 0.114953 2.347336 0.333562
v 0.107884 2.362499 0.331132
v 0.113909 2.362777 0.315340
v 0.114953 2.347336 0.333562
v 0.252458 2.438952 0.387630
v 0.256221 2.430880 0.388924
v 0.255665 2.439100 0.379222
v 0.114953 2.347336 0.333562
v 0.256221 2.430880 0.388924
v 0.249250 2.438804 0.396038
v 0.114953 2.347336 0.333562
v 0.249250 2.438804 0.396038
v 0.101859 2.362221 0.346925
v 0.107884 2.362499 0.331132
v 0.114953 2.347336 0.333562
v 0.101859 2.362221 0.346925
v 0.252458 2.438952 0.387630
v 0.249250 2.438804 0.396038
v 0.256221 2.430880 0.388924
v 0.030267 2.278525 -0.001051
v -0.398624 2.499280 0.160360
v -0.387500 2.513021 0.173162
v 0.030267 2.278525 -0.001051
v -0.387500 2.513021 0.173162
v 0.056752 2.311243 0.029431
v 0.041425 2.278150 0.033962
v 0.030267 2.278525 -0.001051
v 0.056752 2.311243 0.029431
v -0.393937 2.499122 0.175065
v -0.387500 2.513021 0.173162
v -0.398624 2.499280 0.160360
v 0.056752 2.311243 0.029431
v -0.387500 2.513021 0.173162
v -0.389251 2.498965 0.189771
v 0.056752 2.311243 0.029431
v -0.389251 2.498965 0.189771
v 0.052583 2.277776 0.068975
v 0.041425 2.278150 0.033962
v 0.056752 2.311243 0.029431
v 0.052583 2.277776 0.068975
v -0.393937 2.499122 0.175065
v -0.389251 2.498965 0.189771
v -0.387500 2.513021 0.173162
v 0.052583 2.277776 0.068975
v -0.389251 2.498965 0.189771
v -0.400375 2.485224 0.176968
v 0.052583 2.277776 0.068975
v -0.400375 2.485224 0.176968
v 0.026097 2.245058 0.038493
v 0.041425 2.278150 0.033962
v 0.052583 2.277776 0.068975
v 0.026097 2.245058 0.038493
v -0.393937 2.499122 0.175065
v -0.400375 2.485224 0.176968
v -0.389251 2.498965 0.189771
v 0.026097 2.245058 0.038493
v -0.400375 2.485224 0.176968
v -0.398624 2.499280 0.160360
v 0.026097 2.245058 0.038493
v -0.398624 2.499280 0.160360
v 0.030267 2.278525 -0.001051
v 0.041425 2.278150 0.033962
v 0.026097 2.245058 0.038493
v 0.030267 2.278525 -0.001051
v -0.393937 2.499122 0.175065
v -0.398624 2.499280 0.160360
v -0.400375 2.485224 0.176968
v -0.168854 2.378989 0.086127
v -0.298478 2.472740 0.221997
v -0.289324 2.480761 0.225719
v -0.168854 2.378989 0.086127
v -0.289324 2.480761 0.225719
v -0.151660 2.394057 0.093118
v -0.157144 2.378936 0.098319
v -0.168854 2.378989 0.086127
v -0.151660 2.394057 0.093118
v -0.292243 2.472711 0.228488
v -0.289324 2.480761 0.225719
v -0.298478 2.472740 0.221997
v -0.151660 2.394057 0.093118
v -0.289324 2.480761 0.225719
v -0.286009 2.472683 0.234979
v -0.151660 2.394057 0.093118
v -0.286009 2.472683 0.234979
v -0.145434 2.378882 0.110511
v -0.157144 2.378936 0.098319
v -0.151660 2.394057 0.093118
v -0.145434 2.378882 0.110511
v -0.292243 2.472711 0.228488
v -0.286009 2.472683 0.234979
v -0.289324 2.480761 0.225719
v -0.145434 2.378882 0.110511
v -0.286009 2.472683 0.234979
v -0.295163 2.464661 0.231258
v -0.145434 2.378882 0.110511
v -0.295163 2.464661 0.231258
v -0.162628 2.363815 0.103521
v -0.157144 2.378936 0.098319
v -0.145434 2.378882 0.110511
v -0.162628 2.363815 0.103521
v -0.292243 2.472711 0.228488
v -0.295163 2.464661 0.231258
v -0.286009 2.472683 0.234979
v -0.162628 2.363815 0.103521
v -0.295163 2.464661 0.231258
v -0.298478 2.472740 0.221997
v -0.162628 2.363815 0.103521
v -0.298478 2.472740 0.221997
v -0.168854 2.378989 0.086127
v -0.157144 2.378936 0.098319
v -0.162628 2.363815 0.103521
v -0.168854 2.378989 0.086127
v -0.292243 2.472711 0.228488
v -0.298478 2.472740 0.221997
v -0.295163 2.464661 0.231258
v -0.199713 2.398809 0.094414
v -0.410067 2.513942 0.152261
v -0.403929 2.521796 0.160175
v -0.199713 2.398809 0.094414
v -0.403929 2.521796 0.160175
v -0.188185 2.413563 0.109280
v -0.195923 2.398618 0.110887
v -0.199713 2.398809 0.094414
v -0.188185 2.413563 0.109280
v -0.408048 2.513840 0.161031
v -0.403929 2.521796 0.160175
v -0.410067 2.513942 0.152261
v -0.188185 2.413563 0.109280
v -0.403929 2.521796 0.160175
v -0.406030 2.513739 0.169801
v -0.188185 2.413563 0.109280
v -0.406030 2.513739 0.169801
v -0.192132 2.398428 0.127361
v -0.195923 2.398618 0.110887
v -0.188185 2.413563 0.109280
v -0.192132 2.398428 0.127361
v -0.408048 2.513840 0.161031
v -0.406030 2.513739 0.169801
v -0.403929 2.521796 0.160175
v -0.192132 2.398428 0.127361
v -0.406030 2.513739 0.169801
v -0.412168 2.505884 0.161887
v -0.192132 2.398428 0.127361
v -0.412168 2.505884 0.161887
v -0.203660 2.383674 0.112495
v -0.195923 2.398618 0.110887
v -0.192132 2.398428 0.127361
v -0.203660 2.383674 0.112495
v -0.408048 2.513840 0.161031
v -0.412168 2.505884 0.161887
v -0.406030 2.513739 0.169801
v -0.203660 2.383674 0.112495
v -0.412168 2.505884 0.161887
v -0.410067 2.513942 0.152261
v -0.203660 2.383674 0.112495
v -0.410067 2.513942 0.152261
v -0.199713 2.398809 0.094414
v -0.195923 2.398618 0.110887
v -0.203660 2.383674 0.112495
v -0.199713 2.398809 0.094414
v -0.408048 2.513840 0.161031
v -0.410067 2.513942 0.152261
v -0.412168 2.505884 0.161887
v -0.229497 2.418575 0.107374
v -0.467366 2.466252 0.039517
v -0.468554 2.474941 0.048741
v -0.229497 2.418575 0.107374
v -0.468554 2.474941 0.048741
v -0.231730 2.434896 0.124700
v -0.234701 2.418301 0.123456
v -0.229497 2.418575 0.107374
v -0.231730 2.434896 0.124700
v -0.470136 2.466106 0.048078
v -0.468554 2.474941 0.048741
v -0.467366 2.466252 0.039517
v -0.231730 2.434896 0.124700
v -0.468554 2.474941 0.048741
v -0.472907 2.465960 0.056640
v -0.231730 2.434896 0.124700
v -0.472907 2.465960 0.056640
v -0.239905 2.418027 0.139537
v -0.234701 2.418301 0.123456
v -0.231730 2.434896 0.124700
v -0.239905 2.418027 0.139537
v -0.470136 2.466106 0.048078
v -0.472907 2.465960 0.056640
v -0.468554 2.474941 0.048741
v -0.239905 2.418027 0.139537
v -0.472907 2.465960 0.056640
v -0.471718 2.457271 0.047416
v -0.239905 2.418027 0.139537
v -0.471718 2.457271 0.047416
v -0.237672 2.401706 0.122212
v -0.234701 2.418301 0.123456
v -0.239905 2.418027 0.139537
v -0.237672 2.401706 0.122212
v -0.470136 2.466106 0.048078
v -0.471718 2.457271 0.047416
v -0.472907 2.465960 0.056640
v -0.237672 2.401706 0.122212
v -0.471718 2.457271 0.047416
v -0.467366 2.466252 0.039517
v -0.237672 2.401706 0.122212
v -0.467366 2.466252 0.039517
v -0.229497 2.418575 0.107374
v -0.234701 2.418301 0.123456
v -0.237672 2.401706 0.122212
v -0.229497 2.418575 0.107374
v -0.470136 2.466106 0.048078
v -0.467366 2.466252 0.039517
v -0.471718 2.457271 0.047416
f 1 2 3
f 4 5 6
f 7 8 9
f 10 11 12
f 13 14 15
f 16 17 18
f 19 20 21
f 22 23 24
f 25 26 27
f 28 29 30
f 31 32 33
f 34 35 36
f 37 38 39
f 40 41 42
f 43 44 45
f 46 47 48
f 49 50 51
f 52 53 54
f 55 56 57
f 58 59 60
f 61 62 63
f 64 65 66
f 67 68 69
f 70 71 72
f 73 74 75
f 76 77 78
f 79 80 81
f 82 83 84
f 85 86 87
f 88 89 90
f 91 92 93
f 94 95 96
f 97 98 99
f 100 101 102
f 103 104 105
f 106 107 108
f 109 110 111
f 112 113 114
f 115 116 117
f 118 119 120
f 121 122 123
f 124 125 126
f 127 128 129
f 130 131 132
f 133 134 135
f 136 137 138
f 139 140 141
f 142 143 144
f 145 146 147
f 148 149 150
f 151 152 153
f 154 155 156
f 157 158 159
f 160 161 162
f 163 164 165
f 166 167 168
f 169 170 171
f 172 173 174
f 175 176 177
f 178 179 180
f 181 182 183
f 184 185 186
f 187 188 189
f 190 191 192
f 193 194 195
f 196 197 198
f 199 200 201
f 202 203 204
f 205 206 207
f 208 209 210
f 211 212 213
f 214 215 216
f 217 218 219
f 220 221 222
f 223 224 225
f 226 227 228
f 229 230 231
f 232 233 234
f 235 236 237
f 238 239 240
f 241 242 243
f 244 245 246
f 247 248 249
f 250 251 252
f 253 254 255
f 256 257 258
f 259 260 261
f 262 263 264
f 265 266 267
f 268 269 270
f 271 272 273
f 274 275 276
f 277 278 279
f 280 281 282
f 283 284 285
f 286 287 288
f 289 290 291
f 292 293 294
f 295 296 297
f 298 299 300
f 301 302 303
f 304 305 306
f 307 308 309
f 310 311 312
f 313 314 315
f 316 317 318
f 319 320 321
f 322 323 324
f 325 326 327
f 328 329 330
f 331 332 333
f 334 335 336
f 337 338 339
f 340 341 342
f 343 344 345
f 346 347 348
f 349 350 351
f 352 353 354
f 355 356 357
f 358 359 360
f 361 362 363
f 364 365 366
f 367 368 369
f 370 371 372
f 373 374 375
f 376 377 378
f 379 380 381
f 382 383 384
f 385 386 387
f 388 389 390
f 391 392 393
f 394 395 396
f 397 398 399
f 400 401 402
f 403 404 405
f 406 407 408
f 409 410 411
f 412 413 414
f 415 416 417
f 418 419 420
f 421 422 423
f 424 425 426
f 427 428 429
f 430 431 432
f 433 434 435
f 436 437 438
f 439 440 441
f 442 443 444
f 445 446 447
f 448 449 450
f 451 452 453
f 454 455 456
f 457 458 459
f 460 461 462
f 463 464 465
f 466 467 468
f 469 470 471
f 472 473 474
f 475 476 477
f 478 479 480
f 481 482 483
f 484 485 486
f 487 488 489
f 490 491 492
f 493 494 495
f 496 497 498
f 499 500 501
f 502 503 504
f 505 506 507
f 508 509 510
f 511 512 513
f 514 515 516
f 517 518 519
f 520 521 522
f 523 524 525
f 526 527 528
f 529 530 531
f 532 533 534
f 535 536 537
f 538 539 540
f 541 542 543
f 544 545 546
f 547 548 549
f 550 551 552
f 553 554 555
f 556 557 558
f 559 560 561
f 562 563 564
f 565 566 567
f 568 569 570
f 571 572 573
f 574 575 576
f 577 578 579
f 580 581 582
f 583 584 585
f 586 587 588
f 589 590 591
f 592 593 594
f 595 596 597
f 598 599 600
f 601 602 603
f 604 605 606
f 607 608 609
f 610 611 612
f 613 614 615
f 616 617 618
f 619 620 621
f 622 623 624
f 625 626 627
f 628 629 630
f 631 632 633
f 634 635 636
f 637 638 639
f 640 641 642
f 643 644 645
f 646 647 648
f 649 650 651
f 652 653 654
f 655 656 657
f 658 659 660
f 661 662 663
f 664 665 666
f 667 668 669
f 670 671 672
f 673 674 675
f 676 677 678
f 679 680 681
f 682 683 684
f 685 686 687
f 688 689 690
f 691 692 693
f 694 695 696
f 697 698 699
f 700 701 702
f 703 704 705
f 706 707 708
f 709 710 711
f 712 713 714
f 715 716 717
f 718 719 720
f 721 722 723
f 724 725 726
f 727 728 729
f 730 731 732
f 733 734 735
f 736 737 738
f 739 740 741
f 742 743 744
f 745 746 747
f 748 749 750
f 751 752 753
f 754 755 756
f 757 758 759
f 760 761 762
f 763 764 765
f 766 767 768
f 769 770 771
f 772 773 774
f 775 776 777
f 778 779 780
f 781 782 783
f 784 785 786
f 787 788 789
f 790 791 792
f 793 794 795
f 796 797 798
f 799 800 801
f 802 803 804
f 805 806 807
f 808 809 810
f 811 812 813
f 814 815 816
f 817 818 819
f 820 821 822
f 823 824 825
f 826 827 828
f 829 830 831
f 832 833 834
f 835 836 837
f 838 839 840
f 841 842 843
f 844 845 846
f 847 848 849
f 850 851 852
f 853 854 855
f 856 857 858
f 859 860 861
f 862 863 864
f 865 866 867
f 868 869 870
f 871 872 873
f 874 875 876
f 877 878 879
f 880 881 882
f 883 884 885
f 886 887 888
f 889 890 891
f 892 893 894
f 895 896 897
f 898 899 900
f 901 902 903
f 904 905 906
f 907 908 909
f 910 911 912
f 913 914 915
f 916 917 918
f 919 920 921
f 922 923 924
f 925 926 927
f 928 929 930
f 931 932 933
f 934 935 936
f 937 938 939
f 940 941 942
f 943 944 945
f 946 947 948
f 949 950 951
f 952 953 954
f 955 956 957
f 958 959 960

o TreeFoliage
v 0.022622 2.338980 0.028519
v 0.196232 2.417187 0.029601
v 0.145162 2.415020 0.149894
v 0.022622 2.338980 0.028519
v 0.145162 2.415020 0.149894
v 0.022622 2.338980 0.028519
v 0.022622 2.338980 0.028519
v 0.145162 2.415020 0.149894
v 0.021868 2.413115 0.199707
v 0.022622 2.338980 0.028519
v 0.021868 2.413115 0.199707
v 0.022622 2.338980 0.028519
v 0.022622 2.338980 0.028519
v 0.021868 2.413115 0.199707
v -0.101426 2.412589 0.149860
v 0.022622 2.338980 0.028519
v -0.101426 2.412589 0.149860
v 0.022622 2.338980 0.028519
v 0.022622 2.338980 0.028519
v -0.101426 2.412589 0.149860
v -0.152496 2.413749 0.029554
v 0.022622 2.338980 0.028519
v -0.152496 2.413749 0.029554
v 0.022622 2.338980 0.028519
v 0.022622 2.338980 0.028519
v -0.152496 2.413749 0.029554
v -0.101426 2.415917 -0.090739
v 0.022622 2.338980 0.028519
v -0.101426 2.415917 -0.090739
v 0.022622 2.338980 0.028519
v 0.022622 2.338980 0.028519
v -0.101426 2.415917 -0.090739
v 0.021868 2.417822 -0.140552
v 0.022622 2.338980 0.028519
v 0.021868 2.417822 -0.140552
v 0.022622 2.338980 0.028519
v 0.022622 2.338980 0.028519
v 0.021868 2.417822 -0.140552
v 0.145162 2.418348 -0.090706
v 0.022622 2.338980 0.028519
v 0.145162 2.418348 -0.090706
v 0.022622 2.338980 0.028519
v 0.022622 2.338980 0.028519
v 0.145162 2.418348 -0.090706
v 0.196232 2.417187 0.029601
v 0.022622 2.338980 0.028519
v 0.196232 2.417187 0.029601
v 0.022622 2.338980 0.028519
v 0.196232 2.417187 0.029601
v 0.266635 2.602559 0.032165
v 0.194411 2.599494 0.202285
v 0.196232 2.417187 0.029601
v 0.194411 2.599494 0.202285
v 0.145162 2.415020 0.149894
v 0.145162 2.415020 0.149894
v 0.194411 2.599494 0.202285
v 0.020047 2.596800 0.272731
v 0.145162 2.415020 0.149894
v 0.020047 2.596800 0.272731
v 0.021868 2.413115 0.199707
v 0.021868 2.413115 0.199707
v 0.020047 2.596800 0.272731
v -0.154317 2.596056 0.202237
v 0.021868 2.413115 0.199707
v -0.154317 2.596056 0.202237
v -0.101426 2.412589 0.149860
v -0.101426 2.412589 0.149860
v -0.154317 2.596056 0.202237
v -0.226541 2.597697 0.032098
v -0.101426 2.412589 0.149860
v -0.226541 2.597697 0.032098
v -0.152496 2.413749 0.029554
v -0.152496 2.413749 0.029554
v -0.226541 2.597697 0.032098
v -0.154317 2.600763 -0.138022
v -0.152496 2.413749 0.029554
v -0.154317 2.600763 -0.138022
v -0.101426 2.415917 -0.090739
v -0.101426 2.415917 -0.090739
v -0.154317 2.600763 -0.138022
v 0.020047 2.603456 -0.208468
v -0.101426 2.415917 -0.090739
v 0.020047 2.603456 -0.208468
v 0.021868 2.417822 -0.140552
v 0.021868 2.417822 -0.140552
v 0.020047 2.603456 -0.208468
v 0.194411 2.604201 -0.137974
v 0.021868 2.417822 -0.140552
v 0.194411 2.604201 -0.137974
v 0.145162 2.418348 -0.090706
v 0.145162 2.418348 -0.090706
v 0.194411 2.604201 -0.137974
v 0.266635 2.602559 0.032165
v 0.145162 2.418348 -0.090706
v 0.266635 2.602559 0.032165
v 0.196232 2.417187 0.029601
v 0.266635 2.602559 0.032165
v 0.192590 2.786507 0.034710
v 0.141520 2.784339 0.155003
v 0.266635 2.602559 0.032165
v 0.141520 2.784339 0.155003
v 0.194411 2.599494 0.202285
v 0.194411 2.599494 0.202285
v 0.141520 2.784339 0.155003
v 0.018226 2.782435 0.204815
v 0.194411 2.599494 0.202285
v 0.018226 2.782435 0.204815
v 0.020047 2.596800 0.272731
v 0.020047 2.596800 0.272731
v 0.018226 2.782435 0.204815
v -0.105068 2.781909 0.154969
v 0.020047 2.596800 0.272731
v -0.105068 2.781909 0.154969
v -0.154317 2.596056 0.202237
v -0.154317 2.596056 0.202237
v -0.105068 2.781909 0.154969
v -0.156138 2.783069 0.034662
v -0.154317 2.596056 0.202237
v -0.156138 2.783069 0.034662
v -0.226541 2.597697 0.032098
v -0.226541 2.597697 0.032098
v -0.156138 2.783069 0.034662
v -0.105068 2.785237 -0.085630
v -0.226541 2.597697 0.032098
v -0.105068 2.785237 -0.085630
v -0.154317 2.600763 -0.138022
v -0.154317 2.600763 -0.138022
v -0.105068 2.785237 -0.085630
v 0.018226 2.787141 -0.135443
v -0.154317 2.600763 -0.138022
v 0.018226 2.787141 -0.135443
v 0.020047 2.603456 -0.208468
v 0.020047 2.603456 -0.208468
v 0.018226 2.787141 -0.135443
v 0.141520 2.787668 -0.085597
v 0.020047 2.603456 -0.208468
v 0.141520 2.787668 -0.085597
v 0.194411 2.604201 -0.137974
v 0.194411 2.604201 -0.137974
v 0.141520 2.787668 -0.085597
v 0.192590 2.786507 0.034710
v 0.194411 2.604201 -0.137974
v 0.192590 2.786507 0.034710
v 0.266635 2.602559 0.032165
v 0.192590 2.786507 0.034710
v 0.017472 2.861277 0.035744
v 0.017472 2.861277 0.035744
v 0.192590 2.786507 0.034710
v 0.017472 2.861277 0.035744
v 0.141520 2.784339 0.155003
v 0.141520 2.784339 0.155003
v 0.017472 2.861277 0.035744
v 0.017472 2.861277 0.035744
v 0.141520 2.784339 0.155003
v 0.017472 2.861277 0.035744
v 0.018226 2.782435 0.204815
v 0.018226 2.782435 0.204815
v 0.017472 2.861277 0.035744
v 0.017472 2.861277 0.035744
v 0.018226 2.782435 0.204815
v 0.017472 2.861277 0.035744
v -0.105068 2.781909 0.154969
v -0.105068 2.781909 0.154969
v 0.017472 2.861277 0.035744
v 0.017472 2.861277 0.035744
v -0.105068 2.781909 0.154969
v 0.017472 2.861277 0.035744
v -0.156138 2.783069 0.034662
v -0.156138 2.783069 0.034662
v 0.017472 2.861277 0.035744
v 0.017472 2.861277 0.035744
v -0.156138 2.783069 0.034662
v 0.017472 2.861277 0.035744
v -0.105068 2.785237 -0.085630
v -0.105068 2.785237 -0.085630
v 0.017472 2.861277 0.035744
v 0.017472 2.861277 0.035744
v -0.105068 2.785237 -0.085630
v 0.017472 2.861277 0.035744
v 0.018226 2.787141 -0.135443
v 0.018226 2.787141 -0.135443
v 0.017472 2.861277 0.035744
v 0.017472 2.861277 0.035744
v 0.018226 2.787141 -0.135443
v 0.017472 2.861277 0.035744
v 0.141520 2.787668 -0.085597
v 0.141520 2.787668 -0.085597
v 0.017472 2.861277 0.035744
v 0.017472 2.861277 0.035744
v 0.141520 2.787668 -0.085597
v 0.017472 2.861277 0.035744
v 0.192590 2.786507 0.034710
v 0.127172 2.110523 -0.074768
v 0.320596 2.196477 -0.073579
v 0.263701 2.193955 0.068162
v 0.127172 2.110523 -0.074768
v 0.263701 2.193955 0.068162
v 0.127172 2.110523 -0.074768
v 0.127172 2.110523 -0.074768
v 0.263701 2.193955 0.068162
v 0.126344 2.191789 0.126857
v 0.127172 2.110523 -0.074768
v 0.126344 2.191789 0.126857
v 0.127172 2.110523 -0.074768
v 0.127172 2.110523 -0.074768
v 0.126344 2.191789 0.126857
v -0.011014 2.191247 0.068124
v 0.127172 2.110523 -0.074768
v -0.011014 2.191247 0.068124
v 0.127172 2.110523 -0.074768
v 0.127172 2.110523 -0.074768
v -0.011014 2.191247 0.068124
v -0.067909 2.192647 -0.073632
v 0.127172 2.110523 -0.074768
v -0.067909 2.192647 -0.073632
v 0.127172 2.110523 -0.074768
v 0.127172 2.110523 -0.074768
v -0.067909 2.192647 -0.073632
v -0.011014 2.195168 -0.215372
v 0.127172 2.110523 -0.074768
v -0.011014 2.195168 -0.215372
v 0.127172 2.110523 -0.074768
v 0.127172 2.110523 -0.074768
v -0.011014 2.195168 -0.215372
v 0.126344 2.197335 -0.274068
v 0.127172 2.110523 -0.074768
v 0.126344 2.197335 -0.274068
v 0.127172 2.110523 -0.074768
v 0.127172 2.110523 -0.074768
v 0.126344 2.197335 -0.274068
v 0.263701 2.197877 -0.215335
v 0.127172 2.110523 -0.074768
v 0.263701 2.197877 -0.215335
v 0.127172 2.110523 -0.074768
v 0.127172 2.110523 -0.074768
v 0.263701 2.197877 -0.215335
v 0.320596 2.196477 -0.073579
v 0.127172 2.110523 -0.074768
v 0.320596 2.196477 -0.073579
v 0.127172 2.110523 -0.074768
v 0.320596 2.196477 -0.073579
v 0.399058 2.400159 -0.070761
v 0.318596 2.396593 0.129690
v 0.320596 2.196477 -0.073579
v 0.318596 2.396593 0.129690
v 0.263701 2.193955 0.068162
v 0.263701 2.193955 0.068162
v 0.318596 2.396593 0.129690
v 0.124343 2.393529 0.212698
v 0.263701 2.193955 0.068162
v 0.124343 2.393529 0.212698
v 0.126344 2.191789 0.126857
v 0.126344 2.191789 0.126857
v 0.124343 2.393529 0.212698
v -0.069909 2.392763 0.129637
v 0.126344 2.191789 0.126857
v -0.069909 2.392763 0.129637
v -0.011014 2.191247 0.068124
v -0.011014 2.191247 0.068124
v -0.069909 2.392763 0.129637
v -0.150371 2.394743 -0.070836
v -0.011014 2.191247 0.068124
v -0.150371 2.394743 -0.070836
v -0.067909 2.192647 -0.073632
v -0.067909 2.192647 -0.073632
v -0.150371 2.394743 -0.070836
v -0.069909 2.398309 -0.271288
v -0.067909 2.192647 -0.073632
v -0.069909 2.398309 -0.271288
v -0.011014 2.195168 -0.215372
v -0.011014 2.195168 -0.215372
v -0.069909 2.398309 -0.271288
v 0.124343 2.401373 -0.354295
v -0.011014 2.195168 -0.215372
v 0.124343 2.401373 -0.354295
v 0.126344 2.197335 -0.274068
v 0.126344 2.197335 -0.274068
v 0.124343 2.401373 -0.354295
v 0.318596 2.402139 -0.271235
v 0.126344 2.197335 -0.274068
v 0.318596 2.402139 -0.271235
v 0.263701 2.197877 -0.215335
v 0.263701 2.197877 -0.215335
v 0.318596 2.402139 -0.271235
v 0.399058 2.400159 -0.070761
v 0.263701 2.197877 -0.215335
v 0.399058 2.400159 -0.070761
v 0.320596 2.196477 -0.073579
v 0.399058 2.400159 -0.070761
v 0.316595 2.602255 -0.067966
v 0.259700 2.599734 0.073775
v 0.399058 2.400159 -0.070761
v 0.259700 2.599734 0.073775
v 0.318596 2.396593 0.129690
v 0.318596 2.396593 0.129690
v 0.259700 2.599734 0.073775
v 0.122343 2.597567 0.132470
v 0.318596 2.396593 0.129690
v 0.122343 2.597567 0.132470
v 0.124343 2.393529 0.212698
v 0.124343 2.393529 0.212698
v 0.122343 2.597567 0.132470
v -0.015015 2.597025 0.073737
v 0.124343 2.393529 0.212698
v -0.015015 2.597025 0.073737
v -0.069909 2.392763 0.129637
v -0.069909 2.392763 0.129637
v -0.015015 2.597025 0.073737
v -0.071910 2.598425 -0.068019
v -0.069909 2.392763 0.129637
v -0.071910 2.598425 -0.068019
v -0.150371 2.394743 -0.070836
v -0.150371 2.394743 -0.070836
v -0.071910 2.598425 -0.068019
v -0.015015 2.600947 -0.209759
v -0.150371 2.394743 -0.070836
v -0.015015 2.600947 -0.209759
v -0.069909 2.398309 -0.271288
v -0.069909 2.398309 -0.271288
v -0.015015 2.600947 -0.209759
v 0.122343 2.603113 -0.268454
v -0.069909 2.398309 -0.271288
v 0.122343 2.603113 -0.268454
v 0.124343 2.401373 -0.354295
v 0.124343 2.401373 -0.354295
v 0.122343 2.603113 -0.268454
v 0.259700 2.603655 -0.209722
v 0.124343 2.401373 -0.354295
v 0.259700 2.603655 -0.209722
v 0.318596 2.402139 -0.271235
v 0.318596 2.402139 -0.271235
v 0.259700 2.603655 -0.209722
v 0.316595 2.602255 -0.067966
v 0.318596 2.402139 -0.271235
v 0.316595 2.602255 -0.067966
v 0.399058 2.400159 -0.070761
v 0.316595 2.602255 -0.067966
v 0.121514 2.684380 -0.066830
v 0.121514 2.684380 -0.066830
v 0.316595 2.602255 -0.067966
v 0.121514 2.684380 -0.066830
v 0.259700 2.599734 0.073775
v 0.259700 2.599734 0.073775
v 0.121514 2.684380 -0.066830
v 0.121514 2.684380 -0.066830
v 0.259700 2.599734 0.073775
v 0.121514 2.684380 -0.066830
v 0.122343 2.597567 0.132470
v 0.122343 2.597567 0.132470
v 0.121514 2.684380 -0.066830
v 0.121514 2.684380 -0.066830
v 0.122343 2.597567 0.132470
v 0.121514 2.684380 -0.066830
v -0.015015 2.597025 0.073737
v -0.015015 2.597025 0.073737
v 0.121514 2.684380 -0.066830
v 0.121514 2.684380 -0.066830
v -0.015015 2.597025 0.073737
v 0.121514 2.684380 -0.066830
v -0.071910 2.598425 -0.068019
v -0.071910 2.598425 -0.068019
v 0.121514 2.684380 -0.066830
v 0.121514 2.684380 -0.066830
v -0.071910 2.598425 -0.068019
v 0.121514 2.684380 -0.066830
v -0.015015 2.600947 -0.209759
v -0.015015 2.600947 -0.209759
v 0.121514 2.684380 -0.066830
v 0.121514 2.684380 -0.066830
v -0.015015 2.600947 -0.209759
v 0.121514 2.684380 -0.066830
v 0.122343 2.603113 -0.268454
v 0.122343 2.603113 -0.268454
v 0.121514 2.684380 -0.066830
v 0.121514 2.684380 -0.066830
v 0.122343 2.603113 -0.268454
v 0.121514 2.684380 -0.066830
v 0.259700 2.603655 -0.209722
v 0.259700 2.603655 -0.209722
v 0.121514 2.684380 -0.066830
v 0.121514 2.684380 -0.066830
v 0.259700 2.603655 -0.209722
v 0.121514 2.684380 -0.066830
v 0.316595 2.602255 -0.067966
v 0.173682 2.152400 0.150992
v 0.386920 2.246102 0.152288
v 0.324199 2.243204 0.317058
v 0.173682 2.152400 0.150992
v 0.324199 2.243204 0.317058
v 0.173682 2.152400 0.150992
v 0.173682 2.152400 0.150992
v 0.324199 2.243204 0.317058
v 0.172779 2.240767 0.385292
v 0.173682 2.152400 0.150992
v 0.172779 2.240767 0.385292
v 0.173682 2.152400 0.150992
v 0.173682 2.152400 0.150992
v 0.172779 2.240767 0.385292
v 0.021358 2.240219 0.317017
v 0.173682 2.152400 0.150992
v 0.021358 2.240219 0.317017
v 0.173682 2.152400 0.150992
v 0.173682 2.152400 0.150992
v 0.021358 2.240219 0.317017
v -0.041362 2.241880 0.152230
v 0.173682 2.152400 0.150992
v -0.041362 2.241880 0.152230
v 0.173682 2.152400 0.150992
v 0.173682 2.152400 0.150992
v -0.041362 2.241880 0.152230
v 0.021358 2.244777 -0.012541
v 0.173682 2.152400 0.150992
v 0.021358 2.244777 -0.012541
v 0.173682 2.152400 0.150992
v 0.173682 2.152400 0.150992
v 0.021358 2.244777 -0.012541
v 0.172779 2.247214 -0.080774
v 0.173682 2.152400 0.150992
v 0.172779 2.247214 -0.080774
v 0.173682 2.152400 0.150992
v 0.173682 2.152400 0.150992
v 0.172779 2.247214 -0.080774
v 0.324199 2.247763 -0.012500
v 0.173682 2.152400 0.150992
v 0.324199 2.247763 -0.012500
v 0.173682 2.152400 0.150992
v 0.173682 2.152400 0.150992
v 0.324199 2.247763 -0.012500
v 0.386920 2.246102 0.152288
v 0.173682 2.152400 0.150992
v 0.386920 2.246102 0.152288
v 0.173682 2.152400 0.150992
v 0.386920 2.246102 0.152288
v 0.473440 2.468095 0.155359
v 0.384740 2.463997 0.388379
v 0.386920 2.246102 0.152288
v 0.384740 2.463997 0.388379
v 0.324199 2.243204 0.317058
v 0.324199 2.243204 0.317058
v 0.384740 2.463997 0.388379
v 0.170599 2.460551 0.484876
v 0.324199 2.243204 0.317058
v 0.170599 2.460551 0.484876
v 0.172779 2.240767 0.385292
v 0.172779 2.240767 0.385292
v 0.170599 2.460551 0.484876
v -0.043543 2.459775 0.388321
v 0.172779 2.240767 0.385292
v -0.043543 2.459775 0.388321
v 0.021358 2.240219 0.317017
v 0.021358 2.240219 0.317017
v -0.043543 2.459775 0.388321
v -0.132243 2.462124 0.155276
v 0.021358 2.240219 0.317017
v -0.132243 2.462124 0.155276
v -0.041362 2.241880 0.152230
v -0.041362 2.241880 0.152230
v -0.132243 2.462124 0.155276
v -0.043543 2.466222 -0.077745
v -0.041362 2.241880 0.152230
v -0.043543 2.466222 -0.077745
v 0.021358 2.244777 -0.012541
v 0.021358 2.244777 -0.012541
v -0.043543 2.466222 -0.077745
v 0.170599 2.469668 -0.174241
v 0.021358 2.244777 -0.012541
v 0.170599 2.469668 -0.174241
v 0.172779 2.247214 -0.080774
v 0.172779 2.247214 -0.080774
v 0.170599 2.469668 -0.174241
v 0.384740 2.470444 -0.077686
v 0.172779 2.247214 -0.080774
v 0.384740 2.470444 -0.077686
v 0.324199 2.247763 -0.012500
v 0.324199 2.247763 -0.012500
v 0.384740 2.470444 -0.077686
v 0.473440 2.468095 0.155359
v 0.324199 2.247763 -0.012500
v 0.473440 2.468095 0.155359
v 0.386920 2.246102 0.152288
v 0.473440 2.468095 0.155359
v 0.382559 2.688339 0.158405
v 0.319839 2.685441 0.323176
v 0.473440 2.468095 0.155359
v 0.319839 2.685441 0.323176
v 0.384740 2.463997 0.388379
v 0.384740 2.463997 0.388379
v 0.319839 2.685441 0.323176
v 0.168418 2.683004 0.391409
v 0.384740 2.463997 0.388379
v 0.168418 2.683004 0.391409
v 0.170599 2.460551 0.484876
v 0.170599 2.460551 0.484876
v 0.168418 2.683004 0.391409
v 0.016998 2.682456 0.323135
v 0.170599 2.460551 0.484876
v 0.016998 2.682456 0.323135
v -0.043543 2.459775 0.388321
v -0.043543 2.459775 0.388321
v 0.016998 2.682456 0.323135
v -0.045723 2.684117 0.158347
v -0.043543 2.459775 0.388321
v -0.045723 2.684117 0.158347
v -0.132243 2.462124 0.155276
v -0.132243 2.462124 0.155276
v -0.045723 2.684117 0.158347
v 0.016998 2.687015 -0.006424
v -0.132243 2.462124 0.155276
v 0.016998 2.687015 -0.006424
v -0.043543 2.466222 -0.077745
v -0.043543 2.466222 -0.077745
v 0.016998 2.687015 -0.006424
v 0.168418 2.689451 -0.074657
v -0.043543 2.466222 -0.077745
v 0.168418 2.689451 -0.074657
v 0.170599 2.469668 -0.174241
v 0.170599 2.469668 -0.174241
v 0.168418 2.689451 -0.074657
v 0.319839 2.690000 -0.006382
v 0.170599 2.469668 -0.174241
v 0.319839 2.690000 -0.006382
v 0.384740 2.470444 -0.077686
v 0.384740 2.470444 -0.077686
v 0.319839 2.690000 -0.006382
v 0.382559 2.688339 0.158405
v 0.384740 2.470444 -0.077686
v 0.382559 2.688339 0.158405
v 0.473440 2.468095 0.155359
v 0.382559 2.688339 0.158405
v 0.167515 2.777818 0.159643
v 0.167515 2.777818 0.159643
v 0.382559 2.688339 0.158405
v 0.167515 2.777818 0.159643
v 0.319839 2.685441 0.323176
v 0.319839 2.685441 0.323176
v 0.167515 2.777818 0.159643
v 0.167515 2.777818 0.159643
v 0.319839 2.685441 0.323176
v 0.167515 2.777818 0.159643
v 0.168418 2.683004 0.391409
v 0.168418 2.683004 0.391409
v 0.167515 2.777818 0.159643
v 0.167515 2.777818 0.159643
v 0.168418 2.683004 0.391409
v 0.167515 2.777818 0.159643
v 0.016998 2.682456 0.323135
v 0.016998 2.682456 0.323135
v 0.167515 2.777818 0.159643
v 0.167515 2.777818 0.159643
v 0.016998 2.682456 0.323135
v 0.167515 2.777818 0.159643
v -0.045723 2.684117 0.158347
v -0.045723 2.684117 0.158347
v 0.167515 2.777818 0.159643
v 0.167515 2.777818 0.159643
v -0.045723 2.684117 0.158347
v 0.167515 2.777818 0.159643
v 0.016998 2.687015 -0.006424
v 0.016998 2.687015 -0.006424
v 0.167515 2.777818 0.159643
v 0.167515 2.777818 0.159643
v 0.016998 2.687015 -0.006424
v 0.167515 2.777818 0.159643
v 0.168418 2.689451 -0.074657
v 0.168418 2.689451 -0.074657
v 0.167515 2.777818 0.159643
v 0.167515 2.777818 0.159643
v 0.168418 2.689451 -0.074657
v 0.167515 2.777818 0.159643
v 0.319839 2.690000 -0.006382
v 0.319839 2.690000 -0.006382
v 0.167515 2.777818 0.159643
v 0.167515 2.777818 0.159643
v 0.319839 2.690000 -0.006382
v 0.167515 2.777818 0.159643
v 0.382559 2.688339 0.158405
v -0.114903 2.193007 0.229848
v 0.118149 2.294455 0.231251
v 0.049603 2.291709 0.380916
v -0.114903 2.193007 0.229848
v 0.049603 2.291709 0.380916
v -0.114903 2.193007 0.229848
v -0.114903 2.193007 0.229848
v 0.049603 2.291709 0.380916
v -0.115881 2.289220 0.442890
v -0.114903 2.193007 0.229848
v -0.115881 2.289220 0.442890
v -0.114903 2.193007 0.229848
v -0.114903 2.193007 0.229848
v -0.115881 2.289220 0.442890
v -0.281365 2.288446 0.380871
v -0.114903 2.193007 0.229848
v -0.281365 2.288446 0.380871
v -0.114903 2.193007 0.229848
v -0.114903 2.193007 0.229848
v -0.281365 2.288446 0.380871
v -0.349911 2.289841 0.231187
v -0.114903 2.193007 0.229848
v -0.349911 2.289841 0.231187
v -0.114903 2.193007 0.229848
v -0.114903 2.193007 0.229848
v -0.349911 2.289841 0.231187
v -0.281365 2.292587 0.081523
v -0.114903 2.193007 0.229848
v -0.281365 2.292587 0.081523
v -0.114903 2.193007 0.229848
v -0.114903 2.193007 0.229848
v -0.281365 2.292587 0.081523
v -0.115881 2.295076 0.019548
v -0.114903 2.193007 0.229848
v -0.115881 2.295076 0.019548
v -0.114903 2.193007 0.229848
v -0.114903 2.193007 0.229848
v -0.115881 2.295076 0.019548
v 0.049603 2.295850 0.081568
v -0.114903 2.193007 0.229848
v 0.049603 2.295850 0.081568
v -0.114903 2.193007 0.229848
v -0.114903 2.193007 0.229848
v 0.049603 2.295850 0.081568
v 0.118149 2.294455 0.231251
v -0.114903 2.193007 0.229848
v 0.118149 2.294455 0.231251
v -0.114903 2.193007 0.229848
v 0.118149 2.294455 0.231251
v 0.212727 2.534759 0.234575
v 0.115789 2.530875 0.446233
v 0.118149 2.294455 0.231251
v 0.115789 2.530875 0.446233
v 0.049603 2.291709 0.380916
v 0.049603 2.291709 0.380916
v 0.115789 2.530875 0.446233
v -0.118241 2.527355 0.533878
v 0.049603 2.291709 0.380916
v -0.118241 2.527355 0.533878
v -0.115881 2.289220 0.442890
v -0.115881 2.289220 0.442890
v -0.118241 2.527355 0.533878
v -0.352271 2.526261 0.446169
v -0.115881 2.289220 0.442890
v -0.352271 2.526261 0.446169
v -0.281365 2.288446 0.380871
v -0.281365 2.288446 0.380871
v -0.352271 2.526261 0.446169
v -0.449209 2.528233 0.234485
v -0.281365 2.288446 0.380871
v -0.449209 2.528233 0.234485
v -0.349911 2.289841 0.231187
v -0.349911 2.289841 0.231187
v -0.449209 2.528233 0.234485
v -0.352271 2.532117 0.022827
v -0.349911 2.289841 0.231187
v -0.352271 2.532117 0.022827
v -0.281365 2.292587 0.081523
v -0.281365 2.292587 0.081523
v -0.352271 2.532117 0.022827
v -0.118241 2.535637 -0.064818
v -0.281365 2.292587 0.081523
v -0.118241 2.535637 -0.064818
v -0.115881 2.295076 0.019548
v -0.115881 2.295076 0.019548
v -0.118241 2.535637 -0.064818
v 0.115789 2.536731 0.022891
v -0.115881 2.295076 0.019548
v 0.115789 2.536731 0.022891
v 0.049603 2.295850 0.081568
v 0.049603 2.295850 0.081568
v 0.115789 2.536731 0.022891
v 0.212727 2.534759 0.234575
v 0.049603 2.295850 0.081568
v 0.212727 2.534759 0.234575
v 0.118149 2.294455 0.231251
v 0.212727 2.534759 0.234575
v 0.113429 2.773151 0.237873
v 0.044883 2.770405 0.387537
v 0.212727 2.534759 0.234575
v 0.044883 2.770405 0.387537
v 0.115789 2.530875 0.446233
v 0.115789 2.530875 0.446233
v 0.044883 2.770405 0.387537
v -0.120601 2.767916 0.449512
v 0.115789 2.530875 0.446233
v -0.120601 2.767916 0.449512
v -0.118241 2.527355 0.533878
v -0.118241 2.527355 0.533878
v -0.120601 2.767916 0.449512
v -0.286085 2.767142 0.387492
v -0.118241 2.527355 0.533878
v -0.286085 2.767142 0.387492
v -0.352271 2.526261 0.446169
v -0.352271 2.526261 0.446169
v -0.286085 2.767142 0.387492
v -0.354631 2.768537 0.237809
v -0.352271 2.526261 0.446169
v -0.354631 2.768537 0.237809
v -0.449209 2.528233 0.234485
v -0.449209 2.528233 0.234485
v -0.354631 2.768537 0.237809
v -0.286085 2.771283 0.088145
v -0.449209 2.528233 0.234485
v -0.286085 2.771283 0.088145
v -0.352271 2.532117 0.022827
v -0.352271 2.532117 0.022827
v -0.286085 2.771283 0.088145
v -0.120601 2.773772 0.026170
v -0.352271 2.532117 0.022827
v -0.120601 2.773772 0.026170
v -0.118241 2.535637 -0.064818
v -0.118241 2.535637 -0.064818
v -0.120601 2.773772 0.026170
v 0.044883 2.774546 0.088190
v -0.118241 2.535637 -0.064818
v 0.044883 2.774546 0.088190
v 0.115789 2.536731 0.022891
v 0.115789 2.536731 0.022891
v 0.044883 2.774546 0.088190
v 0.113429 2.773151 0.237873
v 0.115789 2.536731 0.022891
v 0.113429 2.773151 0.237873
v 0.212727 2.534759 0.234575
v 0.113429 2.773151 0.237873
v -0.121578 2.869985 0.239212
v -0.121578 2.869985 0.239212
v 0.113429 2.773151 0.237873
v -0.121578 2.869985 0.239212
v 0.044883 2.770405 0.387537
v 0.044883 2.770405 0.387537
v -0.121578 2.869985 0.239212
v -0.121578 2.869985 0.239212
v 0.044883 2.770405 0.387537
v -0.121578 2.869985 0.239212
v -0.120601 2.767916 0.449512
v -0.120601 2.767916 0.449512
v -0.121578 2.869985 0.239212
v -0.121578 2.869985 0.239212
v -0.120601 2.767916 0.449512
v -0.121578 2.869985 0.239212
v -0.286085 2.767142 0.387492
v -0.286085 2.767142 0.387492
v -0.121578 2.869985 0.239212
v -0.121578 2.869985 0.239212
v -0.286085 2.767142 0.387492
v -0.121578 2.869985 0.239212
v -0.354631 2.768537 0.237809
v -0.354631 2.768537 0.237809
v -0.121578 2.869985 0.239212
v -0.121578 2.869985 0.239212
v -0.354631 2.768537 0.237809
v -0.121578 2.869985 0.239212
v -0.286085 2.771283 0.088145
v -0.286085 2.771283 0.088145
v -0.121578 2.869985 0.239212
v -0.121578 2.869985 0.239212
v -0.286085 2.771283 0.088145
v -0.121578 2.869985 0.239212
v -0.120601 2.773772 0.026170
v -0.120601 2.773772 0.026170
v -0.121578 2.869985 0.239212
v -0.121578 2.869985 0.239212
v -0.120601 2.773772 0.026170
v -0.121578 2.869985 0.239212
v 0.044883 2.774546 0.088190
v 0.044883 2.774546 0.088190
v -0.121578 2.869985 0.239212
v -0.121578 2.869985 0.239212
v 0.044883 2.774546 0.088190
v -0.121578 2.869985 0.239212
v 0.113429 2.773151 0.237873
v -0.238660 2.351118 -0.114478
v 0.014524 2.428097 -0.113413
v -0.059847 2.424978 0.059070
v -0.238660 2.351118 -0.114478
v -0.059847 2.424978 0.059070
v -0.238660 2.351118 -0.114478
v -0.238660 2.351118 -0.114478
v -0.059847 2.424978 0.059070
v -0.239394 2.422219 0.130495
v -0.238660 2.351118 -0.114478
v -0.239394 2.422219 0.130495
v -0.238660 2.351118 -0.114478
v -0.238660 2.351118 -0.114478
v -0.239394 2.422219 0.130495
v -0.418941 2.421438 0.059021
v -0.238660 2.351118 -0.114478
v -0.418941 2.421438 0.059021
v -0.238660 2.351118 -0.114478
v -0.238660 2.351118 -0.114478
v -0.418941 2.421438 0.059021
v -0.493312 2.423090 -0.113483
v -0.238660 2.351118 -0.114478
v -0.493312 2.423090 -0.113483
v -0.238660 2.351118 -0.114478
v -0.238660 2.351118 -0.114478
v -0.493312 2.423090 -0.113483
v -0.418941 2.426210 -0.285966
v -0.238660 2.351118 -0.114478
v -0.418941 2.426210 -0.285966
v -0.238660 2.351118 -0.114478
v -0.238660 2.351118 -0.114478
v -0.418941 2.426210 -0.285966
v -0.239394 2.428968 -0.357391
v -0.238660 2.351118 -0.114478
v -0.239394 2.428968 -0.357391
v -0.238660 2.351118 -0.114478
v -0.238660 2.351118 -0.114478
v -0.239394 2.428968 -0.357391
v -0.059847 2.429750 -0.285917
v -0.238660 2.351118 -0.114478
v -0.059847 2.429750 -0.285917
v -0.238660 2.351118 -0.114478
v -0.238660 2.351118 -0.114478
v -0.059847 2.429750 -0.285917
v 0.014524 2.428097 -0.113413
v -0.238660 2.351118 -0.114478
v 0.014524 2.428097 -0.113413
v -0.238660 2.351118 -0.114478
v 0.014524 2.428097 -0.113413
v 0.117928 2.608933 -0.110912
v 0.012751 2.604522 0.133017
v 0.014524 2.428097 -0.113413
v 0.012751 2.604522 0.133017
v -0.059847 2.424978 0.059070
v -0.059847 2.424978 0.059070
v 0.012751 2.604522 0.133017
v -0.241167 2.600621 0.234027
v -0.059847 2.424978 0.059070
v -0.241167 2.600621 0.234027
v -0.239394 2.422219 0.130495
v -0.239394 2.422219 0.130495
v -0.241167 2.600621 0.234027
v -0.495085 2.599515 0.132947
v -0.239394 2.422219 0.130495
v -0.495085 2.599515 0.132947
v -0.418941 2.421438 0.059021
v -0.418941 2.421438 0.059021
v -0.495085 2.599515 0.132947
v -0.600261 2.601853 -0.111010
v -0.418941 2.421438 0.059021
v -0.600261 2.601853 -0.111010
v -0.493312 2.423090 -0.113483
v -0.493312 2.423090 -0.113483
v -0.600261 2.601853 -0.111010
v -0.495085 2.606264 -0.354938
v -0.493312 2.423090 -0.113483
v -0.495085 2.606264 -0.354938
v -0.418941 2.426210 -0.285966
v -0.418941 2.426210 -0.285966
v -0.495085 2.606264 -0.354938
v -0.241167 2.610165 -0.455948
v -0.418941 2.426210 -0.285966
v -0.241167 2.610165 -0.455948
v -0.239394 2.428968 -0.357391
v -0.239394 2.428968 -0.357391
v -0.241167 2.610165 -0.455948
v 0.012751 2.611271 -0.354869
v -0.239394 2.428968 -0.357391
v 0.012751 2.611271 -0.354869
v -0.059847 2.429750 -0.285917
v -0.059847 2.429750 -0.285917
v 0.012751 2.611271 -0.354869
v 0.117928 2.608933 -0.110912
v -0.059847 2.429750 -0.285917
v 0.117928 2.608933 -0.110912
v 0.014524 2.428097 -0.113413
v 0.117928 2.608933 -0.110912
v 0.010979 2.787695 -0.108439
v -0.063392 2.784576 0.064044
v 0.117928 2.608933 -0.110912
v -0.063392 2.784576 0.064044
v 0.012751 2.604522 0.133017
v 0.012751 2.604522 0.133017
v -0.063392 2.784576 0.064044
v -0.242940 2.781818 0.135469
v 0.012751 2.604522 0.133017
v -0.242940 2.781818 0.135469
v -0.241167 2.600621 0.234027
v -0.241167 2.600621 0.234027
v -0.242940 2.781818 0.135469
v -0.422487 2.781036 0.063996
v -0.241167 2.600621 0.234027
v -0.422487 2.781036 0.063996
v -0.495085 2.599515 0.132947
v -0.495085 2.599515 0.132947
v -0.422487 2.781036 0.063996
v -0.496858 2.782689 -0.108508
v -0.495085 2.599515 0.132947
v -0.496858 2.782689 -0.108508
v -0.600261 2.601853 -0.111010
v -0.600261 2.601853 -0.111010
v -0.496858 2.782689 -0.108508
v -0.422487 2.785808 -0.280992
v -0.600261 2.601853 -0.111010
v -0.422487 2.785808 -0.280992
v -0.495085 2.606264 -0.354938
v -0.495085 2.606264 -0.354938
v -0.422487 2.785808 -0.280992
v -0.242940 2.788567 -0.352417
v -0.495085 2.606264 -0.354938
v -0.242940 2.788567 -0.352417
v -0.241167 2.610165 -0.455948
v -0.241167 2.610165 -0.455948
v -0.242940 2.788567 -0.352417
v -0.063392 2.789348 -0.280943
v -0.241167 2.610165 -0.455948
v -0.063392 2.789348 -0.280943
v 0.012751 2.611271 -0.354869
v 0.012751 2.611271 -0.354869
v -0.063392 2.789348 -0.280943
v 0.010979 2.787695 -0.108439
v 0.012751 2.611271 -0.354869
v 0.010979 2.787695 -0.108439
v 0.117928 2.608933 -0.110912
v 0.010979 2.787695 -0.108439
v -0.243674 2.859667 -0.107444
v -0.243674 2.859667 -0.107444
v 0.010979 2.787695 -0.108439
v -0.243674 2.859667 -0.107444
v -0.063392 2.784576 0.064044
v -0.063392 2.784576 0.064044
v -0.243674 2.859667 -0.107444
v -0.243674 2.859667 -0.107444
v -0.063392 2.784576 0.064044
v -0.243674 2.859667 -0.107444
v -0.242940 2.781818 0.135469
v -0.242940 2.781818 0.135469
v -0.243674 2.859667 -0.107444
v -0.243674 2.859667 -0.107444
v -0.242940 2.781818 0.135469
v -0.243674 2.859667 -0.107444
v -0.422487 2.781036 0.063996
v -0.422487 2.781036 0.063996
v -0.243674 2.859667 -0.107444
v -0.243674 2.859667 -0.107444
v -0.422487 2.781036 0.063996
v -0.243674 2.859667 -0.107444
v -0.496858 2.782689 -0.108508
v -0.496858 2.782689 -0.108508
v -0.243674 2.859667 -0.107444
v -0.243674 2.859667 -0.107444
v -0.496858 2.782689 -0.108508
v -0.243674 2.859667 -0.107444
v -0.422487 2.785808 -0.280992
v -0.422487 2.785808 -0.280992
v -0.243674 2.859667 -0.107444
v -0.243674 2.859667 -0.107444
v -0.422487 2.785808 -0.280992
v -0.243674 2.859667 -0.107444
v -0.242940 2.788567 -0.352417
v -0.242940 2.788567 -0.352417
v -0.243674 2.859667 -0.107444
v -0.243674 2.859667 -0.107444
v -0.242940 2.788567 -0.352417
v -0.243674 2.859667 -0.107444
v -0.063392 2.789348 -0.280943
v -0.063392 2.789348 -0.280943
v -0.243674 2.859667 -0.107444
v -0.243674 2.859667 -0.107444
v -0.063392 2.789348 -0.280943
v -0.243674 2.859667 -0.107444
v 0.010979 2.787695 -0.108439
v 0.162157 2.102052 -0.296142
v 0.350298 2.185941 -0.294982
v 0.294956 2.183516 -0.159115
v 0.162157 2.102052 -0.296142
v 0.294956 2.183516 -0.159115
v 0.162157 2.102052 -0.296142
v 0.162157 2.102052 -0.296142
v 0.294956 2.183516 -0.159115
v 0.161348 2.181421 -0.102852
v 0.162157 2.102052 -0.296142
v 0.161348 2.181421 -0.102852
v 0.162157 2.102052 -0.296142
v 0.162157 2.102052 -0.296142
v 0.161348 2.181421 -0.102852
v 0.027741 2.180882 -0.159151
v 0.162157 2.102052 -0.296142
v 0.027741 2.180882 -0.159151
v 0.162157 2.102052 -0.296142
v 0.162157 2.102052 -0.296142
v 0.027741 2.180882 -0.159151
v -0.027601 2.182216 -0.295033
v 0.162157 2.102052 -0.296142
v -0.027601 2.182216 -0.295033
v 0.162157 2.102052 -0.296142
v 0.162157 2.102052 -0.296142
v -0.027601 2.182216 -0.295033
v 0.027741 2.184641 -0.430900
v 0.162157 2.102052 -0.296142
v 0.027741 2.184641 -0.430900
v 0.162157 2.102052 -0.296142
v 0.162157 2.102052 -0.296142
v 0.027741 2.184641 -0.430900
v 0.161348 2.186737 -0.487163
v 0.162157 2.102052 -0.296142
v 0.161348 2.186737 -0.487163
v 0.162157 2.102052 -0.296142
v 0.162157 2.102052 -0.296142
v 0.161348 2.186737 -0.487163
v 0.294956 2.187275 -0.430864
v 0.162157 2.102052 -0.296142
v 0.294956 2.187275 -0.430864
v 0.162157 2.102052 -0.296142
v 0.162157 2.102052 -0.296142
v 0.294956 2.187275 -0.430864
v 0.350298 2.185941 -0.294982
v 0.162157 2.102052 -0.296142
v 0.350298 2.185941 -0.294982
v 0.162157 2.102052 -0.296142
v 0.350298 2.185941 -0.294982
v 0.426611 2.384741 -0.292232
v 0.348345 2.381312 -0.100087
v 0.350298 2.185941 -0.294982
v 0.348345 2.381312 -0.100087
v 0.294956 2.183516 -0.159115
v 0.294956 2.183516 -0.159115
v 0.348345 2.381312 -0.100087
v 0.159396 2.378348 -0.020519
v 0.294956 2.183516 -0.159115
v 0.159396 2.378348 -0.020519
v 0.161348 2.181421 -0.102852
v 0.161348 2.181421 -0.102852
v 0.159396 2.378348 -0.020519
v -0.029554 2.377587 -0.100138
v 0.161348 2.181421 -0.102852
v -0.029554 2.377587 -0.100138
v 0.027741 2.180882 -0.159151
v 0.027741 2.180882 -0.159151
v -0.029554 2.377587 -0.100138
v -0.107819 2.379473 -0.292305
v 0.027741 2.180882 -0.159151
v -0.107819 2.379473 -0.292305
v -0.027601 2.182216 -0.295033
v -0.027601 2.182216 -0.295033
v -0.107819 2.379473 -0.292305
v -0.029554 2.382903 -0.484450
v -0.027601 2.182216 -0.295033
v -0.029554 2.382903 -0.484450
v 0.027741 2.184641 -0.430900
v 0.027741 2.184641 -0.430900
v -0.029554 2.382903 -0.484450
v 0.159396 2.385866 -0.564017
v 0.027741 2.184641 -0.430900
v 0.159396 2.385866 -0.564017
v 0.161348 2.186737 -0.487163
v 0.161348 2.186737 -0.487163
v 0.159396 2.385866 -0.564017
v 0.348345 2.386628 -0.484398
v 0.161348 2.186737 -0.487163
v 0.348345 2.386628 -0.484398
v 0.294956 2.187275 -0.430864
v 0.294956 2.187275 -0.430864
v 0.348345 2.386628 -0.484398
v 0.426611 2.384741 -0.292232
v 0.294956 2.187275 -0.430864
v 0.426611 2.384741 -0.292232
v 0.350298 2.185941 -0.294982
v 0.426611 2.384741 -0.292232
v 0.346392 2.581999 -0.289503
v 0.291050 2.579574 -0.153636
v 0.426611 2.384741 -0.292232
v 0.291050 2.579574 -0.153636
v 0.348345 2.381312 -0.100087
v 0.348345 2.381312 -0.100087
v 0.291050 2.579574 -0.153636
v 0.157443 2.577478 -0.097373
v 0.348345 2.381312 -0.100087
v 0.157443 2.577478 -0.097373
v 0.159396 2.378348 -0.020519
v 0.159396 2.378348 -0.020519
v 0.157443 2.577478 -0.097373
v 0.023835 2.576939 -0.153672
v 0.159396 2.378348 -0.020519
v 0.023835 2.576939 -0.153672
v -0.029554 2.377587 -0.100138
v -0.029554 2.377587 -0.100138
v 0.023835 2.576939 -0.153672
v -0.031507 2.578273 -0.289555
v -0.029554 2.377587 -0.100138
v -0.031507 2.578273 -0.289555
v -0.107819 2.379473 -0.292305
v -0.107819 2.379473 -0.292305
v -0.031507 2.578273 -0.289555
v 0.023835 2.580698 -0.425422
v -0.107819 2.379473 -0.292305
v 0.023835 2.580698 -0.425422
v -0.029554 2.382903 -0.484450
v -0.029554 2.382903 -0.484450
v 0.023835 2.580698 -0.425422
v 0.157443 2.582794 -0.481685
v -0.029554 2.382903 -0.484450
v 0.157443 2.582794 -0.481685
v 0.159396 2.385866 -0.564017
v 0.159396 2.385866 -0.564017
v 0.157443 2.582794 -0.481685
v 0.291050 2.583333 -0.425385
v 0.159396 2.385866 -0.564017
v 0.291050 2.583333 -0.425385
v 0.348345 2.386628 -0.484398
v 0.348345 2.386628 -0.484398
v 0.291050 2.583333 -0.425385
v 0.346392 2.581999 -0.289503
v 0.348345 2.386628 -0.484398
v 0.346392 2.581999 -0.289503
v 0.426611 2.384741 -0.292232
v 0.346392 2.581999 -0.289503
v 0.156634 2.662162 -0.288394
v 0.156634 2.662162 -0.288394
v 0.346392 2.581999 -0.289503
v 0.156634 2.662162 -0.288394
v 0.291050 2.579574 -0.153636
v 0.291050 2.579574 -0.153636
v 0.156634 2.662162 -0.288394
v 0.156634 2.662162 -0.288394
v 0.291050 2.579574 -0.153636
v 0.156634 2.662162 -0.288394
v 0.157443 2.577478 -0.097373
v 0.157443 2.577478 -0.097373
v 0.156634 2.662162 -0.288394
v 0.156634 2.662162 -0.288394
v 0.157443 2.577478 -0.097373
v 0.156634 2.662162 -0.288394
v 0.023835 2.576939 -0.153672
v 0.023835 2.576939 -0.153672
v 0.156634 2.662162 -0.288394
v 0.156634 2.662162 -0.288394
v 0.023835 2.576939 -0.153672
v 0.156634 2.662162 -0.288394
v -0.031507 2.578273 -0.289555
v -0.031507 2.578273 -0.289555
v 0.156634 2.662162 -0.288394
v 0.156634 2.662162 -0.288394
v -0.031507 2.578273 -0.289555
v 0.156634 2.662162 -0.288394
v 0.023835 2.580698 -0.425422
v 0.023835 2.580698 -0.425422
v 0.156634 2.662162 -0.288394
v 0.156634 2.662162 -0.288394
v 0.023835 2.580698 -0.425422
v 0.156634 2.662162 -0.288394
v 0.157443 2.582794 -0.481685
v 0.157443 2.582794 -0.481685
v 0.156634 2.662162 -0.288394
v 0.156634 2.662162 -0.288394
v 0.157443 2.582794 -0.481685
v 0.156634 2.662162 -0.288394
v 0.291050 2.583333 -0.425385
v 0.291050 2.583333 -0.425385
v 0.156634 2.662162 -0.288394
v 0.156634 2.662162 -0.288394
v 0.291050 2.583333 -0.425385
v 0.156634 2.662162 -0.288394
v 0.346392 2.581999 -0.289503
v 0.197173 2.141736 0.080086
v 0.405128 2.233372 0.081353
v 0.343961 2.230577 0.239829
v 0.197173 2.141736 0.080086
v 0.343961 2.230577 0.239829
v 0.197173 2.141736 0.080086
v 0.197173 2.141736 0.080086
v 0.343961 2.230577 0.239829
v 0.196290 2.228213 0.305454
v 0.197173 2.141736 0.080086
v 0.196290 2.228213 0.305454
v 0.197173 2.141736 0.080086
v 0.197173 2.141736 0.080086
v 0.196290 2.228213 0.305454
v 0.048619 2.227665 0.239788
v 0.197173 2.141736 0.080086
v 0.048619 2.227665 0.239788
v 0.197173 2.141736 0.080086
v 0.197173 2.141736 0.080086
v 0.048619 2.227665 0.239788
v -0.012548 2.229254 0.081296
v 0.197173 2.141736 0.080086
v -0.012548 2.229254 0.081296
v 0.197173 2.141736 0.080086
v 0.197173 2.141736 0.080086
v -0.012548 2.229254 0.081296
v 0.048619 2.232050 -0.077179
v 0.197173 2.141736 0.080086
v 0.048619 2.232050 -0.077179
v 0.197173 2.141736 0.080086
v 0.197173 2.141736 0.080086
v 0.048619 2.232050 -0.077179
v 0.196290 2.234414 -0.142805
v 0.197173 2.141736 0.080086
v 0.196290 2.234414 -0.142805
v 0.197173 2.141736 0.080086
v 0.197173 2.141736 0.080086
v 0.196290 2.234414 -0.142805
v 0.343961 2.234961 -0.077138
v 0.197173 2.141736 0.080086
v 0.343961 2.234961 -0.077138
v 0.197173 2.141736 0.080086
v 0.197173 2.141736 0.080086
v 0.343961 2.234961 -0.077138
v 0.405128 2.233372 0.081353
v 0.197173 2.141736 0.080086
v 0.405128 2.233372 0.081353
v 0.197173 2.141736 0.080086
v 0.405128 2.233372 0.081353
v 0.489499 2.450483 0.084357
v 0.402996 2.446530 0.308474
v 0.405128 2.233372 0.081353
v 0.402996 2.446530 0.308474
v 0.343961 2.230577 0.239829
v 0.343961 2.230577 0.239829
v 0.402996 2.446530 0.308474
v 0.194158 2.443187 0.401283
v 0.343961 2.230577 0.239829
v 0.194158 2.443187 0.401283
v 0.196290 2.228213 0.305454
v 0.196290 2.228213 0.305454
v 0.194158 2.443187 0.401283
v -0.014680 2.442412 0.308417
v 0.196290 2.228213 0.305454
v -0.014680 2.442412 0.308417
v 0.048619 2.227665 0.239788
v 0.048619 2.227665 0.239788
v -0.014680 2.442412 0.308417
v -0.101184 2.444659 0.084276
v 0.048619 2.227665 0.239788
v -0.101184 2.444659 0.084276
v -0.012548 2.229254 0.081296
v -0.012548 2.229254 0.081296
v -0.101184 2.444659 0.084276
v -0.014680 2.448613 -0.139842
v -0.012548 2.229254 0.081296
v -0.014680 2.448613 -0.139842
v 0.048619 2.232050 -0.077179
v 0.048619 2.232050 -0.077179
v -0.014680 2.448613 -0.139842
v 0.194158 2.451956 -0.232651
v 0.048619 2.232050 -0.077179
v 0.194158 2.451956 -0.232651
v 0.196290 2.234414 -0.142805
v 0.196290 2.234414 -0.142805
v 0.194158 2.451956 -0.232651
v 0.402996 2.452730 -0.139785
v 0.196290 2.234414 -0.142805
v 0.402996 2.452730 -0.139785
v 0.343961 2.234961 -0.077138
v 0.343961 2.234961 -0.077138
v 0.402996 2.452730 -0.139785
v 0.489499 2.450483 0.084357
v 0.343961 2.234961 -0.077138
v 0.489499 2.450483 0.084357
v 0.405128 2.233372 0.081353
v 0.489499 2.450483 0.084357
v 0.400863 2.665888 0.087336
v 0.339696 2.663092 0.245812
v 0.489499 2.450483 0.084357
v 0.339696 2.663092 0.245812
v 0.402996 2.446530 0.308474
v 0.402996 2.446530 0.308474
v 0.339696 2.663092 0.245812
v 0.192025 2.660728 0.311437
v 0.402996 2.446530 0.308474
v 0.192025 2.660728 0.311437
v 0.194158 2.443187 0.401283
v 0.194158 2.443187 0.401283
v 0.192025 2.660728 0.311437
v 0.044354 2.660181 0.245771
v 0.194158 2.443187 0.401283
v 0.044354 2.660181 0.245771
v -0.014680 2.442412 0.308417
v -0.014680 2.442412 0.308417
v 0.044354 2.660181 0.245771
v -0.016813 2.661770 0.087279
v -0.014680 2.442412 0.308417
v -0.016813 2.661770 0.087279
v -0.101184 2.444659 0.084276
v -0.101184 2.444659 0.084276
v -0.016813 2.661770 0.087279
v 0.044354 2.664565 -0.071196
v -0.101184 2.444659 0.084276
v 0.044354 2.664565 -0.071196
v -0.014680 2.448613 -0.139842
v -0.014680 2.448613 -0.139842
v 0.044354 2.664565 -0.071196
v 0.192025 2.666929 -0.136822
v -0.014680 2.448613 -0.139842
v 0.192025 2.666929 -0.136822
v 0.194158 2.451956 -0.232651
v 0.194158 2.451956 -0.232651
v 0.192025 2.666929 -0.136822
v 0.339696 2.667477 -0.071156
v 0.194158 2.451956 -0.232651
v 0.339696 2.667477 -0.071156
v 0.402996 2.452730 -0.139785
v 0.402996 2.452730 -0.139785
v 0.339696 2.667477 -0.071156
v 0.400863 2.665888 0.087336
v 0.402996 2.452730 -0.139785
v 0.400863 2.665888 0.087336
v 0.489499 2.450483 0.084357
v 0.400863 2.665888 0.087336
v 0.191142 2.753406 0.088547
v 0.191142 2.753406 0.088547
v 0.400863 2.665888 0.087336
v 0.191142 2.753406 0.088547
v 0.339696 2.663092 0.245812
v 0.339696 2.663092 0.245812
v 0.191142 2.753406 0.088547
v 0.191142 2.753406 0.088547
v 0.339696 2.663092 0.245812
v 0.191142 2.753406 0.088547
v 0.192025 2.660728 0.311437
v 0.192025 2.660728 0.311437
v 0.191142 2.753406 0.088547
v 0.191142 2.753406 0.088547
v 0.192025 2.660728 0.311437
v 0.191142 2.753406 0.088547
v 0.044354 2.660181 0.245771
v 0.044354 2.660181 0.245771
v 0.191142 2.753406 0.088547
v 0.191142 2.753406 0.088547
v 0.044354 2.660181 0.245771
v 0.191142 2.753406 0.088547
v -0.016813 2.661770 0.087279
v -0.016813 2.661770 0.087279
v 0.191142 2.753406 0.088547
v 0.191142 2.753406 0.088547
v -0.016813 2.661770 0.087279
v 0.191142 2.753406 0.088547
v 0.044354 2.664565 -0.071196
v 0.044354 2.664565 -0.071196
v 0.191142 2.753406 0.088547
v 0.191142 2.753406 0.088547
v 0.044354 2.664565 -0.071196
v 0.191142 2.753406 0.088547
v 0.192025 2.666929 -0.136822
v 0.192025 2.666929 -0.136822
v 0.191142 2.753406 0.088547
v 0.191142 2.753406 0.088547
v 0.192025 2.666929 -0.136822
v 0.191142 2.753406 0.088547
v 0.339696 2.667477 -0.071156
v 0.339696 2.667477 -0.071156
v 0.191142 2.753406 0.088547
v 0.191142 2.753406 0.088547
v 0.339696 2.667477 -0.071156
v 0.191142 2.753406 0.088547
v 0.400863 2.665888 0.087336
v -0.023583 2.181697 0.253925
v 0.204186 2.281080 0.255300
v 0.137194 2.278430 0.399147
v -0.023583 2.181697 0.253925
v 0.137194 2.278430 0.399147
v -0.023583 2.181697 0.253925
v -0.023583 2.181697 0.253925
v 0.137194 2.278430 0.399147
v -0.024540 2.276011 0.458712
v -0.023583 2.181697 0.253925
v -0.024540 2.276011 0.458712
v -0.023583 2.181697 0.253925
v -0.023583 2.181697 0.253925
v -0.024540 2.276011 0.458712
v -0.186275 2.275241 0.399103
v -0.023583 2.181697 0.253925
v -0.186275 2.275241 0.399103
v -0.023583 2.181697 0.253925
v -0.023583 2.181697 0.253925
v -0.186275 2.275241 0.399103
v -0.253267 2.276570 0.255238
v -0.023583 2.181697 0.253925
v -0.253267 2.276570 0.255238
v -0.023583 2.181697 0.253925
v -0.023583 2.181697 0.253925
v -0.253267 2.276570 0.255238
v -0.186275 2.279220 0.111390
v -0.023583 2.181697 0.253925
v -0.186275 2.279220 0.111390
v -0.023583 2.181697 0.253925
v -0.023583 2.181697 0.253925
v -0.186275 2.279220 0.111390
v -0.024540 2.281639 0.051825
v -0.023583 2.181697 0.253925
v -0.024540 2.281639 0.051825
v -0.023583 2.181697 0.253925
v -0.023583 2.181697 0.253925
v -0.024540 2.281639 0.051825
v 0.137194 2.282409 0.111434
v -0.023583 2.181697 0.253925
v 0.137194 2.282409 0.111434
v -0.023583 2.181697 0.253925
v -0.023583 2.181697 0.253925
v 0.137194 2.282409 0.111434
v 0.204186 2.281080 0.255300
v -0.023583 2.181697 0.253925
v 0.204186 2.281080 0.255300
v -0.023583 2.181697 0.253925
v 0.204186 2.281080 0.255300
v 0.296616 2.516501 0.258557
v 0.201874 2.512753 0.461987
v 0.204186 2.281080 0.255300
v 0.201874 2.512753 0.461987
v 0.137194 2.278430 0.399147
v 0.137194 2.278430 0.399147
v 0.201874 2.512753 0.461987
v -0.026852 2.509332 0.546225
v 0.137194 2.278430 0.399147
v -0.026852 2.509332 0.546225
v -0.024540 2.276011 0.458712
v -0.024540 2.276011 0.458712
v -0.026852 2.509332 0.546225
v -0.255579 2.508243 0.461925
v -0.024540 2.276011 0.458712
v -0.255579 2.508243 0.461925
v -0.186275 2.275241 0.399103
v -0.186275 2.275241 0.399103
v -0.255579 2.508243 0.461925
v -0.350321 2.510123 0.258468
v -0.186275 2.275241 0.399103
v -0.350321 2.510123 0.258468
v -0.253267 2.276570 0.255238
v -0.253267 2.276570 0.255238
v -0.350321 2.510123 0.258468
v -0.255579 2.513872 0.055038
v -0.253267 2.276570 0.255238
v -0.255579 2.513872 0.055038
v -0.186275 2.279220 0.111390
v -0.186275 2.279220 0.111390
v -0.255579 2.513872 0.055038
v -0.026852 2.517292 -0.029200
v -0.186275 2.279220 0.111390
v -0.026852 2.517292 -0.029200
v -0.024540 2.281639 0.051825
v -0.024540 2.281639 0.051825
v -0.026852 2.517292 -0.029200
v 0.201874 2.518381 0.055100
v -0.024540 2.281639 0.051825
v 0.201874 2.518381 0.055100
v 0.137194 2.282409 0.111434
v 0.137194 2.282409 0.111434
v 0.201874 2.518381 0.055100
v 0.296616 2.516501 0.258557
v 0.137194 2.282409 0.111434
v 0.296616 2.516501 0.258557
v 0.204186 2.281080 0.255300
v 0.296616 2.516501 0.258557
v 0.199562 2.750054 0.261787
v 0.132570 2.747404 0.405634
v 0.296616 2.516501 0.258557
v 0.132570 2.747404 0.405634
v 0.201874 2.512753 0.461987
v 0.201874 2.512753 0.461987
v 0.132570 2.747404 0.405634
v -0.029165 2.744985 0.465200
v 0.201874 2.512753 0.461987
v -0.029165 2.744985 0.465200
v -0.026852 2.509332 0.546225
v -0.026852 2.509332 0.546225
v -0.029165 2.744985 0.465200
v -0.190899 2.744215 0.405590
v -0.026852 2.509332 0.546225
v -0.190899 2.744215 0.405590
v -0.255579 2.508243 0.461925
v -0.255579 2.508243 0.461925
v -0.190899 2.744215 0.405590
v -0.257891 2.745545 0.261725
v -0.255579 2.508243 0.461925
v -0.257891 2.745545 0.261725
v -0.350321 2.510123 0.258468
v -0.350321 2.510123 0.258468
v -0.257891 2.745545 0.261725
v -0.190899 2.748195 0.117878
v -0.350321 2.510123 0.258468
v -0.190899 2.748195 0.117878
v -0.255579 2.513872 0.055038
v -0.255579 2.513872 0.055038
v -0.190899 2.748195 0.117878
v -0.029165 2.750614 0.058312
v -0.255579 2.513872 0.055038
v -0.029165 2.750614 0.058312
v -0.026852 2.517292 -0.029200
v -0.026852 2.517292 -0.029200
v -0.029165 2.750614 0.058312
v 0.132570 2.751384 0.117922
v -0.026852 2.517292 -0.029200
v 0.132570 2.751384 0.117922
v 0.201874 2.518381 0.055100
v 0.201874 2.518381 0.055100
v 0.132570 2.751384 0.117922
v 0.199562 2.750054 0.261787
v 0.201874 2.518381 0.055100
v 0.199562 2.750054 0.261787
v 0.296616 2.516501 0.258557
v 0.199562 2.750054 0.261787
v -0.030122 2.844928 0.263100
v -0.030122 2.844928 0.263100
v 0.199562 2.750054 0.261787
v -0.030122 2.844928 0.263100
v 0.132570 2.747404 0.405634
v 0.132570 2.747404 0.405634
v -0.030122 2.844928 0.263100
v -0.030122 2.844928 0.263100
v 0.132570 2.747404 0.405634
v -0.030122 2.844928 0.263100
v -0.029165 2.744985 0.465200
v -0.029165 2.744985 0.465200
v -0.030122 2.844928 0.263100
v -0.030122 2.844928 0.263100
v -0.029165 2.744985 0.465200
v -0.030122 2.844928 0.263100
v -0.190899 2.744215 0.405590
v -0.190899 2.744215 0.405590
v -0.030122 2.844928 0.263100
v -0.030122 2.844928 0.263100
v -0.190899 2.744215 0.405590
v -0.030122 2.844928 0.263100
v -0.257891 2.745545 0.261725
v -0.257891 2.745545 0.261725
v -0.030122 2.844928 0.263100
v -0.030122 2.844928 0.263100
v -0.257891 2.745545 0.261725
v -0.030122 2.844928 0.263100
v -0.190899 2.748195 0.117878
v -0.190899 2.748195 0.117878
v -0.030122 2.844928 0.263100
v -0.030122 2.844928 0.263100
v -0.190899 2.748195 0.117878
v -0.030122 2.844928 0.263100
v -0.029165 2.750614 0.058312
v -0.029165 2.750614 0.058312
v -0.030122 2.844928 0.263100
v -0.030122 2.844928 0.263100
v -0.029165 2.750614 0.058312
v -0.030122 2.844928 0.263100
v 0.132570 2.751384 0.117922
v 0.132570 2.751384 0.117922
v -0.030122 2.844928 0.263100
v -0.030122 2.844928 0.263100
v 0.132570 2.751384 0.117922
v -0.030122 2.844928 0.263100
v 0.199562 2.750054 0.261787
v -0.259774 2.337482 -0.002323
v -0.011874 2.412395 -0.001286
v -0.084691 2.409377 0.164958
v -0.259774 2.337482 -0.002323
v -0.084691 2.409377 0.164958
v -0.259774 2.337482 -0.002323
v -0.259774 2.337482 -0.002323
v -0.084691 2.409377 0.164958
v -0.260489 2.406692 0.233799
v -0.259774 2.337482 -0.002323
v -0.260489 2.406692 0.233799
v -0.259774 2.337482 -0.002323
v -0.259774 2.337482 -0.002323
v -0.260489 2.406692 0.233799
v -0.436286 2.405911 0.164910
v -0.259774 2.337482 -0.002323
v -0.436286 2.405911 0.164910
v -0.259774 2.337482 -0.002323
v -0.259774 2.337482 -0.002323
v -0.436286 2.405911 0.164910
v -0.509104 2.407493 -0.001354
v -0.259774 2.337482 -0.002323
v -0.509104 2.407493 -0.001354
v -0.259774 2.337482 -0.002323
v -0.259774 2.337482 -0.002323
v -0.509104 2.407493 -0.001354
v -0.436286 2.410511 -0.167599
v -0.259774 2.337482 -0.002323
v -0.436286 2.410511 -0.167599
v -0.259774 2.337482 -0.002323
v -0.259774 2.337482 -0.002323
v -0.436286 2.410511 -0.167599
v -0.260489 2.413197 -0.236439
v -0.259774 2.337482 -0.002323
v -0.260489 2.413197 -0.236439
v -0.259774 2.337482 -0.002323
v -0.259774 2.337482 -0.002323
v -0.260489 2.413197 -0.236439
v -0.084691 2.413977 -0.167551
v -0.259774 2.337482 -0.002323
v -0.084691 2.413977 -0.167551
v -0.259774 2.337482 -0.002323
v -0.259774 2.337482 -0.002323
v -0.084691 2.413977 -0.167551
v -0.011874 2.412395 -0.001286
v -0.259774 2.337482 -0.002323
v -0.011874 2.412395 -0.001286
v -0.259774 2.337482 -0.002323
v -0.011874 2.412395 -0.001286
v 0.089381 2.588349 0.001148
v -0.013598 2.584081 0.236253
v -0.011874 2.412395 -0.001286
v -0.013598 2.584081 0.236253
v -0.084691 2.409377 0.164958
v -0.084691 2.409377 0.164958
v -0.013598 2.584081 0.236253
v -0.262214 2.580283 0.333608
v -0.084691 2.409377 0.164958
v -0.262214 2.580283 0.333608
v -0.260489 2.406692 0.233799
v -0.260489 2.406692 0.233799
v -0.262214 2.580283 0.333608
v -0.510829 2.579180 0.236185
v -0.260489 2.406692 0.233799
v -0.510829 2.579180 0.236185
v -0.436286 2.405911 0.164910
v -0.436286 2.405911 0.164910
v -0.510829 2.579180 0.236185
v -0.613809 2.581416 0.001052
v -0.436286 2.405911 0.164910
v -0.613809 2.581416 0.001052
v -0.509104 2.407493 -0.001354
v -0.509104 2.407493 -0.001354
v -0.613809 2.581416 0.001052
v -0.510829 2.585684 -0.234054
v -0.509104 2.407493 -0.001354
v -0.510829 2.585684 -0.234054
v -0.436286 2.410511 -0.167599
v -0.436286 2.410511 -0.167599
v -0.510829 2.585684 -0.234054
v -0.262214 2.589482 -0.331409
v -0.436286 2.410511 -0.167599
v -0.262214 2.589482 -0.331409
v -0.260489 2.413197 -0.236439
v -0.260489 2.413197 -0.236439
v -0.262214 2.589482 -0.331409
v -0.013598 2.590586 -0.233986
v -0.260489 2.413197 -0.236439
v -0.013598 2.590586 -0.233986
v -0.084691 2.413977 -0.167551
v -0.084691 2.413977 -0.167551
v -0.013598 2.590586 -0.233986
v 0.089381 2.588349 0.001148
v -0.084691 2.413977 -0.167551
v 0.089381 2.588349 0.001148
v -0.011874 2.412395 -0.001286
v 0.089381 2.588349 0.001148
v -0.015323 2.762272 0.003553
v -0.088141 2.759254 0.169798
v 0.089381 2.588349 0.001148
v -0.088141 2.759254 0.169798
v -0.013598 2.584081 0.236253
v -0.013598 2.584081 0.236253
v -0.088141 2.759254 0.169798
v -0.263938 2.756569 0.238639
v -0.013598 2.584081 0.236253
v -0.263938 2.756569 0.238639
v -0.262214 2.580283 0.333608
v -0.262214 2.580283 0.333608
v -0.263938 2.756569 0.238639
v -0.439736 2.755788 0.169750
v -0.262214 2.580283 0.333608
v -0.439736 2.755788 0.169750
v -0.510829 2.579180 0.236185
v -0.510829 2.579180 0.236185
v -0.439736 2.755788 0.169750
v -0.512554 2.757370 0.003486
v -0.510829 2.579180 0.236185
v -0.512554 2.757370 0.003486
v -0.613809 2.581416 0.001052
v -0.613809 2.581416 0.001052
v -0.512554 2.757370 0.003486
v -0.439736 2.760388 -0.162759
v -0.613809 2.581416 0.001052
v -0.439736 2.760388 -0.162759
v -0.510829 2.585684 -0.234054
v -0.510829 2.585684 -0.234054
v -0.439736 2.760388 -0.162759
v -0.263938 2.763073 -0.231600
v -0.510829 2.585684 -0.234054
v -0.263938 2.763073 -0.231600
v -0.262214 2.589482 -0.331409
v -0.262214 2.589482 -0.331409
v -0.263938 2.763073 -0.231600
v -0.088141 2.763854 -0.162711
v -0.262214 2.589482 -0.331409
v -0.088141 2.763854 -0.162711
v -0.013598 2.590586 -0.233986
v -0.013598 2.590586 -0.233986
v -0.088141 2.763854 -0.162711
v -0.015323 2.762272 0.003553
v -0.013598 2.590586 -0.233986
v -0.015323 2.762272 0.003553
v 0.089381 2.588349 0.001148
v -0.015323 2.762272 0.003553
v -0.264653 2.832283 0.004522
v -0.264653 2.832283 0.004522
v -0.015323 2.762272 0.003553
v -0.264653 2.832283 0.004522
v -0.088141 2.759254 0.169798
v -0.088141 2.759254 0.169798
v -0.264653 2.832283 0.004522
v -0.264653 2.832283 0.004522
v -0.088141 2.759254 0.169798
v -0.264653 2.832283 0.004522
v -0.263938 2.756569 0.238639
v -0.263938 2.756569 0.238639
v -0.264653 2.832283 0.004522
v -0.264653 2.832283 0.004522
v -0.263938 2.756569 0.238639
v -0.264653 2.832283 0.004522
v -0.439736 2.755788 0.169750
v -0.439736 2.755788 0.169750
v -0.264653 2.832283 0.004522
v -0.264653 2.832283 0.004522
v -0.439736 2.755788 0.169750
v -0.264653 2.832283 0.004522
v -0.512554 2.757370 0.003486
v -0.512554 2.757370 0.003486
v -0.264653 2.832283 0.004522
v -0.264653 2.832283 0.004522
v -0.512554 2.757370 0.003486
v -0.264653 2.832283 0.004522
v -0.439736 2.760388 -0.162759
v -0.439736 2.760388 -0.162759
v -0.264653 2.832283 0.004522
v -0.264653 2.832283 0.004522
v -0.439736 2.760388 -0.162759
v -0.264653 2.832283 0.004522
v -0.263938 2.763073 -0.231600
v -0.263938 2.763073 -0.231600
v -0.264653 2.832283 0.004522
v -0.264653 2.832283 0.004522
v -0.263938 2.763073 -0.231600
v -0.264653 2.832283 0.004522
v -0.088141 2.763854 -0.162711
v -0.088141 2.763854 -0.162711
v -0.264653 2.832283 0.004522
v -0.264653 2.832283 0.004522
v -0.088141 2.763854 -0.162711
v -0.264653 2.832283 0.004522
v -0.015323 2.762272 0.003553
f 961 962 963
f 964 965 966
f 967 968 969
f 970 971 972
f 973 974 975
f 976 977 978
f 979 980 981
f 982 983 984
f 985 986 987
f 988 989 990
f 991 992 993
f 994 995 996
f 997 998 999
f 1000 1001 1002
f 1003 1004 1005
f 1006 1007 1008
f 1009 1010 1011
f 1012 1013 1014
f 1015 1016 1017
f 1018 1019 1020
f 1021 1022 1023
f 1024 1025 1026
f 1027 1028 1029
f 1030 1031 1032
f 1033 1034 1035
f 1036 1037 1038
f 1039 1040 1041
f 1042 1043 1044
f 1045 1046 1047
f 1048 1049 1050
f 1051 1052 1053
f 1054 1055 1056
f 1057 1058 1059
f 1060 1061 1062
f 1063 1064 1065
f 1066 1067 1068
f 1069 1070 1071
f 1072 1073 1074
f 1075 1076 1077
f 1078 1079 1080
f 1081 1082 1083
f 1084 1085 1086
f 1087 1088 1089
f 1090 1091 1092
f 1093 1094 1095
f 1096 1097 1098
f 1099 1100 1101
f 1102 1103 1104
f 1105 1106 1107
f 1108 1109 1110
f 1111 1112 1113
f 1114 1115 1116
f 1117 1118 1119
f 1120 1121 1122
f 1123 1124 1125
f 1126 1127 1128
f 1129 1130 1131
f 1132 1133 1134
f 1135 1136 1137
f 1138 1139 1140
f 1141 1142 1143
f 1144 1145 1146
f 1147 1148 1149
f 1150 1151 1152
f 1153 1154 1155
f 1156 1157 1158
f 1159 1160 1161
f 1162 1163 1164
f 1165 1166 1167
f 1168 1169 1170
f 1171 1172 1173
f 1174 1175 1176
f 1177 1178 1179
f 1180 1181 1182
f 1183 1184 1185
f 1186 1187 1188
f 1189 1190 1191
f 1192 1193 1194
f 1195 1196 1197
f 1198 1199 1200
f 1201 1202 1203
f 1204 1205 1206
f 1207 1208 1209
f 1210 1211 1212
f 1213 1214 1215
f 1216 1217 1218
f 1219 1220 1221
f 1222 1223 1224
f 1225 1226 1227
f 1228 1229 1230
f 1231 1232 1233
f 1234 1235 1236
f 1237 1238 1239
f 1240 1241 1242
f 1243 1244 1245
f 1246 1247 1248
f 1249 1250 1251
f 1252 1253 1254
f 1255 1256 1257
f 1258 1259 1260
f 1261 1262 1263
f 1264 1265 1266
f 1267 1268 1269
f 1270 1271 1272
f 1273 1274 1275
f 1276 1277 1278
f 1279 1280 1281
f 1282 1283 1284
f 1285 1286 1287
f 1288 1289 1290
f 1291 1292 1293
f 1294 1295 1296
f 1297 1298 1299
f 1300 1301 1302
f 1303 1304 1305
f 1306 1307 1308
f 1309 1310 1311
f 1312 1313 1314
f 1315 1316 1317
f 1318 1319 1320
f 1321 1322 1323
f 1324 1325 1326
f 1327 1328 1329
f 1330 1331 1332
f 1333 1334 1335
f 1336 1337 1338
f 1339 1340 1341
f 1342 1343 1344
f 1345 1346 1347
f 1348 1349 1350
f 1351 1352 1353
f 1354 1355 1356
f 1357 1358 1359
f 1360 1361 1362
f 1363 1364 1365
f 1366 1367 1368
f 1369 1370 1371
f 1372 1373 1374
f 1375 1376 1377
f 1378 1379 1380
f 1381 1382 1383
f 1384 1385 1386
f 1387 1388 1389
f 1390 1391 1392
f 1393 1394 1395
f 1396 1397 1398
f 1399 1400 1401
f 1402 1403 1404
f 1405 1406 1407
f 1408 1409 1410
f 1411 1412 1413
f 1414 1415 1416
f 1417 1418 1419
f 1420 1421 1422
f 1423 1424 1425
f 1426 1427 1428
f 1429 1430 1431
f 1432 1433 1434
f 1435 1436 1437
f 1438 1439 1440
f 1441 1442 1443
f 1444 1445 1446
f 1447 1448 1449
f 1450 1451 1452
f 1453 1454 1455
f 1456 1457 1458
f 1459 1460 1461
f 1462 1463 1464
f 1465 1466 1467
f 1468 1469 1470
f 1471 1472 1473
f 1474 1475 1476
f 1477 1478 1479
f 1480 1481 1482
f 1483 1484 1485
f 1486 1487 1488
f 1489 1490 1491
f 1492 1493 1494
f 1495 1496 1497
f 1498 1499 1500
f 1501 1502 1503
f 1504 1505 1506
f 1507 1508 1509
f 1510 1511 1512
f 1513 1514 1515
f 1516 1517 1518
f 1519 1520 1521
f 1522 1523 1524
f 1525 1526 1527
f 1528 1529 1530
f 1531 1532 1533
f 1534 1535 1536
f 1537 1538 1539
f 1540 1541 1542
f 1543 1544 1545
f 1546 1547 1548
f 1549 1550 1551
f 1552 1553 1554
f 1555 1556 1557
f 1558 1559 1560
f 1561 1562 1563
f 1564 1565 1566
f 1567 1568 1569
f 1570 1571 1572
f 1573 1574 1575
f 1576 1577 1578
f 1579 1580 1581
f 1582 1583 1584
f 1585 1586 1587
f 1588 1589 1590
f 1591 1592 1593
f 1594 1595 1596
f 1597 1598 1599
f 1600 1601 1602
f 1603 1604 1605
f 1606 1607 1608
f 1609 1610 1611
f 1612 1613 1614
f 1615 1616 1617
f 1618 1619 1620
f 1621 1622 1623
f 1624 1625 1626
f 1627 1628 1629
f 1630 1631 1632
f 1633 1634 1635
f 1636 1637 1638
f 1639 1640 1641
f 1642 1643 1644
f 1645 1646 1647
f 1648 1649 1650
f 1651 1652 1653
f 1654 1655 1656
f 1657 1658 1659
f 1660 1661 1662
f 1663 1664 1665
f 1666 1667 1668
f 1669 1670 1671
f 1672 1673 1674
f 1675 1676 1677
f 1678 1679 1680
f 1681 1682 1683
f 1684 1685 1686
f 1687 1688 1689
f 1690 1691 1692
f 1693 1694 1695
f 1696 1697 1698
f 1699 1700 1701
f 1702 1703 1704
f 1705 1706 1707
f 1708 1709 1710
f 1711 1712 1713
f 1714 1715 1716
f 1717 1718 1719
f 1720 1721 1722
f 1723 1724 1725
f 1726 1727 1728
f 1729 1730 1731
f 1732 1733 1734
f 1735 1736 1737
f 1738 1739 1740
f 1741 1742 1743
f 1744 1745 1746
f 1747 1748 1749
f 1750 1751 1752
f 1753 1754 1755
f 1756 1757 1758
f 1759 1760 1761
f 1762 1763 1764
f 1765 1766 1767
f 1768 1769 1770
f 1771 1772 1773
f 1774 1775 1776
f 1777 1778 1779
f 1780 1781 1782
f 1783 1784 1785
f 1786 1787 1788
f 1789 1790 1791
f 1792 1793 1794
f 1795 1796 1797
f 1798 1799 1800
f 1801 1802 1803
f 1804 1805 1806
f 1807 1808 1809
f 1810 1811 1812
f 1813 1814 1815
f 1816 1817 1818
f 1819 1820 1821
f 1822 1823 1824
f 1825 1826 1827
f 1828 1829 1830
f 1831 1832 1833
f 1834 1835 1836
f 1837 1838 1839
f 1840 1841 1842
f 1843 1844 1845
f 1846 1847 1848
f 1849 1850 1851
f 1852 1853 1854
f 1855 1856 1857
f 1858 1859 1860
f 1861 1862 1863
f 1864 1865 1866
f 1867 1868 1869
f 1870 1871 1872
f 1873 1874 1875
f 1876 1877 1878
f 1879 1880 1881
f 1882 1883 1884
f 1885 1886 1887
f 1888 1889 1890
f 1891 1892 1893
f 1894 1895 1896
f 1897 1898 1899
f 1900 1901 1902
f 1903 1904 1905
f 1906 1907 1908
f 1909 1910 1911
f 1912 1913 1914
f 1915 1916 1917
f 1918 1919 1920
f 1921 1922 1923
f 1924 1925 1926
f 1927 1928 1929
f 1930 1931 1932
f 1933 1934 1935
f 1936 1937 1938
f 1939 1940 1941
f 1942 1943 1944
f 1945 1946 1947
f 1948 1949 1950
f 1951 1952 1953
f 1954 1955 1956
f 1957 1958 1959
f 1960 1961 1962
f 1963 1964 1965
f 1966 1967 1968
f 1969 1970 1971
f 1972 1973 1974
f 1975 1976 1977
f 1978 1979 1980
f 1981 1982 1983
f 1984 1985 1986
f 1987 1988 1989
f 1990 1991 1992
f 1993 1994 1995
f 1996 1997 1998
f 1999 2000 2001
f 2002 2003 2004
f 2005 2006 2007
f 2008 2009 2010
f 2011 2012 2013
f 2014 2015 2016
f 2017 2018 2019
f 2020 2021 2022
f 2023 2024 2025
f 2026 2027 2028
f 2029 2030 2031
f 2032 2033 2034
f 2035 2036 2037
f 2038 2039 2040
f 2041 2042 2043
f 2044 2045 2046
f 2047 2048 2049
f 2050 2051 2052
f 2053 2054 2055
f 2056 2057 2058
f 2059 2060 2061
f 2062 2063 2064
f 2065 2066 2067
f 2068 2069 2070
f 2071 2072 2073
f 2074 2075 2076
f 2077 2078 2079
f 2080 2081 2082
f 2083 2084 2085
f 2086 2087 2088
f 2089 2090 2091
f 2092 2093 2094
f 2095 2096 2097
f 2098 2099 2100
f 2101 2102 2103
f 2104 2105 2106
f 2107 2108 2109
f 2110 2111 2112
f 2113 2114 2115
f 2116 2117 2118
f 2119 2120 2121
f 2122 2123 2124
f 2125 2126 2127
f 2128 2129 2130
f 2131 2132 2133
f 2134 2135 2136
f 2137 2138 2139
f 2140 2141 2142
f 2143 2144 2145
f 2146 2147 2148
f 2149 2150 2151
f 2152 2153 2154
f 2155 2156 2157
f 2158 2159 2160
f 2161 2162 2163
f 2164 2165 2166
f 2167 2168 2169
f 2170 2171 2172
f 2173 2174 2175
f 2176 2177 2178
f 2179 2180 2181
f 2182 2183 2184
f 2185 2186 2187
f 2188 2189 2190
f 2191 2192 2193
f 2194 2195 2196
f 2197 2198 2199
f 2200 2201 2202
f 2203 2204 2205
f 2206 2207 2208
f 2209 2210 2211
f 2212 2213 2214
f 2215 2216 2217
f 2218 2219 2220
f 2221 2222 2223
f 2224 2225 2226
f 2227 2228 2229
f 2230 2231 2232
f 2233 2234 2235
f 2236 2237 2238
f 2239 2240 2241
f 2242 2243 2244
f 2245 2246 2247
f 2248 2249 2250
f 2251 2252 2253
f 2254 2255 2256
f 2257 2258 2259
f 2260 2261 2262
f 2263 2264 2265
f 2266 2267 2268
f 2269 2270 2271
f 2272 2273 2274
f 2275 2276 2277
f 2278 2279 2280
f 2281 2282 2283
f 2284 2285 2286
f 2287 2288 2289
f 2290 2291 2292
f 2293 2294 2295
f 2296 2297 2298
f 2299 2300 2301
f 2302 2303 2304
f 2305 2306 2307
f 2308 2309 2310
f 2311 2312 2313
f 2314 2315 2316
f 2317 2318 2319
f 2320 2321 2322
f 2323 2324 2325
f 2326 2327 2328
f 2329 2330 2331
f 2332 2333 2334
f 2335 2336 2337
f 2338 2339 2340
f 2341 2342 2343
f 2344 2345 2346
f 2347 2348 2349
f 2350 2351 2352
f 2353 2354 2355
f 2356 2357 2358
f 2359 2360 2361
f 2362 2363 2364
f 2365 2366 2367
f 2368 2369 2370
f 2371 2372 2373
f 2374 2375 2376
f 2377 2378 2379
f 2380 2381 2382
f 2383 2384 2385
f 2386 2387 2388
f 2389 2390 2391
f 2392 2393 2394
f 2395 2396 2397
f 2398 2399 2400
f 2401 2402 2403
f 2404 2405 2406
f 2407 2408 2409
f 2410 2411 2412
f 2413 2414 2415
f 2416 2417 2418
f 2419 2420 2421
f 2422 2423 2424
f 2425 2426 2427
f 2428 2429 2430
f 2431 2432 2433
f 2434 2435 2436
f 2437 2438 2439
f 2440 2441 2442
f 2443 2444 2445
f 2446 2447 2448
f 2449 2450 2451
f 2452 2453 2454
f 2455 2456 2457
f 2458 2459 2460
f 2461 2462 2463
f 2464 2465 2466
f 2467 2468 2469
f 2470 2471 2472
f 2473 2474 2475
f 2476 2477 2478
f 2479 2480 2481
f 2482 2483 2484
f 2485 2486 2487
f 2488 2489 2490
f 2491 2492 2493
f 2494 2495 2496
f 2497 2498 2499
f 2500 2501 2502
f 2503 2504 2505
f 2506 2507 2508
f 2509 2510 2511
f 2512 2513 2514
f 2515 2516 2517
f 2518 2519 2520
f 2521 2522 2523
f 2524 2525 2526
f 2527 2528 2529
f 2530 2531 2532
f 2533 2534 2535
f 2536 2537 2538
f 2539 2540 2541
f 2542 2543 2544
f 2545 2546 2547
f 2548 2549 2550
f 2551 2552 2553
f 2554 2555 2556
f 2557 2558 2559
f 2560 2561 2562
f 2563 2564 2565
f 2566 2567 2568
f 2569 2570 2571
f 2572 2573 2574
f 2575 2576 2577
f 2578 2579 2580
f 2581 2582 2583
f 2584 2585 2586
f 2587 2588 2589
f 2590 2591 2592
f 2593 2594 2595
f 2596 2597 2598
f 2599 2600 2601
f 2602 2603 2604
f 2605 2606 2607
f 2608 2609 2610
f 2611 2612 2613
f 2614 2615 2616
f 2617 2618 2619
f 2620 2621 2622
f 2623 2624 2625
f 2626 2627 2628
f 2629 2630 2631
f 2632 2633 2634
f 2635 2636 2637
f 2638 2639 2640
f 2641 2642 2643
f 2644 2645 2646
f 2647 2648 2649
f 2650 2651 2652
f 2653 2654 2655
f 2656 2657 2658
f 2659 2660 2661
f 2662 2663 2664
f 2665 2666 2667
f 2668 2669 2670
f 2671 2672 2673
f 2674 2675 2676
f 2677 2678 2679
f 2680 2681 2682
f 2683 2684 2685
f 2686 2687 2688
