# Pyramida Building Blueprint OBJ
# id: four_log_support
# display_name: Four Log Support
# source_format: pyramida-building v1
# units: 1 OBJ unit = 1 Pyramida World Unit = 1 Blender metre
mtllib four_log_support.mtl

o south_west_log
# kind: log
# resource: log
# sub_unit: [0, 0, 0]
usemtl wood
v -0.360000 0.020000 -0.230000
v -0.247417 0.020000 -0.295000
v -0.247417 0.020000 -0.425000
v -0.360000 0.020000 -0.490000
v -0.472583 0.020000 -0.425000
v -0.472583 0.020000 -0.295000
v -0.360000 1.000000 -0.270000
v -0.282058 1.000000 -0.315000
v -0.282058 1.000000 -0.405000
v -0.360000 1.000000 -0.450000
v -0.437942 1.000000 -0.405000
v -0.437942 1.000000 -0.315000
v -0.360000 0.020000 -0.360000
v -0.360000 1.000000 -0.360000
f 1 7 8
f 1 8 2
f 13 2 1
f 14 7 8
f 2 8 9
f 2 9 3
f 13 3 2
f 14 8 9
f 3 9 10
f 3 10 4
f 13 4 3
f 14 9 10
f 4 10 11
f 4 11 5
f 13 5 4
f 14 10 11
f 5 11 12
f 5 12 6
f 13 6 5
f 14 11 12
f 6 12 7
f 6 7 1
f 13 1 6
f 14 12 7

o south_east_log
# kind: log
# resource: log
# sub_unit: [1, 0, 0]
usemtl wood
v 0.360000 0.020000 -0.230000
v 0.472583 0.020000 -0.295000
v 0.472583 0.020000 -0.425000
v 0.360000 0.020000 -0.490000
v 0.247417 0.020000 -0.425000
v 0.247417 0.020000 -0.295000
v 0.360000 1.000000 -0.270000
v 0.437942 1.000000 -0.315000
v 0.437942 1.000000 -0.405000
v 0.360000 1.000000 -0.450000
v 0.282058 1.000000 -0.405000
v 0.282058 1.000000 -0.315000
v 0.360000 0.020000 -0.360000
v 0.360000 1.000000 -0.360000
f 15 21 22
f 15 22 16
f 27 16 15
f 28 21 22
f 16 22 23
f 16 23 17
f 27 17 16
f 28 22 23
f 17 23 24
f 17 24 18
f 27 18 17
f 28 23 24
f 18 24 25
f 18 25 19
f 27 19 18
f 28 24 25
f 19 25 26
f 19 26 20
f 27 20 19
f 28 25 26
f 20 26 21
f 20 21 15
f 27 15 20
f 28 26 21

o north_west_log
# kind: log
# resource: log
# sub_unit: [0, 0, 1]
usemtl wood
v -0.360000 0.020000 0.490000
v -0.247417 0.020000 0.425000
v -0.247417 0.020000 0.295000
v -0.360000 0.020000 0.230000
v -0.472583 0.020000 0.295000
v -0.472583 0.020000 0.425000
v -0.360000 1.000000 0.450000
v -0.282058 1.000000 0.405000
v -0.282058 1.000000 0.315000
v -0.360000 1.000000 0.270000
v -0.437942 1.000000 0.315000
v -0.437942 1.000000 0.405000
v -0.360000 0.020000 0.360000
v -0.360000 1.000000 0.360000
f 29 35 36
f 29 36 30
f 41 30 29
f 42 35 36
f 30 36 37
f 30 37 31
f 41 31 30
f 42 36 37
f 31 37 38
f 31 38 32
f 41 32 31
f 42 37 38
f 32 38 39
f 32 39 33
f 41 33 32
f 42 38 39
f 33 39 40
f 33 40 34
f 41 34 33
f 42 39 40
f 34 40 35
f 34 35 29
f 41 29 34
f 42 40 35

o north_east_log
# kind: log
# resource: log
# sub_unit: [1, 0, 1]
usemtl wood
v 0.360000 0.020000 0.490000
v 0.472583 0.020000 0.425000
v 0.472583 0.020000 0.295000
v 0.360000 0.020000 0.230000
v 0.247417 0.020000 0.295000
v 0.247417 0.020000 0.425000
v 0.360000 1.000000 0.450000
v 0.437942 1.000000 0.405000
v 0.437942 1.000000 0.315000
v 0.360000 1.000000 0.270000
v 0.282058 1.000000 0.315000
v 0.282058 1.000000 0.405000
v 0.360000 0.020000 0.360000
v 0.360000 1.000000 0.360000
f 43 49 50
f 43 50 44
f 55 44 43
f 56 49 50
f 44 50 51
f 44 51 45
f 55 45 44
f 56 50 51
f 45 51 52
f 45 52 46
f 55 46 45
f 56 51 52
f 46 52 53
f 46 53 47
f 55 47 46
f 56 52 53
f 47 53 54
f 47 54 48
f 55 48 47
f 56 53 54
f 48 54 49
f 48 49 43
f 55 43 48
f 56 54 49
