# Pyramida Building Blueprint OBJ
# id: pile
# display_name: Pile
# source_format: pyramida-building v2
# units: 1 OBJ unit = 1 Pyramida World Unit = 1 Blender metre
mtllib pile.mtl

o stone_sw
# kind: block
# resource: 
# sub_unit: [0, 0, 0]
usemtl limestone
v -0.500000 0.152000 -0.500000
v -0.390000 0.080000 -0.500000
v -0.500000 0.080000 -0.409800
v -0.610000 0.080000 -0.500000
v -0.500000 0.080000 -0.590200
v -0.500000 0.008000 -0.500000
f 1 2 3
f 1 3 4
f 1 4 5
f 1 5 2
f 6 3 2
f 6 4 3
f 6 5 4
f 6 2 5

o stone_se
# kind: block
# resource: 
# sub_unit: [3, 0, 0]
usemtl limestone
v 1.500000 0.156000 -0.500000
v 1.592400 0.080000 -0.500000
v 1.500000 0.080000 -0.390000
v 1.407600 0.080000 -0.500000
v 1.500000 0.080000 -0.610000
v 1.500000 0.004000 -0.500000
f 7 8 9
f 7 9 10
f 7 10 11
f 7 11 8
f 12 9 8
f 12 10 9
f 12 11 10
f 12 8 11

o stone_nw
# kind: block
# resource: 
# sub_unit: [0, 0, 3]
usemtl limestone
v -0.500000 0.152000 1.500000
v -0.390000 0.080000 1.500000
v -0.500000 0.080000 1.590200
v -0.610000 0.080000 1.500000
v -0.500000 0.080000 1.409800
v -0.500000 0.008000 1.500000
f 13 14 15
f 13 15 16
f 13 16 17
f 13 17 14
f 18 15 14
f 18 16 15
f 18 17 16
f 18 14 17

o stone_ne
# kind: block
# resource: 
# sub_unit: [3, 0, 3]
usemtl limestone
v 1.500000 0.156000 1.500000
v 1.592400 0.080000 1.500000
v 1.500000 0.080000 1.610000
v 1.407600 0.080000 1.500000
v 1.500000 0.080000 1.390000
v 1.500000 0.004000 1.500000
f 19 20 21
f 19 21 22
f 19 22 23
f 19 23 20
f 24 21 20
f 24 22 21
f 24 23 22
f 24 20 23
